<svg width="32" height="32" viewBox="0 0 32 32" fill="none" xmlns="http://www.w3.org/2000/svg">
<path fill-rule="evenodd" clip-rule="evenodd" d="M15.9857 2.89595C8.75643 2.89595 2.89596 8.75639 2.89596 15.9856C2.89596 23.2149 8.75643 29.0753 15.9857 29.0753C23.2149 29.0753 29.0754 23.2149 29.0754 15.9856C29.0754 8.75639 23.2149 2.89595 15.9857 2.89595ZM0 15.9856C0 7.15699 7.15705 0 15.9857 0C24.8143 0 31.9713 7.15699 31.9713 15.9856C31.9713 24.8143 24.8143 31.9713 15.9857 31.9713C7.15705 31.9713 0 24.8143 0 15.9856Z" fill="#0F20E8"/>
<path d="M5.70508 26.2948C11.3811 31.9709 20.5903 31.9709 26.2664 26.2948L26.2953 26.2514L16.0147 15.9707L5.70508 26.2803V26.2948Z" fill="#BFBFEC"/>
<path fill-rule="evenodd" clip-rule="evenodd" d="M16.0144 14.5229C16.3984 14.5229 16.7667 14.6755 17.0383 14.9471L27.3189 25.2277C27.8072 25.716 27.8828 26.4812 27.4994 27.0555L27.4704 27.0989C27.4176 27.178 27.3572 27.2517 27.29 27.3189C21.0484 33.5604 10.9225 33.5604 4.68094 27.3189C4.40939 27.0473 4.25684 26.679 4.25684 26.295V26.2805C4.25684 25.8965 4.40939 25.5282 4.68094 25.2566L14.9905 14.9471C15.2621 14.6755 15.6304 14.5229 16.0144 14.5229ZM7.80056 26.2325C12.5801 30.0699 19.4321 30.0613 24.2024 26.2067L16.0144 18.0187L7.80056 26.2325Z" fill="#0F20E8"/>
<path d="M16.0149 21.8353C19.2456 21.8353 21.8647 19.2163 21.8647 15.9855C21.8647 12.7548 19.2456 10.1357 16.0149 10.1357C12.7841 10.1357 10.165 12.7548 10.165 15.9855C10.165 19.2163 12.7841 21.8353 16.0149 21.8353Z" fill="white"/>
<path fill-rule="evenodd" clip-rule="evenodd" d="M16.0146 11.5839C13.5835 11.5839 11.6128 13.5547 11.6128 15.9858C11.6128 18.4168 13.5835 20.3876 16.0146 20.3876C18.4457 20.3876 20.4165 18.4168 20.4165 15.9858C20.4165 13.5547 18.4457 11.5839 16.0146 11.5839ZM8.7168 15.9858C8.7168 11.9553 11.9841 8.68799 16.0146 8.68799C20.045 8.68799 23.3124 11.9553 23.3124 15.9858C23.3124 20.0162 20.045 23.2835 16.0146 23.2835C11.9841 23.2835 8.7168 20.0162 8.7168 15.9858Z" fill="#0F20E8"/>
</svg>
