<svg width="50" height="50" viewBox="0 0 50 50" fill="none" xmlns="http://www.w3.org/2000/svg">
<path d="M24.964 48.928C38.199 48.928 48.928 38.199 48.928 24.964C48.928 11.729 38.199 1 24.964 1C11.729 1 1 11.729 1 24.964C1 38.199 11.729 48.928 24.964 48.928Z" stroke="#0F20E8" stroke-width="2" stroke-linecap="round" stroke-linejoin="round"/>
<path d="M8.04102 41.9831C17.3975 51.3396 32.5779 51.3396 41.9343 41.9831L41.9821 41.9115L25.0354 24.9648L8.04102 41.9592V41.9831Z" stroke="#0F20E8" stroke-width="2" stroke-linecap="round" stroke-linejoin="round"/>
<path d="M25.012 34.6061C30.3376 34.6061 34.6549 30.2888 34.6549 24.9632C34.6549 19.6376 30.3376 15.3203 25.012 15.3203C19.6864 15.3203 15.3691 19.6376 15.3691 24.9632C15.3691 30.2888 19.6864 34.6061 25.012 34.6061Z" fill="white" stroke="#0F20E8" stroke-width="2" stroke-linecap="round" stroke-linejoin="round"/>
</svg>
