<svg width="137" height="42" viewBox="0 0 137 42" fill="none" xmlns="http://www.w3.org/2000/svg">
<path d="M130.997 1H6.00319C3.25718 1 1 3.2541 1 5.99639V36.0036C1 38.7603 3.24281 41 6.00319 41H130.997C133.743 41 136 38.7459 136 36.0036V5.99639C136 3.23974 133.757 1 130.997 1Z" stroke="#0F20E8" stroke-miterlimit="10"/>
<path d="M15.7204 24.8913L14.714 26.8152C14.3546 27.5187 14.6133 28.3802 15.3178 28.7535C15.5335 28.8684 15.7635 28.9114 15.9792 28.9114C16.4967 28.9114 16.9999 28.6243 17.2587 28.1361L18.9552 24.877H15.706L15.7204 24.8913Z" fill="#0F20E8"/>
<path fill-rule="evenodd" clip-rule="evenodd" d="M18.9552 24.877L17.2587 28.1361C16.9999 28.6243 16.4967 28.9114 15.9792 28.9114C15.7635 28.9114 15.5335 28.8684 15.3178 28.7535C14.6133 28.3802 14.3546 27.5187 14.714 26.8152L15.7204 24.8913L15.706 24.877H18.9552Z" fill="#0F20E8"/>
<path d="M15.6206 24.3453H24.9944L23.528 21.4738H20.7389L22.2341 18.6166L24.0887 15.0703L24.8075 13.7063C25.167 13.0028 24.9082 12.1414 24.2037 11.7681C23.5999 11.4522 22.9098 11.6245 22.4785 12.1127C22.0472 11.6245 21.3571 11.4522 20.7532 11.7681C20.0488 12.1414 19.7756 13.0028 20.1494 13.7063L20.8682 15.0703L17.5184 21.4738H15.2756C14.4849 21.4738 13.8379 22.1198 13.8379 22.9095C13.8379 23.6992 14.4849 24.3453 15.2756 24.3453H15.635H15.6206Z" fill="#0F20E8"/>
<path fill-rule="evenodd" clip-rule="evenodd" d="M20.7389 21.4738H23.528L24.9944 24.3453H15.2756C14.4849 24.3453 13.8379 23.6992 13.8379 22.9095C13.8379 22.1198 14.4849 21.4738 15.2756 21.4738H17.5184L20.8682 15.0703L20.1494 13.7063C19.7756 13.0028 20.0488 12.1414 20.7532 11.7681C21.2351 11.516 21.7718 11.5748 22.1882 11.8569C22.2936 11.9283 22.3913 12.014 22.4785 12.1127C22.5656 12.014 22.6633 11.9283 22.7688 11.8569C23.1851 11.5748 23.7219 11.516 24.2037 11.7681C24.9082 12.1414 25.167 13.0028 24.8075 13.7063L24.0887 15.0703L20.7389 21.4738ZM23.4714 13.1589L22.4785 14.2827L21.4856 13.1589L22.4798 15.0454L22.8164 14.4016L23.4714 13.1589Z" fill="#0F20E8"/>
<path d="M31.1192 22.9095C31.1192 22.1198 30.4722 21.4737 29.6815 21.4737H27.4387L24.4483 15.7451L22.7949 18.7745L24.1895 21.445L26.001 24.8908L27.6975 28.15C27.9563 28.6382 28.4595 28.9253 28.977 28.9253C29.2071 28.9253 29.4227 28.8679 29.6384 28.7674C30.3428 28.3941 30.616 27.5326 30.2422 26.8291L28.9483 24.3596H29.6959C30.4866 24.3596 31.1336 23.7135 31.1336 22.9239L31.1192 22.9095Z" fill="#0F20E8"/>
<path fill-rule="evenodd" clip-rule="evenodd" d="M29.6815 22.9239V22.9095H26.5832L26.5907 22.9239H29.6815ZM28.9483 24.3596H29.6959C29.9746 24.3596 30.2354 24.2794 30.4563 24.1409C30.8623 23.8864 31.1336 23.4352 31.1336 22.9239L31.1192 22.9095C31.1192 22.1198 30.4722 21.4737 29.6815 21.4737H27.4387L24.4483 15.7451L22.7949 18.7745L24.1895 21.445L26.001 24.8908L27.6975 28.15C27.9563 28.6382 28.4595 28.9253 28.977 28.9253C29.2071 28.9253 29.4227 28.8679 29.6384 28.7674C30.3428 28.3941 30.616 27.5326 30.2422 26.8291L28.9483 24.3596ZM28.9698 27.4898C28.97 27.4898 28.9693 27.4899 28.9698 27.4898C28.9711 27.4895 28.9735 27.4889 28.9769 27.4878C28.9769 27.4878 28.9769 27.4878 28.9769 27.4878C28.9778 27.4883 28.9786 27.4887 28.9793 27.489C28.9803 27.4895 28.9811 27.4897 28.9815 27.4899C28.9821 27.49 28.9821 27.4891 28.9793 27.489C28.9789 27.489 28.9775 27.4895 28.977 27.4895C28.9727 27.4895 28.9706 27.4897 28.9698 27.4898ZM28.9688 27.4795L28.9731 27.4878L28.9698 27.4898M28.9688 27.4795C28.9686 27.4791 28.9684 27.4787 28.9681 27.4782L28.9615 27.4817" fill="#0F20E8"/>
<path fill-rule="evenodd" clip-rule="evenodd" d="M22.464 8.17912C15.2861 8.17912 9.4672 13.9901 9.4672 21.1583C9.4672 28.3265 15.2861 34.1375 22.464 34.1375C29.6419 34.1375 35.4608 28.3265 35.4608 21.1583C35.4608 13.9901 29.6419 8.17912 22.464 8.17912ZM6.5918 21.1583C6.5918 12.4042 13.698 5.30762 22.464 5.30762C31.23 5.30762 38.3362 12.4042 38.3362 21.1583C38.3362 29.9124 31.23 37.009 22.464 37.009C13.698 37.009 6.5918 29.9124 6.5918 21.1583Z" fill="#0F20E8"/>
<path d="M49.1597 16.9083C48.5386 16.9083 47.9558 16.7896 47.4114 16.5522C46.8747 16.3149 46.3993 15.9856 45.9852 15.5644C45.5788 15.1356 45.2606 14.6456 45.0306 14.0942C44.8006 13.5352 44.6855 12.938 44.6855 12.3024C44.6855 11.6745 44.7967 11.0849 45.0191 10.5336C45.2491 9.97458 45.5673 9.48451 45.9737 9.06336C46.3878 8.6422 46.8632 8.31294 47.3999 8.07556C47.9443 7.83053 48.5309 7.70801 49.1597 7.70801C49.7117 7.70801 50.214 7.78841 50.6664 7.94921C51.1188 8.11002 51.5558 8.36654 51.9776 8.71878C52.0466 8.77238 52.0849 8.83746 52.0926 8.91404C52.1079 8.98295 52.1002 9.05187 52.0696 9.12079C52.0389 9.18205 51.9929 9.22799 51.9316 9.25862C51.9162 9.31988 51.8779 9.36582 51.8165 9.39645C51.7552 9.42708 51.6824 9.43857 51.598 9.43091C51.5213 9.42325 51.4447 9.38879 51.368 9.32753C51.0689 9.06719 50.7431 8.87575 50.3903 8.75323C50.0376 8.62306 49.6274 8.55797 49.1597 8.55797C48.6613 8.55797 48.1935 8.65752 47.7565 8.85661C47.3271 9.0557 46.9475 9.32753 46.6178 9.67212C46.2881 10.0167 46.0274 10.4149 45.8357 10.8667C45.6517 11.3184 45.5597 11.797 45.5597 12.3024C45.5597 12.8231 45.6517 13.3094 45.8357 13.7611C46.0274 14.2129 46.2881 14.6111 46.6178 14.9557C46.9475 15.3003 47.3271 15.5721 47.7565 15.7712C48.1935 15.9626 48.6613 16.0583 49.1597 16.0583C49.5814 16.0583 49.9801 15.9894 50.3558 15.8516C50.7316 15.7138 51.0881 15.5147 51.4255 15.2543C51.5175 15.1777 51.6133 15.1471 51.713 15.1624C51.8204 15.1777 51.9124 15.2237 51.9891 15.3003C52.0657 15.3768 52.1041 15.4764 52.1041 15.5989C52.1041 15.6602 52.0964 15.7176 52.0811 15.7712C52.0657 15.8171 52.0312 15.8669 51.9776 15.9205C51.5865 16.2804 51.1494 16.5369 50.6664 16.6901C50.1833 16.8356 49.6811 16.9083 49.1597 16.9083ZM52.1041 15.5989L51.23 15.4151V13.1064H49.4357C49.3054 13.1064 49.198 13.0681 49.1137 12.9916C49.0293 12.915 48.9871 12.8193 48.9871 12.7044C48.9871 12.5896 49.0293 12.4977 49.1137 12.4288C49.198 12.3522 49.3054 12.3139 49.4357 12.3139H51.6555C51.7859 12.3139 51.8932 12.356 51.9776 12.4402C52.0619 12.5168 52.1041 12.6202 52.1041 12.7504V15.5989Z" fill="#0F20E8"/>
<path d="M56.2278 16.8509C55.6068 16.8509 55.0547 16.7169 54.5716 16.4489C54.0962 16.1732 53.7205 15.7942 53.4445 15.3117C53.1761 14.8293 53.0419 14.278 53.0419 13.6578C53.0419 13.0299 53.1684 12.4785 53.4215 12.0038C53.6822 11.5214 54.0387 11.1423 54.4911 10.8667C54.9435 10.591 55.4649 10.4532 56.0553 10.4532C56.6381 10.4532 57.1441 10.5872 57.5735 10.8552C58.0106 11.1155 58.348 11.4792 58.5857 11.9463C58.8234 12.4134 58.9422 12.9456 58.9422 13.5429C58.9422 13.6654 58.9039 13.765 58.8272 13.8415C58.7505 13.9105 58.6509 13.9449 58.5282 13.9449H53.64V13.2098H58.6202L58.1256 13.5659C58.1333 13.1217 58.0528 12.7236 57.8841 12.3713C57.7154 12.0191 57.4739 11.7434 57.1595 11.5443C56.8528 11.3452 56.4847 11.2457 56.0553 11.2457C55.6183 11.2457 55.2349 11.3491 54.9052 11.5558C54.5755 11.7626 54.3186 12.0497 54.1346 12.4173C53.9582 12.7772 53.87 13.1907 53.87 13.6578C53.87 14.1249 53.9697 14.5384 54.1691 14.8982C54.3761 15.2581 54.656 15.5415 55.0087 15.7482C55.3614 15.955 55.7678 16.0583 56.2278 16.0583C56.5039 16.0583 56.7799 16.0124 57.056 15.9205C57.3397 15.821 57.5659 15.6984 57.7346 15.553C57.8189 15.484 57.9148 15.4496 58.0221 15.4496C58.1294 15.4419 58.2215 15.4687 58.2981 15.53C58.3978 15.6219 58.4477 15.7214 58.4477 15.8286C58.4553 15.9358 58.4132 16.0277 58.3211 16.1043C58.0681 16.3187 57.7461 16.4986 57.355 16.6441C56.964 16.782 56.5882 16.8509 56.2278 16.8509Z" fill="#0F20E8"/>
<path d="M62.9017 16.7934C62.4954 16.7934 62.1311 16.6977 61.8091 16.5063C61.4947 16.3149 61.2455 16.0545 61.0615 15.7252C60.8775 15.3883 60.7854 15.0055 60.7854 14.5766V8.95998C60.7854 8.82981 60.8238 8.7226 60.9005 8.63837C60.9848 8.55414 61.0922 8.51203 61.2225 8.51203C61.3529 8.51203 61.4602 8.55414 61.5446 8.63837C61.6289 8.7226 61.6711 8.82981 61.6711 8.95998V14.5766C61.6711 14.9672 61.7861 15.2888 62.0161 15.5415C62.2462 15.7865 62.5414 15.909 62.9017 15.909H63.2123C63.335 15.909 63.4346 15.9511 63.5113 16.0354C63.588 16.1196 63.6263 16.2268 63.6263 16.357C63.6263 16.4871 63.5803 16.5943 63.4883 16.6786C63.3963 16.7552 63.2813 16.7934 63.1433 16.7934H62.9017ZM60.0378 11.5099C59.9228 11.5099 59.827 11.4754 59.7503 11.4065C59.6736 11.3299 59.6353 11.238 59.6353 11.1308C59.6353 11.016 59.6736 10.9241 59.7503 10.8552C59.827 10.7786 59.9228 10.7403 60.0378 10.7403H62.9708C63.0858 10.7403 63.1816 10.7786 63.2583 10.8552C63.335 10.9241 63.3733 11.016 63.3733 11.1308C63.3733 11.238 63.335 11.3299 63.2583 11.4065C63.1816 11.4754 63.0858 11.5099 62.9708 11.5099H60.0378Z" fill="#0F20E8"/>
<path d="M69.0702 16.7934C68.9322 16.7934 68.821 16.7552 68.7366 16.6786C68.66 16.5943 68.6216 16.4833 68.6216 16.3455V10.9585C68.6216 10.8207 68.66 10.7135 68.7366 10.6369C68.821 10.5527 68.9322 10.5106 69.0702 10.5106C69.2005 10.5106 69.3041 10.5527 69.3807 10.6369C69.4651 10.7135 69.5073 10.8207 69.5073 10.9585V16.3455C69.5073 16.4833 69.4651 16.5943 69.3807 16.6786C69.3041 16.7552 69.2005 16.7934 69.0702 16.7934ZM69.0587 9.31605C68.89 9.31605 68.7443 9.25479 68.6216 9.13227C68.4989 9.00976 68.4376 8.86044 68.4376 8.68432C68.4376 8.49288 68.4989 8.34357 68.6216 8.23636C68.752 8.1215 68.9015 8.06407 69.0702 8.06407C69.2312 8.06407 69.3731 8.1215 69.4958 8.23636C69.6261 8.34357 69.6913 8.49288 69.6913 8.68432C69.6913 8.86044 69.6299 9.00976 69.5073 9.13227C69.3846 9.25479 69.2351 9.31605 69.0587 9.31605Z" fill="#0F20E8"/>
<path d="M74.2236 16.7934C73.8172 16.7934 73.453 16.6977 73.131 16.5063C72.8166 16.3149 72.5674 16.0545 72.3834 15.7252C72.1993 15.3883 72.1073 15.0055 72.1073 14.5766V8.95998C72.1073 8.82981 72.1457 8.7226 72.2224 8.63837C72.3067 8.55414 72.414 8.51203 72.5444 8.51203C72.6747 8.51203 72.7821 8.55414 72.8664 8.63837C72.9508 8.7226 72.993 8.82981 72.993 8.95998V14.5766C72.993 14.9672 73.108 15.2888 73.338 15.5415C73.568 15.7865 73.8632 15.909 74.2236 15.909H74.5342C74.6569 15.909 74.7565 15.9511 74.8332 16.0354C74.9099 16.1196 74.9482 16.2268 74.9482 16.357C74.9482 16.4871 74.9022 16.5943 74.8102 16.6786C74.7182 16.7552 74.6032 16.7934 74.4652 16.7934H74.2236ZM71.3597 11.5099C71.2447 11.5099 71.1489 11.4754 71.0722 11.4065C70.9955 11.3299 70.9572 11.238 70.9572 11.1308C70.9572 11.016 70.9955 10.9241 71.0722 10.8552C71.1489 10.7786 71.2447 10.7403 71.3597 10.7403H74.2926C74.4077 10.7403 74.5035 10.7786 74.5802 10.8552C74.6569 10.9241 74.6952 11.016 74.6952 11.1308C74.6952 11.238 74.6569 11.3299 74.5802 11.4065C74.5035 11.4754 74.4077 11.5099 74.2926 11.5099H71.3597Z" fill="#0F20E8"/>
<path d="M82.6234 16.8509C82.01 16.8509 81.4617 16.713 80.9787 16.4374C80.4956 16.1617 80.116 15.7827 79.84 15.3003C79.564 14.8178 79.4259 14.2703 79.4259 13.6578C79.4259 13.0375 79.564 12.4862 79.84 12.0038C80.116 11.5214 80.4956 11.1423 80.9787 10.8667C81.4617 10.591 82.01 10.4532 82.6234 10.4532C83.2368 10.4532 83.7812 10.591 84.2566 10.8667C84.7397 11.1423 85.1192 11.5214 85.3953 12.0038C85.6713 12.4862 85.8132 13.0375 85.8208 13.6578C85.8208 14.2703 85.679 14.8178 85.3953 15.3003C85.1192 15.7827 84.7397 16.1617 84.2566 16.4374C83.7812 16.713 83.2368 16.8509 82.6234 16.8509ZM82.6234 16.0469C83.0681 16.0469 83.4668 15.9435 83.8196 15.7367C84.1723 15.53 84.4483 15.2467 84.6477 14.8868C84.847 14.5269 84.9467 14.1172 84.9467 13.6578C84.9467 13.1983 84.847 12.7887 84.6477 12.4288C84.4483 12.0612 84.1723 11.7741 83.8196 11.5673C83.4668 11.3606 83.0681 11.2572 82.6234 11.2572C82.1787 11.2572 81.7799 11.3606 81.4272 11.5673C81.0745 11.7741 80.7946 12.0612 80.5876 12.4288C80.3882 12.7887 80.2886 13.1983 80.2886 13.6578C80.2886 14.1172 80.3882 14.5269 80.5876 14.8868C80.7946 15.2467 81.0745 15.53 81.4272 15.7367C81.7799 15.9435 82.1787 16.0469 82.6234 16.0469Z" fill="#0F20E8"/>
<path d="M92.9375 16.7934C92.8072 16.7934 92.6998 16.7513 92.6155 16.6671C92.5312 16.5829 92.489 16.4795 92.489 16.357V13.3706C92.489 12.8959 92.397 12.5053 92.2129 12.199C92.0366 11.8927 91.7912 11.663 91.4768 11.5099C91.1701 11.3567 90.8212 11.2802 90.4302 11.2802C90.0545 11.2802 89.7133 11.3529 89.4065 11.4984C89.1075 11.6439 88.8698 11.843 88.6934 12.0957C88.5171 12.3484 88.4289 12.6355 88.4289 12.9571H87.7963C87.8117 12.4747 87.942 12.0459 88.1874 11.6707C88.4327 11.2878 88.7586 10.9892 89.165 10.7748C89.5714 10.5527 90.0238 10.4417 90.5222 10.4417C91.0666 10.4417 91.5535 10.5565 91.9829 10.7863C92.4123 11.0083 92.7497 11.3376 92.995 11.7741C93.2481 12.2105 93.3746 12.7427 93.3746 13.3706V16.357C93.3746 16.4795 93.3324 16.5829 93.2481 16.6671C93.1637 16.7513 93.0602 16.7934 92.9375 16.7934ZM87.9918 16.7934C87.8538 16.7934 87.7426 16.7552 87.6583 16.6786C87.5816 16.5943 87.5433 16.4871 87.5433 16.357V10.9585C87.5433 10.8207 87.5816 10.7135 87.6583 10.6369C87.7426 10.5527 87.8538 10.5106 87.9918 10.5106C88.1222 10.5106 88.2257 10.5527 88.3024 10.6369C88.3867 10.7135 88.4289 10.8207 88.4289 10.9585V16.357C88.4289 16.4871 88.3867 16.5943 88.3024 16.6786C88.2257 16.7552 88.1222 16.7934 87.9918 16.7934Z" fill="#0F20E8"/>
<path d="M44.629 31.1509C44.4526 31.1509 44.3261 31.0781 44.2494 30.9326C44.1728 30.7871 44.1651 30.6455 44.2264 30.5076L47.6079 22.4904C47.6923 22.2837 47.8379 22.1803 48.045 22.1803C48.2443 22.1803 48.3862 22.2837 48.4705 22.4904L51.8635 30.5191C51.9325 30.6646 51.921 30.8063 51.829 30.9441C51.7447 31.0819 51.622 31.1509 51.4609 31.1509C51.3689 31.1509 51.2846 31.1279 51.2079 31.0819C51.1389 31.036 51.0814 30.9671 51.0354 30.8752L47.8724 23.214H48.229L45.0431 30.8752C45.0047 30.9671 44.9472 31.036 44.8705 31.0819C44.8015 31.1279 44.721 31.1509 44.629 31.1509ZM45.3881 29.0145L45.7332 28.2449H50.4028L50.7478 29.0145H45.3881Z" fill="#0F20E8"/>
<path d="M53.6592 31.1509C53.5288 31.1509 53.4215 31.1087 53.3371 31.0245C53.2528 30.9403 53.2106 30.8331 53.2106 30.7029V22.6282C53.2106 22.4981 53.2528 22.3909 53.3371 22.3066C53.4215 22.2224 53.5288 22.1803 53.6592 22.1803H55.9595C56.5269 22.1803 57.0292 22.3066 57.4662 22.5593C57.9033 22.8044 58.2445 23.1451 58.4899 23.5816C58.7352 24.0181 58.8579 24.5234 58.8579 25.0977C58.8579 25.6567 58.7352 26.1544 58.4899 26.5909C58.2445 27.0197 57.9033 27.3605 57.4662 27.6132C57.0292 27.8582 56.5269 27.9807 55.9595 27.9807H54.1078V30.7029C54.1078 30.8331 54.0656 30.9403 53.9812 31.0245C53.8969 31.1087 53.7895 31.1509 53.6592 31.1509ZM54.1078 27.1193H55.9595C56.3506 27.1193 56.6994 27.035 57.0062 26.8666C57.3129 26.6905 57.5506 26.4493 57.7193 26.143C57.8956 25.8367 57.9838 25.4883 57.9838 25.0977C57.9838 24.6919 57.8956 24.3358 57.7193 24.0295C57.5506 23.7232 57.3129 23.482 57.0062 23.3059C56.6994 23.1298 56.3506 23.0417 55.9595 23.0417H54.1078V27.1193Z" fill="#0F20E8"/>
<path d="M60.7017 31.1509C60.5713 31.1509 60.464 31.1087 60.3796 31.0245C60.2953 30.9403 60.2531 30.8331 60.2531 30.7029V22.6282C60.2531 22.4981 60.2953 22.3909 60.3796 22.3066C60.464 22.2224 60.5713 22.1803 60.7017 22.1803H63.002C63.5694 22.1803 64.0716 22.3066 64.5087 22.5593C64.9458 22.8044 65.287 23.1451 65.5323 23.5816C65.7777 24.0181 65.9004 24.5234 65.9004 25.0977C65.9004 25.6567 65.7777 26.1544 65.5323 26.5909C65.287 27.0197 64.9458 27.3605 64.5087 27.6132C64.0716 27.8582 63.5694 27.9807 63.002 27.9807H61.1502V30.7029C61.1502 30.8331 61.1081 30.9403 61.0237 31.0245C60.9394 31.1087 60.832 31.1509 60.7017 31.1509ZM61.1502 27.1193H63.002C63.393 27.1193 63.7419 27.035 64.0486 26.8666C64.3554 26.6905 64.593 26.4493 64.7617 26.143C64.9381 25.8367 65.0263 25.4883 65.0263 25.0977C65.0263 24.6919 64.9381 24.3358 64.7617 24.0295C64.593 23.7232 64.3554 23.482 64.0486 23.3059C63.7419 23.1298 63.393 23.0417 63.002 23.0417H61.1502V27.1193Z" fill="#0F20E8"/>
<path d="M73.4256 31.2657C72.9349 31.2657 72.4786 31.1968 72.0569 31.059C71.6428 30.9135 71.2825 30.7106 70.9757 30.4502C70.669 30.1899 70.4352 29.8874 70.2741 29.5428C70.2128 29.4203 70.209 29.3093 70.2626 29.2097C70.324 29.1025 70.4237 29.0298 70.5617 28.9915C70.669 28.9609 70.7726 28.9723 70.8722 29.0259C70.9796 29.0796 71.0601 29.16 71.1138 29.2672C71.2288 29.4892 71.3975 29.6883 71.6198 29.8644C71.8422 30.0405 72.1067 30.1784 72.4134 30.2779C72.7202 30.3698 73.0575 30.4158 73.4256 30.4158C73.832 30.4158 74.1924 30.3507 74.5067 30.2205C74.8211 30.0827 75.0665 29.8874 75.2428 29.6347C75.4269 29.3744 75.5189 29.0604 75.5189 28.6929C75.5189 28.2258 75.3464 27.8237 75.0013 27.4868C74.6563 27.1499 74.1157 26.9355 73.3796 26.8436C72.4825 26.7364 71.7809 26.4607 71.2748 26.0166C70.7687 25.5648 70.5157 25.0135 70.5157 24.3626C70.5157 23.8955 70.6384 23.4897 70.8837 23.1451C71.1368 22.8005 71.4818 22.5364 71.9189 22.3526C72.3559 22.1611 72.8582 22.0654 73.4256 22.0654C73.8473 22.0654 74.2307 22.1343 74.5757 22.2722C74.9208 22.4024 75.2198 22.5785 75.4729 22.8005C75.7336 23.0149 75.9444 23.2523 76.1055 23.5127C76.1821 23.6352 76.2051 23.7539 76.1745 23.8687C76.1515 23.9836 76.0863 24.0717 75.9789 24.1329C75.8639 24.1865 75.7451 24.1942 75.6224 24.1559C75.5074 24.1176 75.4192 24.0449 75.3579 23.9376C75.2428 23.7615 75.0972 23.5969 74.9208 23.4438C74.7521 23.2829 74.5451 23.1566 74.2997 23.0647C74.0543 22.9728 73.7591 22.9231 73.4141 22.9154C72.8083 22.9154 72.3214 23.0456 71.9534 23.3059C71.5853 23.5586 71.4013 23.93 71.4013 24.4201C71.4013 24.6804 71.4703 24.9216 71.6083 25.1437C71.7464 25.3581 71.9725 25.5457 72.2869 25.7065C72.609 25.8596 73.0384 25.9745 73.5751 26.0511C74.5336 26.1889 75.2428 26.4837 75.7029 26.9355C76.1706 27.3796 76.4045 27.9616 76.4045 28.6814C76.4045 29.0949 76.3278 29.4624 76.1745 29.784C76.0288 30.1056 75.8179 30.3775 75.5419 30.5995C75.2735 30.8139 74.9553 30.9786 74.5872 31.0934C74.2269 31.2083 73.8396 31.2657 73.4256 31.2657Z" fill="#0F20E8"/>
<path d="M80.4309 31.1509C80.3082 31.1509 80.2008 31.1087 80.1088 31.0245C80.0245 30.9326 79.9823 30.8254 79.9823 30.7029V22.1803H80.8794V30.7029C80.8794 30.8254 80.8373 30.9326 80.7529 31.0245C80.6686 31.1087 80.5612 31.1509 80.4309 31.1509ZM77.2564 22.9958C77.1337 22.9958 77.0341 22.9575 76.9574 22.8809C76.8807 22.8044 76.8424 22.7086 76.8424 22.5938C76.8424 22.4713 76.8807 22.3717 76.9574 22.2951C77.0341 22.2186 77.1337 22.1803 77.2564 22.1803H83.6168C83.7395 22.1803 83.8392 22.2186 83.9159 22.2951C83.9925 22.3717 84.0309 22.4713 84.0309 22.5938C84.0309 22.7086 83.9925 22.8044 83.9159 22.8809C83.8392 22.9575 83.7395 22.9958 83.6168 22.9958H77.2564Z" fill="#0F20E8"/>
<path d="M88.9359 31.2657C88.2688 31.2657 87.6554 31.1509 87.0957 30.9211C86.5359 30.6914 86.049 30.3698 85.635 29.9563C85.2286 29.5428 84.9104 29.0566 84.6804 28.4976C84.458 27.9386 84.3468 27.326 84.3468 26.6598C84.3468 26.0013 84.458 25.3925 84.6804 24.8336C84.9104 24.2746 85.2286 23.7883 85.635 23.3748C86.049 22.9613 86.5359 22.6397 87.0957 22.41C87.6554 22.1803 88.2688 22.0654 88.9359 22.0654C89.5954 22.0654 90.205 22.1803 90.7647 22.41C91.3244 22.6397 91.8113 22.9613 92.2254 23.3748C92.6395 23.7883 92.9577 24.2746 93.18 24.8336C93.4101 25.3925 93.5251 26.0013 93.5251 26.6598C93.5251 27.326 93.4101 27.9386 93.18 28.4976C92.9577 29.0566 92.6395 29.5428 92.2254 29.9563C91.8113 30.3698 91.3244 30.6914 90.7647 30.9211C90.205 31.1509 89.5954 31.2657 88.9359 31.2657ZM88.9359 30.4158C89.465 30.4158 89.9558 30.3239 90.4081 30.1401C90.8605 29.9487 91.2516 29.6845 91.5813 29.3476C91.9187 29.003 92.1794 28.6048 92.3634 28.153C92.5474 27.6936 92.6395 27.1958 92.6395 26.6598C92.6395 26.1315 92.5474 25.6414 92.3634 25.1896C92.1794 24.7302 91.9187 24.332 91.5813 23.9951C91.2516 23.6505 90.8605 23.3863 90.4081 23.2025C89.9558 23.0111 89.465 22.9154 88.9359 22.9154C88.3992 22.9154 87.9046 23.0111 87.4522 23.2025C86.9998 23.3863 86.605 23.6505 86.2676 23.9951C85.9379 24.332 85.681 24.7302 85.497 25.1896C85.3129 25.6414 85.2209 26.1315 85.2209 26.6598C85.2209 27.1958 85.3129 27.6936 85.497 28.153C85.681 28.6048 85.9379 29.003 86.2676 29.3476C86.605 29.6845 86.9998 29.9487 87.4522 30.1401C87.9046 30.3239 88.3992 30.4158 88.9359 30.4158Z" fill="#0F20E8"/>
<path d="M95.8242 31.1509C95.6939 31.1509 95.5865 31.1087 95.5022 31.0245C95.4178 30.9403 95.3757 30.8331 95.3757 30.7029V22.6282C95.3757 22.4981 95.4178 22.3909 95.5022 22.3066C95.5865 22.2224 95.6939 22.1803 95.8242 22.1803H97.975C98.5348 22.1803 99.0332 22.299 99.4702 22.5364C99.9073 22.7661 100.249 23.0915 100.494 23.5127C100.747 23.9262 100.873 24.4047 100.873 24.9484C100.873 25.4691 100.747 25.9324 100.494 26.3382C100.249 26.7441 99.9073 27.0618 99.4702 27.2916C99.0332 27.5213 98.5348 27.6361 97.975 27.6361H96.2728V30.7029C96.2728 30.8331 96.2306 30.9403 96.1463 31.0245C96.0619 31.1087 95.9546 31.1509 95.8242 31.1509ZM100.632 31.1509C100.532 31.1509 100.452 31.1317 100.39 31.0934C100.337 31.0551 100.287 30.9977 100.241 30.9211L98.0325 27.4064L98.9297 27.1767L100.988 30.4617C101.103 30.6455 101.123 30.8063 101.046 30.9441C100.977 31.0819 100.839 31.1509 100.632 31.1509ZM96.2728 26.7747H97.975C98.3661 26.7747 98.7111 26.6981 99.0102 26.545C99.3169 26.3842 99.5584 26.1659 99.7348 25.8903C99.9111 25.6146 99.9993 25.3007 99.9993 24.9484C99.9993 24.5732 99.9111 24.2439 99.7348 23.9606C99.5584 23.6696 99.3169 23.4438 99.0102 23.2829C98.7111 23.1221 98.3661 23.0417 97.975 23.0417H96.2728V26.7747Z" fill="#0F20E8"/>
<path d="M102.934 31.1509C102.804 31.1509 102.696 31.1087 102.612 31.0245C102.528 30.9403 102.486 30.8331 102.486 30.7029V22.6282C102.486 22.4981 102.528 22.3909 102.612 22.3066C102.696 22.2224 102.804 22.1803 102.934 22.1803H108.328C108.451 22.1803 108.555 22.2224 108.639 22.3066C108.731 22.3832 108.777 22.4866 108.777 22.6168C108.777 22.7316 108.731 22.8312 108.639 22.9154C108.555 22.9996 108.451 23.0417 108.328 23.0417H103.383V26.2119H106.983C107.113 26.2119 107.22 26.254 107.305 26.3382C107.389 26.4225 107.431 26.5258 107.431 26.6483C107.431 26.7709 107.389 26.8742 107.305 26.9585C107.22 27.0427 107.113 27.0848 106.983 27.0848H103.383V30.2894H108.328C108.451 30.2894 108.555 30.3315 108.639 30.4158C108.731 30.5 108.777 30.5995 108.777 30.7144C108.777 30.8446 108.731 30.9518 108.639 31.036C108.555 31.1126 108.451 31.1509 108.328 31.1509H102.934Z" fill="#0F20E8"/>
</svg>
