<svg width="14" height="12" viewBox="0 0 14 12" fill="none" xmlns="http://www.w3.org/2000/svg">
<path fill-rule="evenodd" clip-rule="evenodd" d="M6.36243 0.39271C6.88604 -0.130902 7.73498 -0.130904 8.2586 0.392706L12.9245 5.05863C13.1762 5.31031 13.3175 5.65174 13.3172 6.00768C13.317 6.36361 13.1752 6.70484 12.9232 6.95616L8.25723 11.6087C7.73286 12.1315 6.88392 12.1303 6.36107 11.6059C5.83821 11.0816 5.83944 10.2326 6.3638 9.70976L10.0789 6.00534L6.36244 2.28887C5.83882 1.76526 5.83882 0.916322 6.36243 0.39271Z" fill="#0F20E8"/>
<path fill-rule="evenodd" clip-rule="evenodd" d="M0.110352 6.00668C0.110352 5.26619 0.710643 4.66589 1.45114 4.66589H11.9763C12.7168 4.66589 13.3171 5.26619 13.3171 6.00668C13.3171 6.74718 12.7168 7.34747 11.9763 7.34747H1.45114C0.710643 7.34747 0.110352 6.74718 0.110352 6.00668Z" fill="#0F20E8"/>
</svg>
