<svg width="14" height="12" viewBox="0 0 14 12" fill="none" xmlns="http://www.w3.org/2000/svg">
<path fill-rule="evenodd" clip-rule="evenodd" d="M6.95481 0.39271C7.47842 0.916322 7.47842 1.76526 6.95481 2.28887L3.23832 6.00534L6.95344 9.70976C7.47781 10.2326 7.47903 11.0816 6.95618 11.6059C6.43332 12.1303 5.58438 12.1315 5.06002 11.6087L0.394077 6.95616C0.14203 6.70484 0.000256723 6.36361 3.47878e-07 6.00768C-0.000255867 5.65174 0.141026 5.31031 0.39271 5.05863L5.05865 0.392706C5.58226 -0.130904 6.4312 -0.130902 6.95481 0.39271Z" fill="#0F20E8"/>
<path fill-rule="evenodd" clip-rule="evenodd" d="M0 6.00681C0 5.26631 0.600292 4.66602 1.34079 4.66602H11.866C12.6065 4.66602 13.2068 5.26631 13.2068 6.00681C13.2068 6.7473 12.6065 7.34759 11.866 7.34759H1.34079C0.600292 7.34759 0 6.7473 0 6.00681Z" fill="#0F20E8"/>
</svg>
