<svg width="43" height="15" viewBox="0 0 43 15" fill="none" xmlns="http://www.w3.org/2000/svg">
<rect width="43" height="15" rx="2" fill="#F4F5FC"/>
<g clip-path="url(#clip0_14232_49926)">
<path d="M5.17419 6.59108L6.57474 5.27811L7.97603 6.59177L8.79097 5.82777L6.57474 3.75L4.35925 5.82707L5.17419 6.59108Z" fill="#F3BA2F"/>
<path d="M4.59874 7.1302L3.78381 6.36621L2.96885 7.13024L3.78377 7.89423L4.59874 7.1302Z" fill="#F3BA2F"/>
<path d="M5.17429 7.67007L6.57484 8.98304L7.97607 7.66943L8.79147 8.43301L8.79107 8.43344L6.57484 10.5112L4.35929 8.43413L4.35815 8.43306L5.17429 7.67007Z" fill="#F3BA2F"/>
<path d="M9.36582 7.89489L10.1808 7.13086L9.36586 6.36687L8.5509 7.1309L9.36582 7.89489Z" fill="#F3BA2F"/>
<path d="M7.40141 7.13025H7.40175L6.57479 6.35498L5.96366 6.92792H5.9636L5.89343 6.99376L5.74858 7.12956L5.74744 7.13063L5.74858 7.13175L6.57479 7.90632L7.40175 7.13105L7.40215 7.13063L7.40141 7.13025Z" fill="#F3BA2F"/>
<path d="M11.4513 5.38818H13.2237C13.6637 5.38818 13.9963 5.49402 14.2218 5.7057C14.3962 5.86964 14.4834 6.07283 14.4834 6.31522V6.32547C14.4834 6.4279 14.4699 6.51841 14.4428 6.59691C14.4156 6.67551 14.3794 6.74627 14.3341 6.80944C14.289 6.87267 14.2364 6.92815 14.1768 6.97589C14.117 7.02374 14.0528 7.06475 13.9841 7.09882C14.2052 7.17743 14.3792 7.28407 14.5062 7.41896C14.633 7.5539 14.6965 7.74086 14.6965 7.97983V7.99003C14.6965 8.15397 14.6629 8.29735 14.5956 8.42033C14.5284 8.5432 14.432 8.64568 14.3065 8.72765C14.181 8.80962 14.0301 8.87103 13.8538 8.91204C13.6774 8.953 13.482 8.97345 13.2675 8.97345H11.4513V5.38818ZM13.0465 6.83764C13.2323 6.83764 13.3799 6.80784 13.4891 6.74803C13.5983 6.68828 13.6529 6.59178 13.6529 6.45865V6.4484C13.6529 6.32894 13.6056 6.23763 13.5109 6.1744C13.4162 6.11123 13.2796 6.07962 13.1012 6.07962H12.2707V6.83764H13.0465ZM13.2706 8.28207C13.4563 8.28207 13.6019 8.25057 13.7076 8.18734C13.8132 8.12417 13.8661 8.02597 13.8661 7.89278V7.88258C13.8661 7.76307 13.8169 7.66834 13.7186 7.59828C13.6202 7.52838 13.4618 7.49335 13.2432 7.49335H12.2707V8.28213H13.2706V8.28207Z" fill="#F3BA2F"/>
<path d="M15.7521 5.38818H16.5935V8.97356H15.7521V5.38818Z" fill="#F3BA2F"/>
<path d="M17.8679 5.38818H18.6436L20.4357 7.59577V5.38818H21.2661V8.97356H20.5504L18.6983 6.69431V8.97356H17.8679V5.38818Z" fill="#F3BA2F"/>
<path d="M23.8134 5.36279H24.5891L26.2282 8.97375H25.3486L24.9989 8.16964H23.3817L23.0321 8.97375H22.1742L23.8134 5.36279ZM24.6984 7.47298L24.1903 6.31034L23.6823 7.47298H24.6984Z" fill="#F3BA2F"/>
<path d="M27.1365 5.38818H27.9123L29.7043 7.59577V5.38818H30.5347V8.97356H29.819L27.9669 6.69431V8.97356H27.1365V5.38818Z" fill="#F3BA2F"/>
<path d="M33.5627 9.03491C33.2821 9.03491 33.0218 8.98707 32.7814 8.89153C32.5409 8.796 32.3334 8.66533 32.1586 8.49968C31.9837 8.33408 31.847 8.13858 31.7488 7.91323C31.6505 7.68783 31.6013 7.4471 31.6013 7.19099V7.18079C31.6013 6.92468 31.6505 6.68485 31.7488 6.46116C31.8471 6.23752 31.9837 6.04116 32.1586 5.87215C32.3333 5.70314 32.5428 5.5699 32.7868 5.4726C33.0307 5.37531 33.3005 5.32666 33.5955 5.32666C33.7738 5.32666 33.9368 5.34038 34.0843 5.36762C34.2318 5.39501 34.3656 5.4325 34.4859 5.48029C34.6062 5.52814 34.7171 5.58619 34.8193 5.65443C34.921 5.72279 35.0158 5.79787 35.1033 5.87984L34.568 6.4586C34.4184 6.3323 34.2665 6.23319 34.1117 6.16153C33.9568 6.08986 33.783 6.05398 33.5899 6.05398C33.4296 6.05398 33.2812 6.08303 33.1447 6.14107C33.0081 6.19912 32.8906 6.27933 32.7923 6.38175C32.694 6.48417 32.6175 6.60288 32.5628 6.73772C32.5082 6.87266 32.481 7.0169 32.481 7.17053V7.18073C32.481 7.33437 32.5082 7.47956 32.5628 7.61606C32.6175 7.75271 32.6929 7.87217 32.7896 7.97459C32.886 8.07701 33.0026 8.15818 33.1391 8.21794C33.2759 8.27774 33.4261 8.30754 33.5899 8.30754C33.8085 8.30754 33.9932 8.27 34.1444 8.19487C34.2956 8.11984 34.4459 8.01736 34.5952 7.88755L35.1306 8.39464C35.0322 8.4937 34.9301 8.5825 34.8247 8.66095C34.719 8.73955 34.6034 8.80695 34.4777 8.86334C34.3521 8.91962 34.2145 8.96239 34.0653 8.99134C33.9158 9.02033 33.7483 9.03491 33.5627 9.03491Z" fill="#F3BA2F"/>
<path d="M36.1208 5.38818H39V6.08992H36.9513V6.81724H38.7543V7.51893H36.9513V8.27188H39.0275V8.97356H36.1208V5.38818Z" fill="#F3BA2F"/>
</g>
<defs>
<clipPath id="clip0_14232_49926">
<rect width="36" height="6.76112" fill="white" transform="translate(3 3.75)"/>
</clipPath>
</defs>
</svg>
