<svg width="43" height="15" viewBox="0 0 43 15" fill="none" xmlns="http://www.w3.org/2000/svg">
<rect width="43" height="15" rx="2" fill="#F4F5FC"/>
<g clip-path="url(#clip0_14232_49922)">
<path d="M4.89597 6.66019L6.11733 5.51522L7.33933 6.66079L8.05 5.99454L6.11733 4.18262L4.1853 5.99394L4.89597 6.66019Z" fill="#F3BA2F"/>
<path d="M4.39425 7.1306L3.68359 6.46436L2.9729 7.13063L3.68356 7.79687L4.39425 7.1306Z" fill="#F3BA2F"/>
<path d="M4.89604 7.60114L6.11739 8.74612L7.33935 7.60059L8.05041 8.26647L8.05006 8.26684L6.11739 10.0787L4.18532 8.26744L4.18433 8.26651L4.89604 7.60114Z" fill="#F3BA2F"/>
<path d="M8.55127 7.79713L9.26196 7.13086L8.55131 6.46462L7.84061 7.13089L8.55127 7.79713Z" fill="#F3BA2F"/>
<path d="M6.83835 7.13018H6.83864L6.11749 6.4541L5.58455 6.95373H5.5845L5.52331 7.01115L5.39699 7.12957L5.396 7.13051L5.39699 7.13148L6.11749 7.80696L6.83864 7.13088L6.83899 7.13051L6.83835 7.13018Z" fill="#F3BA2F"/>
<path d="M10.3699 5.61133H11.9155C12.2992 5.61133 12.5893 5.70363 12.7859 5.88822C12.938 6.03119 13.0141 6.20838 13.0141 6.41975V6.42869C13.0141 6.51801 13.0023 6.59695 12.9786 6.6654C12.9549 6.73395 12.9234 6.79565 12.8839 6.85074C12.8445 6.90588 12.7987 6.95426 12.7466 6.9959C12.6945 7.03762 12.6385 7.07339 12.5786 7.1031C12.7714 7.17165 12.9232 7.26464 13.0339 7.38227C13.1445 7.49995 13.1999 7.66299 13.1999 7.87138V7.88027C13.1999 8.02324 13.1706 8.14827 13.1119 8.25552C13.0532 8.36268 12.9692 8.45204 12.8598 8.52352C12.7503 8.595 12.6188 8.64856 12.465 8.68432C12.3112 8.72004 12.1408 8.73788 11.9537 8.73788H10.3699V5.61133ZM11.761 6.87533C11.923 6.87533 12.0517 6.84935 12.1469 6.79719C12.2422 6.74508 12.2898 6.66093 12.2898 6.54484V6.53589C12.2898 6.43172 12.2485 6.35209 12.1659 6.29695C12.0833 6.24186 11.9642 6.21429 11.8086 6.21429H11.0845V6.87533H11.761ZM11.9564 8.13496C12.1184 8.13496 12.2453 8.10748 12.3375 8.05234C12.4296 7.99725 12.4757 7.91161 12.4757 7.79547V7.78658C12.4757 7.68236 12.4328 7.59975 12.3471 7.53865C12.2613 7.47769 12.1231 7.44714 11.9325 7.44714H11.0845V8.135H11.9564V8.13496Z" fill="#F3BA2F"/>
<path d="M14.1206 5.61133H14.8544V8.73797H14.1206V5.61133Z" fill="#F3BA2F"/>
<path d="M15.9656 5.61133H16.642L18.2048 7.53646V5.61133H18.929V8.73797H18.3049L16.6897 6.75034V8.73797H15.9656V5.61133Z" fill="#F3BA2F"/>
<path d="M21.1504 5.58887H21.8269L23.2563 8.73781H22.4892L22.1842 8.03659H20.774L20.4691 8.73781H19.7209L21.1504 5.58887ZM21.9222 7.42906L21.4791 6.41517L21.0361 7.42906H21.9222Z" fill="#F3BA2F"/>
<path d="M24.0483 5.61133H24.7249L26.2876 7.53646V5.61133H27.0118V8.73797H26.3877L24.7725 6.75034V8.73797H24.0483V5.61133Z" fill="#F3BA2F"/>
<path d="M29.6523 8.79141C29.4076 8.79141 29.1806 8.74969 28.971 8.66638C28.7613 8.58307 28.5803 8.46911 28.4278 8.32466C28.2753 8.18025 28.1562 8.00976 28.0705 7.81324C27.9848 7.61668 27.9419 7.40675 27.9419 7.18341V7.17451C27.9419 6.95117 27.9848 6.74203 28.0705 6.54696C28.1562 6.35193 28.2753 6.1807 28.4278 6.03331C28.5802 5.88592 28.7629 5.76974 28.9757 5.68489C29.1884 5.60004 29.4236 5.55762 29.6809 5.55762C29.8364 5.55762 29.9785 5.56959 30.1072 5.59334C30.2358 5.61722 30.3525 5.64992 30.4574 5.69159C30.5623 5.73332 30.659 5.78394 30.7481 5.84345C30.8369 5.90306 30.9195 5.96854 30.9958 6.04002L30.529 6.54472C30.3986 6.43459 30.266 6.34816 30.1311 6.28567C29.996 6.22317 29.8444 6.19188 29.6761 6.19188C29.5363 6.19188 29.4068 6.21721 29.2878 6.26783C29.1687 6.31845 29.0662 6.3884 28.9805 6.47771C28.8948 6.56703 28.8281 6.67055 28.7803 6.78814C28.7328 6.90582 28.709 7.0316 28.709 7.16557V7.17447C28.709 7.30844 28.7328 7.43506 28.7803 7.55409C28.8281 7.67326 28.8938 7.77743 28.9781 7.86675C29.0622 7.95607 29.1639 8.02685 29.283 8.07896C29.4022 8.13112 29.5332 8.1571 29.6761 8.1571C29.8667 8.1571 30.0278 8.12437 30.1596 8.05885C30.2914 7.99342 30.4225 7.90405 30.5527 7.79085L31.0196 8.23306C30.9338 8.31944 30.8448 8.39688 30.7528 8.46529C30.6607 8.53384 30.5599 8.59261 30.4502 8.64179C30.3407 8.69087 30.2207 8.72817 30.0906 8.75341C29.9603 8.7787 29.8142 8.79141 29.6523 8.79141Z" fill="#F3BA2F"/>
<path d="M31.8831 5.61133H34.3939V6.22328H32.6073V6.85754H34.1795V7.46945H32.6073V8.12606H34.4178V8.73797H31.8831V5.61133Z" fill="#F3BA2F"/>
</g>
<path d="M36.4362 6.15557H35.5151V5.96826H37.5454V6.15557H36.6243V8.5961H36.4362V6.15557Z" fill="#F3BA2F"/>
<path d="M39.237 7.59001L39.9288 8.5961H39.7069L39.0227 7.6015H38.1993V8.5961H38.0112V5.96826H39.0865C39.6128 5.96826 40 6.30497 40 6.78302C40 7.21509 39.6846 7.53285 39.237 7.59001ZM38.1993 7.4142H39.0489C39.4962 7.4142 39.8082 7.16166 39.8082 6.78302C39.8082 6.40437 39.4962 6.15588 39.0489 6.15588H38.1993V7.4142Z" fill="#F3BA2F"/>
<defs>
<clipPath id="clip0_14232_49922">
<rect width="31.3939" height="5.89606" fill="white" transform="translate(3 4.18262)"/>
</clipPath>
</defs>
</svg>
