<svg width="43" height="15" viewBox="0 0 43 15" fill="none" xmlns="http://www.w3.org/2000/svg">
<rect width="43" height="15" rx="2" fill="#F4F5FC"/>
<path d="M6.71896 4.7373H5.35197L4 9.81245H5.35948L6.20822 6.63436H7.5677L8.07844 4.7373H6.71896Z" fill="#FF0504"/>
<path d="M9.43808 4.7373L8.92733 6.63436L8.58934 7.90839H7.22986L6.71912 9.81245H8.0786H9.44559L10.2943 6.63436L10.7976 4.7373H9.43808Z" fill="#125BFF"/>
<path d="M18.1497 5.03751C18.1497 5.14251 18.1121 5.21952 18.0295 5.28952C17.9544 5.35252 17.8643 5.38752 17.7741 5.38752C17.684 5.38752 17.5939 5.35252 17.5188 5.28952C17.4436 5.22652 17.3986 5.14251 17.3986 5.03751C17.3986 4.93251 17.4361 4.8555 17.5188 4.7855C17.5939 4.7225 17.684 4.6875 17.7741 4.6875C17.8643 4.6875 17.9544 4.7225 18.0295 4.7855C18.1121 4.8555 18.1497 4.93951 18.1497 5.03751ZM12.1635 4.7295H14.4167C15.0401 4.7295 15.5284 4.89751 15.8438 5.17751C16.0691 5.39452 16.1968 5.66053 16.1968 5.98954V6.00354C16.1968 6.66156 15.7612 7.00457 15.3331 7.17957C15.979 7.36158 16.4973 7.71159 16.4973 8.40461V8.41861C16.4973 9.28663 15.7086 9.80465 14.5219 9.80465H12.171L12.1635 4.7295ZM14.3116 6.99757C15.0477 6.99757 15.5659 6.68256 15.5659 6.08754V6.07354C15.5659 5.56953 15.1378 5.24752 14.3566 5.24752H12.7718V6.99757H14.3116ZM14.5294 9.29363C15.3556 9.29363 15.8663 8.95062 15.8663 8.3836V8.3696C15.8663 7.81659 15.3706 7.50158 14.4167 7.50158H12.7643V9.29363H14.5294ZM17.4737 6.05954H18.0746V9.81165H17.4737V6.05954ZM19.6669 8.62161V6.55655H18.7581V6.06654H19.6669V4.7365H20.2678V6.06654H21.9202V6.55655H20.2678V8.55161C20.2678 9.05562 20.5231 9.37763 21.0113 9.37063C21.3493 9.36363 21.6197 9.33563 21.8676 9.23763V9.71364C21.6573 9.81865 21.2742 9.88165 20.8686 9.87465C20.1401 9.86065 19.6669 9.38463 19.6669 8.62161ZM22.7839 4.7295H24.0758L25.5104 6.87856L26.945 4.7295H28.2369V9.80465H27.0426V6.49355L25.5104 8.66361H25.4804L23.9556 6.51455V9.80465H22.7839V4.7295ZM29.2959 4.7295H33.4044V5.72353H30.4826V6.75256H32.9162V7.74659H30.4902V8.81062H33.4495V9.80465H29.3034V4.7295H29.2959ZM35.6877 7.22857L33.8701 4.7365H35.2746L36.4163 6.38155L37.5655 4.7365H38.9249L37.1073 7.21457L39 9.81165H37.5955L36.3712 8.0686L35.1394 9.81165H33.7799L35.6877 7.22857Z" fill="#3A3A3A"/>
</svg>
