<svg width="45" height="30" viewBox="0 0 45 30" fill="none" xmlns="http://www.w3.org/2000/svg">
<path d="M29.3394 29.9999C25.3621 29.9956 21.5489 28.4137 18.7365 25.6013C15.9241 22.7889 14.3422 18.9757 14.3379 14.9983V0.647596C14.3379 0.475843 14.4061 0.311124 14.5276 0.189676C14.649 0.0682286 14.8137 0 14.9855 0C18.9645 0.000854589 22.7806 1.58079 25.5957 4.39287C28.4108 7.20495 29.9948 11.0193 30 14.9983V29.3393C30.0018 29.4265 29.9859 29.5132 29.9533 29.5942C29.9207 29.6751 29.8721 29.7486 29.8104 29.8103C29.7488 29.872 29.6752 29.9206 29.5943 29.9532C29.5134 29.9857 29.4267 30.0016 29.3394 29.9999ZM15.6622 1.34052V14.9983C15.6662 18.5096 17.0189 21.8853 19.4408 24.4277C21.8627 26.9701 25.1687 28.485 28.6757 28.6593V14.9983C28.6716 11.4873 27.3189 8.11206 24.8969 5.57017C22.4749 3.02828 19.1689 1.51408 15.6622 1.34052Z" fill="#0F20E8"/>
<path d="M14.9983 15.6621H0.647596C0.477136 15.658 0.314794 15.5884 0.194226 15.4679C0.073657 15.3473 0.00410925 15.185 0 15.0145C-2.31335e-06 11.0352 1.57966 7.21867 4.39192 4.40337C7.20419 1.58807 11.019 0.0042908 14.9983 0C15.1688 0.00410925 15.3311 0.073657 15.4517 0.194225C15.5723 0.314794 15.6418 0.477136 15.6459 0.647596V14.9983C15.646 15.1716 15.5783 15.338 15.4573 15.4621C15.3362 15.5861 15.1715 15.6579 14.9983 15.6621ZM1.34052 14.3378H14.3378V1.34052C10.9447 1.5076 7.73496 2.93058 5.33277 5.33277C2.93058 7.73496 1.5076 10.9447 1.34052 14.3378Z" fill="#0F20E8"/>
<path d="M29.3395 29.9997C29.169 29.9956 29.0067 29.9261 28.8861 29.8055C28.7656 29.6849 28.696 29.5226 28.6919 29.3521V14.9982C28.696 14.8277 28.7656 14.6654 28.8861 14.5448C29.0067 14.4242 29.169 14.3547 29.3395 14.3506H43.6773C43.849 14.3506 44.0137 14.4188 44.1352 14.5403C44.2566 14.6617 44.3249 14.8264 44.3249 14.9982C44.3206 18.9727 42.7409 22.7835 39.932 25.5954C37.1231 28.4074 33.314 29.9912 29.3395 29.9997ZM29.9871 15.662V28.6592C33.3826 28.4946 36.5954 27.0729 39.0007 24.6706C41.406 22.2683 42.8317 19.0572 43.0005 15.662H29.9871Z" fill="#0F20E8"/>
</svg>
