<svg width="16" height="16" viewBox="0 0 16 16" fill="none" xmlns="http://www.w3.org/2000/svg">
<path fill-rule="evenodd" clip-rule="evenodd" d="M14.7366 1.23087C15.1402 1.24406 15.4567 1.579 15.4434 1.97899C15.2765 6.99449 11.0413 10.9245 5.98643 10.7591C5.5828 10.7459 5.26639 10.4109 5.2797 10.011L5.41864 5.83703C5.43196 5.43705 5.76997 5.12349 6.17361 5.13668C6.57725 5.14987 6.89367 5.48483 6.88036 5.88481L6.76666 9.30052C10.6831 9.06318 13.8495 5.90291 13.9816 1.93124C13.995 1.53125 14.333 1.21768 14.7366 1.23087Z" fill="#36B37E"/>
<path fill-rule="evenodd" clip-rule="evenodd" d="M8.07305 1.44928C4.42576 1.44928 1.46251 4.38572 1.46251 8.00001C1.46251 11.6148 4.41892 14.5507 8.07305 14.5507C11.2654 14.5507 13.9333 12.3068 14.5523 9.31808C14.6335 8.92605 15.02 8.67347 15.4156 8.75393C15.8112 8.83439 16.0661 9.21743 15.9849 9.60946C15.2292 13.2584 11.9739 16 8.07305 16C3.61025 16 0 12.4142 0 8.00001C0 3.58531 3.61804 0 8.07305 0C9.22225 0 10.3159 0.239122 11.312 0.668958C11.6823 0.828747 11.8517 1.25573 11.6905 1.62266C11.5292 1.98958 11.0983 2.15749 10.7281 1.9977C9.91058 1.64493 9.01525 1.44928 8.07305 1.44928Z" fill="#36B37E"/>
</svg>
