<svg width="24" height="24" viewBox="0 0 24 24" fill="none" xmlns="http://www.w3.org/2000/svg">
<path fill-rule="evenodd" clip-rule="evenodd" d="M22.1059 1.84826C22.7113 1.86804 23.186 2.37046 23.166 2.97044C22.9157 10.4937 16.563 16.3887 8.98062 16.1406C8.37517 16.1208 7.90056 15.6184 7.92053 15.0184L8.12894 8.7575C8.14891 8.15752 8.65593 7.68718 9.26139 7.70697C9.86685 7.72677 10.3415 8.22919 10.3215 8.82918L10.151 13.9527C16.0256 13.5967 20.7752 8.85631 20.9734 2.89881C20.9934 2.29883 21.5004 1.82848 22.1059 1.84826Z" fill="#36B37E"/>
<path fill-rule="evenodd" clip-rule="evenodd" d="M12.1096 2.17391C6.63864 2.17391 2.19377 6.57858 2.19377 12C2.19377 17.4222 6.62838 21.8261 12.1096 21.8261C16.898 21.8261 20.8999 18.4602 21.8284 13.9771C21.9502 13.3891 22.53 13.0102 23.1234 13.1309C23.7169 13.2516 24.0992 13.8261 23.9774 14.4142C22.8438 19.8876 17.9609 24 12.1096 24C5.41538 24 0 18.6214 0 12C0 5.37797 5.42705 0 12.1096 0C13.8334 0 15.4739 0.358683 16.968 1.00344C17.5234 1.24312 17.7776 1.8836 17.5357 2.43398C17.2938 2.98437 16.6475 3.23624 16.0921 2.99656C14.8659 2.4674 13.5229 2.17391 12.1096 2.17391Z" fill="#36B37E"/>
</svg>
