<svg width="24" height="25" viewBox="0 0 24 25" fill="none" xmlns="http://www.w3.org/2000/svg">
<path fill-rule="evenodd" clip-rule="evenodd" d="M21.9052 1.97838C22.5052 1.99816 22.9756 2.50058 22.9558 3.10057C22.7078 10.6238 16.4125 16.5188 8.89875 16.2707C8.29879 16.2509 7.82847 15.7485 7.84826 15.1485L8.05478 8.88763C8.07457 8.28765 8.577 7.81731 9.17698 7.8371C9.77697 7.85689 10.2473 8.35932 10.2275 8.9593L10.0585 14.0829C15.88 13.7269 20.5867 8.98644 20.7831 3.02894C20.8028 2.42895 21.3053 1.95861 21.9052 1.97838Z" fill="#FFAB00"/>
<path fill-rule="evenodd" clip-rule="evenodd" d="M12 2.30392C6.57857 2.30392 2.17391 6.70859 2.17391 12.13C2.17391 17.5522 6.5684 21.9561 12 21.9561C16.7451 21.9561 20.7108 18.5902 21.6309 14.1071C21.7516 13.5191 22.3261 13.1402 22.9142 13.2609C23.5022 13.3816 23.8811 13.9561 23.7604 14.5442C22.6371 20.0176 17.7983 24.13 12 24.13C5.36637 24.13 0 18.7514 0 12.13C0 5.50797 5.37795 0.130005 12 0.130005C13.7082 0.130005 15.3339 0.488688 16.8144 1.13344C17.3648 1.37313 17.6167 2.0136 17.377 2.56399C17.1373 3.11437 16.4969 3.36625 15.9465 3.12656C14.7314 2.5974 13.4005 2.30392 12 2.30392Z" fill="#FFAB00"/>
</svg>
