<svg width="16" height="16" viewBox="0 0 16 16" fill="none" xmlns="http://www.w3.org/2000/svg">
<path fill-rule="evenodd" clip-rule="evenodd" d="M0 0.731145C0 0.33112 0.324284 0.00683594 0.724309 0.00683594C9.15692 0.00683594 15.9927 6.84267 15.9927 15.2753C15.9927 15.6753 15.6685 15.9996 15.2684 15.9996C14.8684 15.9996 14.5441 15.6753 14.5441 15.2753C14.5441 7.64272 8.35687 1.45545 0.724309 1.45545C0.324284 1.45545 0 1.13117 0 0.731145Z" fill="#AEAEAE"/>
<path fill-rule="evenodd" clip-rule="evenodd" d="M15.7805 0.212017C16.0634 0.494807 16.0635 0.953414 15.7807 1.23634L1.2366 15.7877C0.953811 16.0707 0.495204 16.0708 0.212273 15.788C-0.0706578 15.5052 -0.0707722 15.0466 0.212017 14.7637L14.7561 0.212273C15.0389 -0.0706578 15.4975 -0.0707722 15.7805 0.212017Z" fill="#AEAEAE"/>
</svg>
