<svg width="204" height="217" viewBox="0 0 204 217" fill="none" xmlns="http://www.w3.org/2000/svg">
<path d="M174.793 154.648C174.116 152.354 173.202 150.3 172.086 148.211C162.78 131.708 136.048 119.758 104.747 119.758C73.244 119.758 47.3916 131.228 37.6462 147.526C34.9391 151.875 33.5518 156.463 33.5518 161.291V173.925C33.5518 176.219 33.7886 178.274 34.4654 180.362C35.1422 182.656 36.0558 184.95 37.1725 187.005C46.681 203.508 73.2102 215.458 104.511 215.458C135.811 215.458 162.34 203.543 171.849 187.245C174.353 183.102 175.469 178.513 175.469 173.925V161.291C175.706 158.997 175.469 156.703 174.793 154.648Z" fill="#0F11D1"/>
<path d="M104.693 216.998C73.4847 216.998 45.9141 205.19 35.8853 187.856C34.5255 185.543 33.6076 183.229 32.9277 180.674C32.2477 178.36 32.0098 176.047 32.0098 173.975V161.234C32.0098 156.158 33.3696 151.29 36.3272 146.663C46.594 129.536 74.1306 118.211 104.659 118.211C135.187 118.211 163.438 130.02 173.466 147.353C174.622 149.425 175.744 151.739 176.186 154.052C176.866 156.365 177.104 158.679 177.104 160.992V173.941C177.104 178.809 175.744 183.436 173.228 187.821C163.234 205.431 135.663 216.998 104.693 216.998ZM104.693 120.524C74.8445 120.524 48.1918 131.643 38.163 147.837C35.6473 152.222 34.2875 156.642 34.2875 161.269V174.01C34.2875 176.082 34.5255 178.188 35.2054 180.26C35.8853 182.573 36.8032 184.645 37.925 186.751C47.4779 203.394 74.3686 214.754 104.659 214.754C134.949 214.754 161.84 203.429 171.393 186.751C173.67 182.573 175.03 178.43 175.03 174.01V161.269C175.03 159.197 174.792 156.883 174.112 154.777C173.432 152.705 172.752 150.599 171.597 148.527C161.874 131.85 135.221 120.524 104.693 120.524Z" fill="#0F11D1"/>
<path d="M170.927 153.715V166.26C170.927 170.816 169.56 175.372 167.27 179.486C157.429 195.874 130.639 207.739 99.0317 207.739C67.4239 207.739 40.4291 195.908 31.0322 179.486C29.6654 177.208 28.7428 175.168 28.2986 172.89C27.6152 170.85 27.376 168.572 27.376 166.498V153.953" fill="#0F60DF"/>
<path d="M99.1528 209.287C67.6717 209.287 39.8599 197.442 29.7434 180.056C28.3717 177.736 27.4458 175.415 26.7599 172.852C26.074 170.532 25.834 168.211 25.834 166.133V153.353C25.834 152.661 26.2798 152.176 27 152.176C27.6858 152.176 28.1659 152.626 28.1659 153.353V166.133C28.1659 168.211 28.406 170.324 29.0918 172.402C29.7777 174.723 30.7036 176.801 31.8353 178.913C41.4717 195.607 68.5976 207.001 99.1528 207.001C129.708 207.001 156.834 195.641 166.47 178.913C168.768 174.723 170.14 170.324 170.14 166.168V153.388C170.14 152.695 170.586 152.21 171.306 152.21C172.026 152.21 172.472 152.661 172.472 153.388V166.168C172.472 171.051 171.1 175.692 168.562 180.091C158.206 197.442 130.394 209.287 99.1528 209.287Z" fill="white"/>
<path d="M170.927 153.715V166.26C170.927 170.816 169.56 175.372 167.27 179.486C157.429 195.874 130.639 207.739 99.0317 207.739C67.4239 207.739 40.4291 195.908 31.0322 179.486C29.6654 177.208 28.7428 175.168 28.2986 172.89C27.6152 170.85 27.376 168.572 27.376 166.498V153.953" fill="#0F60DF"/>
<path d="M99.1528 209.287C67.6717 209.287 39.8599 197.442 29.7434 180.056C28.3717 177.736 27.4458 175.415 26.7599 172.852C26.074 170.532 25.834 168.211 25.834 166.133V153.353C25.834 152.661 26.2798 152.176 27 152.176C27.6858 152.176 28.1659 152.626 28.1659 153.353V166.133C28.1659 168.211 28.406 170.324 29.0918 172.402C29.7777 174.723 30.7036 176.801 31.8353 178.913C41.4717 195.607 68.5976 207.001 99.1528 207.001C129.708 207.001 156.834 195.641 166.47 178.913C168.768 174.723 170.14 170.324 170.14 166.168V153.388C170.14 152.695 170.586 152.21 171.306 152.21C172.026 152.21 172.472 152.661 172.472 153.388V166.168C172.472 171.051 171.1 175.692 168.562 180.091C158.206 197.442 130.394 209.287 99.1528 209.287Z" fill="white"/>
<path d="M170.927 153.711C170.927 158.315 169.56 162.919 167.27 167.076C157.429 183.637 130.639 195.387 99.0317 195.387C67.4239 195.387 40.4291 183.431 31.0322 166.836C29.6654 164.534 28.7428 162.472 28.2986 160.17C27.6152 158.109 27.376 155.807 27.376 153.711C27.376 148.867 28.7428 144.263 31.5106 139.899C41.3517 123.786 67.9023 112.035 99.2709 112.035C131.084 112.035 157.873 123.992 167.51 140.586C168.637 142.648 169.56 144.744 170.243 147.046C170.448 149.348 170.687 151.409 170.927 153.711Z" fill="#0F20DF"/>
<path d="M99.2903 196.935C67.7501 196.935 39.8862 185.072 29.7507 167.66C28.3764 165.336 27.4488 163.012 26.7616 160.445C26.0745 158.121 25.834 155.797 25.834 153.716C25.834 148.617 27.2083 143.726 30.1974 139.078C40.5733 121.873 68.4029 110.496 99.2559 110.496C130.109 110.496 158.9 122.359 168.795 140.014C169.964 142.096 171.097 144.42 171.544 146.744C172.231 149.068 172.472 151.392 172.472 153.716C172.472 158.606 171.097 163.254 168.555 167.66C158.66 185.315 130.59 196.935 99.2903 196.935ZM99.2903 112.82C69.1244 112.82 42.1881 123.989 32.0527 140.257C29.5102 144.662 28.1359 149.102 28.1359 153.75C28.1359 155.832 28.3764 157.947 29.0636 160.029C29.7507 162.353 30.6784 164.434 31.8122 166.55C41.4666 183.269 68.6434 194.681 99.2559 194.681C129.868 194.681 157.045 183.303 166.7 166.55C169.002 162.353 170.376 157.947 170.376 153.75C170.376 151.669 170.135 149.345 169.448 147.229C168.761 145.148 168.074 143.032 166.906 140.951C157.286 124.197 130.143 112.82 99.2903 112.82Z" fill="white"/>
<path d="M141.601 153.145C141.601 155.67 140.923 157.956 139.331 160.241C133.64 169.146 117.751 175.322 99.1528 175.322C80.5544 175.322 64.429 168.907 58.7377 160.003C58.0602 158.843 57.3826 157.717 57.1455 156.352C56.7051 155.192 56.7051 154.066 56.7051 152.94C56.7051 150.415 57.6198 147.925 59.212 145.4C65.1065 136.7 80.7916 130.559 99.39 130.559C118.226 130.559 134.114 136.973 139.805 145.878C140.483 147.038 141.16 148.164 141.397 149.324C141.363 150.859 141.601 152.019 141.601 153.145Z" fill="#0F11D1"/>
<path d="M96.5014 190.759V189.599V190.759C95.5777 190.759 95.133 190.315 95.133 189.599C95.133 188.882 95.5777 188.473 96.2961 188.473H96.5356C97.2198 188.473 97.6988 188.917 97.6988 189.599C97.904 190.281 97.2198 190.759 96.5014 190.759ZM108.201 190.52C107.517 190.52 107.038 190.076 107.038 189.394C107.038 188.712 107.483 188.268 107.962 188.268C108.646 188.268 109.33 188.712 109.33 189.394C109.33 190.076 109.091 190.52 108.407 190.52H108.201ZM85.041 189.838C84.8358 189.838 85.041 189.838 85.041 189.838C84.8016 189.838 84.5963 189.838 84.5963 189.838C83.9121 189.838 83.4331 189.155 83.6726 188.473C83.6726 187.791 84.3568 187.313 85.041 187.552C85.7252 187.552 86.2042 188.234 86.2042 188.917C85.9647 189.36 85.52 189.838 85.041 189.838ZM119.662 188.917C119.217 188.917 118.738 188.473 118.499 187.996C118.259 187.313 118.738 186.87 119.422 186.631H119.662C120.346 186.631 120.825 186.87 121.03 187.552C121.27 188.234 120.791 188.678 120.106 188.917L119.867 187.791V188.917H119.662ZM73.5806 187.552H73.3412H73.1017C72.4175 187.313 72.178 186.631 72.178 186.188C72.4175 185.505 73.1017 185.267 73.5464 185.267C74.2306 185.505 74.7096 186.188 74.4701 186.631C74.5043 187.313 74.0596 187.552 73.5806 187.552ZM130.917 185.949C130.472 185.949 129.993 185.71 129.788 185.267C129.548 184.584 129.788 183.902 130.472 183.902C131.156 183.663 131.84 183.902 132.08 184.584C132.319 185.267 132.08 185.744 131.396 185.949H131.156H130.917ZM62.5992 183.902C62.3597 183.902 62.3597 183.902 62.1545 183.902L62.5992 182.776L61.915 183.697C61.2308 183.459 60.9913 182.776 61.2308 182.094C61.4703 181.412 62.1545 181.173 62.8387 181.412H63.0781C63.7623 181.651 64.0018 182.333 63.7623 183.015C63.5229 183.697 63.0439 183.902 62.5992 183.902ZM141.693 181.378C141.248 181.378 140.769 181.139 140.769 180.696C140.53 180.252 140.769 179.331 141.214 179.092C141.659 178.854 142.582 178.854 142.822 179.536C143.061 179.979 143.061 180.662 142.377 181.139H142.138C141.898 181.378 141.898 181.378 141.693 181.378ZM52.2677 178.41C52.0283 178.41 51.823 178.41 51.5835 178.171L52.2677 177.25L51.3441 178.171C50.8993 177.728 50.6599 177.046 51.1046 176.568C51.5493 176.125 52.2335 175.886 52.7125 176.329L52.9519 176.568C53.3967 177.012 53.6361 177.728 53.1914 178.171C52.9519 178.171 52.7467 178.41 52.2677 178.41ZM151.306 174.965C151.067 174.965 150.622 174.726 150.382 174.521C149.938 174.078 149.938 173.362 150.382 172.918L150.622 172.679C151.067 172.236 151.785 172.236 152.23 172.918C152.674 173.362 152.674 174.044 151.99 174.521L151.306 173.6L151.99 174.521C151.751 174.965 151.545 174.965 151.306 174.965ZM43.5784 170.871C43.3389 170.871 42.8942 170.633 42.6547 170.428L43.5784 169.746L42.6547 170.428C42.21 169.985 42.21 169.268 42.8942 168.825C43.3389 168.381 44.0573 168.381 44.502 169.064L44.7415 169.302C45.1862 169.746 44.981 170.462 44.502 170.906C44.0231 170.633 43.7836 170.871 43.5784 170.871ZM158.866 166.3C158.627 166.3 158.422 166.3 158.422 166.062C157.977 165.823 157.738 165.141 157.977 164.458L158.216 164.22C158.456 163.776 159.14 163.537 159.824 163.776C160.269 164.015 160.509 164.697 160.269 165.379L159.345 164.697L160.269 165.379C159.551 166.062 159.345 166.3 158.866 166.3ZM37.8311 160.809C37.3863 160.809 36.9074 160.365 36.7021 159.888L37.8311 159.649H36.7021C36.4627 158.966 36.9416 158.489 37.6258 158.284C38.31 158.045 38.789 158.523 38.9942 159.205V159.444C39.2337 160.126 38.7547 160.57 38.0705 160.809C38.0705 160.809 38.0705 160.809 37.8311 160.809ZM162.082 155.078C161.398 155.078 160.919 154.634 160.919 153.918V153.474C160.919 152.792 161.364 152.315 162.082 152.315C162.766 152.315 163.211 152.758 163.211 153.474V153.918C163.211 154.634 162.527 155.078 162.082 155.078ZM37.8311 149.142H37.5916C36.9074 148.904 36.6679 148.46 36.6679 147.778V147.539C36.9074 146.857 37.5916 146.618 38.0363 146.857C38.7205 147.096 38.96 147.778 38.7205 148.221C38.9942 148.699 38.2758 149.142 37.8311 149.142ZM159.106 143.889C158.661 143.889 158.422 143.65 158.182 143.207C157.943 142.763 157.943 141.842 158.627 141.604C159.072 141.365 159.79 141.365 160.235 141.842L160.474 142.081C160.714 142.525 160.474 143.446 160.03 143.684C159.345 143.889 159.106 143.889 159.106 143.889ZM43.3389 139.079C43.0994 139.079 42.8942 139.079 42.6547 138.841C42.21 138.397 41.9705 137.681 42.4152 137.237L42.6547 136.999C43.0994 136.555 43.8178 136.555 44.2626 136.76C44.7073 137.203 44.7073 137.92 44.502 138.363C44.2968 138.806 43.7836 139.079 43.3389 139.079ZM151.545 134.986C151.306 134.986 151.101 134.986 150.861 134.747C150.417 134.304 150.177 133.587 150.622 133.144C151.067 132.7 151.785 132.462 152.23 132.905L152.469 133.144C152.914 133.587 152.914 134.304 152.709 134.747C152.23 134.986 151.751 134.986 151.545 134.986ZM52.2677 131.336C51.823 131.336 51.5835 131.097 51.3441 130.893C50.8993 130.449 51.1046 129.733 51.5835 129.289L51.823 129.051C52.2677 128.607 52.9862 128.812 53.4309 129.289C53.8756 129.733 53.6703 130.449 53.1914 130.893C52.7467 131.336 52.5072 131.336 52.2677 131.336ZM141.898 128.573C141.659 128.573 141.453 128.573 141.453 128.334C141.009 128.095 140.53 127.208 140.769 126.731C141.009 126.287 141.693 125.81 142.138 126.287H142.377C142.822 126.526 143.061 127.208 142.822 127.891C142.822 128.334 142.377 128.573 141.898 128.573ZM62.5992 125.844C62.1545 125.844 61.6755 125.605 61.436 125.162C61.1966 124.48 61.436 124.002 61.8808 123.797H62.1202C62.8044 123.559 63.4887 123.797 63.7281 124.48C63.9676 125.162 63.7281 125.844 63.0439 126.083C62.8044 125.844 62.8044 125.844 62.5992 125.844ZM131.122 124.002C131.122 124.002 130.883 124.002 130.677 124.002H130.438C129.754 123.763 129.514 123.081 129.754 122.638C129.993 121.955 130.677 121.717 131.122 121.955L130.677 123.115L131.362 122.194C132.046 122.433 132.285 123.115 132.046 123.559C132.046 123.559 131.601 124.002 131.122 124.002ZM73.3754 122.194C72.9306 122.194 72.4517 121.751 72.2122 121.273C71.9728 120.591 72.4517 120.113 73.1359 119.909L73.3754 121.068V119.909C74.0596 119.67 74.5385 120.147 74.7438 120.83C74.949 121.512 74.5043 121.989 73.8201 122.194H73.5806C73.5806 122.194 73.5806 122.194 73.3754 122.194ZM119.901 121.034C119.662 121.034 119.901 121.034 119.901 121.034C118.977 120.795 118.533 120.352 118.738 119.67C118.977 118.988 119.422 118.51 119.901 118.749H120.141C120.825 118.988 121.304 119.431 121.064 120.113C121.03 120.591 120.346 121.034 119.901 121.034ZM84.8358 119.909C84.1516 119.909 83.6726 119.465 83.6726 118.988C83.6726 118.305 84.1174 117.828 84.5963 117.623L84.8358 118.783V117.623C85.52 117.623 85.9989 118.067 86.2042 118.544C86.2042 119.226 85.7594 119.704 85.2805 119.909C85.2805 119.909 85.041 119.909 84.8358 119.909C85.041 119.909 84.8358 119.909 84.8358 119.909ZM108.441 119.431C108.201 119.431 108.441 119.431 108.441 119.431C107.757 119.431 107.072 118.749 107.278 118.271C107.278 117.589 107.722 117.111 108.441 117.111H108.68C109.364 117.111 109.843 117.794 109.843 118.271C109.57 118.988 108.885 119.431 108.441 119.431ZM96.7409 118.988C96.0567 118.988 95.5777 118.544 95.3725 117.828C95.3725 117.146 95.8172 116.668 96.2961 116.668H96.5356C97.2198 116.668 97.6988 117.111 97.6988 117.828C97.6646 118.51 97.4251 118.988 96.7409 118.988Z" fill="white"/>
<path d="M141.21 107.407C141.076 107.407 140.909 107.383 140.774 107.308L137.222 105.219C136.954 105.07 136.887 104.771 137.088 104.547C137.289 104.348 137.657 104.299 137.959 104.448L141.076 106.288L143.657 104.448C143.892 104.274 144.294 104.274 144.528 104.473C144.763 104.647 144.729 104.97 144.495 105.119L141.545 107.233C141.478 107.358 141.344 107.383 141.21 107.407Z" fill="#0F20E8"/>
<path d="M48.5255 118.218C48.3839 118.218 48.2424 118.083 48.1858 117.914C44.2503 108.444 42.325 98.0263 42.9195 89.3678C42.9479 89.0634 43.1461 88.8605 43.3726 88.8943C43.5991 88.9281 43.7689 89.1649 43.7689 89.4355C43.2027 97.9248 45.0713 108.139 48.9502 117.406C49.0351 117.677 48.9785 117.981 48.752 118.117C48.6671 118.218 48.5821 118.218 48.5255 118.218Z" fill="#0F20E8"/>
<path d="M45.2441 91.9701C45.0977 91.9701 44.9512 91.9117 44.8414 91.824L42.7182 89.9541L40.6317 91.006C40.3388 91.1521 39.9728 91.0936 39.8263 90.8599C39.6433 90.6554 39.7165 90.3632 40.0094 90.2463L42.5352 88.9607C42.7915 88.8439 43.0843 88.8731 43.3039 89.0484L45.7566 91.2105C45.9762 91.3858 45.9396 91.7072 45.6834 91.8533C45.5369 91.9409 45.3539 91.9994 45.2441 91.9701Z" fill="#0F20E8"/>
<path d="M100.697 58.0119C97.7226 58.0119 95.2949 55.5842 95.2949 52.6095C95.2949 49.6347 97.7226 47.207 100.697 47.207C103.672 47.207 106.1 49.6347 106.1 52.6095C106.1 55.5842 103.672 58.0119 100.697 58.0119ZM100.697 48.9167C98.68 48.9167 96.9704 50.5579 96.9704 52.6095C96.9704 54.6268 98.6116 56.3023 100.697 56.3023C102.749 56.3023 104.424 54.661 104.424 52.6095C104.39 50.5579 102.715 48.9167 100.697 48.9167Z" fill="#0F20E8"/>
<path d="M80.6312 54.9254C78.4972 54.9254 76.7725 52.8556 76.7725 50.2947C76.7725 47.7338 78.4972 45.6641 80.6312 45.6641C82.7651 45.6641 84.4899 47.7338 84.4899 50.2947C84.5191 52.8556 82.7944 54.9254 80.6312 54.9254ZM80.6312 47.383C79.2865 47.383 78.2049 48.681 78.2049 50.2947C78.2049 51.9084 79.2865 53.2064 80.6312 53.2064C81.9759 53.2064 83.0575 51.9084 83.0575 50.2947C83.0575 48.681 81.9759 47.383 80.6312 47.383Z" fill="#0F20E8"/>
<path d="M149.319 150.625C146.758 150.625 144.688 148.555 144.688 145.994C144.688 143.433 146.758 141.363 149.319 141.363C151.88 141.363 153.949 143.433 153.949 145.994C153.984 148.555 151.915 150.625 149.319 150.625ZM149.319 143.082C147.705 143.082 146.407 144.38 146.407 145.994C146.407 147.608 147.705 148.906 149.319 148.906C150.933 148.906 152.23 147.608 152.23 145.994C152.23 144.38 150.933 143.082 149.319 143.082Z" fill="#0F20E8"/>
<path d="M63.6519 58.0146C61.5404 58.0146 59.793 56.2836 59.793 54.1558C59.793 52.064 61.5404 50.2969 63.6519 50.2969C65.7633 50.2969 67.5107 52.028 67.5107 54.1558C67.5107 56.2836 65.7633 58.0146 63.6519 58.0146ZM63.6519 52.1001C62.5233 52.1001 61.5768 53.0378 61.5768 54.1197C61.5768 55.2377 62.5233 56.1393 63.6519 56.1393C64.7804 56.1393 65.6905 55.2016 65.6905 54.1197C65.6905 53.0378 64.7804 52.1001 63.6519 52.1001Z" fill="#0F20E8"/>
<path d="M51.3178 67.2752C50.1973 67.2752 49.1676 66.4631 49.0162 65.3201C48.9254 64.7186 49.0465 64.117 49.4099 63.6057C49.7733 63.0943 50.3184 62.7635 50.9241 62.6732C51.5298 62.583 52.1657 62.7033 52.6503 63.0643C53.1651 63.4252 53.4982 63.9666 53.5891 64.5682C53.6799 65.1697 53.5588 65.7713 53.1954 66.2826C52.832 66.7939 52.2869 67.1248 51.6812 67.215C51.5298 67.2752 51.4389 67.2752 51.3178 67.2752ZM51.3178 64.1471C51.3178 64.1471 51.2269 64.1471 51.1966 64.1471C50.7424 64.2072 50.4396 64.6584 50.5304 65.0795C50.591 65.5307 51.0452 65.8314 51.4692 65.7412C51.6812 65.7111 51.8629 65.6209 52.0143 65.4103C52.1354 65.2299 52.196 65.0193 52.1354 64.8088C52.1052 64.5982 52.0143 64.4178 51.8023 64.2674C51.6509 64.2072 51.4692 64.1471 51.3178 64.1471Z" fill="#0F20E8"/>
<path d="M45.0608 79.6184C44.607 79.6184 44.1533 79.5254 43.745 79.3394C43.2459 79.0914 42.9283 78.7505 42.8376 78.3166C42.6561 77.4487 43.5181 76.6428 44.7885 76.5498C45.3783 76.4879 46.0135 76.5808 46.5126 76.8288C47.0117 77.0768 47.3293 77.4177 47.42 77.8516C47.6015 78.7195 46.7395 79.5254 45.4691 79.6184C45.2876 79.5874 45.1515 79.6184 45.0608 79.6184Z" fill="#0F20E8"/>
<path d="M138.514 130.949C138.548 108.205 122.443 80.4818 102.532 69.0762C93.086 63.693 84.4896 62.8856 78.0679 66.0145L62.8799 75.0314L70.0831 86.908C70.0831 87.1772 70.0831 87.4463 70.0831 87.7491C70.0492 110.493 86.1545 138.216 106.065 149.622C107.017 150.194 108.002 150.665 108.953 151.136L115.205 161.431L128.796 153.559C134.776 149.622 138.514 141.783 138.514 130.949Z" fill="#0F11D1"/>
<path d="M114.356 162.963C114.05 162.963 113.779 162.826 113.643 162.553L107.569 152.353C106.585 151.841 105.669 151.398 104.821 150.886C84.7325 139.184 68.4449 110.732 68.4788 87.3624V86.7824L61.4548 74.9443C61.2172 74.5349 61.353 74.0232 61.7602 73.7502L76.8941 64.6072C83.8842 61.1615 92.8763 62.2874 102.174 67.7118C122.262 79.4134 138.55 107.866 138.516 131.235C138.516 142.186 134.919 150.545 128.404 154.843L114.797 162.86C114.661 162.963 114.491 162.997 114.356 162.963ZM63.3211 74.7737L70.0397 86.1001C70.1076 86.2366 70.1415 86.4072 70.1415 86.5436V87.3624C70.1076 110.118 85.988 137.99 105.601 149.385C106.449 149.896 107.399 150.374 108.451 150.886C108.587 150.954 108.723 151.091 108.791 151.193L114.559 160.916L127.42 153.342C133.426 149.385 136.751 141.504 136.751 131.201C136.785 108.446 120.871 80.5734 101.224 69.1787C92.4012 64.0614 83.986 62.9356 77.5727 66.1083L63.3211 74.7737Z" fill="white"/>
<path d="M115.497 162.098C129.693 153.891 129.727 127.243 115.565 102.588C101.437 77.8978 78.4491 64.5742 64.2869 72.7813C50.0905 80.9883 50.0563 107.636 64.2185 132.291C78.3464 156.947 101.3 170.305 115.497 162.098Z" fill="#0F60DF"/>
<path d="M106.813 164.521C101.692 164.521 96.0239 162.807 90.1855 159.415C69.9728 147.662 53.5841 119.084 53.6182 95.6464C53.6182 84.1331 57.5447 75.4981 64.6806 71.352C71.7823 67.2401 81.2058 68.1652 91.1415 73.9219C111.354 85.6751 127.743 114.253 127.709 137.725C127.709 149.238 123.782 157.873 116.646 162.019C113.71 163.698 110.398 164.521 106.813 164.521ZM74.5479 70.5296C71.2702 70.5296 68.2315 71.2834 65.5683 72.8254C58.9787 76.6289 55.3937 84.7499 55.3595 95.6122C55.3254 118.467 71.3385 146.463 91.1073 157.907C100.497 163.356 109.271 164.281 115.861 160.477C122.451 156.674 126.036 148.553 126.07 137.691C126.104 114.835 110.091 86.8401 90.322 75.3953C84.7226 72.1743 79.3621 70.5296 74.5479 70.5296Z" fill="white"/>
<path d="M110.325 151.909C121.359 145.622 121.12 124.735 109.815 105.268C98.5091 85.7999 80.461 75.1198 69.4619 81.44C58.4287 87.7264 58.6671 108.614 69.9727 128.081C81.2442 147.515 99.3263 158.195 110.325 151.909Z" fill="#0F20DF"/>
<path d="M103.893 155.255C99.8178 155.255 95.2671 153.872 90.5805 151.072C74.6869 141.659 61.5441 119.02 61.3404 100.599C61.2385 91.4894 64.261 84.7079 69.8645 81.5365C75.468 78.3651 82.8715 79.141 90.7503 83.797C106.644 93.21 119.787 115.849 119.99 134.27C120.092 143.379 117.07 150.161 111.466 153.332C109.225 154.58 106.644 155.255 103.893 155.255ZM77.4038 81.2666C74.9247 81.2666 72.6833 81.8401 70.7135 82.9535C65.6874 85.8213 62.9365 92.0629 63.0384 100.531C63.2422 118.413 75.9774 140.41 91.4295 149.553C98.7651 153.872 105.557 154.715 110.617 151.78C115.644 148.912 118.394 142.671 118.292 134.202C118.089 116.321 105.353 94.3234 89.9013 85.1802C85.4525 82.5824 81.1734 81.2328 77.4038 81.2666Z" fill="white"/>
<path d="M140.983 107.408C140.605 107.443 140.331 107.168 140.331 106.826C138.855 86.7754 122.927 63.3322 104.905 54.5581C104.596 54.421 104.459 54.0098 104.63 53.7356C104.768 53.4271 105.145 53.29 105.454 53.4614C123.888 62.4068 140.091 86.2956 141.601 106.757C141.601 107.065 141.326 107.374 140.983 107.408Z" fill="#0F20E8"/>
<path d="M86.0617 98.1484H99.0802L95.3849 112.082H88.9773L90.1978 107.471L103.013 107.673L98.9446 122.784H85.9261L87.1466 118.308H93.6558L89.8927 132.107H76.7725L86.0617 98.1484Z" stroke="white" stroke-miterlimit="10" stroke-linecap="round" stroke-linejoin="round"/>
<path d="M203.346 169.118C203.38 158.618 195.71 145.834 186.266 140.55C181.801 138.061 177.71 137.686 174.641 139.152L167.448 143.311L170.857 148.8C170.857 148.936 170.857 149.038 170.857 149.175C170.823 159.675 178.494 172.459 187.937 177.743C188.38 178.016 188.857 178.22 189.301 178.425L192.266 183.163L198.71 179.516C201.607 177.743 203.346 174.129 203.346 169.118Z" fill="#0F11D1"/>
<path d="M192.13 184.457C191.993 184.457 191.857 184.389 191.789 184.253L188.959 179.412C188.516 179.173 188.073 178.968 187.698 178.73C178.357 173.207 170.789 159.741 170.789 148.696V148.423L167.516 142.832C167.414 142.627 167.448 142.389 167.652 142.287L174.675 137.957C177.914 136.321 182.107 136.866 186.436 139.423C195.777 144.946 203.345 158.412 203.345 169.457C203.345 174.639 201.675 178.593 198.641 180.639L192.3 184.423C192.266 184.457 192.198 184.491 192.13 184.457ZM168.402 142.764L171.539 148.116C171.573 148.184 171.607 148.252 171.607 148.321V148.696C171.573 159.468 178.97 172.628 188.107 178.014C188.482 178.253 188.925 178.491 189.436 178.73C189.505 178.764 189.573 178.832 189.607 178.866L192.3 183.468L198.266 179.889C201.061 178.014 202.595 174.298 202.595 169.423C202.63 158.65 195.198 145.491 186.061 140.105C181.97 137.684 178.05 137.139 175.05 138.673L168.402 142.764Z" fill="white"/>
<path d="M192.059 183.36C198.571 179.576 198.605 167.235 192.093 155.815C185.582 144.394 175.048 138.224 168.536 142.008C162.025 145.792 161.991 158.133 168.502 169.554C174.98 180.974 185.514 187.145 192.059 183.36Z" fill="#0F60DF"/>
<path d="M188.48 184.49C186.094 184.49 183.435 183.706 180.708 182.172C171.264 176.82 163.594 163.797 163.628 153.127C163.628 147.876 165.469 143.956 168.81 142.081C172.151 140.206 176.514 140.615 181.185 143.24C190.628 148.592 198.299 161.615 198.265 172.286C198.265 177.536 196.424 181.456 193.083 183.331C191.685 184.081 190.151 184.49 188.48 184.49ZM173.378 141.672C171.844 141.672 170.412 142.013 169.185 142.729C166.117 144.467 164.446 148.149 164.412 153.092C164.378 163.49 171.878 176.24 181.117 181.456C185.48 183.945 189.605 184.354 192.674 182.615C195.742 180.877 197.412 177.195 197.446 172.252C197.48 161.854 189.98 149.104 180.742 143.888C178.151 142.422 175.628 141.672 173.378 141.672Z" fill="white"/>
<path d="M190.558 179.785C195.74 176.853 195.638 167.103 190.32 158C185.001 148.898 176.479 143.921 171.297 146.853C166.115 149.784 166.217 159.535 171.535 168.637C176.854 177.739 185.376 182.716 190.558 179.785Z" fill="#0F20DF"/>
<path d="M186.981 180.641C185.106 180.641 183.026 179.994 180.879 178.664C173.583 174.198 167.549 163.459 167.447 154.698C167.379 150.368 168.776 147.164 171.367 145.664C173.924 144.164 177.333 144.539 180.947 146.755C188.242 151.221 194.276 161.959 194.379 170.721C194.447 175.05 193.049 178.255 190.458 179.755C189.435 180.334 188.242 180.641 186.981 180.641ZM174.844 145.528C173.719 145.528 172.663 145.8 171.776 146.346C169.458 147.709 168.197 150.675 168.231 154.698C168.333 163.187 174.163 173.619 181.254 177.982C184.629 180.028 187.731 180.437 190.049 179.039C192.367 177.675 193.629 174.709 193.595 170.687C193.492 162.198 187.663 151.766 180.572 147.403C178.526 146.175 176.549 145.528 174.844 145.528Z" fill="white"/>
<path d="M189.161 166.868C189.127 166.766 189.059 166.697 188.991 166.697L183.877 164.106C183.911 162.163 183.4 160.084 182.479 158.209C181.491 156.266 180.127 154.731 178.627 153.981H178.593C177.127 153.231 175.661 153.334 174.536 154.22C173.411 155.106 172.729 156.743 172.627 158.788C172.627 158.891 172.661 158.993 172.695 159.061C172.729 159.163 172.797 159.231 172.866 159.231L177.979 161.822C177.945 163.766 178.457 165.845 179.377 167.686C180.366 169.629 181.729 171.163 183.229 171.913C184.729 172.663 186.161 172.595 187.286 171.675C188.411 170.788 189.093 169.152 189.195 167.106C189.229 167.038 189.195 166.936 189.161 166.868ZM178.013 161.141L173.172 158.686C173.309 156.981 173.922 155.618 174.877 154.868C175.831 154.084 177.059 153.981 178.32 154.527L178.013 161.141ZM179.684 167.243C178.832 165.504 178.422 163.527 178.491 161.72L178.832 154.766C180.127 155.516 181.32 156.913 182.172 158.652C183.025 160.391 183.434 162.368 183.366 164.141C183.366 164.141 183.366 164.141 183.366 164.175L183.025 171.129C181.729 170.379 180.536 168.981 179.684 167.243ZM186.979 171.027C186.025 171.811 184.797 171.913 183.502 171.368L183.809 164.754L188.65 167.209C188.547 168.913 187.934 170.277 186.979 171.027Z" fill="white"/>
<path d="M186.706 93.3406C186.741 82.8406 179.07 70.0564 169.627 64.7723C165.161 62.2837 161.07 61.9087 158.002 63.3746L150.809 67.5337L154.218 73.0224C154.218 73.1587 154.218 73.261 154.218 73.3974C154.184 83.8974 161.854 96.6815 171.297 101.966C171.74 102.238 172.218 102.443 172.661 102.647L175.627 107.386L182.07 103.738C184.934 101.966 186.706 98.352 186.706 93.3406Z" fill="#0F11D1"/>
<path d="M175.457 108.68C175.32 108.68 175.184 108.612 175.116 108.475L172.286 103.634C171.843 103.396 171.4 103.191 171.025 102.952C161.684 97.4298 154.116 83.9638 154.116 72.9183V72.6456L150.843 67.0547C150.741 66.8501 150.775 66.6115 150.979 66.5092L158.002 62.1796C161.241 60.5433 165.434 61.0887 169.763 63.6456C179.104 69.1683 186.673 82.6343 186.673 93.6797C186.673 98.8616 185.002 102.816 181.968 104.862L175.627 108.646C175.627 108.68 175.559 108.714 175.457 108.68ZM151.729 66.9865L154.866 72.3388C154.9 72.407 154.934 72.4751 154.934 72.5433V72.9183C154.9 83.6911 162.298 96.8502 171.434 102.237C171.809 102.475 172.252 102.714 172.763 102.952C172.832 102.987 172.9 103.055 172.934 103.089L175.627 107.691L181.593 104.112C184.389 102.237 185.923 98.5207 185.923 93.6456C185.957 82.8729 178.525 69.7138 169.388 64.3274C165.298 61.9069 161.377 61.3615 158.377 62.8956L151.729 66.9865Z" fill="white"/>
<path d="M175.386 107.583C181.898 103.799 181.932 91.4581 175.42 80.0376C168.909 68.6171 158.375 62.4466 151.864 66.2307C145.352 70.0148 145.318 82.3558 151.829 93.7763C158.307 105.163 168.875 111.367 175.386 107.583Z" fill="#0F60DF"/>
<path d="M171.808 108.678C169.421 108.678 166.762 107.894 164.035 106.36C154.592 101.007 146.921 87.9845 146.955 77.314C146.955 72.064 148.796 68.1435 152.137 66.2685C155.478 64.3935 159.842 64.8026 164.512 67.4276C173.955 72.7799 181.626 85.8027 181.592 96.4732C181.592 101.723 179.751 105.644 176.41 107.519C175.046 108.303 173.478 108.678 171.808 108.678ZM156.739 65.8935C155.205 65.8935 153.773 66.2344 152.546 66.9503C149.478 68.689 147.807 72.3708 147.773 77.314C147.739 87.7118 155.239 100.462 164.478 105.678C168.842 108.166 172.967 108.575 176.035 106.837C179.103 105.098 180.773 101.416 180.808 96.4732C180.842 86.0754 173.342 73.3254 164.103 68.1094C161.478 66.6435 158.989 65.8935 156.739 65.8935Z" fill="white"/>
<path d="M173.885 104.007C179.067 101.075 178.965 91.3254 173.647 82.2231C168.329 73.1208 159.806 68.1435 154.624 71.0753C149.442 74.0072 149.544 83.7572 154.863 92.8595C160.181 101.962 168.703 106.939 173.885 104.007Z" fill="#0F20DF"/>
<path d="M170.341 104.833C168.466 104.833 166.387 104.185 164.239 102.855C156.943 98.3895 150.909 87.6508 150.807 78.8894C150.739 74.5599 152.137 71.3553 154.728 69.8553C157.284 68.3553 160.693 68.7303 164.307 70.9462C171.603 75.4122 177.637 86.1508 177.739 94.9122C177.807 99.2418 176.409 102.446 173.819 103.946C172.796 104.56 171.603 104.833 170.341 104.833ZM158.171 69.753C157.046 69.753 155.989 70.0258 155.103 70.5712C152.784 71.9349 151.523 74.9008 151.557 78.9235C151.659 87.4122 157.489 97.844 164.58 102.208C167.955 104.253 171.057 104.662 173.375 103.265C175.693 101.901 176.955 98.935 176.921 94.9122C176.819 86.4236 170.989 75.9917 163.898 71.6281C161.853 70.3667 159.909 69.719 158.171 69.753Z" fill="white"/>
<path d="M172.488 91.0592C172.454 90.957 172.386 90.8888 172.318 90.8888L167.204 88.2979C167.238 86.3547 166.727 84.2751 165.806 82.4001C164.818 80.4569 163.454 78.9228 161.954 78.1728H161.92C160.454 77.4228 158.988 77.5251 157.863 78.4115C156.738 79.2978 156.056 80.9342 155.954 82.9797C155.954 83.0819 155.988 83.1842 156.022 83.2524C156.056 83.3547 156.125 83.4229 156.193 83.4229L161.306 86.0138C161.272 87.957 161.784 90.0365 162.704 91.8774C163.693 93.8206 165.056 95.3547 166.556 96.1047C168.056 96.8547 169.488 96.7865 170.613 95.8661C171.738 94.9797 172.42 93.3433 172.522 91.2979C172.556 91.2638 172.522 91.1615 172.488 91.0592ZM161.34 85.332L156.5 82.8774C156.636 81.1729 157.25 79.8092 158.204 79.0592C159.159 78.3092 160.386 78.1728 161.647 78.7183L161.34 85.332ZM163.011 91.4342C162.159 89.6956 161.75 87.7183 161.818 85.9115L162.159 78.9569C163.454 79.7069 164.647 81.1047 165.5 82.8433C166.352 84.582 166.761 86.5592 166.693 88.332C166.693 88.332 166.693 88.332 166.693 88.3661L166.352 95.3206C165.056 94.5706 163.863 93.207 163.011 91.4342ZM170.341 95.2524C169.386 96.0365 168.159 96.1388 166.863 95.5933L167.17 88.9797L172.011 91.4342C171.875 93.1047 171.295 94.4683 170.341 95.2524Z" fill="white"/>
<path d="M137.687 33.0867C137.721 22.5867 130.051 9.80254 120.607 4.51843C116.141 2.02979 112.05 1.65479 108.982 3.1207L101.789 7.2798L105.198 12.7685C105.198 12.9048 105.198 13.0071 105.198 13.1435C105.164 23.6435 112.835 36.4617 122.278 41.7117C122.721 41.9845 123.198 42.189 123.641 42.3935L126.607 47.1322L133.051 43.4845C135.914 41.7117 137.687 38.0981 137.687 33.0867Z" fill="#0F11D1"/>
<path d="M126.47 48.4259C126.334 48.4259 126.198 48.3577 126.129 48.2213L123.3 43.3804C122.857 43.1418 122.414 42.9372 122.039 42.6986C112.698 37.1758 105.129 23.7099 105.129 12.6644V12.3917L101.857 6.80076C101.754 6.59621 101.788 6.35757 101.993 6.2553L109.016 1.92574C112.254 0.289375 116.448 0.834831 120.777 3.39166C130.118 8.9144 137.686 22.3803 137.686 33.4258C137.686 38.6077 136.016 42.5622 132.982 44.6077L126.641 48.3918C126.607 48.4259 126.539 48.46 126.47 48.4259ZM102.709 6.73257L105.845 12.0849C105.879 12.153 105.913 12.2212 105.913 12.2894V12.6644C105.879 23.4372 113.277 36.5963 122.414 41.9827C122.789 42.2213 123.232 42.4599 123.743 42.6986C123.811 42.7327 123.879 42.8009 123.914 42.8349L126.607 47.4372L132.573 43.8577C135.368 41.9827 136.902 38.2668 136.902 33.3917C136.936 22.619 129.504 9.45986 120.368 4.07348C116.277 1.65302 112.357 1.10756 109.357 2.64165L102.709 6.73257Z" fill="white"/>
<path d="M126.367 47.3292C132.878 43.5451 132.912 31.2042 126.401 19.7837C119.889 8.36321 109.355 2.19274 102.844 5.97684C96.3326 9.76094 96.2985 22.1019 102.81 33.5224C109.287 44.9429 119.855 51.1133 126.367 47.3292Z" fill="#0F60DF"/>
<path d="M122.788 48.4238C120.402 48.4238 117.743 47.6397 115.015 46.1056C105.572 40.7534 97.9016 27.7306 97.9357 17.0601C97.9357 11.8101 99.7766 7.88962 103.117 6.01461C106.458 4.13961 110.822 4.5487 115.493 7.17371C124.936 12.526 132.606 25.5488 132.572 36.2192C132.572 41.4693 130.731 45.3897 127.39 47.2647C126.027 48.0488 124.458 48.4238 122.788 48.4238ZM107.72 5.63961C106.186 5.63961 104.754 5.98052 103.527 6.69643C100.458 8.43508 98.7879 12.1169 98.7539 17.0601C98.7198 27.4579 106.22 40.2079 115.458 45.4238C119.822 47.9125 123.947 48.3216 127.015 46.5829C130.083 44.8443 131.754 41.1624 131.788 36.2192C131.822 25.8215 124.322 13.0715 115.083 7.85553C112.458 6.38962 109.97 5.63961 107.72 5.63961Z" fill="white"/>
<path d="M124.866 43.7533C130.048 40.8215 129.945 31.0715 124.627 21.9692C119.309 12.8669 110.786 7.8896 105.604 10.8214C100.423 13.7532 100.525 23.5033 105.843 32.6056C111.161 41.7079 119.684 46.6852 124.866 43.7533Z" fill="#0F20DF"/>
<path d="M121.322 44.61C119.447 44.61 117.367 43.9623 115.219 42.6328C107.924 38.1668 101.89 27.4282 101.788 18.6668C101.719 14.3372 103.117 11.1327 105.708 9.63267C108.265 8.13266 111.674 8.50766 115.288 10.7236C122.583 15.1895 128.617 25.9282 128.719 34.6896C128.788 39.0191 127.39 42.2237 124.799 43.7237C123.776 44.3032 122.583 44.61 121.322 44.61ZM109.151 9.4963C108.026 9.4963 106.969 9.76903 106.083 10.3145C103.765 11.6781 102.503 14.644 102.538 18.6668C102.64 27.1554 108.469 37.5873 115.56 41.9509C118.935 43.9964 122.038 44.4055 124.356 43.0078C126.674 41.6441 127.935 38.6782 127.901 34.6555C127.833 26.1327 121.969 15.7009 114.878 11.3713C112.833 10.1099 110.89 9.46221 109.151 9.4963Z" fill="white"/>
<path d="M123.469 30.8053C123.435 30.7031 123.366 30.6349 123.298 30.6349L118.185 28.044C118.219 26.1008 117.707 24.0212 116.787 22.1462C115.798 20.203 114.435 18.6689 112.935 17.9189H112.9C111.435 17.1689 109.969 17.2712 108.844 18.1576C107.719 19.0439 107.037 20.6803 106.935 22.7258C106.935 22.828 106.969 22.9303 107.003 22.9985C107.037 23.1008 107.105 23.169 107.173 23.169L112.287 25.7599C112.253 27.7031 112.764 29.7826 113.685 31.6235C114.673 33.5667 116.037 35.1008 117.537 35.8508C119.037 36.6008 120.469 36.5326 121.594 35.6122C122.719 34.7258 123.401 33.0894 123.503 31.044C123.537 31.0099 123.503 30.9076 123.469 30.8053ZM112.355 25.078L107.48 22.6235C107.616 20.9189 108.23 19.5553 109.185 18.8053C110.139 18.0212 111.366 17.9189 112.628 18.4644L112.355 25.078ZM113.991 31.1803C113.173 29.4417 112.73 27.4644 112.832 25.6917L113.173 18.7371C114.469 19.4871 115.662 20.8849 116.514 22.6235C117.366 24.3621 117.776 26.3394 117.707 28.1121C117.707 28.1121 117.707 28.1121 117.707 28.1462L117.366 35.1008C116.037 34.3508 114.844 32.9531 113.991 31.1803ZM121.321 34.9985C120.366 35.7826 119.139 35.8849 117.844 35.3394L118.151 28.7258L122.991 31.1803C122.889 32.8849 122.276 34.2485 121.321 34.9985Z" fill="white"/>
<path d="M53.0033 40.3914C53.0374 29.8914 45.3669 17.1072 35.9237 11.8231C31.4578 9.33448 27.3669 8.95948 24.2987 10.4254L17.1055 14.5845L20.5146 20.0731C20.5146 20.2095 20.5146 20.3118 20.5146 20.4481C20.4805 30.9482 28.151 43.7323 37.5942 49.0164C38.0374 49.2891 38.5146 49.4937 38.9578 49.6982L41.9237 54.4369L48.3669 50.7891C51.2306 49.0164 53.0033 45.4028 53.0033 40.3914Z" fill="#0F11D1"/>
<path d="M41.7867 55.7277C41.6504 55.7277 41.514 55.6595 41.4458 55.5232L38.6163 50.6823C38.1731 50.4436 37.7299 50.2391 37.3549 50.0004C28.014 44.4777 20.4117 31.0117 20.4458 20.0003V19.7276L17.173 14.1367C17.0708 13.9321 17.1049 13.6935 17.3094 13.5912L24.3321 9.26168C27.5708 7.62531 31.764 8.17077 36.0935 10.7276C45.4345 16.2503 53.0027 29.7163 53.0027 40.7618C53.0027 45.9436 51.3322 49.8982 48.2981 51.9095L41.9572 55.6936C41.9231 55.7277 41.8549 55.7618 41.7867 55.7277ZM18.0594 14.0344L21.1958 19.3867C21.2299 19.4549 21.264 19.5231 21.264 19.5913V19.9663C21.2299 30.739 28.6276 43.8981 37.764 49.2845C38.139 49.5232 38.5822 49.7618 39.0936 50.0004C39.1617 50.0345 39.2299 50.1027 39.264 50.1368L41.9572 54.7391L47.9231 51.1595C50.7186 49.2845 52.2527 45.5686 52.2527 40.6936C52.2868 29.9208 44.8549 16.7617 35.7185 11.3753C31.6276 8.95486 27.7072 8.40941 24.7071 9.9435L18.0594 14.0344Z" fill="white"/>
<path d="M41.6832 54.6378C48.1946 50.8537 48.2286 38.5128 41.7173 27.0923C35.2059 15.6718 24.6718 9.50133 18.1604 13.2854C11.649 17.0695 11.6149 29.4105 18.1263 40.831C24.6377 52.2515 35.1718 58.4219 41.6832 54.6378Z" fill="#0F60DF"/>
<path d="M38.1044 55.7598C35.718 55.7598 33.0589 54.9757 30.3317 53.4416C20.8885 48.0893 13.218 35.0665 13.2521 24.396C13.2521 19.146 15.093 15.2256 18.4339 13.3506C21.7748 11.4755 26.1385 11.8846 30.8089 14.5096C40.2521 19.8619 47.9226 32.8847 47.8885 43.5552C47.8885 48.8052 46.0476 52.7257 42.7067 54.6007C41.3431 55.3507 39.7749 55.7598 38.1044 55.7598ZM23.0362 12.9415C21.5021 12.9415 20.0703 13.2824 18.843 13.9983C15.7748 15.7369 14.1043 19.4188 14.0702 24.3619C14.0362 34.7597 21.5362 47.5097 30.7748 52.7257C35.1385 55.2143 39.2635 55.6234 42.3317 53.8848C45.3999 52.1461 47.0703 48.4643 47.1044 43.5211C47.1385 33.1233 39.6385 20.3733 30.3998 15.1574C27.7748 13.6915 25.2862 12.9415 23.0362 12.9415Z" fill="white"/>
<path d="M40.2183 51.058C45.4002 48.1262 45.2979 38.3762 39.9797 29.2739C34.6615 20.1716 26.1388 15.1943 20.9569 18.1261C15.7751 21.0579 15.8774 30.808 21.1956 39.9103C26.4797 49.0126 35.0365 53.9898 40.2183 51.058Z" fill="#0F20DF"/>
<path d="M36.6381 51.9147C34.7631 51.9147 32.6835 51.267 30.5358 49.9374C23.2403 45.4715 17.2062 34.7329 17.1039 25.9715C17.0358 21.6419 18.4335 18.4374 21.0244 16.9374C23.5812 15.4373 26.9903 15.8123 30.604 18.0283C37.8995 22.4942 43.9336 33.2329 44.0358 41.9942C44.104 46.3238 42.7063 49.5284 40.1154 51.0284C39.0926 51.6079 37.8995 51.9147 36.6381 51.9147ZM24.4676 16.801C23.3426 16.801 22.2858 17.0737 21.3994 17.6192C19.0812 18.9828 17.8199 21.9487 17.8539 25.9715C17.9562 34.4601 23.7858 44.892 30.8767 49.2556C34.2517 51.3011 37.354 51.7102 39.6722 50.3124C41.9904 48.9488 43.2517 45.9829 43.2177 41.9601C43.1154 33.4715 37.2858 23.0396 30.1949 18.676C28.1835 17.4487 26.2062 16.801 24.4676 16.801Z" fill="white"/>
<path d="M38.7851 38.1413C38.751 38.039 38.6828 37.9708 38.6147 37.9708L33.501 35.3799C33.5351 33.4367 33.0237 31.3572 32.1033 29.4822C31.1146 27.539 29.751 26.0049 28.251 25.2549H28.2169C26.751 24.5049 25.2851 24.6071 24.1601 25.4935C23.0351 26.3799 22.3532 28.0162 22.251 30.0617C22.251 30.164 22.2851 30.2663 22.3192 30.3344C22.3532 30.4367 22.4214 30.5049 22.4896 30.5049L27.6033 33.0958C27.5692 35.039 28.0805 37.1185 29.001 38.9595C29.9896 40.9026 31.3533 42.4367 32.8533 43.1867C34.3533 43.9367 35.7851 43.8686 36.9101 42.9481C38.0351 42.0617 38.7169 40.4254 38.8192 38.3799C38.8533 38.3117 38.8533 38.2095 38.7851 38.1413ZM27.6714 32.414L22.8305 29.9594C22.9669 28.2549 23.5805 26.8912 24.5351 26.1412C25.4896 25.3571 26.7169 25.2549 27.9783 25.8003L27.6714 32.414ZM29.3419 38.4822C28.4896 36.7435 28.0805 34.7663 28.1487 32.9594L28.4896 26.0049C29.7851 26.7549 30.9783 28.1526 31.8306 29.8913C32.6828 31.6299 33.0919 33.6072 33.0237 35.3799C33.0237 35.3799 33.0237 35.3799 33.0237 35.414L32.6828 42.3686C31.3874 41.6527 30.1601 40.2549 29.3419 38.4822ZM36.6374 42.3004C35.6828 43.0845 34.4556 43.1867 33.1601 42.6413L33.4669 36.0276L38.3078 38.4822C38.2056 40.1867 37.5919 41.5504 36.6374 42.3004Z" fill="white"/>
<path d="M39.809 114.356C39.8431 103.856 32.1726 91.0721 22.7294 85.788C18.2634 83.2993 14.1725 82.9243 11.1043 84.3902L3.91113 88.5493L7.32023 94.038C7.32023 94.1744 7.32023 94.2766 7.32023 94.413C7.28614 104.913 14.9566 117.697 24.3998 122.981C24.843 123.254 25.3203 123.459 25.7635 123.663L28.7294 128.402L35.1726 124.754C38.0362 122.947 39.809 119.368 39.809 114.356Z" fill="#0F11D1"/>
<path d="M28.5592 129.695C28.4228 129.695 28.2865 129.627 28.2183 129.491L25.3887 124.65C24.9456 124.411 24.5024 124.207 24.1274 123.968C14.7864 118.445 7.21823 104.979 7.21823 93.9339V93.6612L3.94549 88.0703C3.84322 87.8657 3.87731 87.6271 4.08186 87.5248L11.1046 83.1953C14.3433 81.5589 18.5364 82.1044 22.866 84.6612C32.2069 90.1839 39.7751 103.65 39.7751 114.695C39.7751 119.877 38.1047 123.832 35.0706 125.877L28.7637 129.661C28.7297 129.695 28.6274 129.695 28.5592 129.695ZM4.83186 87.968L7.96823 93.3203C8.00233 93.3885 8.03642 93.4567 8.03642 93.5249V93.8999C8.00232 104.673 15.4001 117.832 24.5365 123.218C24.9115 123.457 25.3546 123.695 25.866 123.934C25.9342 123.968 26.0024 124.036 26.0365 124.07L28.7297 128.673L34.6956 125.093C37.491 123.218 39.0251 119.502 39.0251 114.627C39.0592 103.854 31.6274 90.6953 22.491 85.3089C18.4001 82.8885 14.4796 82.343 11.4796 83.8771L4.83186 87.968Z" fill="white"/>
<path d="M28.4888 128.571C35.0002 124.787 35.0343 112.446 28.5229 101.026C22.0115 89.6054 11.4774 83.4349 4.96605 87.219C-1.54534 91.0031 -1.57943 103.344 4.93195 114.765C11.4092 126.185 21.9775 132.356 28.4888 128.571Z" fill="#0F60DF"/>
<path d="M24.9101 129.693C22.5237 129.693 19.8646 128.909 17.1373 127.375C7.69412 122.023 0.0236394 109 0.0577304 98.3296C0.0577304 93.0796 1.89864 89.1592 5.23956 87.2841C8.58048 85.4091 12.9441 85.8182 17.6146 88.4432C27.0578 93.7955 34.7283 106.818 34.6942 117.489C34.6942 122.739 32.8533 126.659 29.5124 128.534C28.1146 129.318 26.5805 129.693 24.9101 129.693ZM9.84185 86.8751C8.30776 86.8751 6.87593 87.216 5.64866 87.9319C2.58047 89.6705 0.910006 93.3523 0.875915 98.2955C0.841824 108.693 8.34184 121.443 17.5805 126.659C21.9442 129.148 26.0692 129.557 29.1374 127.818C32.2056 126.08 33.876 122.398 33.9101 117.455C33.9442 107.057 26.4442 94.3069 17.2055 89.091C14.5805 87.6251 12.0919 86.8751 9.84185 86.8751Z" fill="white"/>
<path d="M26.9879 124.992C32.1697 122.06 32.0674 112.31 26.7492 103.207C21.431 94.1052 12.9083 89.1279 7.72646 92.0597C2.54462 94.9915 2.6469 104.742 7.96509 113.844C13.2833 122.946 21.806 127.923 26.9879 124.992Z" fill="#0F20DF"/>
<path d="M23.4438 125.848C21.5688 125.848 19.4892 125.201 17.3415 123.871C10.046 119.405 4.01188 108.666 3.90961 99.9051C3.84143 95.5755 5.23916 92.371 7.83007 90.8709C10.3869 89.3709 13.796 89.7459 17.4096 91.9619C24.7051 96.4278 30.7392 107.166 30.8415 115.928C30.9097 120.257 29.512 123.462 26.921 124.962C25.8642 125.542 24.7051 125.848 23.4438 125.848ZM11.2733 90.7346C10.1483 90.7346 9.09144 91.0073 8.20508 91.5528C5.88689 92.9164 4.62552 95.8823 4.65961 99.9051C4.76188 108.394 10.5914 118.826 17.6824 123.189C21.0574 125.235 24.1597 125.644 26.4779 124.246C28.796 122.882 30.0574 119.916 30.0233 115.894C29.921 107.405 24.0915 96.9732 17.0006 92.6096C14.9551 91.3823 13.0119 90.7346 11.2733 90.7346Z" fill="white"/>
<path d="M25.5908 112.075C25.5567 111.973 25.4885 111.904 25.4203 111.904L20.3067 109.313C20.3408 107.37 19.8294 105.291 18.9089 103.416C17.9203 101.473 16.5567 99.9385 15.0567 99.1885H15.0226C13.5567 98.4385 12.0907 98.5407 10.9657 99.4271C9.84073 100.313 9.15891 101.95 9.05664 103.995C9.05664 104.098 9.09073 104.2 9.12482 104.268C9.15891 104.37 9.2271 104.438 9.29528 104.438L14.4089 107.029C14.3748 108.973 14.8862 111.052 15.8067 112.893C16.7953 114.836 18.1589 116.37 19.6589 117.12C21.1589 117.87 22.5908 117.802 23.7158 116.882C24.8408 115.995 25.5226 114.359 25.6249 112.314C25.659 112.245 25.6249 112.143 25.5908 112.075ZM14.443 106.348L9.6021 103.893C9.73846 102.188 10.3521 100.825 11.3066 100.075C12.2612 99.2907 13.4885 99.1885 14.7498 99.7339L14.443 106.348ZM16.1135 112.45C15.2612 110.711 14.8521 108.734 14.9203 106.927L15.2612 99.9726C16.5567 100.723 17.7498 102.12 18.6021 103.859C19.4544 105.598 19.8635 107.575 19.7953 109.348C19.7953 109.348 19.7953 109.348 19.7953 109.382L19.4544 116.336C18.1589 115.586 16.9658 114.189 16.1135 112.45ZM23.443 116.234C22.4885 117.018 21.2612 117.12 19.9658 116.575L20.2726 109.961L25.1135 112.416C24.9771 114.12 24.3976 115.484 23.443 116.234Z" fill="white"/>
</svg>
