<svg width="13" height="12" viewBox="0 0 13 12" fill="none" xmlns="http://www.w3.org/2000/svg">
<path fill-rule="evenodd" clip-rule="evenodd" d="M0 2.6972C0 2.45345 0.197595 2.25586 0.441342 2.25586C5.57957 2.25586 9.74482 6.4211 9.74482 11.5593H9.30348V12.0007H0.441342C0.197595 12.0007 0 11.8031 0 11.5593V2.6972ZM8.85077 11.118C8.62879 6.81856 5.18211 3.3719 0.882683 3.14991V11.118H8.85077Z" fill="#0F20E8"/>
<path fill-rule="evenodd" clip-rule="evenodd" d="M2.25977 0.441342C2.25977 0.197595 2.45736 0 2.70111 0C7.83933 0 12.0046 4.16524 12.0046 9.30346C12.0046 9.54721 11.807 9.7448 11.5632 9.7448H9.0704C8.93577 9.76403 8.79605 9.72036 8.69556 9.61972L8.69115 9.6153C8.62228 9.54632 8.5798 9.4584 8.56657 9.36594C7.78095 6.46465 5.49701 4.19043 2.58918 3.42806C2.3951 3.37717 2.25977 3.20178 2.25977 3.00114V0.441342ZM9.34012 8.86212H11.1105C10.8886 4.5627 7.44187 1.11604 3.14245 0.89405V2.66715C6.10924 3.56357 8.439 5.89668 9.34012 8.86212Z" fill="#0F20E8"/>
</svg>
