<svg width="33" height="32" viewBox="0 0 33 32" fill="none" xmlns="http://www.w3.org/2000/svg">
<path d="M9.8841 1.61224C9.33551 1.2961 9.33551 0.784692 9.8841 0.468551C10.4327 0.15241 11.316 0.15241 11.8646 0.468551L30.3635 11.2174C31.2701 11.7427 31.8234 12.7097 31.8234 13.7558V29.3629C31.8234 30.3114 30.7959 30.9064 29.973 30.4322L11.4276 19.7253L9.8841 1.61224Z" fill="#BCBEF1"/>
<path d="M30.591 30.8319C30.34 30.8319 30.0889 30.7668 29.8565 30.632L11.3111 19.925C11.246 19.8878 11.2041 19.8181 11.1948 19.7437L9.66526 1.74691C9.39096 1.5563 9.24219 1.30989 9.24219 1.04024C9.24219 0.73805 9.42815 0.463751 9.76754 0.268488C10.3859 -0.0894959 11.3575 -0.0894959 11.9805 0.268488L30.4794 11.0173C31.4511 11.5845 32.0555 12.6305 32.0555 13.7556V29.3628C32.0555 29.8928 31.7812 30.367 31.3209 30.632C31.0931 30.7668 30.8374 30.8319 30.5864 30.8319H30.591ZM11.6458 19.5856L30.0889 30.2322C30.4051 30.4135 30.777 30.4135 31.0931 30.2322C31.4046 30.0508 31.5952 29.7254 31.5952 29.3628V13.7603C31.5952 12.8026 31.0792 11.9053 30.2516 11.4218L11.7481 0.668313C11.2739 0.394014 10.4742 0.394014 10 0.668313C9.81403 0.775243 9.7071 0.910068 9.7071 1.04024C9.7071 1.17042 9.81403 1.3006 10 1.41217C10.0651 1.44937 10.1069 1.51911 10.1162 1.59349L11.6458 19.5856Z" fill="#0B00DA"/>
<path d="M10.5438 3.15588C10.2927 3.01176 10.2927 2.24465 10.5438 2.10053C11.0505 1.80764 11.8688 1.80764 12.3709 2.10053L29.5587 12.0869C30.3258 12.5332 30.8 13.3561 30.8 14.2487V28.9121C30.8 29.5769 30.0794 29.9953 29.5029 29.6606L11.9664 19.5348L10.5438 3.15588Z" fill="#0B00DA"/>
<path d="M29.9357 30.0089C29.7451 30.0089 29.5591 29.9578 29.3871 29.8601L11.8506 19.739C11.7855 19.7018 11.7436 19.632 11.7343 19.5576L10.321 3.26708C10.1397 3.07182 10.1211 2.73243 10.1211 2.6255C10.1211 2.49532 10.1443 2.0583 10.4279 1.89558C11.0044 1.56085 11.911 1.56085 12.4875 1.89558L29.6754 11.8866C30.5122 12.3747 31.0329 13.2767 31.0329 14.2483V28.9117C31.0329 29.3069 30.8283 29.6649 30.4843 29.8648C30.3123 29.9624 30.1217 30.0136 29.9357 30.0136V30.0089ZM12.19 19.3949L29.6196 29.4603C29.8195 29.5765 30.0566 29.5765 30.2518 29.4603C30.4518 29.3441 30.568 29.1395 30.568 28.9117V14.2437C30.568 13.4394 30.1356 12.6909 29.4429 12.2864L12.255 2.30006C11.8227 2.04901 11.0928 2.04901 10.6604 2.30006C10.6371 2.31866 10.586 2.43953 10.586 2.6255C10.586 2.81146 10.6371 2.93234 10.665 2.95559C10.7301 2.99278 10.772 3.05787 10.7766 3.13225L12.19 19.3949Z" fill="#0B00DA"/>
<path d="M9.47656 1.04004V19.8644C9.47656 20.4967 9.81595 21.0825 10.3645 21.4033L28.022 31.5988C28.8449 32.073 29.8723 31.4779 29.8723 30.5295V14.9224C29.8723 13.8763 29.3144 12.9093 28.4125 12.3839L9.88569 1.61188" fill="white"/>
<path d="M21.3723 15.9775L19.8906 16.7801V22.2208L21.3723 21.4144V15.9775Z" fill="#5C5FE9"/>
<path d="M19.8922 22.4143C19.8574 22.4143 19.8227 22.4066 19.7918 22.3873C19.7339 22.3525 19.6992 22.2908 19.6992 22.2214V16.7806C19.6992 16.7112 19.7378 16.6456 19.7995 16.6109L21.2813 15.8044C21.343 15.7735 21.4125 15.7735 21.4703 15.8044C21.5282 15.8353 21.563 15.9009 21.563 15.9703V21.411C21.563 21.4805 21.5244 21.5461 21.4626 21.5808L19.9809 22.3873C19.9539 22.4027 19.9192 22.4104 19.8883 22.4104L19.8922 22.4143ZM20.0851 16.8964V21.8972L21.1809 21.303V16.3022L20.0851 16.8964Z" fill="#0B00DE"/>
<path d="M19.8989 22.2209V16.7493L22.2527 18.1384L18.722 12.0225L15.1875 14.0598L17.5451 15.4219V20.8588L19.8989 22.2209Z" fill="white"/>
<path d="M19.9005 22.4139C19.8658 22.4139 19.8349 22.4062 19.804 22.3869L17.4502 21.0286C17.3924 20.9939 17.3538 20.9322 17.3538 20.8627V15.5339L15.0965 14.2297C15.0386 14.195 15 14.1332 15 14.0638C15 13.9943 15.0386 13.9326 15.0965 13.8978L18.6271 11.8528C18.7197 11.7987 18.8355 11.8296 18.8895 11.9222L22.4241 18.042C22.4665 18.1192 22.4549 18.2157 22.3932 18.2774C22.3315 18.3392 22.235 18.3507 22.1578 18.3083L20.0934 17.089V22.221C20.0934 22.2904 20.0548 22.3522 19.997 22.3869C19.9661 22.4023 19.9352 22.4139 19.9005 22.4139ZM17.7396 20.7508L19.7076 21.8891V16.7494C19.7076 16.6799 19.7461 16.6143 19.804 16.5835C19.8619 16.5526 19.9391 16.5487 19.997 16.5835L21.7218 17.6022L18.6503 12.2849L15.5749 14.0599L17.6393 15.2522C17.6972 15.287 17.7358 15.3487 17.7358 15.4182V20.747L17.7396 20.7508Z" fill="#0B00DE"/>
<path d="M23.6733 17.3132L22.2533 18.1389L18.7227 12.023L20.1388 11.1934L23.6733 17.3132Z" fill="#C0C2F5"/>
<path d="M22.2544 18.3316C22.2544 18.3316 22.2197 18.3316 22.2042 18.3239C22.1541 18.3123 22.1116 18.2776 22.0885 18.2351L18.5539 12.1192C18.4999 12.0266 18.5308 11.9108 18.6234 11.8568L20.0434 11.0272C20.0858 11.0001 20.1398 10.9924 20.19 11.0079C20.2402 11.0233 20.2826 11.0542 20.3058 11.0966L23.8403 17.2164C23.8943 17.3091 23.8634 17.4248 23.7708 17.4788L22.3547 18.3084C22.3238 18.3277 22.293 18.3355 22.2582 18.3355L22.2544 18.3316ZM18.9861 12.0921L22.3277 17.8763L23.412 17.2435L20.0704 11.4593L18.9861 12.0921Z" fill="#0B00DE"/>
<path d="M28.6384 31.9987C28.3873 31.9987 28.1363 31.9336 27.9038 31.7988L10.2464 21.6032C9.62807 21.2452 9.24219 20.5804 9.24219 19.8644V1.04007C9.24219 0.909898 9.34447 0.807617 9.47464 0.807617C9.60482 0.807617 9.7071 0.909898 9.7071 1.04007V1.46315C9.77684 1.37946 9.90237 1.35622 10 1.412L28.5315 12.1841C29.5031 12.7512 30.1075 13.7973 30.1075 14.9224V30.5295C30.1075 31.0595 29.8332 31.5338 29.3729 31.7988C29.1451 31.9336 28.8894 31.9987 28.6384 31.9987ZM9.7071 1.76069V19.8644C9.7071 20.413 10.0046 20.9244 10.4789 21.1987L28.1363 31.3943C28.4478 31.5756 28.8243 31.5756 29.1405 31.3943C29.452 31.213 29.6426 30.8875 29.6426 30.5249V14.9224C29.6426 13.9647 29.1265 13.0674 28.299 12.5839L9.76754 1.81183C9.74429 1.79788 9.72105 1.77929 9.7071 1.76069Z" fill="#0B00DA"/>
<path d="M9.8841 1.61224C9.33551 1.2961 9.33551 0.784692 9.8841 0.468551C10.4327 0.15241 11.316 0.15241 11.8646 0.468551" fill="#BCBEF1"/>
<path d="M9.88377 1.84454C9.84658 1.84454 9.80473 1.83525 9.76754 1.812C9.42815 1.61674 9.24219 1.34244 9.24219 1.04024C9.24219 0.73805 9.42815 0.463751 9.76754 0.268488C10.3859 -0.0894959 11.3575 -0.0894959 11.9805 0.268488C12.0921 0.333575 12.1293 0.473049 12.0642 0.584629C11.9991 0.696208 11.8597 0.733401 11.7481 0.668313C11.2739 0.394014 10.4742 0.394014 10 0.668313C9.81403 0.775243 9.7071 0.910068 9.7071 1.04024C9.7071 1.17042 9.81403 1.3006 10 1.41217C10.1116 1.47726 10.1488 1.61674 10.0837 1.72832C10.0418 1.8027 9.9628 1.84454 9.88377 1.84454Z" fill="#0B00DA"/>
<path d="M0.234375 15.6106L4.33956 17.9816V13.2395C2.5171 12.1841 0.234375 13.5045 0.234375 15.6106Z" fill="white"/>
<path d="M4.33764 18.2137C4.2958 18.2137 4.25861 18.2044 4.22141 18.1812L0.116228 15.8101C0.0464913 15.7683 0 15.6939 0 15.6102C0 14.5363 0.553247 13.5739 1.48307 13.0392C2.4129 12.4999 3.52404 12.4999 4.45387 13.0392C4.52361 13.0811 4.5701 13.1555 4.5701 13.2392V17.9813C4.5701 18.065 4.52361 18.1393 4.45387 18.1812C4.41668 18.1998 4.37949 18.2137 4.33764 18.2137ZM0.469563 15.48L4.10519 17.5814V13.3833C3.34738 12.9927 2.46404 13.016 1.71553 13.4484C0.971669 13.8807 0.511405 14.6339 0.464914 15.4847L0.469563 15.48Z" fill="#0B00DB"/>
<path d="M4.33984 13.2392L6.39011 12.0537V16.7958L4.33984 17.9814V17.9767V13.2392Z" fill="#BDBFF2"/>
<path d="M4.33793 18.2139C4.29608 18.2139 4.25889 18.2046 4.2217 18.1814C4.15196 18.1395 4.10547 18.0651 4.10547 17.9814V13.244C4.10547 13.1603 4.15196 13.0859 4.2217 13.0441L6.27197 11.8585C6.3417 11.8167 6.43469 11.8167 6.50442 11.8585C6.57416 11.9004 6.62065 11.9748 6.62065 12.0584V16.7959C6.62065 16.8796 6.57416 16.954 6.50442 16.9958L4.45415 18.1814C4.41696 18.2 4.37977 18.2139 4.33793 18.2139ZM4.57038 13.3741V17.577L6.15574 16.6611V12.4583L4.57038 13.3741Z" fill="#0B00DB"/>
<path d="M6.38792 12.0538L4.33765 13.2393C3.39388 12.6954 2.32457 12.7837 1.51562 13.2905C2.89642 12.1003 5.06756 11.4308 6.38792 12.0538Z" fill="white"/>
<path d="M1.51706 13.5232C1.49382 13.5232 1.47057 13.5232 1.44268 13.5139C1.37759 13.4907 1.32645 13.4442 1.29855 13.3791C1.26136 13.2861 1.28461 13.1792 1.36364 13.1141C2.72119 11.9425 5.01321 11.1475 6.48699 11.8449C6.56602 11.8821 6.61716 11.9611 6.62181 12.0448C6.62181 12.1331 6.57997 12.2122 6.50559 12.254L4.45532 13.4396C4.38558 13.4814 4.2926 13.4814 4.22286 13.4396C3.40926 12.97 2.44224 12.9886 1.64259 13.486C1.6054 13.5093 1.56355 13.5232 1.51706 13.5232ZM2.97224 12.6306C3.43716 12.6306 3.90207 12.7422 4.33909 12.97L5.83146 12.1099C5.01786 11.9379 3.93926 12.1424 2.94435 12.6306C2.95365 12.6306 2.96759 12.6306 2.97689 12.6306H2.97224Z" fill="#0B00DB"/>
<path d="M4.33984 13.249V17.9865C4.33984 20.9201 5.9066 23.6305 8.44503 25.095V20.3576C8.44503 17.4239 6.87827 14.7135 4.33984 13.249Z" fill="white"/>
<path d="M8.44311 25.3322C8.40592 25.3322 8.37337 25.3229 8.34083 25.309C5.72337 23.798 4.10547 20.9992 4.10547 17.9912V13.2538C4.10547 13.1701 4.15196 13.0957 4.2217 13.0538C4.29143 13.012 4.38442 13.012 4.45415 13.0538C7.05767 14.5555 8.67557 17.3589 8.67557 20.3623V25.1044C8.67557 25.1834 8.63373 25.2578 8.56399 25.3043C8.5268 25.3276 8.48495 25.3369 8.44311 25.3369V25.3322ZM4.57038 13.6629V17.9866C4.57038 20.6924 5.95582 23.2215 8.21066 24.6813V20.3576C8.21066 17.6518 6.82521 15.1227 4.57038 13.6629Z" fill="#0B00DB"/>
<path d="M6.38695 12.0537L4.33203 13.2485C6.87046 14.713 8.43722 17.4235 8.43722 20.3571V25.0992L10.4921 23.9044V19.1669C10.4921 16.2333 8.92538 13.5228 6.38695 12.0584V12.0537Z" fill="#BDBFF2"/>
<path d="M8.44311 25.3317C8.40127 25.3317 8.36408 25.3224 8.32688 25.2992C8.2525 25.2573 8.21066 25.183 8.21066 25.0993V20.3618C8.21066 17.5212 6.68109 14.8712 4.2217 13.4532C4.15196 13.4113 4.10547 13.337 4.10547 13.2533C4.10547 13.1696 4.14731 13.0952 4.2217 13.0534L6.27661 11.8585C6.34635 11.8167 6.43933 11.8167 6.50907 11.8585C9.11259 13.3602 10.7305 16.1636 10.7305 19.1716V23.9137C10.7305 23.9974 10.684 24.0718 10.6143 24.1137L8.55934 25.3085C8.52215 25.3317 8.48495 25.341 8.44311 25.341V25.3317ZM4.78889 13.2533C7.19249 14.7968 8.67092 17.484 8.67557 20.3572V24.6948L10.2656 23.7696V19.1623C10.2656 16.3682 8.7825 13.76 6.38819 12.3234L4.78889 13.2533Z" fill="#0B00DB"/>
<path d="M8.44531 25.0949V20.3574L12.5505 22.7285C12.5505 24.8345 10.2678 26.1502 8.44531 25.0995V25.0949Z" fill="white"/>
<path d="M9.81024 25.6991C9.29884 25.6991 8.79208 25.5643 8.32717 25.2947C8.25743 25.2528 8.21094 25.1784 8.21094 25.0947V20.3573C8.21094 20.2736 8.25743 20.1992 8.32717 20.1574C8.3969 20.1155 8.48989 20.1155 8.55962 20.1574L12.6648 22.5284C12.7345 22.5703 12.781 22.6446 12.781 22.7283C12.781 23.8023 12.2278 24.7647 11.298 25.2993C10.833 25.569 10.3216 25.7038 9.81489 25.7038L9.81024 25.6991ZM8.67585 24.9553C9.43366 25.3411 10.317 25.3225 11.0655 24.8902C11.8094 24.4578 12.2696 23.7046 12.3161 22.8539L8.6805 20.7524V24.9506L8.67585 24.9553Z" fill="#0B00DB"/>
<path d="M12.5505 22.7285L14.6008 21.5429L10.5002 19.1719L8.44531 20.3574L12.5505 22.7285Z" fill="white"/>
<path d="M12.5486 22.9608C12.5067 22.9608 12.4695 22.9515 12.4324 22.9282L8.32717 20.5572C8.25743 20.5153 8.21094 20.4409 8.21094 20.3573C8.21094 20.2736 8.25743 20.1992 8.32717 20.1573L10.3774 18.9718C10.4472 18.93 10.5402 18.93 10.6099 18.9718L14.7151 21.3429C14.7848 21.3847 14.8313 21.4591 14.8313 21.5428C14.8313 21.6265 14.7848 21.7009 14.7151 21.7427L12.6648 22.9282C12.6276 22.9468 12.5904 22.9608 12.5486 22.9608ZM8.90831 20.3573L12.5486 22.4587L14.1339 21.5428L10.4937 19.4414L8.90831 20.3573Z" fill="#0B00DB"/>
<path d="M14.5992 21.543L12.5489 22.7285C12.5489 23.821 11.9352 24.6997 11.0938 25.146C12.8139 24.5463 14.483 22.9981 14.5992 21.543Z" fill="#5C5FE6"/>
<path d="M11.0931 25.3788C11.0002 25.3788 10.9118 25.323 10.8793 25.2346C10.8374 25.1231 10.8793 24.9975 10.9862 24.9418C11.8184 24.5001 12.3205 23.6725 12.3205 22.7288C12.3205 22.6451 12.367 22.5707 12.4367 22.5289L14.487 21.3433C14.5614 21.3015 14.6544 21.3015 14.7288 21.348C14.8031 21.3945 14.845 21.4781 14.8357 21.5618C14.7009 23.189 12.8691 24.7744 11.1722 25.3648C11.1489 25.3741 11.121 25.3788 11.0931 25.3788ZM12.7761 22.8636C12.7529 23.3657 12.6134 23.8353 12.3716 24.2444C13.2922 23.6261 14.0081 22.7939 14.2685 22.0035L12.7761 22.8636Z" fill="#0B00DB"/>
</svg>
