<svg width="28" height="28" viewBox="0 0 28 28" fill="none" xmlns="http://www.w3.org/2000/svg">
<path fill-rule="evenodd" clip-rule="evenodd" d="M0 14C0 6.26805 6.26799 0 14 0C21.732 0 28 6.26805 28 14C28 21.7319 21.732 28 14 28C6.26799 28 0 21.7319 0 14Z" fill="white"/>
<path fill-rule="evenodd" clip-rule="evenodd" d="M7.74805 14.0633C7.74805 13.3629 8.3158 12.7952 9.01617 12.7952H18.9709C19.6712 12.7952 20.239 13.3629 20.239 14.0633C20.239 14.7636 19.6712 15.3314 18.9709 15.3314H9.01617C8.3158 15.3314 7.74805 14.7636 7.74805 14.0633Z" fill="#AEAEAE"/>
<path fill-rule="evenodd" clip-rule="evenodd" d="M14 2.53622C7.66873 2.53622 2.53624 7.66875 2.53624 14C2.53624 20.3313 7.66873 25.4638 14 25.4638C20.3313 25.4638 25.4638 20.3313 25.4638 14C25.4638 7.66875 20.3313 2.53622 14 2.53622ZM0 14C0 6.26805 6.26799 0 14 0C21.732 0 28 6.26805 28 14C28 21.7319 21.732 28 14 28C6.26799 28 0 21.7319 0 14Z" fill="#AEAEAE"/>
</svg>
