<svg width="29" height="28" viewBox="0 0 29 28" fill="none" xmlns="http://www.w3.org/2000/svg">
<rect x="0.823242" y="0.707031" width="27.2941" height="27.2941" rx="7" fill="#3A3A3A"/>
<path d="M19.6491 10.2578C19.374 9.78787 18.9495 9.42173 18.4404 9.2285C17.9051 9.02533 17.3507 8.86227 16.7808 8.74257C16.5485 8.69378 16.3143 8.8049 16.2109 9.01858C16.0995 9.24866 15.8535 9.38854 15.5994 9.36073C14.8426 9.27792 14.0907 9.27758 13.344 9.35972C13.0886 9.3878 12.841 9.24776 12.7276 9.01719C12.623 8.80429 12.3887 8.69367 12.1565 8.74242C11.5883 8.86175 11.0354 9.02442 10.5018 9.22698C9.98768 9.42215 9.5602 9.79378 9.28414 10.2694C8.16368 12.1998 7.69023 14.0969 7.6494 15.9718C7.62872 16.9212 8.12534 17.8101 8.95141 18.2785C9.51596 18.5986 10.0733 18.85 10.6254 19.0514C10.9408 19.1664 11.2934 19.0501 11.4728 18.7662C11.5286 18.6779 11.5828 18.5885 11.6355 18.4979C11.7839 18.2429 11.657 17.9233 11.39 17.7977C11.2416 17.7278 11.0959 17.6531 10.9532 17.5739C10.847 17.5149 10.8398 17.3663 10.9342 17.2897C10.9858 17.2478 11.0567 17.2386 11.1173 17.2661C13.3017 18.2552 15.6633 18.2554 17.8226 17.2667C17.8833 17.2389 17.9549 17.248 18.0068 17.29C18.1014 17.3664 18.0935 17.5147 17.9872 17.5738C17.8446 17.6531 17.6991 17.7277 17.551 17.7974C17.2824 17.9238 17.1548 18.2454 17.304 18.502C17.3563 18.5919 17.4101 18.6807 17.4655 18.7684C17.6444 19.0519 17.9965 19.1677 18.3115 19.053C18.8645 18.8515 19.4228 18.6 19.9881 18.2794C20.8148 17.8105 21.3119 16.9208 21.2904 15.9707C21.2431 13.8766 20.6605 11.9858 19.6491 10.2578ZM12.203 15.8697C11.5289 15.8697 10.9761 15.2404 10.9761 14.4741C10.9761 13.7078 11.5171 13.0774 12.203 13.0774C12.8889 13.0774 13.4417 13.7067 13.4299 14.4741C13.4309 15.2404 12.8889 15.8697 12.203 15.8697ZM16.737 15.8697C16.0629 15.8697 15.5101 15.2404 15.5101 14.4741C15.5101 13.7078 16.0511 13.0774 16.737 13.0774C17.4229 13.0774 17.9757 13.7067 17.9639 14.4741C17.9639 15.2404 17.4229 15.8697 16.737 15.8697Z" fill="white"/>
</svg>
