
<svg width="24" height="24" viewBox="0 0 24 24" fill="none" xmlns="http://www.w3.org/2000/svg">
<path fill-rule="evenodd" clip-rule="evenodd" d="M12 2.17391C6.57321 2.17391 2.17391 6.57321 2.17391 12C2.17391 17.4268 6.57321 21.8261 12 21.8261C17.4268 21.8261 21.8261 17.4268 21.8261 12C21.8261 6.5732 17.4268 2.17391 12 2.17391ZM0 12C0 5.37259 5.37259 0 12 0C18.6274 0 24 5.37259 24 12C24 18.6274 18.6274 24 12 24C5.37259 24 0 18.6274 0 12Z" fill="#36B37E"/>
<path fill-rule="evenodd" clip-rule="evenodd" d="M16.5287 7.47071C16.9532 7.89519 16.9532 8.58341 16.5287 9.00789L8.92 16.6166C8.60914 16.9275 8.14162 17.0204 7.73545 16.8522C7.32928 16.684 7.06445 16.2876 7.06445 15.848V11.7067C7.06445 11.1063 7.5511 10.6197 8.15141 10.6197C8.75172 10.6197 9.23836 11.1063 9.23836 11.7067V13.2238L14.9915 7.47071C15.416 7.04622 16.1042 7.04622 16.5287 7.47071Z" fill="#36B37E"/>
</svg>
