<svg width="17" height="16" viewBox="0 0 17 16" fill="none" xmlns="http://www.w3.org/2000/svg">
<path fill-rule="evenodd" clip-rule="evenodd" d="M0 3.59627C0 3.27127 0.263461 3.00781 0.588456 3.00781C7.43942 3.00781 12.9931 8.56146 12.9931 15.4124H12.4046V16.0009H0.588456C0.263461 16.0009 0 15.7374 0 15.4124V3.59627ZM11.801 14.824C11.505 9.09142 6.90947 4.49586 1.17691 4.19988V14.824H11.801Z" fill="#0F20E8"/>
<path fill-rule="evenodd" clip-rule="evenodd" d="M3.01367 0.588456C3.01367 0.263461 3.27713 0 3.60213 0C10.4531 0 16.0068 5.55365 16.0068 12.4046C16.0068 12.7296 15.7433 12.9931 15.4183 12.9931H12.0945C11.915 13.0187 11.7287 12.9605 11.5947 12.8263L11.5889 12.8204C11.497 12.7284 11.4404 12.6112 11.4227 12.4879C10.3752 8.61953 7.33 5.58724 3.45289 4.57074C3.19412 4.5029 3.01367 4.26904 3.01367 4.00153V0.588456ZM12.4541 11.8162H14.8147C14.5187 6.0836 9.92315 1.48805 4.19058 1.19207V3.55619C8.14631 4.75143 11.2526 7.86224 12.4541 11.8162Z" fill="#0F20E8"/>
</svg>
