<svg width="87" height="63" viewBox="0 0 87 63" fill="none" xmlns="http://www.w3.org/2000/svg">
<g opacity="0.2">
<path fill-rule="evenodd" clip-rule="evenodd" d="M0 4.32496C0 1.93635 1.94569 0 4.34581 0H91.6097C94.0099 0 95.9555 1.93635 95.9555 4.32496V69.675C95.9555 72.0637 94.0099 74 91.6097 74H4.34581C1.94569 74 0 72.0637 0 69.675V4.32496ZM8.69162 8.64992V65.3501H87.2639V8.64992H8.69162Z" fill="#0F20E8"/>
<path fill-rule="evenodd" clip-rule="evenodd" d="M95.2779 9.42123C96.6024 11.4132 96.0534 14.0966 94.0518 15.4147L50.3764 44.1758C48.9218 45.1337 47.0327 45.1332 45.5785 44.1747L1.9465 15.4136C-0.0545053 14.0946 -0.602214 11.411 0.723154 9.41958C2.04852 7.42818 4.74508 6.8831 6.74608 8.20211L47.9795 35.3821L89.2556 8.20101C91.2572 6.88292 93.9535 7.42923 95.2779 9.42123Z" fill="#0F20E8"/>
</g>
</svg>
