<svg width="12" height="12" viewBox="0 0 12 12" fill="none" xmlns="http://www.w3.org/2000/svg">
<path fill-rule="evenodd" clip-rule="evenodd" d="M5.99998 1.08696C3.28928 1.08696 1.08696 3.2893 1.08696 6.00002C1.08696 8.71073 3.28927 10.913 5.99998 10.913C8.71105 10.913 10.913 8.71581 10.913 6.00002C10.913 5.69986 11.1564 5.45654 11.4565 5.45654C11.7567 5.45654 12 5.69986 12 6.00002C12 9.31683 9.31065 12 5.99998 12C2.68896 12 0 9.31104 0 6.00002C0 2.689 2.68896 0 5.99998 0C6.62568 0 7.23525 0.0953322 7.80496 0.275239C8.09118 0.365624 8.24993 0.670926 8.15955 0.957148C8.06916 1.24337 7.76386 1.40213 7.47764 1.31174C7.01473 1.16556 6.51559 1.08696 5.99998 1.08696Z" fill="white"/>
<path fill-rule="evenodd" clip-rule="evenodd" d="M11.3891 1.75042C11.6017 1.96235 11.6022 2.30646 11.3903 2.51901L5.82507 8.10054C5.72052 8.20539 5.57772 8.26305 5.42968 8.26018C5.28164 8.25731 5.14117 8.19416 5.04077 8.08534L3.74484 6.68074L1.55792 8.92742C1.34856 9.14251 1.00448 9.14714 0.789395 8.93778C0.574313 8.72842 0.569675 8.38434 0.779037 8.16926L3.36596 5.51164C3.47003 5.40473 3.61348 5.3453 3.76267 5.3473C3.91186 5.34929 4.05367 5.41253 4.15484 5.52219L5.45542 6.93182L10.6206 1.75154C10.8325 1.53899 11.1766 1.53849 11.3891 1.75042Z" fill="white"/>
<path fill-rule="evenodd" clip-rule="evenodd" d="M8.74414 2.13527C8.74414 1.83512 8.98746 1.5918 9.28762 1.5918H11.005C11.3051 1.5918 11.5485 1.83512 11.5485 2.13527C11.5485 2.43543 11.3051 2.67875 11.005 2.67875H9.28762C8.98746 2.67875 8.74414 2.43543 8.74414 2.13527Z" fill="white"/>
<path fill-rule="evenodd" clip-rule="evenodd" d="M11.0054 1.5918C11.3055 1.5918 11.5489 1.83512 11.5489 2.13527V3.85812C11.5489 4.15828 11.3055 4.4016 11.0054 4.4016C10.7052 4.4016 10.4619 4.15828 10.4619 3.85812V2.13527C10.4619 1.83512 10.7052 1.5918 11.0054 1.5918Z" fill="white"/>
</svg>
