<svg width="12" height="12" viewBox="0 0 12 12" fill="none" xmlns="http://www.w3.org/2000/svg">
<path fill-rule="evenodd" clip-rule="evenodd" d="M5.99998 1.08696C3.28659 1.08696 1.08696 3.28662 1.08696 6.00002C1.08696 8.71341 3.28659 10.913 5.99998 10.913C8.71338 10.913 10.913 8.71341 10.913 6.00002C10.913 3.28662 8.71338 1.08696 5.99998 1.08696ZM0 6.00002C0 2.68632 2.68627 0 5.99998 0C9.31369 0 12 2.68631 12 6.00002C12 9.31373 9.31368 12 5.99998 12C2.68628 12 0 9.31372 0 6.00002Z" fill="white"/>
<path fill-rule="evenodd" clip-rule="evenodd" d="M5.22723 7.89859C5.22093 8.16602 4.99903 8.3777 4.7316 8.3714L3.20144 8.33533C2.93401 8.32903 2.72232 8.10712 2.72863 7.83969C2.73493 7.57226 2.95684 7.36058 3.22427 7.36688L4.75443 7.40295C5.02185 7.40926 5.23354 7.63116 5.22723 7.89859Z" fill="white"/>
<path fill-rule="evenodd" clip-rule="evenodd" d="M3.20132 8.33624C2.9339 8.32994 2.72221 8.10803 2.72852 7.84061L2.76458 6.31045C2.77089 6.04302 2.99279 5.83133 3.26022 5.83764C3.52765 5.84394 3.73933 6.06584 3.73303 6.33327L3.69696 7.86343C3.69066 8.13086 3.46875 8.34255 3.20132 8.33624Z" fill="white"/>
<path fill-rule="evenodd" clip-rule="evenodd" d="M3.55844 7.71867C3.37282 7.52605 3.3785 7.21943 3.57112 7.03381L6.49111 4.2199C6.58501 4.12941 6.71144 4.08061 6.84179 4.08454C6.97215 4.08846 7.09541 4.14479 7.18369 4.24077L8.37033 5.53087L10.3063 3.57218C10.4943 3.38193 10.801 3.38014 10.9913 3.56818C11.1815 3.75623 11.1833 4.0629 10.9953 4.25315L8.70222 6.57312C8.60911 6.66733 8.48147 6.71929 8.34904 6.71692C8.2166 6.71454 8.09092 6.65803 8.00124 6.56054L6.80633 5.26145L4.24331 7.73135C4.05069 7.91697 3.74407 7.91129 3.55844 7.71867Z" fill="white"/>
</svg>
