<svg width="83" height="117" viewBox="0 0 83 117" fill="none" xmlns="http://www.w3.org/2000/svg">
<path d="M16.771 74.7694L78.1341 103.613C78.8511 104.018 78.8511 104.963 78.1341 105.287L64.0379 115.59C63.091 116.171 62.1305 116.279 61.1835 115.887L0.537323 87.4491C-0.179665 87.044 -0.179665 86.0988 0.537323 85.7747L15.5805 74.9179C15.8105 74.6613 16.2975 74.6073 16.771 74.7964V74.7694Z" fill="#CFD2FA"/>
<path d="M3.86464 69.6898V34.1758L34.668 48.827C34.668 64.545 17.4738 76.1445 3.86464 69.6898Z" fill="white"/>
<path d="M14.1438 72.665C17.9722 72.2599 21.5301 70.95 25.1285 68.6679C32.0549 64.1308 36.1133 56.5554 36.1133 48.6963C36.1133 48.2102 35.8833 48.0077 35.6263 47.7781L4.82294 33.1269C4.33593 32.9513 4.10595 32.9648 3.63247 33.2484C3.14546 33.532 3.14546 34.0181 3.14546 34.2612V69.7752C3.14546 70.2613 3.37543 70.4639 3.63247 70.6935C6.74392 72.2734 10.3153 73.0971 14.1302 72.6919L14.1573 72.665H14.1438ZM33.4888 49.4255C33.2589 56.1097 29.6604 62.4698 23.7081 66.6559C17.7422 70.6124 10.8159 71.5982 4.84999 68.8705V35.9761L33.4888 49.4255Z" fill="#0F20E8"/>
<path d="M34.6787 48.5681L50.1953 38.1164L19.162 23.4922L3.87532 33.9168L34.6787 48.5681Z" fill="white"/>
<path d="M34.6832 49.7629C34.9131 49.7359 35.1702 49.7089 35.1702 49.4793L50.6868 39.0277C51.1738 38.7441 51.1738 38.2579 51.1738 38.0284C51.1738 37.7988 50.9439 37.3397 50.6868 37.1102L19.8835 22.4589C19.3965 22.2834 19.1665 22.2969 18.693 22.5804L3.17636 33.0321C2.68935 33.3157 2.45938 34.0719 2.68935 34.7606C2.68935 34.9901 2.91933 35.2197 3.17636 35.1927L33.9797 49.8439L34.6967 49.7629V49.7359L34.6832 49.7629ZM47.8054 38.393L34.6832 47.3998L6.27428 33.9234L19.3965 24.9165L47.8054 38.393Z" fill="#0F20E8"/>
<path d="M50.1953 38.1172L34.6787 48.5689C34.6787 56.6844 30.1468 63.8277 23.6939 67.8383C36.8161 61.9373 49.2484 49.19 50.1953 38.1172Z" fill="#6F79F1"/>
<path d="M23.695 69.0257L24.182 68.9717C36.8442 63.3408 50.4534 50.0129 51.4004 37.9813C51.4004 37.4952 51.1704 37.0631 50.9134 36.8335C50.4264 36.658 49.9664 36.6985 49.7229 36.9551L34.2063 47.4067C33.7193 47.6903 33.7193 48.1764 33.7193 48.406C33.7193 55.8059 29.8908 62.3955 23.4515 66.6491C22.9645 66.9327 22.7345 67.6889 22.9645 68.3776C22.9645 68.8637 23.1944 69.0662 23.6814 69.0122H23.7085L23.695 69.0257ZM48.5189 40.4524C46.8414 47.7713 39.9286 56.1299 31.3248 62.0444C33.9492 58.1825 35.6267 53.7263 35.8567 48.9326L48.5189 40.4524Z" fill="#0F20E8"/>
<path d="M3.86464 33.9211L34.668 48.5723V13.0582C21.0588 6.6171 3.86464 18.1896 3.86464 33.9211Z" fill="white"/>
<path d="M34.6803 49.7685C34.9103 49.7415 35.1673 49.7145 35.1673 49.4849C35.6543 49.2014 35.6543 48.7152 35.6543 48.4722V12.9581C35.6543 12.472 35.4243 12.2694 35.1673 12.0399C28.2409 8.71802 20.1241 9.56874 13.4277 14.322C6.50139 18.8591 2.44297 26.4345 2.44297 34.2936C2.44297 34.7797 2.67295 34.9822 2.92999 35.1848L33.7333 49.836L34.6803 49.7415V49.7685ZM33.4898 13.9033V46.7977L5.08094 33.3213C5.31091 26.6371 8.90937 20.277 14.8617 16.0909C20.5976 12.1614 27.5239 11.1757 33.4898 13.9033Z" fill="#0F20E8"/>
<path d="M34.6787 13.0601L50.1953 2.37891V38.1225L34.6787 48.5741V13.0601Z" fill="#CFD2FA"/>
<path d="M34.6832 49.772C34.9131 49.745 35.1702 49.718 35.1702 49.4884L50.6868 39.0368C51.1738 38.7532 51.1738 38.2671 51.1738 38.024V2.50995C51.1738 2.02382 50.9439 1.82128 50.6868 1.59172C50.1998 1.41618 49.9698 1.42968 49.4964 1.71325L33.9797 12.1649C33.4927 12.4485 33.4927 12.9346 33.4927 13.1777V48.6917C33.4927 48.9213 33.4927 49.1778 33.7227 49.1508L34.4397 49.7855L34.6696 49.7585H34.6967L34.6832 49.772ZM49.0093 37.5379L35.8872 46.5447V13.6503L49.0093 4.64351V37.5379Z" fill="#0F20E8"/>
<path d="M50.1953 2.3819L34.6787 12.8336C27.5223 9.53876 19.649 11.0781 13.4261 15.5478C23.9239 5.62273 40.1575 -1.07496 50.1953 2.40893V2.3819Z" fill="white"/>
<path d="M13.4312 16.7143C13.6612 16.6873 13.9182 16.6603 14.1482 16.4037C20.3711 11.9341 27.7574 10.9348 34.2103 13.8246C34.6973 14.0001 34.9273 13.9866 35.4008 13.703L50.9174 3.25138C51.4044 2.96781 51.6344 2.46816 51.4044 2.00905C51.1745 1.54993 51.1745 1.0638 50.6874 1.11781C39.7027 -2.97373 22.752 4.76376 12.7142 14.6348C12.2272 14.9184 12.2272 15.6476 12.4843 16.0797L13.2013 16.7143L13.4312 16.6873V16.7143ZM47.3325 2.9138L34.6703 11.6235C30.6118 9.90856 26.08 9.42244 21.5481 10.6107C30.3954 4.66922 40.4061 1.71198 47.3325 2.90028V2.92727V2.9138Z" fill="#0F20E8"/>
<path d="M34.6817 13.0703V48.5843C34.6817 70.5139 46.3834 89.7834 65.485 98.7496V63.2356C65.715 41.279 53.7833 22.0366 34.6817 13.0703Z" fill="white"/>
<path d="M65.7198 100.13C65.9498 100.103 66.2068 100.076 66.2068 99.846C66.6939 99.5624 66.9238 99.0628 66.9238 98.5767V63.0626C66.9238 40.6604 54.7486 21.202 35.4035 12.0331C34.9165 11.8576 34.6865 11.8711 34.213 12.1547C33.726 12.4382 33.726 12.9109 33.726 13.1539V48.668C33.726 71.0702 45.9013 90.5287 65.2463 99.6975C65.2463 99.9271 65.4763 100.157 65.7334 100.13H65.7198ZM35.877 15.0714C53.5446 24.1862 64.2859 42.5914 64.2859 63.3192V96.9158C46.6182 87.801 35.877 69.3958 35.877 48.668V15.0714Z" fill="#0F20E8"/>
<path d="M50.2006 2.375L34.6839 13.0562C53.799 22.009 65.4873 41.2919 65.4873 63.2215V98.7355L81.0039 88.0543V52.5403C81.0039 30.6107 69.3022 11.5843 50.2006 2.375Z" fill="#CFD2FA"/>
<path d="M65.7149 100.14C65.9449 100.113 66.2019 100.086 66.4319 99.8293L81.9485 89.148C82.4355 88.8645 82.4355 88.3783 82.4355 88.1353V52.6212C82.4355 30.2055 70.2603 10.7606 50.9152 1.59172C50.4282 1.41618 50.1982 1.42968 49.7112 1.71325L34.1946 12.3945C33.7076 12.678 33.7076 13.1642 33.7076 13.3937C33.7076 13.8798 33.9375 14.0824 34.1946 14.312C52.8227 23.0892 64.5244 41.886 64.5244 63.559V99.0731C64.5244 99.5592 64.7544 99.7617 65.2414 99.9643C65.2414 99.9643 65.4714 100.167 65.7284 100.14H65.7149ZM79.8111 87.7031L66.6889 96.71V63.0999C66.6889 41.3998 55.2171 22.36 36.8461 12.8401L49.9683 3.8333C68.3393 12.8671 79.5811 31.4748 79.5811 52.6887L79.8111 87.6897V87.7031Z" fill="#0F20E8"/>
<path d="M36.3581 67.7C37.7921 67.5514 38.7526 66.7413 39.6995 65.4449C40.4165 64.4052 40.6465 62.9603 40.6465 61.2994C40.6465 60.8132 40.4165 60.3541 39.9295 60.4081L26.8073 54.156C26.5773 54.183 26.3203 53.9805 26.3203 53.9805C26.0903 54.0075 25.8333 54.0345 25.6033 54.2911C25.1163 54.5746 25.1163 55.0608 25.1163 55.5334C25.1163 57.2078 25.3463 58.6122 26.0633 60.1921C26.7803 61.772 27.4972 63.1493 28.6877 64.2161C29.8917 65.5124 31.0822 66.3496 32.2726 66.9438C33.4631 67.5244 34.8971 67.862 35.8576 67.7675L36.3446 67.7135L36.3581 67.7Z" fill="white"/>
<path d="M26.323 55.4015C26.323 56.8329 26.553 58.2237 27.27 59.6011C27.757 60.9784 28.704 62.3017 29.6645 63.3955C30.6114 64.4893 31.8019 65.313 33.0059 65.8937C34.2099 66.4743 35.1433 66.6364 36.1173 66.5283L36.3473 66.5013C37.2943 66.4068 38.0248 65.8396 38.7418 64.8269C39.2288 64.0572 39.6887 62.8149 39.6887 61.397L26.3095 55.415L26.3366 55.388L26.323 55.4015ZM26.323 53.0114C26.81 52.9574 27.27 53.1464 27.5135 53.1194L40.6357 59.3715C41.3527 59.7766 41.8262 60.2087 41.8262 61.154V61.3835C41.8262 63.2875 41.3392 65.0159 40.6357 66.2718C39.6887 67.7976 38.2412 68.6619 36.5773 69.0805L36.0903 69.1345C34.6563 69.283 33.2359 68.9454 31.7884 68.3918C30.3544 67.5816 28.934 66.5553 27.73 65.232C26.526 63.9357 25.5925 62.3558 25.1055 60.7489C24.3885 59.169 24.1586 57.5216 24.1586 55.8336V55.604C23.9286 54.1997 24.8755 53.1329 26.296 52.9844V53.0114H26.323Z" fill="#0F20E8"/>
<path d="M21.0733 33.544C22.0203 33.4495 22.7508 32.8824 23.2108 32.1262C23.6978 31.3565 23.9277 30.6273 23.9277 29.4255C23.9277 28.4803 23.6978 27.5485 23.4407 26.6303C23.1837 25.7121 22.4938 25.0504 22.0068 24.1591C21.2898 23.5245 20.5728 22.8898 19.8693 22.4712C19.1523 22.0661 18.4354 21.9041 17.7319 21.9851L17.5019 22.0121C16.555 22.1066 15.8245 22.6738 15.3645 23.43C14.8775 24.1862 14.6475 24.9289 14.6475 26.1307C14.6475 27.0894 14.8775 28.0076 15.1345 28.9258C15.3645 29.8711 16.0815 30.5058 16.5685 31.397C17.2855 32.0317 18.0025 32.6663 18.7059 33.0849C19.4229 33.49 20.1399 33.652 20.8433 33.571L21.0733 33.544Z" fill="white"/>
<path d="M17.7297 23.4144C17.6305 23.4234 17.6305 23.4234 17.7297 23.4144C17.0127 23.4955 16.5392 23.7655 16.2957 24.2786C16.0658 24.7783 15.8087 25.2779 15.8087 26.2367C15.8087 26.9523 16.0387 27.8841 16.2957 28.5728C16.5257 29.2614 17.0127 29.9231 17.4862 30.5848C17.9732 31.2464 18.6902 31.6515 19.3937 32.0566C20.1106 32.2187 20.5841 32.4077 21.0711 32.3672L21.3011 32.3402C21.7881 32.2862 22.2481 32.0161 22.4916 31.503C22.7216 31.0034 22.9786 30.5038 22.9786 29.545C22.9786 28.8293 22.7486 27.8976 22.4916 27.2089C22.2616 26.5202 21.7746 25.8586 21.3011 25.1969C20.8141 24.5352 20.0971 24.1301 19.3937 23.725C18.6767 23.563 18.1897 23.3739 17.7162 23.4144H17.7297ZM17.7297 21.0243C18.6767 20.9298 19.6372 21.0513 20.5841 21.6725C21.5311 22.0506 22.2616 22.6852 22.9786 23.563C23.6956 24.4272 24.1691 25.3454 24.6561 26.2367C25.1431 27.1549 25.373 28.3027 25.373 29.2614C25.373 30.4632 25.1431 31.6786 24.4261 32.4618C23.7091 33.5015 22.5186 34.3387 21.3146 34.4602L21.0847 34.4873C20.1377 34.5818 19.1772 34.4602 18.2302 33.8256C17.2833 33.4475 16.5528 32.8128 15.8358 31.9351C15.1188 31.0439 14.6453 30.1527 14.1583 29.2344C13.6713 28.3432 13.4413 27.1684 13.4413 25.9801C13.4413 24.7918 13.6713 23.563 14.3883 22.7798C15.1053 21.74 16.2957 20.9028 17.4997 20.7812C17.2698 21.0378 17.4997 21.0108 17.7297 20.9838V21.0243Z" fill="#0F20E8"/>
<path d="M48.5323 44.9737C49.4793 44.8792 50.2098 44.312 50.6697 43.5558C51.1567 42.7861 51.3867 42.057 51.3867 40.8552C51.3867 39.8964 51.1567 38.9647 50.8997 38.06C50.6697 37.1147 49.9527 36.48 49.4657 35.5888C48.7488 34.9542 48.0318 34.3195 47.3283 33.9009C46.6113 33.4958 45.8943 33.3338 45.1909 33.4148L44.9609 33.4418C44.0139 33.5363 43.2834 34.1035 42.8235 34.8597C42.3365 35.6294 42.1065 36.3585 42.1065 37.5604C42.1065 38.5191 42.3365 39.4508 42.5935 40.3555C42.8235 41.3008 43.5405 41.9355 44.0275 42.8267C44.7445 43.4613 45.4614 44.096 46.1649 44.5146C46.8819 44.9197 47.5989 45.0817 48.3023 45.0007L48.5323 44.9737Z" fill="white"/>
<path d="M44.9465 34.8739C44.2295 34.9549 43.7425 35.225 43.5125 35.7381C43.2826 36.2378 43.0255 36.7509 43.0255 37.6961C43.0255 38.4118 43.2555 39.3435 43.5125 40.0322C43.7425 40.7209 44.2295 41.3825 44.703 42.0442C45.19 42.7059 45.8935 43.111 46.6105 43.5161C47.3274 43.6781 47.8144 43.8672 48.2879 43.8267L48.5179 43.7997C49.0049 43.7457 49.4649 43.4756 49.7084 42.9625C49.9384 42.4494 50.1954 41.9497 50.1954 41.0045C50.1954 40.2888 49.9654 39.357 49.7084 38.6684C49.4784 37.9797 48.9914 37.318 48.5179 36.6564C48.0309 35.9947 47.3139 35.5896 46.6105 35.1845C45.8935 35.0224 45.42 34.8334 44.933 34.8739H44.9465ZM44.9465 32.4838C45.8935 32.3893 46.854 32.5108 47.8009 33.1454C48.7479 33.5235 49.4784 34.1582 50.1954 35.0359C50.9124 35.9272 51.3859 36.8184 51.8729 37.7096C52.3599 38.6279 52.5898 39.7756 52.5898 40.7344C52.5898 41.9227 52.3599 43.1515 51.6429 43.9347C50.9259 44.9745 49.7354 45.8117 48.5314 45.9332L48.3015 45.9602C47.3545 46.0548 46.394 45.9332 45.447 45.2986C44.5001 44.9205 43.7696 44.2858 43.0526 43.4081C42.3356 42.5168 41.8621 41.6256 41.3751 40.7344C40.8881 39.8161 40.6581 38.6683 40.6581 37.48C40.6581 36.2917 40.8881 35.0629 41.6051 34.2797C42.3221 33.24 43.5125 32.4028 44.7165 32.2812C44.7165 32.5108 44.9465 32.4838 44.9465 32.4838Z" fill="#0F20E8"/>
</svg>
