<svg width="24" height="25" viewBox="0 0 24 25" fill="none" xmlns="http://www.w3.org/2000/svg">
<path fill-rule="evenodd" clip-rule="evenodd" d="M0 1.40728C0 0.806963 0.486651 0.320312 1.08696 0.320312C13.7417 0.320312 24.0002 10.5786 24.0002 23.2333C24.0002 23.8337 23.5135 24.3203 22.9132 24.3203C10.2585 24.3203 0 14.062 0 1.40728ZM21.7967 22.1168C11.2314 21.5564 2.76392 13.0891 2.20347 2.52378C12.7688 3.08422 21.2362 11.5516 21.7967 22.1168Z" fill="#0F20E8"/>
<path fill-rule="evenodd" clip-rule="evenodd" d="M12.0001 10.0704C10.7575 10.0704 9.7501 11.0778 9.7501 12.3205C9.7501 13.5631 10.7574 14.5703 12.0001 14.5703C13.2428 14.5703 14.2501 13.5631 14.2501 12.3205C14.2501 11.0778 13.2427 10.0704 12.0001 10.0704ZM7.57617 12.3205C7.57617 9.87726 9.5568 7.89648 12.0001 7.89648C14.4434 7.89648 16.4241 9.87725 16.4241 12.3205C16.4241 14.7639 14.4433 16.7443 12.0001 16.7443C9.55691 16.7443 7.57617 14.7639 7.57617 12.3205Z" fill="#0F20E8"/>
</svg>
