<svg width="11" height="14" viewBox="0 0 11 14" fill="none" xmlns="http://www.w3.org/2000/svg">
<path fill-rule="evenodd" clip-rule="evenodd" d="M0.546875 2.40476C0.546875 2.15209 0.751701 1.94727 1.00437 1.94727H10.1908C10.4435 1.94727 10.6483 2.15209 10.6483 2.40476C10.6483 2.65742 10.4435 2.86225 10.1908 2.86225H1.00437C0.751701 2.86225 0.546875 2.65742 0.546875 2.40476Z" fill="#3A3A3A"/>
<path fill-rule="evenodd" clip-rule="evenodd" d="M0.546875 6.99753C0.546875 6.74486 0.751701 6.54004 1.00437 6.54004H10.1908C10.4435 6.54004 10.6483 6.74486 10.6483 6.99753C10.6483 7.2502 10.4435 7.45502 10.1908 7.45502H1.00437C0.751701 7.45502 0.546875 7.2502 0.546875 6.99753Z" fill="#3A3A3A"/>
<path fill-rule="evenodd" clip-rule="evenodd" d="M0.546875 11.5962C0.546875 11.3435 0.751701 11.1387 1.00437 11.1387H10.1908C10.4435 11.1387 10.6483 11.3435 10.6483 11.5962C10.6483 11.8488 10.4435 12.0537 10.1908 12.0537H1.00437C0.751701 12.0537 0.546875 11.8488 0.546875 11.5962Z" fill="#3A3A3A"/>
<path d="M2.4045 3.80899C3.18018 3.80899 3.809 3.18017 3.809 2.40449C3.809 1.62881 3.18018 1 2.4045 1C1.62881 1 1 1.62881 1 2.40449C1 3.18017 1.62881 3.80899 2.4045 3.80899Z" fill="#F0F0F5"/>
<path fill-rule="evenodd" clip-rule="evenodd" d="M2.40496 1.45795C1.88194 1.45795 1.45795 1.88193 1.45795 2.40495C1.45795 2.92797 1.88194 3.35196 2.40496 3.35196C2.92797 3.35196 3.35197 2.92797 3.35197 2.40495C3.35197 1.88194 2.92798 1.45795 2.40496 1.45795ZM0.542969 2.40495C0.542969 1.3766 1.37661 0.542969 2.40496 0.542969C3.4333 0.542969 4.26695 1.37659 4.26695 2.40495C4.26695 3.4333 3.43331 4.26694 2.40496 4.26694C1.3766 4.26694 0.542969 3.4333 0.542969 2.40495Z" fill="#3A3A3A"/>
<path d="M5.59786 8.40178C6.37355 8.40178 7.00236 7.77296 7.00236 6.99728C7.00236 6.22159 6.37355 5.59277 5.59786 5.59277C4.82218 5.59277 4.19336 6.22159 4.19336 6.99728C4.19336 7.77296 4.82218 8.40178 5.59786 8.40178Z" fill="#F0F0F5"/>
<path fill-rule="evenodd" clip-rule="evenodd" d="M5.59832 6.05073C5.0753 6.05073 4.65131 6.47472 4.65131 6.99774C4.65131 7.52076 5.0753 7.94475 5.59832 7.94475C6.12134 7.94475 6.54533 7.52076 6.54533 6.99774C6.54533 6.47472 6.12134 6.05073 5.59832 6.05073ZM3.73633 6.99774C3.73633 5.96939 4.56997 5.13574 5.59832 5.13574C6.62668 5.13574 7.46031 5.96939 7.46031 6.99774C7.46031 8.02608 6.62668 8.85973 5.59832 8.85973C4.56997 8.85973 3.73633 8.02609 3.73633 6.99774Z" fill="#3A3A3A"/>
<path d="M8.78732 13.0004C9.563 13.0004 10.1918 12.3716 10.1918 11.5959C10.1918 10.8202 9.563 10.1914 8.78732 10.1914C8.01163 10.1914 7.38281 10.8202 7.38281 11.5959C7.38281 12.3716 8.01163 13.0004 8.78732 13.0004Z" fill="#F0F0F5"/>
<path fill-rule="evenodd" clip-rule="evenodd" d="M8.78582 10.6484C8.26281 10.6484 7.83881 11.0724 7.83881 11.5954C7.83881 12.1184 8.2628 12.5424 8.78582 12.5424C9.30884 12.5424 9.73283 12.1184 9.73283 11.5954C9.73283 11.0724 9.30884 10.6484 8.78582 10.6484ZM6.92383 11.5954C6.92383 10.567 7.75747 9.7334 8.78582 9.7334C9.81418 9.7334 10.6478 10.567 10.6478 11.5954C10.6478 12.6237 9.81417 13.4574 8.78582 13.4574C7.75748 13.4574 6.92383 12.6237 6.92383 11.5954Z" fill="#3A3A3A"/>
</svg>
