<svg width="10" height="12" viewBox="0 0 10 12" fill="none" xmlns="http://www.w3.org/2000/svg">
<path fill-rule="evenodd" clip-rule="evenodd" d="M2.79688 1.99973C2.79688 1.7712 2.97579 1.58594 3.19648 1.58594L8.60319 1.58594C8.82388 1.58594 9.0028 1.7712 9.0028 1.99973C9.0028 2.22826 8.82388 2.41352 8.60319 2.41352H3.19648C2.97579 2.41352 2.79688 2.22826 2.79688 1.99973Z" fill="#AEAEAE"/>
<path fill-rule="evenodd" clip-rule="evenodd" d="M5.51758 6.15598C5.51758 5.92745 5.69649 5.74219 5.91719 5.74219H8.60333C8.82403 5.74219 9.00294 5.92745 9.00294 6.15598C9.00294 6.38451 8.82403 6.56977 8.60333 6.56977H5.91719C5.69649 6.56977 5.51758 6.38451 5.51758 6.15598Z" fill="#AEAEAE"/>
<path fill-rule="evenodd" clip-rule="evenodd" d="M0.179688 6.15598C0.179688 5.92745 0.358599 5.74219 0.579296 5.74219H3.19674C3.41744 5.74219 3.59635 5.92745 3.59635 6.15598C3.59635 6.38451 3.41744 6.56977 3.19674 6.56977H0.579296C0.358599 6.56977 0.179688 6.38451 0.179688 6.15598Z" fill="#AEAEAE"/>
<path fill-rule="evenodd" clip-rule="evenodd" d="M0.179688 10.3122C0.179688 10.0837 0.358599 9.89844 0.579297 9.89844H5.99401C6.2147 9.89844 6.39362 10.0837 6.39362 10.3122C6.39362 10.5408 6.2147 10.726 5.99401 10.726H0.579297C0.358599 10.726 0.179688 10.5408 0.179688 10.3122Z" fill="#AEAEAE"/>
<path fill-rule="evenodd" clip-rule="evenodd" d="M1.80219 1.14399C1.34534 1.14399 0.974999 1.52748 0.974999 2.00053C0.974999 2.4736 1.34534 2.85709 1.80219 2.85709C2.25903 2.85709 2.62938 2.47359 2.62938 2.00053C2.62938 1.52748 2.25904 1.14399 1.80219 1.14399ZM0.175781 2.00053C0.175781 1.07041 0.903949 0.316406 1.80219 0.316406C2.70042 0.316406 3.4286 1.07041 3.4286 2.00053C3.4286 2.93066 2.70043 3.68468 1.80219 3.68468C0.903944 3.68468 0.175781 2.93066 0.175781 2.00053Z" fill="#AEAEAE"/>
<path fill-rule="evenodd" clip-rule="evenodd" d="M4.59126 5.29634C4.13441 5.29634 3.76406 5.67983 3.76406 6.15289C3.76406 6.62595 4.13441 7.00945 4.59126 7.00945C5.0481 7.00945 5.41844 6.62595 5.41844 6.15289C5.41844 5.67983 5.0481 5.29634 4.59126 5.29634ZM2.96484 6.15289C2.96484 5.22277 3.69301 4.46875 4.59126 4.46875C5.4895 4.46875 6.21766 5.22277 6.21766 6.15289C6.21766 7.08301 5.4895 7.83703 4.59126 7.83703C3.69301 7.83703 2.96484 7.08301 2.96484 6.15289Z" fill="#AEAEAE"/>
<path fill-rule="evenodd" clip-rule="evenodd" d="M7.37641 9.45649C6.91957 9.45649 6.54922 9.83999 6.54922 10.313C6.54922 10.7861 6.91956 11.1696 7.37641 11.1696C7.83326 11.1696 8.2036 10.7861 8.2036 10.313C8.2036 9.83998 7.83325 9.45649 7.37641 9.45649ZM5.75 10.313C5.75 9.38292 6.47817 8.62891 7.37641 8.62891C8.27466 8.62891 9.00282 9.38293 9.00282 10.313C9.00282 11.2432 8.27465 11.9972 7.37641 11.9972C6.47818 11.9972 5.75 11.2432 5.75 10.313Z" fill="#AEAEAE"/>
</svg>
