<svg width="13" height="16" viewBox="0 0 13 16" fill="none" xmlns="http://www.w3.org/2000/svg">
<path fill-rule="evenodd" clip-rule="evenodd" d="M5.13679 1.33496C5.12689 1.36369 5.11645 1.40211 5.10776 1.45215C4.90751 2.6313 4.44226 3.69468 3.75496 4.64416L3.75438 4.64495C3.50868 4.98329 3.24499 5.32747 2.98665 5.66465C2.82602 5.87431 2.66746 6.08126 2.5166 6.28241L2.51397 6.28592L2.51396 6.28591C1.85861 7.14757 1.42375 8.04465 1.32762 9.07388L1.3275 9.07506C1.08412 11.6306 2.71507 13.9374 5.1972 14.5319C5.38047 14.5757 5.54981 14.6063 5.73738 14.6402C5.83254 14.6574 5.93239 14.6755 6.04114 14.6965H6.7632C6.88807 14.6708 7.01628 14.6476 7.13411 14.6262C7.19176 14.6158 7.24692 14.6058 7.29798 14.5961C7.485 14.5609 7.64592 14.526 7.79313 14.4797C9.85372 13.8138 11.0828 12.4407 11.4076 10.3409C11.7314 8.23806 10.865 6.56788 9.17681 5.19424C9.15358 5.97532 8.99429 6.74931 8.65517 7.48011C8.3975 8.04621 8.03169 8.58337 7.55391 8.98017C7.34425 9.1543 7.04838 9.17958 6.81221 9.04355C6.57604 8.90752 6.44946 8.6389 6.49487 8.37017C6.54995 8.0443 6.61041 7.73438 6.66923 7.43282C6.79001 6.81366 6.90391 6.22973 6.95028 5.61531C7.07388 3.91839 6.56331 2.4941 5.25077 1.41553L5.24901 1.41409L5.24901 1.41409C5.20382 1.37668 5.16617 1.3516 5.13679 1.33496ZM5.73287 15.9648C5.67587 15.9541 5.61579 15.9432 5.55366 15.9319C5.34399 15.8938 5.11091 15.8515 4.8938 15.7996L4.89356 15.7996C1.77083 15.0516 -0.273966 12.1447 0.0298248 8.95203C0.155327 7.60995 0.723455 6.48729 1.47511 5.49856C1.64399 5.27341 1.80879 5.05845 1.97082 4.8471C2.21857 4.52395 2.45984 4.20923 2.69936 3.87942C3.2761 3.08256 3.658 2.2042 3.82279 1.23312L3.82311 1.23123C3.90453 0.759861 4.15061 0.258267 4.67864 0.068802C5.20176 -0.1189 5.71124 0.104943 6.07921 0.40916C7.34768 1.45186 8.02181 2.76397 8.21349 4.22651C8.34158 4.09359 8.50972 3.98847 8.7196 3.936C8.89296 3.89266 9.09286 3.87509 9.28621 3.89219C9.46307 3.90783 9.72616 3.96047 9.9466 4.14039C11.9265 5.73094 13.1115 7.8413 12.6958 10.5398L12.6958 10.5402C12.2908 13.1584 10.6919 14.9135 8.19154 15.7208L8.18757 15.7221L8.18756 15.7221C7.96379 15.7927 7.74077 15.8392 7.53919 15.8771C7.46888 15.8904 7.40322 15.9023 7.34022 15.9137C7.21115 15.937 7.09322 15.9584 6.96922 15.9852C6.92387 15.995 6.8776 16 6.83121 16H5.9448C5.87061 16 5.79931 15.9876 5.73287 15.9648Z" fill="#0F20E8"/>
</svg>
