<svg width="344" height="376" viewBox="0 0 344 376" fill="none" xmlns="http://www.w3.org/2000/svg">
<g clip-path="url(#clip0_21546_4867)">
<path d="M0.638672 265.343L171.925 364.269L343.061 265.193C237.209 204.017 106.603 204.017 0.638672 265.343Z" fill="white"/>
<path d="M171.925 365.059C171.925 365.059 171.624 365.059 171.624 364.908L0.300502 265.983C0 265.832 0 265.682 0 265.381C0 265.08 0.150251 264.93 0.300502 264.742C106.152 203.567 237.66 203.567 343.512 264.742C343.812 264.892 343.812 265.193 343.812 265.381C343.812 265.569 343.662 265.832 343.512 265.983L172.225 364.908L171.925 365.059ZM2.17864 265.343L171.925 363.329L341.521 265.193C236.796 205.296 106.941 205.296 2.2162 265.343H2.17864Z" fill="#0F20E8"/>
<path d="M322.327 265.042C321.876 264.892 321.688 264.252 322.027 263.952C322.327 263.651 322.627 263.5 323.116 263.651L322.815 264.44L322.365 265.042H322.327Z" fill="#0F20E8"/>
<path d="M27.7596 261.62C27.4591 261.62 27.1586 261.47 27.1586 261.169C27.0083 260.868 27.1586 260.38 27.4591 260.079C27.4591 260.079 27.6093 260.079 27.6093 259.928C27.9098 259.778 28.3981 259.928 28.6986 260.229C28.9991 260.53 28.6986 261.019 28.3981 261.32L28.0976 260.68L28.2479 261.47C27.9474 261.47 27.7971 261.62 27.7971 261.62H27.7596ZM315.791 261.47C315.791 261.47 315.603 261.432 315.49 261.32L315.791 260.68L315.34 261.32L315.641 260.53L315.941 259.928C316.242 260.079 316.542 260.718 316.242 261.019C316.392 261.32 316.091 261.47 315.791 261.47ZM34.7838 258.048C34.4833 258.048 34.1828 257.898 33.995 257.597C33.8447 257.146 33.995 256.808 34.2955 256.507C34.596 256.356 35.2346 256.507 35.3848 256.808C35.5351 257.108 35.5351 257.597 35.0843 257.748H34.9341C34.9341 257.973 34.8965 258.048 34.7838 258.048ZM308.955 257.898C308.955 257.898 308.654 257.898 308.654 257.748L308.955 257.108L308.504 257.748C308.053 257.597 307.903 257.108 308.203 256.657C308.354 256.206 308.842 256.056 309.293 256.356C309.293 256.356 309.443 256.356 309.443 256.507C309.743 256.657 309.894 257.146 309.743 257.597C309.443 257.748 309.105 257.898 308.955 257.898ZM41.9583 254.627C41.6578 254.627 41.3573 254.476 41.1695 254.176C41.0192 253.724 41.1695 253.386 41.47 253.085C41.9207 252.935 42.409 253.085 42.5593 253.386C42.7095 253.687 42.5593 254.176 42.2588 254.326H42.1085C42.1085 254.627 41.9583 254.627 41.9583 254.627ZM301.78 254.627H301.329C300.879 254.476 300.728 253.988 301.029 253.536C301.179 253.085 301.667 252.897 302.118 253.236C302.569 253.386 302.757 253.875 302.569 254.326C302.268 254.476 301.968 254.627 301.78 254.627ZM49.1328 251.506C48.8323 251.506 48.5318 251.356 48.344 251.055C48.1937 250.604 48.344 250.265 48.7947 249.964C49.2455 249.814 49.7338 249.964 49.884 250.416C50.0343 250.867 49.884 251.205 49.5835 251.356H49.4333L49.1328 251.506ZM294.455 251.506H294.005C293.554 251.356 293.366 250.867 293.554 250.416C293.704 249.964 294.192 249.776 294.643 249.964C295.094 250.115 295.244 250.604 295.094 251.055C295.094 251.205 294.793 251.506 294.493 251.506H294.455ZM56.4575 248.536C56.157 248.536 55.8565 248.385 55.6687 248.084C55.5185 247.633 55.6687 247.295 56.1195 246.994H56.2697C56.7205 246.844 57.0585 246.994 57.2088 247.445C57.359 247.896 57.2088 248.235 56.758 248.385L56.4575 247.596L56.6078 248.385L56.4575 248.536ZM287.281 248.385H286.83C286.379 248.235 286.192 247.784 286.379 247.295C286.53 246.806 287.018 246.693 287.469 246.844C287.919 246.994 288.107 247.483 287.919 247.934C287.769 248.235 287.469 248.385 287.281 248.385ZM63.7823 245.753C63.4818 245.753 63.1813 245.603 62.9935 245.302C62.8432 244.851 62.9934 244.512 63.4442 244.362C63.895 244.212 64.3833 244.362 64.5335 244.813C64.6838 245.264 64.5335 245.603 64.233 245.753H63.7823ZM279.806 245.753H279.505L279.806 244.964L279.355 245.603C278.904 245.452 278.717 244.964 278.904 244.663C279.055 244.212 279.505 244.024 279.843 244.212H279.994C280.444 244.362 280.595 244.813 280.444 245.152C280.444 245.452 280.144 245.753 279.806 245.753ZM71.107 243.121C70.8065 243.121 70.506 242.971 70.3182 242.482C70.1679 242.031 70.4684 241.692 70.7689 241.542C71.2197 241.392 71.708 241.542 71.8583 241.993C72.0085 242.444 71.8583 242.783 71.4075 242.933H71.2573C71.2573 242.933 71.2197 243.084 71.107 243.084V243.121ZM272.481 243.121H272.181L272.481 242.332L272.181 242.971C271.73 242.82 271.542 242.332 271.73 242.031C271.88 241.58 272.331 241.392 272.669 241.58H272.819C273.27 241.73 273.42 242.219 273.27 242.52C273.12 242.82 272.819 243.159 272.481 243.159V243.121ZM78.582 240.79C78.2815 240.79 77.981 240.64 77.7932 240.188C77.6429 239.737 77.9434 239.399 78.2439 239.248H78.3942C78.8449 239.098 79.183 239.399 79.3333 239.7C79.4835 240.151 79.183 240.489 78.8825 240.64C78.8825 240.64 78.6947 240.79 78.582 240.79ZM265.006 240.64H264.856L265.006 239.85L264.706 240.489C264.255 240.339 264.067 239.85 264.255 239.549C264.405 239.098 264.856 238.91 265.194 239.098H265.344C265.795 239.248 265.983 239.7 265.795 240.038C265.645 240.489 265.344 240.677 265.006 240.677V240.64ZM86.2448 238.459C85.9443 238.459 85.6438 238.308 85.456 237.82C85.3057 237.368 85.6063 237.03 85.9068 236.88H86.057C86.5078 236.729 86.8458 237.03 86.9961 237.331C87.1463 237.782 86.8458 238.12 86.5453 238.271L86.2448 238.421V238.459ZM257.381 238.459H257.08C256.63 238.308 256.442 237.82 256.63 237.519C256.78 237.068 257.231 236.88 257.569 237.068C258.019 237.218 258.358 237.669 258.17 238.008C258.019 238.158 257.719 238.459 257.381 238.459ZM93.8701 236.428C93.5696 236.428 93.2691 236.278 93.0812 235.789C92.931 235.338 93.2315 235 93.6822 234.849H93.8325C94.2832 234.699 94.6213 235 94.7716 235.488C94.9218 235.977 94.6213 236.278 94.1706 236.428L94.0203 235.639V236.428H93.8701ZM249.718 236.428H249.418C248.967 236.278 248.779 235.789 248.967 235.488C249.117 235.037 249.418 234.849 249.906 235.037C250.357 235.188 250.695 235.639 250.544 235.977C250.394 236.128 250.244 236.428 249.756 236.428H249.718ZM101.495 234.548C101.195 234.548 100.894 234.248 100.706 233.909C100.556 233.458 100.857 233.12 101.307 232.969C101.758 232.819 102.247 233.12 102.247 233.571C102.397 234.022 102.096 234.36 101.796 234.511H101.495V234.548ZM242.093 234.548H241.943L242.093 233.759L241.792 234.548C241.342 234.398 241.154 234.097 241.154 233.608C241.304 233.157 241.604 233.007 242.093 233.007H242.243C242.694 233.157 242.882 233.458 242.882 233.947C242.882 234.248 242.581 234.586 242.093 234.586V234.548ZM109.158 232.969C108.858 232.969 108.557 232.668 108.369 232.33C108.369 231.879 108.52 231.54 108.97 231.39C109.421 231.24 109.909 231.54 109.909 231.992C110.06 232.443 109.759 232.781 109.459 232.932C109.459 232.781 109.308 232.932 109.158 232.932V232.969ZM234.468 232.819H234.317L234.468 232.029L234.167 232.819C233.716 232.819 233.378 232.368 233.528 231.879C233.528 231.428 233.979 231.24 234.468 231.24H234.618C235.069 231.39 235.256 231.691 235.256 232.18C235.106 232.631 234.806 232.819 234.468 232.819ZM116.971 231.428C116.671 231.428 116.37 231.127 116.182 230.788C116.182 230.337 116.333 229.999 116.783 229.848H116.934C117.384 229.848 117.722 229.999 117.873 230.488C118.023 230.939 117.722 231.277 117.272 231.428L117.121 230.638L116.971 231.428ZM226.692 231.428V230.638L226.392 231.428C225.941 231.428 225.603 230.976 225.753 230.488C225.753 230.036 226.204 229.698 226.692 229.848H226.842C227.293 229.848 227.631 230.3 227.481 230.788C227.481 231.089 227.18 231.428 226.692 231.428ZM124.747 230.187C124.446 230.187 123.958 229.886 123.958 229.548C123.958 229.096 124.108 228.758 124.559 228.608L124.859 229.397L124.709 230.187H124.747ZM218.879 230.187V229.397L218.578 230.187C218.128 230.187 217.79 229.736 217.977 229.247C217.977 228.796 218.428 228.457 218.917 228.608H219.067C219.518 228.608 219.856 229.059 219.668 229.548C219.668 229.848 219.367 230.187 218.879 230.187ZM132.522 229.096C132.222 229.096 131.733 228.796 131.733 228.495C131.733 228.044 131.884 227.705 132.334 227.555H132.485C132.935 227.555 133.273 227.856 133.424 228.156C133.574 228.457 133.123 228.946 132.823 229.096L132.672 228.307L132.522 229.096ZM211.066 229.096H210.765C210.315 229.096 209.977 228.645 210.127 228.156C210.127 227.705 210.578 227.367 211.066 227.555C211.517 227.555 211.855 228.006 211.855 228.495C211.855 228.796 211.554 229.096 211.066 229.096ZM140.298 228.156C139.997 228.156 139.509 227.856 139.509 227.555C139.509 227.104 139.809 226.765 140.147 226.615H140.298C140.748 226.615 141.086 226.916 141.086 227.404C141.086 227.893 140.786 228.194 140.298 228.194V228.156ZM203.253 228.156H202.952C202.502 228.156 202.164 227.705 202.314 227.216C202.314 226.765 202.765 226.427 203.253 226.577C203.704 226.577 204.042 227.028 204.042 227.517C203.891 227.818 203.741 228.119 203.253 228.119V228.156ZM148.073 227.555C147.622 227.555 147.284 227.254 147.284 226.765C147.284 226.276 147.585 225.976 148.073 225.976C148.561 225.976 149.012 226.276 149.012 226.765C149.012 227.254 148.862 227.555 148.411 227.555H148.111H148.073ZM195.44 227.555V226.765L195.29 227.555C194.839 227.555 194.501 227.104 194.501 226.765C194.501 226.314 194.801 225.976 195.29 225.976H195.44C195.891 225.976 196.229 226.427 196.229 226.765C196.229 227.216 195.778 227.555 195.44 227.555ZM155.849 227.104C155.398 227.104 155.06 226.803 155.06 226.314C155.06 225.825 155.36 225.524 155.849 225.524C156.337 225.524 156.788 225.825 156.788 226.314C156.788 226.803 156.637 227.104 156.149 227.104H155.849ZM187.477 226.953V226.164L187.326 226.953C186.876 226.953 186.537 226.652 186.537 226.164C186.537 225.675 186.838 225.374 187.326 225.374H187.477C187.927 225.374 188.265 225.825 188.265 226.164C188.265 226.615 187.965 226.953 187.477 226.953ZM163.774 226.803C163.324 226.803 162.986 226.502 162.986 226.013C162.986 225.524 163.286 225.224 163.774 225.224L163.925 226.013L163.774 226.803ZM179.663 226.803C179.025 226.803 178.724 226.502 178.724 226.013C178.724 225.524 179.025 225.224 179.513 225.224H179.663C180.114 225.224 180.452 225.524 180.452 226.013C180.452 226.314 180.152 226.803 179.663 226.803ZM171.7 226.652C171.062 226.652 170.761 226.352 170.761 225.863C170.761 225.374 171.062 225.073 171.55 225.073C172.038 225.073 172.339 225.374 172.339 225.863C172.339 226.352 172.188 226.652 171.738 226.652H171.7Z" fill="#0F20E8"/>
<path d="M20.7342 265.192C20.4337 265.192 20.1332 265.042 20.1332 264.741C19.9829 264.44 20.1332 263.952 20.4337 263.651C20.7342 263.5 21.3727 263.651 21.523 263.952C21.6732 264.252 21.6732 264.741 21.2225 265.042H21.0722C21.0722 265.042 20.922 265.192 20.7717 265.192H20.7342Z" fill="#0F20E8"/>
<path d="M171.926 364.268V375.21L343.062 276.284V265.192L171.926 364.268Z" fill="#6F79F1"/>
<path d="M171.925 375.962C171.925 375.962 171.625 375.962 171.625 375.812C171.324 375.662 171.324 375.361 171.324 375.21V364.269C171.324 363.968 171.474 363.818 171.625 363.667L342.911 264.742C343.212 264.591 343.362 264.591 343.7 264.742C344 264.892 344 265.193 344 265.381V276.322C344 276.623 343.85 276.774 343.7 276.924L172.263 376H171.963L171.925 375.962ZM172.714 364.72V373.932L342.46 275.796V266.584L172.714 364.72Z" fill="#0F20E8"/>
<path d="M171.925 364.268V375.21L0.638672 276.284V265.192L171.925 364.268Z" fill="#CFD2FA"/>
<path d="M171.925 375.962C171.925 375.962 171.624 375.962 171.624 375.812L0.300502 276.886C0 276.736 0 276.435 0 276.284V265.343C0 265.042 0.150251 264.892 0.300502 264.704C0.601005 264.553 0.751256 264.553 1.08932 264.704L172.376 363.629C172.676 363.78 172.676 364.08 172.676 364.231V375.172C172.676 375.473 172.526 375.624 172.376 375.774C172.15 375.887 172 375.924 171.925 375.924V375.962ZM1.38982 275.796L171.136 373.932V364.72L1.38982 266.621V275.833V275.796Z" fill="#0F20E8"/>
<path d="M217.752 234.136L249.379 252.372C250.469 253.011 250.469 254.552 249.379 255.192L135.452 321.029C133.273 322.27 130.643 322.27 128.427 321.029L96.7994 302.793C95.7101 302.192 95.7101 300.612 96.7994 299.973L210.727 234.136C212.906 232.895 215.535 232.895 217.752 234.136Z" fill="#CFD2FA"/>
<path d="M54.24 182.21C53.7892 182.21 53.4512 181.909 53.4512 181.42V181.27C53.4512 180.818 53.7517 180.48 54.24 180.48C54.7283 180.48 55.0288 180.781 55.0288 181.27V181.42C55.0288 181.721 54.7283 182.21 54.24 182.21ZM54.24 174.238C53.7892 174.238 53.4512 173.938 53.4512 173.449V173.298C53.4512 172.847 53.7517 172.509 54.24 172.509C54.7283 172.509 55.0288 172.81 55.0288 173.298V173.449C55.0288 173.75 54.7283 174.238 54.24 174.238ZM54.24 166.267C53.7892 166.267 53.4512 165.966 53.4512 165.478V165.327C53.4512 164.876 53.7517 164.538 54.24 164.538C54.7283 164.538 55.0288 164.838 55.0288 165.327V165.478C55.0288 165.778 54.7283 166.267 54.24 166.267ZM54.3902 158.146C53.9395 158.146 53.6014 157.845 53.6014 157.356V157.206C53.6014 156.754 54.0522 156.416 54.3902 156.416C54.841 156.416 55.1791 156.867 55.1791 157.206C55.1791 157.807 54.8786 158.146 54.3902 158.146ZM54.9912 150.174C54.5405 150.174 54.2024 149.874 54.2024 149.385V149.234C54.2024 148.783 54.6532 148.445 54.9912 148.595C55.442 148.595 55.7801 149.046 55.5923 149.385C55.7425 149.836 55.2918 150.174 54.9912 150.174ZM55.9303 142.391C55.4796 142.391 55.1415 141.94 55.1415 141.451V141.301C55.1415 140.85 55.5923 140.511 56.0806 140.699C56.5313 140.699 56.8694 141.15 56.6816 141.639V141.79C56.5313 142.09 56.2308 142.429 55.8928 142.429L55.9303 142.391ZM57.1699 134.42C56.5689 134.27 56.3811 133.969 56.3811 133.63V133.48C56.5313 133.029 56.8318 132.878 57.3201 132.878C57.7709 133.029 57.9211 133.33 57.9211 133.818C57.9211 134.119 57.6206 134.42 57.1323 134.42H57.1699ZM58.8978 126.787H58.7475C58.2968 126.637 58.1465 126.336 58.1465 125.847L58.9353 125.998L58.1465 125.697C58.2968 125.246 58.5973 125.095 59.0856 125.095C59.5363 125.246 59.6866 125.546 59.6866 126.035V126.186C59.5363 126.637 59.2358 126.787 58.8978 126.787ZM60.9262 119.004H60.7759C60.3252 118.854 60.1749 118.553 60.1749 118.064V117.914C60.3252 117.462 60.7759 117.312 61.114 117.462C61.5647 117.613 61.715 118.064 61.5647 118.402C61.715 118.854 61.4145 119.004 60.9637 119.004H60.9262ZM63.4053 111.522H63.1048C62.6541 111.371 62.5038 110.92 62.6541 110.582L63.4429 110.882L62.8419 110.431C62.9921 109.98 63.4429 109.83 63.7809 109.98C64.2317 110.13 64.3819 110.582 64.2317 110.92V111.07C64.0814 111.371 63.7809 111.522 63.4429 111.522H63.4053ZM66.2225 104.19H65.922C65.4713 104.039 65.321 103.588 65.4713 103.099V102.949C65.6215 102.498 66.0723 102.347 66.4103 102.498C66.8611 102.648 67.0113 103.099 66.8611 103.438V103.588C66.8611 104.039 66.5606 104.19 66.2601 104.19H66.2225ZM69.3402 96.8576H69.0397C68.7392 96.7072 68.4387 96.256 68.7392 95.7672V95.6168C68.8895 95.1656 69.3402 95.0152 69.8285 95.316C70.2793 95.4664 70.4296 95.9176 70.1291 96.4064V96.5568C70.1291 96.5568 69.6783 96.8576 69.3402 96.8576ZM301.103 92.496C300.652 92.496 300.314 92.1952 300.314 91.7064V91.556C300.314 91.1048 300.614 90.7664 301.103 90.7664C301.591 90.7664 301.891 91.0672 301.891 91.556V91.7064C301.891 92.1576 301.591 92.496 301.103 92.496ZM72.9087 89.676H72.6082C72.3077 89.5256 72.0072 89.0744 72.3077 88.736V88.5856C72.4579 88.2848 72.9087 88.1344 73.397 88.2848C73.6975 88.4352 73.8478 88.8864 73.6975 89.3752C73.5473 89.5256 73.2468 89.676 72.9087 89.676ZM301.103 84.5248C300.652 84.5248 300.314 84.224 300.314 83.7352V83.5848C300.314 83.1336 300.614 82.7952 301.103 82.7952C301.591 82.7952 301.891 83.096 301.891 83.5848V83.7352C301.891 84.1864 301.591 84.5248 301.103 84.5248ZM76.8152 82.7952C76.8152 82.7952 76.5147 82.7952 76.3645 82.6448C76.064 82.4944 75.9137 82.0432 76.064 81.5544L76.2142 81.404C76.3645 81.1032 76.8152 80.9528 77.3035 81.1032C77.604 81.2536 77.7543 81.7048 77.604 82.1936L77.4538 82.344C77.3035 82.6448 77.1533 82.7952 76.8528 82.7952H76.8152ZM301.103 76.5536C300.652 76.5536 300.314 76.2528 300.314 75.764C300.314 75.2752 300.614 74.9744 301.103 74.9744C301.591 74.9744 301.891 75.2752 301.891 75.764V75.9144C301.891 76.2152 301.591 76.516 301.103 76.516V76.5536ZM81.0223 75.952C81.0223 75.952 80.7218 75.952 80.5715 75.8016C80.271 75.5008 80.1208 75.012 80.4213 74.7112V74.5608C80.5715 74.26 81.2101 74.1096 81.5106 74.26C81.8111 74.4104 81.9613 75.0496 81.8111 75.3504L81.6608 75.5008C81.5106 75.952 81.3603 75.952 81.0598 75.952H81.0223ZM85.5298 69.4096C85.5298 69.4096 85.2293 69.4096 85.079 69.2592C84.7785 68.9584 84.6283 68.6576 84.9288 68.1688L85.079 68.0184C85.3795 67.7176 85.8679 67.5672 86.1684 67.868C86.4689 68.1688 86.6191 68.6576 86.3186 68.9584C86.1684 69.2592 85.8679 69.4096 85.5298 69.4096ZM301.103 68.62C300.652 68.62 300.314 68.3192 300.314 67.8304V67.68C300.314 67.2288 300.614 66.8904 301.103 66.8904C301.591 66.8904 301.891 67.1912 301.891 67.68V67.8304C301.891 68.2816 301.591 68.62 301.103 68.62ZM90.3754 63.0176C90.3754 63.0176 90.0749 63.0176 89.9246 62.8672C89.6241 62.5664 89.4739 62.0776 89.7744 61.7768L89.9246 61.6264C90.2251 61.3256 90.7135 61.3256 91.014 61.476C91.3145 61.7768 91.3145 62.2656 91.1642 62.5664C91.014 63.0176 90.7135 63.0176 90.3754 63.0176ZM301.103 60.6864C300.652 60.6864 300.314 60.3856 300.314 59.8968V59.7464C300.314 59.2952 300.614 58.9568 301.103 58.9568C301.591 58.9568 301.891 59.2576 301.891 59.7464V59.8968C301.891 60.348 301.591 60.6864 301.103 60.6864ZM95.5215 57.0768C95.5215 57.0768 95.221 57.0768 95.0707 56.9264C94.7702 56.6256 94.7702 56.1368 95.0707 55.836L95.221 55.6856C95.5215 55.3848 96.0098 55.3848 96.3103 55.6856C96.6108 55.9864 96.6108 56.4752 96.3103 56.776L96.1601 56.9264C96.1601 56.9264 95.8596 57.0768 95.5591 57.0768H95.5215ZM301.103 52.7152C300.652 52.7152 300.314 52.4144 300.314 51.9256V51.7752C300.314 51.324 300.614 50.9856 301.103 50.9856C301.591 50.9856 301.891 51.2864 301.891 51.7752V51.9256C301.891 52.3768 301.591 52.7152 301.103 52.7152ZM100.968 51.136C100.968 51.136 100.668 51.136 100.517 50.9856C100.217 50.6848 100.217 50.196 100.517 49.8952L100.668 49.7448C100.968 49.444 101.456 49.444 101.757 49.7448C102.057 50.0456 102.057 50.5344 101.757 50.8352C101.607 51.136 101.306 51.136 100.968 51.136ZM106.753 45.684C106.753 45.684 106.302 45.5336 106.152 45.3832C105.851 45.0824 105.851 44.5936 106.152 44.2928L106.302 44.1424C106.603 43.8416 107.091 43.8416 107.391 44.1424C107.692 44.4432 107.692 44.932 107.391 45.2328L107.241 45.3832C107.091 45.684 106.941 45.684 106.79 45.684H106.753ZM301.103 44.744C300.652 44.744 300.314 44.4432 300.314 43.9544V43.804C300.314 43.3528 300.614 43.0144 301.103 43.0144C301.591 43.0144 301.891 43.3152 301.891 43.804V43.9544C301.891 44.4056 301.591 44.744 301.103 44.744ZM112.838 40.3824C112.838 40.3824 112.387 40.232 112.237 40.0816C111.936 39.7808 111.936 39.292 112.237 38.9912L112.387 38.8408C112.688 38.54 113.176 38.6904 113.477 38.9912C113.777 39.292 113.627 39.7808 113.326 40.0816C113.176 40.3824 113.026 40.3824 112.875 40.3824H112.838ZM301.103 36.7728C300.652 36.7728 300.314 36.472 300.314 35.9832C300.314 35.4944 300.614 35.1936 301.103 35.1936C301.591 35.1936 301.891 35.4944 301.891 35.9832V36.1336C301.891 36.4344 301.591 36.7352 301.103 36.7352V36.7728ZM118.886 35.532C118.585 35.532 118.435 35.3816 118.285 35.2312C117.984 34.9304 118.134 34.4416 118.435 34.1408L118.585 33.9904C118.886 33.6896 119.374 33.84 119.674 34.1408C119.975 34.4416 119.825 34.9304 119.524 35.2312L119.374 35.3816C119.374 35.3816 119.073 35.532 118.923 35.532H118.886ZM125.421 30.8696C125.121 30.8696 124.971 30.7192 124.82 30.5688C124.52 30.268 124.67 29.7792 124.971 29.4784L125.121 29.328C125.421 29.0272 125.91 29.1776 126.21 29.4784C126.511 29.7792 126.361 30.268 126.06 30.5688C125.76 30.7192 125.609 30.8696 125.459 30.8696H125.421ZM301.065 28.8392C300.614 28.8392 300.276 28.5384 300.276 28.0496V27.8992C300.276 27.448 300.577 27.1096 301.065 27.1096C301.553 27.1096 301.854 27.4104 301.854 27.8992V28.0496C301.854 28.5008 301.553 28.8392 301.065 28.8392ZM132.108 26.508C131.807 26.508 131.657 26.3576 131.507 26.2072C131.356 25.9064 131.356 25.4176 131.657 25.1168L131.807 24.9664C132.108 24.816 132.596 24.816 132.896 25.2672C133.047 25.568 133.047 26.0568 132.596 26.3576C132.446 26.3576 132.295 26.508 132.145 26.508H132.108ZM138.794 22.4472C138.493 22.4472 138.343 22.2968 138.155 21.996C138.005 21.6952 138.155 21.2064 138.456 20.9056H138.606C138.907 20.7552 139.395 20.7552 139.695 21.2064C139.846 21.5072 139.846 21.996 139.395 22.2968L139.245 22.4472H138.794ZM298.548 22.2968C298.548 22.2968 298.248 22.2968 298.248 22.1464C297.947 21.996 297.647 21.3568 297.947 21.056C298.098 20.7552 298.586 20.4544 298.886 20.7552L299.037 20.9056C299.337 21.056 299.487 21.5072 299.337 21.996C299.187 22.1464 298.886 22.2968 298.548 22.2968ZM145.818 18.8752C145.518 18.8752 145.18 18.7248 145.18 18.424C145.029 18.1232 145.179 17.6344 145.48 17.3336L145.781 17.9352L145.63 17.1456C145.931 16.9952 146.419 17.1456 146.72 17.4464C146.87 17.7472 146.72 18.236 146.419 18.5368H146.269C146.269 18.5368 145.968 18.8376 145.818 18.8376V18.8752ZM291.562 18.7248C291.562 18.7248 291.261 18.7248 291.261 18.5744C290.961 18.424 290.66 17.9728 290.81 17.484C290.961 17.1832 291.449 16.8824 291.749 17.0328L291.9 17.1832C292.2 17.3336 292.35 17.7848 292.2 18.2736C292.2 18.5744 291.9 18.7248 291.599 18.7248H291.562ZM152.993 15.4536C152.692 15.4536 152.354 15.3032 152.204 15.0024C152.053 14.5512 152.204 14.2128 152.654 13.912L152.955 14.7016L152.805 13.912C153.255 13.7616 153.594 13.912 153.894 14.3632C154.044 14.8144 153.894 15.1528 153.443 15.4536H152.955H152.993ZM284.387 15.3032H284.087C283.786 15.1528 283.486 14.7016 283.636 14.2128C283.786 13.7616 284.274 13.6112 284.575 13.7616H284.725C285.176 13.912 285.364 14.3632 285.026 14.852C285.026 15.1528 284.725 15.3032 284.387 15.3032ZM160.468 12.4832C160.167 12.4832 159.867 12.3328 159.679 12.032C159.528 11.5808 159.679 11.2424 160.129 11.092L160.43 11.8816L160.28 11.092C160.73 10.9416 161.069 11.092 161.219 11.5432C161.369 11.9944 161.219 12.3328 160.768 12.4832H160.468ZM277.062 12.3328H276.762C276.311 12.1824 276.123 11.7312 276.311 11.2424C276.461 10.7912 276.762 10.6408 277.25 10.7912H277.4C277.851 10.9416 278.002 11.3928 277.851 11.8816C277.701 12.032 277.401 12.3328 277.062 12.3328ZM167.98 9.85119C167.68 9.85119 167.379 9.7008 167.191 9.4C167.041 8.9488 167.342 8.6104 167.642 8.46L167.943 9.2496L167.792 8.46C168.243 8.3096 168.581 8.45999 168.731 8.91119C168.882 9.36239 168.731 9.70079 168.281 9.85119H168.13H167.98ZM269.587 9.7008H269.287C268.836 9.5504 268.498 9.0992 268.648 8.7608C268.799 8.3096 269.099 8.1592 269.587 8.3096H269.738C270.188 8.46 270.339 8.9112 270.188 9.2496C270.188 9.4 269.888 9.7008 269.55 9.7008H269.587ZM175.455 7.52C175.155 7.52 174.854 7.3696 174.666 6.9184C174.516 6.4672 174.817 6.1288 175.305 5.9784L175.455 6.768V5.9784C175.906 5.828 176.244 6.1288 176.394 6.4296C176.544 6.7304 176.244 7.2192 175.943 7.3696H175.793C175.793 7.3696 175.605 7.52 175.493 7.52H175.455ZM261.962 7.3696H261.812C261.361 7.2192 261.023 6.768 261.211 6.4296C261.361 5.9784 261.662 5.828 262.15 5.828H262.3C262.751 5.9784 262.939 6.4296 262.751 6.768C262.601 7.0688 262.3 7.3696 261.962 7.3696ZM183.418 5.4896C183.118 5.4896 182.63 5.3392 182.63 4.888C182.479 4.4368 182.78 4.0984 183.08 3.948H183.231C183.681 3.7976 184.019 4.0984 184.17 4.5496C184.32 5.0008 184.019 5.3392 183.531 5.4896H183.381H183.418ZM254.337 5.3392H254.036C253.586 5.1888 253.398 4.888 253.398 4.3992C253.548 3.948 253.849 3.7976 254.337 3.7976L254.187 4.5872L254.487 3.7976C254.938 3.948 255.126 4.2488 255.126 4.7376C254.976 5.1888 254.675 5.3392 254.337 5.3392ZM191.194 3.948C190.893 3.948 190.405 3.6472 190.405 3.3464C190.405 2.8952 190.555 2.5568 191.044 2.4064H191.194C191.645 2.4064 191.983 2.5568 192.133 3.008C191.983 3.4592 191.682 3.948 191.194 3.948ZM246.524 3.948H246.223C245.773 3.948 245.435 3.4968 245.585 3.008C245.585 2.5568 246.036 2.2184 246.524 2.4064H246.674C247.125 2.4064 247.463 2.8576 247.313 3.3464C247.162 3.6472 246.862 3.948 246.524 3.948ZM198.819 2.8576C198.519 2.8576 198.03 2.5568 198.03 2.256C198.03 1.8048 198.331 1.4664 198.669 1.316C199.12 1.316 199.458 1.6168 199.608 1.9176C199.608 2.3688 199.458 2.7072 198.969 2.8576C199.12 2.8576 198.969 2.8576 198.819 2.8576ZM238.561 2.7072C238.11 2.7072 237.622 2.256 237.772 1.7672C237.772 1.316 238.072 0.977595 238.561 1.1656H238.711C239.162 1.1656 239.5 1.6168 239.349 2.1056C239.349 2.4064 239.049 2.7072 238.561 2.7072ZM206.782 2.1056C206.332 2.1056 205.994 1.8048 205.994 1.316C205.994 0.827195 206.294 0.526395 206.782 0.526395V1.2784L206.933 0.488795C207.383 0.488795 207.722 0.789595 207.722 1.2784C207.722 1.7672 207.421 2.068 206.933 2.068H206.782V2.1056ZM230.635 1.9552H230.485C230.034 1.9552 229.696 1.504 229.696 1.1656C229.696 0.714395 230.147 0.375995 230.485 0.375995V1.128L230.635 0.338395C231.086 0.338395 231.424 0.789595 231.424 1.128C231.424 1.5792 231.123 1.9176 230.635 1.9176V1.9552ZM214.746 1.6544C214.295 1.6544 213.957 1.3536 213.957 0.864795C213.957 0.375995 214.257 0.0751953 214.558 0.0751953H214.708C215.159 0.0751953 215.497 0.375995 215.497 0.864795C215.497 1.3536 215.197 1.6544 214.708 1.6544H214.746ZM222.709 1.6544C222.258 1.6544 221.77 1.3536 221.92 0.864795C221.92 0.413595 222.221 0.0751953 222.709 0.0751953H222.859C223.31 0.0751953 223.648 0.375995 223.648 0.864795C223.498 1.316 223.197 1.6544 222.709 1.6544Z" fill="#0F20E8"/>
<path d="M241.303 183.826L187.738 214.771C154.57 233.947 134.174 269.366 134.174 307.681L187.738 276.736C220.869 257.597 241.303 222.141 241.303 183.864V183.826Z" fill="white"/>
<path d="M134.174 309.072C133.911 309.072 133.686 308.996 133.498 308.884C133.047 308.658 132.747 308.207 132.709 307.718C132.784 268.877 153.519 233.044 187.1 213.605L240.664 182.773C241.341 182.397 242.167 182.623 242.543 183.262C242.655 183.488 242.73 183.713 242.73 183.939C242.693 222.704 221.996 258.575 188.49 278.014L134.925 308.846C134.7 308.959 134.474 309.034 134.249 309.034L134.174 309.072ZM239.876 186.27L188.415 216.087C156.486 234.586 136.465 268.388 135.564 305.312L187.025 275.495C218.953 256.996 238.974 223.193 239.838 186.27H239.876Z" fill="#0F20E8"/>
<path d="M107.393 292.189C107.43 253.913 127.864 218.569 160.957 199.43L214.522 168.485L241.304 183.977L187.739 214.809C154.571 233.947 134.175 269.404 134.175 307.718L107.393 292.227V292.189Z" fill="#6F79F1"/>
<path d="M134.174 309.072C133.911 309.072 133.685 308.997 133.497 308.884L106.715 293.393C106.264 293.13 106.039 292.716 106.039 292.19C106.114 253.386 126.849 217.554 160.468 198.152L214.032 167.207C214.333 167.057 214.671 166.982 215.009 167.057C215.159 167.057 215.309 167.132 215.459 167.207L242.129 182.811C242.505 183.037 242.73 183.375 242.805 183.826C242.843 184.24 242.768 184.654 242.467 184.954C242.317 185.105 242.167 185.218 241.979 185.293L188.527 216.125C155.81 235.038 135.601 269.93 135.526 307.718C135.526 308.508 134.962 309.11 134.174 309.147H134.286L134.174 309.072ZM108.781 291.4L132.821 305.274C133.723 267.374 154.27 232.669 187.062 213.681L238.523 183.939L214.52 170.065L161.632 200.596C129.215 219.396 109.119 253.913 108.744 291.438L108.781 291.4Z" fill="#0F20E8"/>
<path d="M241.304 183.827L188.152 214.621V153.032C205.168 143.219 226.88 149.047 236.683 166.08C239.801 171.456 241.416 177.585 241.416 183.827H241.304Z" fill="white"/>
<path d="M188.151 216.087C187.888 216.087 187.663 216.05 187.475 215.899C187.062 215.636 186.799 215.223 186.799 214.696V152.995C186.799 152.506 187.062 152.055 187.475 151.791C205.092 141.564 227.705 147.505 237.959 165.177C241.227 170.855 242.993 177.247 242.955 183.789C242.955 184.278 242.692 184.767 242.279 184.992L188.79 215.749C188.79 215.749 188.414 216.012 188.226 216.05L188.151 216.087ZM189.541 153.972V212.252L240.025 183.112C239.575 164.237 223.948 149.31 205.092 149.761C199.645 149.911 194.311 151.303 189.541 153.935V153.972Z" fill="#0F20E8"/>
<path d="M161.408 137.654C172.189 131.337 185.524 131.224 196.417 137.391L223.387 152.957C212.456 146.603 198.971 146.603 188.04 152.957L161.408 137.654Z" fill="white"/>
<path d="M188.152 154.423C187.889 154.423 187.664 154.386 187.476 154.273L160.844 138.857C160.431 138.594 160.168 138.18 160.168 137.654C160.168 137.127 160.431 136.714 160.844 136.451C172.038 129.908 185.898 129.758 197.242 136.15L224.213 151.754C224.889 152.13 225.114 152.957 224.701 153.634C224.325 154.311 223.499 154.536 222.823 154.123C212.305 148.031 199.346 148.031 188.866 154.123C188.641 154.273 188.378 154.386 188.152 154.386V154.423ZM164.375 137.767L188.152 151.453C194.989 147.618 202.914 146.114 210.69 147.167L195.815 138.594C186.086 133.067 174.254 132.766 164.262 137.729H164.375V137.767Z" fill="#0F20E8"/>
<path d="M188.04 153.032V214.621L161.408 199.242V137.653L188.04 153.032Z" fill="#CFD2FA"/>
<path d="M188.152 216.087C187.889 216.087 187.664 216.049 187.476 215.899L160.844 200.521C160.431 200.257 160.168 199.844 160.168 199.317V137.616C160.168 136.826 160.807 136.225 161.558 136.225C161.821 136.225 162.046 136.262 162.234 136.413L188.866 151.791C189.317 152.054 189.542 152.468 189.542 152.994V214.583C189.542 215.072 189.279 215.523 188.866 215.786C188.678 215.937 188.415 216.049 188.19 216.087H188.152ZM162.91 198.528L186.762 212.402V154.122L162.91 140.248V198.528Z" fill="#0F20E8"/>
<path d="M134.588 245.378C134.588 207.289 154.909 172.058 187.852 153.032V214.621L134.588 245.415V245.378Z" fill="white"/>
<path d="M134.587 246.769C134.324 246.769 134.098 246.732 133.911 246.581C133.497 246.318 133.234 245.904 133.234 245.378C133.272 206.8 153.856 171.156 187.212 151.829C187.625 151.566 188.189 151.566 188.602 151.829C189.09 152.092 189.316 152.581 189.278 153.108V214.584C189.278 215.072 189.015 215.524 188.602 215.787L135.338 246.619C135.113 246.732 134.887 246.769 134.662 246.769H134.587ZM186.461 155.476C155.885 174.201 136.878 207.101 135.976 242.972L186.461 213.794V155.476Z" fill="#0F20E8"/>
<path d="M161.219 137.653L187.851 153.032C154.871 172.057 134.587 207.251 134.587 245.34L107.992 229.999C107.992 191.91 128.276 156.717 161.256 137.653H161.219Z" fill="#CFD2FA"/>
<path d="M134.588 246.656C134.325 246.656 134.099 246.619 133.912 246.506L107.43 231.165C106.942 230.94 106.604 230.488 106.604 229.924C106.641 191.422 127.15 155.815 160.431 136.488C160.844 136.225 161.408 136.225 161.821 136.488L188.49 151.867C189.054 152.243 189.317 152.957 189.054 153.596C188.941 153.86 188.716 154.123 188.49 154.273C155.961 173.073 135.865 207.778 135.79 245.378C135.79 245.867 135.527 246.356 135.114 246.581C134.963 246.619 134.813 246.619 134.625 246.619L134.588 246.656ZM109.346 229.097L133.236 242.972C134.099 206.124 153.632 172.246 185.11 153.07L161.22 139.196C129.329 157.996 109.646 192.174 109.346 229.21V229.097Z" fill="#0F20E8"/>
<path d="M183.08 253.462H182.404C180.226 253.311 178.235 252.146 177.07 250.341C175.756 248.198 175.155 245.754 175.267 243.272C175.267 242.783 175.53 242.294 175.943 242.031L200.171 228.157C200.397 228.006 200.622 227.969 200.848 227.969C201.073 227.969 201.336 228.006 201.524 228.157C201.974 228.42 202.2 228.834 202.2 229.36C202.2 232.293 201.599 235.263 200.547 238.008C199.42 240.866 197.918 243.535 195.964 245.904C194.124 248.198 191.908 250.153 189.391 251.657C187.475 252.822 185.297 253.462 183.043 253.499L183.08 253.462Z" fill="white"/>
<path d="M176.845 252.296C176.845 249.513 177.408 246.768 178.385 244.174C179.437 241.467 180.864 238.91 182.705 236.692C184.395 234.473 186.499 232.593 188.903 231.127C190.555 230.074 192.471 229.435 194.462 229.322H195.063C196.828 229.435 198.406 230.375 199.383 231.841C200.509 233.721 201.073 235.94 200.96 238.12L176.732 251.995M176.732 254.777C177.22 254.777 177.746 254.627 178.16 254.401L202.35 240.527C203.139 240.076 203.627 239.324 203.702 238.421V238.12C203.815 235.338 203.101 232.593 201.636 230.224C200.209 228.044 197.842 226.652 195.251 226.502H194.462C191.983 226.577 189.541 227.329 187.4 228.683C184.733 230.337 182.404 232.405 180.526 234.887C178.46 237.368 176.77 240.188 175.605 243.196C174.478 246.092 173.877 249.137 173.84 252.22C173.84 253.762 175.079 255.003 176.619 255.003L176.695 254.815L176.732 254.777Z" fill="#0F20E8"/>
<path d="M208.512 185.556C207.385 185.518 206.333 184.954 205.732 184.014C205.168 183.074 204.868 181.946 204.905 180.856C204.905 179.652 205.168 178.449 205.582 177.284C206.032 176.118 206.671 175.028 207.422 174.05C208.211 173.11 209.15 172.283 210.202 171.681C211.028 171.155 212.005 170.854 212.981 170.816H213.32C214.446 170.854 215.498 171.418 216.099 172.358C216.663 173.298 217.001 174.426 216.926 175.516C216.926 176.72 216.7 177.923 216.249 179.088C215.799 180.254 215.16 181.344 214.409 182.322C213.62 183.262 212.681 184.089 211.629 184.691C210.803 185.217 209.826 185.518 208.85 185.556H208.474H208.512Z" fill="white"/>
<path d="M213.094 172.245H213.319C213.995 172.245 214.596 172.621 214.972 173.185C215.385 173.9 215.611 174.727 215.573 175.554C215.573 176.607 215.385 177.622 214.972 178.6C214.596 179.615 214.033 180.555 213.319 181.382C212.681 182.209 211.892 182.924 210.953 183.45C210.314 183.864 209.563 184.089 208.812 184.127H208.624C207.948 184.089 207.347 183.751 206.971 183.187C206.52 182.472 206.333 181.645 206.37 180.78C206.37 179.728 206.595 178.712 206.971 177.735C207.347 176.72 207.91 175.78 208.624 174.952C209.262 174.125 210.051 173.411 210.953 172.884C211.591 172.508 212.343 172.245 213.094 172.208V172.245ZM213.094 169.463C211.854 169.463 210.615 169.839 209.563 170.478C208.361 171.192 207.309 172.132 206.445 173.26C205.544 174.351 204.868 175.554 204.379 176.832C203.891 178.148 203.628 179.502 203.59 180.893C203.553 182.284 203.929 183.676 204.68 184.841C205.506 186.082 206.896 186.909 208.398 187.022H208.812C210.051 187.022 211.291 186.646 212.343 186.007C213.545 185.292 214.634 184.352 215.46 183.224C216.324 182.134 217 180.931 217.526 179.615C218.015 178.336 218.315 176.983 218.315 175.592C218.353 174.2 217.977 172.809 217.226 171.644C216.399 170.403 215.047 169.576 213.545 169.463H213.094Z" fill="#0F20E8"/>
<path d="M164.187 207.138C163.06 207.101 162.046 206.537 161.407 205.597C160.844 204.657 160.506 203.529 160.581 202.438C160.581 201.235 160.806 200.032 161.257 198.866C161.708 197.701 162.346 196.61 163.097 195.633C163.886 194.693 164.825 193.865 165.877 193.226C166.703 192.737 167.68 192.437 168.657 192.361H168.995C170.122 192.361 171.173 192.963 171.774 193.903C172.338 194.843 172.638 195.933 172.601 197.024C172.601 198.227 172.375 199.43 171.925 200.596C171.474 201.761 170.835 202.889 170.084 203.829C169.295 204.769 168.356 205.559 167.304 206.198C166.478 206.725 165.501 207.025 164.525 207.063H164.187V207.138Z" fill="white"/>
<path d="M168.733 193.903H168.958C169.634 193.903 170.235 194.279 170.611 194.843C171.024 195.558 171.249 196.385 171.174 197.212C171.174 198.265 170.986 199.318 170.611 200.295C170.235 201.311 169.672 202.251 168.958 203.078C168.319 203.905 167.531 204.619 166.591 205.146C165.953 205.522 165.239 205.785 164.488 205.823H164.263C163.586 205.785 162.985 205.409 162.61 204.845C162.197 204.131 161.971 203.303 162.046 202.476C162.046 201.423 162.234 200.408 162.61 199.431C162.985 198.415 163.549 197.475 164.263 196.648C164.901 195.859 165.69 195.144 166.591 194.618C167.23 194.204 167.981 193.979 168.733 193.941V193.903ZM168.733 191.121C167.493 191.121 166.253 191.535 165.202 192.174C164 192.888 162.948 193.828 162.084 194.956C161.22 196.047 160.544 197.25 160.018 198.566C159.492 199.844 159.229 201.235 159.229 202.627C159.192 204.018 159.567 205.371 160.281 206.575C161.107 207.815 162.497 208.605 164 208.718H164.45C165.69 208.718 166.892 208.342 167.944 207.665C169.146 206.951 170.235 206.011 171.061 204.883C171.963 203.792 172.601 202.589 173.127 201.273C173.653 199.995 173.916 198.603 173.916 197.212C173.954 195.821 173.578 194.467 172.864 193.264C172 192.061 170.648 191.234 169.146 191.121H168.695H168.733Z" fill="#0F20E8"/>
<path d="M129.968 52.903C124.596 55.535 118.098 53.279 115.506 47.9022C114.68 46.1726 114.304 44.255 114.454 42.3374L115.844 23.6126C121.253 21.0182 127.714 23.2742 130.306 28.651C131.132 30.343 131.508 32.2606 131.358 34.1782L129.968 52.903Z" fill="white"/>
<path d="M128.765 53.9184C122.83 55.8736 116.407 52.6024 114.491 46.6616C114.041 45.2704 113.853 43.804 113.966 42.3376L115.355 23.6128C115.355 23.6128 115.468 23.312 115.581 23.2368C121.178 20.492 127.976 22.8232 130.719 28.4632C131.582 30.268 131.996 32.2608 131.845 34.2536L130.456 52.9784C130.456 52.9784 130.343 53.3168 130.193 53.392C129.742 53.6176 129.291 53.8056 128.803 53.956L128.765 53.9184ZM116.294 23.9512L114.942 42.3752C114.529 48.0904 118.774 53.0536 124.483 53.4672C126.211 53.58 127.939 53.2792 129.479 52.5648L130.831 34.1032C131.244 28.388 126.962 23.4248 121.253 23.0112C119.525 22.8984 117.835 23.1992 116.257 23.876L116.294 23.9512Z" fill="#0F20E8"/>
<path d="M114.454 42.3374L115.844 23.6126L108.068 18.3486L106.378 36.8478C106.078 40.7206 107.881 44.4806 111.111 46.6238L119.037 52.0382C115.882 49.8574 114.154 46.1726 114.454 42.375V42.3374Z" fill="#6F79F1"/>
<path d="M119.188 52.4899C119.188 52.4899 118.887 52.4899 118.737 52.4147L110.811 47.0003C107.43 44.7443 105.515 40.8339 105.853 36.7731L107.543 18.2739C107.543 18.2739 107.656 17.9731 107.806 17.8603C107.956 17.7851 108.144 17.8227 108.294 17.8979L116.07 23.1619C116.07 23.1619 116.295 23.4251 116.295 23.6131L114.905 42.3379C114.605 45.9851 116.295 49.4819 119.3 51.5875C119.526 51.7379 119.563 52.0387 119.413 52.2643C119.375 52.3395 119.263 52.4147 119.188 52.4523V52.4899ZM108.482 19.2139L106.867 36.8859C106.567 40.5707 108.294 44.1427 111.412 46.2107L115.619 49.0683C114.38 47.0379 113.779 44.6691 113.966 42.3003L115.319 23.8387L108.482 19.1763V19.2139Z" fill="#0F20E8"/>
<path d="M119.488 52.6774C119.488 52.6774 119.187 52.6774 119.037 52.6022C118.812 52.4518 118.737 52.151 118.887 51.8878C118.999 51.6622 119.3 51.587 119.488 51.7374C119.488 51.7374 119.713 51.963 119.751 52.151C119.751 52.339 119.676 52.527 119.488 52.6022V52.6774Z" fill="#0F20E8"/>
<path d="M115.805 23.6131C119.186 21.9587 123.168 22.1843 126.323 24.2523L118.51 18.9507C115.392 16.7699 111.335 16.5443 107.992 18.3115L115.768 23.5755L115.805 23.6131Z" fill="white"/>
<path d="M126.512 24.7036C126.512 24.7036 126.249 24.7036 126.137 24.6284C123.132 22.6732 119.3 22.4476 116.07 24.0268C115.919 24.102 115.732 24.102 115.581 24.0268L107.768 18.7252C107.768 18.7252 107.543 18.462 107.543 18.274C107.543 18.086 107.656 17.9356 107.843 17.8604C111.337 16.018 115.581 16.2436 118.849 18.4996L126.625 23.8012C126.85 23.9516 126.888 24.2148 126.775 24.4404C126.738 24.5532 126.625 24.666 126.512 24.7036ZM116.971 22.598C118.774 21.9964 120.652 21.8836 122.493 22.1844L118.286 19.3268C115.581 17.4468 112.088 17.1084 109.045 18.4244L115.844 23.0492C116.22 22.8612 116.596 22.7108 116.971 22.598Z" fill="#0F20E8"/>
<path d="M97.5509 50.4966L89.7754 45.2326C90.6393 33.6518 97.5885 23.387 108.031 18.3486L115.769 23.6126" fill="#CFD2FA"/>
<path d="M97.7383 50.9855C97.7383 50.9855 97.4378 50.9855 97.2875 50.9103L89.5872 45.6839C89.5872 45.6839 89.3242 45.4207 89.3242 45.1951C90.2257 33.4639 97.25 23.0487 107.843 17.8975C107.918 17.8975 107.955 17.8599 108.03 17.8223C108.143 17.8223 108.256 17.8223 108.331 17.8975L116.069 23.1615C116.294 23.3119 116.332 23.6127 116.182 23.8383C116.031 24.0639 115.731 24.1391 115.505 23.9887L107.993 18.8751C97.9261 23.8383 91.2399 33.7271 90.2633 44.9319L97.7758 50.0455C98.0012 50.1959 98.0763 50.4967 97.9261 50.7223C97.851 50.7975 97.7758 50.8727 97.6632 50.9103L97.7383 50.9855Z" fill="#0F20E8"/>
<path d="M97.5508 50.4973C98.4147 38.9165 105.364 28.6517 115.844 23.6133L114.454 42.3381L97.5508 50.4973Z" fill="white"/>
<path d="M97.7015 50.9858C97.7015 50.9858 97.401 50.9858 97.2508 50.9106C97.1005 50.7978 97.0254 50.6474 97.0254 50.4594C97.9269 38.6905 104.989 28.3129 115.581 23.1617C115.732 23.0489 115.919 23.0489 116.07 23.1617C116.22 23.2745 116.295 23.4625 116.295 23.6129L114.905 42.3378C114.905 42.3378 114.793 42.6761 114.642 42.7513L97.7391 50.9106H97.664L97.7015 50.9858ZM115.281 24.4777C105.665 29.4786 99.2416 38.9537 98.1147 49.7449L113.966 42.0745L115.281 24.4777Z" fill="#0F20E8"/>
<path d="M148.223 25.9818L140.447 20.7178L128.803 26.3578C130.643 28.5386 131.545 31.321 131.319 34.1786L148.185 26.0194L148.223 25.9818Z" fill="#CFD2FA"/>
<path d="M131.507 34.63C131.507 34.63 131.207 34.63 131.057 34.5548C130.906 34.442 130.831 34.2916 130.831 34.1036C131.019 31.3964 130.117 28.7268 128.352 26.6588C128.164 26.4708 128.202 26.17 128.39 25.982C128.427 25.982 128.465 25.9444 128.502 25.9068L140.184 20.2668C140.184 20.2668 140.522 20.1916 140.673 20.2668L148.411 25.5308C148.411 25.5308 148.636 25.794 148.636 25.982C148.636 26.17 148.523 26.3204 148.373 26.3956L131.47 34.5548L131.507 34.63ZM129.592 26.546C131.094 28.5012 131.883 30.9076 131.883 33.3892L147.284 25.9444L140.485 21.282L129.629 26.546H129.592Z" fill="#0F20E8"/>
<path d="M129.967 52.9035L131.357 34.1787L148.26 26.0195C147.396 37.6003 140.447 47.8651 130.004 52.9035H129.967Z" fill="white"/>
<path d="M130.118 53.3545C130.118 53.3545 129.817 53.3545 129.667 53.2793C129.517 53.1665 129.441 53.0161 129.441 52.8281L130.831 34.1033C130.831 34.1033 130.944 33.7649 131.094 33.6897L147.997 25.5305C147.997 25.5305 148.335 25.4553 148.486 25.5305C148.636 25.6433 148.711 25.7937 148.711 25.9817C147.847 37.7505 140.748 48.1281 130.155 53.2793H130.08L130.118 53.3545ZM131.808 34.4793L130.531 52.0761C140.147 47.0753 146.57 37.6001 147.697 26.8465L131.808 34.5169V34.4793Z" fill="#0F20E8"/>
<path d="M19.3066 185.97L49.1691 171.607L51.6858 138.519C33.2049 147.392 20.8467 165.478 19.3066 185.932V185.97Z" fill="white"/>
<path d="M49.7707 172.057C49.7707 172.057 49.6205 172.245 49.4702 172.321L19.6078 186.684C19.3448 186.797 19.0068 186.759 18.819 186.571C18.6312 186.421 18.5185 186.157 18.556 185.894C20.1712 165.177 32.6421 146.903 51.3483 137.879C51.724 137.691 52.1372 137.879 52.325 138.18C52.4001 138.293 52.4001 138.443 52.4001 138.593L49.8834 171.681C49.8834 171.681 49.8458 171.945 49.7707 172.057ZM20.1712 184.729L48.456 171.117L50.86 139.797C33.6563 148.557 22.1245 165.515 20.1712 184.729Z" fill="#0F20E8"/>
<path d="M49.1699 171.607L62.8428 180.969L65.3595 147.881L51.6866 138.519L49.1699 171.607Z" fill="#CFD2FA"/>
<path d="M63.4806 181.42C63.4806 181.42 63.3304 181.608 63.1801 181.683C62.9548 181.796 62.6543 181.796 62.4289 181.645L48.756 172.283C48.5307 172.132 48.418 171.869 48.418 171.606L50.9347 138.518C50.9347 138.255 51.1225 137.992 51.3479 137.916C51.5732 137.804 51.8737 137.804 52.0991 137.954L65.772 147.316C65.9974 147.467 66.11 147.73 66.11 147.993L63.5933 181.081C63.5933 181.081 63.5558 181.344 63.4806 181.457V181.42ZM49.958 171.268L62.2035 179.652L64.6075 148.294L52.3621 139.909L49.958 171.268Z" fill="#0F20E8"/>
<path d="M49.1691 171.606L62.8419 180.969L32.9795 195.332L19.3066 185.97L49.1691 171.606Z" fill="white"/>
<path d="M63.4817 181.382C63.4817 181.382 63.2939 181.57 63.1812 181.646L33.3188 196.009C33.0559 196.122 32.7929 196.122 32.5676 195.971L18.8947 186.609C18.6693 186.458 18.5566 186.195 18.5566 185.932C18.5566 185.669 18.7445 185.406 18.9698 185.33L48.8322 170.967C49.0576 170.854 49.3581 170.854 49.5835 171.005L63.2564 180.367C63.4817 180.518 63.5944 180.781 63.5944 181.044C63.5944 181.194 63.5569 181.307 63.4817 181.42V181.382ZM33.0559 194.467L61.3782 180.856L49.1327 172.471L20.8104 186.082L33.0559 194.467Z" fill="#0F20E8"/>
<path d="M64.7576 165.552C64.6074 165.816 64.3069 165.928 64.0064 165.853C63.5932 165.778 63.3302 165.364 63.4054 164.951C63.4805 164.575 63.8561 164.312 64.2318 164.387C64.6449 164.5 64.9079 164.876 64.7952 165.289C64.7952 165.402 64.7952 165.477 64.7576 165.552Z" fill="#0F20E8"/>
<path d="M118.548 177.246C118.36 177.51 118.06 177.623 117.759 177.547C117.346 177.472 117.083 177.059 117.121 176.645C117.158 176.269 117.534 176.006 117.91 176.043L118.06 176.119C118.473 176.194 118.736 176.57 118.661 176.983C118.661 177.059 118.661 177.134 118.586 177.209L118.548 177.246ZM114.078 176.269C113.89 176.532 113.59 176.645 113.289 176.57C112.876 176.494 112.576 176.081 112.651 175.667C112.651 175.291 113.026 175.028 113.402 175.066C113.402 175.066 113.44 175.066 113.477 175.066L113.59 175.141C114.003 175.254 114.228 175.63 114.153 176.043C114.153 176.119 114.116 176.194 114.078 176.269ZM109.608 175.291C109.458 175.554 109.12 175.667 108.819 175.592C108.406 175.479 108.106 175.103 108.181 174.69C108.256 174.314 108.594 174.05 108.932 174.088L109.082 174.201C109.496 174.276 109.759 174.652 109.683 175.028C109.683 175.028 109.683 175.216 109.608 175.254V175.291ZM105.138 174.276C104.988 174.539 104.65 174.652 104.387 174.577C103.974 174.502 103.673 174.088 103.748 173.674C103.824 173.298 104.162 173.035 104.5 173.073L104.65 173.186C105.063 173.261 105.326 173.675 105.213 174.051C105.213 174.051 105.176 174.201 105.138 174.276ZM100.668 173.299C100.518 173.562 100.218 173.674 99.8795 173.599C99.4663 173.524 99.1658 173.111 99.2409 172.697C99.2409 172.321 99.6166 172.058 99.9922 172.095C99.9922 172.095 100.03 172.095 100.067 172.095L100.18 172.171C100.593 172.283 100.819 172.659 100.743 173.073C100.743 173.186 100.706 173.261 100.631 173.336L100.668 173.299ZM96.1232 172.359C95.973 172.622 95.6349 172.734 95.3344 172.659C94.9212 172.546 94.6207 172.171 94.6958 171.757C94.771 171.381 95.109 171.118 95.4471 171.155L95.5973 171.268C96.0105 171.343 96.2735 171.719 96.1984 172.133L96.1232 172.359ZM91.6533 171.381C91.503 171.644 91.1649 171.757 90.8644 171.682C90.4512 171.607 90.1883 171.193 90.2259 170.779C90.2259 170.403 90.6015 170.14 90.9771 170.178C90.9771 170.178 91.0147 170.178 91.0522 170.178L91.1649 170.253C91.5781 170.366 91.8411 170.742 91.7284 171.155C91.7284 171.155 91.7284 171.306 91.6533 171.381ZM87.1457 170.403C86.9955 170.667 86.695 170.779 86.3945 170.704C85.9813 170.629 85.6808 170.215 85.7559 169.802C85.831 169.426 86.1691 169.163 86.5447 169.2L86.6574 169.275C87.0706 169.388 87.296 169.764 87.2208 170.178C87.2208 170.253 87.2208 170.328 87.1457 170.403ZM82.6382 169.426C82.4879 169.689 82.1874 169.802 81.8869 169.726C81.4737 169.651 81.1732 169.275 81.2484 168.824C81.2484 168.448 81.624 168.185 81.9996 168.223C81.9996 168.223 82.0372 168.223 82.0747 168.223L82.1874 168.298C82.6006 168.41 82.8636 168.787 82.7884 169.2C82.7884 169.275 82.7509 169.351 82.7133 169.426H82.6382ZM78.1306 168.523C77.9804 168.787 77.6423 168.899 77.3418 168.824C76.9286 168.749 76.6281 168.335 76.7033 167.922C76.7784 167.546 77.1165 167.283 77.4545 167.32L77.6048 167.433C78.018 167.508 78.2809 167.922 78.1682 168.298C78.1682 168.298 78.1682 168.448 78.0931 168.523H78.1306ZM73.6607 167.546C73.5104 167.809 73.2099 167.922 72.8719 167.846C72.4587 167.771 72.1582 167.358 72.2333 166.944C72.3084 166.568 72.684 166.267 73.0597 166.343L73.1724 166.418C73.5856 166.53 73.8485 166.907 73.7734 167.32C73.7734 167.395 73.7358 167.433 73.6982 167.508L73.6607 167.546ZM69.1907 166.568C69.0029 166.831 68.7024 166.944 68.4019 166.869C67.9887 166.756 67.7258 166.38 67.7633 165.966C67.7633 165.59 68.1389 165.327 68.5146 165.365C68.5146 165.365 68.5521 165.365 68.5897 165.365L68.7024 165.44C69.1156 165.553 69.3785 165.929 69.2658 166.343C69.2658 166.343 69.2658 166.455 69.2658 166.493L69.1907 166.568Z" fill="#0F20E8"/>
<path d="M124.709 142.504V109.34L96.0859 92.7588C96.0859 113.288 106.979 132.239 124.709 142.504Z" fill="white"/>
<path d="M124.709 143.219C124.709 143.219 124.484 143.219 124.371 143.143C106.378 132.728 95.2973 113.515 95.2598 92.7217C95.2598 92.4585 95.41 92.1953 95.6354 92.0825C95.8608 91.9321 96.1613 91.9321 96.3866 92.0825L125.085 108.664C125.31 108.815 125.46 109.04 125.46 109.303V142.467C125.46 142.88 125.122 143.219 124.709 143.219ZM96.7623 94.0001C97.2506 113.327 107.505 131.074 123.958 141.151V109.755L96.7623 94.0377V94.0001Z" fill="#0F20E8"/>
<path d="M124.784 109.303L139.133 101.031L110.435 84.4492L96.0859 92.7212L124.784 109.303Z" fill="white"/>
<path d="M124.709 110.055C124.709 110.055 124.446 110.055 124.333 109.943L95.71 93.361C95.3344 93.173 95.2217 92.7218 95.4095 92.3834C95.4847 92.2706 95.5598 92.1578 95.71 92.0826L110.059 83.773C110.284 83.6226 110.585 83.6226 110.81 83.773L139.508 100.355C139.884 100.58 139.997 101.031 139.809 101.37C139.734 101.483 139.658 101.595 139.508 101.671L125.159 109.943C125.159 109.943 124.859 110.055 124.709 110.055ZM97.5506 92.7218L124.709 108.439L137.555 100.956L110.397 85.277L97.5506 92.7218Z" fill="#0F20E8"/>
<path d="M124.783 109.303L139.132 100.993V134.156L124.783 142.466V109.303Z" fill="#CFD2FA"/>
<path d="M124.708 143.218C124.708 143.218 124.445 143.18 124.333 143.105C124.107 142.955 123.957 142.729 123.957 142.466V109.303C123.957 109.04 124.107 108.776 124.333 108.626L138.682 100.354C138.907 100.204 139.208 100.204 139.433 100.354C139.658 100.504 139.809 100.73 139.809 100.993V134.156C139.809 134.42 139.658 134.683 139.433 134.796L125.084 143.068C125.084 143.068 124.859 143.18 124.708 143.18V143.218ZM125.46 109.716V141.112L138.306 133.63V102.234L125.46 109.716Z" fill="#0F20E8"/>
<path d="M68.2893 146.452C68.0264 146.452 67.801 146.339 67.6507 146.151C67.4254 145.85 67.4629 145.437 67.7634 145.174L67.9137 145.061C68.2517 144.835 68.7025 144.91 68.9279 145.286C69.1533 145.625 69.0781 146.076 68.7025 146.339C68.5523 146.414 68.402 146.49 68.2142 146.49L68.2893 146.452ZM72.1207 143.895C71.8578 143.895 71.6324 143.782 71.4821 143.594C71.2568 143.294 71.2943 142.842 71.6324 142.617H71.7827C72.1207 142.391 72.5715 142.466 72.7968 142.805C73.0222 143.143 72.9471 143.594 72.609 143.82C72.609 143.82 72.3085 143.933 72.1583 143.895H72.1207ZM75.9521 141.338C75.7267 141.338 75.4638 141.226 75.3135 141.038C75.0882 140.737 75.1257 140.286 75.4638 140.06H75.614C75.9521 139.797 76.4029 139.91 76.6658 140.21C76.8912 140.586 76.8161 141.038 76.4404 141.263C76.2902 141.338 76.1399 141.338 75.9521 141.338ZM79.7835 138.782C79.5581 138.782 79.2952 138.669 79.1825 138.481C78.9571 138.18 78.9947 137.766 79.2576 137.541C79.2576 137.541 79.2576 137.541 79.2952 137.503L79.4455 137.428C79.8211 137.24 80.2718 137.353 80.4597 137.729C80.6099 138.03 80.5348 138.443 80.2718 138.669C80.1216 138.744 79.9713 138.819 79.7835 138.819V138.782ZM83.6149 136.225C83.3896 136.225 83.1266 136.112 82.9764 135.924C82.751 135.623 82.7885 135.172 83.1266 134.946L83.2393 134.871C83.5774 134.646 84.0281 134.721 84.2535 135.097C84.4789 135.435 84.4037 135.886 84.0657 136.112C83.9154 136.187 83.7652 136.262 83.5774 136.262L83.6149 136.225ZM87.4463 133.668C87.221 133.668 86.958 133.555 86.8453 133.367C86.62 133.066 86.6575 132.653 86.9204 132.427C86.9204 132.427 86.9204 132.427 86.958 132.39L87.1083 132.314C87.4463 132.089 87.8971 132.164 88.1225 132.54C88.3478 132.878 88.2727 133.33 87.8971 133.593C87.7468 133.668 87.5966 133.743 87.4088 133.743L87.4463 133.668ZM91.2777 131.111C91.0148 131.111 90.7894 130.998 90.6392 130.81C90.4138 130.51 90.4514 130.058 90.7894 129.833H90.9397C91.2777 129.607 91.7285 129.682 91.9539 130.021C92.1792 130.359 92.1041 130.81 91.7661 131.036C91.7661 131.036 91.4655 131.149 91.3153 131.111H91.2777ZM95.1091 128.554C94.8838 128.554 94.6208 128.442 94.4706 128.254C94.2452 127.953 94.2828 127.502 94.6208 127.276L94.7711 127.201C95.1091 126.975 95.5599 127.05 95.7853 127.389C96.0106 127.765 95.9355 128.216 95.5599 128.442C95.4096 128.517 95.2594 128.592 95.0716 128.592L95.1091 128.554ZM98.9405 126.073C98.6776 126.073 98.4522 125.96 98.302 125.772C98.0766 125.471 98.1142 125.058 98.4147 124.794L98.5273 124.682C98.8654 124.456 99.3162 124.531 99.5415 124.907C99.7669 125.246 99.6918 125.697 99.3537 125.922C99.3537 125.922 99.0532 126.073 98.903 126.073H98.9405ZM102.772 123.516C102.547 123.516 102.284 123.403 102.133 123.215C101.908 122.914 101.946 122.463 102.284 122.238H102.434C102.772 121.974 103.223 122.087 103.448 122.426C103.673 122.764 103.598 123.215 103.26 123.441C103.11 123.478 102.922 123.441 102.772 123.441V123.516ZM106.603 120.959C106.378 120.959 106.153 120.846 106.002 120.658C105.777 120.358 105.815 119.906 106.115 119.681L106.228 119.606C106.566 119.342 107.017 119.418 107.279 119.756C107.542 120.094 107.467 120.546 107.129 120.809C107.129 120.809 107.092 120.809 107.054 120.846C106.904 120.922 106.716 120.959 106.566 120.922V120.997L106.603 120.959Z" fill="#0F20E8"/>
<path d="M110.397 118.29C110.134 118.29 109.908 118.177 109.758 117.989C109.533 117.688 109.608 117.237 109.908 116.974C110.246 116.748 110.697 116.823 110.922 117.162C111.148 117.5 111.073 117.951 110.735 118.177C110.622 118.252 110.472 118.252 110.359 118.252L110.397 118.29Z" fill="#0F20E8"/>
<path d="M211.779 365.133V331.782C211.779 311.14 222.785 292.076 240.628 281.736V315.088C240.628 335.73 229.622 354.793 211.779 365.096V365.133Z" fill="#CFD2FA"/>
<path d="M211.779 365.885C211.779 365.885 211.516 365.848 211.403 365.773C211.178 365.622 211.027 365.397 211.027 365.134V331.782C211.027 310.877 222.183 291.588 240.251 281.098C240.627 280.872 241.04 281.022 241.265 281.361C241.341 281.474 241.378 281.586 241.378 281.737V315.088C241.378 335.994 230.222 355.282 212.154 365.773C212.042 365.848 211.929 365.885 211.779 365.885ZM239.876 283.128C222.935 293.506 212.567 311.929 212.53 331.782V363.893C229.471 353.515 239.838 335.091 239.876 315.201V283.165V283.128Z" fill="#0F20E8"/>
<path d="M226.204 273.39C208.324 283.73 197.318 302.83 197.356 323.473V356.824L211.78 365.171V331.82C211.78 311.178 222.786 292.114 240.628 281.812L226.204 273.465V273.39Z" fill="white"/>
<path d="M211.779 365.923C211.779 365.923 211.554 365.923 211.441 365.923C211.328 365.886 211.253 365.811 211.178 365.698L196.979 357.501C196.979 357.501 196.716 357.313 196.679 357.162C196.641 357.05 196.604 356.937 196.604 356.862V323.511C196.604 302.605 207.76 283.316 225.827 272.826C226.053 272.675 226.353 272.675 226.579 272.826L241.003 281.173C241.303 281.323 241.453 281.699 241.341 282.038C241.266 282.226 241.153 282.376 241.003 282.489C223.423 292.678 212.568 311.479 212.53 331.858V365.096C212.568 365.397 212.455 365.698 212.192 365.848C212.079 365.961 211.929 365.998 211.741 365.998L211.779 365.923ZM198.106 356.373L211.028 363.855V331.745C211.028 311.291 221.695 292.34 239.162 281.737L226.241 274.255C208.811 284.519 198.144 303.244 198.106 323.473V356.373Z" fill="#0F20E8"/>
<path d="M200.81 291.55C200.81 291.55 200.547 291.55 200.434 291.475C200.058 291.249 199.908 290.798 200.096 290.422C200.246 290.084 200.697 289.933 201.035 290.084L201.185 290.159C201.561 290.385 201.674 290.836 201.448 291.174C201.298 291.4 201.073 291.55 200.81 291.55ZM196.866 289.219C196.866 289.219 196.603 289.219 196.49 289.106C196.114 288.881 196.002 288.429 196.189 288.053C196.34 287.715 196.79 287.565 197.091 287.753H197.129L197.279 287.828C197.617 288.053 197.73 288.505 197.542 288.843C197.391 289.069 197.166 289.219 196.903 289.219H196.866ZM192.922 286.888C192.922 286.888 192.659 286.888 192.546 286.775C192.17 286.549 192.02 286.098 192.208 285.722C192.358 285.384 192.809 285.233 193.109 285.421H193.147L193.297 285.497C193.673 285.722 193.785 286.173 193.56 286.512C193.41 286.737 193.184 286.888 192.922 286.888ZM188.977 284.632C188.977 284.632 188.714 284.632 188.602 284.519C188.226 284.293 188.076 283.842 188.264 283.466C188.452 283.128 188.865 282.977 189.203 283.165L189.315 283.241C189.691 283.466 189.804 283.88 189.578 284.256C189.428 284.481 189.203 284.632 188.94 284.632H188.977ZM185.033 282.301C185.033 282.301 184.77 282.301 184.658 282.188C184.282 281.962 184.132 281.511 184.357 281.135C184.507 280.797 184.921 280.646 185.259 280.797C185.259 280.797 185.296 280.797 185.334 280.797L185.447 280.872C185.822 281.097 185.935 281.511 185.709 281.887C185.559 282.113 185.334 282.225 185.071 282.188V282.263L185.033 282.301ZM181.089 279.969C181.089 279.969 180.826 279.932 180.714 279.857C180.338 279.631 180.188 279.18 180.376 278.804C180.526 278.465 180.939 278.315 181.277 278.465C181.277 278.465 181.315 278.465 181.352 278.465H181.502C181.878 278.691 181.991 279.142 181.765 279.481C181.615 279.706 181.39 279.857 181.127 279.857V279.932L181.089 279.969ZM177.145 277.638C177.145 277.638 176.882 277.638 176.77 277.563C176.394 277.337 176.244 276.886 176.431 276.51C176.582 276.172 176.995 276.021 177.333 276.172H177.371L177.521 276.247C177.896 276.473 177.972 276.924 177.784 277.262C177.633 277.488 177.408 277.601 177.145 277.563V277.638ZM173.201 275.307C173.201 275.307 172.938 275.307 172.825 275.194C172.45 274.969 172.3 274.517 172.487 274.141C172.675 273.803 173.088 273.653 173.426 273.841L173.539 273.916C173.915 274.141 174.027 274.593 173.802 274.931C173.652 275.119 173.426 275.232 173.163 275.232V275.307H173.201ZM169.332 272.901C169.332 272.901 169.069 272.901 168.956 272.788C168.581 272.562 168.468 272.111 168.656 271.735C168.806 271.397 169.257 271.246 169.557 271.434H169.595L169.708 271.509C170.083 271.735 170.196 272.186 169.971 272.525C169.82 272.75 169.595 272.901 169.332 272.901ZM165.388 270.569C165.388 270.569 165.125 270.569 165.012 270.457C164.637 270.231 164.486 269.78 164.674 269.404C164.825 269.065 165.275 268.915 165.576 269.103H165.764C166.102 269.329 166.214 269.78 166.027 270.118C165.914 270.419 165.613 270.569 165.313 270.569H165.388ZM161.369 268.201C161.369 268.201 161.106 268.201 160.993 268.088C160.618 267.862 160.467 267.411 160.655 267.035C160.805 266.697 161.256 266.546 161.557 266.734H161.744C162.12 266.96 162.233 267.411 162.007 267.749C161.895 268.013 161.632 268.201 161.331 268.201H161.369Z" fill="#0F20E8"/>
<path d="M204.679 293.844C204.679 293.844 204.416 293.844 204.304 293.731C203.928 293.505 203.815 293.054 204.003 292.678C204.191 292.34 204.642 292.189 205.017 292.415C205.393 292.64 205.468 293.092 205.28 293.43C205.168 293.656 204.942 293.806 204.679 293.806V293.844Z" fill="#0F20E8"/>
<path d="M285.928 95.8799L302.568 124.757C312.898 142.617 312.898 164.65 302.568 182.51L285.928 153.633C275.636 135.773 275.636 113.74 285.928 95.8799Z" fill="white"/>
<path d="M302.606 183.225C302.343 183.225 302.08 183.075 301.967 182.849L285.327 153.972C274.922 135.849 274.922 113.552 285.327 95.4668C285.552 95.0908 286.041 95.0156 286.379 95.2412C286.454 95.3164 286.567 95.3916 286.604 95.4668L303.282 124.306C313.687 142.429 313.687 164.726 303.282 182.812C303.132 183.037 302.906 183.225 302.644 183.225H302.606ZM285.966 97.3844C276.462 114.868 276.688 136 286.604 153.258L302.606 181.007C312.109 163.523 311.884 142.354 301.967 125.133L285.966 97.3844Z" fill="#0F20E8"/>
<path d="M319.283 182.473C329.575 164.613 329.575 142.579 319.283 124.719L302.643 95.8799H285.965L302.605 124.757C312.897 142.617 312.897 164.65 302.605 182.51H319.283V182.435V182.473Z" fill="#CFD2FA"/>
<path d="M319.284 183.225H302.644C302.305 183.225 302.005 183 301.93 182.699C301.855 182.511 301.855 182.323 301.93 182.097C312.072 164.463 312.072 142.73 301.93 125.058L285.327 96.2564C285.327 96.2564 285.214 96.0684 285.177 95.9556C285.102 95.542 285.365 95.166 285.778 95.0908C285.815 95.0908 285.891 95.0908 285.928 95.0908H302.568C302.794 95.0908 303.019 95.2036 303.132 95.354C303.132 95.354 303.132 95.4292 303.207 95.4668L319.922 124.306C330.29 142.392 330.29 164.688 319.922 182.774C319.81 183.037 319.547 183.225 319.284 183.225ZM303.883 181.721H318.833C328.75 164.124 328.675 142.617 318.608 125.096L302.155 96.5948H287.205L303.207 124.306C313.387 142.016 313.649 163.786 303.846 181.721H303.883Z" fill="#0F20E8"/>
<path d="M191.946 130.284C191.72 130.396 191.457 130.434 191.232 130.321C190.856 130.171 190.706 129.795 190.856 129.419L190.932 129.231C191.119 128.855 191.57 128.704 191.908 128.892C192.284 129.08 192.434 129.532 192.246 129.908C192.171 130.058 192.058 130.171 191.908 130.284H191.946ZM193.937 126.11C193.711 126.26 193.486 126.26 193.26 126.185C192.885 126.035 192.735 125.621 192.885 125.283L192.997 125.208C193.185 124.832 193.598 124.681 193.974 124.869C194.35 125.057 194.5 125.471 194.312 125.847C194.312 125.847 194.124 126.11 193.937 126.148V126.11ZM195.927 121.974C195.74 122.087 195.477 122.124 195.251 122.049C194.876 121.899 194.725 121.485 194.876 121.147L194.988 121.072C195.139 120.696 195.589 120.508 195.965 120.696C196.341 120.884 196.491 121.335 196.341 121.711C196.228 121.824 196.115 121.936 195.965 122.012L195.927 121.974ZM197.918 117.838C197.73 117.951 197.467 117.988 197.242 117.876C196.904 117.763 196.716 117.387 196.829 117.011C196.829 117.011 196.829 116.973 196.829 116.936L196.904 116.785C197.129 116.447 197.58 116.334 197.918 116.522C198.219 116.71 198.369 117.086 198.219 117.424C198.144 117.575 198.031 117.725 197.881 117.8L197.918 117.838ZM199.909 113.664C199.721 113.777 199.458 113.815 199.233 113.74C198.857 113.589 198.707 113.176 198.857 112.837L198.932 112.687C199.12 112.311 199.571 112.16 199.909 112.348C200.285 112.536 200.435 112.988 200.247 113.326C200.172 113.476 200.059 113.589 199.909 113.702V113.664ZM201.9 109.528C201.712 109.641 201.449 109.679 201.224 109.566C200.886 109.453 200.698 109.077 200.811 108.701C200.811 108.701 200.811 108.664 200.811 108.626L200.886 108.476C201.073 108.1 201.524 107.949 201.862 108.137C202.238 108.325 202.388 108.776 202.2 109.152C202.125 109.303 202.013 109.416 201.862 109.528H201.9ZM203.891 105.355C203.665 105.505 203.44 105.505 203.215 105.43C202.839 105.28 202.689 104.866 202.839 104.528L202.952 104.452C203.139 104.076 203.553 103.926 203.928 104.114C204.304 104.302 204.454 104.716 204.266 105.092C204.266 105.092 204.078 105.355 203.891 105.392V105.355ZM205.882 101.219C205.694 101.332 205.431 101.369 205.205 101.294C204.83 101.144 204.68 100.73 204.83 100.392L204.905 100.241C205.055 99.8652 205.506 99.7148 205.882 99.8652C206.257 100.053 206.407 100.504 206.257 100.88C206.182 101.031 206.069 101.144 205.919 101.256L205.882 101.219ZM207.947 97.1204C207.722 97.2332 207.497 97.2708 207.234 97.158C206.858 97.0076 206.708 96.6316 206.858 96.2556L206.896 96.1052C207.084 95.7292 207.534 95.5788 207.872 95.7668C208.248 95.9548 208.398 96.3684 208.21 96.7444C208.21 96.7444 208.023 97.0452 207.91 97.1204H207.947ZM209.938 92.9468C209.75 93.0596 209.488 93.0972 209.262 93.022C208.887 92.8716 208.736 92.458 208.887 92.1196L208.999 92.0444C209.149 91.6684 209.6 91.4804 209.976 91.6684C210.351 91.8564 210.502 92.3076 210.314 92.646C210.201 92.7588 210.051 92.834 209.901 92.8716V92.9468H209.938ZM211.929 88.8108C211.741 88.9236 211.478 88.9612 211.253 88.8484C210.877 88.698 210.69 88.2844 210.84 87.946L210.915 87.7956C211.065 87.4196 211.516 87.2316 211.892 87.382C212.267 87.5324 212.455 87.9836 212.305 88.3596C212.305 88.3596 212.305 88.3972 212.305 88.4348C212.23 88.5852 212.079 88.698 211.929 88.7356V88.8108Z" fill="#0F20E8"/>
<path d="M213.92 84.6373C213.695 84.7501 213.432 84.7877 213.207 84.6749C212.831 84.5245 212.681 84.1109 212.831 83.7349C213.019 83.3589 213.432 83.1709 213.808 83.3589C214.183 83.5469 214.334 83.9981 214.146 84.3365C214.071 84.4493 213.958 84.5245 213.845 84.5997L213.92 84.6373Z" fill="#0F20E8"/>
<path d="M200.396 73.0945L229.094 89.6761V56.5129C219.929 51.2489 208.247 54.3697 202.951 63.5441C201.26 66.4393 200.396 69.7481 200.396 73.0945Z" fill="white"/>
<path d="M229.096 90.4281C229.096 90.4281 228.833 90.4281 228.72 90.3529L200.022 73.7713C199.797 73.6209 199.646 73.3953 199.646 73.1321C199.646 62.1529 208.511 53.2041 219.517 53.2041C223.048 53.2041 226.504 54.1441 229.546 55.9113C229.772 56.0617 229.922 56.2873 229.922 56.5505V89.7137C229.922 89.9769 229.772 90.2401 229.546 90.3529C229.396 90.4281 229.246 90.4657 229.096 90.4281ZM201.149 72.6809L228.344 88.3977V57.0017C219.442 52.1137 208.286 55.3849 203.403 64.2961C202.013 66.8905 201.224 69.7481 201.149 72.7185V72.6809Z" fill="#0F20E8"/>
<path d="M243.444 48.241C237.622 44.857 230.447 44.7818 224.588 48.0906L210.051 56.4754C215.948 53.0538 223.198 53.0538 229.095 56.4754L243.444 48.241Z" fill="white"/>
<path d="M229.095 57.2649C229.095 57.2649 228.832 57.2273 228.719 57.1521C223.085 53.8433 216.098 53.8433 210.426 57.1521C210.05 57.3401 209.637 57.2273 209.412 56.8513C209.186 56.5129 209.337 56.0617 209.675 55.8361L224.212 47.4137C230.297 43.9921 237.772 44.0297 243.819 47.5641C244.195 47.7521 244.308 48.2033 244.12 48.5417C244.045 48.6545 243.97 48.7673 243.819 48.8425L229.47 57.1521C229.47 57.1521 229.245 57.2273 229.095 57.2273V57.2649ZM219.516 53.1665C222.859 53.1665 226.165 54.0313 229.095 55.6481L241.904 48.1657C236.495 45.5337 230.184 45.6841 224.963 48.6545L216.962 53.2793C217.826 53.2041 218.69 53.1289 219.554 53.1665H219.516Z" fill="#0F20E8"/>
<path d="M229.096 56.5132V89.6764L243.445 81.4044V48.2412L229.096 56.5508V56.5132Z" fill="#CFD2FA"/>
<path d="M229.095 90.4285C229.095 90.4285 228.832 90.4285 228.719 90.3533C228.494 90.2029 228.344 89.9773 228.344 89.7141V56.5509C228.344 56.2877 228.494 56.0245 228.719 55.8741L243.068 47.6021C243.294 47.4517 243.594 47.4517 243.82 47.6021C244.045 47.7525 244.195 47.9781 244.195 48.2413V81.4045C244.195 81.6677 244.045 81.9309 243.82 82.0437L229.471 90.3533C229.471 90.3533 229.245 90.4285 229.095 90.4285ZM229.846 56.9269V88.3229L242.693 80.8405V49.4445L229.846 56.9269Z" fill="#0F20E8"/>
<path d="M67.6882 251.281L51.123 279.932L67.6882 308.659C77.9429 290.874 77.9429 268.991 67.6882 251.206V251.281Z" fill="#CFD2FA"/>
<path d="M67.6875 309.41C67.4246 309.41 67.1617 309.26 67.049 309.034L50.4838 280.308C50.3335 280.082 50.3335 279.781 50.4838 279.556L67.049 250.829C67.1992 250.604 67.4622 250.453 67.7251 250.453C67.988 250.453 68.251 250.604 68.3637 250.867C78.6934 268.877 78.6934 291.024 68.3637 309.034C68.2134 309.26 67.9505 309.41 67.6875 309.41ZM51.9863 279.932L67.6875 307.154C76.928 290.196 76.928 269.667 67.6875 252.709L51.9863 279.932Z" fill="#0F20E8"/>
<path d="M51.1238 279.932H34.5586L51.1238 308.658H67.689L51.1238 279.932Z" fill="white"/>
<path d="M67.6886 309.41H51.1234C50.8605 309.41 50.5975 309.26 50.4849 309.034L33.9197 280.308C33.6943 279.932 33.8445 279.518 34.1826 279.292C34.2953 279.217 34.4455 279.18 34.5582 279.18H51.1234C51.3864 279.18 51.6493 279.33 51.7996 279.556L68.3647 308.282C68.515 308.508 68.515 308.808 68.3647 309.034C68.2145 309.26 67.9891 309.41 67.6886 309.41ZM51.5366 307.906H66.3739L50.6727 280.684H35.9105L51.5366 307.906Z" fill="#0F20E8"/>
<path d="M51.1238 279.932H34.5586L51.1238 251.206H67.689L51.1238 279.932Z" fill="white"/>
<path d="M51.1231 280.684H34.5579C34.1447 280.684 33.8066 280.345 33.8066 279.932C33.8066 279.781 33.8066 279.668 33.9193 279.556L50.4845 250.829C50.6348 250.604 50.8601 250.453 51.1231 250.453H67.6883C67.9512 250.453 68.2142 250.604 68.3268 250.829C68.4771 251.055 68.4771 251.356 68.3268 251.581L51.7617 280.308C51.6114 280.533 51.386 280.684 51.0855 280.684H51.1231ZM35.8726 279.18H50.7099L66.4111 251.957H51.5738L35.8726 279.18Z" fill="#0F20E8"/>
</g>
<defs>
<clipPath id="clip0_21546_4867">
<rect width="344" height="376" fill="white"/>
</clipPath>
</defs>
</svg>
