<svg width="43" height="15" viewBox="0 0 43 15" fill="none" xmlns="http://www.w3.org/2000/svg">
<rect width="43" height="15" rx="2" fill="#F4F5FC"/>
<g clip-path="url(#clip0_14232_49933)">
<path d="M21.9643 6.58884V7.61624H24.3685V8.63696H21.9643V10.2388H20.4237V5.56745H24.6953V6.58884H21.9643Z" fill="#131112"/>
<path d="M26.9281 6.61553H25.2552V5.56745H30.1337V6.61553H28.4687V10.2388H26.9281V6.61553Z" fill="#131112"/>
<path d="M34.226 10.2388L33.0979 8.79041L31.9852 10.2388H30.2268L32.2109 7.87642L30.3125 5.56745H32.0475L33.1368 6.91574L34.2105 5.56745H35.8756L33.977 7.82305L36 10.2388H34.226Z" fill="#131112"/>
<path d="M10.8595 11.25H13.1838V9.25725H10.8595V11.25Z" fill="#84D6D7"/>
<path d="M15.246 6.50268H10.8595V8.49609H15.246H16.0438V6.50334H15.246V6.50268Z" fill="#33BBC7"/>
<path d="M10.8595 3.74992V5.74268H18.0597V3.74992H10.8595Z" fill="#11A9BC"/>
<path d="M8 8.49609H10.3236V6.50268H8V8.49609Z" fill="#33BBC7"/>
</g>
<defs>
<clipPath id="clip0_14232_49933">
<rect width="28" height="7.5" fill="white" transform="translate(8 3.75)"/>
</clipPath>
</defs>
</svg>
