<svg width="13" height="10" viewBox="0 0 13 10" fill="none" xmlns="http://www.w3.org/2000/svg">
<path fill-rule="evenodd" clip-rule="evenodd" d="M6.47424 0.833198C4.39431 0.833198 2.7082 2.51931 2.7082 4.59924C2.7082 6.67918 4.39431 8.36529 6.47424 8.36529C8.55418 8.36529 10.2403 6.67918 10.2403 4.59924C10.2403 2.51931 8.55418 0.833198 6.47424 0.833198ZM1.875 4.59924C1.875 2.05915 3.93415 0 6.47424 0C9.01434 0 11.0735 2.05915 11.0735 4.59924C11.0735 7.13934 9.01434 9.19849 6.47424 9.19849C3.93415 9.19849 1.875 7.13934 1.875 4.59924Z" fill="#3A3A3A"/>
<path fill-rule="evenodd" clip-rule="evenodd" d="M12.8449 0.624486C13.0085 0.786311 13.0099 1.05008 12.8481 1.21364L9.34028 4.7589C9.18255 4.91832 8.92693 4.92427 8.76195 4.77236L7.6132 3.71463L5.80597 6.72183C5.68745 6.91904 5.4315 6.98283 5.2343 6.86431C5.03709 6.7458 4.97329 6.48985 5.09181 6.29264L7.16232 2.84736C7.22682 2.74003 7.33618 2.66741 7.46013 2.64959C7.58408 2.63178 7.70947 2.67066 7.80159 2.75548L9.03067 3.88719L12.2558 0.627617C12.4176 0.464063 12.6814 0.462661 12.8449 0.624486Z" fill="#3A3A3A"/>
<path fill-rule="evenodd" clip-rule="evenodd" d="M10.7354 0.920627C10.7354 0.690546 10.9219 0.504028 11.152 0.504028H12.5517C12.7818 0.504028 12.9683 0.690546 12.9683 0.920627C12.9683 1.15071 12.7818 1.33723 12.5517 1.33723H11.152C10.9219 1.33723 10.7354 1.15071 10.7354 0.920627Z" fill="#3A3A3A"/>
<path fill-rule="evenodd" clip-rule="evenodd" d="M12.5523 0.504028C12.7824 0.504028 12.9689 0.690546 12.9689 0.920627V2.32042C12.9689 2.5505 12.7824 2.73702 12.5523 2.73702C12.3223 2.73702 12.1357 2.5505 12.1357 2.32042V0.920627C12.1357 0.690546 12.3223 0.504028 12.5523 0.504028Z" fill="#3A3A3A"/>
<path fill-rule="evenodd" clip-rule="evenodd" d="M3.62821 4.81036C3.78594 4.65094 4.04157 4.64499 4.20654 4.7969L5.73129 6.20083C5.90055 6.35668 5.91142 6.62023 5.75557 6.78949C5.59972 6.95875 5.33617 6.96962 5.16691 6.81377L3.93783 5.68207L0.712741 8.94164C0.550917 9.10519 0.287145 9.1066 0.12359 8.94477C-0.0399652 8.78295 -0.0413678 8.51918 0.120457 8.35562L3.62821 4.81036Z" fill="#3A3A3A"/>
<path fill-rule="evenodd" clip-rule="evenodd" d="M0 8.64865C0 8.41857 0.186518 8.23206 0.416599 8.23206H1.81637C2.04645 8.23206 2.23296 8.41857 2.23296 8.64865C2.23296 8.87874 2.04645 9.06525 1.81637 9.06525H0.416599C0.186518 9.06525 0 8.87874 0 8.64865Z" fill="#3A3A3A"/>
<path fill-rule="evenodd" clip-rule="evenodd" d="M0.416599 6.83215C0.64668 6.83215 0.833198 7.01867 0.833198 7.24875V8.64854C0.833198 8.87863 0.64668 9.06514 0.416599 9.06514C0.186518 9.06514 0 8.87863 0 8.64854V7.24875C0 7.01867 0.186518 6.83215 0.416599 6.83215Z" fill="#3A3A3A"/>
</svg>
