<svg width="24" height="16" viewBox="0 0 24 16" fill="none" xmlns="http://www.w3.org/2000/svg">
<path fill-rule="evenodd" clip-rule="evenodd" d="M11.9824 1.44928C8.36455 1.44928 5.4317 4.38213 5.4317 8C5.4317 11.6179 8.36455 14.5507 11.9824 14.5507C15.6003 14.5507 18.5331 11.6179 18.5331 8C18.5331 4.38213 15.6003 1.44928 11.9824 1.44928ZM3.98242 8C3.98242 3.58171 7.56413 0 11.9824 0C16.4007 0 19.9824 3.58171 19.9824 8C19.9824 12.4183 16.4007 16 11.9824 16C7.56413 16 3.98242 12.4183 3.98242 8Z" fill="white"/>
<path fill-rule="evenodd" clip-rule="evenodd" d="M23.0642 1.08453C23.3486 1.36601 23.3511 1.82482 23.0696 2.10931L16.9681 8.27599C16.6937 8.55328 16.2491 8.56363 15.9622 8.2994L13.964 6.45957L10.8205 11.6903C10.6143 12.0334 10.1691 12.1443 9.82609 11.9382C9.48306 11.732 9.3721 11.2868 9.57825 10.9438L13.1797 4.95103C13.2919 4.76433 13.4822 4.63801 13.6977 4.60703C13.9133 4.57604 14.1314 4.64368 14.2917 4.79121L16.4296 6.75972L22.0394 1.08997C22.3209 0.805483 22.7797 0.803045 23.0642 1.08453Z" fill="white"/>
<path fill-rule="evenodd" clip-rule="evenodd" d="M19.3945 1.59964C19.3945 1.19943 19.719 0.875 20.1192 0.875H22.554C22.9542 0.875 23.2786 1.19943 23.2786 1.59964C23.2786 1.99985 22.9542 2.32428 22.554 2.32428H20.1192C19.719 2.32428 19.3945 1.99985 19.3945 1.59964Z" fill="white"/>
<path fill-rule="evenodd" clip-rule="evenodd" d="M22.5547 0.875C22.9549 0.875 23.2794 1.19943 23.2794 1.59964V4.03446C23.2794 4.43467 22.9549 4.7591 22.5547 4.7591C22.1545 4.7591 21.8301 4.43467 21.8301 4.03446V1.59964C21.8301 1.19943 22.1545 0.875 22.5547 0.875Z" fill="white"/>
<path fill-rule="evenodd" clip-rule="evenodd" d="M7.03168 8.36732C7.30604 8.09003 7.75067 8.07968 8.03764 8.3439L10.6898 10.7859C10.9842 11.057 11.0031 11.5154 10.732 11.8099C10.4609 12.1043 10.0025 12.1232 9.70811 11.8521L7.57022 9.88359L1.96046 15.5533C1.67898 15.8378 1.22017 15.8403 0.935677 15.5588C0.651187 15.2773 0.648747 14.8185 0.930228 14.534L7.03168 8.36732Z" fill="white"/>
<path fill-rule="evenodd" clip-rule="evenodd" d="M0.720703 15.045C0.720703 14.6447 1.04514 14.3203 1.44534 14.3203H3.88012C4.28033 14.3203 4.60476 14.6447 4.60476 15.045C4.60476 15.4452 4.28033 15.7696 3.88012 15.7696H1.44534C1.04514 15.7696 0.720703 15.4452 0.720703 15.045Z" fill="white"/>
<path fill-rule="evenodd" clip-rule="evenodd" d="M1.44534 11.8828C1.84555 11.8828 2.16998 12.2072 2.16998 12.6075V15.0423C2.16998 15.4425 1.84555 15.7669 1.44534 15.7669C1.04514 15.7669 0.720703 15.4425 0.720703 15.0423V12.6075C0.720703 12.2072 1.04514 11.8828 1.44534 11.8828Z" fill="white"/>
</svg>
