<svg width="137" height="42" viewBox="0 0 137 42" fill="none" xmlns="http://www.w3.org/2000/svg">
<path d="M130.821 1H5.99641C3.25412 1 1 3.2541 1 5.99639V36.0036C1 38.7603 3.23977 41 5.99641 41H130.821C133.563 41 135.817 38.7459 135.817 36.0036V5.99639C135.817 3.23974 133.577 1 130.821 1Z" stroke="#0F20E8" stroke-miterlimit="10"/>
<path d="M48.3518 11.237C48.3518 12.0697 48.1078 12.7446 47.6053 13.2471C47.0453 13.8357 46.3131 14.1372 45.4085 14.1372C44.504 14.1372 43.8149 13.8357 43.1975 13.2327C42.5945 12.6297 42.293 11.8832 42.293 10.993C42.293 10.1029 42.5945 9.35618 43.1975 8.75316C43.8005 8.15015 44.5327 7.84863 45.4085 7.84863C45.8393 7.84863 46.2413 7.93485 46.6433 8.10715C47.0309 8.27944 47.3468 8.49476 47.5765 8.78191L47.0453 9.31313C46.6433 8.83933 46.0977 8.59525 45.4085 8.59525C44.7768 8.59525 44.2312 8.81056 43.7718 9.25564C43.3124 9.70072 43.0826 10.2751 43.0826 10.993C43.0826 11.7109 43.3124 12.2851 43.7718 12.7302C44.2312 13.1753 44.7768 13.3906 45.4085 13.3906C46.0833 13.3906 46.629 13.1609 47.0884 12.7158C47.3755 12.4287 47.5478 12.0267 47.5909 11.4955H45.4085V10.7776H48.3088C48.3375 10.9356 48.3518 11.0791 48.3518 11.237Z" fill="#0F20E8"/>
<path d="M48.3495 11.2371H48.249C48.249 12.0555 48.0049 12.6872 47.5311 13.1753C46.9856 13.7496 46.282 14.0369 45.4062 14.0369C44.5591 14.0369 43.8556 13.7496 43.267 13.161C42.6783 12.5723 42.3912 11.8689 42.3912 10.9931C42.3912 10.1317 42.6783 9.41379 43.267 8.82514C43.8556 8.23648 44.5591 7.94917 45.4062 7.94917C45.8226 7.94917 46.2246 8.03538 46.5979 8.19332C46.9712 8.35125 47.2727 8.56672 47.5024 8.83951L47.5742 8.78202L47.5024 8.71016L46.9712 9.24139L47.043 9.31324L47.1148 9.25576C46.6984 8.75324 46.1241 8.50914 45.3919 8.50914C44.7314 8.50914 44.1571 8.73901 43.6833 9.19845C43.2095 9.65789 42.9654 10.2751 42.9654 11.0073C42.9654 11.7396 43.2095 12.3426 43.6833 12.8164C44.1571 13.2758 44.7314 13.5057 45.3919 13.5057C46.081 13.5057 46.6697 13.2758 47.1291 12.802C47.445 12.4862 47.6173 12.0556 47.6604 11.5244V11.4094H45.478V10.8925H48.2777V10.7921H48.1772C48.2059 10.9644 48.2203 11.1079 48.2203 11.2515H48.4213C48.4213 11.0935 48.4213 10.95 48.3782 10.7777V10.6915H45.277V11.6104H47.5455V11.51H47.445C47.4019 11.9981 47.244 12.3857 46.9712 12.6585C46.5405 13.0892 46.0092 13.3047 45.3632 13.3047C44.7601 13.3047 44.2433 13.0892 43.7982 12.6729C43.3531 12.2421 43.1378 11.6965 43.1378 11.0073C43.1378 10.3182 43.3531 9.77271 43.7982 9.34199C44.2433 8.91126 44.7601 8.71016 45.3632 8.71016C46.038 8.71016 46.5548 8.93984 46.9281 9.38493L46.9999 9.47115L47.6029 8.86808L47.6747 8.79639L47.6173 8.72454C47.3732 8.43739 47.043 8.19332 46.641 8.02103C46.239 7.84874 45.8082 7.7627 45.3775 7.7627C44.4874 7.7627 43.7264 8.07842 43.109 8.69579C42.4917 9.31317 42.1758 10.0885 42.1758 11.0073C42.1758 11.9119 42.4917 12.7017 43.109 13.319C43.7264 13.9364 44.5017 14.2521 45.3775 14.2521C46.2964 14.2521 47.0717 13.9506 47.646 13.3332L47.5742 13.2616L47.646 13.3332C48.1629 12.8164 48.4213 12.1129 48.4213 11.2658H48.3208L48.3495 11.2371ZM52.9296 8.75328H50.2016V10.6628H52.6568V11.3806H50.2016V13.2903H52.9296V14.0225H49.4263V8.02103H52.9296V8.75328Z" fill="#0F20E8"/>
<path d="M52.9592 8.73935V8.63892H50.1308V10.7351H52.5859V11.2519H50.1308V13.348H52.8587V13.8793H49.5565V8.07896H52.8587V8.7106H52.9592H53.0597V7.87793H49.3555V14.0803H53.0597V13.1472H50.3318V11.4386H52.7869V10.5197H50.3318V8.8112H53.0597V8.7106H52.9592V8.73935ZM56.204 13.9799H55.4287V8.7106H53.7489V7.97836H57.8695V8.7106H56.1897V13.9799" fill="#0F20E8"/>
<path d="M56.206 13.9935V13.8929H55.5312V8.62385H53.8514V8.09263H57.771V8.62385H56.0912V13.9935H56.1917H56.2922V8.82487H57.972V7.8916H53.6504V8.82487H55.3302V14.094H56.3065V13.9935H56.206ZM60.8579 13.9935V7.99203H61.6332V13.9935H60.8579Z" fill="#0F20E8"/>
<path d="M60.8544 13.9935H60.9549V8.09263H61.5292V13.8929H60.8544V13.9935V14.094H61.7302V7.8916H60.7539V14.094H60.8544V13.9935ZM65.0325 13.9935H64.2571V8.72427H62.5773V7.99203H66.6979V8.72427H65.0181V13.9935" fill="#0F20E8"/>
<path d="M65.0361 13.994V13.8934H64.3613V8.62427H62.6815V8.09305H66.6011V8.62427H64.9213V13.994H65.0218H65.1223V8.8253H66.8021V7.89202H62.4805V8.8253H64.1603V14.0944H65.1366V13.994H65.0361ZM70.6786 12.7161C71.1237 13.1612 71.6693 13.3909 72.301 13.3909C72.9328 13.3909 73.4927 13.1612 73.9234 12.7161C74.3685 12.271 74.5839 11.6968 74.5839 10.9933C74.5839 10.2898 74.3685 9.71537 73.9234 9.27029C73.4783 8.82521 72.9328 8.59553 72.301 8.59553C71.6693 8.59553 71.1237 8.82521 70.6786 9.27029C70.2335 9.71537 70.0182 10.2898 70.0182 10.9933C70.0182 11.6968 70.2335 12.271 70.6786 12.7161ZM74.4977 13.2186C73.9091 13.8216 73.1768 14.1231 72.301 14.1231C71.4252 14.1231 70.693 13.8216 70.1043 13.2186C69.5157 12.6156 69.2285 11.8691 69.2285 10.9933C69.2285 10.1175 69.5157 9.37083 70.1043 8.76781C70.693 8.1648 71.4252 7.86328 72.301 7.86328C73.1768 7.86328 73.9091 8.16481 74.4977 8.78218C75.0864 9.3852 75.3879 10.1317 75.3879 11.0075C75.3879 11.8833 75.0864 12.63 74.5121 13.233L74.4977 13.2186Z" fill="#0F20E8"/>
<path d="M70.6763 12.716L70.6045 12.7878C71.0639 13.2616 71.6383 13.4913 72.2987 13.4913C72.9591 13.4913 73.5334 13.2616 73.9929 12.7878C74.4523 12.314 74.682 11.711 74.682 10.9931C74.682 10.2753 74.4523 9.67224 73.9929 9.19845C73.5334 8.72465 72.9591 8.49477 72.2987 8.49477C71.6383 8.49477 71.0639 8.72465 70.6045 9.19845C70.1451 9.67224 69.9153 10.2753 69.9153 10.9931C69.9153 11.711 70.1451 12.314 70.6045 12.7878L70.6763 12.716L70.7481 12.6441C70.3174 12.2134 70.1163 11.6679 70.1163 10.9931C70.1163 10.3183 70.3317 9.77271 70.7481 9.34199C71.1788 8.91126 71.6813 8.69579 72.2987 8.69579C72.9161 8.69579 73.4329 8.91126 73.8493 9.34199C74.28 9.77271 74.481 10.3183 74.481 10.9931C74.481 11.6679 74.2657 12.2134 73.8493 12.6441C73.4186 13.0748 72.9161 13.2903 72.2987 13.2903C71.6813 13.2903 71.1645 13.0748 70.7481 12.6441L70.6763 12.716ZM74.4954 13.2184L74.4236 13.1468C73.8493 13.7354 73.1458 14.0225 72.2987 14.0225C71.4516 14.0225 70.7481 13.7354 70.1738 13.1468C69.5995 12.5581 69.3267 11.8402 69.3267 10.9931C69.3267 10.1317 69.6138 9.42817 70.1738 8.83951C70.7481 8.25085 71.4516 7.96355 72.2987 7.96355C73.1458 7.96355 73.8493 8.25069 74.4236 8.8537C74.9979 9.44236 75.2851 10.1602 75.2851 11.0073C75.2851 11.8688 74.9979 12.5723 74.4236 13.161L74.4954 13.2328L74.5672 13.3047C75.1702 12.6873 75.4717 11.9119 75.4717 11.0073C75.4717 10.1172 75.1702 9.3419 74.5528 8.71016C73.9498 8.07843 73.1888 7.7627 72.2843 7.7627C71.3798 7.7627 70.6189 8.07843 70.0158 8.71016C69.4128 9.32754 69.1113 10.1028 69.1113 11.0073C69.1113 11.9119 69.4128 12.6729 70.0158 13.3047C70.6189 13.9364 71.3798 14.2521 72.2843 14.2378C73.1888 14.2378 73.9498 13.922 74.5528 13.3047L74.481 13.2328L74.4954 13.2184ZM76.4624 13.9938V7.99229H77.3956L80.3102 12.6585H80.3389L80.3102 11.4956V7.97792H81.0855V13.9794H80.2815L77.2377 9.08347H77.209L77.2377 10.2465V13.9794H76.4624" fill="#0F20E8"/>
<path d="M76.4802 13.9942H76.5807V8.09333H77.356L80.2706 12.7595H80.4572L80.4285 11.4961V8.07896H81.0028V13.8793H80.3567L77.3129 8.98349H77.1263L77.155 10.247V13.8793H76.4802V13.9799V14.0803H77.356V10.247L77.3273 9.08391H77.2268V9.18451H77.2555V9.08391L77.1694 9.1414L80.2419 14.0803H81.2038V7.87793H80.2275V11.4961L80.2562 12.6589H80.3567V12.5585H80.328V12.6589L80.4142 12.6016L77.4709 7.8923H76.3797V14.0947H76.4802V13.9942ZM107.794 30.9935H109.66V18.4882H107.794V30.9935ZM124.578 22.9964L122.439 28.4234H122.381L120.17 22.9964H118.16L121.491 30.5771L119.596 34.7983H121.534L126.66 23.0108H124.592L124.578 22.9964ZM114.011 29.5721C113.393 29.5721 112.546 29.2706 112.546 28.5097C112.546 27.5477 113.609 27.1743 114.528 27.1743C115.346 27.1743 115.734 27.3467 116.236 27.5908C116.093 28.7537 115.102 29.5721 114.025 29.5721H114.011ZM114.24 22.7235C112.891 22.7235 111.498 23.3123 110.91 24.6332L112.561 25.3223C112.92 24.6332 113.566 24.4034 114.269 24.4034C115.231 24.4034 116.207 24.9777 116.222 26.0115V26.1406C115.877 25.954 115.159 25.6525 114.284 25.6525C112.503 25.6525 110.68 26.6288 110.68 28.4666C110.68 30.1464 112.144 31.2233 113.781 31.2233C115.03 31.2233 115.719 30.6633 116.164 30.0029H116.222V30.9647H118.016V26.1694C118.016 23.944 116.365 22.7092 114.226 22.7092L114.24 22.7235ZM102.726 24.5182H100.07V20.2254H102.726C104.118 20.2254 104.908 21.3739 104.908 22.3646C104.908 23.3553 104.118 24.5039 102.726 24.5039V24.5182ZM102.683 18.4882H98.2175V30.9935H100.084V26.2554H102.683C104.75 26.2554 106.775 24.7623 106.775 22.379C106.775 19.9956 104.75 18.5025 102.683 18.5025V18.4882ZM78.3323 29.5721C77.0401 29.5721 75.9633 28.4953 75.9633 27.0164C75.9633 25.5376 77.0401 24.4178 78.3323 24.4178C79.6245 24.4178 80.6008 25.5089 80.6008 27.0164C80.6008 28.524 79.6101 29.5721 78.3323 29.5721ZM80.4716 23.6856H80.4142C79.9978 23.1831 79.1938 22.7379 78.1744 22.7379C76.0495 22.7379 74.1112 24.6044 74.1112 27.0021C74.1112 29.3998 76.0638 31.2376 78.1744 31.2376C79.1938 31.2376 79.9978 30.7925 80.4142 30.2756H80.4716V30.8931C80.4716 32.5155 79.6101 33.3913 78.2031 33.3913C77.0545 33.3913 76.351 32.5728 76.0638 31.8693L74.4414 32.544C74.9009 33.6783 76.15 35.0566 78.2031 35.0566C80.3854 35.0566 82.2376 33.7645 82.2376 30.6202V22.9821H80.4716V23.6712V23.6856ZM83.5297 30.9791H85.3962V18.4738H83.5297V30.9791ZM88.1528 26.8585C88.1098 25.2218 89.4307 24.3747 90.3783 24.3747C91.1249 24.3747 91.7422 24.748 91.9576 25.2792L88.1672 26.8585H88.1528ZM93.9389 25.4371C93.58 24.4895 92.5032 22.7235 90.3065 22.7235C88.1098 22.7235 86.3007 24.4464 86.3007 26.9733C86.3007 29.3567 88.0954 31.2233 90.5219 31.2233C92.4745 31.2233 93.5943 30.0315 94.0681 29.3423L92.618 28.3805C92.1299 29.084 91.4694 29.5577 90.5219 29.5577C89.5743 29.5577 88.8994 29.127 88.4687 28.2655L94.1543 25.9109L93.9676 25.4228L93.9389 25.4371ZM48.6984 24.0301V25.8392H53.0057C52.8765 26.8586 52.5462 27.5907 52.0293 28.1076C51.3976 28.7393 50.4213 29.4286 48.6984 29.4286C46.0423 29.4286 43.9748 27.2893 43.9748 24.6332C43.9748 21.9771 46.0566 19.8377 48.6984 19.8377C50.1342 19.8377 51.1823 20.3977 51.9432 21.1299L53.221 19.852C52.1442 18.8183 50.7085 18.0286 48.6984 18.0286C45.066 18.0286 42.0078 21.0008 42.0078 24.6332C42.0078 28.2657 45.066 31.2376 48.6984 31.2376C50.6654 31.2376 52.1442 30.5915 53.2928 29.3855C54.4845 28.1938 54.8578 26.514 54.8578 25.1644C54.8578 24.7481 54.8291 24.3604 54.7573 24.0301H48.6984ZM59.768 29.5577C58.4759 29.5577 57.3703 28.4952 57.3703 26.9733C57.3703 25.4514 58.4759 24.3891 59.768 24.3891C61.0602 24.3891 62.1658 25.4371 62.1658 26.9733C62.1658 28.5096 61.0602 29.5577 59.768 29.5577ZM59.768 22.7235C57.4134 22.7235 55.5039 24.5182 55.5039 26.9733C55.5039 29.4284 57.4134 31.2233 59.768 31.2233C62.1227 31.2233 64.0322 29.4141 64.0322 26.9733C64.0322 24.5325 62.1227 22.7235 59.768 22.7235ZM69.0717 29.5577C67.7796 29.5577 66.674 28.4952 66.674 26.9733C66.674 25.4514 67.7796 24.3891 69.0717 24.3891C70.3639 24.3891 71.4694 25.4371 71.4694 26.9733C71.4694 28.5096 70.3639 29.5577 69.0717 29.5577ZM69.0717 22.7235C66.7171 22.7235 64.8075 24.5182 64.8075 26.9733C64.8075 29.4284 66.7171 31.2233 69.0717 31.2233C71.4264 31.2233 73.3359 29.4141 73.3359 26.9733C73.3359 24.5325 71.4264 22.7235 69.0717 22.7235Z" fill="#0F20E8"/>
<path d="M11.4243 33.4627C11.1371 33.1611 10.9648 32.673 10.9648 32.0556V31.9121C10.9648 32.5295 11.1371 33.0033 11.4243 33.3191L11.4961 33.391L11.4243 33.4627Z" fill="url(#paint0_linear_5555_10381)"/>
<path d="M11.7988 8.60977C11.4686 8.91128 11.2676 9.41383 11.2676 10.0886V31.912C11.2676 32.5294 11.4399 33.0031 11.727 33.319L11.7988 33.3908C12.0285 33.6062 12.33 33.721 12.6746 33.721C13.0192 33.721 13.3925 33.6062 13.7945 33.3908L28.2956 25.1353L33.2776 22.3067C33.9094 21.9478 34.2683 21.4885 34.3258 21.0147C34.2683 20.5409 33.9094 20.0814 33.2776 19.7081L28.2956 16.8797L13.7945 8.62414C13.3925 8.39442 13.0192 8.29395 12.6746 8.29395C12.33 8.29395 12.0285 8.40878 11.7988 8.62414V8.60977Z" fill="#00C1FF"/>
<path d="M11.7988 33.3904L11.727 33.3186C11.4399 33.0171 11.2676 32.529 11.2676 31.9116V10.0882C11.2676 9.41344 11.4686 8.91088 11.7988 8.60938L24.175 20.9999L11.7988 33.3904Z" fill="url(#paint1_linear_5555_10381)"/>
<path d="M28.2944 25.1342L24.1738 20.9992L28.2944 16.8643L33.2765 19.6926C33.9082 20.0516 34.2672 20.5111 34.3246 20.9849C34.2672 21.4587 33.9082 21.9181 33.2765 22.2771L28.2944 25.1055" fill="url(#paint2_linear_5555_10381)"/>
<path d="M12.6864 33.7207C12.3418 33.7207 12.0403 33.6059 11.8105 33.3905L24.1867 21L28.3073 25.135L13.8062 33.3905C13.4042 33.6203 13.0309 33.7207 12.6864 33.7207Z" fill="url(#paint3_linear_5555_10381)"/>
<path d="M24.1711 21L11.7949 8.60949C12.0246 8.39413 12.3262 8.2793 12.6707 8.2793C13.0153 8.2793 13.3886 8.39413 13.7906 8.60949L28.2917 16.8651L24.1711 21Z" fill="url(#paint4_linear_5555_10381)"/>
<path d="M28.3947 25.2203L28.3086 25.1343L33.2907 22.3057C33.9224 21.9468 34.2813 21.4875 34.3387 21.0137C34.3387 21.186 34.2957 21.3582 34.2239 21.5305C34.0659 21.8751 33.7644 22.191 33.2907 22.4638L28.4091 25.2491" fill="url(#paint5_linear_5555_10381)"/>
<path d="M34.3231 20.9998C34.2657 20.526 33.9068 20.0665 33.275 19.7076L28.293 16.8792L28.3791 16.793L33.2607 19.5784C33.9642 19.9804 34.3088 20.4973 34.3088 21.0285" fill="url(#paint6_linear_5555_10381)"/>
<defs>
<linearGradient id="paint0_linear_5555_10381" x1="3387.04" y1="5389.5" x2="3367.66" y2="5408.75" gradientUnits="userSpaceOnUse">
<stop stop-color="#008DE0"/>
<stop offset="0.26" stop-color="#00A7E0"/>
<stop offset="0.51" stop-color="#00B8E0"/>
<stop offset="0.76" stop-color="#00C4E0"/>
<stop offset="1" stop-color="#00C7E0"/>
</linearGradient>
<linearGradient id="paint1_linear_5555_10381" x1="64860.8" y1="101895" x2="64429.3" y2="102327" gradientUnits="userSpaceOnUse">
<stop stop-color="#00A1FF"/>
<stop offset="0.26" stop-color="#00BEFF"/>
<stop offset="0.51" stop-color="#00D2FF"/>
<stop offset="0.76" stop-color="#00DFFF"/>
<stop offset="1" stop-color="#00E3FF"/>
</linearGradient>
<linearGradient id="paint2_linear_5555_10381" x1="27663.7" y1="51634.7" x2="27163" y2="51634.7" gradientUnits="userSpaceOnUse">
<stop stop-color="#FFE000"/>
<stop offset="0.41" stop-color="#FFBD00"/>
<stop offset="0.78" stop-color="#FFA500"/>
<stop offset="1" stop-color="#FF9C00"/>
</linearGradient>
<linearGradient id="paint3_linear_5555_10381" x1="46963.8" y1="78749.1" x2="46371.4" y2="79338" gradientUnits="userSpaceOnUse">
<stop stop-color="#FF3A44"/>
<stop offset="1" stop-color="#C31162"/>
</linearGradient>
<linearGradient id="paint4_linear_5555_10381" x1="46387" y1="82303.9" x2="46651" y2="82566.7" gradientUnits="userSpaceOnUse">
<stop stop-color="#32A071"/>
<stop offset="0.07" stop-color="#2DA771"/>
<stop offset="0.48" stop-color="#15CF74"/>
<stop offset="0.8" stop-color="#06E775"/>
<stop offset="1" stop-color="#00F076"/>
</linearGradient>
<linearGradient id="paint5_linear_5555_10381" x1="14398.6" y1="28340.7" x2="14122.6" y2="28340.7" gradientUnits="userSpaceOnUse">
<stop stop-color="#E0C500"/>
<stop offset="0.41" stop-color="#E0A600"/>
<stop offset="0.78" stop-color="#E09100"/>
<stop offset="1" stop-color="#E08900"/>
</linearGradient>
<linearGradient id="paint6_linear_5555_10381" x1="14399" y1="28761.7" x2="14122.9" y2="28761.7" gradientUnits="userSpaceOnUse">
<stop stop-color="#FFE840"/>
<stop offset="0.41" stop-color="#FFCE40"/>
<stop offset="0.78" stop-color="#FFBC40"/>
<stop offset="1" stop-color="#FFB540"/>
</linearGradient>
</defs>
</svg>
