<svg width="17" height="16" viewBox="0 0 17 16" fill="none" xmlns="http://www.w3.org/2000/svg">
<path fill-rule="evenodd" clip-rule="evenodd" d="M0 7.99807C0 7.59787 0.32443 7.27344 0.724635 7.27344H15.2826C15.6828 7.27344 16.0072 7.59787 16.0072 7.99807C16.0072 8.39828 15.6828 8.72271 15.2826 8.72271H0.724635C0.32443 8.72271 0 8.39828 0 7.99807Z" fill="#0F20E8"/>
<path fill-rule="evenodd" clip-rule="evenodd" d="M7.99905 0C8.39925 0 8.72368 0.32443 8.72368 0.724635V15.2754C8.72368 15.6756 8.39925 16 7.99905 16C7.59884 16 7.27441 15.6756 7.27441 15.2754V0.724635C7.27441 0.32443 7.59884 0 7.99905 0Z" fill="#0F20E8"/>
<path fill-rule="evenodd" clip-rule="evenodd" d="M7.99997 1.44927C4.38212 1.44927 1.44927 4.38214 1.44927 8C1.44927 11.6179 4.38212 14.5507 7.99997 14.5507C11.6178 14.5507 14.5507 11.6179 14.5507 8C14.5507 4.38214 11.6178 1.44927 7.99997 1.44927ZM0 8C0 3.58174 3.5817 0 7.99997 0C12.4182 0 15.9999 3.58174 15.9999 8C15.9999 12.4183 12.4182 16 7.99997 16C3.5817 16 0 12.4183 0 8Z" fill="#0F20E8"/>
</svg>
