<svg width="25" height="24" viewBox="0 0 25 24" fill="none" xmlns="http://www.w3.org/2000/svg">
<path fill-rule="evenodd" clip-rule="evenodd" d="M0.669922 1.08696C0.669922 0.486647 1.15657 0 1.75688 0C14.4115 0 24.6699 10.2584 24.6699 22.913C24.6699 23.5134 24.1833 24 23.583 24H1.75688C1.15657 24 0.669922 23.5134 0.669922 22.913V1.08696ZM2.84383 2.20191V21.8261H22.468C21.9213 11.2373 13.4326 2.74863 2.84383 2.20191Z" fill="#0F20E8"/>
<path d="M16.626 9.93467C18.469 9.93467 19.963 8.44065 19.963 6.5977C19.963 4.75476 18.469 3.26074 16.626 3.26074C14.7831 3.26074 13.2891 4.75476 13.2891 6.5977C13.2891 8.44065 14.7831 9.93467 16.626 9.93467Z" fill="#F1F1F5"/>
<path fill-rule="evenodd" clip-rule="evenodd" d="M16.6261 4.34774C15.3834 4.34774 14.3761 5.35511 14.3761 6.59775C14.3761 7.84039 15.3834 8.84775 16.6261 8.84775C17.8687 8.84775 18.8761 7.84039 18.8761 6.59775C18.8761 5.35511 17.8687 4.34774 16.6261 4.34774ZM12.2021 6.59775C12.2021 4.15449 14.1828 2.17383 16.6261 2.17383C19.0693 2.17383 21.05 4.15449 21.05 6.59775C21.05 9.041 19.0693 11.0217 16.6261 11.0217C14.1828 11.0217 12.2021 9.041 12.2021 6.59775Z" fill="#0F20E8"/>
<path d="M15.213 22.9132V19.5762C15.213 17.7393 13.7238 16.2393 11.876 16.2393C10.0282 16.2393 8.53906 17.7284 8.53906 19.5762V22.9132H15.213Z" fill="#F1F1F5"/>
<path fill-rule="evenodd" clip-rule="evenodd" d="M7.45215 19.5758C7.45215 17.1276 9.42793 15.1519 11.8761 15.1519C14.3265 15.1519 16.3 17.1408 16.3 19.5758V22.9127H15.213V23.9997H8.5391C7.9388 23.9997 7.45215 23.513 7.45215 22.9127V19.5758ZM14.1261 21.8258V19.5758C14.1261 18.3368 13.1213 17.3258 11.8761 17.3258C10.6286 17.3258 9.62606 18.3283 9.62606 19.5758V21.8258H14.1261Z" fill="#0F20E8"/>
</svg>
