<svg width="43" height="15" viewBox="0 0 43 15" fill="none" xmlns="http://www.w3.org/2000/svg">
<rect width="43" height="15" rx="2" fill="#F4F5FC"/>
<path d="M17.8811 5.61971V7.73594H15.1891V5.89298C15.1891 5.74152 15.0318 5.61865 14.8379 5.61865H13.9265V10.6847C13.9265 10.8361 14.0838 10.959 14.2778 10.959H15.1891V8.59599H17.8824V10.6836C17.8797 10.8351 18.0343 10.9601 18.2283 10.9622H18.2337H19.145V5.89298C19.145 5.74152 18.9877 5.61865 18.7938 5.61865H17.8811V5.61971ZM23.2271 6.94368V9.48251C23.2298 9.71341 23.0752 9.92843 22.8202 10.0471C22.1069 10.369 21.3678 9.9655 21.3678 9.43591V7.218C21.3678 7.06654 21.2105 6.94368 21.0165 6.94368H20.1052V9.527C20.1079 10.3595 20.9704 11.0331 22.0364 11.0374H22.5544C23.6217 11.0353 24.4869 10.3595 24.4897 9.52594V7.218C24.4897 7.06654 24.3323 6.94368 24.1384 6.94368H23.2271Z" fill="#1B2143"/>
<path d="M37.0151 10.9621H37.9264V7.36515C37.9264 7.21368 37.7691 7.09082 37.5752 7.09082H36.6638V10.6857C36.6625 10.8371 36.8184 10.961 37.0124 10.9621H37.0151Z" fill="#2CA6E0"/>
<path d="M37.9457 6.37137C38.0944 6.09087 37.9239 5.7693 37.5647 5.65311C37.2056 5.53693 36.7939 5.67013 36.6451 5.95062C36.4963 6.23111 36.6669 6.55268 37.026 6.66887C37.3852 6.78506 37.7969 6.65186 37.9457 6.37137Z" fill="#2CA6E0"/>
<path d="M27.7472 6.94141C26.425 6.94141 25.3428 7.67965 25.3428 8.71234V9.27053C25.3428 10.3032 26.425 11.0372 27.7472 11.0372C29.0695 11.0372 30.1517 10.3032 30.1517 9.27053V8.71234C30.1531 7.67965 29.0709 6.94141 27.7472 6.94141ZM28.8837 9.33725C28.8837 9.82553 28.3724 10.1507 27.7459 10.1507C27.1193 10.1507 26.6094 9.82553 26.6094 9.33725V8.64032C26.6094 8.15204 27.1207 7.82687 27.7459 7.82687C28.3711 7.82687 28.8837 8.15204 28.8837 8.64032V9.33725Z" fill="#1B2143"/>
<path d="M33.409 6.94163C33.013 6.93952 32.6224 7.00942 32.2658 7.14394V5.89835C32.2658 5.74689 32.1084 5.62402 31.9145 5.62402H31.0032V9.27075C31.0032 10.3034 32.0854 11.0375 33.4076 11.0375C34.7299 11.0375 35.8121 10.3034 35.8121 9.27075V8.71257C35.8135 7.67988 34.734 6.94163 33.409 6.94163ZM34.5468 9.33748C34.5468 9.82576 34.0356 10.1509 33.409 10.1509C32.7838 10.1509 32.2725 9.82576 32.2725 9.33748V8.64055C32.2725 8.15227 32.7838 7.8271 33.409 7.8271C34.0342 7.8271 34.5468 8.15227 34.5468 8.64055V9.33748Z" fill="#2CA6E0"/>
<path d="M10.1105 6.05696C10.1105 4.98084 9.43919 4.05406 8.92792 3.75326C8.92792 3.75326 8.88859 3.73631 8.89266 3.77974C8.85062 5.85889 7.49039 6.42237 6.74314 7.18074C5.01811 8.93261 6.62109 10.8529 8.25662 11.2077C9.16796 11.4068 8.04506 10.8561 7.89995 9.69415C7.72229 8.29181 10.1105 7.21993 10.1105 6.05696Z" fill="#1B2143"/>
<path d="M10.8941 6.76577C10.8833 6.76048 10.8684 6.75624 10.8589 6.77001C10.8304 7.03163 10.4886 7.59087 10.0547 8.10563C8.58322 9.84902 9.42133 10.69 9.89327 11.1423C10.1672 11.4039 9.89327 11.1423 10.5768 10.8743C11.4217 10.4739 11.9696 9.78124 12.0509 9.01228C12.1852 7.77305 11.2332 6.99244 10.8941 6.76577Z" fill="#2CA6E0"/>
</svg>
