<svg width="92" height="85" viewBox="0 0 92 85" fill="none" xmlns="http://www.w3.org/2000/svg">
<g opacity="0.2">
<path fill-rule="evenodd" clip-rule="evenodd" d="M52.4997 9.72444C28.879 9.72444 9.7307 28.8439 9.7307 52.4293C9.7307 76.0148 28.8791 95.1348 52.4997 95.1348C76.1203 95.1348 95.2685 76.0149 95.2685 52.4293C95.2685 28.8439 76.1203 9.72444 52.4997 9.72444ZM0.268555 52.4293C0.268555 23.6258 23.6533 0.276367 52.4997 0.276367C81.346 0.276367 104.731 23.6258 104.731 52.4293C104.731 81.2328 81.3461 104.583 52.4997 104.583C23.6532 104.583 0.268555 81.2328 0.268555 52.4293Z" fill="#0F20E8"/>
<path fill-rule="evenodd" clip-rule="evenodd" d="M49.2965 49.0887C51.1441 47.2439 54.1397 47.2439 55.9873 49.0887L89.5779 82.6293C91.1717 84.2207 91.4198 86.7138 90.1708 88.5873L90.0763 88.7292C89.903 88.9891 89.7044 89.2312 89.4833 89.4519C69.0899 109.815 36.0047 109.815 15.6113 89.4519C14.724 88.566 14.2256 87.3644 14.2256 86.1115V86.0642C14.2256 84.8113 14.724 83.6098 15.6113 82.7238L49.2965 49.0887ZM52.6419 59.1099L25.8042 85.9076C41.4208 98.427 63.809 98.3989 79.3952 85.8233L52.6419 59.1099Z" fill="#0F20E8"/>
<path d="M52.5941 71.5147C63.1502 71.5147 71.7076 62.9698 71.7076 52.4294C71.7076 41.889 63.1502 33.3447 52.5941 33.3447C42.0379 33.3447 33.4805 41.889 33.4805 52.4294C33.4805 62.9698 42.0379 71.5147 52.5941 71.5147Z" fill="white"/>
<path fill-rule="evenodd" clip-rule="evenodd" d="M52.5947 38.0682C44.6513 38.0682 38.2122 44.4976 38.2122 52.4289C38.2122 60.3603 44.6515 66.7901 52.5947 66.7901C60.5378 66.7901 66.9771 60.3603 66.9771 52.4289C66.9771 44.4976 60.538 38.0682 52.5947 38.0682ZM28.75 52.4289C28.75 39.2793 39.4258 28.6201 52.5947 28.6201C65.7636 28.6201 76.4393 39.2793 76.4393 52.4289C76.4393 65.5782 65.7638 76.2382 52.5947 76.2382C39.4256 76.2382 28.75 65.5782 28.75 52.4289Z" fill="#0F20E8"/>
</g>
</svg>
