<svg width="24" height="24" viewBox="0 0 24 24" fill="none" xmlns="http://www.w3.org/2000/svg">
<path fill-rule="evenodd" clip-rule="evenodd" d="M12.087 9.75C12.6873 9.75 13.1739 10.2366 13.1739 10.837V16.2391C13.1739 16.8394 12.6873 17.3261 12.087 17.3261C11.4866 17.3261 11 16.8394 11 16.2391V10.837C11 10.2366 11.4866 9.75 12.087 9.75Z" fill="#FFAB00"/>
<path fill-rule="evenodd" clip-rule="evenodd" d="M12 2.17391C6.57319 2.17391 2.17391 6.57321 2.17391 12C2.17391 17.4268 6.57318 21.8261 12 21.8261C17.4268 21.8261 21.8261 17.4268 21.8261 12C21.8261 6.57322 17.4268 2.17391 12 2.17391ZM0 12C0 5.3726 5.37256 0 12 0C18.6274 0 24 5.37259 24 12C24 18.6274 18.6274 24 12 24C5.37256 24 0 18.6274 0 12Z" fill="#FFAB00"/>
<circle cx="12.0869" cy="7.53003" r="1" fill="#FFAB00"/>
</svg>
