<svg width="84" height="100" viewBox="0 0 84 100" fill="none" xmlns="http://www.w3.org/2000/svg">
<path d="M41.5007 77.84H41.3507C41.0707 77.84 40.8507 77.62 40.8507 77.34C40.8507 77.06 41.0707 76.84 41.3507 76.84H41.5007H41.6907C41.9607 76.84 42.1907 77.06 42.1907 77.34C42.1907 77.62 41.9707 77.84 41.6907 77.84H41.4807H41.5007ZM36.3207 77.49C36.3207 77.49 36.2807 77.49 36.2507 77.49L36.0407 77.46C35.7707 77.42 35.5807 77.17 35.6107 76.9C35.6507 76.63 35.9107 76.44 36.1707 76.47L36.3707 76.5C36.6407 76.54 36.8407 76.79 36.8007 77.06C36.7707 77.31 36.5507 77.5 36.3007 77.5L36.3207 77.49ZM46.7307 77.49C46.4807 77.49 46.2707 77.31 46.2407 77.06C46.2007 76.79 46.3907 76.53 46.6707 76.5L46.8707 76.47C47.1307 76.43 47.4007 76.62 47.4307 76.9C47.4707 77.17 47.2807 77.43 47.0007 77.46L46.8007 77.49C46.8007 77.49 46.7507 77.49 46.7307 77.49ZM31.1907 76.44C31.1907 76.44 31.1007 76.44 31.0607 76.42L30.8607 76.36C30.6007 76.28 30.4407 76.01 30.5207 75.74C30.6007 75.47 30.8707 75.32 31.1407 75.4L31.3307 75.45C31.6007 75.52 31.7507 75.8 31.6807 76.07C31.6207 76.29 31.4207 76.44 31.2007 76.44H31.1907ZM51.8607 76.43C51.6407 76.43 51.4407 76.29 51.3807 76.06C51.3107 75.79 51.4607 75.52 51.7307 75.44L51.9207 75.39C52.1907 75.31 52.4607 75.47 52.5407 75.73C52.6207 76 52.4607 76.27 52.2007 76.35L52.0007 76.41C52.0007 76.41 51.9107 76.43 51.8707 76.43H51.8607ZM26.2407 74.7C26.1707 74.7 26.1107 74.69 26.0407 74.66L25.8607 74.58C25.6107 74.47 25.4907 74.18 25.6007 73.92C25.7107 73.67 26.0107 73.55 26.2607 73.66L26.4407 73.74C26.6907 73.85 26.8107 74.14 26.7007 74.4C26.6207 74.59 26.4307 74.7 26.2407 74.7ZM56.8007 74.68C56.6107 74.68 56.4207 74.57 56.3407 74.38C56.2307 74.13 56.3407 73.83 56.6007 73.72L56.7907 73.64C57.0407 73.53 57.3407 73.64 57.4507 73.9C57.5607 74.15 57.4507 74.45 57.1907 74.56L57.0007 74.64C56.9307 74.67 56.8707 74.68 56.8007 74.68ZM21.5907 72.3C21.5007 72.3 21.4107 72.28 21.3307 72.23L21.1607 72.13C20.9207 71.99 20.8507 71.68 20.9907 71.44C21.1307 71.2 21.4407 71.13 21.6807 71.27L21.8507 71.38C22.0907 71.52 22.1607 71.83 22.0207 72.07C21.9307 72.22 21.7607 72.31 21.5907 72.31V72.3ZM61.4507 72.27C61.2807 72.27 61.1207 72.19 61.0207 72.03C60.8807 71.79 60.9507 71.49 61.1907 71.34L61.3607 71.23C61.6007 71.09 61.9007 71.16 62.0507 71.4C62.1907 71.64 62.1207 71.94 61.8807 72.09L61.7107 72.2C61.6307 72.25 61.5407 72.27 61.4507 72.27ZM17.3007 69.29C17.1907 69.29 17.0807 69.25 16.9907 69.18L16.8307 69.05C16.6207 68.87 16.5907 68.56 16.7607 68.35C16.9407 68.14 17.2507 68.11 17.4607 68.28L17.6107 68.4C17.8207 68.57 17.8607 68.89 17.6907 69.1C17.5907 69.22 17.4507 69.29 17.3007 69.29ZM65.7307 69.25C65.5907 69.25 65.4407 69.19 65.3407 69.07C65.1707 68.86 65.2007 68.54 65.4107 68.37L65.5707 68.24C65.7807 68.07 66.1007 68.1 66.2707 68.31C66.4407 68.52 66.4107 68.84 66.2007 69.01L66.0507 69.14C65.9607 69.22 65.8407 69.25 65.7307 69.25ZM13.4607 65.72C13.3307 65.72 13.1907 65.67 13.1007 65.56L12.9607 65.41C12.7707 65.21 12.7807 64.89 12.9907 64.7C13.1907 64.51 13.5107 64.52 13.7007 64.73L13.8407 64.88C14.0307 65.08 14.0207 65.4 13.8207 65.59C13.7207 65.68 13.6007 65.73 13.4807 65.73L13.4607 65.72ZM69.5607 65.67C69.4407 65.67 69.3207 65.63 69.2207 65.54C69.0207 65.35 69.0107 65.04 69.1907 64.83L69.3307 64.68C69.5207 64.48 69.8407 64.47 70.0407 64.65C70.2407 64.84 70.2507 65.15 70.0707 65.36L69.9307 65.51C69.8307 65.62 69.7007 65.67 69.5607 65.67ZM10.1407 61.66C9.98073 61.66 9.83073 61.59 9.73073 61.45L9.62073 61.29C9.46073 61.06 9.51073 60.75 9.74073 60.59C9.96073 60.43 10.2807 60.48 10.4407 60.71L10.5607 60.88C10.7207 61.11 10.6607 61.42 10.4407 61.58C10.3507 61.64 10.2507 61.67 10.1507 61.67L10.1407 61.66ZM72.8707 61.61C72.7707 61.61 72.6707 61.58 72.5807 61.52C72.3607 61.36 72.3007 61.05 72.4607 60.82L72.5707 60.66C72.7307 60.43 73.0407 60.37 73.2707 60.53C73.5007 60.69 73.5607 61 73.4007 61.22L73.2807 61.39C73.1807 61.53 73.0307 61.6 72.8707 61.6V61.61ZM7.42073 57.17C7.24073 57.17 7.06073 57.07 6.97073 56.9L6.88073 56.72C6.75073 56.47 6.85073 56.17 7.09073 56.05C7.33073 55.92 7.64073 56.02 7.76073 56.26L7.85073 56.44C7.98073 56.69 7.88073 56.99 7.63073 57.11C7.56073 57.15 7.48073 57.17 7.40073 57.17H7.42073ZM75.6207 57.12C75.5407 57.12 75.4607 57.1 75.3907 57.06C75.1507 56.93 75.0507 56.63 75.1807 56.38L75.2707 56.21C75.3907 55.96 75.7007 55.87 75.9407 55.99C76.1907 56.11 76.2807 56.42 76.1607 56.66L76.0607 56.84C75.9707 57.01 75.8007 57.11 75.6207 57.11V57.12ZM5.32073 52.37C5.12073 52.37 4.92073 52.24 4.85073 52.04L4.78073 51.84C4.69073 51.58 4.83073 51.29 5.09073 51.2C5.35073 51.11 5.64073 51.25 5.73073 51.51L5.80073 51.7C5.89073 51.96 5.76073 52.25 5.50073 52.34C5.44073 52.36 5.39073 52.37 5.33073 52.37H5.32073ZM77.7107 52.32C77.6507 52.32 77.6007 52.32 77.5407 52.29C77.2807 52.2 77.1407 51.91 77.2407 51.65L77.3107 51.46C77.4007 51.2 77.6907 51.06 77.9507 51.16C78.2107 51.25 78.3507 51.54 78.2507 51.8L78.1807 51.99C78.1107 52.2 77.9107 52.32 77.7107 52.32ZM3.89073 47.32C3.66073 47.32 3.45073 47.16 3.40073 46.92L3.36073 46.72C3.30073 46.45 3.48073 46.18 3.75073 46.13C4.02073 46.08 4.29073 46.25 4.34073 46.52L4.38073 46.72C4.44073 46.99 4.26073 47.26 3.99073 47.31C3.96073 47.31 3.92073 47.32 3.89073 47.32ZM79.1207 47.27C79.1207 47.27 79.0507 47.27 79.0207 47.26C78.7507 47.2 78.5807 46.94 78.6307 46.67L78.6707 46.48C78.7207 46.21 78.9807 46.03 79.2607 46.08C79.5307 46.13 79.7107 46.39 79.6607 46.67L79.6207 46.87C79.5707 47.11 79.3607 47.27 79.1307 47.27H79.1207ZM79.8307 42.08C79.8307 42.08 79.8007 42.08 79.7907 42.08C79.5107 42.06 79.3107 41.82 79.3307 41.54V41.35C79.3507 41.07 79.5707 40.85 79.8607 40.87C80.1407 40.88 80.3507 41.12 80.3407 41.39V41.61C80.3107 41.87 80.0907 42.07 79.8307 42.07V42.08ZM2.66073 41.67V41.46C2.63073 41.18 2.84073 40.95 3.12073 40.93C3.39073 40.91 3.63073 41.12 3.65073 41.4V41.59L2.67073 41.67H2.66073ZM3.15073 36.89C3.15073 36.89 3.14073 36.89 3.13073 36.89C2.85073 36.88 2.64073 36.64 2.65073 36.37V36.15C2.68073 35.87 2.95073 35.67 3.20073 35.69C3.48073 35.71 3.68073 35.95 3.66073 36.23V36.42C3.64073 36.69 3.41073 36.9 3.15073 36.9V36.89ZM79.8307 36.84C79.5707 36.84 79.3507 36.64 79.3307 36.38V36.18C79.3007 35.9 79.5007 35.67 79.7807 35.65C80.0607 35.63 80.2907 35.84 80.3207 36.11V36.31C80.3507 36.59 80.1507 36.82 79.8707 36.84C79.8607 36.84 79.8507 36.84 79.8307 36.84ZM3.86073 31.69C3.86073 31.69 3.80073 31.69 3.76073 31.69C3.49073 31.64 3.31073 31.38 3.36073 31.1L3.40073 30.9C3.46073 30.63 3.72073 30.46 3.99073 30.51C4.26073 30.57 4.43073 30.83 4.38073 31.1L4.34073 31.29C4.29073 31.53 4.08073 31.69 3.85073 31.69H3.86073ZM79.1407 31.64C78.9107 31.64 78.7007 31.48 78.6507 31.24L78.6107 31.05C78.5507 30.78 78.7207 30.51 78.9907 30.45C79.2607 30.39 79.5307 30.56 79.5907 30.83L79.6307 31.03C79.6907 31.3 79.5107 31.57 79.2407 31.62C79.2107 31.62 79.1707 31.63 79.1407 31.63V31.64ZM5.25073 26.64C5.19073 26.64 5.13073 26.64 5.08073 26.61C4.82073 26.51 4.69073 26.23 4.79073 25.97L4.86073 25.79C4.95073 25.53 5.24073 25.4 5.50073 25.49C5.76073 25.58 5.90073 25.87 5.80073 26.13L5.73073 26.33C5.65073 26.53 5.46073 26.66 5.26073 26.66L5.25073 26.64ZM77.7307 26.59C77.5207 26.59 77.3307 26.46 77.2607 26.26L77.1907 26.07C77.1007 25.81 77.2307 25.52 77.4907 25.43C77.7507 25.33 78.0407 25.47 78.1307 25.73L78.2007 25.93C78.2907 26.19 78.1607 26.48 77.9007 26.57C77.8407 26.59 77.7907 26.6 77.7307 26.6V26.59ZM7.33073 21.82C7.25073 21.82 7.18073 21.8 7.10073 21.77C6.85073 21.65 6.76073 21.34 6.88073 21.1L6.98073 20.92C7.11073 20.67 7.41073 20.58 7.65073 20.71C7.89073 20.84 7.99073 21.14 7.86073 21.39L7.77073 21.56C7.68073 21.73 7.51073 21.83 7.32073 21.83L7.33073 21.82ZM75.2007 21.5L75.6407 21.27L75.1807 21.46L75.1007 21.31C74.9707 21.06 75.0707 20.76 75.3207 20.64C75.5707 20.52 75.8707 20.61 75.9907 20.86L76.0607 21L75.1907 21.5H75.2007ZM10.0507 17.34C9.95073 17.34 9.85073 17.31 9.77073 17.25C9.54073 17.09 9.49073 16.78 9.64073 16.55L9.76073 16.38C9.92073 16.15 10.2307 16.1 10.4607 16.26C10.6807 16.42 10.7407 16.73 10.5807 16.96L10.4707 17.12C10.3707 17.26 10.2207 17.34 10.0607 17.34H10.0507ZM72.5207 17.08L72.9307 16.79L72.4907 17.04L72.4007 16.92C72.2407 16.69 72.3007 16.38 72.5207 16.22C72.7507 16.06 73.0607 16.12 73.2207 16.34L73.3007 16.46L72.9207 16.79L72.5107 17.08H72.5207ZM13.3507 13.27C13.2307 13.27 13.1107 13.23 13.0107 13.14C12.8107 12.95 12.8007 12.64 12.9807 12.43L13.1207 12.28C13.3107 12.08 13.6307 12.07 13.8307 12.26C14.0307 12.45 14.0407 12.77 13.8507 12.97L13.7107 13.12C13.6107 13.23 13.4807 13.28 13.3407 13.28L13.3507 13.27ZM69.6207 13.22C69.4907 13.22 69.3507 13.17 69.2507 13.06L69.1207 12.92C68.9307 12.72 68.9407 12.4 69.1407 12.21C69.3407 12.02 69.6607 12.03 69.8507 12.23L69.9907 12.38C70.1807 12.58 70.1707 12.9 69.9607 13.09C69.8607 13.18 69.7407 13.22 69.6207 13.22ZM17.1707 9.68C17.0207 9.68 16.8807 9.62 16.7807 9.49C16.6107 9.28 16.6407 8.96 16.8607 8.79L17.0207 8.66C17.2307 8.49 17.5507 8.52 17.7207 8.74C17.8907 8.95 17.8607 9.27 17.6407 9.44L17.4807 9.57C17.3907 9.64 17.2807 9.68 17.1707 9.68ZM65.8007 9.64C65.6907 9.64 65.5807 9.6 65.4807 9.53L65.3307 9.41C65.1107 9.24 65.0807 8.92 65.2507 8.71C65.4207 8.49 65.7407 8.46 65.9507 8.63L66.1107 8.76C66.3207 8.94 66.3507 9.25 66.1807 9.46C66.0807 9.58 65.9407 9.64 65.7907 9.64H65.8007ZM21.4407 6.64C21.2707 6.64 21.1107 6.56 21.0107 6.4C20.8707 6.16 20.9407 5.86 21.1807 5.71L21.3507 5.6C21.5907 5.45 21.8907 5.53 22.0407 5.77C22.1807 6.01 22.1107 6.31 21.8707 6.46L21.7007 6.57C21.6207 6.62 21.5307 6.64 21.4407 6.64ZM61.2607 6.53L61.5207 6.1L61.1807 6.48L61.0807 6.42C60.8407 6.28 60.7707 5.97 60.9107 5.73C61.0507 5.49 61.3607 5.42 61.6007 5.56L61.6907 5.62L61.5107 6.1L61.2507 6.53H61.2607ZM26.0807 4.21C25.8907 4.21 25.7007 4.1 25.6207 3.91C25.5107 3.66 25.6207 3.36 25.8807 3.25L26.0707 3.17C26.3207 3.06 26.6207 3.17 26.7307 3.43C26.8407 3.69 26.7307 3.98 26.4707 4.09L26.2807 4.17C26.2107 4.2 26.1507 4.21 26.0807 4.21ZM56.8707 4.19C56.8007 4.19 56.7407 4.18 56.6707 4.15L56.4907 4.07C56.2407 3.96 56.1207 3.67 56.2307 3.41C56.3407 3.15 56.6407 3.04 56.8907 3.15L57.0707 3.23C57.3207 3.34 57.4407 3.63 57.3307 3.89C57.2507 4.08 57.0607 4.19 56.8707 4.19ZM31.0207 2.44C30.8007 2.44 30.6007 2.29 30.5407 2.07C30.4707 1.8 30.6207 1.53 30.8907 1.45L31.0807 1.4C31.3507 1.32 31.6207 1.48 31.7007 1.75C31.7707 2.02 31.6207 2.29 31.3507 2.37L31.1507 2.42C31.1507 2.42 31.0607 2.44 31.0207 2.44ZM51.9407 2.43C51.9407 2.43 51.8507 2.43 51.8107 2.41L51.6207 2.36C51.3507 2.29 51.2007 2.01 51.2707 1.74C51.3407 1.47 51.6207 1.32 51.8907 1.39L52.0907 1.44C52.3607 1.51 52.5107 1.79 52.4407 2.06C52.3807 2.28 52.1807 2.43 51.9607 2.43H51.9407ZM46.8107 1.36C46.8107 1.36 46.7607 1.36 46.7407 1.36L46.5407 1.33C46.2707 1.29 46.0707 1.04 46.1107 0.77C46.1507 0.5 46.4007 0.3 46.6707 0.34L46.8807 0.37C47.1507 0.41 47.3407 0.66 47.3107 0.93C47.2707 1.18 47.0607 1.36 46.8207 1.36H46.8107ZM36.2607 1.36L36.0807 0.38L36.2807 0.35C36.5507 0.31 36.8007 0.51 36.8407 0.78C36.8807 1.05 36.6807 1.3 36.4107 1.34L36.2607 1.36ZM41.5807 1H41.3807C41.1007 1 40.8807 0.78 40.8807 0.5C40.8807 0.22 41.1007 0 41.3807 0H41.5107C41.7907 0 42.0507 0.22 42.0507 0.5C42.0507 0.78 41.8607 1 41.5907 1H41.5807Z" fill="#0B00DB"/>
<path d="M82.57 62.26V71.16C82.56 78.14 78.56 85.13 70.58 90.47C62.52 95.86 51.94 98.54 41.37 98.52C30.93 98.5 20.51 95.84 12.54 90.54C4.50002 85.19 0.490019 78.17 0.500019 71.15V62.25" fill="#BDBFF2"/>
<path d="M41.5 99.01H41.38C30.4 98.99 20.06 96.13 12.28 90.95C4.34002 85.68 -0.0099828 78.65 1.7203e-05 71.15V62.25C1.7203e-05 61.97 0.220017 61.75 0.500017 61.75C0.780017 61.75 1.00002 61.97 1.00002 62.25V71.15C0.990017 78.3 5.19002 85.04 12.82 90.11C20.44 95.18 30.58 97.98 41.37 98H41.49C52.38 98 62.61 95.17 70.3 90.04C77.88 84.97 82.06 78.26 82.07 71.15V62.25C82.07 61.97 82.29 61.75 82.57 61.75C82.85 61.75 83.07 61.97 83.07 62.25V71.15C83.06 78.61 78.72 85.61 70.85 90.87C63 96.12 52.58 99 41.49 99L41.5 99.01Z" fill="#0B00DB"/>
<path d="M12.49 42.9484C4.51002 48.2884 0.510019 55.2684 0.500019 62.2584C0.490019 69.2784 4.50002 76.2984 12.54 81.6384C20.51 86.9384 30.93 89.5884 41.37 89.6184C51.94 89.6384 62.52 86.9584 70.58 81.5684C78.57 76.2284 82.56 69.2484 82.57 62.2584C82.58 55.2384 78.57 48.2184 70.53 42.8784C62.52 37.5484 52.03 34.8984 41.54 34.8984C31.03 34.8984 20.51 37.5884 12.5 42.9484H12.49Z" fill="white"/>
<path d="M41.5 90.1102H41.37C30.39 90.0902 20.05 87.2302 12.27 82.0502C4.34002 76.7902 -0.0099828 69.7602 1.7203e-05 62.2602C0.0100172 54.8002 4.35002 47.8002 12.22 42.5402C20.05 37.3002 30.47 34.4102 41.54 34.4102H41.58C52.61 34.4102 62.99 37.2702 70.81 42.4702C78.73 47.7402 83.09 54.7702 83.08 62.2702C83.07 69.7302 78.73 76.7302 70.86 81.9902C63.01 87.2402 52.59 90.1202 41.5 90.1202V90.1102ZM12.77 43.3702C5.19002 48.4302 1.01002 55.1402 1.00002 62.2602C0.990017 69.4102 5.19002 76.1502 12.82 81.2202C20.44 86.2902 30.58 89.0902 41.37 89.1102H41.49C52.38 89.1102 62.61 86.2802 70.29 81.1502C77.87 76.0802 82.05 69.3702 82.06 62.2602C82.07 55.1102 77.87 48.3702 70.24 43.3002C62.58 38.2102 52.4 35.4102 41.57 35.4102H41.53C30.65 35.4102 20.44 38.2502 12.77 43.3702Z" fill="#0B00DB"/>
<path d="M41.5655 86.0907C62.2652 86.0654 79.0325 75.3759 79.0164 62.215C79.0003 49.054 62.2069 38.4055 41.5073 38.4308C20.8077 38.4561 4.04038 49.1456 4.05646 62.3065C4.07254 75.4675 20.8659 86.116 41.5655 86.0907Z" fill="#BDBFF2"/>
<path d="M41.4905 86.571C31.8205 86.571 22.1605 84.241 14.7905 79.571C7.56055 74.981 3.57055 68.851 3.56055 62.311C3.56055 55.771 7.52055 49.631 14.7505 45.031L15.0205 45.451L14.7505 45.031C29.5005 35.631 53.5106 35.601 68.2906 44.961C75.5206 49.551 79.5105 55.671 79.5205 62.221C79.5205 68.761 75.5606 74.901 68.3306 79.511C60.9406 84.221 51.2105 86.581 41.5005 86.581L41.4905 86.571ZM15.2805 45.861C8.36055 50.271 4.55055 56.111 4.56055 62.301C4.57055 68.491 8.39055 74.321 15.3305 78.711C29.8105 87.891 53.3405 87.861 67.7906 78.641C74.7105 74.231 78.5206 68.391 78.5106 62.201C78.5005 56.011 74.6805 50.181 67.7405 45.791C53.2605 36.611 29.7305 36.641 15.2805 45.861Z" fill="#0B00DB"/>
<path d="M41.386 79.4899C57.8661 79.4698 71.2165 71.7393 71.2049 62.2235C71.1933 52.7076 57.824 45.0098 41.3439 45.0299C24.8637 45.0501 11.5133 52.7805 11.525 62.2964C11.5366 71.8123 24.9058 79.5101 41.386 79.4899Z" fill="white"/>
<path d="M41.3293 79.9719C33.6193 79.9719 25.9093 78.2819 20.0393 74.9019C14.2393 71.5619 11.0393 67.0819 11.0293 62.3019C11.0293 57.5119 14.2093 53.0319 19.9993 49.6719C31.7593 42.8619 50.9193 42.8319 62.6993 49.6219C68.4993 52.9619 71.6993 57.4419 71.7093 62.2219C71.7093 67.0119 68.5293 71.4919 62.7393 74.8519C56.8393 78.2719 49.0793 79.9819 41.3293 79.9819V79.9719ZM41.4193 45.5319C33.8493 45.5319 26.2693 47.2019 20.5093 50.5319C15.0393 53.7019 12.0293 57.8719 12.0293 62.2919C12.0293 66.7119 15.0593 70.8719 20.5393 74.0319C32.0493 80.6519 50.7493 80.6319 62.2393 73.9819C67.7093 70.8119 70.7193 66.6419 70.7193 62.2219C70.7193 57.8019 67.6893 53.6419 62.2093 50.4819C56.4693 47.1819 48.9493 45.5319 41.4193 45.5319Z" fill="#0B00DB"/>
<path d="M41.3847 76.7206C55.6005 76.7032 67.1168 70.2152 67.107 62.2291C67.0972 54.2431 55.5652 47.7832 41.3494 47.8006C27.1336 47.818 15.6173 54.306 15.627 62.292C15.6368 70.2781 27.1689 76.7379 41.3847 76.7206Z" fill="#0B00DB"/>
<path d="M41.3309 77.1999C34.6709 77.1999 28.0109 75.7799 22.9409 72.9399C17.9109 70.1199 15.1409 66.3399 15.1309 62.2899C15.1309 58.2399 17.8909 54.4499 22.9109 51.6199C33.0709 45.8899 49.6209 45.8699 59.8009 51.5699C64.8309 54.3899 67.6009 58.1699 67.6109 62.2199C67.6109 66.2699 64.8509 70.0599 59.8309 72.8899C54.7309 75.7599 48.0309 77.1999 41.3309 77.1999ZM23.1609 52.0599L23.4109 52.4999C18.7209 55.1399 16.1409 58.6199 16.1409 62.2999C16.1409 65.9799 18.7409 69.4499 23.4309 72.0799C33.3409 77.6299 49.4409 77.6099 59.3409 72.0299C64.0309 69.3899 66.6109 65.9099 66.6109 62.2299C66.6109 58.5499 64.0109 55.0799 59.3209 52.4499C49.4109 46.8999 33.3109 46.9199 23.4109 52.4999L23.1609 52.0599Z" fill="white"/>
<path d="M43.2999 67.2208C54.6936 67.2208 63.9299 65.0001 63.9299 62.2608C63.9299 59.5214 54.6936 57.3008 43.2999 57.3008C31.9063 57.3008 22.6699 59.5214 22.6699 62.2608C22.6699 65.0001 31.9063 67.2208 43.2999 67.2208Z" fill="#0B00AB"/>
<path d="M41.2096 74.3297H41.0096C40.7296 74.3297 40.5096 74.0997 40.5096 73.8197C40.5096 73.5497 40.7396 73.3197 41.0096 73.3197H41.2096C41.4896 73.3197 41.7096 73.5497 41.7096 73.8297C41.7096 74.0997 41.4796 74.3297 41.2096 74.3297ZM46.1496 74.0097C45.8996 74.0097 45.6896 73.8297 45.6596 73.5797C45.6196 73.3097 45.8196 73.0497 46.0896 73.0197L46.2796 72.9897C46.5396 72.9497 46.8096 73.1397 46.8396 73.4197C46.8796 73.6897 46.6896 73.9497 46.4096 73.9797L46.2096 74.0097C46.2096 74.0097 46.1696 74.0097 46.1396 74.0097H46.1496ZM35.9996 73.9397L35.7996 73.9097C35.5296 73.8697 35.3396 73.6097 35.3796 73.3397C35.4196 73.0697 35.6896 72.8797 35.9496 72.9197L36.0996 72.9397L35.9996 73.9397ZM51.1796 72.9297C50.9696 72.9297 50.7696 72.7897 50.6996 72.5797C50.6196 72.3197 50.7696 72.0397 51.0296 71.9597L51.2196 71.8997C51.4896 71.8197 51.7596 71.9597 51.8496 72.2297C51.9396 72.4997 51.7896 72.7697 51.5196 72.8597L51.3296 72.9197C51.3296 72.9197 51.2296 72.9397 51.1796 72.9397V72.9297ZM31.0596 72.7897C31.0096 72.7897 30.9596 72.7897 30.8996 72.7697L30.7096 72.7097C30.4496 72.6197 30.3096 72.3397 30.3996 72.0797C30.4896 71.8197 30.7696 71.6797 31.0296 71.7697L31.2096 71.8297C31.4696 71.9197 31.6196 72.1997 31.5296 72.4597C31.4596 72.6697 31.2696 72.7997 31.0596 72.7997V72.7897ZM56.1896 70.8597L55.9196 70.4397L55.6996 69.9897L55.8396 69.9097C56.0796 69.7697 56.3796 69.8497 56.5196 70.0897C56.6596 70.3297 56.5796 70.6297 56.3396 70.7697L56.1896 70.8597ZM26.3596 70.6997C26.2696 70.6997 26.1796 70.6797 26.0996 70.6297L25.9296 70.5197C25.6896 70.3797 25.6196 70.0697 25.7696 69.8297C25.9096 69.5897 26.2196 69.5197 26.4596 69.6697L26.6196 69.7697C26.8596 69.9097 26.9396 70.2197 26.7896 70.4597C26.6996 70.6197 26.5296 70.6997 26.3596 70.6997ZM59.9396 67.7597C59.8196 67.7597 59.7096 67.7197 59.6096 67.6397C59.3996 67.4597 59.3796 67.1397 59.5596 66.9297L59.6296 66.8397L60.0696 67.0997L60.4496 67.4197L60.3196 67.5697C60.2196 67.6897 60.0796 67.7497 59.9396 67.7497V67.7597ZM22.4596 67.3797C22.3096 67.3797 22.1596 67.3097 22.0596 67.1797L21.9396 67.0197C21.7696 66.7997 21.8196 66.4797 22.0396 66.3197C22.2596 66.1597 22.5796 66.1997 22.7396 66.4197L22.8496 66.5697C23.0196 66.7897 22.9796 67.0997 22.7596 67.2697C22.6696 67.3397 22.5596 67.3697 22.4596 67.3697V67.3797ZM61.9596 63.1197C61.9596 63.1197 61.9396 63.1197 61.9296 63.1197C61.6496 63.0997 61.4396 62.8697 61.4596 62.5897V62.4097C61.4796 62.1297 61.6896 61.9197 61.9796 61.9197C62.2596 61.9197 62.4696 62.1597 62.4696 62.4297V62.6397C62.4396 62.9097 62.2196 63.1097 61.9596 63.1097V63.1197ZM20.7696 62.6197C20.4896 62.6197 20.2696 62.3897 20.2796 62.1097V61.8897C20.3096 61.6197 20.5496 61.4097 20.8196 61.4197C21.0996 61.4397 21.3096 61.6697 21.2896 61.9497V62.1297C21.2796 62.3997 21.0596 62.6197 20.7796 62.6197H20.7696ZM60.4096 58.3097C60.2596 58.3097 60.1096 58.2397 60.0096 58.1097L59.8896 57.9597C59.7196 57.7397 59.7696 57.4297 59.9896 57.2597C60.2096 57.0897 60.5196 57.1397 60.6896 57.3597L60.8096 57.5197C60.9796 57.7397 60.9296 58.0597 60.7096 58.2197C60.6196 58.2897 60.5196 58.3197 60.4096 58.3197V58.3097ZM22.6496 57.9297C22.5396 57.9297 22.4196 57.8897 22.3296 57.8197C22.1196 57.6397 22.0896 57.3297 22.2596 57.1197L22.3896 56.9597C22.5696 56.7497 22.8896 56.7197 23.0996 56.8997C23.3096 57.0797 23.3396 57.3897 23.1596 57.5997L23.0396 57.7497C22.9396 57.8697 22.7996 57.9297 22.6496 57.9297ZM56.5696 54.9297C56.4796 54.9297 56.3896 54.9097 56.3096 54.8597L56.1396 54.7597C55.8996 54.6197 55.8296 54.3097 55.9696 54.0697C56.1096 53.8297 56.4196 53.7597 56.6596 53.8997L56.8296 53.9997C57.0696 54.1397 57.1396 54.4497 56.9896 54.6897C56.8996 54.8397 56.7296 54.9297 56.5596 54.9297H56.5696ZM26.6196 54.6897C26.4496 54.6897 26.2796 54.5997 26.1896 54.4397C26.0496 54.1997 26.1396 53.8897 26.3796 53.7597L26.5496 53.6597L26.8496 54.0697L27.0496 54.5297L26.8696 54.6297C26.7896 54.6697 26.7096 54.6997 26.6196 54.6997V54.6897ZM51.8996 52.7997C51.8496 52.7997 51.7896 52.7997 51.7396 52.7697L51.5596 52.7097C51.2996 52.6197 51.1496 52.3397 51.2396 52.0797C51.3196 51.8197 51.6096 51.6697 51.8696 51.7597L52.0596 51.8197C52.3196 51.9097 52.4596 52.1897 52.3696 52.4497C52.2996 52.6597 52.1096 52.7897 51.8996 52.7897V52.7997ZM31.3996 52.6397C31.1896 52.6397 30.9896 52.4997 30.9196 52.2897C30.8396 52.0297 30.9796 51.7497 31.2496 51.6597L31.4496 51.5997C31.7096 51.5197 31.9896 51.6697 32.0696 51.9397C32.1496 52.1997 31.9996 52.4797 31.7396 52.5597L31.5596 52.6197C31.5596 52.6197 31.4596 52.6397 31.4096 52.6397H31.3996ZM46.8896 51.6097C46.8896 51.6097 46.8396 51.6097 46.8096 51.6097L46.6596 51.5897L46.7596 50.5897L46.9596 50.6197C47.2296 50.6597 47.4196 50.9197 47.3796 51.1897C47.3396 51.4397 47.1296 51.6097 46.8896 51.6097ZM36.4196 51.5297C36.1696 51.5297 35.9596 51.3497 35.9296 51.0997C35.8896 50.8297 36.0796 50.5697 36.3596 50.5397L36.5596 50.5097C36.8296 50.4697 37.0896 50.6597 37.1196 50.9397C37.1596 51.2097 36.9596 51.4697 36.6896 51.4997L36.4996 51.5297C36.4996 51.5297 36.4496 51.5297 36.4296 51.5297H36.4196ZM41.7596 51.1897H41.5596C41.2796 51.1897 41.0596 50.9597 41.0596 50.6797C41.0596 50.4097 41.2896 50.1797 41.5596 50.1797H41.7596C42.0396 50.1797 42.2596 50.4097 42.2596 50.6897C42.2596 50.9597 42.0296 51.1897 41.7596 51.1897Z" fill="white"/>
<path d="M11.5293 62.7578V62.2878H11.0293V61.7878L12.0293 61.7578V62.2878H11.5293V62.7578Z" fill="#0B00DB"/>
<path d="M15.0593 79.1378C13.7693 78.3178 12.5993 77.4478 11.5293 76.5478V62.2978C11.5293 66.7078 14.4593 71.1078 20.2893 74.4678C31.9493 81.1778 50.8493 81.1578 62.4893 74.4178C68.2993 71.0578 71.1993 66.6578 71.2093 62.2578V76.5578C71.2093 76.5578 71.2493 76.6078 71.3093 76.6978C70.3193 77.5178 69.2393 78.3178 68.0593 79.0678C53.4393 88.3878 29.7093 88.4178 15.0593 79.1378Z" fill="#5C5FE6"/>
<path d="M41.4893 86.5697C31.8193 86.5697 22.1593 84.2397 14.7893 79.5697C13.5193 78.7597 12.3093 77.8797 11.2093 76.9397L11.0293 76.7897V62.3097H12.0293C12.0393 66.7297 15.0593 70.8897 20.5293 74.0397C32.0393 80.6597 50.7393 80.6397 62.2293 73.9897C67.6793 70.8297 70.6893 66.6697 70.6993 62.2697V61.6797L71.6993 61.8497V62.2697L71.7093 76.4297L71.9693 76.8097L71.6193 77.0997C70.5693 77.9697 69.4593 78.7797 68.3193 79.5097C60.9293 84.2197 51.1993 86.5797 41.4793 86.5797L41.4893 86.5697ZM15.3193 78.7197C29.7993 87.8997 53.3293 87.8697 67.7793 78.6497C68.7893 78.0097 69.7693 77.2997 70.6993 76.5397V66.7897C69.3393 69.8197 66.6193 72.5897 62.7293 74.8497C50.9693 81.6597 31.8093 81.6897 20.0293 74.8997C16.1193 72.6497 13.3893 69.8797 12.0193 66.8397V76.3197C13.0393 77.1697 14.1493 77.9797 15.3193 78.7197Z" fill="#0B00DB"/>
<path d="M41.7791 60.8317C54.1558 60.8317 64.1891 50.7984 64.1891 38.4217C64.1891 26.045 54.1558 16.0117 41.7791 16.0117C29.4024 16.0117 19.3691 26.045 19.3691 38.4217C19.3691 50.7984 29.4024 60.8317 41.7791 60.8317Z" fill="#BDBFF2"/>
<path d="M41.7791 61.3217C29.1491 61.3217 18.8691 51.0417 18.8691 38.4117C18.8691 25.7817 29.1491 15.5117 41.7791 15.5117C54.4091 15.5117 64.6891 25.7917 64.6891 38.4217C64.6891 51.0517 54.4091 61.3317 41.7791 61.3317V61.3217ZM41.7791 16.5117C29.6991 16.5117 19.8691 26.3417 19.8691 38.4217C19.8691 50.5017 29.6991 60.3317 41.7791 60.3317C53.8591 60.3317 63.6891 50.5017 63.6891 38.4217C63.6891 26.3417 53.8591 16.5117 41.7791 16.5117Z" fill="#0B00DB"/>
<path d="M41.7783 62.8105C53.9506 62.8105 63.8183 52.9428 63.8183 40.7705C63.8183 28.5981 53.9506 18.7305 41.7783 18.7305C29.6059 18.7305 19.7383 28.5981 19.7383 40.7705C19.7383 52.9428 29.6059 62.8105 41.7783 62.8105Z" fill="white"/>
<path d="M41.7783 63.3105C29.3483 63.3105 19.2383 53.2005 19.2383 40.7705C19.2383 28.3405 29.3483 18.2305 41.7783 18.2305C54.2083 18.2305 64.3183 28.3405 64.3183 40.7705C64.3183 53.2005 54.2083 63.3105 41.7783 63.3105ZM41.7783 19.2305C29.8983 19.2305 20.2383 28.8905 20.2383 40.7705C20.2383 52.6505 29.8983 62.3105 41.7783 62.3105C53.6583 62.3105 63.3183 52.6505 63.3183 40.7705C63.3183 28.8905 53.6583 19.2305 41.7783 19.2305Z" fill="#0B00DB"/>
<path d="M41.7795 60.1136C52.4606 60.1136 61.1195 51.4548 61.1195 40.7736C61.1195 30.0924 52.4606 21.4336 41.7795 21.4336C31.0983 21.4336 22.4395 30.0924 22.4395 40.7736C22.4395 51.4548 31.0983 60.1136 41.7795 60.1136Z" fill="white"/>
<path d="M41.7795 60.6136C30.8395 60.6136 21.9395 51.7136 21.9395 40.7736C21.9395 29.8336 30.8395 20.9336 41.7795 20.9336C52.7195 20.9336 61.6195 29.8336 61.6195 40.7736C61.6195 51.7136 52.7195 60.6136 41.7795 60.6136ZM41.7795 21.9236C31.3895 21.9236 22.9395 30.3736 22.9395 40.7636C22.9395 51.1536 31.3895 59.6036 41.7795 59.6036C52.1695 59.6036 60.6195 51.1536 60.6195 40.7636C60.6195 30.3736 52.1695 21.9236 41.7795 21.9236Z" fill="#0B00DB"/>
<path d="M41.7793 26.8633C49.4593 26.8633 55.6893 33.0933 55.6893 40.7733H41.7793V26.8633Z" fill="#BDBFF2"/>
<path d="M26.5907 50.0426C26.4207 50.0426 26.2507 49.9526 26.1607 49.7926C26.0207 49.5526 26.1007 49.2526 26.3407 49.1126L27.5507 48.4126C27.7807 48.2726 28.0907 48.3526 28.2307 48.5926C28.3707 48.8326 28.2907 49.1326 28.0507 49.2726L26.8407 49.9726C26.7607 50.0226 26.6707 50.0426 26.5907 50.0426Z" fill="#0B00DB"/>
<path d="M55.7508 33.2028C55.5808 33.2028 55.4108 33.1128 55.3208 32.9528C55.1808 32.7128 55.2608 32.4128 55.5008 32.2728L56.7108 31.5728C56.9508 31.4328 57.2508 31.5128 57.3908 31.7528C57.5308 31.9928 57.4508 32.2928 57.2108 32.4328L56.0008 33.1328C55.9208 33.1828 55.8308 33.2028 55.7508 33.2028Z" fill="#0B00DB"/>
<path d="M37.2393 58.2009C37.2393 58.2009 37.1493 58.2009 37.1093 58.1809C36.8393 58.1109 36.6893 57.8309 36.7593 57.5709L37.1193 56.2109C37.1893 55.9409 37.4593 55.7909 37.7293 55.8609C37.9993 55.9309 38.1493 56.2109 38.0793 56.4709L37.7193 57.8309C37.6593 58.0509 37.4593 58.2009 37.2393 58.2009Z" fill="#0B00DB"/>
<path d="M45.9499 25.6927C45.9499 25.6927 45.8599 25.6927 45.8199 25.6727C45.5499 25.6027 45.3899 25.3227 45.4699 25.0627L45.8299 23.7027C45.8999 23.4327 46.1799 23.2727 46.4399 23.3527C46.7099 23.4227 46.8699 23.7027 46.7899 23.9627L46.4299 25.3227C46.3699 25.5427 46.1699 25.6927 45.9499 25.6927Z" fill="#0B00DB"/>
<path d="M46.3115 58.2041C46.0915 58.2041 45.8915 58.0541 45.8315 57.8341L45.4715 56.4741C45.4015 56.2041 45.5615 55.9341 45.8215 55.8641C46.0915 55.7941 46.3615 55.9541 46.4315 56.2141L46.7915 57.5741C46.8615 57.8441 46.7015 58.1141 46.4415 58.1841C46.4015 58.1941 46.3515 58.2041 46.3115 58.2041Z" fill="#0B00DB"/>
<path d="M37.6006 25.6924C37.3806 25.6924 37.1806 25.5424 37.1206 25.3224L36.7606 23.9624C36.6906 23.6924 36.8506 23.4224 37.1106 23.3524C37.3806 23.2824 37.6506 23.4424 37.7206 23.7024L38.0806 25.0624C38.1506 25.3324 37.9906 25.6024 37.7306 25.6724C37.6906 25.6824 37.6406 25.6924 37.6006 25.6924Z" fill="#0B00DB"/>
<path d="M54.1716 53.6719C54.0416 53.6719 53.9116 53.6219 53.8216 53.5219L52.8316 52.5319C52.6316 52.3319 52.6316 52.0219 52.8316 51.8219C53.0316 51.6219 53.3416 51.6219 53.5416 51.8219L54.5316 52.8119C54.7316 53.0119 54.7316 53.3219 54.5316 53.5219C54.4316 53.6219 54.3016 53.6719 54.1816 53.6719H54.1716Z" fill="#0B00DB"/>
<path d="M30.3709 29.8633C30.2409 29.8633 30.1109 29.8133 30.0209 29.7133L29.0309 28.7233C28.8309 28.5233 28.8309 28.2133 29.0309 28.0133C29.2309 27.8133 29.5409 27.8133 29.7409 28.0133L30.7309 29.0033C30.9309 29.2033 30.9309 29.5133 30.7309 29.7133C30.6309 29.8133 30.5009 29.8633 30.3809 29.8633H30.3709Z" fill="#0B00DB"/>
<path d="M56.9608 50.0426C56.8808 50.0426 56.7908 50.0226 56.7108 49.9726L55.5008 49.2726C55.2608 49.1326 55.1808 48.8326 55.3208 48.5926C55.4608 48.3526 55.7708 48.2726 56.0008 48.4126L57.2108 49.1126C57.4508 49.2526 57.5308 49.5526 57.3908 49.7926C57.3008 49.9526 57.1308 50.0426 56.9608 50.0426Z" fill="#0B00DB"/>
<path d="M27.8105 33.2028C27.7305 33.2028 27.6405 33.1828 27.5605 33.1328L26.3505 32.4328C26.1105 32.2928 26.0305 31.9928 26.1705 31.7528C26.3105 31.5128 26.6105 31.4328 26.8505 31.5728L28.0605 32.2728C28.3005 32.4128 28.3805 32.7128 28.2405 32.9528C28.1505 33.1128 27.9805 33.2028 27.8105 33.2028Z" fill="#0B00DB"/>
<path d="M25.65 41.2734H24.25C23.97 41.2734 23.75 41.0534 23.75 40.7734C23.75 40.4934 23.97 40.2734 24.25 40.2734H25.65C25.93 40.2734 26.15 40.4934 26.15 40.7734C26.15 41.0534 25.93 41.2734 25.65 41.2734Z" fill="#0B00DB"/>
<path d="M59.3102 41.2734H57.9102C57.6302 41.2734 57.4102 41.0534 57.4102 40.7734C57.4102 40.4934 57.6302 40.2734 57.9102 40.2734H59.3102C59.5902 40.2734 59.8102 40.4934 59.8102 40.7734C59.8102 41.0534 59.5902 41.2734 59.3102 41.2734Z" fill="#0B00DB"/>
<path d="M24.8402 45.8096C24.6202 45.8096 24.4202 45.6596 24.3602 45.4396C24.2902 45.1696 24.4502 44.8996 24.7102 44.8296L26.0702 44.4696C26.3402 44.3996 26.6102 44.5596 26.6802 44.8196C26.7502 45.0896 26.5902 45.3596 26.3302 45.4296L24.9702 45.7896C24.9702 45.7896 24.8802 45.8096 24.8402 45.8096Z" fill="#0B00DB"/>
<path d="M57.3597 37.0908C57.1397 37.0908 56.9398 36.9408 56.8798 36.7208C56.8098 36.4508 56.9697 36.1808 57.2297 36.1108L58.5897 35.7508C58.8597 35.6808 59.1297 35.8408 59.1997 36.1008C59.2697 36.3708 59.1097 36.6408 58.8497 36.7108L57.4898 37.0708C57.4898 37.0708 57.3997 37.0908 57.3597 37.0908Z" fill="#0B00DB"/>
<path d="M29.3809 53.6719C29.2509 53.6719 29.1209 53.6219 29.0309 53.5219C28.8309 53.3219 28.8309 53.0119 29.0309 52.8119L30.0209 51.8219C30.2209 51.6219 30.5309 51.6219 30.7309 51.8219C30.9309 52.0219 30.9309 52.3319 30.7309 52.5319L29.7409 53.5219C29.6409 53.6219 29.5109 53.6719 29.3909 53.6719H29.3809Z" fill="#0B00DB"/>
<path d="M53.1816 29.8633C53.0516 29.8633 52.9216 29.8133 52.8316 29.7133C52.6316 29.5133 52.6316 29.2033 52.8316 29.0033L53.8216 28.0133C54.0216 27.8133 54.3316 27.8133 54.5316 28.0133C54.7316 28.2133 54.7316 28.5233 54.5316 28.7233L53.5416 29.7133C53.4416 29.8133 53.3116 29.8633 53.1916 29.8633H53.1816Z" fill="#0B00DB"/>
<path d="M33.0106 56.4494C32.9306 56.4494 32.8406 56.4294 32.7606 56.3794C32.5206 56.2394 32.4406 55.9394 32.5806 55.6994L33.2806 54.4794C33.4206 54.2394 33.7206 54.1594 33.9606 54.2994C34.2006 54.4394 34.2806 54.7394 34.1406 54.9794L33.4406 56.1994C33.3506 56.3594 33.1806 56.4494 33.0106 56.4494Z" fill="#0B00DB"/>
<path d="M49.8407 27.3009C49.7607 27.3009 49.6707 27.2809 49.5907 27.2309C49.3507 27.0909 49.2707 26.7909 49.4107 26.5509L50.1107 25.3309C50.2507 25.0909 50.5607 25.0109 50.7907 25.1509C51.0307 25.2909 51.1107 25.5909 50.9707 25.8309L50.2707 27.0509C50.1807 27.2109 50.0107 27.3009 49.8407 27.3009Z" fill="#0B00DB"/>
<path d="M41.7793 58.8023C41.4993 58.8023 41.2793 58.5823 41.2793 58.3023V56.9023C41.2793 56.6223 41.4993 56.4023 41.7793 56.4023C42.0593 56.4023 42.2793 56.6223 42.2793 56.9023V58.3023C42.2793 58.5823 42.0593 58.8023 41.7793 58.8023Z" fill="#0B00DB"/>
<path d="M41.7793 25.1422C41.4993 25.1422 41.2793 24.9222 41.2793 24.6422V23.2422C41.2793 22.9622 41.4993 22.7422 41.7793 22.7422C42.0593 22.7422 42.2793 22.9622 42.2793 23.2422V24.6422C42.2793 24.9222 42.0593 25.1422 41.7793 25.1422Z" fill="#0B00DB"/>
<path d="M50.5407 56.4494C50.3707 56.4494 50.2007 56.3594 50.1107 56.1994L49.4107 54.9794C49.2707 54.7394 49.3507 54.4394 49.5907 54.2994C49.8307 54.1594 50.1307 54.2394 50.2707 54.4794L50.9707 55.6994C51.1107 55.9394 51.0307 56.2394 50.7907 56.3794C50.7107 56.4294 50.6207 56.4494 50.5407 56.4494Z" fill="#0B00DB"/>
<path d="M33.7106 27.3009C33.5406 27.3009 33.3706 27.2109 33.2806 27.0509L32.5806 25.8309C32.4406 25.5909 32.5206 25.2909 32.7606 25.1509C33.0006 25.0109 33.3006 25.0909 33.4406 25.3309L34.1406 26.5509C34.2806 26.7909 34.2006 27.0909 33.9606 27.2309C33.8806 27.2809 33.7906 27.3009 33.7106 27.3009Z" fill="#0B00DB"/>
<path d="M27.8105 33.2028C27.7305 33.2028 27.6405 33.1828 27.5605 33.1328L26.3505 32.4328C26.1105 32.2928 26.0305 31.9928 26.1705 31.7528C26.3105 31.5128 26.6105 31.4328 26.8505 31.5728L28.0605 32.2728C28.3005 32.4128 28.3805 32.7128 28.2405 32.9528C28.1505 33.1128 27.9805 33.2028 27.8105 33.2028Z" fill="#0B00DB"/>
<path d="M58.7106 45.8103C58.7106 45.8103 58.6206 45.8103 58.5806 45.7903L57.2206 45.4303C56.9506 45.3603 56.8006 45.0803 56.8706 44.8203C56.9406 44.5503 57.2206 44.4003 57.4806 44.4703L58.8406 44.8303C59.1106 44.9003 59.2606 45.1803 59.1906 45.4403C59.1306 45.6603 58.9306 45.8103 58.7106 45.8103Z" fill="#0B00DB"/>
<path d="M26.2009 37.0911C26.2009 37.0911 26.1109 37.0911 26.0709 37.0711L24.7109 36.7111C24.4409 36.6411 24.2909 36.3611 24.3609 36.1011C24.4309 35.8311 24.7109 35.6711 24.9709 35.7511L26.3309 36.1111C26.6009 36.1811 26.7509 36.4611 26.6809 36.7211C26.6209 36.9411 26.4209 37.0911 26.2009 37.0911Z" fill="#0B00DB"/>
<path d="M39.7994 10.2734H43.7594C45.2394 10.2734 46.4494 11.4734 46.4494 12.9634C46.4494 13.6534 45.8894 14.2134 45.1994 14.2134H38.3594C37.6694 14.2134 37.1094 13.6534 37.1094 12.9634C37.1094 11.4834 38.3094 10.2734 39.7994 10.2734Z" fill="#0B00DB"/>
<path d="M45.1896 14.7017H38.3496C37.3896 14.7017 36.5996 13.9217 36.5996 12.9517C36.5996 11.1917 38.0296 9.76172 39.7896 9.76172H43.7496C45.5096 9.76172 46.9396 11.1917 46.9396 12.9517C46.9396 13.9117 46.1596 14.7017 45.1896 14.7017ZM39.7896 10.7717C38.5796 10.7717 37.5996 11.7517 37.5996 12.9617C37.5996 13.3717 37.9296 13.7117 38.3496 13.7117H45.1896C45.5996 13.7117 45.9396 13.3817 45.9396 12.9617C45.9396 11.7517 44.9596 10.7717 43.7496 10.7717H39.7896Z" fill="#0B00DB"/>
<path d="M41.7799 16.9392C42.4099 16.9392 43.0199 16.9692 43.6299 17.0192V14.1992H39.9199V17.0192C40.5299 16.9692 41.1499 16.9392 41.7699 16.9392H41.7799Z" fill="#BDBFF2"/>
<path d="M43.6297 17.5309C43.6297 17.5309 43.5997 17.5309 43.5897 17.5309C42.2797 17.4209 41.2697 17.4209 39.9697 17.5309C39.8197 17.5509 39.6897 17.4909 39.5897 17.4009C39.4897 17.3109 39.4297 17.1709 39.4297 17.0309V14.2109C39.4297 13.9309 39.6497 13.7109 39.9297 13.7109H43.6397C43.9197 13.7109 44.1397 13.9309 44.1397 14.2109V17.0309C44.1397 17.1709 44.0797 17.3009 43.9797 17.4009C43.8897 17.4809 43.7697 17.5309 43.6397 17.5309H43.6297ZM41.7797 16.4509C42.2097 16.4509 42.6597 16.4609 43.1297 16.5009V14.7109H40.4197V16.5009C40.8997 16.4709 41.3397 16.4609 41.7697 16.4609L41.7797 16.4509Z" fill="#0B00DB"/>
<path d="M26.4691 22.7218C27.4991 21.8618 28.5991 21.0918 29.7591 20.4218L28.6291 18.8018C27.9891 17.8918 26.7391 17.6718 25.8291 18.3118C24.9191 18.9518 24.6991 20.2018 25.3391 21.1118L26.4691 22.7318V22.7218Z" fill="#BDBFF2"/>
<path d="M26.4698 23.2212C26.4698 23.2212 26.4298 23.2212 26.3998 23.2212C26.2598 23.2012 26.1398 23.1312 26.0598 23.0112L24.9298 21.3912C24.5498 20.8412 24.3998 20.1812 24.5098 19.5212C24.6298 18.8612 24.9898 18.2912 25.5398 17.9012C26.6698 17.1112 28.2398 17.3812 29.0298 18.5212L30.1598 20.1412C30.2398 20.2512 30.2698 20.4012 30.2398 20.5312C30.2098 20.6712 30.1198 20.7812 29.9998 20.8512C28.8598 21.5112 27.7798 22.2712 26.7798 23.1012C26.6898 23.1812 26.5798 23.2212 26.4598 23.2212H26.4698ZM26.9798 18.4412C26.6798 18.4412 26.3798 18.5312 26.1198 18.7112C25.7898 18.9412 25.5698 19.2912 25.4998 19.6812C25.4298 20.0812 25.5198 20.4812 25.7498 20.8112L26.5798 21.9912C27.3598 21.3712 28.1898 20.7912 29.0498 20.2612L28.2198 19.0812C27.9298 18.6612 27.4598 18.4412 26.9798 18.4412Z" fill="#0B00DB"/>
<path d="M56.8701 22.7218C55.8401 21.8618 54.7401 21.0918 53.5801 20.4218L54.7101 18.8018C55.3501 17.8918 56.6001 17.6718 57.5101 18.3118C58.4201 18.9518 58.6401 20.2018 58.0001 21.1118L56.8701 22.7318V22.7218Z" fill="#BDBFF2"/>
<path d="M56.8695 23.2223C56.7495 23.2223 56.6395 23.1823 56.5495 23.1023C55.5595 22.2723 54.4695 21.5123 53.3295 20.8523C53.2095 20.7823 53.1195 20.6623 53.0895 20.5323C53.0595 20.3923 53.0895 20.2523 53.1695 20.1423L54.2995 18.5223C55.0895 17.3923 56.6595 17.1123 57.7895 17.9023C58.3395 18.2823 58.6995 18.8623 58.8195 19.5223C58.9395 20.1823 58.7895 20.8423 58.3995 21.3923L57.2695 23.0123C57.1895 23.1223 57.0695 23.2023 56.9295 23.2223C56.9095 23.2223 56.8895 23.2223 56.8595 23.2223H56.8695ZM54.2995 20.2623C55.1595 20.7923 55.9895 21.3723 56.7695 21.9923L57.5995 20.8123C57.8295 20.4823 57.9195 20.0823 57.8495 19.6823C57.7795 19.2823 57.5595 18.9423 57.2295 18.7123C56.5495 18.2323 55.6095 18.4023 55.1295 19.0823L54.2995 20.2623Z" fill="#0B00DB"/>
<path d="M55.6799 39.9219H43.4099C43.0999 39.3319 42.4899 38.9219 41.7699 38.9219C40.7499 38.9219 39.9199 39.7519 39.9199 40.7719C39.9199 41.7919 40.7499 42.6219 41.7699 42.6219C42.4899 42.6219 43.0999 42.2119 43.4099 41.6219H55.6799C56.1499 41.6219 56.5299 41.2419 56.5299 40.7719C56.5299 40.3019 56.1499 39.9219 55.6799 39.9219Z" fill="#0B00DB"/>
<path d="M76.9492 37.98V37.9C76.8992 37.24 76.6292 36.6 76.1292 36.09C75.0092 34.97 73.1892 34.97 72.0692 36.09L51.1892 56.97V49.86C51.1892 48.27 49.8992 46.99 48.3192 46.99C46.7392 46.99 45.4492 48.28 45.4492 49.86V63.9C45.4492 65.06 46.1492 66.11 47.2192 66.55C47.5792 66.7 47.9492 66.77 48.3192 66.77C49.0692 66.77 49.7992 66.48 50.3492 65.93L73.5692 42.71L73.2392 44.45L76.9492 42.28V38.27C76.9492 38.17 76.9492 38.07 76.9492 37.97V37.98Z" fill="#BDBFF2"/>
<path d="M48.3095 67.2816C47.8595 67.2816 47.4295 67.1916 47.0195 67.0216C45.7595 66.5016 44.9395 65.2716 44.9395 63.9116V49.8716C44.9395 48.0116 46.4495 46.5016 48.3095 46.5016C50.1695 46.5016 51.6795 48.0116 51.6795 49.8716V55.7716L71.7095 35.7416C72.9795 34.4716 75.1995 34.4716 76.4795 35.7416C77.0195 36.2816 77.3595 37.0016 77.4395 37.7816C77.4495 37.8216 77.4595 37.8616 77.4595 37.9016L76.9595 37.9816L77.4595 37.9616C77.4595 38.0816 77.4595 38.1916 77.4595 38.3016V42.2816C77.4595 42.4616 77.3695 42.6216 77.2095 42.7116L73.4995 44.8816C73.3295 44.9816 73.1195 44.9716 72.9595 44.8616C72.7995 44.7516 72.7195 44.5516 72.7595 44.3616L72.7895 44.2116L50.7095 66.2916C50.0695 66.9316 49.2295 67.2816 48.3295 67.2816H48.3095ZM48.3095 47.5016C46.9995 47.5016 45.9395 48.5616 45.9395 49.8716V63.9116C45.9395 64.8716 46.5095 65.7316 47.3995 66.1016C48.2695 66.4616 49.3095 66.2616 49.9795 65.5916L73.1995 42.3716C73.3495 42.2116 73.5895 42.1816 73.7895 42.2816C73.9795 42.3816 74.0895 42.6016 74.0495 42.8116L73.9295 43.4716L76.4495 42.0016V38.2816C76.4495 38.1716 76.4495 38.0916 76.4495 38.0116C76.4495 38.0116 76.4495 38.0016 76.4495 37.9916C76.4495 37.9816 76.4495 37.9616 76.4495 37.9516C76.3995 37.3716 76.1695 36.8616 75.7695 36.4616C74.8695 35.5616 73.3095 35.5616 72.4195 36.4616L51.5395 57.3416C51.3995 57.4816 51.1795 57.5316 50.9995 57.4516C50.8095 57.3716 50.6895 57.1916 50.6895 56.9916V49.8816C50.6895 48.5716 49.6295 47.5116 48.3195 47.5116L48.3095 47.5016Z" fill="#0B00DB"/>
<path d="M48.3095 70.7231C47.9395 70.7231 47.5695 70.6531 47.2095 70.5031C46.1395 70.0631 45.4395 69.0131 45.4395 67.8531V53.8131C45.4395 52.2231 46.7295 50.9431 48.3095 50.9431C49.8895 50.9431 51.1795 52.2331 51.1795 53.8131V60.9231L72.0595 40.0431C73.1795 38.9231 74.9995 38.9231 76.1195 40.0431C77.2395 41.1631 77.2395 42.9831 76.1195 44.1031L50.3395 69.8831C49.7895 70.4331 49.0595 70.7231 48.3095 70.7231Z" fill="white"/>
<path d="M48.3095 71.223C47.8595 71.223 47.4295 71.133 47.0195 70.963C45.7595 70.443 44.9395 69.213 44.9395 67.853V53.813C44.9395 51.953 46.4495 50.443 48.3095 50.443C50.1695 50.443 51.6795 51.953 51.6795 53.813V59.713L71.7095 39.683C72.9795 38.413 75.1995 38.413 76.4795 39.683C77.1195 40.323 77.4695 41.163 77.4695 42.063C77.4695 42.963 77.1195 43.813 76.4795 44.443L50.6995 70.223C50.0595 70.863 49.2195 71.213 48.3195 71.213L48.3095 71.223ZM48.3095 51.443C46.9995 51.443 45.9395 52.503 45.9395 53.813V67.853C45.9395 68.813 46.5095 69.673 47.3995 70.043C48.2695 70.403 49.3195 70.203 49.9795 69.533L75.7595 43.753C76.2095 43.303 76.4595 42.713 76.4595 42.073C76.4595 41.433 76.2095 40.843 75.7595 40.393C74.8595 39.493 73.2995 39.493 72.4095 40.393L51.5295 61.273C51.3895 61.413 51.1695 61.463 50.9895 61.383C50.7995 61.303 50.6795 61.123 50.6795 60.923V53.813C50.6795 52.503 49.6195 51.443 48.3095 51.443Z" fill="#0B00DB"/>
<path d="M72.4902 40.18C72.2102 40.18 71.9902 39.96 71.9902 39.68V35.75C71.9902 35.47 72.2102 35.25 72.4902 35.25C72.7702 35.25 72.9902 35.47 72.9902 35.75V39.68C72.9902 39.96 72.7702 40.18 72.4902 40.18Z" fill="#0B00DB"/>
</svg>
