<svg width="99" height="78" viewBox="0 0 99 78" fill="none" xmlns="http://www.w3.org/2000/svg">
<path d="M57.0938 30.9042V39.808C57.0938 40.7581 57.366 41.6675 57.8695 42.5226C59.8294 45.8751 65.3414 48.2911 71.8333 48.2911C78.3253 48.2911 83.8509 45.8616 85.8107 42.4955C86.0693 42.0476 86.2599 41.5861 86.396 41.1111C86.5049 40.6903 86.5729 40.2424 86.5729 39.7945V30.8906" fill="#0F11D1"/>
<path d="M71.8205 48.9687C65.2605 48.9687 59.4083 46.512 57.2715 42.8609C56.6999 41.8837 56.4141 40.8521 56.4141 39.807V30.9031C56.4141 30.5231 56.7135 30.2245 57.0946 30.2245C57.4756 30.2245 57.7751 30.5231 57.7751 30.9031V39.807C57.7751 40.6214 58.0064 41.4086 58.4556 42.1823C60.3609 45.4262 65.7369 47.6115 71.8205 47.6115C77.9042 47.6115 83.3073 45.4262 85.1991 42.1551C85.4305 41.7615 85.5938 41.3543 85.7163 40.9336C85.8116 40.5671 85.866 40.1871 85.866 39.7934V30.8896C85.866 30.5095 86.1654 30.2109 86.5465 30.2109C86.9276 30.2109 87.227 30.5095 87.227 30.8896V39.7934C87.227 40.2956 87.159 40.7979 87.0229 41.2865C86.8868 41.8158 86.669 42.3316 86.3696 42.8338C84.2464 46.4985 78.3941 48.9687 71.8069 48.9687H71.8205Z" fill="#0F11D1"/>
<path d="M57.0938 30.9029C57.0938 31.853 57.366 32.7624 57.8695 33.6175C59.8294 36.97 65.3414 39.386 71.8333 39.386C78.3389 39.386 83.8509 36.9565 85.8107 33.5904C86.0693 33.1425 86.2599 32.681 86.396 32.2059C86.5049 31.7852 86.5729 31.3373 86.5729 30.8894C86.5729 29.8985 86.2735 28.9484 85.7427 28.0662C83.7284 24.7679 78.2708 22.4062 71.8469 22.4062C65.423 22.4062 59.8021 24.8494 57.8695 28.2155C57.6245 28.6362 57.434 29.0706 57.3115 29.5185C57.189 29.9664 57.121 30.4143 57.121 30.8758L57.0938 30.9029Z" fill="#0F11D1"/>
<path d="M71.8205 40.0636C65.2605 40.0636 59.4083 37.6069 57.2715 33.9558C56.6999 32.9785 56.4141 31.947 56.4141 30.9019C56.4141 30.3861 56.4821 29.8703 56.6318 29.3546C56.7679 28.8524 56.9857 28.3637 57.2579 27.8887C59.3674 24.2104 65.2333 21.7266 71.8341 21.7266C78.435 21.7266 84.1239 24.129 86.3015 27.7122C86.9276 28.7166 87.2406 29.7889 87.2406 30.8883C87.2406 31.3905 87.1726 31.8927 87.0365 32.3813C86.9004 32.9107 86.6826 33.4264 86.3832 33.9286C84.26 37.5933 78.4078 40.0636 71.8205 40.0636ZM71.8205 23.0974C65.6961 23.0974 60.3065 25.2962 58.4283 28.5673C58.2106 28.9474 58.0472 29.3274 57.9384 29.721C57.8295 30.1011 57.7751 30.5082 57.7751 30.9019C57.7751 31.7162 58.0064 32.5035 58.4556 33.2771C60.3609 36.5211 65.7369 38.7063 71.8205 38.7063C77.9042 38.7063 83.3073 36.5211 85.1991 33.25C85.4305 32.8564 85.5938 32.4492 85.7163 32.0284C85.8116 31.662 85.866 31.2819 85.866 30.8883C85.866 30.0468 85.621 29.2188 85.131 28.418C83.1848 25.2284 77.8225 23.0839 71.8205 23.0839V23.0974Z" fill="#0F11D1"/>
<path d="M35.9863 36.3417V51.747C35.9863 52.6971 36.2585 53.6065 36.7621 54.4616C38.7219 57.8142 44.234 60.2301 50.7259 60.2301C57.2315 60.2301 62.7435 57.8006 64.7033 54.4345C64.9619 53.9865 65.1524 53.5251 65.2885 53.05C65.3974 52.6293 65.4655 52.1814 65.4655 51.7335V36.3281" fill="#0F11D1"/>
<path d="M50.7248 60.9098C44.1648 60.9098 38.3126 58.4531 36.1758 54.802C35.6042 53.8247 35.3184 52.7932 35.3184 51.748V36.3427C35.3184 35.9627 35.6178 35.6641 35.9989 35.6641C36.3799 35.6641 36.6794 35.9627 36.6794 36.3427V51.748C36.6794 52.5488 36.9107 53.3496 37.3599 54.1233C39.2652 57.3672 44.6412 59.5525 50.7248 59.5525C56.8085 59.5525 62.2116 57.3672 64.1034 54.0961C64.3348 53.7025 64.4981 53.2953 64.6206 52.8882C64.7159 52.5081 64.7703 52.1281 64.7703 51.748V36.3427C64.7703 35.9627 65.0697 35.6641 65.4508 35.6641C65.8319 35.6641 66.1313 35.9627 66.1313 36.3427V51.748C66.1313 52.2502 66.0632 52.7389 65.9408 53.2411C65.8047 53.7704 65.5869 54.2862 65.2875 54.7884C63.1643 58.4531 57.3121 60.9234 50.7248 60.9234V60.9098Z" fill="#0F11D1"/>
<path d="M35.9863 36.3443C35.9863 37.2945 36.2585 38.2038 36.7621 39.0589C38.7219 42.4115 44.234 44.8275 50.7259 44.8275C57.2315 44.8275 62.7435 42.3979 64.7033 39.0318C64.9619 38.5839 65.1524 38.1224 65.2885 37.6473C65.3974 37.2266 65.4655 36.7787 65.4655 36.3308C65.4655 35.3399 65.1661 34.3898 64.6353 33.5076C62.621 30.2094 57.1634 27.8477 50.7395 27.8477C44.3156 27.8477 38.6947 30.2908 36.7621 33.6569C36.5171 34.0776 36.3266 34.512 36.2041 34.9599C36.0816 35.4078 36.0135 35.8557 36.0135 36.3172L35.9863 36.3443Z" fill="#0F11D1"/>
<path d="M50.7248 45.5071C44.1648 45.5071 38.3126 43.0504 36.1758 39.3993C35.6042 38.422 35.3184 37.3905 35.3184 36.3453C35.3184 35.8296 35.3864 35.3138 35.5361 34.798C35.6722 34.2958 35.89 33.8072 36.1622 33.3321C38.2717 29.6539 44.1376 27.1836 50.7384 27.1836C57.3393 27.1836 63.0282 29.586 65.2058 33.1693C65.8319 34.1872 66.1449 35.2459 66.1449 36.3453C66.1449 36.8475 66.0768 37.3362 65.9544 37.8384C65.8183 38.3677 65.6005 38.8835 65.3011 39.3857C63.1779 43.0504 57.3257 45.5207 50.7384 45.5207L50.7248 45.5071ZM50.7248 28.5409C44.6004 28.5409 39.2108 30.7397 37.3326 34.0108C37.1149 34.3908 36.9515 34.7709 36.8427 35.1645C36.7338 35.5445 36.6794 35.9517 36.6794 36.3453C36.6794 37.1462 36.9107 37.947 37.3599 38.7206C39.2652 41.9646 44.6412 44.1498 50.7248 44.1498C56.8085 44.1498 62.2116 41.9646 64.1034 38.6935C64.3348 38.2999 64.4981 37.8927 64.6206 37.4855C64.7159 37.1054 64.7703 36.7254 64.7703 36.3453C64.7703 35.5038 64.5253 34.6759 64.0354 33.8751C62.0891 30.6854 56.7268 28.5409 50.7248 28.5409Z" fill="#0F11D1"/>
<path d="M13.7871 42.1972V64.5383C13.7871 65.4884 14.0593 66.3978 14.5629 67.2529C16.5227 70.6054 22.0347 73.0214 28.5267 73.0214C35.0322 73.0214 40.5443 70.5918 42.5041 67.2257C42.7627 66.7778 42.9532 66.3164 43.0893 65.8413C43.1982 65.4205 43.2662 64.9726 43.2662 64.5247V42.1836" fill="#0F11D1"/>
<path d="M28.5139 73.699C21.9539 73.699 16.1016 71.2423 13.9648 67.5912C13.3932 66.6139 13.1074 65.5824 13.1074 64.5372V42.1961C13.1074 41.8161 13.4068 41.5175 13.7879 41.5175C14.169 41.5175 14.4684 41.8161 14.4684 42.1961V64.5372C14.4684 65.338 14.6998 66.1388 15.1489 66.9125C17.0543 70.1564 22.4302 72.3417 28.5139 72.3417C34.5975 72.3417 40.0007 70.1565 41.8925 66.8854C42.1238 66.4918 42.2872 66.0846 42.4096 65.6638C42.5049 65.2973 42.5594 64.9037 42.5594 64.5237V42.1826C42.5594 41.8025 42.8588 41.5039 43.2399 41.5039C43.6209 41.5039 43.9203 41.8025 43.9203 42.1826V64.5237C43.9203 65.0259 43.8523 65.5281 43.7162 66.0167C43.5801 66.5461 43.3623 67.0618 43.0629 67.564C40.9398 71.2287 35.0875 73.699 28.5003 73.699H28.5139Z" fill="#0F11D1"/>
<path d="M13.7871 42.1959C13.7871 43.146 14.0593 44.0554 14.5629 44.9105C16.5227 48.263 22.0347 50.679 28.5267 50.679C35.0322 50.679 40.5443 48.2495 42.5041 44.8834C42.7627 44.4355 42.9532 43.974 43.0893 43.4989C43.1982 43.0781 43.2662 42.6302 43.2662 42.1823C43.2662 41.1915 42.9668 40.2414 42.436 39.3592C40.4218 36.0609 34.9642 33.6992 28.5403 33.6992C22.0211 33.6992 16.4955 36.1424 14.5629 39.5084C14.3179 39.9292 14.1273 40.3636 14.0049 40.8115C13.8824 41.2594 13.8143 41.7073 13.8143 42.1688L13.7871 42.1959Z" fill="#0F11D1"/>
<path d="M28.5139 51.3587C21.9539 51.3587 16.1016 48.902 13.9648 45.2508C13.3932 44.2736 13.1074 43.242 13.1074 42.1969C13.1074 41.6811 13.1755 41.1654 13.3252 40.6496C13.4613 40.1474 13.6654 39.6588 13.9512 39.1837C16.0608 35.5054 21.9267 33.0352 28.5275 33.0352C35.1283 33.0352 40.8173 35.4376 43.0085 39.0208C43.6345 40.0388 43.9476 41.0975 43.9476 42.1969C43.9476 42.6991 43.8795 43.2013 43.7434 43.6899C43.6073 44.2193 43.3896 44.735 43.0901 45.2372C40.967 48.9019 35.1147 51.3722 28.5275 51.3722L28.5139 51.3587ZM28.5139 34.3925C22.3894 34.3925 16.9999 36.5913 15.1217 39.8624C14.9039 40.2424 14.7406 40.6225 14.6317 41.0161C14.5229 41.4097 14.4684 41.8033 14.4684 42.1969C14.4684 42.9977 14.6998 43.7985 15.1489 44.5722C17.0543 47.8161 22.4302 50.0014 28.5139 50.0014C34.5975 50.0014 40.0007 47.8161 41.8925 44.545C42.1238 44.1514 42.2872 43.7443 42.4096 43.3235C42.5049 42.957 42.5594 42.5634 42.5594 42.1833C42.5594 41.3418 42.3144 40.5139 41.8244 39.7131C39.8646 36.5234 34.5159 34.3789 28.5139 34.3789V34.3925Z" fill="#0F11D1"/>
<path d="M52.4902 23.5722V32.476C52.4902 33.4262 52.7624 34.3355 53.266 35.1906C55.2258 38.5432 60.7379 40.9591 67.2298 40.9591C73.7218 40.9591 79.2474 38.5296 81.2073 35.1635C81.4658 34.7156 81.6564 34.2541 81.7925 33.7791C81.9014 33.3583 81.9694 32.9104 81.9694 32.4625V23.5586" fill="#0B00DE"/>
<path d="M67.217 41.6368C60.657 41.6368 54.8047 39.18 52.668 35.5289C52.0964 34.5517 51.8105 33.5201 51.8105 32.475V23.5711C51.8105 23.1911 52.11 22.8925 52.491 22.8925C52.8721 22.8925 53.1715 23.1911 53.1715 23.5711V32.475C53.1715 33.2758 53.4029 34.0766 53.852 34.8503C55.7574 38.0942 61.1334 40.2795 67.217 40.2795C73.3007 40.2795 78.7038 38.0942 80.5956 34.8231C80.827 34.4295 80.9903 34.0223 81.1128 33.6016C81.2081 33.2351 81.2625 32.8415 81.2625 32.4615V23.5576C81.2625 23.1775 81.5619 22.8789 81.943 22.8789C82.3241 22.8789 82.6235 23.1775 82.6235 23.5576V32.4615C82.6235 32.9637 82.5554 33.4658 82.4193 33.9545C82.2832 34.4838 82.0655 34.9996 81.766 35.5018C79.6429 39.1665 73.7906 41.6368 67.2034 41.6368H67.217Z" fill="white"/>
<path d="M52.4902 23.5709C52.4902 24.521 52.7624 25.4304 53.266 26.2855C55.2258 29.638 60.7379 32.054 67.2298 32.054C73.7354 32.054 79.2474 29.6245 81.2073 26.2584C81.4658 25.8105 81.6564 25.349 81.7925 24.8739C81.9014 24.4531 81.9694 24.0052 81.9694 23.5573C81.9694 22.5665 81.67 21.6164 81.1392 20.7342C79.1249 17.4359 73.6673 15.0742 67.2434 15.0742C60.7243 15.0742 55.1986 17.5174 53.266 20.8835C53.021 21.3043 52.8305 21.7386 52.708 22.1865C52.5855 22.6344 52.5175 23.0823 52.5175 23.5438L52.4902 23.5709Z" fill="#0F60DF"/>
<path d="M67.217 32.7337C60.657 32.7337 54.8047 30.277 52.668 26.6258C52.0964 25.6486 51.8105 24.617 51.8105 23.5719C51.8105 23.0561 51.8786 22.5404 52.0283 22.0246C52.1644 21.5224 52.3686 21.0338 52.6544 20.5587C54.7639 16.8804 60.6298 14.4102 67.2306 14.4102C73.8314 14.4102 79.5068 16.8126 81.698 20.3958C82.3241 21.4138 82.6371 22.4725 82.6371 23.5719C82.6371 24.0741 82.569 24.5763 82.433 25.0649C82.2969 25.5943 82.0791 26.11 81.7797 26.6122C79.6565 30.2769 73.8042 32.7472 67.217 32.7472V32.7337ZM67.217 15.7675C61.0925 15.7675 55.703 17.9663 53.8248 21.2374C53.6071 21.6174 53.4438 21.9975 53.3349 22.3911C53.226 22.7847 53.1715 23.1783 53.1715 23.5719C53.1715 24.3727 53.4029 25.1735 53.852 25.9472C55.7574 29.1911 61.1334 31.3764 67.217 31.3764C73.3007 31.3764 78.7038 29.1911 80.5956 25.92C80.827 25.5264 80.9903 25.1193 81.1128 24.6985C81.2081 24.332 81.2625 23.9384 81.2625 23.5583C81.2625 22.7168 81.0175 21.8889 80.5276 21.0881C78.5677 17.8984 73.219 15.7539 67.217 15.7539V15.7675Z" fill="white"/>
<path d="M31.3984 29.0136V44.4189C31.3984 45.369 31.6706 46.2784 32.1742 47.1335C34.134 50.486 39.6461 52.902 46.138 52.902C52.63 52.902 58.1556 50.4724 60.1154 47.1063C60.374 46.6584 60.5646 46.197 60.7007 45.7219C60.8096 45.3011 60.8776 44.8532 60.8776 44.4053V29" fill="#0B00DE"/>
<path d="M46.1252 53.5817C39.5652 53.5817 33.7129 51.125 31.5762 47.4738C31.0046 46.4966 30.7188 45.465 30.7188 44.4199V29.0146C30.7188 28.6345 31.0182 28.3359 31.3992 28.3359C31.7803 28.3359 32.0797 28.6345 32.0797 29.0146V44.4199C32.0797 45.2207 32.3111 46.0215 32.7602 46.7952C34.6656 50.0391 40.0416 52.2244 46.1252 52.2244C52.2089 52.2244 57.612 50.0391 59.5038 46.768C59.7352 46.3744 59.8985 45.9672 60.021 45.56C60.1163 45.1936 60.1707 44.8 60.1707 44.4199V29.0146C60.1707 28.6345 60.4701 28.3359 60.8512 28.3359C61.2323 28.3359 61.5317 28.6345 61.5317 29.0146V44.4199C61.5317 44.9221 61.4636 45.4243 61.3275 45.9129C61.1914 46.4423 60.9737 46.958 60.6743 47.4602C58.5511 51.1249 52.6988 53.5952 46.1116 53.5952L46.1252 53.5817Z" fill="white"/>
<path d="M31.3984 29.0123C31.3984 29.9624 31.6706 30.8718 32.1742 31.7269C34.134 35.0794 39.6461 37.4954 46.138 37.4954C52.6436 37.4954 58.1556 35.0658 60.1154 31.6997C60.374 31.2518 60.5646 30.7904 60.7007 30.3153C60.8096 29.8945 60.8776 29.4466 60.8776 28.9987C60.8776 28.0079 60.5782 27.0578 60.0474 26.1756C58.0331 22.8773 52.5755 20.5156 46.1516 20.5156C39.6325 20.5156 34.1068 22.9588 32.1742 26.3249C31.9292 26.7456 31.7387 27.1799 31.6162 27.6278C31.4937 28.0758 31.4257 28.5237 31.4257 28.9851L31.3984 29.0123Z" fill="#0F60DF"/>
<path d="M46.1252 38.1751C39.5652 38.1751 33.7129 35.7184 31.5762 32.0672C31.0046 31.09 30.7188 30.0584 30.7188 29.0133C30.7188 28.4975 30.7868 27.9682 30.9365 27.466C31.0726 26.9638 31.2768 26.4752 31.5626 26.0001C33.6721 22.3218 39.538 19.8516 46.1388 19.8516C52.7397 19.8516 58.4286 22.254 60.6198 25.8372C61.2459 26.8552 61.5589 27.9139 61.5589 29.0133C61.5589 29.5155 61.4909 30.0177 61.3548 30.5064C61.2187 31.0357 61.0009 31.5514 60.7015 32.0536C58.5783 35.7183 52.726 38.1887 46.1388 38.1887L46.1252 38.1751ZM46.1252 21.2089C40.0007 21.2089 34.6112 23.4077 32.733 26.6788C32.5153 27.0588 32.352 27.4389 32.2431 27.8325C32.1342 28.2125 32.0797 28.6197 32.0797 29.0133C32.0797 29.8141 32.3111 30.6149 32.7602 31.3886C34.6656 34.6325 40.0416 36.8178 46.1252 36.8178C52.2089 36.8178 57.612 34.6325 59.5038 31.3614C59.7352 30.9678 59.8985 30.5606 60.021 30.1399C60.1163 29.7734 60.1707 29.3798 60.1707 28.9997C60.1707 28.1582 59.9257 27.3302 59.4358 26.5294C57.4759 23.3398 52.1272 21.1953 46.1252 21.1953V21.2089Z" fill="white"/>
<path d="M9.20117 34.8651V57.2062C9.20117 58.1563 9.47338 59.0657 9.97695 59.9208C11.9368 63.2734 17.4488 65.6893 23.9407 65.6893C30.4327 65.6893 35.9583 63.2598 37.9182 59.8937C38.1768 59.4458 38.3673 58.9843 38.5034 58.5092C38.6123 58.0885 38.6803 57.6406 38.6803 57.1927V34.8516" fill="#0B00DE"/>
<path d="M23.926 66.367C17.366 66.367 11.5137 63.9102 9.37696 60.2591C8.80535 59.2819 8.51953 58.2503 8.51953 57.2052V34.8641C8.51953 34.4841 8.81895 34.1855 9.20003 34.1855C9.58111 34.1855 9.88053 34.4841 9.88053 34.8641V57.2052C9.88053 58.006 10.1119 58.8068 10.561 59.5805C12.4664 62.8244 17.8424 65.0097 23.926 65.0097C30.0097 65.0097 35.4128 62.8244 37.3046 59.5533C37.536 59.1597 37.7129 58.739 37.8218 58.3318C37.917 57.9517 37.9715 57.5717 37.9715 57.1917V34.8505C37.9715 34.4705 38.2709 34.1719 38.652 34.1719C39.033 34.1719 39.3325 34.4705 39.3325 34.8505V57.1917C39.3325 57.6939 39.2644 58.1825 39.1419 58.6711C39.0058 59.1869 38.7881 59.7162 38.4887 60.2184C36.3519 63.8831 30.5132 66.3534 23.926 66.3534V66.367Z" fill="white"/>
<path d="M9.19922 34.8639C9.19922 35.814 9.47143 36.7234 9.975 37.5785C11.9348 40.931 17.4469 43.347 23.9388 43.347C30.4307 43.347 35.9564 40.9174 37.9162 37.5513C38.1748 37.1034 38.3653 36.6419 38.5014 36.1669C38.6103 35.7461 38.6784 35.2982 38.6784 34.8503C38.6784 33.8595 38.379 32.9094 37.8482 32.0271C35.8339 28.7289 30.3763 26.3672 23.9524 26.3672C17.4333 26.3672 11.9076 28.8103 9.975 32.1764C9.73002 32.5972 9.53947 33.0315 9.41698 33.4794C9.29449 33.9274 9.22644 34.3753 9.22644 34.8367L9.19922 34.8639Z" fill="#0F60DF"/>
<path d="M23.926 44.0246C17.366 44.0246 11.5137 41.5679 9.37696 37.9168C8.80535 36.9395 8.51953 35.908 8.51953 34.8628C8.51953 34.3471 8.58759 33.8313 8.7373 33.3155C8.87339 32.8269 9.07754 32.3247 9.34974 31.8496C11.4729 28.1714 17.3252 25.6875 23.926 25.6875C30.5268 25.6875 36.2158 28.0899 38.3934 31.6732C39.0194 32.6912 39.3325 33.7498 39.3325 34.8493C39.3325 35.3515 39.2644 35.8401 39.1419 36.3423C39.0058 36.8581 38.7881 37.3874 38.4887 37.8896C36.3519 41.5543 30.5132 44.0246 23.926 44.0246ZM23.926 27.0584C17.8015 27.0584 12.412 29.2572 10.5338 32.5283C10.3161 32.9083 10.1527 33.302 10.0439 33.682C9.93498 34.062 9.88053 34.4692 9.88053 34.8628C9.88053 35.6636 10.1119 36.4644 10.561 37.2381C12.4664 40.482 17.8424 42.6673 23.926 42.6673C30.0097 42.6673 35.4128 40.4821 37.3046 37.211C37.536 36.8174 37.7129 36.3966 37.8218 35.9894C37.917 35.6093 37.9715 35.2293 37.9715 34.8493C37.9715 34.0077 37.7265 33.1798 37.2365 32.379C35.2903 29.1893 29.928 27.0448 23.926 27.0448V27.0584Z" fill="white"/>
<path d="M19.3806 32.0412C19.2717 32.0955 19.1901 32.1769 19.0812 32.2855L18.0196 33.5749C17.8699 33.7514 17.8291 33.9278 17.8971 34.0907C17.9516 34.2536 18.1013 34.3893 18.3054 34.5115C18.5912 34.6743 18.9451 34.7558 19.3262 34.7558C19.9386 34.7558 20.4694 34.525 20.7416 34.1314L20.7961 34.05L26.5259 37.3482C26.7981 37.5111 27.1519 37.5926 27.5466 37.5926C27.9413 37.5926 28.2815 37.5111 28.5537 37.3618C28.8395 37.1989 28.9893 36.9953 28.9893 36.7646C28.9893 36.5338 28.8395 36.3303 28.5673 36.181L21.3949 32.0548C21.1091 31.8919 20.7552 31.7969 20.3742 31.7969C19.9931 31.7969 19.6392 31.8783 19.3534 32.0412H19.3806Z" fill="white"/>
<path d="M50.0981 28.5255L48.1927 29.6249L47.9614 27.5076C47.9205 27.1411 47.8116 26.8018 47.6483 26.476C47.4578 26.1231 47.172 25.8245 46.7773 25.5938C46.1921 25.2544 45.5524 25.0237 44.8855 24.9016C44.1914 24.7794 43.4837 24.7658 42.8032 24.8744C41.4558 25.078 40.2037 25.7974 39.8226 26.6117C39.6321 27.0189 39.6321 27.4397 39.8226 27.8469C40.0131 28.2541 40.3942 28.6341 40.9522 28.9463C41.2244 29.0956 41.5783 29.177 41.9594 29.177C42.7624 29.177 43.4156 28.7834 43.402 28.3355C43.402 28.1184 43.2523 27.9147 42.9801 27.7654C42.7896 27.6569 42.6535 27.5347 42.5854 27.3854C42.5038 27.2497 42.5038 27.1139 42.5582 26.9646C42.6126 26.8289 42.7215 26.7203 42.8848 26.6253C43.2387 26.4217 43.5381 26.4082 43.7287 26.4217C44.0689 26.4353 44.4092 26.5439 44.7494 26.7339C44.8855 26.8154 45.1441 27.0461 45.2121 27.6297L45.7157 31.3487C45.7157 31.5659 45.8654 31.7695 46.1512 31.9324C46.437 32.0952 46.7637 32.1767 47.1584 32.1767C47.553 32.1767 47.9069 32.0952 48.1927 31.9324L52.1124 29.6792C52.3982 29.5164 52.5479 29.3128 52.5479 29.082C52.5479 28.8513 52.3982 28.6477 52.126 28.4984C51.8538 28.3491 51.4999 28.2541 51.1053 28.2541C50.7106 28.2541 50.3567 28.3355 50.0709 28.4984L50.0981 28.5255Z" fill="white"/>
<path d="M70.3647 21.3862C69.9564 21.3455 69.5481 21.3455 69.1262 21.3862C69.1398 21.2776 69.1398 21.1554 69.1262 21.0469C69.0718 20.6532 68.7996 20.3139 68.296 20.0153C67.8197 19.7438 67.2617 19.5674 66.6356 19.4859C66.0232 19.4045 65.3835 19.4181 64.7438 19.5267C63.4373 19.7574 62.3621 20.4089 61.9538 21.1418C61.736 21.5219 61.6952 21.9155 61.8449 22.2955C61.981 22.6756 62.3077 23.0149 62.8112 23.3C63.0834 23.4628 63.4237 23.5442 63.7775 23.5578C64.5669 23.585 65.2474 23.1914 65.1794 22.7163C65.1521 22.5127 64.9888 22.3227 64.7166 22.1598C64.5941 22.0919 64.5397 22.0241 64.5125 21.9291C64.4852 21.8205 64.5125 21.6984 64.5805 21.5626C64.7574 21.264 65.2338 21.0061 65.7237 20.9926C65.9687 20.9926 66.1593 21.0333 66.3498 21.1283C66.4723 21.1962 66.5404 21.2776 66.5676 21.359C66.6084 21.4676 66.5948 21.5626 66.5404 21.6712C66.4859 21.7798 66.4042 21.8612 66.2954 21.9291C66.0096 22.092 65.8599 22.2956 65.8599 22.5127C65.8599 22.7299 66.0096 22.9335 66.2954 23.0963C66.5812 23.2592 66.9214 23.3407 67.3161 23.3542C67.7108 23.3542 68.0647 23.2728 68.3505 23.1099C68.5274 23.0013 68.7316 22.9471 68.9629 22.9063C69.2079 22.8792 69.4393 22.8792 69.6979 22.9199C69.9701 22.9742 70.2014 23.0556 70.4056 23.1778C70.7322 23.3678 70.8819 23.5443 70.8683 23.7479C70.8411 24.1008 70.2967 24.5079 69.5482 24.6301C69.2624 24.6708 68.9765 24.6844 68.7043 24.6301C68.4321 24.5894 68.2008 24.5215 67.9966 24.3994C67.7244 24.2501 67.3978 24.1551 67.0303 24.1415C66.2409 24.1008 65.5468 24.508 65.6013 24.9559C65.6285 25.1595 65.7782 25.3495 66.0504 25.5123C66.622 25.8381 67.2753 26.0553 68.0102 26.1639C68.7452 26.2724 69.4937 26.2589 70.2423 26.1231C70.9772 26.001 71.6577 25.7567 72.2702 25.4038C72.8009 25.0916 73.182 24.7387 73.3998 24.3315C73.6175 23.9243 73.6448 23.5035 73.4814 23.0963C73.3181 22.6756 72.9642 22.3091 72.4198 21.9969C71.8074 21.644 71.0997 21.4269 70.3239 21.3455L70.3647 21.3862Z" fill="white"/>
<path d="M8.58714 0.689367L12.5476 2.96962C7.64805 5.79279 4.64026 10.9912 4.64026 16.624L0.693359 14.3438C0.693359 8.71099 3.71477 3.49896 8.60074 0.675781L8.58714 0.689367Z" fill="#0F60DF"/>
<path d="M4.641 17.3021C4.51851 17.3021 4.40963 17.275 4.30075 17.2071L0.381077 14.954C0.149708 14.8454 0 14.6147 0 14.3432C0 8.47971 3.15751 3.02338 8.24763 0.0916175C8.45178 -0.0305392 8.72398 -0.0305392 8.92812 0.0916175L12.8886 2.37187C13.0928 2.49402 13.2289 2.71118 13.2289 2.95549C13.2289 3.19981 13.0928 3.41696 12.8886 3.53912C8.22041 6.22657 5.3215 11.235 5.3215 16.6099C5.3215 16.8542 5.1854 17.0714 4.98125 17.1936C4.87237 17.2479 4.76349 17.2885 4.641 17.2885V17.3021ZM1.3746 13.9632L4.00133 15.4834C4.35519 10.4478 7.03634 5.81939 11.2282 2.99621L8.60148 1.47605C4.23268 4.13635 1.5107 8.85976 1.3746 13.9632Z" fill="white"/>
<path d="M4.64062 16.6251C4.64062 16.6251 14.3037 21.5113 21.4081 16.6251L12.548 12.0781L4.64062 16.6251Z" fill="#0F11D1"/>
<path d="M13.8826 19.4881C8.88773 19.4881 4.60059 17.3572 4.32839 17.2215C4.11063 17.1129 3.96094 16.8822 3.96094 16.6378C3.96094 16.3935 4.08343 16.1628 4.30119 16.027L12.2086 11.4801C12.4127 11.3579 12.6577 11.358 12.8618 11.4665L21.7219 16.0135C21.9397 16.122 22.0758 16.3392 22.0894 16.57C22.103 16.8007 21.9941 17.0314 21.8036 17.1672C19.2857 18.9045 16.4957 19.4746 13.8962 19.4746L13.8826 19.4881ZM6.15214 16.5292C8.72442 17.5336 14.9305 19.4203 20.0207 16.665L12.5624 12.8374L6.13852 16.5292H6.15214Z" fill="#0F11D1"/>
<path d="M4.64062 16.6211C4.64062 10.9883 7.66203 5.7763 12.548 2.95312V12.0606L4.64062 16.6211Z" fill="#0B00DE"/>
<path d="M4.64144 17.3031C4.51895 17.3031 4.41007 17.276 4.30119 17.2081C4.09704 17.086 3.96094 16.8688 3.96094 16.6245C3.96094 10.761 7.11844 5.30463 12.2086 2.37287C12.4127 2.25071 12.6849 2.25071 12.8891 2.37287C13.0932 2.49502 13.2293 2.71218 13.2293 2.9565V12.064C13.2293 12.3083 13.0932 12.5255 12.8891 12.6476L4.98168 17.2081C4.8728 17.2624 4.76392 17.3031 4.64144 17.3031ZM11.8683 4.19164C8.12558 6.7705 5.73023 10.9102 5.36276 15.4165L11.8683 11.6704V4.17805V4.19164Z" fill="white"/>
<path d="M87.6221 68.0781L98.3195 74.2403L92.9708 77.3213L82.2598 71.1592L87.6221 68.0781Z" fill="#0F11D1"/>
<path d="M92.9696 77.9994C92.8472 77.9994 92.7383 77.9723 92.6294 77.9044L81.9184 71.7423C81.7142 71.6201 81.5781 71.403 81.5781 71.1586C81.5781 70.9143 81.7142 70.6972 81.9184 70.575L87.2671 67.494C87.4712 67.3718 87.7434 67.3718 87.9476 67.494L98.6586 73.6561C98.8627 73.7782 98.9988 73.9954 98.9988 74.2397C98.9988 74.484 98.8627 74.7012 98.6586 74.8234L93.3099 77.9044C93.201 77.9587 93.0921 77.9994 92.9696 77.9994ZM83.6196 71.1586L92.9696 76.5336L96.9574 74.2397L87.6073 68.8648L83.6196 71.1586Z" fill="#0F11D1"/>
<path d="M71.5625 64.9953L82.2735 71.1574V58.8331C77.5101 56.0914 71.5625 59.5118 71.5625 64.9953Z" fill="#0F60DF"/>
<path d="M82.2587 71.8366C82.1362 71.8366 82.0274 71.8095 81.9185 71.7416L71.2074 65.5795C71.0033 65.4573 70.8672 65.2402 70.8672 64.9959C70.8672 62.1727 72.3235 59.6481 74.7733 58.2501C77.223 56.8385 80.1492 56.8385 82.5854 58.2501C82.7895 58.3723 82.9256 58.5894 82.9256 58.8337V71.158C82.9256 71.4023 82.7895 71.6194 82.5854 71.7416C82.4765 71.7959 82.3676 71.8366 82.2451 71.8366H82.2587ZM72.2418 64.6158L81.5782 69.9907V59.2409C79.632 58.2636 77.3728 58.3315 75.4674 59.4309C73.562 60.5303 72.3779 62.4441 72.2554 64.6158H72.2418Z" fill="white"/>
<path d="M87.6054 55.753C85.2645 54.4093 82.6378 54.545 80.5691 55.6987L75.1523 58.8205C77.2347 57.6396 79.8886 57.4768 82.2567 58.8341L87.6054 55.753Z" fill="#0F60DF"/>
<path d="M82.257 59.5128C82.1345 59.5128 82.0256 59.4856 81.9167 59.4177C79.9025 58.264 77.5071 58.2504 75.4928 59.4041C75.1662 59.5942 74.7579 59.472 74.5673 59.1463C74.3768 58.8205 74.4993 58.4133 74.8123 58.2233L80.2291 55.1015C82.6653 53.7578 85.537 53.7714 87.9459 55.1558C88.1501 55.278 88.2862 55.4952 88.2862 55.7395C88.2862 55.9838 88.1501 56.2009 87.9459 56.3231L82.5972 59.4041C82.4884 59.4584 82.3795 59.4992 82.257 59.4992V59.5128ZM79.29 57.2189C80.2972 57.3004 81.3043 57.5854 82.2434 58.0604L86.1222 55.8209C84.4073 55.2237 82.5292 55.3866 80.896 56.2824L79.29 57.2053V57.2189Z" fill="white"/>
<path d="M82.2598 58.835V71.1592L87.6085 68.0782V55.7539L82.2598 58.835Z" fill="#0F11D1"/>
<path d="M82.2586 71.8373C82.1361 71.8373 82.0273 71.8102 81.9184 71.7423C81.7142 71.6202 81.5781 71.403 81.5781 71.1587V58.8345C81.5781 58.5901 81.7142 58.373 81.9184 58.2508L87.2671 55.1697C87.4712 55.0476 87.7434 55.0476 87.9476 55.1697C88.1517 55.2919 88.2878 55.5091 88.2878 55.7534V68.0776C88.2878 68.322 88.1517 68.5391 87.9476 68.6613L82.5989 71.7423C82.49 71.7966 82.3811 71.8373 82.2586 71.8373ZM82.9391 59.2281V69.9914L86.9268 67.6976V56.9343L82.9391 59.2281Z" fill="white"/>
</svg>
