<svg width="23" height="23" viewBox="0 0 23 23" fill="none" xmlns="http://www.w3.org/2000/svg">
<path fill-rule="evenodd" clip-rule="evenodd" d="M11.5 0C17.847 0 23 5.15299 23 11.5C23 17.847 17.847 23 11.5 23C5.15299 23 0 17.847 0 11.5C0 5.15299 5.15299 0 11.5 0ZM7.90459 17.963V8.98213H4.9189V17.963H7.90459ZM18.6688 17.963V12.8128C18.6688 10.0542 17.1959 8.77095 15.2318 8.77095C13.6481 8.77095 12.9387 9.64194 12.5415 10.2537V8.98213H9.55659C9.59617 9.82473 9.55659 17.963 9.55659 17.963H12.5415V12.9474C12.5415 12.679 12.5608 12.4106 12.6399 12.2188C12.8553 11.6826 13.3468 11.1272 14.1715 11.1272C15.2512 11.1272 15.6837 11.9511 15.6837 13.1578V17.963H18.6688ZM6.43191 4.65166C5.41039 4.65166 4.74299 5.32324 4.74299 6.20349C4.74299 7.06518 5.39009 7.75527 6.39238 7.75527H6.41165C7.45272 7.75527 8.10072 7.06518 8.10072 6.20349C8.0814 5.32324 7.45276 4.65166 6.43191 4.65166Z" fill="#0F20E8"/>
</svg>
