<svg width="183" height="250" viewBox="0 0 183 250" fill="none" xmlns="http://www.w3.org/2000/svg">
<g clip-path="url(#clip0_14274_57048)">
<path d="M95.8952 170.893C95.3239 170.893 94.8405 170.432 94.7965 169.861C94.7526 169.245 95.214 168.74 95.8293 168.696H96.2688C96.8841 168.652 97.3895 169.091 97.4334 169.685C97.4774 170.278 97.0159 170.805 96.4006 170.849H95.9611C95.9611 170.849 95.9172 170.871 95.8952 170.871V170.893ZM84.9301 170.805C84.9301 170.805 84.8642 170.805 84.8422 170.805L84.4027 170.762C83.7875 170.718 83.348 170.19 83.3919 169.575C83.4359 168.96 83.9852 168.52 84.5785 168.564L85.018 168.608C85.6333 168.652 86.0728 169.179 86.0288 169.795C85.9849 170.366 85.5014 170.805 84.9301 170.805ZM107.234 169.443C106.728 169.443 106.267 169.07 106.157 168.564C106.047 167.971 106.421 167.399 107.036 167.268L107.454 167.18C108.025 167.07 108.618 167.443 108.75 168.037C108.86 168.63 108.486 169.201 107.893 169.333L107.454 169.421C107.454 169.421 107.322 169.421 107.234 169.421V169.443ZM73.6354 169.201C73.6354 169.201 73.4816 169.201 73.4157 169.179L72.9762 169.091C72.3829 168.96 72.0093 168.388 72.1412 167.795C72.273 167.202 72.8663 166.828 73.4376 166.96L73.8551 167.048C74.4484 167.18 74.822 167.751 74.7121 168.344C74.6023 168.872 74.1408 169.223 73.6354 169.223V169.201ZM118.265 166.499C117.803 166.499 117.386 166.213 117.232 165.751C117.034 165.18 117.342 164.543 117.913 164.345L118.331 164.213C118.88 164.015 119.517 164.323 119.737 164.894C119.935 165.466 119.627 166.103 119.056 166.301L118.638 166.433C118.529 166.477 118.397 166.499 118.287 166.499H118.265ZM62.6483 166.103C62.5165 166.103 62.4066 166.103 62.2748 166.037L61.8573 165.883C61.2859 165.664 61.0003 165.048 61.198 164.477C61.3958 163.906 62.055 163.62 62.6044 163.818L62.9999 163.972C63.5712 164.169 63.8569 164.807 63.6591 165.378C63.5053 165.817 63.0658 166.103 62.6263 166.103H62.6483ZM122.945 164.741C122.506 164.741 122.11 164.477 121.935 164.059C121.693 163.488 121.979 162.851 122.528 162.631L122.945 162.455C123.495 162.236 124.154 162.499 124.374 163.071C124.593 163.642 124.33 164.279 123.78 164.499L123.385 164.675C123.253 164.741 123.099 164.763 122.967 164.763L122.945 164.741ZM52.1666 161.554C51.9909 161.554 51.8151 161.51 51.6612 161.423L51.2657 161.225C50.7383 160.939 50.5186 160.28 50.8042 159.73C51.0899 159.181 51.7491 158.983 52.2765 159.269L51.7711 160.236L52.4743 159.357L52.6721 159.467C53.1994 159.752 53.4192 160.412 53.1335 160.961C52.9357 161.335 52.5622 161.554 52.1666 161.554ZM133.185 159.73C132.812 159.73 132.438 159.533 132.24 159.181C131.933 158.654 132.109 157.995 132.636 157.687L133.01 157.467C133.537 157.16 134.196 157.335 134.504 157.863C134.811 158.39 134.614 159.049 134.108 159.357L133.735 159.577C133.559 159.687 133.361 159.73 133.185 159.73ZM42.4101 155.621C42.1904 155.621 41.9706 155.555 41.7729 155.424L41.4213 155.182C40.9159 154.83 40.806 154.149 41.1576 153.644C41.5092 153.138 42.1904 153.028 42.6958 153.38L43.0474 153.644C43.5528 153.995 43.6626 154.676 43.3111 155.182C43.0913 155.489 42.7617 155.643 42.4101 155.643V155.621ZM142.678 153.38C142.349 153.38 142.019 153.226 141.821 152.962C141.448 152.479 141.536 151.798 142.019 151.424L142.371 151.139C142.854 150.765 143.535 150.853 143.909 151.336C144.282 151.82 144.172 152.501 143.711 152.875L143.359 153.138C143.162 153.292 142.92 153.38 142.678 153.38ZM33.5326 148.458C33.2689 148.458 33.0052 148.37 32.7854 148.172L32.4558 147.864C32.0163 147.447 31.9944 146.744 32.4119 146.304C32.8294 145.865 33.5326 145.843 33.972 146.26L34.2797 146.546C34.7192 146.964 34.7411 147.645 34.3456 148.106C34.1259 148.348 33.8402 148.458 33.5326 148.458ZM151.226 145.799C150.94 145.799 150.677 145.689 150.457 145.491C150.018 145.074 150.018 144.371 150.457 143.931L150.765 143.623C151.182 143.184 151.885 143.184 152.325 143.623C152.764 144.041 152.764 144.744 152.325 145.184L152.017 145.491C151.797 145.711 151.512 145.821 151.226 145.821V145.799ZM25.7098 140.13C25.3801 140.13 25.0725 139.998 24.8528 139.712L24.5671 139.36C24.1935 138.899 24.2595 138.196 24.7209 137.822C25.1824 137.449 25.8856 137.515 26.2591 137.976L26.5448 138.328C26.9183 138.789 26.8524 139.492 26.391 139.866C26.1932 140.042 25.9515 140.108 25.6878 140.108L25.7098 140.13ZM158.653 137.119C158.434 137.119 158.192 137.053 157.994 136.899C157.511 136.526 157.401 135.845 157.774 135.361L158.038 135.01C158.412 134.526 159.093 134.416 159.576 134.79C160.06 135.163 160.17 135.845 159.796 136.328L159.532 136.68C159.313 136.965 158.983 137.119 158.653 137.119ZM18.1506 130.285L17.9089 129.912C17.6013 129.384 17.7551 128.725 18.2825 128.395C18.7879 128.088 19.4691 128.263 19.7987 128.769L19.9525 129.033L19.0736 129.714L18.1287 130.285H18.1506ZM164.85 127.538C164.674 127.538 164.477 127.494 164.323 127.407C163.795 127.121 163.598 126.44 163.883 125.912L164.85 126.44L163.993 125.714L164.103 125.517C164.389 124.989 165.07 124.792 165.597 125.099C166.125 125.385 166.322 126.066 166.037 126.593L165.817 126.967C165.619 127.319 165.246 127.538 164.85 127.538ZM13.7778 120.704C13.3603 120.704 12.9647 120.463 12.767 120.045L12.5912 119.628C12.3495 119.078 12.5912 118.419 13.1625 118.177C13.7119 117.936 14.3711 118.177 14.6128 118.749L14.7886 119.144C15.0303 119.694 14.7886 120.353 14.2392 120.595C14.0854 120.66 13.9316 120.682 13.7998 120.682L13.7778 120.704ZM169.684 117.189C169.553 117.189 169.421 117.167 169.289 117.123C168.718 116.903 168.454 116.266 168.674 115.694L168.827 115.299C169.047 114.727 169.684 114.442 170.234 114.661C170.805 114.881 171.091 115.518 170.871 116.068L170.695 116.485C170.519 116.925 170.102 117.189 169.684 117.189ZM9.86639 109.981C9.38296 109.981 8.94348 109.673 8.81163 109.19L8.67979 108.772C8.50399 108.179 8.85558 107.586 9.42691 107.41C10.0202 107.234 10.6135 107.586 10.7893 108.157L10.9211 108.575C11.0969 109.168 10.7454 109.761 10.174 109.937C10.0642 109.959 9.97626 109.981 9.86639 109.981ZM173.112 106.311C173.112 106.311 172.937 106.311 172.849 106.289C172.255 106.157 171.904 105.564 172.036 104.971L172.124 104.553C172.255 103.96 172.849 103.587 173.442 103.718C174.035 103.85 174.409 104.444 174.277 105.037L174.167 105.476C174.035 105.982 173.596 106.311 173.09 106.311H173.112ZM7.44923 98.8181C6.92185 98.8181 6.43842 98.4226 6.3725 97.8732L6.30658 97.4338C6.21868 96.8405 6.63619 96.2691 7.22949 96.1812C7.82279 96.0933 8.39412 96.5108 8.48202 97.1041L8.54794 97.5436C8.63584 98.1369 8.21833 98.7083 7.62503 98.7962C7.58108 98.7962 7.51516 98.7962 7.47121 98.7962L7.44923 98.8181ZM175.024 95.0386C175.024 95.0386 174.936 95.0386 174.914 95.0386C174.321 94.9726 173.882 94.4453 173.925 93.83L173.969 93.4125C174.013 92.7972 174.585 92.3577 175.156 92.4236C175.771 92.4676 176.211 93.0169 176.145 93.6102L176.101 94.0717C176.035 94.643 175.574 95.0605 175.002 95.0605L175.024 95.0386ZM6.54829 87.4355C5.95499 87.4355 5.44958 86.9521 5.44958 86.3588V85.8973C5.44958 85.282 5.93302 84.7986 6.54829 84.7986C7.16357 84.7986 7.647 85.282 7.647 85.8973V86.3148C7.647 86.9301 7.18554 87.4135 6.57027 87.4355H6.54829ZM175.398 83.634C174.804 83.634 174.321 83.1725 174.299 82.5573V82.1397L176.474 82.0299V82.4913C176.518 83.1066 176.035 83.612 175.42 83.612H175.398V83.634ZM7.22949 76.0529C7.22949 76.0529 7.1416 76.0529 7.09765 76.0529C6.50434 75.987 6.06486 75.4376 6.13078 74.8223L6.19671 74.3829C6.2846 73.7896 6.83396 73.372 7.42726 73.438C8.02056 73.5259 8.46004 74.0752 8.37215 74.6685L8.30623 75.086C8.2403 75.6354 7.75687 76.0529 7.20752 76.0529H7.22949ZM174.255 72.2953C173.728 72.2953 173.266 71.9218 173.178 71.3944L173.09 70.9549C172.981 70.3616 173.376 69.7903 173.969 69.6804C174.563 69.5705 175.134 69.9661 175.244 70.5594L175.332 70.9988C175.442 71.5921 175.046 72.1635 174.453 72.2733C174.387 72.2733 174.321 72.2733 174.255 72.2733V72.2953ZM9.40493 64.8461C9.40493 64.8461 9.22914 64.8461 9.11927 64.8021C8.52597 64.6483 8.17438 64.055 8.3282 63.4617L8.43807 63.0222C8.59189 62.4289 9.20717 62.0773 9.77849 62.2531C10.3718 62.4069 10.7014 63.0222 10.5476 63.5935L10.4377 64.0111C10.3059 64.5165 9.86639 64.8241 9.38296 64.8241L9.40493 64.8461ZM171.53 61.1984C171.069 61.1984 170.629 60.9127 170.476 60.4293L170.344 60.0118C170.168 59.4404 170.475 58.8252 171.047 58.6274C171.618 58.4516 172.233 58.7592 172.431 59.3306L172.563 59.7481C172.739 60.3194 172.431 60.9347 171.86 61.1324C171.75 61.1764 171.64 61.1764 171.53 61.1764V61.1984ZM13.0966 54.0348C12.9428 54.0348 12.8109 54.0128 12.6571 53.9469C12.1078 53.7052 11.8441 53.0679 12.0858 52.4966L12.1737 52.2769L13.2724 52.5186L14.2173 53.1338L14.1294 53.3536C13.9536 53.7711 13.5361 54.0128 13.1186 54.0128L13.0966 54.0348ZM167.377 50.5629C166.96 50.5629 166.564 50.3212 166.388 49.9256L166.213 49.5301C165.949 48.9807 166.191 48.3215 166.74 48.0578C167.289 47.7941 167.948 48.0358 168.212 48.5852L168.41 48.9807C168.674 49.5301 168.41 50.1893 167.883 50.453C167.729 50.5189 167.575 50.5629 167.421 50.5629H167.377ZM18.1946 43.8388C17.9968 43.8388 17.821 43.7948 17.6452 43.685C17.1179 43.3773 16.9421 42.6961 17.2717 42.1687L17.4914 41.7952C17.7991 41.2678 18.4803 41.114 18.9857 41.3996C19.513 41.7073 19.6888 42.3885 19.3592 42.9159L19.1395 43.2894C18.9417 43.641 18.5682 43.8388 18.1946 43.8388ZM161.84 40.6086C161.488 40.6086 161.115 40.4328 160.917 40.1032L160.675 39.7296C160.345 39.2242 160.499 38.543 161.005 38.2134C161.51 37.8838 162.191 38.0156 162.521 38.543L162.763 38.9166C163.092 39.422 162.938 40.1032 162.433 40.4328C162.257 40.5427 162.037 40.6086 161.84 40.6086ZM24.611 34.3899C24.3693 34.3899 24.1276 34.302 23.9299 34.1482C23.4464 33.7746 23.3805 33.0714 23.7541 32.61L24.0177 32.2804C24.3913 31.7969 25.0945 31.731 25.5559 32.1046C26.0394 32.4781 26.1053 33.1593 25.7317 33.6428L25.4461 33.9944C25.2263 34.258 24.8967 34.4119 24.5891 34.4119L24.611 34.3899ZM154.984 31.4454C154.676 31.4454 154.368 31.3135 154.149 31.0718L153.863 30.7422C153.467 30.2807 153.511 29.5995 153.973 29.182C154.434 28.7865 155.116 28.8304 155.533 29.2919L155.819 29.6215C156.214 30.083 156.17 30.7642 155.709 31.1817C155.511 31.3575 155.247 31.4454 154.984 31.4454ZM32.2581 25.9079C31.9724 25.9079 31.6867 25.798 31.467 25.5563C31.0495 25.1168 31.0715 24.4136 31.5109 23.9961L31.8186 23.6885C32.2581 23.271 32.9393 23.271 33.3787 23.7104C33.7962 24.1499 33.7963 24.8531 33.3568 25.2706L33.0272 25.5783C32.8074 25.776 32.5437 25.8859 32.28 25.8859L32.2581 25.9079ZM146.963 23.3369C146.699 23.3369 146.436 23.249 146.238 23.0512L145.93 22.7656C145.469 22.37 145.425 21.6669 145.821 21.2054C146.216 20.7439 146.919 20.7 147.381 21.0955L147.732 21.4032C148.194 21.7987 148.216 22.5019 147.82 22.9633C147.6 23.205 147.293 23.3369 147.007 23.3369H146.963ZM40.9818 18.5465C40.6522 18.5465 40.3006 18.3927 40.0809 18.0851C39.7293 17.6016 39.8391 16.8985 40.3226 16.5469L40.6742 16.2832C41.1576 15.9316 41.8608 16.0195 42.2123 16.5249C42.5639 17.0083 42.476 17.7115 41.9706 18.0631L41.5971 18.3268C41.3993 18.4586 41.1796 18.5245 40.9598 18.5245L40.9818 18.5465ZM137.91 16.3711C137.69 16.3711 137.492 16.3052 137.295 16.1953L136.943 15.9536C136.438 15.624 136.284 14.9428 136.613 14.4374C136.943 13.9319 137.624 13.7781 138.13 14.1077L138.503 14.3495C139.009 14.6791 139.14 15.3603 138.811 15.8657C138.591 16.1733 138.261 16.3491 137.888 16.3491L137.91 16.3711ZM50.6285 12.4377C50.2329 12.4377 49.8594 12.218 49.6616 11.8664C49.3759 11.339 49.5737 10.6578 50.123 10.3721L50.4966 10.1744C51.024 9.8887 51.6832 10.0865 51.9909 10.6139C52.2765 11.1412 52.0787 11.8224 51.5514 12.1081L51.1558 12.3278C50.98 12.4157 50.8042 12.4597 50.6285 12.4597V12.4377ZM127.999 10.7017C127.846 10.7017 127.67 10.6578 127.516 10.5919L127.142 10.4161C126.593 10.1524 126.351 9.49317 126.615 8.94382C126.879 8.39446 127.538 8.17472 128.087 8.41644L128.505 8.6142C129.054 8.87789 129.274 9.53712 129.01 10.0865C128.813 10.482 128.439 10.7017 128.021 10.7017H127.999ZM61.0003 7.66931C60.5608 7.66931 60.1433 7.40562 59.9675 6.96614C59.7477 6.39481 60.0334 5.75756 60.6047 5.53782L61.0222 5.384C61.5936 5.18623 62.2308 5.44992 62.4286 6.02125C62.6483 6.59258 62.3627 7.22983 61.7913 7.4276L61.3958 7.58142C61.264 7.62537 61.1321 7.64734 61.0003 7.64734V7.66931ZM117.43 6.39481C117.32 6.39481 117.21 6.39481 117.078 6.32889L116.837 6.24099L117.012 5.14229L117.364 4.08753L117.781 4.21937C118.353 4.41714 118.66 5.03242 118.485 5.60374C118.331 6.0652 117.913 6.35087 117.452 6.35087L117.43 6.39481ZM72.295 4.26332L71.9214 3.23053L71.6797 2.1538L72.1192 2.04393C72.7125 1.91208 73.3058 2.28565 73.4376 2.87895C73.5695 3.47225 73.1959 4.06555 72.6026 4.1974L72.3169 4.26332H72.295ZM106.377 3.56015C106.377 3.56015 106.245 3.56015 106.179 3.56015L105.762 3.47225C105.168 3.36238 104.773 2.79105 104.883 2.19775C104.993 1.60445 105.586 1.20891 106.157 1.31878L106.597 1.40668C107.19 1.51655 107.585 2.08788 107.476 2.68118C107.388 3.20856 106.926 3.58212 106.399 3.58212L106.377 3.56015ZM83.1942 2.50539C82.6448 2.50539 82.1614 2.08788 82.0955 1.51655C82.0295 0.923248 82.491 0.373894 83.0843 0.329946L83.5238 0.285997C84.1171 0.220075 84.6664 0.681532 84.7104 1.27483C84.7543 1.86814 84.3148 2.41749 83.7215 2.46144L83.2821 2.50539C83.2821 2.50539 83.2161 2.50539 83.1722 2.50539H83.1942ZM95.0382 2.2417C95.0382 2.2417 94.9943 2.2417 94.9723 2.2417H94.5328C93.9175 2.19775 93.4561 1.69234 93.4781 1.07707C93.5 0.461791 93.9175 -0.021641 94.6207 0.0223073H95.0602C95.6755 0.0662556 96.1369 0.593635 96.093 1.18694C96.071 1.78024 95.5876 2.21972 94.9943 2.21972L95.0382 2.2417Z" fill="#0B00DB"/>
<path d="M61.3958 11.1409C61.2639 11.1409 61.1101 11.1189 60.9783 11.053C60.4289 10.8112 60.1433 10.174 60.385 9.62464L61.8133 6.19667L58.3853 4.76835C57.836 4.52664 57.5503 3.88938 57.792 3.34003C58.0337 2.79068 58.671 2.50501 59.2203 2.74673L63.6591 4.61453C63.9228 4.7244 64.1425 4.94414 64.2524 5.20783C64.3623 5.47152 64.3623 5.77916 64.2524 6.04285L62.3846 10.4816C62.2088 10.8991 61.7913 11.1628 61.3738 11.1628L61.3958 11.1409Z" fill="#0B00DB"/>
<path d="M115.364 9.3829C114.969 9.3829 114.573 9.16316 114.375 8.78959C114.112 8.24024 114.31 7.58102 114.859 7.31733L118.177 5.64729L116.507 2.32919C116.243 1.77984 116.441 1.12061 116.99 0.856924C117.54 0.593234 118.199 0.791001 118.463 1.34036L120.638 5.62532C120.902 6.17467 120.704 6.8339 120.155 7.09759L115.87 9.27303C115.716 9.36092 115.54 9.3829 115.364 9.3829Z" fill="#0B00DB"/>
<path d="M163.334 42.6746C163.334 42.6746 163.202 42.6746 163.136 42.6746L158.412 41.7956C157.818 41.6857 157.423 41.1144 157.533 40.5211C157.643 39.9278 158.236 39.5323 158.807 39.6421L162.455 40.3233L163.136 36.6756C163.246 36.0823 163.839 35.6868 164.411 35.7967C165.004 35.9065 165.399 36.4778 165.29 37.0712L164.411 41.7956C164.323 42.323 163.861 42.6965 163.334 42.6965V42.6746Z" fill="#0B00DB"/>
<path d="M174.563 97.4119C174.255 97.4119 173.925 97.2801 173.706 97.0164L170.673 93.2808C170.3 92.8193 170.366 92.1162 170.827 91.7426C171.289 91.369 171.992 91.435 172.365 91.8964L174.717 94.775L177.595 92.4238C178.057 92.0502 178.76 92.1162 179.133 92.5776C179.507 93.0391 179.441 93.7423 178.98 94.1158L175.244 97.1482C175.046 97.324 174.804 97.39 174.541 97.39L174.563 97.4119Z" fill="#0B00DB"/>
<path d="M20.6337 46.1245C20.1503 46.1245 19.7108 45.7949 19.5789 45.3115L18.5901 41.7297L15.0083 42.7185C14.415 42.8724 13.8217 42.5427 13.6459 41.9494C13.4921 41.3561 13.8217 40.7628 14.415 40.609L19.0516 39.3345C19.6449 39.1807 20.2382 39.5103 20.414 40.1036L21.6885 44.7402C21.8423 45.3335 21.5127 45.9268 20.9194 46.0806C20.8315 46.1026 20.7216 46.1245 20.6337 46.1245Z" fill="#0B00DB"/>
<path d="M4.06518 99.8949C3.80149 99.8949 3.5378 99.807 3.34003 99.6093C2.87857 99.2137 2.8566 98.5106 3.25213 98.0491L6.46036 94.4673C6.65813 94.2476 6.92182 94.1157 7.20748 94.0938C7.49315 94.0938 7.77881 94.1816 7.99855 94.3794L11.5803 97.5876C12.0418 97.9832 12.0638 98.6863 11.6682 99.1478C11.2727 99.6093 10.5695 99.6312 10.1081 99.2357L7.33933 96.7526L4.85625 99.5214C4.63651 99.7631 4.32887 99.8949 4.0432 99.8949H4.06518Z" fill="#0B00DB"/>
<path d="M181.441 169.245V188.802C181.419 204.14 172.629 219.5 155.094 231.234C137.383 243.078 114.134 248.967 90.9072 248.923C67.9662 248.879 45.0691 243.034 27.5557 231.388C9.88846 219.631 1.07682 204.206 1.0988 188.78V169.223" fill="#BDBFF2"/>
<path d="M91.1928 250H90.9071C66.7795 249.956 44.0582 243.671 26.9623 232.289C9.53682 220.708 -0.0219364 205.26 3.78022e-05 188.78V169.223C3.78022e-05 168.607 0.483469 168.124 1.09875 168.124C1.71402 168.124 2.19745 168.607 2.19745 169.223V188.78C2.17548 204.491 11.4046 219.302 28.1709 230.443C44.9152 241.584 67.197 247.736 90.9071 247.78H91.1708C115.101 247.78 137.58 241.562 154.456 230.289C171.113 219.148 180.298 204.403 180.32 188.78V169.245C180.32 168.629 180.803 168.146 181.419 168.146C182.034 168.146 182.517 168.629 182.517 169.245V188.802C182.495 205.194 172.959 220.576 155.665 232.135C138.415 243.671 115.518 250 91.1488 250H91.1928Z" fill="#0B00DB"/>
<path d="M27.4458 126.813C9.91043 138.547 1.12077 153.885 1.0988 169.245C1.07682 184.671 9.88846 200.097 27.5557 211.831C45.0691 223.478 67.9662 229.301 90.9072 229.367C114.134 229.411 137.383 223.521 155.094 211.677C172.651 199.943 181.419 184.605 181.441 169.245C181.463 153.819 172.651 138.394 154.984 126.659C137.383 114.947 114.332 109.124 91.2808 109.124C68.1859 109.124 45.0691 115.035 27.4678 126.813H27.4458Z" fill="white"/>
<path d="M91.1708 230.443H90.9071C66.7795 230.399 44.0582 224.114 26.9623 212.732C9.53682 201.173 -0.0219364 185.726 3.78022e-05 169.245C0.022012 152.852 9.5588 137.47 26.8525 125.912C44.0802 114.397 66.9553 108.047 91.2807 108.047H91.3686C115.606 108.047 138.415 114.331 155.599 125.758C173.003 137.338 182.583 152.786 182.561 169.267C182.539 185.66 173.003 201.042 155.709 212.6C138.459 224.136 115.562 230.465 91.1928 230.465L91.1708 230.443ZM27.4458 126.813L28.061 127.736C11.4046 138.877 2.21943 153.621 2.19745 169.245C2.17548 184.956 11.4046 199.767 28.1709 210.908C44.9152 222.049 67.197 228.202 90.9071 228.246H91.1708C115.101 228.246 137.58 222.027 154.478 210.754C171.135 199.613 180.32 184.869 180.342 169.245C180.364 153.533 171.135 138.723 154.368 127.582C137.536 116.397 115.167 110.244 91.3686 110.244H91.2807C67.3728 110.244 44.9372 116.485 28.083 127.736L27.4677 126.813H27.4458Z" fill="#0B00DB"/>
<path d="M91.3316 221.608C136.817 221.552 173.662 198.063 173.627 169.143C173.591 140.223 136.689 116.823 91.2037 116.879C45.718 116.934 8.87325 140.424 8.90858 169.344C8.94391 198.264 45.846 221.663 91.3316 221.608Z" fill="#BDBFF2"/>
<path d="M91.1709 222.664C69.9218 222.664 48.6948 217.544 32.4999 207.282C16.6125 197.196 7.84485 183.748 7.82288 169.355C7.82288 154.984 16.5246 141.492 32.412 131.383C64.8238 110.728 117.606 110.662 150.062 131.23C165.949 141.316 174.717 154.764 174.739 169.157C174.739 183.528 166.037 197.02 150.15 207.15C133.911 217.5 112.53 222.686 91.1709 222.686V222.664ZM91.3686 118.001C70.4273 118.001 49.5079 123.077 33.5766 133.229C18.3705 142.92 9.99832 155.753 10.0203 169.355C10.0203 182.957 18.4364 195.768 33.6865 205.414C65.505 225.587 117.21 225.521 148.963 205.261C164.169 195.57 172.541 182.737 172.519 169.135C172.519 155.533 164.103 142.722 148.853 133.076C132.988 123.011 112.178 118.001 91.3466 118.001H91.3686Z" fill="#0B00DB"/>
<path d="M90.9403 207.105C127.154 207.06 156.49 190.073 156.465 169.163C156.439 148.253 127.062 131.338 90.8478 131.382C54.634 131.426 25.2977 148.413 25.3232 169.323C25.3488 190.234 54.7266 207.149 90.9403 207.105Z" fill="white"/>
<path d="M90.8193 208.161C73.8772 208.161 56.9351 204.447 44.0363 197.02C31.2913 189.681 24.2595 179.836 24.2375 169.333C24.2375 158.807 31.2253 148.963 43.9484 141.579C69.812 126.615 111.892 126.549 137.778 141.469C150.523 148.809 157.555 158.653 157.577 169.157C157.577 179.682 150.589 189.527 137.866 196.91C124.901 204.425 107.849 208.161 90.8193 208.161ZM91.017 132.482C74.3826 132.482 57.7262 136.152 45.0691 143.469C33.0492 150.435 26.435 159.598 26.435 169.311C26.435 179.023 33.0931 188.186 45.113 195.108C70.4053 209.655 111.519 209.611 136.745 194.998C148.765 188.033 155.379 178.869 155.379 169.157C155.379 159.444 148.721 150.303 136.701 143.359C124.088 136.108 107.564 132.482 91.017 132.482Z" fill="#0B00DB"/>
<path d="M90.9329 201.018C122.171 200.98 147.477 186.723 147.456 169.174C147.434 151.626 122.093 137.431 90.8553 137.469C59.6172 137.507 34.3112 151.764 34.3326 169.313C34.3541 186.861 59.6949 201.056 90.9329 201.018Z" fill="#0B00DB"/>
<path d="M90.8192 202.074C76.1844 202.074 61.5496 198.953 50.4087 192.713C39.3557 186.516 33.2689 178.21 33.2469 169.31C33.2249 160.411 39.3118 152.083 50.3428 145.864C72.6685 133.295 109.036 133.229 131.405 145.754C142.458 151.951 148.545 160.257 148.567 169.157C148.567 178.056 142.502 186.384 131.471 192.603C120.265 198.91 105.542 202.074 90.8192 202.074ZM90.995 138.569C76.6678 138.569 62.3407 141.645 51.4195 147.776C41.1136 153.577 35.4223 161.224 35.4443 169.31C35.4663 177.397 41.1576 185.022 51.4635 190.801C73.2399 202.997 108.618 202.953 130.373 190.691C140.679 184.89 146.37 177.243 146.348 169.157C146.326 161.07 140.635 153.445 130.329 147.666C119.473 141.579 105.234 138.547 90.995 138.547V138.569Z" fill="white"/>
<path d="M90.5555 195.768H90.116C89.5007 195.768 89.0173 195.262 89.0173 194.647C89.0173 194.054 89.5227 193.548 90.116 193.548H90.5555C91.1708 193.548 91.6542 194.054 91.6542 194.669C91.6542 195.262 91.1488 195.768 90.5555 195.768ZM101.411 195.065C100.861 195.065 100.4 194.669 100.334 194.12C100.246 193.526 100.686 192.955 101.279 192.889L101.696 192.823C102.268 192.735 102.861 193.153 102.927 193.768C103.015 194.361 102.597 194.933 101.982 194.999L101.543 195.065C101.543 195.065 101.455 195.065 101.389 195.065H101.411ZM79.107 194.911L78.6675 194.845C78.0742 194.757 77.6567 194.186 77.7446 193.592C77.8325 192.999 78.4038 192.582 78.9971 192.669L79.3267 192.713L79.107 194.911ZM112.464 192.691C112.002 192.691 111.563 192.384 111.409 191.922C111.233 191.351 111.563 190.736 112.134 190.56L112.552 190.428C113.145 190.252 113.738 190.56 113.936 191.153C114.112 191.725 113.804 192.34 113.211 192.538L112.793 192.669C112.793 192.669 112.574 192.713 112.464 192.713V192.691ZM68.2517 192.384C68.1419 192.384 68.032 192.384 67.9001 192.34L67.4826 192.208C66.9113 192.01 66.6037 191.395 66.8014 190.824C66.9992 190.252 67.6145 189.945 68.1858 190.142L68.5813 190.274C69.1527 190.472 69.4823 191.087 69.2845 191.659C69.1307 192.12 68.7132 192.406 68.2517 192.406V192.384ZM123.495 188.143L122.352 186.253L122.726 186.033C123.253 185.726 123.912 185.923 124.22 186.451C124.528 186.978 124.33 187.659 123.802 187.945L123.473 188.121L123.495 188.143ZM57.9458 187.791C57.7481 187.791 57.5503 187.747 57.3745 187.637L57.001 187.396C56.4736 187.088 56.3198 186.407 56.6494 185.879C56.957 185.352 57.6382 185.198 58.1656 185.528L58.5172 185.748C59.0446 186.055 59.2203 186.736 58.8907 187.264C58.693 187.615 58.3194 187.791 57.9458 187.791ZM131.735 181.331C131.471 181.331 131.23 181.243 131.01 181.067C130.548 180.672 130.505 179.968 130.9 179.507L131.054 179.309L132.021 179.88L132.856 180.584L132.57 180.913C132.35 181.177 132.043 181.309 131.735 181.309V181.331ZM49.3759 180.496C49.0463 180.496 48.7167 180.342 48.497 180.056L48.2333 179.705C47.8597 179.221 47.9696 178.518 48.453 178.166C48.9364 177.815 49.6396 177.903 49.9912 178.386L50.2329 178.716C50.6065 179.199 50.5186 179.88 50.0351 180.254C49.8374 180.408 49.5957 180.474 49.3759 180.474V180.496ZM136.174 171.135C136.174 171.135 136.13 171.135 136.108 171.135C135.493 171.091 135.031 170.585 135.075 169.97V169.575C135.119 168.959 135.603 168.498 136.218 168.498C136.833 168.498 137.295 169.025 137.295 169.619V170.08C137.229 170.673 136.745 171.113 136.174 171.113V171.135ZM45.6623 170.036C45.047 170.036 44.5636 169.531 44.5856 168.915V168.432C44.6295 167.839 45.1789 167.377 45.7722 167.399C46.3874 167.443 46.8489 167.948 46.8049 168.564V168.959C46.783 169.553 46.2995 170.036 45.6843 170.036H45.6623ZM132.768 160.565C132.438 160.565 132.109 160.411 131.889 160.126L131.625 159.796C131.252 159.313 131.362 158.631 131.845 158.258C132.328 157.884 133.01 157.994 133.383 158.478L133.647 158.829C134.02 159.313 133.911 160.016 133.427 160.367C133.229 160.521 133.01 160.587 132.768 160.587V160.565ZM49.7934 159.73C49.5517 159.73 49.288 159.642 49.0903 159.488C48.6288 159.093 48.5629 158.412 48.9364 157.95L49.2221 157.599C49.6176 157.137 50.3208 157.071 50.7823 157.467C51.2437 157.862 51.3096 158.544 50.9141 159.005L50.6504 159.335C50.4307 159.598 50.123 159.73 49.7934 159.73ZM124.33 153.138C124.132 153.138 123.934 153.094 123.758 152.984L123.385 152.764C122.858 152.457 122.704 151.776 123.011 151.248C123.319 150.721 124 150.567 124.528 150.875L124.901 151.094C125.428 151.402 125.582 152.083 125.253 152.611C125.055 152.94 124.681 153.138 124.308 153.138H124.33ZM58.5172 152.611C58.1436 152.611 57.7701 152.413 57.5723 152.061C57.2646 151.534 57.4624 150.853 57.9898 150.567L58.3634 150.347L59.0226 151.248L59.4401 152.281L59.0665 152.501C58.8907 152.589 58.7149 152.654 58.5172 152.654V152.611ZM114.068 148.457C113.958 148.457 113.826 148.457 113.716 148.391L113.321 148.26C112.749 148.062 112.42 147.447 112.618 146.875C112.793 146.304 113.431 145.974 114.002 146.172L114.419 146.304C114.991 146.502 115.298 147.117 115.101 147.688C114.947 148.15 114.529 148.435 114.068 148.435V148.457ZM69.0208 148.106C68.5594 148.106 68.1199 147.798 67.9661 147.337C67.7903 146.765 68.0979 146.15 68.6912 145.952L69.1307 145.821C69.702 145.645 70.3173 145.974 70.4931 146.568C70.6689 147.139 70.3393 147.754 69.7679 147.93L69.3724 148.062C69.3724 148.062 69.1527 148.106 69.0428 148.106H69.0208ZM103.059 145.821C103.059 145.821 102.949 145.821 102.883 145.821L102.553 145.777L102.773 143.579L103.213 143.645C103.806 143.733 104.223 144.304 104.136 144.898C104.048 145.447 103.586 145.821 103.059 145.821ZM80.0518 145.667C79.5025 145.667 79.041 145.271 78.9751 144.722C78.8872 144.129 79.3047 143.557 79.92 143.491L80.3595 143.425C80.9308 143.337 81.5021 143.755 81.59 144.37C81.6779 144.964 81.2385 145.535 80.6452 145.601L80.2276 145.667C80.2276 145.667 80.1178 145.667 80.0738 145.667H80.0518ZM91.786 144.92H91.3466C90.7313 144.92 90.2479 144.414 90.2479 143.799C90.2479 143.206 90.7533 142.7 91.3466 142.7H91.786C92.4013 142.7 92.8848 143.206 92.8848 143.821C92.8848 144.414 92.3794 144.92 91.786 144.92Z" fill="white"/>
<path d="M25.3363 170.344V169.311L24.2376 169.355L24.1936 168.212L26.435 168.146V169.267L25.3363 169.311V170.344Z" fill="#0B00DB"/>
<path d="M33.0932 206.338C30.2585 204.536 27.6875 202.624 25.3363 200.646V169.333C25.3363 179.024 31.7747 188.692 44.5857 196.076C70.2075 210.82 111.739 210.776 137.317 195.966C150.084 188.582 156.456 178.914 156.478 169.245V200.668C156.478 200.668 156.566 200.778 156.698 200.976C154.522 202.778 152.149 204.536 149.556 206.184C117.43 226.664 65.2853 226.73 33.0932 206.338Z" fill="#5C5FE6"/>
<path d="M91.1708 222.665C69.9218 222.665 48.6948 217.545 32.4998 207.283C29.7091 205.503 27.0502 203.569 24.6331 201.504L24.2375 201.174V169.355H26.435C26.435 179.046 33.0931 188.209 45.113 195.131C70.4053 209.678 111.497 209.634 136.745 195.021C148.721 188.077 155.335 178.936 155.357 169.268H157.555C157.555 169.399 157.555 169.531 157.555 169.663V200.383L158.148 201.218L157.379 201.855C155.072 203.767 152.633 205.547 150.128 207.151C133.889 217.501 112.508 222.687 91.1708 222.687V222.665ZM33.6645 205.415C65.483 225.587 117.188 225.521 148.941 205.261C151.16 203.855 153.314 202.295 155.357 200.625V179.2C152.369 185.858 146.392 191.945 137.844 196.889C111.98 211.853 69.8999 211.919 44.0143 196.999C35.4224 192.055 29.4235 185.968 26.413 179.288V200.119C28.6544 201.987 31.0935 203.767 33.6645 205.393V205.415Z" fill="#0B00DB"/>
<path d="M25.3363 75.3711L60.8465 95.873V54.8692C45.0691 45.7499 25.3363 57.1545 25.3363 75.3711Z" fill="white"/>
<path d="M60.8465 96.9715C60.6487 96.9715 60.4729 96.9276 60.2971 96.8177L24.7869 76.3158C24.4573 76.118 24.2375 75.7664 24.2375 75.3709C24.2375 66.4054 28.8741 58.3849 36.631 53.9241C44.3879 49.4634 53.639 49.4414 61.3959 53.9241C61.7255 54.1219 61.9452 54.4735 61.9452 54.869V95.8728C61.9452 96.2683 61.7255 96.6199 61.3959 96.8177C61.2201 96.9056 61.0443 96.9715 60.8465 96.9715ZM26.4569 74.7556L59.7478 93.983V55.5063C52.804 51.7487 44.6076 51.8366 37.7297 55.8139C30.8518 59.7912 26.6547 66.823 26.4569 74.7337V74.7556Z" fill="#0B00DC"/>
<path d="M60.8466 54.8689L78.6017 44.6289L78.5797 85.6107L60.8466 95.8727V95.8507V54.8689Z" fill="#BEC0F3"/>
<path d="M60.8465 96.9718C60.5169 96.9718 60.2093 96.818 59.9895 96.5543C59.8357 96.3565 59.7478 96.1148 59.7478 95.8731V54.8693C59.7478 54.4738 59.9675 54.1222 60.2972 53.9244L78.0523 43.6845C78.3819 43.4867 78.8214 43.4867 79.151 43.6845C79.4806 43.8822 79.7003 44.2338 79.7003 44.6293V85.6112C79.7003 86.0067 79.4806 86.3583 79.151 86.556L61.4178 96.796C61.242 96.8839 61.0663 96.9498 60.8685 96.9498L60.8465 96.9718ZM61.9452 55.5066V93.9613L77.4809 84.9739V46.5191L61.9452 55.5066Z" fill="#0B00DC"/>
<path d="M78.6016 44.6289L60.8465 54.8689C52.6721 50.1444 43.443 50.9355 36.4552 55.3303C48.3872 45.0245 67.1751 39.2233 78.6016 44.6289Z" fill="white"/>
<path d="M36.4332 56.4292C36.4332 56.4292 36.2135 56.4292 36.1036 56.3853C35.796 56.2974 35.5543 56.0776 35.4224 55.792C35.2247 55.3525 35.3345 54.8251 35.7081 54.4955C47.2445 44.5412 66.6038 37.7732 79.0411 43.6403C79.4147 43.8161 79.6564 44.1896 79.6784 44.5852C79.6784 45.0027 79.4806 45.3762 79.129 45.574L61.3739 55.814C61.0443 56.0117 60.6048 56.0117 60.2752 55.814C52.9358 51.5729 44.2121 51.7268 37.0046 56.2534C36.8288 56.3633 36.631 56.4292 36.4113 56.4292H36.4332ZM49.0025 50.5621C53.0457 50.5621 57.0889 51.5729 60.8246 53.6165L76.0526 44.8269C67.5706 42.0801 54.9135 44.6731 44.278 51.0236C45.8382 50.7159 47.4203 50.5621 49.0025 50.5621Z" fill="#0B00DC"/>
<path d="M60.8246 54.9346V95.9384C60.8246 121.297 74.3607 144.743 96.3348 157.422V116.44C96.3348 91.0601 82.7768 67.6356 60.8026 54.9565L60.8246 54.9346Z" fill="white"/>
<path d="M96.3567 158.521C96.159 158.521 95.9612 158.477 95.7854 158.367C73.5476 145.534 59.7258 121.605 59.7258 95.9388V54.935C59.7258 54.5395 59.9456 54.1879 60.2752 53.9901C60.6048 53.7924 61.0443 53.7924 61.3739 53.9901C83.6117 66.823 97.4335 90.7529 97.4555 116.441V157.444C97.4555 157.84 97.2357 158.214 96.8841 158.411C96.7083 158.499 96.5325 158.543 96.3348 158.543L96.3567 158.521ZM61.9232 56.8687V95.9388C61.9232 120.198 74.6463 142.854 95.258 155.489V116.419C95.258 92.1592 82.535 69.5259 61.9232 56.8687Z" fill="#0B00DC"/>
<path d="M78.6017 44.6289L60.8246 54.9568C82.7987 67.6359 96.3348 91.0823 96.3568 116.44V157.444L114.134 147.116V106.113C114.134 80.7325 100.576 57.308 78.6017 44.6289Z" fill="#BEC0F3"/>
<path d="M96.3567 158.521C96.159 158.521 95.9832 158.477 95.8074 158.367C95.4558 158.169 95.258 157.818 95.258 157.422V116.418C95.258 91.5217 81.8538 68.317 60.2752 55.8796C59.9456 55.6819 59.7258 55.3303 59.7258 54.9347C59.7258 54.5392 59.9236 54.1876 60.2752 53.9899L78.0523 43.662C78.3819 43.4642 78.8214 43.4642 79.151 43.662C101.389 56.4949 115.211 80.4248 115.233 106.113V147.116C115.233 147.512 115.013 147.863 114.683 148.061L96.9061 158.389C96.7303 158.499 96.5545 158.543 96.3567 158.543V158.521ZM63 54.9567C84.2929 68.0094 97.4335 91.3899 97.4555 116.44V155.532L113.013 146.479V106.113C113.013 81.4356 99.8287 58.4067 78.5797 45.8814L62.978 54.9347L63 54.9567Z" fill="#0B00DC"/>
<path d="M96.3568 157.422V116.418L131.867 136.92C131.867 155.136 112.134 166.519 96.3568 157.422Z" fill="white"/>
<path d="M108.201 161.729C103.938 161.729 99.6968 160.608 95.8074 158.367C95.4778 158.169 95.2581 157.818 95.2581 157.422V116.418C95.2581 116.023 95.4778 115.671 95.8074 115.474C96.137 115.276 96.5765 115.276 96.9061 115.474L132.416 135.975C132.746 136.173 132.966 136.525 132.966 136.92C132.966 145.886 128.329 153.906 120.572 158.367C116.705 160.608 112.442 161.729 108.179 161.729H108.201ZM97.4555 156.785C104.399 160.543 112.596 160.455 119.474 156.477C126.351 152.5 130.549 145.468 130.746 137.558L97.4555 118.33V156.785Z" fill="#0B00DC"/>
<path d="M131.867 136.921L149.622 126.681L114.112 106.179L96.3568 116.419V116.441L131.867 136.921Z" fill="white"/>
<path d="M131.867 138.019C131.669 138.019 131.493 137.975 131.318 137.865L95.8294 117.385C95.5877 117.254 95.4119 117.034 95.346 116.792C95.1702 116.287 95.3899 115.737 95.8294 115.496L113.585 105.256C113.914 105.058 114.354 105.058 114.683 105.256L150.193 125.758C150.523 125.955 150.743 126.307 150.743 126.703C150.743 127.098 150.523 127.45 150.193 127.647L132.438 137.887C132.263 137.975 132.087 138.041 131.889 138.041L131.867 138.019ZM98.5542 116.419L131.867 135.646L147.425 126.681L114.112 107.453L98.5542 116.419Z" fill="#0B00DC"/>
<path d="M149.622 126.681L131.867 136.921C131.867 146.37 126.571 153.951 119.276 157.819C134.152 152.633 148.567 139.25 149.622 126.659V126.681Z" fill="#BEC0F3"/>
<path d="M119.276 158.939C118.924 158.939 118.573 158.763 118.353 158.456C118.177 158.192 118.133 157.862 118.199 157.577C118.287 157.269 118.463 157.005 118.748 156.873C126.264 152.874 130.768 145.425 130.768 136.943C130.768 136.547 130.988 136.196 131.318 135.998L149.073 125.758C149.424 125.56 149.864 125.56 150.215 125.78C150.567 126 150.765 126.395 150.721 126.791C149.6 140.503 134.043 153.885 119.649 158.895C119.54 158.939 119.408 158.961 119.276 158.961V158.939ZM132.944 137.558C132.79 143.491 130.658 148.941 126.923 153.182C137.756 147.139 146.326 137.492 148.194 128.768L132.966 137.558H132.944Z" fill="#0B00DC"/>
</g>
<defs>
<clipPath id="clip0_14274_57048">
<rect width="182.539" height="250" fill="white"/>
</clipPath>
</defs>
</svg>
