<svg width="244" height="41" viewBox="0 0 244 41" fill="none" xmlns="http://www.w3.org/2000/svg">
<path d="M39.9515 40.8523C34.536 40.8462 29.3441 38.6923 25.5147 34.8629C21.6854 31.0336 19.5314 25.8416 19.5254 20.4261V0.899731C19.5254 0.661107 19.6202 0.432255 19.7889 0.263523C19.9576 0.0947911 20.1865 0 20.4251 0C25.8406 0.00602895 31.0326 2.16 34.8619 5.98934C38.6913 9.81868 40.8452 15.0106 40.8513 20.4261V39.9525C40.8513 40.1912 40.7565 40.42 40.5877 40.5887C40.419 40.7575 40.1902 40.8523 39.9515 40.8523ZM21.3249 1.85071V20.4546C21.3307 25.2371 23.1736 29.8346 26.4728 33.297C29.7719 36.7594 34.2751 38.8219 39.0518 39.0585V20.4261C39.0387 15.6486 37.1925 11.0582 33.8941 7.60191C30.5957 4.14563 26.0966 2.08702 21.3249 1.85071Z" fill="#0F20E8"/>
<path d="M20.4261 21.3316H0.899739C0.660594 21.3301 0.431746 21.234 0.263176 21.0644C0.0946053 20.8947 -4.72971e-06 20.6653 1.77339e-10 20.4261C0.00602895 15.0106 2.16001 9.81868 5.98935 5.98934C9.81869 2.16 15.0106 0.00602895 20.4261 0C20.6648 0 20.8936 0.0947911 21.0624 0.263523C21.2311 0.432255 21.3259 0.661108 21.3259 0.899731V20.4261C21.3266 20.5448 21.3039 20.6624 21.259 20.7722C21.2141 20.882 21.148 20.9819 21.0644 21.066C20.9807 21.1502 20.8813 21.217 20.7718 21.2625C20.6622 21.3081 20.5448 21.3316 20.4261 21.3316ZM1.82224 19.5036H19.5264V1.85071C14.9142 2.08102 10.5512 4.01334 7.28102 7.27401C4.01088 10.5347 2.06593 14.8921 1.82224 19.5036Z" fill="#0F20E8"/>
<path d="M39.9525 40.8522C39.7138 40.8522 39.485 40.7574 39.3163 40.5887C39.1475 40.42 39.0527 40.1911 39.0527 39.9525V20.4261C39.0527 20.3079 39.076 20.191 39.1212 20.0818C39.1664 19.9726 39.2327 19.8734 39.3163 19.7899C39.3998 19.7064 39.499 19.6401 39.6081 19.5949C39.7173 19.5496 39.8343 19.5264 39.9525 19.5264H59.4789C59.7175 19.5264 59.9463 19.6212 60.1151 19.7899C60.2838 19.9586 60.3786 20.1875 60.3786 20.4261C60.3726 25.8416 58.2186 31.0336 54.3893 34.8629C50.5599 38.6922 45.368 40.8462 39.9525 40.8522ZM40.8522 21.3315V39.03C45.4717 38.7999 49.8409 36.8614 53.1115 33.5908C56.382 30.3203 58.3205 25.9511 58.5507 21.3315H40.8522Z" fill="#0F20E8"/>
<path d="M83.0277 27.4336H82.2931C81.9017 27.4454 81.5125 27.3727 81.1518 27.2204C80.7911 27.0681 80.4676 26.8397 80.2032 26.551C79.6468 25.9259 79.3549 25.1093 79.3889 24.2732V17.0298H82.4582C82.5849 17.0362 82.7116 17.0162 82.8302 16.9711C82.9488 16.926 83.0568 16.8568 83.1473 16.7678C83.2313 16.6846 83.2973 16.5851 83.3414 16.4755C83.3855 16.3658 83.4066 16.2482 83.4035 16.13C83.4077 16.0083 83.3872 15.887 83.3431 15.7735C83.2991 15.6599 83.2324 15.5565 83.1473 15.4695C83.056 15.3816 82.9479 15.3131 82.8295 15.2681C82.7111 15.2231 82.5848 15.2025 82.4582 15.2075H79.3889V11.005C79.3936 10.8644 79.3698 10.7243 79.3189 10.5932C79.268 10.462 79.1911 10.3425 79.0928 10.2419C78.9916 10.1444 78.872 10.068 78.741 10.0172C78.61 9.96635 78.4702 9.94209 78.3297 9.94582C78.1917 9.94145 78.0543 9.96549 77.926 10.0164C77.7976 10.0674 77.6812 10.1441 77.5837 10.2419C77.393 10.4495 77.2909 10.7233 77.299 11.005V15.2075H75.5394C75.4119 15.202 75.2846 15.2224 75.1652 15.2674C75.0459 15.3125 74.9368 15.3812 74.8447 15.4695C74.7595 15.5565 74.6928 15.6599 74.6488 15.7735C74.6047 15.887 74.5842 16.0083 74.5884 16.13C74.5853 16.2482 74.6065 16.3658 74.6505 16.4755C74.6946 16.5851 74.7607 16.6846 74.8447 16.7678C74.936 16.8572 75.0449 16.9267 75.1645 16.9718C75.2841 17.0169 75.4118 17.0366 75.5394 17.0298H77.299V24.2732C77.2856 25.2026 77.5048 26.1207 77.9368 26.9439C78.3553 27.7317 78.984 28.3882 79.7529 28.8405C80.5219 29.2929 81.4011 29.5234 82.2931 29.5064H82.8625C83.1624 29.5188 83.455 29.4124 83.6768 29.2103C83.7806 29.1184 83.8634 29.0053 83.9194 28.8785C83.9754 28.7517 84.0034 28.6143 84.0014 28.4757C84.011 28.1985 83.9154 27.928 83.7338 27.7183C83.6434 27.623 83.5335 27.5483 83.4117 27.4992C83.2899 27.4501 83.1589 27.4277 83.0277 27.4336Z" fill="#0F20E8"/>
<path d="M111.102 15.5322C109.927 14.8821 108.606 14.541 107.264 14.541C105.921 14.541 104.601 14.8821 103.426 15.5322C102.292 16.1792 101.355 17.122 100.715 18.2598C100.05 19.4347 99.708 20.7649 99.7243 22.115C99.7066 23.4562 100.038 24.7789 100.687 25.9531C101.312 27.089 102.234 28.0335 103.354 28.6855C104.474 29.3375 105.751 29.6725 107.047 29.6545C108.168 29.6699 109.276 29.414 110.276 28.9085C111.235 28.4301 112.063 27.7268 112.691 26.8585V28.4871C112.685 28.6258 112.709 28.7639 112.761 28.8925C112.813 29.0212 112.892 29.1372 112.992 29.2331C113.201 29.4188 113.471 29.5214 113.75 29.5214C114.029 29.5214 114.299 29.4188 114.507 29.2331C114.605 29.1377 114.682 29.0233 114.734 28.897C114.786 28.7707 114.811 28.6351 114.809 28.4985V22.115C114.825 20.7649 114.483 19.4347 113.818 18.2598C113.176 17.1216 112.237 16.1788 111.102 15.5322ZM112.024 25.0021C111.565 25.8416 110.886 26.5403 110.06 27.0236C109.212 27.5176 108.245 27.7715 107.264 27.7582C106.279 27.7702 105.309 27.5164 104.456 27.0236C103.623 26.5444 102.937 25.845 102.475 25.0021C102.004 24.1117 101.757 23.1196 101.757 22.1121C101.757 21.1047 102.004 20.1126 102.475 19.2222C102.938 18.3772 103.624 17.6744 104.456 17.1893C105.307 16.6904 106.278 16.4325 107.264 16.4433C108.235 16.4305 109.191 16.6824 110.03 17.172C110.869 17.6616 111.558 18.3704 112.024 19.2222C112.499 20.1116 112.747 21.1041 112.747 22.1121C112.747 23.1202 112.499 24.1127 112.024 25.0021Z" fill="#0F20E8"/>
<path d="M133.151 11.0163C133.159 10.7346 133.057 10.4608 132.866 10.2533C132.769 10.1554 132.652 10.0787 132.524 10.0277C132.396 9.9768 132.258 9.95276 132.12 9.95713C131.979 9.95064 131.839 9.9736 131.707 10.0245C131.576 10.0755 131.456 10.1533 131.357 10.2529C131.257 10.3526 131.179 10.472 131.128 10.6034C131.077 10.7349 131.055 10.8755 131.061 11.0163V17.3372C130.429 16.4732 129.602 15.7707 128.647 15.2872C127.645 14.7855 126.538 14.5298 125.418 14.5412C124.117 14.5209 122.836 14.8553 121.711 15.5084C120.587 16.1615 119.661 17.1088 119.034 18.2483C118.387 19.423 118.055 20.7454 118.072 22.0864C118.055 23.4347 118.397 24.7631 119.063 25.9359C119.703 27.0754 120.642 28.0185 121.779 28.6635C122.954 29.3136 124.274 29.6547 125.617 29.6547C126.96 29.6547 128.28 29.3136 129.455 28.6635C130.59 28.0181 131.527 27.075 132.166 25.9359C132.831 24.7631 133.173 23.4347 133.157 22.0864V15.7086C133.168 15.6273 133.168 15.545 133.157 15.4637L133.151 11.0163ZM130.423 25.002C129.949 25.8523 129.257 26.5606 128.417 27.0537C127.578 27.5468 126.622 27.8068 125.648 27.8068C124.675 27.8068 123.719 27.5468 122.88 27.0537C122.04 26.5606 121.348 25.8523 120.874 25.002C120.402 24.1116 120.156 23.1194 120.156 22.112C120.156 21.1046 120.402 20.1125 120.874 19.2221C121.338 18.3804 122.023 17.6814 122.855 17.2005C123.709 16.7116 124.679 16.4599 125.663 16.4716C127.008 16.44 128.314 16.925 129.313 17.8269C130.313 18.7265 130.945 19.9634 131.089 21.3006C131.08 21.3457 131.08 21.3921 131.089 21.4372C131.105 21.6628 131.105 21.8892 131.089 22.1149C131.119 23.1185 130.89 24.1129 130.423 25.002Z" fill="#0F20E8"/>
<path d="M147.933 15.4809C146.859 14.8427 145.628 14.5172 144.38 14.5413C143.09 14.5204 141.82 14.8533 140.707 15.5037C139.63 16.1466 138.754 17.0775 138.178 18.1915C137.559 19.4053 137.248 20.7527 137.273 22.1149C137.25 23.4731 137.581 24.8137 138.235 26.0043C138.857 27.1324 139.782 28.0636 140.906 28.6921C141.899 29.2343 142.998 29.5561 144.127 29.6357C145.256 29.7153 146.389 29.5508 147.449 29.1533C148.277 28.8699 149.048 28.4419 149.727 27.8892C149.819 27.8138 149.893 27.7191 149.944 27.6119C149.995 27.5046 150.022 27.3873 150.023 27.2685C150.02 27.1279 149.987 26.9897 149.926 26.863C149.865 26.7362 149.778 26.624 149.67 26.5339C149.498 26.4005 149.289 26.3248 149.072 26.3175C148.805 26.323 148.548 26.4194 148.343 26.5908C147.871 26.9724 147.332 27.2621 146.754 27.445C146.123 27.6659 145.459 27.7795 144.79 27.781C143.399 27.8359 142.041 27.3449 141.007 26.413C139.973 25.481 139.344 24.1818 139.255 22.7926H150.211C150.34 22.799 150.469 22.7791 150.591 22.734C150.712 22.689 150.823 22.6198 150.917 22.5307C151.009 22.442 151.081 22.3347 151.128 22.2158C151.175 22.0969 151.197 21.9693 151.19 21.8416C151.215 20.5344 150.921 19.2408 150.336 18.0719C149.796 16.9985 148.963 16.1002 147.933 15.4809ZM139.306 21.0558C139.448 19.7749 140.034 18.5842 140.963 17.6903C141.89 16.8322 143.117 16.3739 144.38 16.4148C144.993 16.3916 145.605 16.4926 146.178 16.7118C146.752 16.931 147.275 17.2638 147.717 17.6903C148.612 18.5922 149.152 19.7874 149.237 21.0558H139.306Z" fill="#0F20E8"/>
<path d="M173.759 27.4561H173.081C172.833 27.4522 172.591 27.3827 172.379 27.2546C172.167 27.1266 171.992 26.9446 171.874 26.7272C171.532 26.1536 171.366 25.4923 171.395 24.8252V10.9876C171.402 10.8503 171.38 10.7131 171.331 10.5847C171.282 10.4563 171.207 10.3394 171.111 10.2416C170.909 10.0588 170.646 9.95752 170.373 9.95752C170.101 9.95752 169.838 10.0588 169.636 10.2416C169.535 10.3375 169.457 10.4536 169.405 10.5822C169.353 10.7108 169.329 10.849 169.334 10.9876V24.8252C169.282 26.0382 169.652 27.2317 170.382 28.2021C170.695 28.62 171.103 28.9574 171.572 29.1861C172.042 29.4149 172.559 29.5285 173.081 29.5175H173.434C173.753 29.5329 174.067 29.4317 174.317 29.2328C174.426 29.1421 174.512 29.0278 174.571 28.8985C174.629 28.7693 174.657 28.6285 174.653 28.4868C174.666 28.2165 174.578 27.9508 174.408 27.7408C174.328 27.6472 174.229 27.5729 174.116 27.5235C174.004 27.4742 173.881 27.4511 173.759 27.4561Z" fill="#0F20E8"/>
<path d="M187.908 15.6308C186.733 14.9807 185.413 14.6396 184.07 14.6396C182.728 14.6396 181.407 14.9807 180.232 15.6308C179.097 16.2775 178.158 17.2202 177.516 18.3585C176.851 19.5333 176.509 20.8636 176.525 22.2136C176.51 23.5545 176.842 24.8765 177.487 26.0517C178.115 27.1868 179.038 28.1305 180.159 28.7823C181.28 29.4341 182.557 29.7697 183.854 29.7531C184.974 29.7672 186.082 29.5113 187.083 29.0072C188.04 28.5271 188.868 27.824 189.497 26.9571V28.5858C189.491 28.724 189.514 28.8619 189.565 28.9905C189.616 29.1191 189.694 29.2354 189.793 29.3317C189.895 29.4277 190.015 29.5024 190.146 29.5513C190.277 29.6002 190.416 29.6223 190.556 29.6165C190.696 29.6211 190.835 29.5972 190.965 29.5463C191.096 29.4954 191.214 29.4185 191.314 29.3204C191.411 29.2247 191.487 29.1101 191.538 28.9837C191.589 28.8574 191.613 28.7219 191.61 28.5858V22.2136C191.626 20.8636 191.284 19.5333 190.619 18.3585C189.979 17.2206 189.042 16.2778 187.908 15.6308ZM188.831 25.1007C188.371 25.9402 187.692 26.639 186.866 27.1223C186.011 27.6053 185.046 27.8592 184.064 27.8592C183.083 27.8592 182.118 27.6053 181.263 27.1223C180.429 26.643 179.744 25.9437 179.281 25.1007C178.81 24.2103 178.564 23.2182 178.564 22.2108C178.564 21.2034 178.81 20.2112 179.281 19.3208C179.745 18.4758 180.43 17.773 181.263 17.2879C182.116 16.7989 183.081 16.5416 184.064 16.5416C185.048 16.5416 186.013 16.7989 186.866 17.2879C187.692 17.777 188.37 18.4792 188.831 19.3208C189.302 20.2112 189.548 21.2034 189.548 22.2108C189.548 23.2182 189.302 24.2103 188.831 25.1007Z" fill="#0F20E8"/>
<path d="M228.05 11.0162C228.058 10.7345 227.956 10.4607 227.765 10.2532C227.668 10.1554 227.551 10.0786 227.423 10.0277C227.295 9.97672 227.157 9.95268 227.019 9.95705C226.879 9.95332 226.739 9.97758 226.608 10.0284C226.477 10.0793 226.357 10.1557 226.256 10.2532C226.158 10.3538 226.081 10.4733 226.03 10.6044C225.979 10.7355 225.955 10.8756 225.96 11.0162V17.3371C225.328 16.4731 224.501 15.7707 223.546 15.2871C222.544 14.7854 221.437 14.5297 220.317 14.5411C219.02 14.5231 217.742 14.8586 216.622 15.5118C215.501 16.1649 214.58 17.1109 213.956 18.2482C213.305 19.4215 212.971 20.7445 212.988 22.0863C212.972 23.4346 213.313 24.763 213.979 25.9358C214.619 27.0753 215.558 28.0184 216.695 28.6635C217.87 29.3136 219.19 29.6546 220.533 29.6546C221.876 29.6546 223.196 29.3136 224.371 28.6635C225.508 28.0184 226.447 27.0753 227.087 25.9358C227.751 24.7625 228.091 23.4341 228.073 22.0863V15.7085C228.084 15.6272 228.084 15.5449 228.073 15.4636L228.05 11.0162ZM225.294 25.0019C224.82 25.8522 224.127 26.5605 223.288 27.0536C222.448 27.5467 221.492 27.8067 220.519 27.8067C219.545 27.8067 218.59 27.5467 217.75 27.0536C216.911 26.5605 216.218 25.8522 215.744 25.0019C215.273 24.1115 215.027 23.1193 215.027 22.1119C215.027 21.1045 215.273 20.1124 215.744 19.222C216.208 18.3803 216.893 17.6813 217.726 17.2004C218.58 16.7115 219.549 16.4598 220.533 16.4715C221.878 16.4399 223.185 16.9249 224.183 17.8268C225.183 18.7264 225.816 19.9633 225.96 21.3005C225.957 21.3478 225.967 21.3949 225.988 21.4371C226 21.6629 226 21.8891 225.988 22.1148C226.01 23.121 225.77 24.1155 225.294 25.0019Z" fill="#0F20E8"/>
<path d="M242.725 22.6444C241.893 21.9079 240.509 21.3783 238.573 21.0556C237.525 20.9493 236.509 20.6295 235.589 20.116C235.329 19.9485 235.115 19.717 234.969 19.4436C234.823 19.1702 234.749 18.864 234.755 18.5541C234.76 18.2441 234.845 17.9408 235.001 17.673C235.158 17.4051 235.38 17.1817 235.646 17.0239C236.363 16.5861 237.194 16.3738 238.032 16.4146C238.714 16.3817 239.394 16.5011 240.023 16.7641C240.653 17.0271 241.216 17.4271 241.671 17.935C241.791 18.0657 241.937 18.1694 242.1 18.2391C242.263 18.3088 242.439 18.343 242.616 18.3393C242.799 18.3493 242.981 18.3015 243.135 18.2027C243.267 18.1326 243.377 18.0275 243.453 17.899C243.53 17.7704 243.569 17.6233 243.567 17.4738C243.552 17.2495 243.477 17.0333 243.351 16.8474C242.792 16.107 242.056 15.5195 241.21 15.139C240.225 14.7145 239.161 14.5067 238.089 14.5297C236.726 14.48 235.381 14.8605 234.245 15.6174C233.752 15.9564 233.352 16.4155 233.084 16.9513C232.816 17.4872 232.689 18.0824 232.714 18.681C232.716 19.1855 232.836 19.6826 233.064 20.1325C233.292 20.5824 233.623 20.9726 234.029 21.272C235.206 22.1085 236.579 22.6281 238.015 22.781C239.077 22.89 240.103 23.2218 241.028 23.7548C241.312 23.9223 241.549 24.1599 241.716 24.4451C241.882 24.7302 241.973 25.0533 241.979 25.3834C241.972 25.7276 241.879 26.0647 241.708 26.3633C241.537 26.6619 241.293 26.9125 240.999 27.0918C240.136 27.5874 239.145 27.8153 238.152 27.7466C237.342 27.7563 236.537 27.6174 235.777 27.3366C235.118 27.099 234.53 26.6973 234.069 26.1692C233.974 26.0514 233.853 25.9564 233.716 25.8914C233.579 25.8263 233.429 25.7929 233.277 25.7934C233.032 25.7979 232.794 25.8818 232.6 26.0326C232.47 26.1263 232.364 26.2484 232.289 26.3896C232.214 26.5307 232.172 26.6871 232.167 26.8469C232.181 27.0815 232.278 27.3035 232.44 27.4733C233.132 28.1985 233.987 28.7472 234.935 29.0734C235.968 29.4545 237.062 29.6474 238.163 29.6429C239.193 29.6588 240.216 29.4751 241.176 29.1019C241.991 28.791 242.707 28.2657 243.248 27.5815C243.744 26.946 244.009 26.1609 244 25.3549C244.002 24.8367 243.889 24.3245 243.668 23.8556C243.448 23.3867 243.125 22.9729 242.725 22.6444Z" fill="#0F20E8"/>
<path d="M208.102 29.523C207.827 29.523 207.563 29.4138 207.369 29.2194C207.175 29.0251 207.065 28.7614 207.065 28.4866V21.3685C207.023 20.1291 206.5 18.9549 205.608 18.0933C204.717 17.2317 203.525 16.7501 202.285 16.7501C201.045 16.7501 199.853 17.2317 198.961 18.0933C198.07 18.9549 197.547 20.1291 197.504 21.3685V28.4866C197.504 28.7614 197.395 29.0251 197.201 29.2194C197.007 29.4138 196.743 29.523 196.468 29.523C196.193 29.523 195.93 29.4138 195.735 29.2194C195.541 29.0251 195.432 28.7614 195.432 28.4866V21.3685C195.432 19.5508 196.154 17.8077 197.439 16.5224C198.724 15.2372 200.467 14.5151 202.285 14.5151C204.103 14.5151 205.846 15.2372 207.131 16.5224C208.416 17.8077 209.138 19.5508 209.138 21.3685V28.4866C209.139 28.6229 209.113 28.758 209.061 28.8841C209.009 29.0102 208.933 29.1247 208.836 29.2211C208.74 29.3175 208.625 29.3938 208.499 29.4456C208.373 29.4974 208.238 29.5237 208.102 29.523Z" fill="#0F20E8"/>
<path d="M165.072 15.446L164.958 15.3663L164.901 15.3379C163.859 14.7739 162.688 14.4907 161.503 14.5162C160.318 14.5417 159.16 14.8749 158.143 15.4832C157.126 16.0915 156.284 16.9538 155.701 17.9856C155.118 19.0174 154.813 20.1831 154.816 21.3683V28.4864C154.816 28.7613 154.926 29.0249 155.12 29.2193C155.314 29.4136 155.578 29.5228 155.853 29.5228C156.128 29.5228 156.391 29.4136 156.586 29.2193C156.78 29.0249 156.889 28.7613 156.889 28.4864V21.3683C156.891 20.1002 157.395 18.8844 158.292 17.9876C159.189 17.0909 160.404 16.5865 161.673 16.5849C162.504 16.5904 163.32 16.8164 164.036 17.2398C164.179 17.319 164.339 17.3621 164.503 17.3651C164.781 17.3651 165.047 17.2547 165.244 17.0582C165.44 16.8617 165.551 16.5952 165.551 16.3173C165.551 16.1434 165.508 15.9722 165.424 15.8198C165.34 15.6674 165.219 15.5388 165.072 15.446Z" fill="#0F20E8"/>
<path d="M97.6503 15.446L97.5307 15.3663L97.4795 15.3379C96.4371 14.7739 95.2659 14.4907 94.081 14.5162C92.8961 14.5417 91.7381 14.8749 90.7209 15.4832C89.7037 16.0915 88.8622 16.9538 88.279 17.9856C87.6958 19.0174 87.391 20.1831 87.3946 21.3683V28.4864C87.3946 28.7613 87.5037 29.0249 87.6981 29.2193C87.8925 29.4136 88.1561 29.5228 88.431 29.5228C88.7058 29.5228 88.9694 29.4136 89.1638 29.2193C89.3582 29.0249 89.4673 28.7613 89.4673 28.4864V21.3683C89.4673 20.1007 89.9705 18.8849 90.8664 17.988C91.7622 17.0911 92.9774 16.5865 94.245 16.5849C95.0786 16.5902 95.896 16.8162 96.6139 17.2398C96.7588 17.3197 96.9211 17.3628 97.0866 17.3651C97.2239 17.3651 97.3599 17.3379 97.4867 17.2852C97.6135 17.2325 97.7286 17.1552 97.8255 17.0579C97.9223 16.9605 97.999 16.8449 98.051 16.7178C98.103 16.5907 98.1294 16.4546 98.1287 16.3173C98.1289 16.1435 98.0851 15.9725 98.0015 15.8202C97.9178 15.6679 97.7971 15.5392 97.6503 15.446Z" fill="#0F20E8"/>
</svg>
