<svg width="16" height="16" viewBox="0 0 16 16" fill="none" xmlns="http://www.w3.org/2000/svg">
<path fill-rule="evenodd" clip-rule="evenodd" d="M7.99998 1.44927C4.3857 1.44927 1.44927 4.38573 1.44927 8.00002C1.44927 11.6143 4.38569 14.5507 7.99998 14.5507C11.6147 14.5507 14.5507 11.6211 14.5507 8.00002C14.5507 7.59982 14.8752 7.27538 15.2754 7.27538C15.6756 7.27538 16 7.59982 16 8.00002C16 12.4224 12.4142 16 7.99998 16C3.58528 16 0 12.4147 0 8.00002C0 3.58533 3.58528 0 7.99998 0C8.83423 0 9.647 0.12711 10.4066 0.366985C10.7882 0.487499 10.9999 0.894568 10.8794 1.2762C10.7589 1.65783 10.3518 1.8695 9.97019 1.74899C9.35298 1.55408 8.68746 1.44927 7.99998 1.44927Z" fill="white"/>
<path fill-rule="evenodd" clip-rule="evenodd" d="M15.1852 2.33649C15.4686 2.61907 15.4693 3.07788 15.1867 3.36128L7.76643 10.8033C7.62703 10.9431 7.43663 11.02 7.23924 11.0162C7.04186 11.0124 6.85457 10.9282 6.7207 10.7831L4.9928 8.91026L2.0769 11.9058C1.79775 12.1926 1.33898 12.1988 1.0522 11.9196C0.765425 11.6405 0.759242 11.1817 1.03839 10.8949L4.48763 7.35146C4.62639 7.20891 4.81765 7.12967 5.01657 7.13233C5.21549 7.13499 5.40456 7.21931 5.53946 7.36552L7.27357 9.24504L14.1604 2.33799C14.443 2.05459 14.9018 2.05392 15.1852 2.33649Z" fill="white"/>
<path fill-rule="evenodd" clip-rule="evenodd" d="M11.6592 2.84964C11.6592 2.44943 11.9836 2.125 12.3838 2.125H14.6737C15.0739 2.125 15.3983 2.44943 15.3983 2.84964C15.3983 3.24984 15.0739 3.57427 14.6737 3.57427H12.3838C11.9836 3.57427 11.6592 3.24984 11.6592 2.84964Z" fill="white"/>
<path fill-rule="evenodd" clip-rule="evenodd" d="M14.6739 2.125C15.0741 2.125 15.3985 2.44943 15.3985 2.84964V5.14677C15.3985 5.54697 15.0741 5.87141 14.6739 5.87141C14.2736 5.87141 13.9492 5.54697 13.9492 5.14677V2.84964C13.9492 2.44943 14.2736 2.125 14.6739 2.125Z" fill="white"/>
</svg>
