<svg width="473" height="209" viewBox="0 0 473 209" fill="none" xmlns="http://www.w3.org/2000/svg">
<rect width="473" height="209" rx="7" fill="#0F20E8"/>
<g opacity="0.5">
<mask id="mask0_7310_22227" style="mask-type:alpha" maskUnits="userSpaceOnUse" x="0" y="0" width="473" height="209">
<rect width="473" height="209" rx="7" fill="#D9D9D9"/>
</mask>
<g mask="url(#mask0_7310_22227)">
<g opacity="0.2">
<path d="M438.033 52.9488C426.495 52.9488 417.104 43.577 417.104 32.0623V12.0972C417.104 11.5901 417.519 11.1758 418.027 11.1758C429.565 11.1758 438.956 20.5476 438.956 32.0623V52.0273C438.956 52.5345 438.541 52.9488 438.033 52.9488ZM418.95 13.0401V32.0623C418.95 42.2555 427.017 50.5987 437.11 51.0844V32.0623C437.11 21.869 429.043 13.5259 418.95 13.0401Z" fill="white"/>
<path d="M438.033 32.9837H418.027C417.519 32.9837 417.104 32.5694 417.104 32.0623C417.104 20.5476 426.495 11.1758 438.033 11.1758C438.541 11.1758 438.956 11.5901 438.956 12.0972V32.0623C438.956 32.5694 438.541 32.9837 438.033 32.9837ZM418.972 31.1408H437.11V13.0401C427.318 13.5044 419.437 21.369 418.972 31.1408Z" fill="white"/>
<path d="M458.039 32.9837H438.033C437.525 32.9837 437.109 32.5694 437.109 32.0623V12.0972C437.109 11.5901 437.525 11.1758 438.033 11.1758C449.571 11.1758 458.962 20.5476 458.962 32.0623C458.962 32.5694 458.547 32.9837 458.039 32.9837ZM438.956 31.1408H457.094C456.629 21.369 448.748 13.5044 438.956 13.0401V31.1408Z" fill="white"/>
<path d="M447.439 26.2909C448.783 26.2909 449.872 25.2036 449.872 23.8623C449.872 22.5209 448.783 21.4336 447.439 21.4336C446.094 21.4336 445.005 22.5209 445.005 23.8623C445.005 25.2036 446.094 26.2909 447.439 26.2909Z" fill="#0F20E8"/>
<path d="M447.438 27.2198C445.584 27.2198 444.081 25.7197 444.081 23.8697C444.081 22.0196 445.584 20.5195 447.438 20.5195C449.292 20.5195 450.795 22.0196 450.795 23.8697C450.795 25.7197 449.292 27.2198 447.438 27.2198ZM447.438 22.3625C446.608 22.3625 445.928 23.0411 445.928 23.8697C445.928 24.6983 446.608 25.3769 447.438 25.3769C448.268 25.3769 448.948 24.6983 448.948 23.8697C448.948 23.0411 448.268 22.3625 447.438 22.3625Z" fill="white"/>
<path d="M428.027 26.2909C429.371 26.2909 430.461 25.2036 430.461 23.8623C430.461 22.5209 429.371 21.4336 428.027 21.4336C426.683 21.4336 425.594 22.5209 425.594 23.8623C425.594 25.2036 426.683 26.2909 428.027 26.2909Z" fill="#0F20E8"/>
<path d="M428.027 27.2198C426.173 27.2198 424.67 25.7197 424.67 23.8697C424.67 22.0196 426.173 20.5195 428.027 20.5195C429.881 20.5195 431.384 22.0196 431.384 23.8697C431.384 25.7197 429.881 27.2198 428.027 27.2198ZM428.027 22.3625C427.197 22.3625 426.517 23.0411 426.517 23.8697C426.517 24.6983 427.197 25.3769 428.027 25.3769C428.857 25.3769 429.537 24.6983 429.537 23.8697C429.537 23.0411 428.857 22.3625 428.027 22.3625Z" fill="white"/>
<path d="M448.031 44.7278C451.002 44.7278 453.407 42.3277 453.407 39.3633H442.663C442.663 42.3277 445.068 44.7278 448.039 44.7278H448.031Z" fill="#0F20E8"/>
<path d="M448.032 45.6488C444.561 45.6488 441.733 42.8273 441.733 39.3629C441.733 38.8557 442.149 38.4414 442.657 38.4414H453.401C453.909 38.4414 454.324 38.8557 454.324 39.3629C454.324 42.8273 451.497 45.6488 448.025 45.6488H448.032ZM443.68 40.2843C444.11 42.2916 445.899 43.8059 448.032 43.8059C450.165 43.8059 451.962 42.2916 452.384 40.2843H443.673H443.68Z" fill="white"/>
<path d="M244.733 74.8548H224.727C224.219 74.8548 223.804 74.4405 223.804 73.9334C223.804 62.4187 233.195 53.0469 244.733 53.0469H264.739C265.247 53.0469 265.662 53.4612 265.662 53.9683C265.662 65.4831 256.271 74.8548 244.733 74.8548ZM225.672 73.0119H244.733C254.947 73.0119 263.308 64.9616 263.794 54.8898H244.733C234.519 54.8898 226.159 62.9401 225.672 73.0119Z" fill="white"/>
<path d="M244.733 54.89H224.727C224.219 54.89 223.804 54.4757 223.804 53.9685C223.804 42.4538 233.195 33.082 244.733 33.082C245.241 33.082 245.656 33.4963 245.656 34.0035V53.9685C245.656 54.4757 245.241 54.89 244.733 54.89ZM225.672 53.0471H243.81V34.9464C234.018 35.4107 226.137 43.2753 225.672 53.0471Z" fill="white"/>
<path d="M264.739 54.89H244.733C244.225 54.89 243.81 54.4757 243.81 53.9685V34.0035C243.81 33.4963 244.225 33.082 244.733 33.082C256.271 33.082 265.662 42.4538 265.662 53.9685C265.662 54.4757 265.247 54.89 264.739 54.89ZM245.656 53.0471H263.794C263.329 43.2753 255.448 35.4107 245.656 34.9464V53.0471Z" fill="white"/>
<path d="M253.867 48.1972C255.211 48.1972 256.301 47.1098 256.301 45.7685C256.301 44.4272 255.211 43.3398 253.867 43.3398C252.523 43.3398 251.434 44.4272 251.434 45.7685C251.434 47.1098 252.523 48.1972 253.867 48.1972Z" fill="#0F20E8"/>
<path d="M253.867 49.126C252.013 49.126 250.51 47.626 250.51 45.7759C250.51 43.9258 252.013 42.4258 253.867 42.4258C255.721 42.4258 257.224 43.9258 257.224 45.7759C257.224 47.626 255.721 49.126 253.867 49.126ZM253.867 44.2687C253.036 44.2687 252.356 44.9473 252.356 45.7759C252.356 46.6045 253.036 47.2831 253.867 47.2831C254.697 47.2831 255.377 46.6045 255.377 45.7759C255.377 44.9473 254.697 44.2687 253.867 44.2687Z" fill="white"/>
<path d="M235.335 48.1972C236.679 48.1972 237.769 47.1098 237.769 45.7685C237.769 44.4272 236.679 43.3398 235.335 43.3398C233.991 43.3398 232.901 44.4272 232.901 45.7685C232.901 47.1098 233.991 48.1972 235.335 48.1972Z" fill="#0F20E8"/>
<path d="M235.335 49.126C233.481 49.126 231.978 47.626 231.978 45.7759C231.978 43.9258 233.481 42.4258 235.335 42.4258C237.188 42.4258 238.692 43.9258 238.692 45.7759C238.692 47.626 237.188 49.126 235.335 49.126ZM235.335 44.2687C234.504 44.2687 233.824 44.9473 233.824 45.7759C233.824 46.6045 234.504 47.2831 235.335 47.2831C236.165 47.2831 236.845 46.6045 236.845 45.7759C236.845 44.9473 236.165 44.2687 235.335 44.2687Z" fill="white"/>
<path d="M244.733 66.634C247.703 66.634 250.108 64.2339 250.108 61.2695H239.364C239.364 64.2339 241.769 66.634 244.74 66.634H244.733Z" fill="#0F20E8"/>
<path d="M244.733 67.5551C241.262 67.5551 238.435 64.7335 238.435 61.2691C238.435 60.762 238.85 60.3477 239.358 60.3477H250.102C250.61 60.3477 251.025 60.762 251.025 61.2691C251.025 64.7335 248.198 67.5551 244.726 67.5551H244.733ZM240.381 62.1906C240.811 64.1978 242.6 65.7121 244.733 65.7121C246.866 65.7121 248.663 64.1978 249.085 62.1906H240.374H240.381Z" fill="white"/>
<path d="M479.946 121.246C468.408 121.246 459.017 111.874 459.017 100.359V80.3941C459.017 79.887 459.432 79.4727 459.94 79.4727C471.478 79.4727 480.869 88.8444 480.869 100.359V120.324C480.869 120.831 480.454 121.246 479.946 121.246ZM460.863 81.337V100.359C460.863 110.552 468.93 118.896 479.023 119.381V100.359C479.023 90.1659 470.956 81.8227 460.863 81.337Z" fill="white"/>
<path d="M459.94 121.245H439.934C439.426 121.245 439.011 120.831 439.011 120.324C439.011 108.809 448.402 99.4375 459.94 99.4375C460.448 99.4375 460.863 99.8518 460.863 100.359V120.324C460.863 120.831 460.448 121.245 459.94 121.245ZM440.879 119.403H459.017V101.302C449.225 101.766 441.344 109.631 440.879 119.403Z" fill="white"/>
<path d="M479.946 101.281H459.94C459.432 101.281 459.017 100.866 459.017 100.359V80.3941C459.017 79.887 459.432 79.4727 459.94 79.4727C471.478 79.4727 480.869 88.8444 480.869 100.359C480.869 100.866 480.454 101.281 479.946 101.281ZM460.863 99.4377H479.001C478.536 89.6659 470.655 81.8013 460.863 81.337V99.4377Z" fill="white"/>
<path d="M469.346 94.5956C470.69 94.5956 471.779 93.5083 471.779 92.1669C471.779 90.8256 470.69 89.7383 469.346 89.7383C468.002 89.7383 466.912 90.8256 466.912 92.1669C466.912 93.5083 468.002 94.5956 469.346 94.5956Z" fill="#0F20E8"/>
<path d="M469.345 95.5167C467.491 95.5167 465.988 94.0166 465.988 92.1665C465.988 90.3165 467.491 88.8164 469.345 88.8164C471.199 88.8164 472.702 90.3165 472.702 92.1665C472.702 94.0166 471.199 95.5167 469.345 95.5167ZM469.345 90.6593C468.508 90.6593 467.835 91.3379 467.835 92.1665C467.835 92.9951 468.515 93.6737 469.345 93.6737C470.176 93.6737 470.856 92.9951 470.856 92.1665C470.856 91.3379 470.176 90.6593 469.345 90.6593Z" fill="white"/>
<path d="M449.935 94.5956C451.279 94.5956 452.368 93.5083 452.368 92.1669C452.368 90.8256 451.279 89.7383 449.935 89.7383C448.591 89.7383 447.501 90.8256 447.501 92.1669C447.501 93.5083 448.591 94.5956 449.935 94.5956Z" fill="#0F20E8"/>
<path d="M449.934 95.5167C448.08 95.5167 446.577 94.0166 446.577 92.1665C446.577 90.3165 448.08 88.8164 449.934 88.8164C451.788 88.8164 453.291 90.3165 453.291 92.1665C453.291 94.0166 451.788 95.5167 449.934 95.5167ZM449.934 90.6593C449.097 90.6593 448.424 91.3379 448.424 92.1665C448.424 92.9951 449.104 93.6737 449.934 93.6737C450.764 93.6737 451.444 92.9951 451.444 92.1665C451.444 91.3379 450.764 90.6593 449.934 90.6593Z" fill="white"/>
<path d="M459.94 103.931C462.91 103.931 465.315 101.531 465.315 98.5664H454.571C454.571 101.531 456.976 103.931 459.947 103.931H459.94Z" fill="#0F20E8"/>
<path d="M459.94 104.852C456.469 104.852 453.642 102.03 453.642 98.566C453.642 98.0588 454.057 97.6445 454.565 97.6445H465.309C465.817 97.6445 466.232 98.0588 466.232 98.566C466.232 102.03 463.405 104.852 459.933 104.852H459.94ZM455.589 99.4875C456.018 101.495 457.807 103.009 459.94 103.009C462.073 103.009 463.87 101.495 464.292 99.4875H455.581H455.589Z" fill="white"/>
<path d="M374.275 61.9683C362.737 61.9683 353.346 52.5965 353.346 41.0818V21.1168C353.346 20.6096 353.761 20.1953 354.269 20.1953C365.807 20.1953 375.198 29.5671 375.198 41.0818V61.0468C375.198 61.554 374.783 61.9683 374.275 61.9683ZM355.192 22.0597V41.0818C355.192 51.275 363.259 59.6182 373.352 60.104V41.0818C373.352 30.8886 365.285 22.5454 355.192 22.0597Z" fill="white"/>
<path d="M354.269 42.0033H334.263C333.755 42.0033 333.34 41.589 333.34 41.0818C333.34 29.5671 342.731 20.1953 354.269 20.1953C354.777 20.1953 355.193 20.6096 355.193 21.1168V41.0818C355.193 41.589 354.777 42.0033 354.269 42.0033ZM335.208 40.1603H353.346V22.0597C343.554 22.524 335.673 30.3886 335.208 40.1603Z" fill="white"/>
<path d="M354.269 61.9681H334.263C333.755 61.9681 333.34 61.5538 333.34 61.0467V41.0816C333.34 40.5745 333.755 40.1602 334.263 40.1602C345.802 40.1602 355.193 49.5319 355.193 61.0467C355.193 61.5538 354.777 61.9681 354.269 61.9681ZM335.187 60.1252H353.324C352.859 50.3534 344.978 42.4888 335.187 42.0245V60.1252Z" fill="white"/>
<path d="M363.675 35.3104C365.019 35.3104 366.109 34.2231 366.109 32.8818C366.109 31.5405 365.019 30.4531 363.675 30.4531C362.331 30.4531 361.241 31.5405 361.241 32.8818C361.241 34.2231 362.331 35.3104 363.675 35.3104Z" fill="#0F20E8"/>
<path d="M363.674 36.2393C361.821 36.2393 360.317 34.7393 360.317 32.8892C360.317 31.0391 361.821 29.5391 363.674 29.5391C365.528 29.5391 367.031 31.0391 367.031 32.8892C367.031 34.7393 365.528 36.2393 363.674 36.2393ZM363.674 31.382C362.844 31.382 362.164 32.0606 362.164 32.8892C362.164 33.7178 362.844 34.3964 363.674 34.3964C364.505 34.3964 365.185 33.7178 365.185 32.8892C365.185 32.0606 364.505 31.382 363.674 31.382Z" fill="white"/>
<path d="M344.271 35.3104C345.615 35.3104 346.704 34.2231 346.704 32.8818C346.704 31.5405 345.615 30.4531 344.271 30.4531C342.926 30.4531 341.837 31.5405 341.837 32.8818C341.837 34.2231 342.926 35.3104 344.271 35.3104Z" fill="#0F20E8"/>
<path d="M344.27 36.2393C342.416 36.2393 340.913 34.7393 340.913 32.8892C340.913 31.0391 342.416 29.5391 344.27 29.5391C346.124 29.5391 347.627 31.0391 347.627 32.8892C347.627 34.7393 346.124 36.2393 344.27 36.2393ZM344.27 31.382C343.44 31.382 342.76 32.0606 342.76 32.8892C342.76 33.7178 343.44 34.3964 344.27 34.3964C345.1 34.3964 345.78 33.7178 345.78 32.8892C345.78 32.0606 345.1 31.382 344.27 31.382Z" fill="white"/>
<path d="M364.275 46.4465C367.245 46.4465 369.65 44.0464 369.65 41.082H358.906C358.906 44.0464 361.311 46.4465 364.282 46.4465H364.275Z" fill="#0F20E8"/>
<path d="M364.275 47.3676C360.804 47.3676 357.977 44.546 357.977 41.0816C357.977 40.5745 358.392 40.1602 358.9 40.1602H369.644C370.152 40.1602 370.567 40.5745 370.567 41.0816C370.567 44.546 367.74 47.3676 364.268 47.3676H364.275ZM359.923 42.0031C360.353 44.0103 362.142 45.5246 364.275 45.5246C366.408 45.5246 368.205 44.0103 368.627 42.0031H359.916H359.923Z" fill="white"/>
<path d="M172.549 59.3916C155.315 59.3916 141.289 45.394 141.289 28.1958V-1.62372C141.289 -2.38121 141.909 -3 142.668 -3C159.902 -3 173.928 10.9976 173.928 28.1958V58.0153C173.928 58.7728 173.308 59.3916 172.549 59.3916ZM144.047 -0.215424V28.1958C144.047 43.4203 156.096 55.8815 171.17 56.607V28.1958C171.17 12.9713 159.121 0.510059 144.047 -0.215424Z" fill="white"/>
<path d="M202.43 59.3924H172.549C171.79 59.3924 171.17 58.7736 171.17 58.0161C171.17 40.8179 185.196 26.8203 202.43 26.8203C203.189 26.8203 203.809 27.4391 203.809 28.1966V58.0161C203.809 58.7736 203.189 59.3924 202.43 59.3924ZM173.96 56.6398H201.051V29.6049C186.426 30.2984 174.655 42.0448 173.96 56.6398Z" fill="white"/>
<path d="M202.43 29.5721H172.549C171.79 29.5721 171.17 28.9533 171.17 28.1958V-1.62372C171.17 -2.38121 171.79 -3 172.549 -3C189.783 -3 203.809 10.9976 203.809 28.1958C203.809 28.9533 203.189 29.5721 202.43 29.5721ZM173.928 26.8195H201.019C200.324 12.2245 188.553 0.478053 173.928 -0.215424V26.8195Z" fill="white"/>
<path d="M153.081 19.5791C155.089 19.5791 156.716 17.955 156.716 15.9516C156.716 13.9483 155.089 12.3242 153.081 12.3242C151.074 12.3242 149.446 13.9483 149.446 15.9516C149.446 17.955 151.074 19.5791 153.081 19.5791Z" fill="#0F20E8"/>
<path d="M153.081 20.9644C150.312 20.9644 148.067 18.724 148.067 15.9607C148.067 13.1975 150.312 10.957 153.081 10.957C155.85 10.957 158.095 13.1975 158.095 15.9607C158.095 18.724 155.85 20.9644 153.081 20.9644ZM153.081 13.7096C151.831 13.7096 150.826 14.7231 150.826 15.9607C150.826 17.1983 151.841 18.2119 153.081 18.2119C154.321 18.2119 155.337 17.1983 155.337 15.9607C155.337 14.7231 154.321 13.7096 153.081 13.7096Z" fill="white"/>
<path d="M185.848 19.5791C187.855 19.5791 189.483 17.955 189.483 15.9516C189.483 13.9483 187.855 12.3242 185.848 12.3242C183.84 12.3242 182.213 13.9483 182.213 15.9516C182.213 17.955 183.84 19.5791 185.848 19.5791Z" fill="#0F20E8"/>
<path d="M185.848 20.9644C183.079 20.9644 180.834 18.724 180.834 15.9607C180.834 13.1975 183.079 10.957 185.848 10.957C188.617 10.957 190.862 13.1975 190.862 15.9607C190.862 18.724 188.617 20.9644 185.848 20.9644ZM185.848 13.7096C184.608 13.7096 183.592 14.7231 183.592 15.9607C183.592 17.1983 184.608 18.2119 185.848 18.2119C187.088 18.2119 188.104 17.1983 188.104 15.9607C188.104 14.7231 187.088 13.7096 185.848 13.7096Z" fill="white"/>
<path d="M157.614 36.2076C162.05 36.2076 165.643 32.6229 165.643 28.1953H149.596C149.596 32.6229 153.188 36.2076 157.624 36.2076H157.614Z" fill="#0F20E8"/>
<path d="M157.603 37.5852C152.418 37.5852 148.195 33.371 148.195 28.1966C148.195 27.4391 148.815 26.8203 149.574 26.8203H165.621C166.38 26.8203 167 27.4391 167 28.1966C167 33.371 162.778 37.5852 157.592 37.5852H157.603ZM151.103 29.5729C151.745 32.5708 154.417 34.8326 157.603 34.8326C160.789 34.8326 163.472 32.5708 164.103 29.5729H151.093H151.103Z" fill="white"/>
<path d="M326.82 159.348C308.317 159.348 293.257 144.319 293.257 125.854V93.8371C293.257 93.0238 293.923 92.3594 294.738 92.3594C313.241 92.3594 328.301 107.388 328.301 125.854V157.87C328.301 158.684 327.635 159.348 326.82 159.348ZM296.218 95.3491V125.854C296.218 142.2 309.155 155.579 325.339 156.358V125.854C325.339 109.507 312.403 96.1281 296.218 95.3491Z" fill="white"/>
<path d="M294.738 127.331H262.656C261.841 127.331 261.175 126.667 261.175 125.854C261.175 107.388 276.235 92.3594 294.738 92.3594C295.553 92.3594 296.219 93.0238 296.219 93.8371V125.854C296.219 126.667 295.553 127.331 294.738 127.331ZM264.171 124.376H293.257V95.3491C277.555 96.0937 264.917 108.706 264.171 124.376Z" fill="white"/>
<path d="M294.738 159.347C293.923 159.347 293.257 158.683 293.257 157.869V125.853C293.257 125.039 293.923 124.375 294.738 124.375H326.82C327.635 124.375 328.301 125.039 328.301 125.853C328.301 144.318 313.241 159.347 294.738 159.347ZM296.218 127.33V156.357C311.921 155.613 324.559 143.001 325.305 127.33H296.218Z" fill="white"/>
<path d="M282.605 116.61C284.76 116.61 286.508 114.866 286.508 112.715C286.508 110.564 284.76 108.82 282.605 108.82C280.449 108.82 278.702 110.564 278.702 112.715C278.702 114.866 280.449 116.61 282.605 116.61Z" fill="#0F20E8"/>
<path d="M282.604 118.089C279.631 118.089 277.221 115.683 277.221 112.716C277.221 109.749 279.631 107.344 282.604 107.344C285.577 107.344 287.988 109.749 287.988 112.716C287.988 115.683 285.577 118.089 282.604 118.089ZM282.604 110.299C281.261 110.299 280.182 111.387 280.182 112.716C280.182 114.045 281.273 115.133 282.604 115.133C283.936 115.133 285.026 114.045 285.026 112.716C285.026 111.387 283.936 110.299 282.604 110.299Z" fill="white"/>
<path d="M306.87 116.61C309.026 116.61 310.773 114.866 310.773 112.715C310.773 110.564 309.026 108.82 306.87 108.82C304.715 108.82 302.968 110.564 302.968 112.715C302.968 114.866 304.715 116.61 306.87 116.61Z" fill="#0F20E8"/>
<path d="M306.87 118.089C303.897 118.089 301.486 115.683 301.486 112.716C301.486 109.749 303.897 107.344 306.87 107.344C309.843 107.344 312.253 109.749 312.253 112.716C312.253 115.683 309.843 118.089 306.87 118.089ZM306.87 110.299C305.527 110.299 304.448 111.387 304.448 112.716C304.448 114.045 305.538 115.133 306.87 115.133C308.201 115.133 309.292 114.045 309.292 112.716C309.292 111.387 308.201 110.299 306.87 110.299Z" fill="white"/>
<path d="M278.689 146.165C283.453 146.165 287.309 142.316 287.309 137.562H270.08C270.08 142.316 273.937 146.165 278.7 146.165H278.689Z" fill="#0F20E8"/>
<path d="M278.69 147.644C273.123 147.644 268.589 143.119 268.589 137.564C268.589 136.75 269.255 136.086 270.07 136.086H287.299C288.114 136.086 288.78 136.75 288.78 137.564C288.78 143.119 284.245 147.644 278.678 147.644H278.69ZM271.711 139.041C272.4 142.26 275.269 144.689 278.69 144.689C282.11 144.689 284.992 142.26 285.669 139.041H271.7H271.711Z" fill="white"/>
<path d="M377.467 148.308C365.928 148.308 356.537 138.936 356.537 127.422V107.457C356.537 106.949 356.952 106.535 357.46 106.535C368.999 106.535 378.39 115.907 378.39 127.422V147.387C378.39 147.894 377.975 148.308 377.467 148.308ZM358.384 108.4V127.422C358.384 137.615 366.451 145.958 376.543 146.444V127.422C376.543 117.228 368.476 108.885 358.384 108.4Z" fill="white"/>
<path d="M397.472 128.343H377.466C376.958 128.343 376.543 127.929 376.543 127.422C376.543 115.907 385.934 106.535 397.472 106.535C397.981 106.535 398.396 106.949 398.396 107.457V127.422C398.396 127.929 397.981 128.343 397.472 128.343ZM378.411 126.5H396.549V108.4C386.757 108.864 378.876 116.728 378.411 126.5Z" fill="white"/>
<path d="M397.472 148.308C396.964 148.308 396.549 147.894 396.549 147.386V127.421C396.549 126.914 396.964 126.5 397.472 126.5H417.478C417.986 126.5 418.402 126.914 418.402 127.421C418.402 138.936 409.011 148.308 397.472 148.308ZM398.396 128.343V146.444C408.187 145.979 416.068 138.115 416.533 128.343H398.396Z" fill="white"/>
<path d="M390.409 121.658C391.753 121.658 392.843 120.571 392.843 119.229C392.843 117.888 391.753 116.801 390.409 116.801C389.065 116.801 387.976 117.888 387.976 119.229C387.976 120.571 389.065 121.658 390.409 121.658Z" fill="#0F20E8"/>
<path d="M390.409 122.579C388.555 122.579 387.052 121.079 387.052 119.229C387.052 117.379 388.555 115.879 390.409 115.879C392.263 115.879 393.766 117.379 393.766 119.229C393.766 121.079 392.263 122.579 390.409 122.579ZM390.409 117.722C389.578 117.722 388.898 118.4 388.898 119.229C388.898 120.058 389.578 120.736 390.409 120.736C391.239 120.736 391.919 120.058 391.919 119.229C391.919 118.4 391.239 117.722 390.409 117.722Z" fill="white"/>
<path d="M404.266 121.658C405.61 121.658 406.699 120.571 406.699 119.229C406.699 117.888 405.61 116.801 404.266 116.801C402.922 116.801 401.832 117.888 401.832 119.229C401.832 120.571 402.922 121.658 404.266 121.658Z" fill="#0F20E8"/>
<path d="M404.265 122.579C402.411 122.579 400.908 121.079 400.908 119.229C400.908 117.379 402.411 115.879 404.265 115.879C406.119 115.879 407.622 117.379 407.622 119.229C407.622 121.079 406.119 122.579 404.265 122.579ZM404.265 117.722C403.428 117.722 402.755 118.4 402.755 119.229C402.755 120.058 403.435 120.736 404.265 120.736C405.096 120.736 405.776 120.058 405.776 119.229C405.776 118.4 405.096 117.722 404.265 117.722Z" fill="white"/>
<path d="M387.472 140.087C390.442 140.087 392.847 137.687 392.847 134.723H382.104C382.104 137.687 384.509 140.087 387.479 140.087H387.472Z" fill="#0F20E8"/>
<path d="M387.473 141.008C384.001 141.008 381.174 138.187 381.174 134.722C381.174 134.215 381.589 133.801 382.097 133.801H392.841C393.349 133.801 393.764 134.215 393.764 134.722C393.764 138.187 390.937 141.008 387.466 141.008H387.473ZM383.121 135.644C383.55 137.651 385.34 139.165 387.473 139.165C389.606 139.165 391.402 137.651 391.825 135.644H383.114H383.121Z" fill="white"/>
<path d="M113.312 172.794C96.078 172.794 82.0518 158.796 82.0518 141.598V111.779C82.0518 111.021 82.6718 110.402 83.4309 110.402C100.664 110.402 114.691 124.4 114.691 141.598V171.418C114.691 172.175 114.071 172.794 113.312 172.794ZM84.81 113.187V141.598C84.81 156.823 96.8585 169.284 111.932 170.009V141.598C111.932 126.374 99.884 113.912 84.81 113.187Z" fill="white"/>
<path d="M143.192 142.974H113.312C112.553 142.974 111.933 142.356 111.933 141.598C111.933 124.4 125.959 110.402 143.192 110.402C143.951 110.402 144.572 111.021 144.572 111.779V141.598C144.572 142.356 143.951 142.974 143.192 142.974ZM114.723 140.222H141.813V113.187C127.188 113.88 115.418 125.627 114.723 140.222Z" fill="white"/>
<path d="M113.312 172.795C112.553 172.795 111.933 172.176 111.933 171.418V141.599C111.933 140.841 112.553 140.223 113.312 140.223H143.192C143.951 140.223 144.572 140.841 144.572 141.599C144.572 158.797 130.545 172.795 113.312 172.795ZM114.691 142.975V170.01C129.316 169.317 141.086 157.57 141.781 142.975H114.691Z" fill="white"/>
<path d="M131.892 132.989C133.899 132.989 135.527 131.365 135.527 129.362C135.527 127.358 133.899 125.734 131.892 125.734C129.884 125.734 128.257 127.358 128.257 129.362C128.257 131.365 129.884 132.989 131.892 132.989Z" fill="#0F20E8"/>
<path d="M131.892 134.367C129.123 134.367 126.878 132.126 126.878 129.363C126.878 126.6 129.123 124.359 131.892 124.359C134.661 124.359 136.906 126.6 136.906 129.363C136.906 132.126 134.661 134.367 131.892 134.367ZM131.892 127.112C130.641 127.112 129.636 128.125 129.636 129.363C129.636 130.601 130.652 131.614 131.892 131.614C133.132 131.614 134.148 130.601 134.148 129.363C134.148 128.125 133.132 127.112 131.892 127.112Z" fill="white"/>
<path d="M113.313 160.512C117.75 160.512 121.342 156.928 121.342 152.5H105.295C105.295 156.928 108.887 160.512 113.324 160.512H113.313Z" fill="#0F20E8"/>
<path d="M113.313 161.89C108.128 161.89 103.905 157.676 103.905 152.501C103.905 151.744 104.525 151.125 105.284 151.125H121.331C122.09 151.125 122.71 151.744 122.71 152.501C122.71 157.676 118.487 161.89 113.302 161.89H113.313ZM106.813 153.878C107.455 156.876 110.127 159.137 113.313 159.137C116.499 159.137 119.182 156.876 119.813 153.878H106.802H106.813Z" fill="white"/>
<path d="M94.7306 132.989C96.738 132.989 98.3654 131.365 98.3654 129.362C98.3654 127.358 96.738 125.734 94.7306 125.734C92.7231 125.734 91.0957 127.358 91.0957 129.362C91.0957 131.365 92.7231 132.989 94.7306 132.989Z" fill="#0F20E8"/>
<path d="M94.7308 134.367C91.9619 134.367 89.7168 132.126 89.7168 129.363C89.7168 126.6 91.9619 124.359 94.7308 124.359C97.4997 124.359 99.7447 126.6 99.7447 129.363C99.7447 132.126 97.4997 134.367 94.7308 134.367ZM94.7308 127.112C93.4799 127.112 92.475 128.125 92.475 129.363C92.475 130.601 93.4906 131.614 94.7308 131.614C95.9709 131.614 96.9865 130.601 96.9865 129.363C96.9865 128.125 95.9709 127.112 94.7308 127.112Z" fill="white"/>
<path d="M220.591 132.437C209.052 132.437 199.661 123.065 199.661 111.551V91.5855C199.661 91.0784 200.076 90.6641 200.584 90.6641C212.123 90.6641 221.514 100.036 221.514 111.551V131.516C221.514 132.023 221.099 132.437 220.591 132.437ZM201.508 92.5284V111.551C201.508 121.744 209.575 130.087 219.667 130.573V111.551C219.667 101.357 211.6 93.0142 201.508 92.5284Z" fill="white"/>
<path d="M200.241 112.472H180.235C179.727 112.472 179.312 112.058 179.312 111.551C179.312 100.036 188.703 90.6641 200.241 90.6641C200.749 90.6641 201.164 91.0784 201.164 91.5855V111.551C201.164 112.058 200.749 112.472 200.241 112.472ZM181.18 110.629H199.318V92.5284C189.526 92.9927 181.645 100.857 181.18 110.629Z" fill="white"/>
<path d="M180.235 132.437C179.727 132.437 179.312 132.023 179.312 131.515V111.55C179.312 111.043 179.727 110.629 180.235 110.629H200.241C200.749 110.629 201.164 111.043 201.164 111.55C201.164 123.065 191.773 132.437 180.235 132.437ZM181.158 112.472V130.572C190.95 130.108 198.831 122.244 199.296 112.472H181.158Z" fill="white"/>
<path d="M200.584 134.197C203.555 134.197 205.96 131.796 205.96 128.832H195.216C195.216 131.796 197.621 134.197 200.591 134.197H200.584Z" fill="#0F20E8"/>
<path d="M200.585 135.118C197.113 135.118 194.286 132.296 194.286 128.832C194.286 128.324 194.701 127.91 195.209 127.91H205.953C206.462 127.91 206.877 128.324 206.877 128.832C206.877 132.296 204.049 135.118 200.578 135.118H200.585ZM196.233 129.753C196.663 131.76 198.452 133.275 200.585 133.275C202.718 133.275 204.515 131.76 204.937 129.753H196.226H196.233Z" fill="white"/>
<path d="M190.235 113.978C191.579 113.978 192.669 112.891 192.669 111.55C192.669 110.208 191.579 109.121 190.235 109.121C188.891 109.121 187.802 110.208 187.802 111.55C187.802 112.891 188.891 113.978 190.235 113.978Z" fill="#0F20E8"/>
<path d="M190.235 114.899C188.381 114.899 186.878 113.399 186.878 111.549C186.878 109.699 188.381 108.199 190.235 108.199C192.089 108.199 193.592 109.699 193.592 111.549C193.592 113.399 192.089 114.899 190.235 114.899ZM190.235 110.042C189.397 110.042 188.725 110.721 188.725 111.549C188.725 112.378 189.405 113.057 190.235 113.057C191.065 113.057 191.745 112.378 191.745 111.549C191.745 110.721 191.065 110.042 190.235 110.042Z" fill="white"/>
<path d="M210.241 113.978C211.585 113.978 212.675 112.891 212.675 111.55C212.675 110.208 211.585 109.121 210.241 109.121C208.897 109.121 207.808 110.208 207.808 111.55C207.808 112.891 208.897 113.978 210.241 113.978Z" fill="#0F20E8"/>
<path d="M210.241 114.899C208.387 114.899 206.884 113.399 206.884 111.549C206.884 109.699 208.387 108.199 210.241 108.199C212.095 108.199 213.598 109.699 213.598 111.549C213.598 113.399 212.095 114.899 210.241 114.899ZM210.241 110.042C209.403 110.042 208.73 110.721 208.73 111.549C208.73 112.378 209.41 113.057 210.241 113.057C211.071 113.057 211.751 112.378 211.751 111.549C211.751 110.721 211.071 110.042 210.241 110.042Z" fill="white"/>
<path d="M32.1052 133.949H12.0991C11.5909 133.949 11.1758 133.534 11.1758 133.027C11.1758 121.512 20.5668 112.141 32.1052 112.141H52.1112C52.6194 112.141 53.0345 112.555 53.0345 113.062C53.0345 124.577 43.6435 133.949 32.1052 133.949ZM13.044 132.106H32.1052C42.3193 132.106 50.6796 124.055 51.1663 113.984H32.1052C21.891 113.984 13.5307 122.034 13.044 132.106Z" fill="white"/>
<path d="M52.111 113.636H32.105C31.5968 113.636 31.1816 113.222 31.1816 112.715V92.7496C31.1816 92.2424 31.5968 91.8281 32.105 91.8281C43.6434 91.8281 53.0344 101.2 53.0344 112.715C53.0344 113.222 52.6192 113.636 52.111 113.636ZM33.0284 111.793H51.1662C50.7009 102.021 42.8202 94.1568 33.0284 93.6925V111.793Z" fill="white"/>
<path d="M32.1052 113.636C20.5668 113.636 11.1758 104.264 11.1758 92.7496C11.1758 92.2424 11.5909 91.8281 12.0991 91.8281H32.1052C32.6134 91.8281 33.0285 92.2424 33.0285 92.7496V112.715C33.0285 113.222 32.6134 113.636 32.1052 113.636ZM13.044 93.6711C13.5092 103.443 21.3899 111.307 31.1818 111.772V93.6711H13.044Z" fill="white"/>
<path d="M32.1047 125.732C35.0752 125.732 37.4802 123.332 37.4802 120.367H26.7363C26.7363 123.332 29.1413 125.732 32.1118 125.732H32.1047Z" fill="#0F20E8"/>
<path d="M32.1055 126.645C28.634 126.645 25.8066 123.823 25.8066 120.359C25.8066 119.852 26.2218 119.438 26.73 119.438H37.4738C37.982 119.438 38.3972 119.852 38.3972 120.359C38.3972 123.823 35.5699 126.645 32.0983 126.645H32.1055ZM27.7536 121.28C28.183 123.288 29.9725 124.802 32.1055 124.802C34.2385 124.802 36.0351 123.288 36.4574 121.28H27.7464H27.7536Z" fill="white"/>
<path d="M32.1055 115.142C33.4496 115.142 34.5392 114.055 34.5392 112.714C34.5392 111.373 33.4496 110.285 32.1055 110.285C30.7615 110.285 29.6719 111.373 29.6719 112.714C29.6719 114.055 30.7615 115.142 32.1055 115.142Z" fill="#0F20E8"/>
<path d="M32.105 116.064C30.2512 116.064 28.748 114.563 28.748 112.713C28.748 110.863 30.2512 109.363 32.105 109.363C33.9589 109.363 35.4621 110.863 35.4621 112.713C35.4621 114.563 33.9589 116.064 32.105 116.064ZM32.105 111.206C31.2747 111.206 30.5948 111.885 30.5948 112.713C30.5948 113.542 31.2747 114.221 32.105 114.221C32.9354 114.221 33.6153 113.542 33.6153 112.713C33.6153 111.885 32.9354 111.206 32.105 111.206Z" fill="white"/>
<path d="M40.2081 106.432C41.5521 106.432 42.6417 105.344 42.6417 104.003C42.6417 102.662 41.5521 101.574 40.2081 101.574C38.864 101.574 37.7744 102.662 37.7744 104.003C37.7744 105.344 38.864 106.432 40.2081 106.432Z" fill="#0F20E8"/>
<path d="M40.2076 107.353C38.3537 107.353 36.8506 105.853 36.8506 104.002C36.8506 102.152 38.3537 100.652 40.2076 100.652C42.0615 100.652 43.5646 102.152 43.5646 104.002C43.5646 105.853 42.0615 107.353 40.2076 107.353ZM40.2076 102.495C39.3773 102.495 38.6973 103.174 38.6973 104.002C38.6973 104.831 39.3773 105.51 40.2076 105.51C41.0379 105.51 41.7179 104.831 41.7179 104.002C41.7179 103.174 41.0379 102.495 40.2076 102.495Z" fill="white"/>
<path d="M339.997 214.539C328.458 214.539 319.067 205.167 319.067 193.652V173.687C319.067 173.18 319.483 172.766 319.991 172.766C331.529 172.766 340.92 182.137 340.92 193.652V213.617C340.92 214.124 340.505 214.539 339.997 214.539ZM320.914 174.63V193.652C320.914 203.845 328.981 212.189 339.073 212.674V193.652C339.073 183.459 331.007 175.116 320.914 174.63Z" fill="white"/>
<path d="M319.983 194.574H299.977C299.469 194.574 299.054 194.159 299.054 193.652C299.054 182.137 308.445 172.766 319.983 172.766C320.491 172.766 320.906 173.18 320.906 173.687V193.652C320.906 194.159 320.491 194.574 319.983 194.574ZM300.922 192.731H319.06V174.63C309.268 175.094 301.387 182.959 300.922 192.731Z" fill="white"/>
<path d="M339.996 214.538C339.487 214.538 339.072 214.124 339.072 213.617V193.652C339.072 193.145 339.487 192.73 339.996 192.73H360.002C360.51 192.73 360.925 193.145 360.925 193.652C360.925 205.167 351.534 214.538 339.996 214.538ZM340.919 194.573V212.674C350.711 212.21 358.592 204.345 359.057 194.573H340.919Z" fill="white"/>
<path d="M319.983 196.337C322.953 196.337 325.358 193.937 325.358 190.973H314.614C314.614 193.937 317.019 196.337 319.99 196.337H319.983Z" fill="#0F20E8"/>
<path d="M319.983 197.258C316.512 197.258 313.685 194.437 313.685 190.972C313.685 190.465 314.1 190.051 314.608 190.051H325.352C325.86 190.051 326.275 190.465 326.275 190.972C326.275 194.437 323.448 197.258 319.976 197.258H319.983ZM315.631 191.894C316.061 193.901 317.85 195.415 319.983 195.415C322.116 195.415 323.913 193.901 324.335 191.894H315.624H315.631Z" fill="white"/>
<path d="M339.997 196.08C341.341 196.08 342.431 194.993 342.431 193.651C342.431 192.31 341.341 191.223 339.997 191.223C338.653 191.223 337.563 192.31 337.563 193.651C337.563 194.993 338.653 196.08 339.997 196.08Z" fill="#0F20E8"/>
<path d="M339.997 197.001C338.143 197.001 336.64 195.501 336.64 193.651C336.64 191.801 338.143 190.301 339.997 190.301C341.851 190.301 343.354 191.801 343.354 193.651C343.354 195.501 341.851 197.001 339.997 197.001ZM339.997 192.144C339.166 192.144 338.486 192.822 338.486 193.651C338.486 194.48 339.166 195.158 339.997 195.158C340.827 195.158 341.507 194.48 341.507 193.651C341.507 192.822 340.827 192.144 339.997 192.144Z" fill="white"/>
<path d="M329.046 187.896C330.39 187.896 331.48 186.809 331.48 185.468C331.48 184.126 330.39 183.039 329.046 183.039C327.702 183.039 326.612 184.126 326.612 185.468C326.612 186.809 327.702 187.896 329.046 187.896Z" fill="#0F20E8"/>
<path d="M329.045 188.817C327.192 188.817 325.688 187.317 325.688 185.467C325.688 183.617 327.192 182.117 329.045 182.117C330.899 182.117 332.402 183.617 332.402 185.467C332.402 187.317 330.899 188.817 329.045 188.817ZM329.045 183.96C328.215 183.96 327.535 184.639 327.535 185.467C327.535 186.296 328.215 186.975 329.045 186.975C329.876 186.975 330.556 186.296 330.556 185.467C330.556 184.639 329.876 183.96 329.045 183.96Z" fill="white"/>
<path d="M435.332 214.539C423.793 214.539 414.402 205.167 414.402 193.652V173.687C414.402 173.18 414.817 172.766 415.326 172.766C426.864 172.766 436.255 182.137 436.255 193.652V213.617C436.255 214.124 435.84 214.539 435.332 214.539ZM416.249 174.63V193.652C416.249 203.845 424.316 212.189 434.408 212.674V193.652C434.408 183.459 426.341 175.116 416.249 174.63Z" fill="white"/>
<path d="M415.326 194.574H395.32C394.812 194.574 394.396 194.159 394.396 193.652C394.396 182.137 403.788 172.766 415.326 172.766C415.834 172.766 416.249 173.18 416.249 173.687V193.652C416.249 194.159 415.834 194.574 415.326 194.574ZM396.265 192.731H414.403V174.63C404.611 175.094 396.73 182.959 396.265 192.731Z" fill="white"/>
<path d="M415.326 194.574C414.817 194.574 414.402 194.159 414.402 193.652V173.687C414.402 173.18 414.817 172.766 415.326 172.766H435.332C435.84 172.766 436.255 173.18 436.255 173.687C436.255 185.202 426.864 194.574 415.326 194.574ZM416.249 174.609V192.709C426.041 192.245 433.922 184.38 434.387 174.609H416.249Z" fill="white"/>
<path d="M415.325 203.642C418.296 203.642 420.701 201.242 420.701 198.277H409.957C409.957 201.242 412.362 203.642 415.333 203.642H415.325Z" fill="#0F20E8"/>
<path d="M415.326 204.563C411.855 204.563 409.027 201.741 409.027 198.277C409.027 197.77 409.442 197.355 409.951 197.355H420.695C421.203 197.355 421.618 197.77 421.618 198.277C421.618 201.741 418.791 204.563 415.319 204.563H415.326ZM410.974 199.198C411.404 201.206 413.193 202.72 415.326 202.72C417.459 202.72 419.256 201.206 419.678 199.198H410.967H410.974Z" fill="white"/>
<path d="M406.086 186.728C407.43 186.728 408.52 185.641 408.52 184.3C408.52 182.958 407.43 181.871 406.086 181.871C404.742 181.871 403.652 182.958 403.652 184.3C403.652 185.641 404.742 186.728 406.086 186.728Z" fill="#0F20E8"/>
<path d="M406.085 187.649C404.232 187.649 402.729 186.149 402.729 184.299C402.729 182.449 404.232 180.949 406.085 180.949C407.939 180.949 409.443 182.449 409.443 184.299C409.443 186.149 407.939 187.649 406.085 187.649ZM406.085 182.792C405.248 182.792 404.575 183.471 404.575 184.299C404.575 185.128 405.255 185.807 406.085 185.807C406.916 185.807 407.596 185.128 407.596 184.299C407.596 183.471 406.916 182.792 406.085 182.792Z" fill="white"/>
<path d="M415.326 186.728C416.67 186.728 417.76 185.641 417.76 184.3C417.76 182.958 416.67 181.871 415.326 181.871C413.982 181.871 412.893 182.958 412.893 184.3C412.893 185.641 413.982 186.728 415.326 186.728Z" fill="#0F20E8"/>
<path d="M415.326 187.649C413.472 187.649 411.969 186.149 411.969 184.299C411.969 182.449 413.472 180.949 415.326 180.949C417.18 180.949 418.683 182.449 418.683 184.299C418.683 186.149 417.18 187.649 415.326 187.649ZM415.326 182.792C414.495 182.792 413.815 183.471 413.815 184.299C413.815 185.128 414.495 185.807 415.326 185.807C416.156 185.807 416.836 185.128 416.836 184.299C416.836 183.471 416.156 182.792 415.326 182.792Z" fill="white"/>
<path d="M86.9333 59.3902C75.3949 59.3902 66.0039 50.0184 66.0039 38.5037V18.5387C66.0039 18.0315 66.4191 17.6172 66.9273 17.6172C78.4656 17.6172 87.8566 26.989 87.8566 38.5037V58.4687C87.8566 58.9759 87.4415 59.3902 86.9333 59.3902ZM67.8506 19.4815V38.5037C67.8506 48.6969 75.9174 57.0401 86.0099 57.5258V38.5037C86.0099 28.3104 77.9431 19.9673 67.8506 19.4815Z" fill="white"/>
<path d="M66.9274 39.4251H46.9214C46.4132 39.4251 45.998 39.0108 45.998 38.5037C45.998 26.989 55.3891 17.6172 66.9274 17.6172C67.4356 17.6172 67.8508 18.0315 67.8508 18.5387V38.5037C67.8508 39.0108 67.4356 39.4251 66.9274 39.4251ZM47.8662 37.5822H66.0041V19.4815C56.2122 19.9458 48.3315 27.8104 47.8662 37.5822Z" fill="white"/>
<path d="M86.9331 59.39C86.4249 59.39 86.0098 58.9757 86.0098 58.4685V38.5035C86.0098 37.9963 86.4249 37.582 86.9331 37.582H106.939C107.447 37.582 107.862 37.9963 107.862 38.5035C107.862 50.0182 98.4715 59.39 86.9331 59.39ZM87.8565 39.425V57.5256C97.6483 57.0613 105.529 49.1968 105.994 39.425H87.8565Z" fill="white"/>
<path d="M56.9191 48.4895C59.8896 48.4895 62.2946 46.0894 62.2946 43.125H51.5508C51.5508 46.0894 53.9558 48.4895 56.9263 48.4895H56.9191Z" fill="#0F20E8"/>
<path d="M56.9199 49.4027C53.4484 49.4027 50.6211 46.5812 50.6211 43.1168C50.6211 42.6096 51.0362 42.1953 51.5444 42.1953H62.2883C62.7965 42.1953 63.2116 42.6096 63.2116 43.1168C63.2116 46.5812 60.3843 49.4027 56.9128 49.4027H56.9199ZM52.568 44.0382C52.9975 46.0455 54.7869 47.5598 56.9199 47.5598C59.053 47.5598 60.8496 46.0455 61.2719 44.0382H52.5609H52.568Z" fill="white"/>
<path d="M66.9268 32.7479C68.2709 32.7479 69.3605 31.6606 69.3605 30.3193C69.3605 28.978 68.2709 27.8906 66.9268 27.8906C65.5827 27.8906 64.4932 28.978 64.4932 30.3193C64.4932 31.6606 65.5827 32.7479 66.9268 32.7479Z" fill="#0F20E8"/>
<path d="M66.9263 33.669C65.0725 33.669 63.5693 32.1689 63.5693 30.3189C63.5693 28.4688 65.0725 26.9688 66.9263 26.9688C68.7802 26.9688 70.2833 28.4688 70.2833 30.3189C70.2833 32.1689 68.7802 33.669 66.9263 33.669ZM66.9263 28.8117C66.096 28.8117 65.416 29.4903 65.416 30.3189C65.416 31.1475 66.096 31.8261 66.9263 31.8261C67.7566 31.8261 68.4366 31.1475 68.4366 30.3189C68.4366 29.4903 67.7566 28.8117 66.9263 28.8117Z" fill="white"/>
<path d="M56.9219 32.7479C58.266 32.7479 59.3556 31.6606 59.3556 30.3193C59.3556 28.978 58.266 27.8906 56.9219 27.8906C55.5779 27.8906 54.4883 28.978 54.4883 30.3193C54.4883 31.6606 55.5779 32.7479 56.9219 32.7479Z" fill="#0F20E8"/>
<path d="M56.9215 33.669C55.0676 33.669 53.5645 32.1689 53.5645 30.3189C53.5645 28.4688 55.0676 26.9688 56.9215 26.9688C58.7753 26.9688 60.2785 28.4688 60.2785 30.3189C60.2785 32.1689 58.7753 33.669 56.9215 33.669ZM56.9215 28.8117C56.084 28.8117 55.4112 29.4903 55.4112 30.3189C55.4112 31.1475 56.0912 31.8261 56.9215 31.8261C57.7518 31.8261 58.4317 31.1475 58.4317 30.3189C58.4317 29.4903 57.7518 28.8117 56.9215 28.8117Z" fill="white"/>
<path d="M169.126 214.539C157.587 214.539 148.196 205.167 148.196 193.652V173.687C148.196 173.18 148.611 172.766 149.12 172.766C160.658 172.766 170.049 182.137 170.049 193.652V213.617C170.049 214.124 169.634 214.539 169.126 214.539ZM150.043 174.63V193.652C150.043 203.845 158.11 212.189 168.202 212.674V193.652C168.202 183.459 160.135 175.116 150.043 174.63Z" fill="white"/>
<path d="M149.12 194.574H129.114C128.606 194.574 128.19 194.159 128.19 193.652C128.19 182.137 137.581 172.766 149.12 172.766C149.628 172.766 150.043 173.18 150.043 173.687V193.652C150.043 194.159 149.628 194.574 149.12 194.574ZM130.059 192.731H148.196V174.63C138.405 175.094 130.524 182.959 130.059 192.731Z" fill="white"/>
<path d="M169.535 193.933C169.026 193.933 168.611 193.519 168.611 193.011V173.046C168.611 172.539 169.026 172.125 169.535 172.125H189.541C190.049 172.125 190.464 172.539 190.464 173.046C190.464 184.561 181.073 193.933 169.535 193.933ZM170.458 173.968V192.069C180.25 191.604 188.131 183.74 188.596 173.968H170.458Z" fill="white"/>
<path d="M139.114 187.892C140.458 187.892 141.548 186.805 141.548 185.464C141.548 184.122 140.458 183.035 139.114 183.035C137.77 183.035 136.681 184.122 136.681 185.464C136.681 186.805 137.77 187.892 139.114 187.892Z" fill="#0F20E8"/>
<path d="M139.114 188.814C137.26 188.814 135.757 187.313 135.757 185.463C135.757 183.613 137.26 182.113 139.114 182.113C140.968 182.113 142.471 183.613 142.471 185.463C142.471 187.313 140.968 188.814 139.114 188.814ZM139.114 183.956C138.284 183.956 137.604 184.635 137.604 185.463C137.604 186.292 138.284 186.971 139.114 186.971C139.944 186.971 140.624 186.292 140.624 185.463C140.624 184.635 139.944 183.956 139.114 183.956Z" fill="white"/>
<path d="M159.118 198.376C162.089 198.376 164.494 195.976 164.494 193.012H153.75C153.75 195.976 156.155 198.376 159.125 198.376H159.118Z" fill="#0F20E8"/>
<path d="M159.119 199.297C155.648 199.297 152.82 196.476 152.82 193.011C152.82 192.504 153.235 192.09 153.744 192.09H164.488C164.996 192.09 165.411 192.504 165.411 193.011C165.411 196.476 162.584 199.297 159.112 199.297H159.119ZM154.767 193.933C155.197 195.94 156.986 197.454 159.119 197.454C161.252 197.454 163.049 195.94 163.471 193.933H154.76H154.767Z" fill="white"/>
<path d="M149.119 187.892C150.463 187.892 151.553 186.805 151.553 185.464C151.553 184.122 150.463 183.035 149.119 183.035C147.775 183.035 146.686 184.122 146.686 185.464C146.686 186.805 147.775 187.892 149.119 187.892Z" fill="#0F20E8"/>
<path d="M149.119 188.814C147.265 188.814 145.762 187.313 145.762 185.463C145.762 183.613 147.265 182.113 149.119 182.113C150.973 182.113 152.476 183.613 152.476 185.463C152.476 187.313 150.973 188.814 149.119 188.814ZM149.119 183.956C148.281 183.956 147.608 184.635 147.608 185.463C147.608 186.292 148.288 186.971 149.119 186.971C149.949 186.971 150.629 186.292 150.629 185.463C150.629 184.635 149.949 183.956 149.119 183.956Z" fill="white"/>
</g>
</g>
</g>
</svg>
