<svg width="24" height="32" viewBox="0 0 24 32" fill="none" xmlns="http://www.w3.org/2000/svg">
<path fill-rule="evenodd" clip-rule="evenodd" d="M7.20771 24.4463C7.97179 24.4463 8.59119 25.0657 8.59119 25.8298C8.59119 27.7082 10.1162 29.2332 11.9946 29.2332C13.8729 29.2332 15.398 27.7082 15.398 25.8298C15.398 25.0657 16.0174 24.4463 16.7814 24.4463C17.5455 24.4463 18.1649 25.0657 18.1649 25.8298C18.1649 29.2363 15.4011 32.0002 11.9946 32.0002C8.58801 32.0002 5.82422 29.2363 5.82422 25.8298C5.82422 25.0657 6.44363 24.4463 7.20771 24.4463Z" fill="#0F20E8"/>
<path fill-rule="evenodd" clip-rule="evenodd" d="M0 14.5124C0 7.88233 5.36476 2.51758 11.9948 2.51758C18.6249 2.51758 23.9897 7.88232 23.9897 14.5124V24.6118C23.9897 25.3759 23.3703 25.9953 22.6062 25.9953H1.38349C0.619409 25.9953 0 25.3759 0 24.6118V14.5124ZM11.9948 5.28455C6.89292 5.28455 2.76698 9.41049 2.76698 14.5124V23.2284H21.2227V14.5124C21.2227 9.41049 17.0967 5.28455 11.9948 5.28455Z" fill="#0F20E8"/>
<path fill-rule="evenodd" clip-rule="evenodd" d="M12.3268 0C13.0909 0 13.7103 0.619409 13.7103 1.38349V3.90145C13.7103 4.66553 13.0909 5.28493 12.3268 5.28493C11.5628 5.28493 10.9434 4.66553 10.9434 3.90145V1.38349C10.9434 0.619409 11.5628 0 12.3268 0Z" fill="#0F20E8"/>
</svg>
