<svg width="43" height="15" viewBox="0 0 43 15" fill="none" xmlns="http://www.w3.org/2000/svg">
<rect width="43" height="15" rx="2" fill="#F4F5FC"/>
<path d="M16.2121 4.68801H8.18635C8.13741 4.68801 8.08973 4.70287 8.05459 4.73003C8.01945 4.75667 8 4.79305 8 4.83097V10.9626C8 11.0005 8.01945 11.0369 8.05459 11.0635C8.08973 11.0902 8.13678 11.105 8.18635 11.105H16.2115C16.261 11.105 16.3087 11.0902 16.3432 11.0635C16.3784 11.0369 16.3978 11.0005 16.3978 10.9626V4.83045C16.3978 4.79254 16.3784 4.75616 16.3432 4.72952C16.3081 4.70287 16.261 4.6875 16.2115 4.6875L16.2121 4.68801ZM13.5994 8.82342C13.5994 8.86134 13.5799 8.89772 13.5448 8.92436C13.5096 8.951 13.4626 8.96638 13.413 8.96638H10.986C10.9365 8.96638 10.8888 8.95152 10.8543 8.92436C10.8191 8.89772 10.7997 8.86134 10.7997 8.82342V6.96964C10.7997 6.93172 10.8191 6.89534 10.8543 6.8687C10.8894 6.84205 10.9365 6.82668 10.986 6.82668H13.4124C13.462 6.82668 13.5096 6.84154 13.5442 6.8687C13.5793 6.89534 13.5987 6.93172 13.5987 6.96964V8.82342H13.5994Z" fill="black"/>
<path d="M33.0121 6.82715H30.5858C30.4829 6.82715 30.3994 6.8912 30.3994 6.96959V8.82338C30.3994 8.90228 30.4829 8.96582 30.5858 8.96582H33.0121C33.115 8.96582 33.1985 8.90177 33.1985 8.82338V6.9701C33.1985 6.8912 33.115 6.82766 33.0121 6.82766V6.82715Z" fill="black"/>
<path d="M30.2135 4.68799H27.7872C27.6843 4.68799 27.6008 4.75204 27.6008 4.83043V6.68473C27.6008 6.76363 27.6843 6.82717 27.7872 6.82717H30.2135C30.3164 6.82717 30.4005 6.76312 30.4005 6.68473V4.83094C30.4005 4.75204 30.3171 4.6885 30.2135 4.6885V4.68799Z" fill="black"/>
<path d="M35.8136 4.68799H33.3873C33.2844 4.68799 33.2009 4.75204 33.2009 4.83043V6.68473C33.2009 6.76363 33.2844 6.82717 33.3873 6.82717H35.8136C35.9165 6.82717 36 6.76312 36 6.68473V4.83094C36 4.75204 35.9165 4.6885 35.8136 4.6885V4.68799Z" fill="black"/>
<path d="M30.2135 8.96631H27.7872C27.6843 8.96631 27.6008 9.03036 27.6008 9.10875V10.9625C27.6008 11.0414 27.6843 11.105 27.7872 11.105H30.2135C30.3164 11.105 30.4005 11.0409 30.4005 10.9625V9.10875C30.4005 9.02984 30.3171 8.96631 30.2135 8.96631Z" fill="black"/>
<path d="M35.8136 8.96631H33.3873C33.2844 8.96631 33.2009 9.03036 33.2009 9.10875V10.9625C33.2009 11.0414 33.2844 11.105 33.3873 11.105H35.8136C35.9165 11.105 36 11.0409 36 10.9625V9.10875C36 9.02984 35.9165 8.96631 35.8136 8.96631Z" fill="black"/>
<path d="M26.011 4.68799H23.5847C23.4818 4.68799 23.3977 4.75204 23.3977 4.83043V6.68473C23.3977 6.76363 23.4812 6.82717 23.5847 6.82717H26.011C26.1139 6.82717 26.1974 6.76312 26.1974 6.68473V4.83094C26.1974 4.75204 26.1139 4.6885 26.011 4.6885V4.68799Z" fill="black"/>
<path d="M26.011 8.96631H23.5847C23.4818 8.96631 23.3977 9.03036 23.3977 9.10875V10.9625C23.3977 11.0414 23.4812 11.105 23.5847 11.105H26.011C26.1139 11.105 26.1974 11.0409 26.1974 10.9625V9.10875C26.1974 9.02984 26.1139 8.96631 26.011 8.96631Z" fill="black"/>
<path d="M23.3969 6.9681C23.3969 6.93018 23.3775 6.8938 23.3424 6.86716C23.3072 6.84052 23.2602 6.82514 23.2106 6.82514H20.5979V4.83045C20.5979 4.79254 20.5784 4.75616 20.5433 4.72952C20.5082 4.70287 20.4611 4.6875 20.4115 4.6875H17.9852C17.9356 4.6875 17.8879 4.70236 17.8534 4.72952C17.8183 4.75616 17.7988 4.79254 17.7988 4.83045V10.9595C17.7988 10.9974 17.8183 11.0338 17.8534 11.0605C17.8886 11.0871 17.9356 11.1025 17.9852 11.1025H20.4115C20.4611 11.1025 20.5088 11.0876 20.5433 11.0605C20.5778 11.0333 20.5979 10.9974 20.5979 10.9595V8.96484H23.2106C23.2602 8.96484 23.3078 8.94998 23.3424 8.92282C23.3775 8.89618 23.3969 8.8598 23.3969 8.82188V6.9681Z" fill="black"/>
</svg>
