<svg width="23" height="23" viewBox="0 0 23 23" fill="none" xmlns="http://www.w3.org/2000/svg">
<path fill-rule="evenodd" clip-rule="evenodd" d="M5.15039 11.04C5.15039 10.4878 5.59811 10.04 6.15039 10.04H15.9203C16.4726 10.04 16.9203 10.4878 16.9203 11.04C16.9203 11.5923 16.4726 12.04 15.9203 12.04H6.15039C5.59811 12.04 5.15039 11.5923 5.15039 11.04Z" fill="#DE350B"/>
<path fill-rule="evenodd" clip-rule="evenodd" d="M11.04 2C6.04733 2 2 6.04738 2 11.04C2 16.0327 6.04733 20.0801 11.04 20.0801C16.0326 20.0801 20.08 16.0327 20.08 11.04C20.08 6.04738 16.0326 2 11.04 2ZM0 11.04C0 4.94282 4.94275 0 11.04 0C17.1372 0 22.08 4.94282 22.08 11.04C22.08 17.1373 17.1372 22.0801 11.04 22.0801C4.94275 22.0801 0 17.1373 0 11.04Z" fill="#DE350B"/>
</svg>
