<svg width="24" height="24" viewBox="0 0 24 24" fill="none" xmlns="http://www.w3.org/2000/svg">
<path fill-rule="evenodd" clip-rule="evenodd" d="M11.9991 10.739C12.5994 10.739 13.086 11.2257 13.086 11.826V17.239C13.086 17.8393 12.5994 18.3259 11.9991 18.3259C11.3988 18.3259 10.9121 17.8393 10.9121 17.239V11.826C10.9121 11.2257 11.3988 10.739 11.9991 10.739Z" fill="#0F20E8"/>
<path fill-rule="evenodd" clip-rule="evenodd" d="M12 2.17391C6.57322 2.17391 2.17391 6.57322 2.17391 12C2.17391 17.4268 6.57322 21.8261 12 21.8261C17.4268 21.8261 21.826 17.4268 21.826 12C21.826 6.57321 17.4268 2.17391 12 2.17391ZM0 12C0 5.37261 5.37261 0 12 0C18.6274 0 23.9999 5.37262 23.9999 12C23.9999 18.6274 18.6274 24 12 24C5.37261 24 0 18.6274 0 12Z" fill="#0F20E8"/>
</svg>
