<svg width="98" height="18" viewBox="0 0 98 18" fill="none" xmlns="http://www.w3.org/2000/svg">
<path d="M37.784 7.92C37.9227 7.92 38.0347 7.96267 38.12 8.048C38.216 8.13333 38.264 8.24533 38.264 8.384V12.448C38.264 12.5227 38.2587 12.5867 38.248 12.64C38.2373 12.6827 38.2053 12.7307 38.152 12.784C37.2347 13.7013 35.9227 14.16 34.216 14.16C33.096 14.16 32.056 13.872 31.096 13.296C30.136 12.7093 29.3733 11.9253 28.808 10.944C28.2427 9.952 27.96 8.88533 27.96 7.744C27.96 6.60267 28.2373 5.54133 28.792 4.56C29.3573 3.57867 30.1147 2.8 31.064 2.224C32.024 1.63733 33.0747 1.344 34.216 1.344C35.7093 1.344 37.0267 1.81867 38.168 2.768C38.264 2.84267 38.312 2.94933 38.312 3.088C38.312 3.216 38.2693 3.33333 38.184 3.44C38.0987 3.536 37.9813 3.584 37.832 3.584C37.7147 3.584 37.5813 3.52 37.432 3.392C36.6213 2.66667 35.5493 2.304 34.216 2.304C33.2773 2.304 32.3973 2.55467 31.576 3.056C30.7653 3.55733 30.12 4.22933 29.64 5.072C29.16 5.904 28.92 6.79467 28.92 7.744C28.92 8.72533 29.1547 9.63733 29.624 10.48C30.104 11.312 30.7493 11.9733 31.56 12.464C32.3813 12.9547 33.2667 13.2 34.216 13.2C35.3787 13.2 36.408 12.8693 37.304 12.208V8.784H34.616C34.4773 8.784 34.36 8.74133 34.264 8.656C34.1787 8.57067 34.136 8.464 34.136 8.336C34.136 8.21867 34.1787 8.12267 34.264 8.048C34.36 7.96267 34.4773 7.92 34.616 7.92H37.784ZM44.0251 5.168C44.8038 5.168 45.4971 5.35467 46.1051 5.728C46.7238 6.09067 47.2038 6.59733 47.5451 7.248C47.8865 7.89867 48.0571 8.64 48.0571 9.472C48.0571 9.61067 48.0145 9.72267 47.9291 9.808C47.8438 9.88267 47.7318 9.92 47.5931 9.92H40.8891C40.9211 10.5493 41.0865 11.1147 41.3851 11.616C41.6838 12.1067 42.0838 12.4907 42.5851 12.768C43.0865 13.0453 43.6465 13.184 44.2651 13.184C44.6811 13.184 45.0971 13.1147 45.5131 12.976C45.9398 12.8267 46.2758 12.6347 46.5211 12.4C46.6278 12.3147 46.7398 12.272 46.8571 12.272C46.9745 12.272 47.0705 12.304 47.1451 12.368C47.2625 12.464 47.3211 12.576 47.3211 12.704C47.3211 12.8107 47.2731 12.912 47.1771 13.008C46.8358 13.3173 46.3878 13.5733 45.8331 13.776C45.2891 13.9787 44.7665 14.08 44.2651 14.08C43.4225 14.08 42.6705 13.8933 42.0091 13.52C41.3585 13.136 40.8465 12.608 40.4731 11.936C40.0998 11.2533 39.9131 10.4853 39.9131 9.632C39.9131 8.768 40.0838 8 40.4251 7.328C40.7771 6.64533 41.2625 6.11733 41.8811 5.744C42.5105 5.36 43.2251 5.168 44.0251 5.168ZM44.0251 6.064C43.1931 6.064 42.4891 6.34133 41.9131 6.896C41.3478 7.45067 41.0118 8.18133 40.9051 9.088H47.1291C47.0545 8.18133 46.7345 7.45067 46.1691 6.896C45.6038 6.34133 44.8891 6.064 44.0251 6.064ZM53.8551 5.152C54.6658 5.152 55.0711 5.328 55.0711 5.68C55.0711 5.73333 55.0658 5.776 55.0551 5.808C55.0231 5.92533 54.9698 6.01067 54.8951 6.064C54.8311 6.10667 54.7405 6.128 54.6231 6.128C54.5271 6.128 54.3991 6.11733 54.2391 6.096C54.0898 6.07467 53.9618 6.064 53.8551 6.064C53.3218 6.064 52.8471 6.176 52.4311 6.4C52.0151 6.624 51.6898 6.93333 51.4551 7.328C51.2205 7.72267 51.1031 8.16533 51.1031 8.656V13.52C51.1031 13.6587 51.0605 13.776 50.9751 13.872C50.8898 13.9573 50.7725 14 50.6231 14C50.4845 14 50.3671 13.9573 50.2711 13.872C50.1858 13.776 50.1431 13.6587 50.1431 13.52V5.728C50.1431 5.57867 50.1858 5.46133 50.2711 5.376C50.3671 5.29067 50.4845 5.248 50.6231 5.248C50.7725 5.248 50.8898 5.29067 50.9751 5.376C51.0605 5.46133 51.1031 5.57867 51.1031 5.728V6.72C51.4125 6.22933 51.8071 5.84533 52.2871 5.568C52.7671 5.29067 53.2898 5.152 53.8551 5.152ZM57.9588 14C57.8201 14 57.7028 13.9573 57.6068 13.872C57.5214 13.776 57.4788 13.6587 57.4788 13.52V5.728C57.4788 5.57867 57.5214 5.46133 57.6068 5.376C57.7028 5.29067 57.8201 5.248 57.9588 5.248C58.1081 5.248 58.2254 5.29067 58.3108 5.376C58.3961 5.46133 58.4388 5.57867 58.4388 5.728V13.52C58.4388 13.6587 58.3961 13.776 58.3108 13.872C58.2254 13.9573 58.1081 14 57.9588 14ZM57.9428 3.408C57.7294 3.408 57.5534 3.33867 57.4148 3.2C57.2761 3.05067 57.2068 2.86933 57.2068 2.656C57.2068 2.42133 57.2814 2.24 57.4308 2.112C57.5801 1.984 57.7561 1.92 57.9588 1.92C58.1614 1.92 58.3321 1.984 58.4708 2.112C58.6201 2.24 58.6948 2.42133 58.6948 2.656C58.6948 2.86933 58.6201 3.05067 58.4708 3.2C58.3321 3.33867 58.1561 3.408 57.9428 3.408ZM74.3146 1.504C74.464 1.504 74.5813 1.54667 74.6666 1.632C74.752 1.71733 74.7946 1.83467 74.7946 1.984V9.68V9.712C74.784 10.5333 74.5813 11.28 74.1866 11.952C73.792 12.624 73.2533 13.152 72.5706 13.536C71.8986 13.9093 71.152 14.096 70.3306 14.096C69.488 14.096 68.7253 13.904 68.0426 13.52C67.36 13.1253 66.8213 12.5867 66.4266 11.904C66.0426 11.2213 65.8506 10.4587 65.8506 9.616C65.8506 8.784 66.0426 8.02667 66.4266 7.344C66.8213 6.66133 67.36 6.128 68.0426 5.744C68.7253 5.34933 69.488 5.152 70.3306 5.152C71.088 5.152 71.7706 5.31733 72.3786 5.648C72.9973 5.968 73.4826 6.41067 73.8346 6.976V1.984C73.8346 1.83467 73.8773 1.71733 73.9626 1.632C74.0586 1.54667 74.176 1.504 74.3146 1.504ZM70.3306 13.2C70.992 13.2 71.5893 13.0453 72.1226 12.736C72.656 12.416 73.072 11.984 73.3706 11.44C73.68 10.896 73.8346 10.288 73.8346 9.616C73.8346 8.944 73.68 8.336 73.3706 7.792C73.072 7.248 72.656 6.82133 72.1226 6.512C71.5893 6.20267 70.992 6.048 70.3306 6.048C69.6693 6.048 69.072 6.20267 68.5386 6.512C68.0053 6.82133 67.584 7.248 67.2746 7.792C66.9653 8.336 66.8106 8.944 66.8106 9.616C66.8106 10.288 66.9653 10.896 67.2746 11.44C67.584 11.984 68.0053 12.416 68.5386 12.736C69.072 13.0453 69.6693 13.2 70.3306 13.2ZM81.6744 14.096C80.8317 14.096 80.069 13.904 79.3864 13.52C78.7037 13.1253 78.165 12.5867 77.7704 11.904C77.3864 11.2213 77.1944 10.464 77.1944 9.632C77.1944 8.78933 77.3864 8.02667 77.7704 7.344C78.165 6.66133 78.7037 6.128 79.3864 5.744C80.069 5.34933 80.8317 5.152 81.6744 5.152C82.5064 5.152 83.2637 5.34933 83.9464 5.744C84.629 6.128 85.1624 6.66133 85.5464 7.344C85.941 8.02667 86.1384 8.78933 86.1384 9.632C86.1384 10.464 85.941 11.2213 85.5464 11.904C85.1624 12.5867 84.629 13.1253 83.9464 13.52C83.2637 13.904 82.5064 14.096 81.6744 14.096ZM81.6744 13.2C82.3357 13.2 82.933 13.0453 83.4664 12.736C83.9997 12.4267 84.4157 12 84.7144 11.456C85.0237 10.912 85.1784 10.304 85.1784 9.632C85.1784 8.96 85.0237 8.352 84.7144 7.808C84.4157 7.264 83.9997 6.83733 83.4664 6.528C82.933 6.208 82.3357 6.048 81.6744 6.048C81.013 6.048 80.4157 6.208 79.8824 6.528C79.349 6.83733 78.9277 7.264 78.6184 7.808C78.309 8.352 78.1544 8.96 78.1544 9.632C78.1544 10.304 78.309 10.912 78.6184 11.456C78.9277 12 79.349 12.4267 79.8824 12.736C80.4157 13.0453 81.013 13.2 81.6744 13.2ZM80.0744 3.488C79.8397 3.488 79.6424 3.408 79.4824 3.248C79.3224 3.088 79.2424 2.89067 79.2424 2.656C79.2424 2.432 79.3224 2.24 79.4824 2.08C79.6424 1.92 79.8397 1.84 80.0744 1.84C80.309 1.84 80.501 1.92 80.6504 2.08C80.8104 2.24 80.8904 2.432 80.8904 2.656C80.8904 2.89067 80.8104 3.088 80.6504 3.248C80.501 3.408 80.309 3.488 80.0744 3.488ZM83.2744 3.488C83.0397 3.488 82.8424 3.408 82.6824 3.248C82.5224 3.088 82.4424 2.89067 82.4424 2.656C82.4424 2.432 82.5224 2.24 82.6824 2.08C82.8424 1.92 83.0397 1.84 83.2744 1.84C83.509 1.84 83.701 1.92 83.8504 2.08C84.0104 2.24 84.0904 2.432 84.0904 2.656C84.0904 2.89067 84.0104 3.088 83.8504 3.248C83.701 3.408 83.509 3.488 83.2744 3.488ZM92.5338 5.136C93.3124 5.136 94.0058 5.296 94.6138 5.616C95.2324 5.936 95.7124 6.40533 96.0538 7.024C96.4058 7.632 96.5818 8.36267 96.5818 9.216V13.52C96.5818 13.6587 96.5338 13.776 96.4378 13.872C96.3524 13.9573 96.2404 14 96.1018 14C95.9631 14 95.8458 13.9573 95.7498 13.872C95.6644 13.776 95.6218 13.6587 95.6218 13.52V9.216C95.6218 8.20267 95.3338 7.42933 94.7578 6.896C94.1924 6.36267 93.4511 6.096 92.5338 6.096C91.9684 6.096 91.4511 6.208 90.9818 6.432C90.5231 6.64533 90.1604 6.94933 89.8938 7.344C89.6271 7.728 89.4938 8.15467 89.4938 8.624V13.52C89.4938 13.6587 89.4511 13.776 89.3658 13.872C89.2804 13.9573 89.1631 14 89.0138 14C88.8751 14 88.7578 13.9573 88.6618 13.872C88.5764 13.776 88.5338 13.6587 88.5338 13.52V5.728C88.5338 5.57867 88.5764 5.46133 88.6618 5.376C88.7578 5.29067 88.8751 5.248 89.0138 5.248C89.1631 5.248 89.2804 5.29067 89.3658 5.376C89.4511 5.46133 89.4938 5.57867 89.4938 5.728V6.56C89.8564 6.112 90.2991 5.76533 90.8218 5.52C91.3444 5.264 91.9151 5.136 92.5338 5.136Z" fill="#0F20E8"/>
<path fill-rule="evenodd" clip-rule="evenodd" d="M10.1764 1.52361C10.8746 2.22176 10.8745 3.35368 10.1764 4.05183L5.22108 9.00713L10.1746 13.9464C10.8737 14.6435 10.8754 15.7754 10.1782 16.4746C9.48109 17.1737 8.34917 17.1754 7.65001 16.4782L1.42876 10.2749C1.09269 9.93978 0.903663 9.48481 0.903321 9.01023C0.902979 8.53565 1.09135 8.08041 1.42693 7.74484L7.64819 1.52361C8.34634 0.825462 9.47826 0.825464 10.1764 1.52361Z" fill="#0F20E8"/>
<path fill-rule="evenodd" clip-rule="evenodd" d="M0.90332 9.0094C0.90332 8.02207 1.70371 7.22168 2.69104 7.22168H16.7246C17.712 7.22168 18.5123 8.02207 18.5123 9.0094C18.5123 9.99673 17.712 10.7971 16.7246 10.7971H2.69104C1.70371 10.7971 0.90332 9.99673 0.90332 9.0094Z" fill="#0F20E8"/>
</svg>
