<svg width="34" height="6" viewBox="0 0 34 6" fill="none" xmlns="http://www.w3.org/2000/svg">
<g clip-path="url(#clip0_18637_121125)">
<path d="M0.064383 4.6063C0.0515528 4.79689 0.256836 4.81277 0.442874 4.80748C0.622496 4.80748 0.699477 4.72807 0.699477 4.58513L0.696626 4.18277L0.699477 3.9816C0.699477 3.74336 0.821364 3.64277 1.11646 3.63748C1.39231 3.63218 1.66816 3.63748 2.00816 3.63748C2.36099 3.63218 2.77797 3.64277 3.19495 3.60042C3.46438 3.56866 3.6825 3.48395 3.84287 3.29866C4.00165 3.11204 3.99443 2.91351 3.97278 2.71647L3.96371 2.63776C3.95915 2.59848 3.95482 2.55933 3.95193 2.52042C3.93268 2.22924 3.56702 1.98571 3.20778 1.95395C2.81646 1.91689 2.42514 1.94336 2.03382 1.91689C1.4308 1.87454 0.834194 1.91689 0.237591 1.92748C0.141364 1.92748 0.0579679 1.95395 0.0515528 2.03866C0.0480537 2.08101 0.0430701 2.12354 0.0375659 2.16611L0.0204558 2.29386C0.00092131 2.44276 -0.0131813 2.59069 0.0194774 2.73219C0.0707981 2.97571 0.0323076 3.21395 0.0130623 3.4416C-0.0125981 3.83336 0.0772132 4.21983 0.064383 4.6063ZM2.92552 3.0763C2.44438 3.21924 1.37306 3.09219 1.02023 3.07101C0.827779 3.05513 0.699477 3.00748 0.699477 2.83277C0.705892 2.59983 0.802119 2.50983 1.05872 2.50454C1.66174 2.49924 2.26476 2.49924 2.86778 2.50454C2.99608 2.50454 3.11155 2.5416 3.1757 2.64748C3.24627 2.76924 3.21419 2.86983 3.11797 2.97042C3.07306 3.01807 3.00891 3.04983 2.92552 3.0763ZM8.66061 5.19924C9.74476 5.85042 10.9316 6.07277 12.2402 5.8663C12.4327 5.83983 12.5161 5.69689 12.4648 5.5063C12.4199 5.3316 12.2787 5.2416 12.0927 5.28924C11.804 5.36336 11.4961 5.36336 11.2074 5.35807C10.5466 5.34748 9.88589 5.22042 9.36627 4.8816C8.87231 4.55866 8.38476 4.20395 8.04476 3.74866C7.96136 3.63748 7.98702 3.57924 8.11533 3.51571C8.33985 3.39395 8.4874 3.23513 8.55797 3.01277C8.66061 2.69513 8.42967 2.23983 8.08325 2.07571C7.78816 1.93807 7.47382 1.96983 7.16589 1.93277C7.0547 1.91866 6.9435 1.92441 6.83231 1.93469L6.66551 1.9516C6.58212 1.95983 6.49872 1.9663 6.41533 1.96454C5.91495 1.95395 5.42099 1.93277 4.92061 1.95924C4.66401 1.97513 4.59985 2.07042 4.58702 2.27689C4.56778 2.63689 4.67684 2.99689 4.6191 3.35689C4.59344 3.49454 4.55495 3.64277 4.58702 3.78042C4.65118 4.02395 4.54853 4.26748 4.59344 4.51101C4.62551 4.71748 4.63193 4.79689 4.83721 4.81277C5.18363 4.83395 5.30552 4.76513 5.31193 4.54277C5.31835 4.35748 5.30552 4.17748 5.31835 3.99218C5.32476 3.75924 5.42099 3.67983 5.70325 3.67983H6.15872C6.3191 3.67983 6.48589 3.67454 6.65269 3.67983C6.81306 3.68513 6.96702 3.72218 7.0825 3.81748C7.24287 3.94983 7.40967 4.08218 7.5508 4.23042C7.8908 4.57454 8.20514 4.92924 8.66061 5.19924ZM7.68551 2.98101C7.46099 3.14513 7.19797 3.10277 6.94136 3.09748C6.62061 3.09748 6.30627 3.0816 5.98552 3.09219C5.81231 3.10277 5.64551 3.0763 5.47231 3.05513C5.33759 3.04454 5.29269 2.94924 5.31835 2.85395C5.32155 2.84071 5.32425 2.82727 5.32675 2.81375L5.33779 2.75295C5.35764 2.65244 5.39372 2.56013 5.58136 2.5363C5.94061 2.49924 6.30627 2.52042 6.66551 2.50454C6.85155 2.50454 7.04401 2.52042 7.23004 2.49924C7.44174 2.47807 7.58929 2.57336 7.74967 2.65277C7.87155 2.71101 7.82665 2.87513 7.68551 2.98101ZM12.1183 4.82866C12.561 4.85513 12.9844 4.7863 13.3885 4.65924C13.8825 4.51101 14.1968 4.21983 14.2931 3.76983C14.3508 3.51571 14.2738 3.27748 14.2866 3.03395C14.2995 2.80101 14.1648 2.61571 14.0044 2.4516C13.5104 1.95924 12.8176 1.87983 12.1055 1.9063C11.7976 1.91689 11.4833 1.94866 11.1753 1.97513C10.4312 2.03336 9.87306 2.45689 9.78967 3.06571C9.75759 3.29336 9.73835 3.5316 9.79608 3.75395C9.89872 4.12454 10.0976 4.44218 10.5787 4.61689C11.0791 4.80218 11.5987 4.80218 12.1183 4.82866ZM13.1319 4.05571C12.8112 4.25689 12.4455 4.26218 12.0863 4.2463C12.0601 4.24508 12.034 4.24402 12.0079 4.24304L11.8518 4.23778C11.592 4.2291 11.3342 4.21657 11.0727 4.13513C10.6108 3.9816 10.5531 3.67454 10.4953 3.43101C10.4761 2.95983 10.8225 2.60513 11.3678 2.55748C11.881 2.51513 12.3942 2.47277 12.8946 2.59983C13.164 2.66866 13.4206 2.80101 13.5361 3.00748C13.7414 3.38336 13.5425 3.8016 13.1319 4.05571Z" fill="#183077"/>
<path d="M17.1485 4.59C17.3987 4.83353 17.6039 4.82294 17.8862 4.61118C18.1043 4.44706 18.2198 4.23 18.3802 4.04471C18.7715 3.59471 19.1756 3.15529 19.5477 2.7L19.662 2.56053C20.1965 1.91136 20.7529 1.29141 21.639 0.915882C21.9983 0.757059 22.3768 0.682941 22.7681 0.608824C23.0696 0.555882 23.3647 0.577059 23.5892 0.608824C24.019 0.614118 24.0768 0.561176 24.0832 0.259412C24.0832 0.137647 23.8971 0 23.7239 0C23.2556 0.0105882 22.7873 0.0105882 22.319 0.0952941C21.5685 0.238235 20.9141 0.492353 20.3303 0.894706C19.6311 1.38176 19.182 2.04353 18.6688 2.65235C18.3353 3.04412 17.9632 3.41471 17.6681 3.82765C17.6296 3.88059 17.5462 3.92824 17.4692 3.86471C17.3858 3.79588 17.3088 3.72706 17.2383 3.64765C16.8213 3.19235 16.43 2.72118 16.0258 2.26059C15.8334 2.03824 15.6602 1.89 15.3202 1.89529C15.1983 1.89529 15.0828 1.85824 14.9994 1.95353C14.9096 2.04882 14.9737 2.13882 15.0379 2.22353C15.0764 2.27647 15.1341 2.32412 15.1854 2.37176C15.4549 2.63118 15.6217 2.95941 15.9681 3.16059C15.9873 3.17118 15.9873 3.19765 16.0002 3.21353C16.3337 3.70059 16.7187 4.15588 17.1485 4.59Z" fill="#8DFF14"/>
<path d="M22.6958 4.82886L22.935 4.8286C23.4803 4.8286 24.032 4.8286 24.5773 4.80743C24.7441 4.80213 24.8467 4.71743 24.8467 4.5639C24.8467 4.42096 24.8275 4.32037 24.6158 4.28331C24.3335 4.23037 24.0641 4.17213 23.7882 4.28331C23.7497 4.2939 23.692 4.28331 23.6471 4.27801C23.1339 4.23037 22.6143 4.20919 22.1011 4.27801C21.7996 4.32037 21.6135 4.19331 21.6264 3.96566C21.6328 3.75919 21.7354 3.69037 22.0369 3.69037C22.7041 3.68507 23.3713 3.69037 24.0384 3.68507C24.2886 3.68507 24.3207 3.62684 24.3271 3.35154C24.3335 3.17684 24.263 3.10272 24.0448 3.10801C23.3328 3.1239 22.6271 3.10272 21.9214 3.07625C21.6777 3.07096 21.6199 2.97566 21.6199 2.80625C21.6264 2.61037 21.7097 2.51507 21.9343 2.51507C22.7811 2.51507 23.6279 2.51507 24.4682 2.52566C24.7248 2.53096 24.8147 2.47272 24.8467 2.27154C24.8724 2.09154 24.7697 1.98566 24.5901 1.91154H22.6464C22.3692 1.97507 22.0875 1.97952 21.8053 1.97634L21.6171 1.97366C21.4917 1.97187 21.3663 1.97084 21.2414 1.97507C20.9848 1.98566 20.8501 2.07037 20.895 2.27154C20.931 2.44943 20.9166 2.62471 20.8959 2.79922L20.8777 2.94866L20.8694 3.02331C20.8624 3.11571 20.8732 3.20742 20.8876 3.29894L20.9102 3.43613C20.9284 3.55045 20.9411 3.66486 20.9207 3.78037C20.8694 4.05037 20.8501 4.30978 20.9207 4.58507C20.9656 4.75448 21.0426 4.8339 21.2607 4.82331C21.8188 4.80213 22.3769 4.8339 22.935 4.8286L22.6958 4.82886ZM28.156 4.83547L28.189 4.8339C28.4007 4.81801 28.4777 4.69096 28.4777 4.54801C28.4969 4.06096 28.4264 3.57919 28.5098 3.04978C28.4264 2.77449 28.4648 2.45684 28.4456 2.13919C28.4456 2.02272 28.3558 1.91684 28.2211 1.93272C28.0671 1.9539 27.7913 1.90096 27.7977 2.11801C27.8041 2.36154 27.7399 2.59449 27.7464 2.83801C27.7656 3.33566 27.8105 3.8386 27.7464 4.33625C27.7335 4.42096 27.7464 4.50566 27.7656 4.59037C27.8105 4.74919 27.9901 4.84978 28.189 4.8339L28.156 4.83547ZM31.2618 4.83919C31.7558 4.84448 32.2562 4.8286 32.7501 4.7439C33.2441 4.6539 33.5713 4.39448 33.7445 4.06096C33.9177 3.72213 33.9433 3.34625 33.8407 2.95978C33.7124 2.49919 33.3981 2.2186 32.8913 2.04919C32.6347 1.95919 32.346 2.01213 32.1022 1.90625H29.9211C29.5554 1.97507 29.5297 1.98566 29.5233 2.3086C29.5169 2.79566 29.4656 3.28272 29.5105 3.76978C29.5297 3.98684 29.5362 4.20919 29.4848 4.42625C29.4335 4.65919 29.5426 4.80213 29.7735 4.81272C30.2675 4.8286 30.7679 4.8286 31.2618 4.83919ZM30.8907 4.24426L30.7037 4.24096C30.2867 4.22507 30.2226 4.18272 30.2226 3.8386V2.78507C30.2226 2.59449 30.3509 2.50449 30.5818 2.52566C30.6396 2.53096 30.6909 2.52037 30.7422 2.52566C31.3131 2.55743 31.8841 2.45154 32.4486 2.58919C33.1222 2.7586 33.2313 3.17154 33.0901 3.66919C32.9939 3.99743 32.5064 4.25684 32.0188 4.23037C31.5762 4.20919 31.1399 4.25684 30.7037 4.24096L30.8907 4.24426Z" fill="#183077"/>
</g>
<defs>
<clipPath id="clip0_18637_121125">
<rect width="34" height="6" fill="white"/>
</clipPath>
</defs>
</svg>
