<svg width="203" height="120" viewBox="0 0 203 120" fill="none" xmlns="http://www.w3.org/2000/svg">
<path d="M36.7169 76.6491C43.4752 72.7472 43.4738 60.0924 36.7139 48.3838C29.9539 36.6752 18.9952 30.3466 12.2369 34.2485C5.47867 38.1504 5.48004 50.8052 12.24 62.5138C19 74.2224 29.9587 80.551 36.7169 76.6491Z" fill="#0B00DA"/>
<path d="M32.263 78.288C25.583 78.288 17.293 72.278 11.803 62.768C4.91296 50.838 4.99296 37.848 11.983 33.818C18.973 29.788 30.253 36.208 37.143 48.138C44.033 60.068 43.953 73.058 36.963 77.088C35.543 77.908 33.953 78.298 32.263 78.298V78.288ZM16.753 33.588C15.213 33.588 13.773 33.938 12.483 34.678C5.97296 38.438 6.05296 50.808 12.663 62.258C19.273 73.708 29.953 79.968 36.463 76.208C42.973 72.448 42.893 60.078 36.283 48.628C30.973 39.428 23.043 33.588 16.753 33.588Z" fill="#0B00DA"/>
<path d="M12.3242 34.2072C19.0942 30.4072 29.9842 36.7272 36.7142 48.3872C43.4742 60.0972 43.4742 72.7472 36.7142 76.6572L42.2342 73.4772C48.9942 69.5772 48.9942 56.9172 42.2342 45.2072C35.4742 33.4972 24.5142 27.1672 17.7542 31.0672C17.7242 31.0872 17.7042 31.1072 17.6742 31.1172L12.3242 34.2072Z" fill="#BCBEF1"/>
<path d="M36.7153 77.1474C36.5453 77.1474 36.3753 77.0574 36.2853 76.8974C36.1453 76.6574 36.2253 76.3574 36.4653 76.2174C42.9753 72.4574 42.8853 60.0874 36.2753 48.6374C29.7053 37.2674 19.0653 30.9874 12.5553 34.6474C12.3153 34.7774 12.0153 34.6974 11.8753 34.4574C11.7353 34.2174 11.8253 33.9174 12.0553 33.7774L17.4053 30.6874C24.4753 26.6074 35.7653 33.0274 42.6453 44.9574C45.9553 50.6974 47.7853 56.8474 47.7853 62.2674C47.7853 67.7974 45.8953 71.9274 42.4653 73.9074L36.9453 77.0874C36.8653 77.1374 36.7753 77.1574 36.6953 77.1574L36.7153 77.1474ZM16.6753 32.6174C23.3553 32.6174 31.6653 38.6374 37.1453 48.1374C42.8153 57.9574 43.7653 68.4974 40.0153 74.1674L41.9753 73.0374C45.0853 71.2474 46.7953 67.4174 46.7953 62.2674C46.7953 57.0174 45.0153 51.0474 41.7953 45.4574C35.1853 34.0074 24.5053 27.7474 17.9953 31.5074L16.0253 32.6474C16.2353 32.6374 16.4553 32.6274 16.6753 32.6274V32.6174Z" fill="#0B00DA"/>
<path d="M41.7137 68.5081C41.5437 68.5081 41.3737 68.4181 41.2837 68.2581C41.1437 68.0181 41.2237 67.7181 41.4637 67.5781L46.7637 64.5181C47.0037 64.3781 47.3037 64.4581 47.4437 64.6981C47.5837 64.9381 47.5037 65.2381 47.2637 65.3781L41.9637 68.4381C41.8837 68.4881 41.7937 68.5081 41.7137 68.5081Z" fill="#0B00DA"/>
<path d="M41.7723 63.9575C41.6023 63.9575 41.4323 63.8675 41.3423 63.7075C41.2023 63.4675 41.2823 63.1675 41.5223 63.0275L46.9023 59.9175C47.1423 59.7775 47.4423 59.8575 47.5823 60.0975C47.7223 60.3375 47.6423 60.6375 47.4023 60.7775L42.0223 63.8875C41.9423 63.9375 41.8523 63.9575 41.7723 63.9575Z" fill="#0B00DA"/>
<path d="M41.0848 59.2183C40.9148 59.2183 40.7448 59.1283 40.6548 58.9683C40.5148 58.7283 40.5948 58.4283 40.8348 58.2883L46.1648 55.2183C46.4048 55.0783 46.7048 55.1583 46.8448 55.3983C46.9848 55.6383 46.9048 55.9383 46.6648 56.0783L41.3348 59.1483C41.2548 59.1983 41.1648 59.2183 41.0848 59.2183Z" fill="#0B00DA"/>
<path d="M39.6942 54.8777C39.5242 54.8777 39.3542 54.7877 39.2642 54.6277C39.1242 54.3877 39.2042 54.0877 39.4442 53.9477L44.8442 50.8277C45.0842 50.6877 45.3842 50.7677 45.5242 51.0077C45.6642 51.2477 45.5842 51.5477 45.3442 51.6877L39.9442 54.8077C39.8642 54.8577 39.7742 54.8777 39.6942 54.8777Z" fill="#0B00DA"/>
<path d="M37.8231 50.8178C37.6531 50.8178 37.4831 50.7278 37.3931 50.5678C37.2531 50.3278 37.3331 50.0278 37.5731 49.8878L43.0231 46.7378C43.2631 46.5978 43.5631 46.6778 43.7031 46.9178C43.8431 47.1578 43.7631 47.4578 43.5231 47.5978L38.0731 50.7478C37.9931 50.7978 37.9031 50.8178 37.8231 50.8178Z" fill="#0B00DA"/>
<path d="M35.6044 46.9577C35.4344 46.9577 35.2644 46.8677 35.1744 46.7077C35.0344 46.4677 35.1144 46.1677 35.3544 46.0277L40.8244 42.8677C41.0644 42.7277 41.3644 42.8077 41.5044 43.0477C41.6444 43.2877 41.5644 43.5877 41.3244 43.7277L35.8544 46.8877C35.7744 46.9377 35.6844 46.9577 35.6044 46.9577Z" fill="#0B00DA"/>
<path d="M33.1239 43.2483C32.9539 43.2483 32.7839 43.1583 32.6939 42.9983C32.5539 42.7583 32.6339 42.4583 32.8739 42.3183L38.1839 39.2583C38.4239 39.1183 38.7239 39.1983 38.8639 39.4383C39.0039 39.6783 38.9239 39.9783 38.6839 40.1183L33.3739 43.1783C33.2939 43.2283 33.2039 43.2483 33.1239 43.2483Z" fill="#0B00DA"/>
<path d="M29.8739 39.988C29.7039 39.988 29.5339 39.898 29.4439 39.738C29.3039 39.498 29.3839 39.198 29.6239 39.058L35.0239 35.938C35.2639 35.798 35.5739 35.878 35.7039 36.118C35.8439 36.358 35.7639 36.658 35.5239 36.798L30.1239 39.918C30.0439 39.968 29.9539 39.988 29.8739 39.988Z" fill="#0B00DA"/>
<path d="M26.1942 36.9683C26.0242 36.9683 25.8542 36.8783 25.7642 36.7183C25.6242 36.4783 25.7042 36.1783 25.9442 36.0383L31.3242 32.9283C31.5642 32.7883 31.8642 32.8683 32.0042 33.1083C32.1442 33.3483 32.0642 33.6483 31.8242 33.7883L26.4442 36.8983C26.3642 36.9483 26.2742 36.9683 26.1942 36.9683Z" fill="#0B00DA"/>
<path d="M22.3036 34.7083C22.1336 34.7083 21.9636 34.6183 21.8736 34.4583C21.7336 34.2183 21.8136 33.9183 22.0536 33.7783L27.3536 30.7183C27.5936 30.5783 27.8936 30.6583 28.0336 30.8983C28.1736 31.1383 28.0936 31.4383 27.8536 31.5783L22.5536 34.6383C22.4736 34.6883 22.3836 34.7083 22.3036 34.7083Z" fill="#0B00DA"/>
<path d="M17.8739 33.5579C17.7039 33.5579 17.5339 33.4679 17.4439 33.3079C17.3039 33.0679 17.3839 32.7679 17.6239 32.6279L22.9239 29.5679C23.1639 29.4279 23.4639 29.5079 23.6039 29.7479C23.7439 29.9879 23.6639 30.2879 23.4239 30.4279L18.1239 33.4879C18.0439 33.5379 17.9539 33.5579 17.8739 33.5579Z" fill="#0B00DA"/>
<path d="M40.6044 72.7376C40.4344 72.7376 40.2644 72.6476 40.1744 72.4876C40.0344 72.2476 40.1144 71.9476 40.3544 71.8076L45.6544 68.7476C45.8944 68.6076 46.1944 68.6876 46.3344 68.9276C46.4744 69.1676 46.3944 69.4676 46.1544 69.6076L40.8544 72.6676C40.7744 72.7176 40.6844 72.7376 40.6044 72.7376Z" fill="#0B00DA"/>
<path d="M35.1132 73.869C40.9723 70.4863 40.9605 59.497 35.087 49.3237C29.2134 39.1504 19.7023 33.6456 13.8432 37.0283C7.9841 40.4111 7.99583 51.4004 13.8694 61.5737C19.7429 71.747 29.2541 77.2518 35.1132 73.869Z" fill="#0B00DA"/>
<path d="M31.2646 75.348C25.4446 75.348 18.2246 70.108 13.4346 61.818C7.43463 51.428 7.50463 40.108 13.5946 36.588C16.5946 34.858 20.5446 35.238 24.7146 37.648C28.8046 40.008 32.6446 44.068 35.5246 49.058C38.4046 54.048 39.9946 59.408 40.0046 64.128C40.0046 68.948 38.3646 72.558 35.3646 74.288C34.1346 74.998 32.7446 75.338 31.2646 75.338V75.348ZM14.0946 37.468C8.48463 40.708 8.57463 51.408 14.3046 61.328C20.0346 71.248 29.2546 76.678 34.8646 73.438C37.5346 71.898 39.0046 68.598 39.0046 64.148C39.0046 59.598 37.4546 54.428 34.6646 49.578C31.8646 44.728 28.1546 40.808 24.2146 38.528C20.3646 36.298 16.7746 35.918 14.0946 37.468Z" fill="white"/>
<path d="M13.7344 48.9675C13.6844 46.6075 14.1144 44.7575 15.0044 43.4075C15.8944 42.0575 17.1544 41.3375 18.7644 41.2475C20.3844 41.1575 22.2044 41.7275 24.2444 42.9575C26.2844 44.1875 28.1244 45.8275 29.7744 47.8875C31.4244 49.9475 32.7244 52.2075 33.6944 54.6775C34.6644 57.1475 35.1644 59.5675 35.2144 61.9175C35.2644 64.2975 34.8344 66.1575 33.9444 67.4975C33.0544 68.8375 31.8044 69.5475 30.1944 69.6475C28.5844 69.7375 26.7644 69.1775 24.7244 67.9475C22.6844 66.7175 20.8344 65.0775 19.1844 63.0075C17.5344 60.9475 16.2144 58.6875 15.2544 56.2275C14.2844 53.7675 13.7844 51.3475 13.7344 48.9675Z" fill="#0B00DA"/>
<path d="M29.8541 70.1577C28.2441 70.1577 26.4341 69.5576 24.4641 68.3776C22.3841 67.1276 20.4741 65.4277 18.7941 63.3277C17.1141 61.2377 15.7641 58.9077 14.7841 56.4177C13.8041 53.9177 13.2841 51.4177 13.2341 48.9877C13.1841 46.5377 13.6441 44.5677 14.5941 43.1377C15.5741 41.6577 16.9741 40.8577 18.7441 40.7577C20.4441 40.6577 22.3941 41.2677 24.5141 42.5377C26.5941 43.7877 28.4941 45.4877 30.1741 47.5777C31.8441 49.6677 33.1941 51.9877 34.1741 54.4977C35.1541 57.0177 35.6741 59.5077 35.7241 61.9177C35.7741 64.3876 35.3141 66.3577 34.3641 67.7777C33.3841 69.2477 31.9941 70.0477 30.2241 70.1477C30.1041 70.1477 29.9841 70.1577 29.8541 70.1577ZM14.2341 48.9577C14.2741 51.2677 14.7741 53.6477 15.7141 56.0477C16.6541 58.4477 17.9541 60.6877 19.5741 62.6977C21.1841 64.7077 23.0041 66.3276 24.9841 67.5176C26.9241 68.6876 28.6741 69.2377 30.1641 69.1477C31.6241 69.0577 32.7141 68.4277 33.5241 67.2177C34.3541 65.9677 34.7541 64.1877 34.7141 61.9277C34.6741 59.6377 34.1741 57.2577 33.2341 54.8577C32.2941 52.4477 30.9941 50.2077 29.3941 48.1977C27.7941 46.1977 25.9741 44.5777 24.0041 43.3877C22.0641 42.2177 20.3141 41.6677 18.8041 41.7477C17.3441 41.8277 16.2441 42.4577 15.4341 43.6777C14.6041 44.9377 14.2041 46.7077 14.2441 48.9577H14.2341Z" fill="#BCBEF1"/>
<path d="M27.8364 57.7778C27.4764 57.7778 27.0864 57.6678 26.7064 57.4478L20.0664 53.6078C19.9164 53.5178 19.8164 53.3578 19.8164 53.1778V47.2778C19.8164 47.0978 19.9164 46.9378 20.0664 46.8478C20.2164 46.7578 20.4164 46.7578 20.5664 46.8478L27.2064 50.6878C28.5864 51.4878 29.6664 53.5378 29.6664 55.3478C29.6664 56.3878 29.2964 57.1978 28.6464 57.5678C28.3964 57.7178 28.1164 57.7878 27.8264 57.7878L27.8364 57.7778ZM20.8064 52.8878L27.1964 56.5778C27.4564 56.7278 27.8364 56.8678 28.1464 56.6978C28.4664 56.5078 28.6664 56.0078 28.6664 55.3378C28.6664 53.8978 27.7664 52.1578 26.7064 51.5378L20.8164 48.1378V52.8878H20.8064Z" fill="white"/>
<path d="M27.8364 63.6782C27.4764 63.6782 27.0864 63.5682 26.7064 63.3482L20.0664 59.5082C19.9164 59.4182 19.8164 59.2582 19.8164 59.0782V53.1782C19.8164 52.9982 19.9164 52.8382 20.0664 52.7482C20.2164 52.6582 20.4164 52.6582 20.5664 52.7482L27.2064 56.5882C28.5864 57.3882 29.6664 59.4382 29.6664 61.2482C29.6664 62.2882 29.2964 63.0982 28.6464 63.4682C28.3964 63.6182 28.1164 63.6882 27.8264 63.6882L27.8364 63.6782ZM20.8064 58.7882L27.1964 62.4782C27.4564 62.6282 27.8364 62.7682 28.1464 62.5982C28.4664 62.4082 28.6664 61.9082 28.6664 61.2382C28.6664 59.7982 27.7664 58.0582 26.7064 57.4382L20.8164 54.0382V58.7882H20.8064Z" fill="white"/>
<path d="M21.7773 48.6079C21.4973 48.6079 21.2773 48.3879 21.2773 48.1079V46.5479C21.2773 46.2679 21.4973 46.0479 21.7773 46.0479C22.0573 46.0479 22.2773 46.2679 22.2773 46.5479V48.1079C22.2773 48.3879 22.0573 48.6079 21.7773 48.6079Z" fill="white"/>
<path d="M25.2266 50.5981C24.9466 50.5981 24.7266 50.3781 24.7266 50.0981V48.5381C24.7266 48.2581 24.9466 48.0381 25.2266 48.0381C25.5066 48.0381 25.7266 48.2581 25.7266 48.5381V50.0981C25.7266 50.3781 25.5066 50.5981 25.2266 50.5981Z" fill="white"/>
<path d="M21.7773 61.978C21.4973 61.978 21.2773 61.758 21.2773 61.478V59.918C21.2773 59.638 21.4973 59.418 21.7773 59.418C22.0573 59.418 22.2773 59.638 22.2773 59.918V61.478C22.2773 61.758 22.0573 61.978 21.7773 61.978Z" fill="white"/>
<path d="M25.2266 63.978C24.9466 63.978 24.7266 63.758 24.7266 63.478V61.918C24.7266 61.638 24.9466 61.418 25.2266 61.418C25.5066 61.418 25.7266 61.638 25.7266 61.918V63.478C25.7266 63.758 25.5066 63.978 25.2266 63.978Z" fill="white"/>
<path d="M156.492 93.3377V4.7577C156.492 2.6877 158.732 1.3877 160.532 2.4277L195.562 22.6477C197.332 23.6677 198.422 25.5577 198.422 27.5977V116.918C198.422 118.778 196.412 119.938 194.792 119.008L159.572 98.6777C157.662 97.5777 156.492 95.5377 156.492 93.3377Z" fill="white"/>
<path d="M196.002 119.837C195.502 119.837 195.002 119.707 194.542 119.438L159.322 99.1075C157.262 97.9175 155.992 95.7075 155.992 93.3375V4.7575C155.992 3.6075 156.592 2.5675 157.592 1.9975C158.592 1.4175 159.782 1.4175 160.782 1.9975L195.812 22.2175C197.732 23.3275 198.922 25.3875 198.922 27.5975V116.917C198.922 117.977 198.382 118.917 197.462 119.447C197.002 119.707 196.502 119.847 196.002 119.847V119.837ZM159.182 2.5575C158.802 2.5575 158.432 2.6575 158.082 2.8575C157.392 3.2575 156.982 3.9675 156.982 4.7575V93.3475C156.982 95.3675 158.072 97.2475 159.812 98.2475L195.032 118.577C195.632 118.927 196.352 118.927 196.952 118.577C197.552 118.228 197.912 117.607 197.912 116.917V27.5975C197.912 25.7375 196.912 24.0075 195.302 23.0775L160.282 2.8575C159.942 2.6575 159.562 2.5575 159.182 2.5575Z" fill="#0B00DA"/>
<path d="M157.443 3.17764C157.443 3.17764 157.353 3.17764 157.303 3.15764C157.143 3.10764 156.993 2.99764 156.953 2.82764C156.903 2.63764 156.973 2.42764 157.133 2.30764L157.193 2.25764C157.413 2.08764 157.723 2.12764 157.893 2.34764C158.063 2.56764 158.023 2.87764 157.813 3.04764C157.713 3.12764 157.583 3.16764 157.453 3.16764L157.443 3.17764Z" fill="#0B00DA"/>
<path d="M197.003 119.608C196.953 119.608 196.903 119.608 196.853 119.588C196.713 119.538 196.583 119.448 196.533 119.318C196.433 119.068 196.543 118.788 196.783 118.678C197.023 118.558 197.333 118.638 197.463 118.878C197.593 119.118 197.523 119.408 197.283 119.548C197.203 119.598 197.103 119.618 197.003 119.618V119.608Z" fill="#0B00DA"/>
<path d="M197.945 25.3085C197.945 25.3085 197.915 25.2285 197.895 25.1885C197.915 25.2285 197.935 25.2685 197.945 25.3085Z" fill="#BCBEF1"/>
<path d="M197.945 25.8081C197.755 25.8081 197.565 25.6981 197.485 25.5081L197.435 25.3981C197.405 25.3281 197.395 25.2581 197.395 25.1881C197.395 24.9981 197.505 24.8181 197.685 24.7281C197.935 24.6181 198.235 24.7281 198.345 24.9781L198.405 25.1081C198.435 25.1681 198.445 25.2381 198.445 25.3081C198.445 25.4981 198.335 25.6881 198.145 25.7681C198.085 25.7981 198.015 25.8081 197.945 25.8081Z" fill="#0B00DA"/>
<path d="M197.742 24.8975C197.742 24.8975 197.772 24.9575 197.792 24.9875C197.772 24.9575 197.762 24.9275 197.742 24.8975Z" fill="#BCBEF1"/>
<path d="M197.354 25.2177C197.224 24.9777 197.294 24.6277 197.534 24.4977C197.774 24.3677 198.054 24.4177 198.184 24.6577L197.744 24.8977L198.203 24.6877L198.144 24.7277L198.203 24.6977L197.784 24.9777L197.343 25.2177H197.354Z" fill="#0B00DA"/>
<path d="M198.195 25.9881C198.175 25.9381 198.165 25.8781 198.145 25.8281C198.165 25.8781 198.175 25.9381 198.195 25.9881Z" fill="#BCBEF1"/>
<path d="M198.195 26.4883C197.975 26.4883 197.775 26.3483 197.715 26.1283L197.675 25.9883C197.655 25.9383 197.645 25.8783 197.645 25.8283C197.645 25.6183 197.775 25.4283 197.985 25.3583C198.245 25.2683 198.525 25.4083 198.615 25.6783L198.665 25.8583C198.665 25.8583 198.685 25.9483 198.685 25.9983C198.685 26.2183 198.545 26.4183 198.325 26.4783C198.275 26.4883 198.235 26.4983 198.185 26.4983L198.195 26.4883Z" fill="#0B00DA"/>
<path d="M198.085 25.6478C198.085 25.6478 198.055 25.5578 198.035 25.5078C198.055 25.5578 198.075 25.5978 198.085 25.6478Z" fill="#BCBEF1"/>
<path d="M198.085 26.1476C197.875 26.1476 197.685 26.0176 197.615 25.8176L197.565 25.6876C197.545 25.6276 197.535 25.5676 197.535 25.5076C197.535 25.3076 197.655 25.1176 197.855 25.0376C198.115 24.9376 198.405 25.0676 198.505 25.3276L198.565 25.4776C198.585 25.5376 198.595 25.5876 198.595 25.6476C198.595 25.8576 198.465 26.0476 198.265 26.1176C198.205 26.1376 198.155 26.1476 198.095 26.1476H198.085Z" fill="#0B00DA"/>
<path d="M198.424 27.5975C198.424 27.4775 198.424 27.3575 198.414 27.2275C198.414 27.3475 198.424 27.4675 198.424 27.5975Z" fill="#BCBEF1"/>
<path d="M198.424 28.0977C198.144 28.0977 197.924 27.8777 197.924 27.5977C197.924 27.4877 197.924 27.3777 197.914 27.2677C197.914 27.2577 197.914 27.2477 197.914 27.2377C197.914 26.9777 198.114 26.7577 198.384 26.7377C198.624 26.7277 198.894 26.9277 198.914 27.2077C198.914 27.3377 198.924 27.4677 198.924 27.6077C198.924 27.8877 198.704 28.1077 198.424 28.1077V28.0977Z" fill="#0B00DA"/>
<path d="M197.624 24.6679C197.624 24.6679 197.604 24.6379 197.594 24.6279C197.594 24.6379 197.614 24.6579 197.624 24.6679Z" fill="#BCBEF1"/>
<path d="M197.184 24.9179L197.244 24.8779L197.184 24.9179L197.244 24.8779L197.184 24.9179L198.024 24.3779L197.184 24.9179Z" fill="#0B00DA"/>
<path d="M196.004 22.9282V22.8982L199.274 20.9982C199.924 21.4582 200.464 22.0382 200.874 22.6982C200.384 21.8982 199.694 21.2082 198.854 20.7182L165.364 1.31822C163.244 0.088222 160.594 0.268222 158.654 1.76822L157.594 2.58822C158.404 1.99822 159.534 1.85822 160.524 2.42822L195.554 22.6482C195.704 22.7382 195.844 22.8282 195.994 22.9282H196.004Z" fill="#BCBEF1"/>
<path d="M195.983 23.4179C195.893 23.4179 195.793 23.3879 195.713 23.3279C195.583 23.2379 195.453 23.1479 195.313 23.0679L160.283 2.8579C159.523 2.4179 158.613 2.4679 157.893 2.9879C157.673 3.1479 157.363 3.1079 157.203 2.8879C157.043 2.6679 157.083 2.3579 157.293 2.1879L158.353 1.3679C160.463 -0.262096 163.313 -0.452096 165.613 0.887904L199.093 20.2979C199.623 20.5979 200.103 20.9879 200.523 21.4279C200.693 21.6079 200.853 21.8079 201.003 22.0079C201.103 22.1479 201.203 22.2879 201.293 22.4379C201.433 22.6779 201.363 22.9779 201.123 23.1279C200.893 23.2679 200.583 23.1979 200.433 22.9579C200.113 22.4279 199.703 21.9779 199.233 21.5979L196.333 23.2679C196.333 23.2679 196.333 23.2679 196.323 23.2779C196.223 23.3679 196.103 23.4079 195.983 23.4079V23.4179ZM159.803 1.6179C160.133 1.6879 160.463 1.8079 160.783 1.9879L195.813 22.2079C195.873 22.2379 195.933 22.2779 195.993 22.3179L198.293 20.9879L165.113 1.7479C163.453 0.787904 161.463 0.757904 159.803 1.6179Z" fill="#0B00DA"/>
<path d="M198.282 26.348C198.272 26.288 198.252 26.228 198.242 26.168C198.262 26.228 198.272 26.288 198.282 26.348Z" fill="#BCBEF1"/>
<path d="M198.282 26.8479C198.052 26.8479 197.852 26.6879 197.792 26.4579L197.752 26.2879C197.752 26.2879 197.742 26.2079 197.742 26.1679C197.742 25.9479 197.892 25.7379 198.122 25.6779C198.392 25.6079 198.662 25.7779 198.732 26.0479L198.772 26.2379C198.772 26.2379 198.782 26.3079 198.782 26.3479C198.782 26.5779 198.622 26.7779 198.392 26.8379C198.352 26.8379 198.312 26.8479 198.282 26.8479Z" fill="#0B00DA"/>
<path d="M198.424 27.5977V116.918C198.424 117.788 197.984 118.498 197.344 118.928L199.614 117.638C200.904 116.908 201.704 115.538 201.704 114.058V25.6777L198.424 27.5877V27.5977Z" fill="#BCBEF1"/>
<path d="M197.345 119.418C197.175 119.418 197.015 119.338 196.915 119.178C196.775 118.948 196.835 118.648 197.065 118.498C197.605 118.138 197.915 117.558 197.915 116.908V27.5979C197.915 27.4179 198.005 27.2579 198.165 27.1679L201.445 25.2579C201.605 25.1679 201.795 25.1679 201.945 25.2579C202.095 25.3479 202.195 25.5079 202.195 25.6879V114.048C202.195 115.708 201.295 117.248 199.855 118.068L197.585 119.358C197.505 119.398 197.425 119.418 197.335 119.418H197.345ZM198.925 27.8779V116.918C198.925 117.108 198.905 117.298 198.875 117.488L199.375 117.208C200.505 116.568 201.205 115.358 201.205 114.058V26.5479L198.925 27.8779Z" fill="#0B00DA"/>
<path d="M201.523 24.2571C201.503 24.1971 201.493 24.1371 201.473 24.0771C201.493 24.1371 201.503 24.1971 201.523 24.2571Z" fill="#BCBEF1"/>
<path d="M201.524 24.7574C201.304 24.7574 201.094 24.6074 201.044 24.3874L201.004 24.2274C201.004 24.2274 200.984 24.1274 200.984 24.0874C200.984 23.8674 201.124 23.6774 201.344 23.6074C201.614 23.5274 201.884 23.6774 201.964 23.9474L202.014 24.1374C202.014 24.1374 202.034 24.2174 202.034 24.2674C202.034 24.4874 201.884 24.6874 201.664 24.7474C201.624 24.7574 201.584 24.7674 201.534 24.7674L201.524 24.7574Z" fill="#0B00DA"/>
<path d="M201.653 24.9576C201.653 24.9076 201.633 24.8576 201.633 24.8076C201.633 24.8576 201.653 24.9076 201.653 24.9576Z" fill="#BCBEF1"/>
<path d="M201.652 25.4575C201.402 25.4575 201.182 25.2675 201.152 25.0175V24.9375L201.622 24.8075L202.112 24.7275L202.142 24.8975C202.142 24.8975 202.142 24.9375 202.142 24.9575C202.142 25.2075 201.952 25.4275 201.702 25.4575C201.682 25.4575 201.662 25.4575 201.642 25.4575H201.652Z" fill="#0B00DA"/>
<path d="M198.35 26.7176C198.34 26.6476 198.33 26.5876 198.32 26.5176C198.33 26.5876 198.34 26.6476 198.35 26.7176Z" fill="#BCBEF1"/>
<path d="M198.352 27.2179C198.112 27.2179 197.892 27.0379 197.862 26.7879L197.832 26.6079C197.832 26.6079 197.832 26.5479 197.832 26.5179C197.832 26.2879 198.002 26.0779 198.242 26.0279C198.502 25.9779 198.772 26.1579 198.822 26.4279C198.832 26.4979 198.852 26.5779 198.862 26.6479C198.862 26.6679 198.862 26.6979 198.862 26.7179C198.862 26.9579 198.682 27.1779 198.432 27.2079C198.412 27.2079 198.382 27.2079 198.362 27.2079L198.352 27.2179Z" fill="#0B00DA"/>
<path d="M201.694 25.3175C201.694 25.3175 201.694 25.2375 201.684 25.1875C201.684 25.2275 201.684 25.2675 201.694 25.3175Z" fill="#BCBEF1"/>
<path d="M201.695 25.8177C201.435 25.8177 201.215 25.6177 201.195 25.3477L201.695 25.3177L201.195 25.2777L202.185 25.1377C202.185 25.1377 202.195 25.2677 202.195 25.2777C202.195 25.2877 202.195 25.2977 202.195 25.3177C202.195 25.5777 201.995 25.7977 201.725 25.8177C201.715 25.8177 201.705 25.8177 201.685 25.8177H201.695Z" fill="#0B00DA"/>
<path d="M201.423 23.9175C201.403 23.8575 201.383 23.7875 201.363 23.7275C201.383 23.7875 201.403 23.8475 201.423 23.9175Z" fill="#BCBEF1"/>
<path d="M201.422 24.4179C201.212 24.4179 201.012 24.2879 200.942 24.0679L200.882 23.8979C200.862 23.8379 200.852 23.7879 200.852 23.7279C200.852 23.5279 200.982 23.3279 201.182 23.2579C201.442 23.1679 201.732 23.2979 201.822 23.5579L201.892 23.7579C201.912 23.8079 201.912 23.8579 201.912 23.9079C201.912 24.1179 201.782 24.3179 201.572 24.3879C201.522 24.4079 201.472 24.4079 201.412 24.4079L201.422 24.4179Z" fill="#0B00DA"/>
<path d="M201.603 24.5987C201.593 24.5387 201.582 24.4887 201.562 24.4287C201.572 24.4887 201.593 24.5387 201.603 24.5987Z" fill="#BCBEF1"/>
<path d="M201.602 25.0984C201.372 25.0984 201.162 24.9284 201.112 24.6884L201.082 24.5484L202.052 24.3184L202.092 24.4984C202.092 24.4984 202.092 24.5584 202.092 24.5884C202.092 24.8284 201.922 25.0284 201.682 25.0784C201.652 25.0784 201.622 25.0784 201.592 25.0784L201.602 25.0984Z" fill="#0B00DA"/>
<path d="M201.021 22.9778C200.981 22.8978 200.941 22.8278 200.891 22.7578C200.931 22.8278 200.981 22.9078 201.021 22.9778Z" fill="#BCBEF1"/>
<path d="M201.022 23.4777C200.842 23.4777 200.672 23.3777 200.582 23.2077C200.542 23.1377 200.512 23.0677 200.472 23.0077C200.422 22.9277 200.402 22.8377 200.402 22.7477C200.402 22.5777 200.492 22.4077 200.642 22.3177C200.872 22.1777 201.182 22.2477 201.332 22.4877C201.382 22.5677 201.422 22.6477 201.472 22.7377C201.512 22.8077 201.532 22.8877 201.532 22.9677C201.532 23.1477 201.432 23.3177 201.262 23.4077C201.192 23.4477 201.112 23.4677 201.032 23.4677L201.022 23.4777Z" fill="#0B00DA"/>
<path d="M198.403 27.1082C198.403 27.0282 198.393 26.9482 198.383 26.8682C198.393 26.9482 198.403 27.0282 198.403 27.1082Z" fill="#BCBEF1"/>
<path d="M198.403 27.6083C198.143 27.6083 197.933 27.4183 197.903 27.1483L197.883 26.9283C197.883 26.9283 197.883 26.8883 197.883 26.8683C197.883 26.6183 198.063 26.4083 198.323 26.3683C198.583 26.3383 198.843 26.5283 198.883 26.7983L198.913 27.0483C198.913 27.0483 198.913 27.0783 198.913 27.0883C198.913 27.3483 198.713 27.5683 198.453 27.5883C198.443 27.5883 198.423 27.5883 198.413 27.5883L198.403 27.6083Z" fill="#0B00DA"/>
<path d="M201.303 23.5877C201.273 23.5177 201.253 23.4577 201.223 23.3877C201.253 23.4577 201.283 23.5177 201.303 23.5877Z" fill="#BCBEF1"/>
<path d="M201.304 24.0876C201.104 24.0876 200.914 23.9676 200.844 23.7676L200.774 23.5876C200.744 23.5176 200.734 23.4476 200.734 23.3776C200.734 23.1876 200.844 23.0076 201.024 22.9176C201.274 22.8076 201.574 22.9176 201.684 23.1676C201.714 23.2376 201.744 23.3176 201.774 23.3876C201.794 23.4476 201.814 23.5076 201.814 23.5676C201.814 23.7676 201.694 23.9576 201.494 24.0276C201.434 24.0476 201.374 24.0676 201.314 24.0676L201.304 24.0876Z" fill="#0B00DA"/>
<path d="M201.17 23.2784C201.14 23.2084 201.1 23.1384 201.07 23.0684C201.11 23.1384 201.14 23.2084 201.17 23.2784Z" fill="#BCBEF1"/>
<path d="M201.172 23.7781C200.982 23.7781 200.802 23.6681 200.722 23.4881L200.632 23.2981C200.592 23.2281 200.582 23.1481 200.582 23.0681C200.582 22.8881 200.682 22.7081 200.852 22.6181C201.102 22.4981 201.402 22.5881 201.522 22.8381L201.632 23.0681C201.662 23.1381 201.682 23.2081 201.682 23.2781C201.682 23.4681 201.572 23.6481 201.392 23.7281C201.322 23.7581 201.252 23.7781 201.182 23.7781H201.172Z" fill="#0B00DA"/>
<path d="M199.276 21.0078L195.996 22.9078V22.9378C197.516 23.9978 198.436 25.7378 198.436 27.6078L201.716 25.6978C201.716 23.8278 200.796 22.0878 199.286 21.0178L199.276 21.0078Z" fill="white"/>
<path d="M198.424 28.0982C198.334 28.0982 198.254 28.0782 198.174 28.0282C198.014 27.9382 197.924 27.7782 197.924 27.5982C197.924 25.9082 197.094 24.3182 195.714 23.3382C195.654 23.2982 195.594 23.2382 195.564 23.1682C195.434 22.9282 195.504 22.6082 195.744 22.4682L199.024 20.5682C199.194 20.4682 199.404 20.4782 199.564 20.5882C201.224 21.7482 202.214 23.6482 202.214 25.6782C202.214 25.8582 202.124 26.0182 201.964 26.1082L198.684 28.0182C198.604 28.0682 198.514 28.0882 198.434 28.0882L198.424 28.0982ZM196.864 22.9782C197.964 23.9582 198.674 25.3082 198.874 26.7682L201.204 25.4082C201.124 23.9282 200.404 22.5382 199.244 21.6082L196.874 22.9782H196.864Z" fill="#0B00DA"/>
<path d="M156.723 93.9777V3.62767C156.723 2.41767 158.063 1.66767 159.143 2.26767L195.363 22.6077C197.113 23.5877 198.193 25.4077 198.193 27.3677V117.968C198.193 118.968 197.083 119.598 196.193 119.098L159.363 98.4077C157.733 97.4977 156.733 95.8077 156.733 93.9777H156.723Z" fill="#0F11D1"/>
<path d="M184.295 22.248C183.905 22.248 183.515 22.138 183.165 21.938L170.075 14.378C168.925 13.718 168.215 12.478 168.215 11.158V7.74805C168.215 7.56805 168.315 7.40805 168.465 7.31805C168.545 7.27805 168.625 7.24805 168.715 7.24805C168.805 7.24805 168.885 7.26805 168.965 7.31805L186.305 17.398C186.455 17.488 186.555 17.648 186.555 17.828V19.968C186.555 20.588 186.305 21.168 185.865 21.598C185.445 21.998 184.865 22.238 184.295 22.238V22.248Z" fill="#BCBEF1"/>
<path d="M168.713 7.75805L186.053 17.838V19.978C186.053 21.008 185.213 21.748 184.283 21.748C183.993 21.748 183.693 21.678 183.403 21.508L170.313 13.948C169.313 13.378 168.703 12.308 168.703 11.158V7.74805M168.703 6.74805C168.533 6.74805 168.363 6.78805 168.203 6.87805C167.893 7.05805 167.703 7.38805 167.703 7.74805V11.158C167.703 12.658 168.513 14.058 169.813 14.808L182.903 22.368C183.323 22.608 183.803 22.738 184.283 22.738C185.803 22.738 187.053 21.498 187.053 19.968V17.828C187.053 17.468 186.863 17.138 186.553 16.968L169.213 6.88805C169.053 6.79805 168.883 6.74805 168.713 6.74805H168.703Z" fill="#0B00DA"/>
<path d="M181.812 18.7681C181.732 18.7681 181.642 18.7481 181.562 18.6981L172.702 13.5881C172.462 13.4481 172.382 13.1481 172.522 12.9081C172.662 12.6681 172.972 12.5881 173.202 12.7281L182.062 17.8381C182.302 17.9781 182.382 18.2781 182.242 18.5181C182.152 18.6781 181.982 18.7681 181.812 18.7681Z" fill="#0B00DA"/>
<path d="M105.365 11.6183C105.115 11.6183 104.855 11.5183 104.665 11.3283L100.495 7.20829C100.105 6.81829 100.095 6.18829 100.495 5.79829L104.615 1.62829C105.005 1.23829 105.635 1.22829 106.025 1.62829C106.415 2.01829 106.425 2.64829 106.025 3.03829L102.615 6.49829L106.075 9.90829C106.465 10.2983 106.475 10.9283 106.075 11.3183C105.875 11.5183 105.625 11.6183 105.365 11.6183Z" fill="#0F20DF"/>
<path d="M136.494 108.038C136.304 108.038 136.114 107.988 135.944 107.878C135.484 107.578 135.354 106.958 135.654 106.498L138.324 102.438L134.264 99.768C133.804 99.468 133.674 98.848 133.974 98.388C134.274 97.928 134.894 97.798 135.354 98.098L140.254 101.308C140.714 101.608 140.844 102.228 140.544 102.688L137.334 107.588C137.144 107.878 136.824 108.038 136.494 108.038Z" fill="#0F20DF"/>
<path d="M62.6754 104.538C62.3654 104.538 62.0554 104.388 61.8554 104.118C61.5354 103.668 61.6454 103.038 62.0954 102.728L66.0654 99.9381L63.2754 95.9681C62.9554 95.5181 63.0654 94.8881 63.5154 94.5781C63.9654 94.2581 64.5954 94.3681 64.9054 94.8181L68.2754 99.6081C68.5954 100.058 68.4854 100.688 68.0354 100.998L63.2454 104.368C63.0754 104.488 62.8654 104.548 62.6754 104.548V104.538Z" fill="#0F20DF"/>
<path d="M101.886 107.368H101.846C101.176 107.348 100.596 106.788 100.616 106.128C100.636 105.458 101.156 104.948 101.796 104.958H101.916C102.586 104.978 103.106 105.538 103.086 106.208C103.066 106.858 102.526 107.378 101.886 107.378V107.368ZM114.056 107.198C113.416 107.198 112.836 106.708 112.796 106.068C112.756 105.408 113.206 104.838 113.866 104.798H113.986C114.646 104.768 115.226 105.258 115.256 105.928C115.286 106.598 114.786 107.168 114.126 107.198C114.106 107.198 114.076 107.198 114.056 107.198ZM89.7358 106.498C89.7358 106.498 89.6458 106.498 89.5958 106.498H89.4758C88.8158 106.408 88.3458 105.808 88.4158 105.148C88.4858 104.488 89.0858 104.008 89.7558 104.088H89.8758C90.5358 104.178 91.0058 104.778 90.9358 105.438C90.8658 106.048 90.3458 106.498 89.7358 106.498ZM126.056 105.998C125.466 105.998 124.956 105.568 124.866 104.968C124.766 104.308 125.226 103.698 125.886 103.598L125.996 103.578C126.646 103.478 127.266 103.928 127.366 104.588C127.466 105.248 127.016 105.858 126.356 105.958L126.236 105.978C126.176 105.978 126.116 105.988 126.056 105.988V105.998ZM77.7158 104.538C77.6358 104.538 77.5558 104.538 77.4758 104.518L77.3558 104.488C76.7058 104.348 76.2858 103.708 76.4258 103.058C76.5658 102.408 77.2058 101.998 77.8558 102.128L77.9658 102.148C78.6158 102.278 79.0358 102.918 78.9058 103.568C78.7858 104.138 78.2858 104.528 77.7258 104.528L77.7158 104.538ZM149.776 100.128C149.266 100.128 148.776 99.8376 148.606 99.3476C148.386 98.7276 148.646 98.0576 149.256 97.8276C149.266 97.8276 149.386 97.7776 149.396 97.7776C150.026 97.5576 150.716 97.8976 150.926 98.5276C151.146 99.1576 150.806 99.8476 150.176 100.058C150.046 100.108 149.906 100.128 149.766 100.128H149.776ZM54.5858 97.0276C54.4058 97.0276 54.2358 96.9876 54.0658 96.9076C53.4558 96.6376 53.1458 95.8976 53.4258 95.2976C53.6958 94.6876 54.3758 94.3976 54.9758 94.6776L55.1158 94.7376C55.7158 95.0276 55.9658 95.7476 55.6758 96.3476C55.4658 96.7776 55.0358 97.0276 54.5858 97.0276ZM43.9058 91.1876C43.6858 91.1876 43.4558 91.1276 43.2558 90.9976L43.1458 90.9276C42.5858 90.5576 42.4358 89.8176 42.7958 89.2576C43.1658 88.6976 43.9058 88.5476 44.4658 88.9076L44.5558 88.9676C45.1158 89.3276 45.2758 90.0776 44.9158 90.6376C44.6858 90.9976 44.2958 91.1876 43.8958 91.1876H43.9058ZM34.3458 83.6676C34.0458 83.6676 33.7458 83.5576 33.5058 83.3276L33.4158 83.2476C32.9358 82.7876 32.9158 82.0276 33.3758 81.5376C33.8358 81.0576 34.6058 81.0476 35.0858 81.4976L35.1758 81.5776C35.6558 82.0376 35.6758 82.7976 35.2158 83.2876C34.9758 83.5376 34.6658 83.6576 34.3458 83.6576V83.6676ZM35.3058 30.4976C34.9758 30.4976 34.6358 30.3576 34.4058 30.0876C33.9658 29.5876 34.0158 28.8276 34.5058 28.3876C34.9958 27.9376 35.7958 27.9376 36.2458 28.4276C36.6958 28.9176 36.7058 29.6476 36.2058 30.0976L36.0958 30.1976C35.8658 30.3976 35.5858 30.4976 35.2958 30.4976H35.3058ZM45.0258 23.1776C44.6258 23.1776 44.2258 22.9776 43.9958 22.6076C43.6458 22.0376 43.8158 21.2976 44.3858 20.9476C44.9458 20.5976 45.7458 20.7376 46.0958 21.3076C46.4458 21.8776 46.3258 22.5876 45.7558 22.9376L45.6558 22.9976C45.4558 23.1176 45.2358 23.1776 45.0258 23.1776ZM55.7958 17.5076C55.3258 17.5076 54.8758 17.2276 54.6858 16.7676C54.4258 16.1576 54.7158 15.4476 55.3258 15.1876C55.9358 14.9176 56.6858 15.1676 56.9658 15.7676C57.2358 16.3776 57.0158 17.0676 56.4058 17.3476L56.2658 17.4076C56.1158 17.4676 55.9558 17.5076 55.7958 17.5076ZM151.146 15.4476C151.006 15.4476 150.866 15.4176 150.726 15.3676L150.616 15.3276C149.996 15.0976 149.676 14.3976 149.906 13.7776C150.136 13.1576 150.836 12.8376 151.456 13.0676L151.566 13.1076C152.186 13.3376 152.506 14.0376 152.276 14.6576C152.096 15.1376 151.636 15.4376 151.146 15.4376V15.4476ZM67.2058 13.2576C66.6958 13.2576 66.2158 12.9276 66.0558 12.4076C65.8558 11.7676 66.2158 11.0976 66.8458 10.8976L66.9658 10.8576C67.6058 10.6676 68.2758 11.0276 68.4658 11.6576C68.6558 12.2976 68.2958 12.9676 67.6658 13.1576L67.5558 13.1876C67.4358 13.2276 67.3158 13.2476 67.1958 13.2476L67.2058 13.2576ZM139.526 11.7776C139.436 11.7776 139.336 11.7676 139.236 11.7376L139.116 11.7076C138.466 11.5376 138.086 10.8876 138.246 10.2376C138.416 9.58761 139.076 9.20761 139.716 9.36761C140.366 9.53761 140.806 10.2076 140.646 10.8476C140.506 11.3976 140.056 11.7676 139.526 11.7676V11.7776ZM79.0158 10.2676C78.4558 10.2676 77.9558 9.87761 77.8358 9.30761C77.7058 8.65761 78.1258 8.01761 78.7758 7.88761C78.7758 7.88761 78.8958 7.86761 78.9058 7.85761C79.5758 7.72761 80.1958 8.15761 80.3258 8.80761C80.4558 9.45761 80.0258 10.0976 79.3758 10.2276L79.2658 10.2476C79.1858 10.2676 79.1058 10.2676 79.0258 10.2676H79.0158ZM127.616 9.30761C127.556 9.30761 127.486 9.30761 127.426 9.28761L127.316 9.26761C126.656 9.16761 126.206 8.55761 126.306 7.89761C126.406 7.23761 127.016 6.77761 127.676 6.88761L127.806 6.90761C128.466 7.01761 128.906 7.63761 128.806 8.28761C128.706 8.87761 128.196 9.29761 127.616 9.29761V9.30761ZM91.0558 8.42761C90.4458 8.42761 89.9258 7.96761 89.8558 7.34761C89.7858 6.68761 90.2658 6.08761 90.9358 6.02761H91.0558C91.7258 5.93761 92.3058 6.42761 92.3758 7.08761C92.4458 7.74761 91.9658 8.34761 91.2958 8.40761H91.1758C91.1758 8.40761 91.0958 8.42761 91.0558 8.42761ZM115.516 7.95761C115.516 7.95761 115.456 7.95761 115.426 7.95761H115.326C114.656 7.90761 114.156 7.33761 114.196 6.67761C114.236 6.01761 114.826 5.48761 115.466 5.54761C115.466 5.54761 115.596 5.54761 115.606 5.54761C116.266 5.59761 116.766 6.17761 116.716 6.83761C116.666 7.46761 116.136 7.95761 115.516 7.95761Z" fill="#0F20DF"/>
<path d="M171.245 88.9982C170.865 88.9982 170.495 88.8182 170.265 88.4882C169.875 87.9482 170.005 87.1882 170.545 86.8082L170.625 86.7482C171.165 86.3482 171.915 86.4682 172.315 86.9982C172.715 87.5382 172.595 88.2882 172.065 88.6882L171.945 88.7682C171.735 88.9182 171.485 88.9882 171.245 88.9882V88.9982Z" fill="white"/>
<path d="M160.903 95.308C160.463 95.308 160.043 95.088 159.823 94.678C159.513 94.088 159.703 93.378 160.283 93.068L160.433 92.988C161.033 92.698 161.753 92.948 162.043 93.548C162.333 94.148 162.083 94.868 161.483 95.158C161.303 95.258 161.093 95.308 160.893 95.308H160.903Z" fill="white"/>
<path d="M180.302 80.8978C180.012 80.8978 179.712 80.7979 179.482 80.5779C178.992 80.1279 178.962 79.3678 179.412 78.8778L180.302 79.6978L179.462 78.8279C179.892 78.3179 180.652 78.2579 181.162 78.6879C181.672 79.1179 181.732 79.8778 181.302 80.3878C181.292 80.3978 181.202 80.5078 181.192 80.5178C180.952 80.7778 180.632 80.9079 180.302 80.9079V80.8978Z" fill="white"/>
<path d="M187.053 70.7679C186.893 70.7679 186.733 70.7379 186.583 70.6679C185.973 70.3979 185.683 69.7179 185.963 69.1079L186.023 68.9679C186.313 68.3679 187.033 68.1179 187.633 68.4079C188.233 68.6979 188.483 69.4179 188.193 70.0179C187.983 70.4779 187.523 70.7579 187.053 70.7579V70.7679Z" fill="white"/>
<path d="M189.962 57.6775L177.972 25.7375C177.482 24.4275 176.342 23.6075 175.622 23.8775L175.582 23.8875C175.532 23.9075 175.492 23.9375 175.442 23.9775L170.792 26.9575L171.322 28.2775L161.152 43.5975C160.582 44.4675 161.332 46.3675 162.512 47.0575L183.662 59.2675L185.022 62.6675L187.592 61.0175C187.592 61.0175 187.622 60.9975 187.632 60.9875L187.672 60.9675L189.762 59.6075C190.172 59.3075 190.312 58.5775 189.962 57.6675V57.6775Z" fill="url(#paint0_linear_14096_47825)"/>
<path d="M185.023 63.1774C184.973 63.1774 184.923 63.1774 184.873 63.1574C184.733 63.1074 184.613 63.0074 184.563 62.8674L183.273 59.6274L162.273 47.5074C161.463 47.0374 160.783 46.0774 160.553 45.0674C160.393 44.3874 160.463 43.7774 160.753 43.3474L170.773 28.2374L170.343 27.1574C170.253 26.9374 170.343 26.6774 170.543 26.5474L175.193 23.5674C175.193 23.5674 175.293 23.4874 175.393 23.4474C175.463 23.3974 175.553 23.3774 175.633 23.3674C176.633 23.1374 177.923 24.1174 178.463 25.5674L190.463 57.5074C190.873 58.5874 190.723 59.5574 190.093 60.0274L187.973 61.4074C187.973 61.4074 187.883 61.4674 187.873 61.4774L185.323 63.1174C185.243 63.1674 185.143 63.1974 185.053 63.1974L185.023 63.1774ZM171.413 27.1574L171.793 28.0974C171.853 28.2474 171.833 28.4174 171.743 28.5574L161.573 43.8774C161.443 44.0774 161.423 44.4174 161.513 44.8174C161.683 45.5574 162.203 46.2974 162.763 46.6274L183.913 58.8374C184.013 58.8974 184.083 58.9774 184.123 59.0874L185.253 61.9274L189.483 59.1974C189.673 59.0574 189.753 58.5374 189.483 57.8474L177.483 25.9074C177.063 24.8074 176.163 24.1874 175.783 24.3374C175.773 24.3374 175.763 24.3374 175.753 24.3474L171.393 27.1474L171.413 27.1574Z" fill="#0B00DA"/>
<path d="M183.423 60.4182C183.313 60.4182 183.183 60.3882 183.063 60.3182L160.613 47.3582C160.323 47.1982 160.093 46.8582 160.003 46.4982C159.943 46.2482 159.973 46.0282 160.083 45.8682L171.313 28.9382C171.423 28.7682 171.613 28.6982 171.803 28.7182C172.143 28.7582 172.483 29.0782 172.653 29.5082L183.883 59.3982C184.023 59.7782 183.973 60.1182 183.763 60.3082C183.673 60.3882 183.553 60.4282 183.433 60.4282L183.423 60.4182ZM171.743 29.2082C171.743 29.2082 171.743 29.2082 171.733 29.2082L160.503 46.1382C160.503 46.1382 160.463 46.2482 160.503 46.3782C160.553 46.5982 160.703 46.8182 160.873 46.9182L183.323 59.8782C183.393 59.9182 183.433 59.9182 183.433 59.9182C183.453 59.9082 183.493 59.7882 183.413 59.5682L172.183 29.6782C172.063 29.3582 171.823 29.2082 171.743 29.2082Z" fill="#0B00DA"/>
<path d="M185.325 60.6681L173.335 28.7281C172.745 27.1481 171.205 26.2581 170.605 27.1581L158.605 45.2481C158.025 46.1181 158.785 48.0181 159.965 48.7081L183.955 62.5581C185.145 63.2481 185.895 62.2081 185.315 60.6781L185.325 60.6681ZM181.995 59.3081L160.995 47.1881C160.635 46.9781 160.405 46.3981 160.575 46.1281L171.075 30.2981C171.255 30.0281 171.725 30.2981 171.915 30.7781L182.415 58.7281C182.595 59.1981 182.365 59.5181 181.995 59.3081Z" fill="white"/>
<path d="M184.664 63.2677C184.364 63.2677 184.044 63.1777 183.714 62.9877L159.724 49.1377C158.914 48.6677 158.234 47.7077 157.994 46.6977C157.834 46.0177 157.904 45.4077 158.194 44.9777L170.194 26.8877C170.474 26.4677 170.924 26.2577 171.444 26.3177C172.374 26.4277 173.354 27.3477 173.804 28.5577L185.804 60.4977C186.194 61.5377 186.084 62.4877 185.504 62.9777C185.264 63.1777 184.984 63.2777 184.674 63.2777L184.664 63.2677ZM171.264 27.2977C171.124 27.2977 171.064 27.3577 171.024 27.4277L159.024 45.5177C158.894 45.7077 158.874 46.0577 158.964 46.4577C159.134 47.1977 159.654 47.9377 160.214 48.2677L184.204 62.1177C184.334 62.1977 184.664 62.3577 184.844 62.2077C185.044 62.0377 185.104 61.5177 184.844 60.8477L172.844 28.9077C172.494 27.9877 171.774 27.3577 171.304 27.3077C171.284 27.3077 171.264 27.3077 171.244 27.3077L171.264 27.2977ZM182.214 59.8777C182.064 59.8777 181.904 59.8377 181.744 59.7477L160.744 47.6277C160.414 47.4377 160.144 47.0677 160.054 46.6577C159.984 46.3577 160.024 46.0677 160.164 45.8577L170.664 30.0277C170.824 29.7877 171.084 29.6677 171.374 29.6977C171.794 29.7477 172.194 30.1077 172.384 30.6077L182.884 58.5577C183.054 59.0177 182.984 59.4577 182.694 59.7077C182.554 59.8277 182.394 59.8777 182.214 59.8777ZM182.244 58.8777L181.994 59.3077L182.254 58.8777C182.254 58.8777 182.254 58.8777 182.244 58.8777ZM171.354 30.7877L160.994 46.4077C160.994 46.4077 161.104 46.6777 161.244 46.7577L181.844 58.6477L171.444 30.9577C171.414 30.8877 171.384 30.8277 171.354 30.7877Z" fill="#0B00DB"/>
<path d="M181.412 56.0877L164.002 46.0377C163.642 45.8277 163.412 45.2477 163.582 44.9777L172.302 31.8377L171.903 30.7877C171.722 30.3077 171.252 30.0277 171.062 30.3077L160.562 46.1377C160.382 46.4077 160.612 46.9877 160.982 47.1977L181.982 59.3177C182.342 59.5277 182.573 59.2077 182.403 58.7377L181.412 56.0877Z" fill="#BCBEF1"/>
<path d="M182.213 59.8779C182.063 59.8779 181.903 59.8379 181.743 59.7479L160.743 47.6279C160.413 47.4379 160.143 47.0679 160.053 46.6579C159.983 46.3579 160.023 46.0679 160.163 45.8579L170.663 30.0279C170.823 29.7879 171.093 29.6679 171.373 29.6979C171.793 29.7479 172.193 30.1079 172.383 30.6079L172.783 31.6579C172.843 31.8079 172.823 31.9779 172.733 32.1079L164.013 45.2479C164.013 45.2479 164.123 45.5179 164.263 45.5979L181.673 55.6479C181.773 55.7079 181.853 55.7979 181.893 55.9079L182.883 58.5579C183.053 59.0179 182.983 59.4579 182.693 59.7079C182.553 59.8179 182.393 59.8779 182.213 59.8779ZM171.353 30.7879L160.993 46.4079C160.993 46.4079 161.103 46.6779 161.243 46.7579L181.843 58.6479L181.013 56.4279L163.763 46.4679C163.433 46.2779 163.163 45.9079 163.073 45.4979C163.003 45.1979 163.043 44.9079 163.183 44.6979L171.763 31.7679L171.453 30.9579C171.423 30.8879 171.393 30.8379 171.363 30.7879H171.353Z" fill="#0B00DA"/>
<path d="M195.172 22.9277L196.192 23.5977L197.582 25.1977L197.932 26.7177L198.012 28.1577C198.012 28.1577 196.902 27.8777 196.962 27.5977C197.022 27.3177 195.152 22.9277 195.152 22.9277H195.172Z" fill="#0B00DA"/>
<path d="M78.0156 39.188L80.9256 61.018L100.986 87.708L106.146 90.048L119.406 78.368L127.336 64.618L130.166 53.318L131.566 39.868L105.066 26.748L78.0156 39.188Z" fill="#BDBFF2"/>
<path d="M106.146 90.5477C106.076 90.5477 106.006 90.5377 105.936 90.5077L100.776 88.1677C100.696 88.1377 100.636 88.0777 100.586 88.0177L80.5263 61.3277C80.4763 61.2577 80.4463 61.1777 80.4263 61.0977L77.5163 39.2677C77.4863 39.0477 77.6063 38.8377 77.8063 38.7477L104.866 26.3077C105.006 26.2477 105.166 26.2477 105.296 26.3077L131.796 39.4377C131.986 39.5277 132.096 39.7277 132.076 39.9377L130.676 53.3777L127.836 64.7477C127.836 64.7477 127.806 64.8377 127.786 64.8777L119.856 78.6277C119.856 78.6277 119.796 78.7177 119.756 78.7577L106.496 90.4377C106.406 90.5177 106.286 90.5577 106.166 90.5577L106.146 90.5477ZM101.316 87.3077L106.066 89.4577L119.026 78.0377L126.876 64.4277L129.686 53.1877L131.036 40.1577L105.066 27.2877L78.5663 39.4777L81.4163 60.8177L101.326 87.2977L101.316 87.3077Z" fill="#0B00DB"/>
<path d="M105.066 93.888C104.596 93.888 104.126 93.768 103.706 93.518C102.516 92.818 74.5859 75.998 74.5859 39.868C74.5859 38.818 75.1959 37.868 76.1459 37.438L103.946 24.738C104.656 24.418 105.466 24.418 106.176 24.738L133.976 37.438C134.926 37.868 135.536 38.828 135.536 39.868C135.536 75.998 107.606 92.818 106.416 93.518C105.996 93.768 105.526 93.888 105.056 93.888H105.066ZM79.9659 41.578C80.7259 69.108 99.7559 84.298 105.066 88.008C110.366 84.308 129.396 69.108 130.166 41.578L105.066 30.108L79.9659 41.578Z" fill="white"/>
<path d="M105.066 94.3882C104.506 94.3882 103.946 94.2382 103.456 93.9482C102.256 93.2482 74.0859 76.3182 74.0859 39.8682C74.0859 38.6282 74.8159 37.4982 75.9459 36.9782L103.746 24.2782C104.586 23.8982 105.546 23.8982 106.386 24.2782L134.186 36.9782C135.316 37.4882 136.046 38.6282 136.046 39.8682C136.046 76.2882 107.876 93.2482 106.686 93.9482C106.196 94.2382 105.646 94.3882 105.076 94.3882H105.066ZM105.066 24.9882C104.756 24.9882 104.446 25.0582 104.166 25.1882L76.3659 37.8882C75.5959 38.2382 75.0959 39.0182 75.0959 39.8682C75.0959 75.7482 102.786 92.3982 103.966 93.0882C104.636 93.4782 105.506 93.4782 106.176 93.0882C107.356 92.3982 135.046 75.7282 135.046 39.8682C135.046 39.0182 134.546 38.2382 133.776 37.8882L105.976 25.1882C105.686 25.0582 105.376 24.9882 105.066 24.9882ZM105.066 88.5082C104.966 88.5082 104.866 88.4782 104.776 88.4182C99.0259 84.3982 80.2259 69.1482 79.4659 41.5982C79.4659 41.3982 79.5759 41.2182 79.7559 41.1282L104.856 29.6582C104.986 29.5982 105.136 29.5982 105.276 29.6582L130.376 41.1282C130.556 41.2082 130.676 41.3982 130.666 41.5982C129.906 69.1682 111.096 84.4082 105.356 88.4182C105.266 88.4782 105.166 88.5082 105.066 88.5082ZM80.4759 41.8982C81.3559 68.3382 99.1259 83.1782 105.066 87.3982C110.996 83.1782 128.776 68.3482 129.656 41.8982L105.066 30.6582L80.4759 41.8982Z" fill="#0B00DA"/>
<path d="M133.976 33.4078L106.176 20.7078C105.826 20.5478 105.446 20.4678 105.066 20.4678V24.4978C105.446 24.4978 105.826 24.5778 106.176 24.7378L133.976 37.4378C134.926 37.8778 135.536 38.8278 135.536 39.8678V35.8378C135.536 34.7878 134.926 33.8378 133.976 33.4078Z" fill="#5C5FE5"/>
<path d="M135.546 40.368C135.266 40.368 135.046 40.148 135.046 39.868C135.046 39.018 134.546 38.238 133.776 37.888L105.976 25.188C105.686 25.058 105.386 24.988 105.066 24.988C104.786 24.988 104.566 24.768 104.566 24.488V20.458C104.566 20.178 104.786 19.958 105.066 19.958C105.526 19.958 105.966 20.058 106.386 20.248L134.186 32.948C135.316 33.458 136.046 34.598 136.046 35.838V39.868C136.046 40.148 135.826 40.368 135.546 40.368ZM105.576 24.028C105.856 24.068 106.136 24.158 106.396 24.278L134.196 36.978C134.516 37.128 134.806 37.318 135.056 37.558V35.838C135.056 34.988 134.556 34.208 133.786 33.858L105.986 21.158C105.856 21.098 105.716 21.048 105.576 21.018V24.028Z" fill="#0B00DA"/>
<path d="M105.068 20.458C104.688 20.458 104.308 20.538 103.958 20.698L76.1577 33.398C75.2077 33.828 74.5977 34.788 74.5977 35.828V39.858C74.5977 38.808 75.2077 37.858 76.1577 37.428L103.958 24.728C104.308 24.568 104.688 24.488 105.068 24.488V20.458Z" fill="#BCBEF1"/>
<path d="M74.5977 40.368C74.3177 40.368 74.0977 40.148 74.0977 39.868V35.838C74.0977 34.598 74.8277 33.468 75.9577 32.948L103.758 20.248C104.178 20.058 104.618 19.958 105.078 19.958C105.358 19.958 105.578 20.178 105.578 20.458V24.488C105.578 24.768 105.358 24.988 105.078 24.988C104.768 24.988 104.458 25.058 104.178 25.188L76.3777 37.888C75.6077 38.238 75.1077 39.018 75.1077 39.868C75.1077 40.148 74.8877 40.368 74.6077 40.368H74.5977ZM104.568 21.018C104.428 21.048 104.298 21.098 104.168 21.158L76.3677 33.858C75.5977 34.208 75.0977 34.988 75.0977 35.838V37.558C75.3477 37.328 75.6377 37.128 75.9577 36.978L103.758 24.278C104.018 24.158 104.298 24.078 104.578 24.028V21.018H104.568Z" fill="#0B00DA"/>
<path d="M129.918 41.4678C127.578 66.5178 110.118 80.4578 105.078 83.9778V88.0078C110.378 84.3078 129.408 69.1078 130.178 41.5778L129.928 41.4678H129.918Z" fill="#BCBEF1"/>
<path d="M105.066 88.5078C104.986 88.5078 104.906 88.4877 104.836 88.4477C104.666 88.3577 104.566 88.1878 104.566 88.0078V83.9778C104.566 83.8178 104.646 83.6577 104.776 83.5677C109.966 79.9377 127.096 66.1677 129.406 41.4177C129.426 41.2577 129.516 41.1077 129.656 41.0277C129.796 40.9477 129.966 40.9377 130.116 41.0077L130.366 41.1177C130.546 41.1977 130.666 41.3878 130.656 41.5878C129.896 69.1477 111.096 84.3978 105.346 88.4078C105.266 88.4678 105.156 88.4977 105.056 88.4977L105.066 88.5078ZM105.566 84.2377V87.0378C111.036 83.0378 124.246 71.6077 128.406 52.1478C123.156 70.3978 110.246 80.9277 105.566 84.2477V84.2377Z" fill="#0B00DA"/>
<path d="M105.065 83.9788C100.015 80.4488 82.5648 66.5187 80.2148 41.4688L79.9648 41.5788C80.7248 69.0988 99.7549 84.2988 105.065 88.0088V83.9788Z" fill="#5C5FE5"/>
<path d="M105.065 88.5085C104.965 88.5085 104.865 88.4785 104.775 88.4185C99.0248 84.3985 80.2248 69.1585 79.4648 41.5985C79.4648 41.3985 79.5748 41.2185 79.7548 41.1285L80.0048 41.0185C80.1548 40.9485 80.3248 40.9585 80.4648 41.0385C80.6048 41.1185 80.6948 41.2585 80.7148 41.4285C83.0248 66.1785 100.155 79.9485 105.345 83.5785C105.475 83.6685 105.555 83.8285 105.555 83.9885V88.0185C105.555 88.2085 105.455 88.3785 105.285 88.4585C105.215 88.4985 105.135 88.5185 105.055 88.5185L105.065 88.5085ZM81.7248 52.1585C85.8848 71.5985 99.0949 83.0385 104.565 87.0385V84.2385C99.8848 80.9285 86.9748 70.3985 81.7248 52.1585Z" fill="#0B00DA"/>
<path d="M111.004 67.1977V67.1877C110.994 66.9777 110.914 66.7777 110.684 66.6377C110.214 66.3577 109.814 66.7277 109.544 66.9177C109.064 67.2577 106.294 70.0277 105.744 68.4877C105.504 67.8177 105.434 67.0077 105.594 66.3477C106.564 62.4277 107.594 58.5177 108.614 54.5977C109.114 54.5577 109.434 54.5177 109.444 54.4777C109.494 54.2477 109.954 52.5677 109.354 51.2277C109.294 50.6677 108.854 50.5177 107.894 50.6177C106.814 50.7377 105.724 50.8477 104.644 50.9777C103.004 51.1677 99.7244 51.5977 99.7244 51.5977C99.7244 51.5977 98.3544 51.8177 98.4944 52.5877L98.6944 54.8877C98.6944 54.8877 100.224 54.8677 102.124 54.8277C102.104 54.9077 102.094 54.9677 102.074 55.0577C101.754 56.3077 101.414 57.5477 101.094 58.8077C100.294 61.9777 99.3944 65.1177 98.7444 68.3177C98.1944 71.0177 99.8444 73.2377 102.334 73.5277C105.054 73.8377 107.514 72.3877 109.204 70.4377L109.224 70.6177L111.204 69.6077L111.004 67.2177V67.1977Z" fill="#0B00DA"/>
<path d="M103.074 74.0581C102.814 74.0581 102.544 74.0381 102.284 74.0081C100.944 73.8581 99.7941 73.1981 99.0341 72.1481C98.2441 71.0581 97.9641 69.6581 98.2641 68.2081C98.7341 65.9081 99.3341 63.6081 99.9141 61.3881C100.154 60.4881 100.384 59.5781 100.614 58.6781C100.804 57.9381 100.994 57.1981 101.194 56.4581L101.484 55.3381C99.8941 55.3681 98.7041 55.3881 98.7041 55.3881C98.4441 55.3881 98.2241 55.1881 98.2041 54.9281L98.0041 52.6281C97.9541 52.3881 98.0241 52.1081 98.1941 51.8681C98.5941 51.2981 99.4841 51.1281 99.6641 51.1081C99.6741 51.1081 102.964 50.6781 104.604 50.4881C105.204 50.4181 105.804 50.3581 106.414 50.2881L107.854 50.1281C108.644 50.0381 109.134 50.1181 109.464 50.3881C109.674 50.5581 109.814 50.7981 109.854 51.0981C110.244 52.0181 110.274 53.2081 109.954 54.5481C109.864 54.9381 109.584 55.0181 109.024 55.0681L108.674 56.3981C107.794 59.7481 106.924 63.0981 106.094 66.4581C105.964 66.9881 106.014 67.6981 106.234 68.3081C106.274 68.4181 106.304 68.4281 106.314 68.4281C106.664 68.5181 107.504 67.9881 108.834 66.8481C109.034 66.6781 109.184 66.5481 109.264 66.4881L109.344 66.4281C109.634 66.2181 110.244 65.7681 110.944 66.1881C111.274 66.3881 111.474 66.7181 111.504 67.1181C111.504 67.1381 111.504 67.1681 111.504 67.1881L111.704 69.5381C111.724 69.7381 111.614 69.9381 111.434 70.0281L109.454 71.0381C109.394 71.0681 109.334 71.0881 109.264 71.0881C107.474 72.9981 105.274 74.0381 103.074 74.0381V74.0581ZM102.124 54.3281C102.274 54.3281 102.414 54.3981 102.514 54.5181C102.614 54.6381 102.644 54.7981 102.614 54.9481L102.564 55.1781L102.164 56.7181C101.974 57.4481 101.774 58.1881 101.594 58.9281C101.364 59.8381 101.124 60.7381 100.894 61.6481C100.314 63.8581 99.7141 66.1481 99.2541 68.4181C99.0141 69.5881 99.2241 70.7081 99.8541 71.5781C100.444 72.3881 101.354 72.9081 102.414 73.0281C104.664 73.2881 107.014 72.2281 108.844 70.1081C108.974 69.9581 109.174 69.8981 109.374 69.9581C109.384 69.9581 109.404 69.9581 109.414 69.9681L110.704 69.3081L110.534 67.2581V67.2381V67.2281C110.534 67.1181 110.494 67.0981 110.454 67.0681C110.354 67.0081 110.264 67.0281 109.954 67.2581L109.854 67.3281C109.784 67.3781 109.654 67.4881 109.494 67.6281C108.284 68.6681 107.014 69.6581 106.064 69.4081C105.814 69.3382 105.474 69.1581 105.294 68.6481C105.014 67.8481 104.954 66.9481 105.134 66.2181C105.964 62.8481 106.844 59.4981 107.714 56.1381L108.154 54.4581C108.204 54.2481 108.384 54.0981 108.604 54.0881C108.804 54.0681 108.954 54.0581 109.054 54.0481C109.264 52.9881 109.224 52.0781 108.934 51.4281C108.914 51.3781 108.894 51.3281 108.894 51.2781C108.894 51.2581 108.884 51.1781 108.854 51.1581C108.824 51.1381 108.664 51.0381 107.984 51.1181L106.534 51.2781C105.934 51.3381 105.334 51.4081 104.734 51.4781C103.094 51.6681 99.8241 52.0981 99.8241 52.0981C99.5741 52.1381 99.1441 52.2881 99.0341 52.4481L99.1941 54.3881C99.7841 54.3881 100.884 54.3581 102.154 54.3281H102.164H102.124Z" fill="#0B00DA"/>
<path d="M107.476 47.0884C109.676 47.0884 111.456 45.2984 111.476 43.0884C111.486 40.8084 109.706 39.0184 107.426 39.0284C105.216 39.0284 103.446 40.7984 103.426 43.0184C103.406 45.2684 105.226 47.0984 107.476 47.0884Z" fill="#0B00DA"/>
<path d="M107.456 47.5881C106.236 47.5881 105.096 47.1181 104.246 46.2581C103.386 45.3881 102.916 44.2381 102.926 43.0181C102.946 40.5081 104.926 38.5481 107.426 38.5381C108.656 38.5581 109.806 38.9981 110.656 39.8581C111.506 40.7181 111.976 41.8681 111.966 43.1081C111.956 45.5781 109.936 47.5981 107.466 47.6081H107.446L107.456 47.5881ZM107.446 39.5281H107.436C105.486 39.5281 103.946 41.0681 103.936 43.0181C103.936 43.9781 104.296 44.8681 104.966 45.5481C105.636 46.2181 106.526 46.5881 107.466 46.5881H107.476C109.396 46.5881 110.966 45.0081 110.976 43.0881C110.976 42.1181 110.616 41.2181 109.956 40.5481C109.296 39.8881 108.406 39.5281 107.446 39.5281Z" fill="#0B00DA"/>
<path d="M111.676 45.3886L103.626 45.3186L103.426 43.0186H111.476L111.676 45.3886Z" fill="#0B00DA"/>
<path d="M111.675 45.8886L103.625 45.8186C103.365 45.8186 103.155 45.6186 103.135 45.3586L102.935 43.0586C102.925 42.9186 102.975 42.7786 103.065 42.6786C103.155 42.5786 103.295 42.5186 103.435 42.5186H111.485C111.745 42.5186 111.965 42.7186 111.985 42.9786L112.185 45.3586C112.195 45.4986 112.145 45.6386 112.055 45.7386C111.965 45.8386 111.825 45.8986 111.685 45.8986L111.675 45.8886ZM104.085 44.8186L111.125 44.8786L111.005 43.5086H103.965L104.075 44.8186H104.085Z" fill="#0B00DA"/>
<path d="M100.661 55.4577C100.461 55.4777 100.071 55.4977 100.071 55.4977C100.071 55.4977 98.8414 55.6677 98.7014 54.8977C98.5614 54.1277 99.9314 53.9077 99.9314 53.9077C99.9314 53.9077 103.211 53.4777 104.851 53.2877C105.931 53.1577 107.021 53.0477 108.101 52.9277C109.471 52.7777 109.801 53.1277 109.451 54.4777C108.231 59.1977 106.971 63.9177 105.801 68.6477C105.641 69.3077 105.711 70.1177 105.951 70.7877C106.501 72.3277 109.261 69.5577 109.751 69.2177C110.021 69.0277 110.421 68.6577 110.891 68.9377C111.361 69.2177 111.211 69.7977 111.101 70.0577C109.811 73.0977 106.431 76.2677 102.551 75.8177C100.061 75.5277 98.4114 73.3077 98.9614 70.6077C99.6114 67.4077 100.511 64.2677 101.311 61.0977C101.631 59.8477 101.961 58.5977 102.291 57.3477C102.731 55.6577 102.431 55.3077 100.681 55.4477L100.661 55.4577Z" fill="white"/>
<path d="M103.292 76.3681C103.022 76.3681 102.752 76.3481 102.482 76.3181C101.142 76.1681 99.9924 75.5081 99.2324 74.4581C98.4424 73.3681 98.1624 71.9681 98.4624 70.5181C98.9324 68.2281 99.5324 65.9381 100.112 63.7181C100.352 62.8081 100.592 61.8981 100.822 60.9881C101.002 60.2481 101.202 59.5181 101.392 58.7881L101.792 57.2381C102.032 56.3181 101.952 56.0981 101.912 56.0481C101.872 55.9981 101.662 55.8781 100.712 55.9581C100.502 55.9781 100.102 55.9981 100.102 55.9981C99.5124 56.0781 98.3924 55.9581 98.2124 54.9881C98.1624 54.6981 98.2224 54.4181 98.3924 54.1781C98.7924 53.6081 99.6824 53.4381 99.8624 53.4181C99.8724 53.4181 103.162 52.9881 104.802 52.7981C105.402 52.7281 106.002 52.6681 106.602 52.5981L108.052 52.4381C108.692 52.3681 109.402 52.3581 109.802 52.8181C110.202 53.2881 110.092 53.9781 109.932 54.6081C109.552 56.0781 109.172 57.5381 108.782 59.0081C107.932 62.2581 107.082 65.5081 106.282 68.7681C106.152 69.2981 106.202 70.0081 106.422 70.6181C106.462 70.7281 106.492 70.7381 106.502 70.7381C106.862 70.8281 107.692 70.2981 109.022 69.1681C109.222 68.9981 109.372 68.8681 109.452 68.8081L109.532 68.7481C109.822 68.5381 110.422 68.0781 111.132 68.5081C111.692 68.8381 111.852 69.5281 111.542 70.2581C110.212 73.3981 107.012 76.3681 103.282 76.3681H103.292ZM101.272 54.9381C101.902 54.9381 102.372 55.0481 102.672 55.4081C103.062 55.8781 102.992 56.5781 102.752 57.4881L102.342 59.0381C102.152 59.7681 101.952 60.4981 101.772 61.2281C101.542 62.1381 101.302 63.0581 101.062 63.9681C100.482 66.1781 99.8924 68.4581 99.4324 70.7181C99.1924 71.8881 99.4024 73.0081 100.032 73.8781C100.622 74.6881 101.532 75.2081 102.592 75.3281C106.132 75.7381 109.372 72.8181 110.632 69.8681C110.662 69.7981 110.792 69.4681 110.632 69.3681C110.532 69.3081 110.442 69.3281 110.132 69.5581L110.032 69.6281C109.962 69.6781 109.832 69.7881 109.672 69.9281C108.462 70.9681 107.192 71.9681 106.242 71.7081C105.992 71.6381 105.652 71.4581 105.472 70.9581C105.192 70.1581 105.132 69.2581 105.312 68.5281C106.122 65.2581 106.972 62.0081 107.822 58.7481C108.202 57.2781 108.592 55.8181 108.962 54.3481C109.152 53.6081 109.042 53.4681 109.042 53.4681C109.042 53.4681 108.922 53.3381 108.152 53.4281L106.692 53.5881C106.092 53.6481 105.502 53.7181 104.902 53.7881C103.262 53.9781 99.9924 54.4081 99.9924 54.4081C99.7424 54.4481 99.3124 54.5981 99.2024 54.7581C99.2324 55.0181 99.7824 55.0281 100.002 54.9981C100.042 54.9981 100.422 54.9781 100.622 54.9581C100.852 54.9381 101.072 54.9281 101.262 54.9281L101.272 54.9381Z" fill="#0B00DA"/>
<path d="M111.671 45.3881C111.661 47.5981 109.881 49.3781 107.671 49.3881C105.421 49.3881 103.601 47.5681 103.621 45.3181C103.641 43.0981 105.411 41.3381 107.621 41.3281C109.901 41.3281 111.681 43.1081 111.671 45.3881Z" fill="white"/>
<path d="M107.663 49.8879C106.443 49.8879 105.303 49.4179 104.453 48.5579C103.593 47.6879 103.123 46.5379 103.133 45.3179C103.153 42.8079 105.133 40.8479 107.633 40.8379H107.653C108.883 40.8379 110.023 41.3079 110.873 42.1579C111.723 43.0179 112.193 44.1679 112.183 45.4079C112.173 47.8779 110.153 49.8979 107.683 49.9079H107.663V49.8879ZM107.643 41.8279H107.633C105.683 41.8279 104.143 43.3679 104.133 45.3179C104.133 46.2779 104.493 47.1679 105.163 47.8479C105.833 48.5179 106.723 48.8879 107.663 48.8879H107.673C109.593 48.8879 111.163 47.3079 111.173 45.3879C111.173 44.4179 110.813 43.5179 110.153 42.8579C109.493 42.1979 108.603 41.8379 107.643 41.8379V41.8279Z" fill="#0B00DA"/>
<path d="M177.486 39.8974C176.836 38.2374 175.936 36.7174 174.776 35.3374C173.616 33.9574 172.326 32.8574 170.886 32.0274C169.246 31.0774 167.796 30.6374 166.546 30.6874C165.286 30.7374 164.316 31.2674 163.636 32.2674C162.956 33.2674 162.606 34.6674 162.606 36.4574C162.606 37.0274 162.766 37.5974 163.096 38.1574C163.116 38.1974 163.146 38.2274 163.176 38.2574L161.656 38.7874L163.296 40.8974L165.566 39.5874C165.876 39.3974 166.036 39.0074 166.036 38.4374C166.036 36.7274 166.446 35.6074 167.266 35.0874C168.086 34.5674 169.296 34.7574 170.886 35.6774C172.166 36.4174 173.186 37.4674 173.946 38.8474C174.706 40.2174 175.096 41.5674 175.096 42.8874C175.096 43.9774 174.946 44.8174 174.646 45.4274C174.346 46.0274 173.976 46.4774 173.536 46.7674C173.096 47.0574 172.456 47.3774 171.596 47.7074C170.696 48.0674 170.016 48.7074 169.546 49.6274C169.076 50.5474 168.836 51.5474 168.836 52.6374C168.836 53.0674 168.956 53.4974 169.146 53.9274C168.846 54.5074 168.396 55.5974 168.396 55.6274C168.396 55.6674 169.526 57.0774 169.526 57.0774L171.796 55.7674C172.106 55.5774 172.266 55.1874 172.266 54.6174C172.266 53.9474 172.386 53.2674 172.636 52.5774C172.886 51.8874 173.276 51.4574 173.816 51.2774C174.846 50.9174 175.686 50.5174 176.336 50.0774C176.986 49.6374 177.506 48.9974 177.886 48.1774C178.266 47.3474 178.456 46.2374 178.456 44.8374C178.456 43.2074 178.126 41.5574 177.476 39.8974H177.486Z" fill="#BCBEF1"/>
<path d="M169.514 57.5876C169.364 57.5876 169.224 57.5176 169.124 57.3976C167.924 55.8876 167.924 55.8876 167.894 55.7276C167.854 55.4676 168.364 54.3876 168.584 53.9276C168.404 53.4676 168.324 53.0476 168.324 52.6576C168.324 51.4976 168.584 50.4076 169.084 49.4176C169.604 48.3976 170.384 47.6676 171.394 47.2576C172.214 46.9376 172.834 46.6376 173.244 46.3576C173.604 46.1176 173.924 45.7276 174.184 45.2076C174.454 44.6776 174.584 43.8976 174.584 42.8976C174.584 41.6676 174.224 40.3876 173.504 39.0976C172.794 37.8076 171.824 36.8076 170.624 36.1176C169.214 35.3076 168.174 35.0976 167.524 35.5176C166.864 35.9376 166.524 36.9276 166.524 38.4476C166.524 39.1976 166.284 39.7276 165.814 40.0176L163.524 41.3376C163.304 41.4676 163.034 41.4076 162.884 41.2076L161.244 39.0976C161.144 38.9676 161.114 38.8076 161.164 38.6476C161.214 38.4976 161.324 38.3676 161.484 38.3176L162.444 37.9876C162.224 37.4876 162.104 36.9776 162.104 36.4576C162.104 34.5776 162.484 33.0676 163.214 31.9876C163.984 30.8476 165.104 30.2476 166.524 30.1876C167.864 30.1276 169.424 30.6076 171.134 31.5976C172.614 32.4476 173.964 33.6076 175.154 35.0276C176.334 36.4476 177.274 38.0176 177.944 39.7276C178.614 41.4376 178.954 43.1576 178.954 44.8476C178.954 46.3076 178.744 47.5076 178.334 48.3976C177.914 49.3076 177.334 50.0176 176.614 50.5076C175.924 50.9676 175.044 51.3976 173.974 51.7676C173.574 51.8976 173.294 52.2276 173.104 52.7676C172.874 53.3976 172.764 54.0276 172.764 54.6376C172.764 55.3876 172.524 55.9176 172.054 56.2076L169.764 57.5276C169.684 57.5776 169.594 57.5976 169.514 57.5976V57.5876ZM168.954 55.5676C169.104 55.7676 169.364 56.0976 169.644 56.4476L171.544 55.3476C171.724 55.2376 171.764 54.8976 171.764 54.6376C171.764 53.9076 171.894 53.1676 172.164 52.4276C172.464 51.5976 172.964 51.0576 173.654 50.8176C174.634 50.4776 175.444 50.0876 176.064 49.6676C176.634 49.2776 177.094 48.7076 177.444 47.9676C177.794 47.2076 177.974 46.1476 177.974 44.8376C177.974 43.2776 177.654 41.6776 177.034 40.0876C176.404 38.4876 175.524 36.9976 174.404 35.6676C173.294 34.3376 172.024 33.2576 170.654 32.4676C169.104 31.5776 167.744 31.1476 166.584 31.1976C165.484 31.2476 164.664 31.6876 164.064 32.5676C163.444 33.4776 163.124 34.7976 163.124 36.4776C163.124 36.9576 163.264 37.4476 163.544 37.9276C163.564 37.9476 163.584 37.9776 163.614 38.0176C163.694 38.1476 163.714 38.3076 163.664 38.4476C163.614 38.5876 163.504 38.7076 163.354 38.7576L162.494 39.0576L163.444 40.2676L165.344 39.1776C165.524 39.0676 165.564 38.7276 165.564 38.4676C165.564 36.5876 166.054 35.3176 167.024 34.6976C168.004 34.0676 169.404 34.2576 171.164 35.2776C172.514 36.0576 173.614 37.1876 174.414 38.6376C175.214 40.0776 175.624 41.5276 175.624 42.9276C175.624 44.1076 175.454 45.0076 175.114 45.6876C174.774 46.3676 174.344 46.8876 173.834 47.2176C173.364 47.5276 172.694 47.8576 171.804 48.2076C171.014 48.5276 170.434 49.0776 170.014 49.8976C169.584 50.7376 169.364 51.6776 169.364 52.6776C169.364 52.9976 169.454 53.3576 169.634 53.7676C169.694 53.9076 169.694 54.0676 169.624 54.1976C169.414 54.5976 169.134 55.2476 168.994 55.5876L168.954 55.5676Z" fill="#0B00DA"/>
<path d="M170.545 60.8673C169.915 60.5073 169.375 60.4573 168.915 60.7173L166.645 62.0273L169.945 67.7373L172.215 66.4273C172.675 66.1573 172.905 65.6673 172.905 64.9373C172.905 64.2073 172.675 63.4073 172.215 62.6173C171.755 61.8173 171.195 61.2373 170.545 60.8573V60.8673Z" fill="#BCBEF1"/>
<path d="M169.933 68.2476C169.763 68.2476 169.593 68.1576 169.503 67.9976L166.203 62.2876C166.133 62.1776 166.123 62.0376 166.153 61.9076C166.183 61.7776 166.273 61.6676 166.383 61.6076L168.653 60.2976C169.273 59.9376 169.993 59.9876 170.783 60.4476C171.513 60.8676 172.133 61.5176 172.633 62.3876C173.133 63.2576 173.393 64.1176 173.393 64.9576C173.393 66.0976 172.883 66.6276 172.453 66.8776L170.183 68.1876C170.103 68.2376 170.013 68.2576 169.933 68.2576V68.2476ZM167.313 62.2176L170.113 67.0676L171.953 66.0076C172.063 65.9476 172.393 65.7576 172.393 64.9576C172.393 64.2976 172.183 63.5976 171.773 62.8876C171.363 62.1676 170.863 61.6376 170.293 61.3076C169.603 60.9076 169.273 61.0976 169.163 61.1576L167.323 62.2176H167.313Z" fill="#0B00DA"/>
<path d="M171.674 40.157C170.914 38.787 169.894 37.727 168.614 36.987C167.024 36.067 165.814 35.867 164.994 36.397C164.174 36.917 163.764 38.037 163.764 39.747C163.764 40.317 163.604 40.697 163.294 40.897C162.984 41.087 162.564 41.037 162.044 40.737C161.524 40.437 161.144 40.027 160.814 39.467C160.484 38.907 160.324 38.337 160.324 37.767C160.324 35.977 160.664 34.587 161.354 33.577C162.034 32.577 163.004 32.047 164.264 31.997C165.524 31.947 166.964 32.387 168.604 33.337C170.044 34.167 171.334 35.267 172.494 36.647C173.644 38.027 174.554 39.547 175.204 41.207C175.854 42.867 176.184 44.507 176.184 46.147C176.184 47.547 175.994 48.657 175.614 49.487C175.234 50.317 174.714 50.947 174.064 51.387C173.414 51.827 172.574 52.227 171.544 52.587C171.004 52.767 170.614 53.207 170.364 53.887C170.114 54.577 169.994 55.257 169.994 55.927C169.994 56.497 169.834 56.877 169.524 57.077C169.214 57.267 168.794 57.217 168.274 56.917C167.754 56.617 167.374 56.207 167.044 55.647C166.714 55.087 166.554 54.517 166.554 53.947C166.554 52.857 166.794 51.857 167.264 50.937C167.734 50.017 168.424 49.377 169.314 49.017C170.164 48.677 170.814 48.367 171.254 48.077C171.694 47.787 172.064 47.337 172.364 46.737C172.664 46.137 172.814 45.287 172.814 44.197C172.814 42.877 172.434 41.527 171.664 40.157H171.674ZM169.944 63.937C170.404 64.737 170.634 65.507 170.634 66.257C170.634 67.007 170.404 67.477 169.944 67.747C169.484 68.017 168.924 67.957 168.274 67.587C167.624 67.217 167.104 66.647 166.644 65.847C166.184 65.047 165.954 64.287 165.954 63.567C165.954 62.847 166.184 62.307 166.644 62.037C167.104 61.767 167.644 61.817 168.274 62.187C168.924 62.567 169.484 63.147 169.944 63.947V63.937Z" fill="white"/>
<path d="M169.314 68.4174C168.914 68.4174 168.474 68.2874 168.014 68.0174C167.314 67.6074 166.704 66.9674 166.194 66.0974C165.694 65.2274 165.434 64.3774 165.434 63.5674C165.434 62.6274 165.754 61.9674 166.374 61.6074C166.804 61.3574 167.524 61.1874 168.504 61.7574C169.224 62.1774 169.854 62.8274 170.354 63.6974C170.854 64.5674 171.114 65.4374 171.114 66.2674C171.114 67.4074 170.604 67.9374 170.174 68.1874C169.904 68.3474 169.614 68.4174 169.304 68.4174H169.314ZM167.254 62.3674C167.054 62.3674 166.934 62.4374 166.884 62.4674C166.774 62.5274 166.444 62.7174 166.444 63.5574C166.444 64.1874 166.654 64.8774 167.064 65.5874C167.474 66.3074 167.964 66.8274 168.514 67.1474C169.244 67.5674 169.574 67.3774 169.684 67.3174C169.794 67.2574 170.124 67.0674 170.124 66.2674C170.124 65.6074 169.914 64.9074 169.504 64.1974C169.094 63.4774 168.594 62.9474 168.024 62.6174C167.694 62.4274 167.444 62.3674 167.264 62.3674H167.254ZM169.094 57.7074C168.764 57.7074 168.404 57.5974 168.014 57.3674C167.444 57.0374 166.974 56.5474 166.604 55.9074C166.234 55.2674 166.054 54.6174 166.054 53.9574C166.054 52.7974 166.314 51.7074 166.814 50.7174C167.344 49.6974 168.114 48.9674 169.124 48.5574C169.944 48.2374 170.564 47.9374 170.974 47.6574C171.334 47.4174 171.654 47.0274 171.914 46.5074C172.184 45.9774 172.314 45.1974 172.314 44.1974C172.314 42.9674 171.954 41.6874 171.234 40.3974C170.524 39.1074 169.554 38.1074 168.354 37.4174C166.944 36.6074 165.904 36.3974 165.254 36.8174C164.594 37.2374 164.254 38.2274 164.254 39.7474C164.254 40.4974 164.014 41.0274 163.544 41.3174C163.064 41.6174 162.464 41.5674 161.784 41.1674C161.214 40.8374 160.744 40.3474 160.374 39.7074C160.004 39.0674 159.824 38.4174 159.824 37.7574C159.824 35.8774 160.204 34.3674 160.934 33.2874C161.704 32.1474 162.824 31.5474 164.234 31.4874C165.604 31.4274 167.134 31.9074 168.844 32.8974C170.324 33.7474 171.674 34.9074 172.864 36.3274C174.054 37.7474 174.994 39.3274 175.654 41.0274C176.324 42.7374 176.664 44.4574 176.664 46.1474C176.664 47.6074 176.454 48.8074 176.044 49.6974C175.624 50.6074 175.044 51.3174 174.324 51.8074C173.634 52.2674 172.754 52.6974 171.684 53.0674C171.284 53.1974 171.004 53.5274 170.814 54.0674C170.584 54.6974 170.474 55.3274 170.474 55.9374C170.474 56.6874 170.234 57.2174 169.764 57.5074C169.554 57.6374 169.334 57.6974 169.084 57.6974L169.094 57.7074ZM172.104 39.9174C172.904 41.3574 173.314 42.7974 173.314 44.2074C173.314 45.3874 173.144 46.2874 172.804 46.9674C172.464 47.6474 172.034 48.1574 171.524 48.4974C171.054 48.8074 170.394 49.1374 169.494 49.4874C168.704 49.8074 168.124 50.3574 167.704 51.1774C167.274 52.0174 167.054 52.9574 167.054 53.9574C167.054 54.4374 167.194 54.9274 167.474 55.4074C167.754 55.8874 168.104 56.2574 168.524 56.4974C168.764 56.6374 169.084 56.7674 169.254 56.6574C169.444 56.5374 169.484 56.1974 169.484 55.9374C169.484 55.2074 169.614 54.4674 169.884 53.7274C170.184 52.8974 170.684 52.3574 171.374 52.1174C172.354 51.7774 173.164 51.3874 173.774 50.9674C174.344 50.5774 174.804 50.0074 175.154 49.2674C175.504 48.5074 175.684 47.4574 175.684 46.1374C175.684 44.5774 175.364 42.9774 174.744 41.3874C174.114 39.7874 173.234 38.3074 172.114 36.9674C171.004 35.6374 169.734 34.5574 168.364 33.7674C166.814 32.8774 165.474 32.4474 164.294 32.4974C163.194 32.5374 162.374 32.9874 161.774 33.8674C161.154 34.7774 160.834 36.0974 160.834 37.7774C160.834 38.2574 160.974 38.7474 161.254 39.2274C161.534 39.7074 161.884 40.0774 162.304 40.3174C162.544 40.4574 162.854 40.5874 163.034 40.4774C163.224 40.3574 163.264 40.0174 163.264 39.7574C163.264 37.8774 163.754 36.6074 164.724 35.9874C165.714 35.3574 167.104 35.5574 168.864 36.5674C170.214 37.3474 171.314 38.4774 172.114 39.9274L172.104 39.9174Z" fill="#0B00DA"/>
<path d="M159.192 3.05762C159.482 3.05762 159.772 3.13762 160.032 3.28762L195.062 23.5076C196.522 24.3476 197.422 25.9176 197.422 27.5976V116.918C197.422 117.798 196.682 118.338 196.002 118.338C195.752 118.338 195.522 118.268 195.292 118.148L160.072 97.8176C158.482 96.8976 157.492 95.1876 157.492 93.3476V4.75762C157.492 3.70762 158.372 3.05762 159.192 3.05762ZM159.192 2.05762C157.782 2.05762 156.492 3.17762 156.492 4.75762V93.3376C156.492 95.5376 157.672 97.5776 159.572 98.6776L194.792 119.008C195.182 119.228 195.592 119.338 196.002 119.338C197.262 119.338 198.422 118.328 198.422 116.918V27.5976C198.422 25.5576 197.332 23.6676 195.562 22.6476L160.532 2.42762C160.102 2.17762 159.642 2.06762 159.192 2.06762V2.05762Z" fill="#0B00DA"/>
<defs>
<linearGradient id="paint0_linear_14096_47825" x1="175.559" y1="23.8262" x2="175.559" y2="62.6675" gradientUnits="userSpaceOnUse">
<stop stop-color="#0C01DA"/>
<stop offset="1" stop-color="#455DEC"/>
</linearGradient>
</defs>
</svg>
