<svg width="14" height="24" viewBox="0 0 14 24" fill="none" xmlns="http://www.w3.org/2000/svg">
<path fill-rule="evenodd" clip-rule="evenodd" d="M0.300684 12.0043C0.300684 11.3892 0.7993 10.8906 1.41437 10.8906H11.9944C12.4449 10.8906 12.851 11.162 13.0233 11.5781C13.1957 11.9943 13.1004 12.4733 12.7819 12.7918L1.90119 23.6725C1.46626 24.1074 0.761113 24.1074 0.326191 23.6725C-0.108731 23.2376 -0.10873 22.5324 0.326193 22.0975L9.30573 13.118H1.41437C0.7993 13.118 0.300684 12.6194 0.300684 12.0043Z" fill="#0F20E8"/>
<path fill-rule="evenodd" clip-rule="evenodd" d="M12.7815 0.325788C13.2167 0.760487 13.217 1.46564 12.7823 1.90078L1.90159 12.7927C1.46689 13.2278 0.761743 13.2282 0.326597 12.7935C-0.10855 12.3588 -0.108912 11.6537 0.325788 11.2185L11.2065 0.326597C11.6412 -0.10855 12.3464 -0.108912 12.7815 0.325788Z" fill="#0F20E8"/>
</svg>
