<svg width="10" height="12" viewBox="0 0 10 12" fill="none" xmlns="http://www.w3.org/2000/svg">
<path fill-rule="evenodd" clip-rule="evenodd" d="M5.46458 11.4805C5.19912 11.4803 4.94462 11.3745 4.75718 11.1866L1.28718 7.70658C0.897216 7.31549 0.898125 6.68233 1.28921 6.29237C1.68029 5.9024 2.31346 5.90331 2.70342 6.2944L5.46632 9.06524L8.23821 6.29338C8.62874 5.90286 9.2619 5.90286 9.65242 6.29338C10.0429 6.68391 10.0429 7.31708 9.65242 7.7076L6.17241 11.1876C5.98469 11.3753 5.73005 11.4807 5.46458 11.4805Z" fill="#0F20E8"/>
<path fill-rule="evenodd" clip-rule="evenodd" d="M5.46458 5.48047C5.19912 5.48028 4.94462 5.37454 4.75718 5.18656L1.28718 1.70658C0.897216 1.31549 0.898125 0.682329 1.28921 0.292366C1.68029 -0.0975969 2.31346 -0.096688 2.70342 0.294397L5.46632 3.06524L8.23821 0.293378C8.62874 -0.0971442 9.2619 -0.0971413 9.65242 0.293385C10.0429 0.68391 10.0429 1.31708 9.65242 1.7076L6.17241 5.18758C5.98469 5.37529 5.73005 5.48066 5.46458 5.48047Z" fill="#0F20E8"/>
</svg>
