<svg width="9" height="12" viewBox="0 0 9 12" fill="none" xmlns="http://www.w3.org/2000/svg">
<path fill-rule="evenodd" clip-rule="evenodd" d="M4.48073 2.59462e-07C4.7462 0.000191471 5.00069 0.105928 5.18813 0.293909L8.65813 3.77389C9.0481 4.16497 9.04719 4.79814 8.6561 5.1881C8.26502 5.57806 7.63185 5.57716 7.24189 5.18607L4.47899 2.41523L1.7071 5.18709C1.31658 5.57761 0.683413 5.57761 0.29289 5.18708C-0.0976324 4.79656 -0.0976297 4.16339 0.292896 3.77287L3.77291 0.29289C3.96062 0.105179 4.21527 -0.000190833 4.48073 2.59462e-07Z" fill="#0F20E8"/>
<path fill-rule="evenodd" clip-rule="evenodd" d="M4.48073 6C4.7462 6.00019 5.00069 6.10593 5.18813 6.29391L8.65813 9.77389C9.0481 10.165 9.04719 10.7981 8.6561 11.1881C8.26502 11.5781 7.63185 11.5772 7.24189 11.1861L4.47899 8.41523L1.7071 11.1871C1.31658 11.5776 0.683413 11.5776 0.29289 11.1871C-0.0976324 10.7966 -0.0976297 10.1634 0.292896 9.77287L3.77291 6.29289C3.96062 6.10518 4.21527 5.99981 4.48073 6Z" fill="#0F20E8"/>
</svg>
