<svg width="16" height="16" viewBox="0 0 16 16" fill="none" xmlns="http://www.w3.org/2000/svg">
<path fill-rule="evenodd" clip-rule="evenodd" d="M6.0886 1.23077C3.40569 1.23077 1.23077 3.40568 1.23077 6.08859C1.23077 8.7715 3.40569 10.9464 6.0886 10.9464C8.7715 10.9464 10.9464 8.7715 10.9464 6.08859C10.9464 3.40568 8.7715 1.23077 6.0886 1.23077ZM0 6.08859C0 2.72595 2.72596 0 6.0886 0C9.45124 0 12.1772 2.72595 12.1772 6.08859C12.1772 9.45122 9.45124 12.1772 6.0886 12.1772C2.72595 12.1772 0 9.45122 0 6.08859Z" fill="#3A3A3A"/>
<path fill-rule="evenodd" clip-rule="evenodd" d="M10.6687 8.37946C10.9091 8.13914 11.2987 8.13914 11.539 8.37946L15.3496 12.19C16.2168 13.0572 16.2168 14.4608 15.3496 15.3281C14.4823 16.1953 13.0787 16.1953 12.2115 15.3281L8.40095 11.5176C8.16062 11.2772 8.16062 10.8876 8.40094 10.6473C8.64127 10.4069 9.03091 10.4069 9.27123 10.6473L13.0818 14.4578C13.4684 14.8444 14.0927 14.8444 14.4793 14.4578C14.8659 14.0712 14.8659 13.4469 14.4793 13.0603L10.6687 9.24975C10.4284 9.00942 10.4284 8.61978 10.6687 8.37946Z" fill="#3A3A3A"/>
</svg>
