<svg width="16" height="16" viewBox="0 0 16 16" fill="none" xmlns="http://www.w3.org/2000/svg">
<path fill-rule="evenodd" clip-rule="evenodd" d="M8.00049 5.40614C6.56958 5.40614 5.4096 6.56653 5.4096 7.99796C5.4096 9.42941 6.56959 10.5899 8.00049 10.5899C9.43138 10.5899 10.5914 9.42941 10.5914 7.99796C10.5914 6.56653 9.4314 5.40614 8.00049 5.40614ZM4.21289 7.99796C4.21289 5.90534 5.90867 4.20898 8.00049 4.20898C10.0923 4.20898 11.7881 5.90534 11.7881 7.99796C11.7881 10.0906 10.0923 11.787 8.00049 11.787C5.90865 11.787 4.21289 10.0906 4.21289 7.99796Z" fill="#0F20E8"/>
<path fill-rule="evenodd" clip-rule="evenodd" d="M12.8048 11.8159C13.08 12.0913 13.08 12.5402 12.8048 12.8156C12.6672 12.9533 12.4877 13.0251 12.3082 13.0251C12.1287 13.0251 11.9491 12.9533 11.8115 12.8156L11.3029 12.3068C10.561 12.8755 9.67539 13.2585 8.70605 13.3842V14.1026C8.70605 14.4916 8.38893 14.8088 8 14.8088C7.61107 14.8088 7.29395 14.4916 7.29395 14.1026V13.3842C6.32461 13.2585 5.43907 12.8755 4.69711 12.3068L4.18848 12.8156C4.05086 12.9533 3.87135 13.0251 3.69184 13.0251C3.51233 13.0251 3.33285 12.9533 3.19523 12.8156C2.91999 12.5402 2.91999 12.0913 3.19523 11.8159L3.70382 11.3072C3.13538 10.5649 2.75244 9.67905 2.62679 8.70935H1.90875C1.51982 8.70935 1.2027 8.39207 1.2027 8.003C1.2027 7.61392 1.51982 7.29671 1.90875 7.29671H2.62679C2.75244 6.32702 3.13538 5.44107 3.70382 4.69883L3.19523 4.19005C2.91999 3.91471 2.91999 3.46582 3.19523 3.19047C3.33285 3.0528 3.51233 2.98091 3.69184 2.98091C3.87135 2.98091 4.05086 3.0528 4.18848 3.19047L4.69711 3.69925C5.43907 3.1306 6.32461 2.74748 7.29395 2.62178V1.90351C7.29395 1.51444 7.61107 1.19716 8 1.19716C8.38893 1.19716 8.70605 1.51444 8.70605 1.90351V2.62178C9.67539 2.74748 10.561 3.1306 11.3029 3.69925L11.8115 3.19047C11.9491 3.0528 12.1287 2.98091 12.3082 2.98091C12.4877 2.98091 12.6672 3.0528 12.8048 3.19047C13.08 3.46582 13.08 3.91471 12.8048 4.19005L12.2962 4.69883C12.8646 5.44107 13.2476 6.32702 13.3733 7.29671H14.0912C14.4802 7.29671 14.7973 7.61392 14.7973 8.003C14.7973 8.39207 14.4802 8.70935 14.0912 8.70935H13.3733C13.2476 9.67905 12.8646 10.5649 12.2962 11.3072L12.8048 11.8159ZM6.1152 1.65208C6.23488 0.7183 7.03665 0 8 0C8.96335 0 9.75918 0.7183 9.88483 1.65208C10.3276 1.78377 10.7524 1.95736 11.1533 2.17884C11.4884 1.92145 11.8893 1.78375 12.3142 1.78375C12.8228 1.78375 13.3014 1.98132 13.6604 2.34046C14.0195 2.69961 14.2169 3.17847 14.2169 3.68727C14.2169 4.11226 14.0793 4.51926 13.822 4.84847C14.0434 5.25551 14.2169 5.68057 14.3485 6.11753C15.276 6.23725 16 7.03928 16 8.003C16 8.96671 15.282 9.76283 14.3485 9.88853C14.2169 10.3315 14.0434 10.7565 13.822 11.1575C14.3964 11.8998 14.3426 12.9772 13.6604 13.6596C13.3014 14.0188 12.8228 14.2162 12.3142 14.2162C11.8893 14.2162 11.4824 14.0786 11.1533 13.8212C10.7465 14.0427 10.3216 14.2163 9.88483 14.348C9.76516 15.2818 8.96335 16 8 16C7.03665 16 6.24086 15.2818 6.1152 14.348C5.67242 14.2163 5.24759 14.0427 4.8467 13.8212C4.51162 14.0786 4.11072 14.2162 3.68589 14.2162C3.17728 14.2162 2.6986 14.0188 2.33959 13.6596C1.65746 12.9772 1.6036 11.9057 2.17802 11.1575C1.95663 10.7505 1.7831 10.3255 1.65146 9.88853C0.724015 9.76882 0 8.96671 0 8.003C0 7.03928 0.718032 6.24323 1.65146 6.11753C1.7831 5.67458 1.95663 5.24952 2.17802 4.84847C1.92073 4.51327 1.78309 4.11226 1.78309 3.68727C1.78309 3.17847 1.98057 2.69961 2.33959 2.34046C2.6986 1.98132 3.17728 1.78375 3.68589 1.78375C4.11072 1.78375 4.5176 1.92145 4.8467 2.17884C5.25358 1.95736 5.67841 1.78377 6.1152 1.65208Z" fill="#0F20E8"/>
</svg>
