<svg width="17" height="16" viewBox="0 0 17 16" fill="none" xmlns="http://www.w3.org/2000/svg">
<path fill-rule="evenodd" clip-rule="evenodd" d="M8.49998 1.44927C4.88212 1.44927 1.94927 4.38215 1.94927 8.00002C1.94927 11.6179 4.88211 14.5507 8.49998 14.5507C12.1178 14.5507 15.0507 11.6179 15.0507 8.00002C15.0507 4.38216 12.1178 1.44927 8.49998 1.44927ZM0.5 8.00002C0.5 3.58175 4.0817 0 8.49998 0C12.9183 0 16.5 3.58175 16.5 8.00002C16.5 12.4183 12.9182 16 8.49998 16C4.0817 16 0.5 12.4183 0.5 8.00002Z" fill="#0F20E8"/>
<path fill-rule="evenodd" clip-rule="evenodd" d="M7.4703 10.5302C7.46189 10.8867 7.16602 11.169 6.80945 11.1606L4.76923 11.1125C4.41266 11.1041 4.13042 10.8082 4.13882 10.4516C4.14723 10.095 4.4431 9.8128 4.79967 9.82121L6.83989 9.8693C7.19646 9.87771 7.4787 10.1736 7.4703 10.5302Z" fill="#0F20E8"/>
<path fill-rule="evenodd" clip-rule="evenodd" d="M4.76941 11.1137C4.41284 11.1053 4.13059 10.8094 4.139 10.4528L4.18709 8.41262C4.19549 8.05605 4.49137 7.77381 4.84794 7.78221C5.20451 7.79062 5.48675 8.08649 5.47835 8.44306L5.43026 10.4833C5.42185 10.8398 5.12598 11.1221 4.76941 11.1137Z" fill="#0F20E8"/>
<path fill-rule="evenodd" clip-rule="evenodd" d="M5.24492 10.2929C4.99742 10.036 5.00499 9.62721 5.26181 9.37971L9.15514 5.62784C9.28034 5.50718 9.44891 5.44211 9.62272 5.44735C9.79652 5.45259 9.96087 5.52769 10.0786 5.65567L11.6608 7.37579L14.242 4.76421C14.4928 4.51053 14.9017 4.50815 15.1553 4.75888C15.409 5.0096 15.4114 5.4185 15.1607 5.67217L12.1033 8.76547C11.9791 8.89108 11.809 8.96036 11.6324 8.95719C11.4558 8.95402 11.2882 8.87867 11.1687 8.74868L9.57543 7.01656L6.15807 10.3098C5.90125 10.5573 5.49241 10.5497 5.24492 10.2929Z" fill="#0F20E8"/>
</svg>
