<svg width="14" height="14" viewBox="0 0 14 14" fill="none" xmlns="http://www.w3.org/2000/svg">
<path fill-rule="evenodd" clip-rule="evenodd" d="M11.3265 5.75305C10.7453 3.25919 8.24692 1.70525 5.75306 2.28644C3.2592 2.86763 1.70525 5.36596 2.28644 7.85982C2.86771 10.354 5.36129 11.9087 7.85983 11.3265C8.13597 11.2621 8.412 11.4338 8.47635 11.7099C8.54071 11.9861 8.36902 12.2621 8.09288 12.3265C5.0414 13.0376 1.99627 11.1387 1.28644 8.09287C0.576537 5.04672 2.47386 1.99634 5.52001 1.28644C8.56615 0.576537 11.6166 2.47385 12.3265 5.52C12.4606 6.09564 12.5036 6.67689 12.4602 7.23959C12.4385 7.5223 12.1916 7.73381 11.9089 7.71202C11.6262 7.69024 11.4147 7.4434 11.4365 7.16069C11.4717 6.70348 11.437 6.22741 11.3265 5.75305Z" fill="white"/>
<path fill-rule="evenodd" clip-rule="evenodd" d="M11.871 10.855C11.7215 11.096 11.4051 11.1702 11.1641 11.0208L4.83585 7.09755C4.71697 7.02385 4.63331 6.90484 4.60421 6.76802C4.57511 6.63121 4.60309 6.48845 4.68168 6.37274L5.69605 4.87933L3.16021 3.34906C2.91745 3.20256 2.83941 2.887 2.98591 2.64423C3.13241 2.40147 3.44797 2.32343 3.69073 2.46993L6.69039 4.2801C6.81107 4.35292 6.8965 4.47215 6.92665 4.60983C6.9568 4.74752 6.92902 4.89154 6.84983 5.00813L5.83182 6.5069L11.7051 10.1482C11.9461 10.2976 12.0204 10.614 11.871 10.855Z" fill="white"/>
<path fill-rule="evenodd" clip-rule="evenodd" d="M10.9502 8.50324C11.2263 8.43889 11.5024 8.61058 11.5667 8.88672L11.9349 10.4667C11.9993 10.7429 11.8276 11.0189 11.5515 11.0832C11.2753 11.1476 10.9993 10.9759 10.9349 10.6998L10.5667 9.11977C10.5024 8.84363 10.6741 8.5676 10.9502 8.50324Z" fill="white"/>
<path fill-rule="evenodd" clip-rule="evenodd" d="M11.9349 10.4648C11.9992 10.741 11.8276 11.017 11.5514 11.0814L9.96638 11.4508C9.69024 11.5151 9.41421 11.3434 9.34986 11.0673C9.2855 10.7911 9.45719 10.5151 9.73333 10.4508L11.3184 10.0814C11.5945 10.017 11.8705 10.1887 11.9349 10.4648Z" fill="white"/>
</svg>
