<svg width="13" height="13" viewBox="0 0 13 13" fill="none" xmlns="http://www.w3.org/2000/svg">
<path fill-rule="evenodd" clip-rule="evenodd" d="M6.26085 1.13421C3.42949 1.13421 1.13421 3.42951 1.13421 6.26089C1.13421 9.09226 3.42948 11.3875 6.26085 11.3875C9.09223 11.3875 11.3875 9.09225 11.3875 6.26089C11.3875 3.42952 9.09222 1.13421 6.26085 1.13421ZM0 6.26089C0 2.80311 2.80307 0 6.26085 0C9.71863 0 12.5217 2.80311 12.5217 6.26089C12.5217 9.71867 9.71863 12.5217 6.26085 12.5217C2.80307 12.5217 0 9.71867 0 6.26089Z" fill="white"/>
<path fill-rule="evenodd" clip-rule="evenodd" d="M9.41615 4.26954C9.63874 4.48989 9.64055 4.84896 9.42021 5.07154L6.07994 8.44584C5.97252 8.55435 5.82588 8.61497 5.67319 8.61397C5.5205 8.61297 5.37467 8.55043 5.26868 8.44052L3.8441 6.96318L1.63208 9.30928C1.41721 9.53717 1.0583 9.54772 0.830411 9.33286C0.602526 9.118 0.591968 8.75908 0.80683 8.5312L3.42686 5.75236C3.53325 5.63952 3.68122 5.57517 3.8363 5.5743C3.99139 5.57343 4.14006 5.63611 4.24771 5.74775L5.68223 7.23539L8.61415 4.27361C8.83449 4.05102 9.19356 4.0492 9.41615 4.26954Z" fill="white"/>
<path fill-rule="evenodd" clip-rule="evenodd" d="M6.6582 4.67258C6.6582 4.35937 6.91211 4.10547 7.22531 4.10547H9.01739C9.33059 4.10547 9.5845 4.35937 9.5845 4.67258C9.5845 4.98578 9.33059 5.23968 9.01739 5.23968H7.22531C6.91211 5.23968 6.6582 4.98578 6.6582 4.67258Z" fill="white"/>
<path fill-rule="evenodd" clip-rule="evenodd" d="M9.0173 4.10547C9.33051 4.10547 9.58441 4.35937 9.58441 4.67258V6.46465C9.58441 6.77786 9.33051 7.03176 9.0173 7.03176C8.7041 7.03176 8.4502 6.77786 8.4502 6.46465V4.67258C8.4502 4.35937 8.7041 4.10547 9.0173 4.10547Z" fill="white"/>
</svg>
