<svg width="13" height="10" viewBox="0 0 13 10" fill="none" xmlns="http://www.w3.org/2000/svg">
<path fill-rule="evenodd" clip-rule="evenodd" d="M6.47424 0.833198C4.39431 0.833198 2.7082 2.51931 2.7082 4.59924C2.7082 6.67918 4.39431 8.36529 6.47424 8.36529C8.55418 8.36529 10.2403 6.67918 10.2403 4.59924C10.2403 2.51931 8.55418 0.833198 6.47424 0.833198ZM1.875 4.59924C1.875 2.05915 3.93415 0 6.47424 0C9.01434 0 11.0735 2.05915 11.0735 4.59924C11.0735 7.13934 9.01434 9.19849 6.47424 9.19849C3.93415 9.19849 1.875 7.13934 1.875 4.59924Z" fill="white"/>
<path fill-rule="evenodd" clip-rule="evenodd" d="M12.8449 0.624364C13.0085 0.786189 13.0099 1.04996 12.8481 1.21352L9.34028 4.75878C9.18255 4.91819 8.92693 4.92414 8.76195 4.77224L7.6132 3.7145L5.80597 6.72171C5.68745 6.91891 5.4315 6.98271 5.2343 6.86419C5.03709 6.74567 4.97329 6.48973 5.09181 6.29252L7.16232 2.84724C7.22682 2.73991 7.33618 2.66728 7.46013 2.64947C7.58408 2.63165 7.70947 2.67054 7.80159 2.75536L9.03067 3.88706L12.2558 0.627495C12.4176 0.463941 12.6814 0.462539 12.8449 0.624364Z" fill="white"/>
<path fill-rule="evenodd" clip-rule="evenodd" d="M10.7354 0.920505C10.7354 0.690424 10.9219 0.503906 11.152 0.503906H12.5517C12.7818 0.503906 12.9683 0.690424 12.9683 0.920505C12.9683 1.15059 12.7818 1.3371 12.5517 1.3371H11.152C10.9219 1.3371 10.7354 1.15059 10.7354 0.920505Z" fill="white"/>
<path fill-rule="evenodd" clip-rule="evenodd" d="M12.5523 0.503906C12.7824 0.503906 12.9689 0.690424 12.9689 0.920505V2.3203C12.9689 2.55038 12.7824 2.7369 12.5523 2.7369C12.3223 2.7369 12.1357 2.55038 12.1357 2.3203V0.920505C12.1357 0.690424 12.3223 0.503906 12.5523 0.503906Z" fill="white"/>
<path fill-rule="evenodd" clip-rule="evenodd" d="M3.62821 4.81011C3.78594 4.6507 4.04157 4.64475 4.20654 4.79665L5.73129 6.20059C5.90055 6.35644 5.91142 6.61999 5.75557 6.78925C5.59972 6.95851 5.33617 6.96938 5.16691 6.81353L3.93783 5.68183L0.712741 8.9414C0.550917 9.10495 0.287145 9.10635 0.12359 8.94453C-0.0399652 8.7827 -0.0413678 8.51893 0.120457 8.35538L3.62821 4.81011Z" fill="white"/>
<path fill-rule="evenodd" clip-rule="evenodd" d="M0 8.64902C0 8.41894 0.186518 8.23242 0.416599 8.23242H1.81637C2.04645 8.23242 2.23296 8.41894 2.23296 8.64902C2.23296 8.8791 2.04645 9.06562 1.81637 9.06562H0.416599C0.186518 9.06562 0 8.8791 0 8.64902Z" fill="white"/>
<path fill-rule="evenodd" clip-rule="evenodd" d="M0.416599 6.83203C0.64668 6.83203 0.833198 7.01855 0.833198 7.24863V8.64842C0.833198 8.8785 0.64668 9.06502 0.416599 9.06502C0.186518 9.06502 0 8.8785 0 8.64842V7.24863C0 7.01855 0.186518 6.83203 0.416599 6.83203Z" fill="white"/>
</svg>
