<svg width="40" height="23" viewBox="0 0 40 23" fill="none" xmlns="http://www.w3.org/2000/svg">
<path fill-rule="evenodd" clip-rule="evenodd" d="M0 11.0399C0 4.94827 4.93705 0 11.04 0H28.29C34.3823 0 39.33 4.94762 39.33 11.0399C39.33 17.1315 34.3929 22.08 28.29 22.08H11.04C4.94769 22.08 0 17.1322 0 11.0399Z" fill="white"/>
<path fill-rule="evenodd" clip-rule="evenodd" d="M0 11.0399C0 4.94827 4.93705 0 11.04 0H28.29C34.3823 0 39.33 4.94762 39.33 11.0399C39.33 17.1315 34.3929 22.08 28.29 22.08H11.04C4.94769 22.08 0 17.1322 0 11.0399ZM11.04 2C6.0429 2 2 6.05156 2 11.0399C2 16.0276 6.05227 20.08 11.04 20.08H28.29C33.287 20.08 37.33 16.0283 37.33 11.0399C37.33 6.05221 33.2777 2 28.29 2H11.04Z" fill="#0F20E8"/>
<path fill-rule="evenodd" clip-rule="evenodd" d="M12.3371 6.85296C12.7276 7.24349 12.7276 7.87665 12.3371 8.26717L9.56419 11.04L12.3371 13.8129C12.7276 14.2034 12.7276 14.8366 12.3371 15.2271C11.9466 15.6176 11.3134 15.6177 10.9229 15.2271L7.44286 11.7472C7.25532 11.5596 7.14996 11.3053 7.14996 11.04C7.14996 10.7748 7.25532 10.5205 7.44286 10.3329L10.9229 6.85295C11.3134 6.46242 11.9466 6.46243 12.3371 6.85296Z" fill="#0F20E8"/>
<path fill-rule="evenodd" clip-rule="evenodd" d="M27.0028 6.85296C27.3934 6.46243 28.0265 6.46242 28.4171 6.85295L31.8971 10.3329C32.0846 10.5205 32.19 10.7748 32.19 11.04C32.19 11.3053 32.0846 11.5596 31.8971 11.7472L28.4171 15.2271C28.0265 15.6177 27.3934 15.6176 27.0028 15.2271C26.6123 14.8366 26.6123 14.2034 27.0029 13.8129L29.7758 11.04L27.0029 8.26717C26.6123 7.87665 26.6123 7.24349 27.0028 6.85296Z" fill="#0F20E8"/>
</svg>
