<svg width="30" height="20" viewBox="0 0 30 20" fill="none" xmlns="http://www.w3.org/2000/svg">
<path d="M19.5596 19.9999C16.9081 19.9971 14.3659 18.9425 12.491 17.0675C10.616 15.1926 9.56145 12.6504 9.55859 9.99888V0.43173C9.55859 0.317228 9.60408 0.207416 9.68505 0.126451C9.76601 0.0454858 9.87582 0 9.99032 0C12.643 0.000569726 15.187 1.05386 17.0638 2.92858C18.9405 4.8033 19.9966 7.34619 20 9.99888V19.5595C20.0012 19.6177 19.9906 19.6755 19.9689 19.7294C19.9472 19.7834 19.9148 19.8324 19.8736 19.8735C19.8325 19.9147 19.7835 19.9471 19.7295 19.9688C19.6756 19.9905 19.6178 20.0011 19.5596 19.9999ZM10.4415 0.893682V9.99888C10.4441 12.3398 11.3459 14.5902 12.9605 16.2851C14.5751 17.9801 16.7791 18.99 19.1171 19.1062V9.99888C19.1144 7.65821 18.2126 5.40804 16.5979 3.71345C14.9833 2.01886 12.7793 1.00938 10.4415 0.893682V0.893682Z" fill="#0078E8"/>
<path d="M9.99888 10.4414H0.431731C0.31809 10.4387 0.209863 10.3923 0.129484 10.3119C0.0491047 10.2315 0.0027395 10.1233 0 10.0097C-1.54223e-06 7.35681 1.0531 4.81245 2.92795 2.93558C4.80279 1.05871 7.34602 0.00286054 9.99888 0C10.1125 0.0027395 10.2207 0.0491047 10.3011 0.129484C10.3815 0.209863 10.4279 0.31809 10.4306 0.43173V9.99888C10.4306 10.1144 10.3855 10.2253 10.3048 10.308C10.2242 10.3907 10.1144 10.4386 9.99888 10.4414V10.4414ZM0.893682 9.55851H9.55851V0.893682C7.29645 1.00507 5.15664 1.95372 3.55518 3.55518C1.95372 5.15664 1.00507 7.29645 0.893682 9.55851V9.55851Z" fill="#0078E8"/>
<path d="M19.5606 19.9992C19.447 19.9964 19.3388 19.9501 19.2584 19.8697C19.178 19.7893 19.1316 19.6811 19.1289 19.5674V9.99814C19.1316 9.8845 19.178 9.77627 19.2584 9.69589C19.3388 9.61551 19.447 9.56915 19.5606 9.56641H29.1191C29.2336 9.56641 29.3435 9.61189 29.4244 9.69286C29.5054 9.77382 29.5509 9.88363 29.5509 9.99814C29.548 12.6478 28.4949 15.1883 26.6223 17.063C24.7497 18.9376 22.2103 19.9935 19.5606 19.9992V19.9992ZM19.9924 10.4407V19.1055C22.256 18.9957 24.3979 18.0479 26.0014 16.4464C27.605 14.8449 28.5554 12.7042 28.668 10.4407H19.9924Z" fill="#0078E8"/>
</svg>
