<svg width="16" height="16" viewBox="0 0 16 16" fill="none" xmlns="http://www.w3.org/2000/svg">
<path fill-rule="evenodd" clip-rule="evenodd" d="M7.99998 1.44927C4.38212 1.44927 1.44927 4.38215 1.44927 8.00002C1.44927 11.6179 4.38212 14.5507 7.99998 14.5507C11.6178 14.5507 14.5507 11.6179 14.5507 8.00002C14.5507 4.38216 11.6178 1.44927 7.99998 1.44927ZM0 8.00002C0 3.58175 3.5817 0 7.99998 0C12.4183 0 16 3.58175 16 8.00002C16 12.4183 12.4182 16 7.99998 16C3.5817 16 0 12.4183 0 8.00002Z" fill="#0F20E8"/>
<path fill-rule="evenodd" clip-rule="evenodd" d="M12.0312 5.45575C12.3156 5.7373 12.3179 6.1961 12.0364 6.48052L7.76827 10.7921C7.63101 10.9308 7.44364 11.0082 7.24853 11.007C7.05343 11.0057 6.86709 10.9258 6.73166 10.7853L4.91136 8.89761L2.08489 11.8954C1.81034 12.1866 1.35172 12.2001 1.06054 11.9255C0.769352 11.651 0.755861 11.1924 1.03041 10.9012L4.37823 7.35045C4.51417 7.20627 4.70324 7.12405 4.9014 7.12293C5.09956 7.12182 5.28954 7.20191 5.42709 7.34456L7.26008 9.24544L11.0064 5.46094C11.288 5.17652 11.7468 5.17419 12.0312 5.45575Z" fill="#0F20E8"/>
<path fill-rule="evenodd" clip-rule="evenodd" d="M8.50684 5.97073C8.50684 5.57052 8.83127 5.24609 9.23147 5.24609H11.5214C11.9216 5.24609 12.246 5.57052 12.246 5.97073C12.246 6.37094 11.9216 6.69537 11.5214 6.69537H9.23147C8.83127 6.69537 8.50684 6.37094 8.50684 5.97073Z" fill="#0F20E8"/>
<path fill-rule="evenodd" clip-rule="evenodd" d="M11.5215 5.24609C11.9217 5.24609 12.2461 5.57052 12.2461 5.97073V8.26061C12.2461 8.66082 11.9217 8.98525 11.5215 8.98525C11.1213 8.98525 10.7969 8.66082 10.7969 8.26061V5.97073C10.7969 5.57052 11.1213 5.24609 11.5215 5.24609Z" fill="#0F20E8"/>
</svg>
