<svg width="183" height="250" viewBox="0 0 183 250" fill="none" xmlns="http://www.w3.org/2000/svg">
<g clip-path="url(#clip0_17900_204037)">
<path d="M95.8953 170.893C95.324 170.893 94.8406 170.432 94.7966 169.86C94.7527 169.245 95.2141 168.74 95.8294 168.696H96.2689C96.8842 168.652 97.3896 169.091 97.4335 169.685C97.4775 170.278 97.016 170.805 96.4007 170.849H95.9613C95.9613 170.849 95.9173 170.871 95.8953 170.871V170.893ZM84.9302 170.805C84.9302 170.805 84.8643 170.805 84.8423 170.805L84.4029 170.761C83.7876 170.717 83.3481 170.19 83.3921 169.575C83.436 168.959 83.9854 168.52 84.5787 168.564L85.0181 168.608C85.6334 168.652 86.0729 169.179 86.029 169.794C85.985 170.366 85.5016 170.805 84.9302 170.805ZM107.234 169.443C106.729 169.443 106.267 169.069 106.157 168.564C106.047 167.971 106.421 167.399 107.036 167.267L107.454 167.179C108.025 167.07 108.618 167.443 108.75 168.036C108.86 168.63 108.487 169.201 107.893 169.333L107.454 169.421C107.454 169.421 107.322 169.421 107.234 169.421V169.443ZM73.6355 169.201C73.6355 169.201 73.4817 169.201 73.4158 169.179L72.9763 169.091C72.383 168.959 72.0094 168.388 72.1413 167.795C72.2731 167.201 72.8664 166.828 73.4378 166.96L73.8553 167.048C74.4486 167.179 74.8221 167.751 74.7123 168.344C74.6024 168.872 74.1409 169.223 73.6355 169.223V169.201ZM118.265 166.498C117.804 166.498 117.386 166.213 117.232 165.751C117.034 165.18 117.342 164.543 117.913 164.345L118.331 164.213C118.88 164.015 119.518 164.323 119.737 164.894C119.935 165.465 119.627 166.103 119.056 166.301L118.639 166.432C118.529 166.476 118.397 166.498 118.287 166.498H118.265ZM62.6484 166.103C62.5166 166.103 62.4067 166.103 62.2749 166.037L61.8574 165.883C61.286 165.663 61.0004 165.048 61.1981 164.477C61.3959 163.905 62.0551 163.62 62.6045 163.817L63 163.971C63.5714 164.169 63.857 164.806 63.6593 165.378C63.5054 165.817 63.066 166.103 62.6265 166.103H62.6484ZM122.946 164.74C122.506 164.74 122.111 164.477 121.935 164.059C121.693 163.488 121.979 162.851 122.528 162.631L122.946 162.455C123.495 162.235 124.154 162.499 124.374 163.07C124.594 163.642 124.33 164.279 123.781 164.499L123.385 164.674C123.253 164.74 123.099 164.762 122.968 164.762L122.946 164.74ZM52.1668 161.554C51.991 161.554 51.8152 161.51 51.6614 161.422L51.2658 161.225C50.7384 160.939 50.5187 160.28 50.8044 159.73C51.09 159.181 51.7493 158.983 52.2766 159.269L51.7712 160.236L52.4744 159.357L52.6722 159.467C53.1996 159.752 53.4193 160.411 53.1336 160.961C52.9359 161.334 52.5623 161.554 52.1668 161.554ZM133.185 159.73C132.812 159.73 132.438 159.532 132.241 159.181C131.933 158.654 132.109 157.994 132.636 157.687L133.01 157.467C133.537 157.159 134.196 157.335 134.504 157.862C134.812 158.39 134.614 159.049 134.108 159.357L133.735 159.576C133.559 159.686 133.361 159.73 133.185 159.73ZM42.4102 155.621C42.1905 155.621 41.9708 155.555 41.773 155.423L41.4214 155.182C40.916 154.83 40.8061 154.149 41.1577 153.643C41.5093 153.138 42.1905 153.028 42.6959 153.38L43.0475 153.643C43.5529 153.995 43.6628 154.676 43.3112 155.182C43.0914 155.489 42.7618 155.643 42.4102 155.643V155.621ZM142.678 153.38C142.349 153.38 142.019 153.226 141.821 152.962C141.448 152.479 141.536 151.798 142.019 151.424L142.371 151.138C142.854 150.765 143.535 150.853 143.909 151.336C144.282 151.82 144.173 152.501 143.711 152.874L143.36 153.138C143.162 153.292 142.92 153.38 142.678 153.38ZM33.5327 148.458C33.269 148.458 33.0053 148.37 32.7856 148.172L32.4559 147.864C32.0165 147.447 31.9945 146.744 32.412 146.304C32.8295 145.865 33.5327 145.843 33.9722 146.26L34.2798 146.546C34.7193 146.963 34.7413 147.644 34.3457 148.106C34.126 148.348 33.8403 148.458 33.5327 148.458ZM151.226 145.799C150.941 145.799 150.677 145.689 150.457 145.491C150.018 145.073 150.018 144.37 150.457 143.931L150.765 143.623C151.182 143.184 151.885 143.184 152.325 143.623C152.764 144.041 152.764 144.744 152.325 145.183L152.017 145.491C151.798 145.711 151.512 145.821 151.226 145.821V145.799ZM25.7099 140.129C25.3803 140.129 25.0726 139.997 24.8529 139.712L24.5672 139.36C24.1937 138.899 24.2596 138.196 24.721 137.822C25.1825 137.448 25.8857 137.514 26.2592 137.976L26.5449 138.327C26.9185 138.789 26.8525 139.492 26.3911 139.866C26.1933 140.041 25.9516 140.107 25.6879 140.107L25.7099 140.129ZM158.654 137.119C158.434 137.119 158.192 137.053 157.994 136.899C157.511 136.526 157.401 135.844 157.775 135.361L158.038 135.009C158.412 134.526 159.093 134.416 159.576 134.79C160.06 135.163 160.17 135.844 159.796 136.328L159.533 136.679C159.313 136.965 158.983 137.119 158.654 137.119ZM18.1508 130.285L17.9091 129.911C17.6014 129.384 17.7552 128.725 18.2826 128.395C18.788 128.087 19.4692 128.263 19.7988 128.769L19.9527 129.032L19.0737 129.714L18.1288 130.285H18.1508ZM164.85 127.538C164.674 127.538 164.477 127.494 164.323 127.406C163.795 127.121 163.598 126.439 163.883 125.912L164.85 126.439L163.993 125.714L164.103 125.516C164.389 124.989 165.07 124.791 165.597 125.099C166.125 125.385 166.323 126.066 166.037 126.593L165.817 126.967C165.619 127.318 165.246 127.538 164.85 127.538ZM13.7779 120.704C13.3604 120.704 12.9649 120.462 12.7671 120.045L12.5913 119.627C12.3496 119.078 12.5913 118.419 13.1626 118.177C13.712 117.935 14.3712 118.177 14.6129 118.748L14.7887 119.144C15.0304 119.693 14.7887 120.353 14.2394 120.594C14.0856 120.66 13.9317 120.682 13.7999 120.682L13.7779 120.704ZM169.685 117.188C169.553 117.188 169.421 117.166 169.289 117.122C168.718 116.903 168.454 116.265 168.674 115.694L168.828 115.299C169.047 114.727 169.685 114.442 170.234 114.661C170.805 114.881 171.091 115.518 170.871 116.068L170.695 116.485C170.52 116.925 170.102 117.188 169.685 117.188ZM9.86651 109.981C9.38308 109.981 8.9436 109.673 8.81175 109.19L8.67991 108.772C8.50412 108.179 8.8557 107.586 9.42703 107.41C10.0203 107.234 10.6136 107.586 10.7894 108.157L10.9213 108.574C11.0971 109.168 10.7455 109.761 10.1742 109.937C10.0643 109.959 9.97638 109.981 9.86651 109.981ZM173.113 106.311C173.113 106.311 172.937 106.311 172.849 106.289C172.256 106.157 171.904 105.564 172.036 104.971L172.124 104.553C172.256 103.96 172.849 103.586 173.442 103.718C174.035 103.85 174.409 104.443 174.277 105.037L174.167 105.476C174.035 105.981 173.596 106.311 173.091 106.311H173.113ZM7.44936 98.8179C6.92198 98.8179 6.43854 98.4223 6.37262 97.873L6.3067 97.4335C6.2188 96.8402 6.63631 96.2689 7.22961 96.181C7.82292 96.0931 8.39424 96.5106 8.48214 97.1039L8.54806 97.5434C8.63596 98.1367 8.21845 98.708 7.62515 98.7959C7.5812 98.7959 7.51528 98.7959 7.47133 98.7959L7.44936 98.8179ZM175.024 95.0383C175.024 95.0383 174.936 95.0383 174.914 95.0383C174.321 94.9724 173.882 94.445 173.926 93.8298L173.97 93.4122C174.013 92.797 174.585 92.3575 175.156 92.4234C175.771 92.4674 176.211 93.0167 176.145 93.61L176.101 94.0715C176.035 94.6428 175.574 95.0603 175.002 95.0603L175.024 95.0383ZM6.54841 87.4353C5.95511 87.4353 5.44971 86.9518 5.44971 86.3585V85.8971C5.44971 85.2818 5.93314 84.7984 6.54841 84.7984C7.16369 84.7984 7.64712 85.2818 7.64712 85.8971V86.3146C7.64712 86.9299 7.18567 87.4133 6.57039 87.4353H6.54841ZM175.398 83.6337C174.805 83.6337 174.321 83.1723 174.299 82.557V82.1395L176.475 82.0296V82.4911C176.519 83.1064 176.035 83.6118 175.42 83.6118H175.398V83.6337ZM7.22961 76.0527C7.22961 76.0527 7.14172 76.0527 7.09777 76.0527C6.50447 75.9867 6.06498 75.4374 6.13091 74.8221L6.19683 74.3826C6.28472 73.7893 6.83408 73.3718 7.42738 73.4377C8.02068 73.5256 8.46017 74.075 8.37227 74.6683L8.30635 75.0858C8.24043 75.6351 7.75699 76.0527 7.20764 76.0527H7.22961ZM174.255 72.2951C173.728 72.2951 173.266 71.9215 173.178 71.3941L173.091 70.9547C172.981 70.3614 173.376 69.79 173.97 69.6801C174.563 69.5703 175.134 69.9658 175.244 70.5591L175.332 70.9986C175.442 71.5919 175.046 72.1632 174.453 72.2731C174.387 72.2731 174.321 72.2731 174.255 72.2731V72.2951ZM9.40506 64.8458C9.40506 64.8458 9.22926 64.8458 9.11939 64.8019C8.52609 64.6481 8.1745 64.0548 8.32832 63.4615L8.43819 63.022C8.59201 62.4287 9.20729 62.0771 9.77862 62.2529C10.3719 62.4067 10.7015 63.022 10.5477 63.5933L10.4378 64.0108C10.306 64.5162 9.86651 64.8239 9.38308 64.8239L9.40506 64.8458ZM171.53 61.1981C171.069 61.1981 170.629 60.9125 170.476 60.429L170.344 60.0115C170.168 59.4402 170.476 58.8249 171.047 58.6271C171.618 58.4513 172.234 58.759 172.431 59.3303L172.563 59.7478C172.739 60.3192 172.431 60.9344 171.86 61.1322C171.75 61.1761 171.64 61.1761 171.53 61.1761V61.1981ZM13.0967 54.0345C12.9429 54.0345 12.8111 54.0126 12.6572 53.9466C12.1079 53.7049 11.8442 53.0677 12.0859 52.4963L12.1738 52.2766L13.2725 52.5183L14.2174 53.1336L14.1295 53.3533C13.9537 53.7709 13.5362 54.0126 13.1187 54.0126L13.0967 54.0345ZM167.377 50.5626C166.96 50.5626 166.564 50.3209 166.388 49.9254L166.213 49.5298C165.949 48.9805 166.191 48.3213 166.74 48.0576C167.289 47.7939 167.949 48.0356 168.212 48.585L168.41 48.9805C168.674 49.5298 168.41 50.1891 167.883 50.4528C167.729 50.5187 167.575 50.5626 167.421 50.5626H167.377ZM18.1947 43.8385C17.997 43.8385 17.8212 43.7946 17.6454 43.6847C17.118 43.3771 16.9422 42.6959 17.2718 42.1685L17.4915 41.7949C17.7992 41.2676 18.4804 41.1137 18.9858 41.3994C19.5132 41.707 19.689 42.3882 19.3594 42.9156L19.1396 43.2892C18.9418 43.6408 18.5683 43.8385 18.1947 43.8385ZM161.84 40.6083C161.488 40.6083 161.115 40.4325 160.917 40.1029L160.675 39.7294C160.346 39.224 160.499 38.5428 161.005 38.2131C161.51 37.8835 162.191 38.0154 162.521 38.5428L162.763 38.9163C163.092 39.4217 162.938 40.1029 162.433 40.4325C162.257 40.5424 162.038 40.6083 161.84 40.6083ZM24.6112 34.3896C24.3695 34.3896 24.1277 34.3018 23.93 34.1479C23.4465 33.7744 23.3806 33.0712 23.7542 32.6097L24.0179 32.2801C24.3914 31.7967 25.0946 31.7308 25.5561 32.1043C26.0395 32.4779 26.1054 33.1591 25.7319 33.6425L25.4462 33.9941C25.2264 34.2578 24.8968 34.4116 24.5892 34.4116L24.6112 34.3896ZM154.984 31.4451C154.676 31.4451 154.369 31.3133 154.149 31.0716L153.863 30.7419C153.468 30.2805 153.512 29.5993 153.973 29.1818C154.434 28.7862 155.116 28.8302 155.533 29.2916L155.819 29.6213C156.214 30.0827 156.17 30.7639 155.709 31.1814C155.511 31.3572 155.248 31.4451 154.984 31.4451ZM32.2582 25.9076C31.9725 25.9076 31.6869 25.7978 31.4671 25.556C31.0496 25.1166 31.0716 24.4134 31.5111 23.9959L31.8187 23.6882C32.2582 23.2707 32.9394 23.2707 33.3789 23.7102C33.7964 24.1497 33.7964 24.8529 33.3569 25.2704L33.0273 25.578C32.8075 25.7758 32.5438 25.8856 32.2802 25.8856L32.2582 25.9076ZM146.963 23.3366C146.7 23.3366 146.436 23.2487 146.238 23.051L145.931 22.7653C145.469 22.3698 145.425 21.6666 145.821 21.2052C146.216 20.7437 146.919 20.6997 147.381 21.0953L147.732 21.4029C148.194 21.7985 148.216 22.5016 147.82 22.9631C147.601 23.2048 147.293 23.3366 147.007 23.3366H146.963ZM40.9819 18.5463C40.6523 18.5463 40.3007 18.3925 40.081 18.0848C39.7294 17.6014 39.8393 16.8982 40.3227 16.5466L40.6743 16.2829C41.1577 15.9314 41.8609 16.0193 42.2125 16.5247C42.5641 17.0081 42.4762 17.7113 41.9708 18.0628L41.5972 18.3265C41.3994 18.4584 41.1797 18.5243 40.9599 18.5243L40.9819 18.5463ZM137.91 16.3708C137.69 16.3708 137.492 16.3049 137.295 16.195L136.943 15.9533C136.438 15.6237 136.284 14.9425 136.613 14.4371C136.943 13.9317 137.624 13.7779 138.13 14.1075L138.503 14.3492C139.009 14.6788 139.14 15.36 138.811 15.8654C138.591 16.1731 138.262 16.3489 137.888 16.3489L137.91 16.3708ZM50.6286 12.4375C50.233 12.4375 49.8595 12.2177 49.6617 11.8661C49.3761 11.3388 49.5738 10.6576 50.1232 10.3719L50.4967 10.1741C51.0241 9.88846 51.6833 10.0862 51.991 10.6136C52.2766 11.141 52.0789 11.8222 51.5515 12.1079L51.156 12.3276C50.9802 12.4155 50.8044 12.4594 50.6286 12.4594V12.4375ZM128 10.7015C127.846 10.7015 127.67 10.6576 127.516 10.5916L127.143 10.4158C126.593 10.1522 126.352 9.49293 126.615 8.94357C126.879 8.39422 127.538 8.17448 128.087 8.41619L128.505 8.61396C129.054 8.87765 129.274 9.53687 129.01 10.0862C128.813 10.4818 128.439 10.7015 128.022 10.7015H128ZM61.0004 7.66907C60.5609 7.66907 60.1434 7.40538 59.9676 6.9659C59.7479 6.39457 60.0335 5.75732 60.6048 5.53758L61.0224 5.38376C61.5937 5.18599 62.2309 5.44968 62.4287 6.02101C62.6484 6.59234 62.3628 7.22959 61.7915 7.42735L61.3959 7.58117C61.2641 7.62512 61.1322 7.6471 61.0004 7.6471V7.66907ZM117.43 6.39457C117.32 6.39457 117.21 6.39457 117.078 6.32865L116.837 6.24075L117.013 5.14204L117.364 4.08728L117.782 4.21913C118.353 4.41689 118.661 5.03217 118.485 5.6035C118.331 6.06496 117.913 6.35062 117.452 6.35062L117.43 6.39457ZM72.2951 4.26308L71.9215 3.23029L71.6798 2.15356L72.1193 2.04369C72.7126 1.91184 73.3059 2.2854 73.4378 2.8787C73.5696 3.47201 73.196 4.06531 72.6027 4.19715L72.3171 4.26308H72.2951ZM106.377 3.5599C106.377 3.5599 106.245 3.5599 106.179 3.5599L105.762 3.47201C105.168 3.36214 104.773 2.79081 104.883 2.1975C104.993 1.6042 105.586 1.20867 106.157 1.31854L106.597 1.40644C107.19 1.51631 107.586 2.08763 107.476 2.68094C107.388 3.20832 106.926 3.58188 106.399 3.58188L106.377 3.5599ZM83.1943 2.50514C82.6449 2.50514 82.1615 2.08763 82.0956 1.51631C82.0296 0.923004 82.4911 0.37365 83.0844 0.329701L83.5239 0.285753C84.1172 0.219831 84.6665 0.681288 84.7105 1.27459C84.7544 1.86789 84.315 2.41725 83.7217 2.46119L83.2822 2.50514C83.2822 2.50514 83.2162 2.50514 83.1723 2.50514H83.1943ZM95.0384 2.24145C95.0384 2.24145 94.9944 2.24145 94.9724 2.24145H94.5329C93.9177 2.1975 93.4562 1.6921 93.4782 1.07682C93.5002 0.461546 93.9177 -0.0218851 94.6208 0.0220632H95.0603C95.6756 0.0660115 96.1371 0.593391 96.0931 1.18669C96.0711 1.78 95.5877 2.21948 94.9944 2.21948L95.0384 2.24145Z" fill="#0B00DB"/>
<path d="M61.3959 11.1411C61.2641 11.1411 61.1102 11.1191 60.9784 11.0532C60.429 10.8115 60.1434 10.1742 60.3851 9.62489L61.8134 6.19692L58.3854 4.7686C57.8361 4.52688 57.5504 3.88963 57.7921 3.34027C58.0339 2.79092 58.6711 2.50526 59.2205 2.74697L63.6592 4.61478C63.9229 4.72465 64.1427 4.94439 64.2525 5.20808C64.3624 5.47177 64.3624 5.77941 64.2525 6.0431L62.3847 10.4819C62.2089 10.8994 61.7914 11.1631 61.3739 11.1631L61.3959 11.1411Z" fill="#0B00DB"/>
<path d="M115.364 9.38314C114.969 9.38314 114.573 9.1634 114.375 8.78984C114.112 8.24049 114.31 7.58126 114.859 7.31757L118.177 5.64753L116.507 2.32944C116.243 1.78008 116.441 1.12086 116.99 0.857168C117.54 0.593478 118.199 0.791246 118.463 1.3406L120.638 5.62556C120.902 6.17491 120.704 6.83414 120.155 7.09783L115.87 9.27327C115.716 9.36117 115.54 9.38314 115.364 9.38314Z" fill="#0B00DB"/>
<path d="M163.334 42.6738C163.334 42.6738 163.202 42.6738 163.136 42.6738L158.411 41.7949C157.818 41.685 157.423 41.1137 157.532 40.5204C157.642 39.9271 158.236 39.5315 158.807 39.6414L162.455 40.3226L163.136 36.6749C163.246 36.0816 163.839 35.686 164.41 35.7959C165.004 35.9058 165.399 36.4771 165.289 37.0704L164.41 41.7949C164.322 42.3222 163.861 42.6958 163.334 42.6958V42.6738Z" fill="#0B00DB"/>
<path d="M174.563 97.4115C174.255 97.4115 173.925 97.2796 173.706 97.0159L170.673 93.2803C170.3 92.8189 170.366 92.1157 170.827 91.7421C171.289 91.3686 171.992 91.4345 172.365 91.8959L174.717 94.7746L177.595 92.4233C178.057 92.0498 178.76 92.1157 179.133 92.5771C179.507 93.0386 179.441 93.7418 178.98 94.1153L175.244 97.1478C175.046 97.3236 174.804 97.3895 174.541 97.3895L174.563 97.4115Z" fill="#0B00DB"/>
<path d="M20.6338 46.1238C20.1504 46.1238 19.7109 45.7942 19.5791 45.3108L18.5902 41.729L15.0084 42.7178C14.4151 42.8716 13.8218 42.542 13.646 41.9487C13.4922 41.3554 13.8218 40.7621 14.4151 40.6083L19.0517 39.3338C19.645 39.18 20.2383 39.5096 20.4141 40.1029L21.6886 44.7394C21.8424 45.3327 21.5128 45.926 20.9195 46.0799C20.8316 46.1018 20.7217 46.1238 20.6338 46.1238Z" fill="#0B00DB"/>
<path d="M4.06518 99.8947C3.80149 99.8947 3.5378 99.8068 3.34003 99.609C2.87857 99.2135 2.8566 98.5103 3.25213 98.0489L6.46036 94.4671C6.65813 94.2473 6.92182 94.1155 7.20748 94.0935C7.49315 94.0935 7.77881 94.1814 7.99855 94.3792L11.5803 97.5874C12.0418 97.9829 12.0638 98.6861 11.6682 99.1476C11.2727 99.609 10.5695 99.631 10.1081 99.2355L7.33933 96.7524L4.85625 99.5211C4.63651 99.7628 4.32887 99.8947 4.0432 99.8947H4.06518Z" fill="#0B00DB"/>
<path d="M181.441 169.245V188.802C181.419 204.14 172.629 219.5 155.094 231.234C137.382 243.078 114.134 248.967 90.9071 248.923C67.966 248.879 45.069 243.034 27.5556 231.388C9.88834 219.632 1.0767 204.206 1.09867 188.78V169.223" fill="#BDBFF2"/>
<path d="M91.1928 250H90.9071C66.7795 249.956 44.0582 243.671 26.9623 232.289C9.53682 220.708 -0.0219364 205.261 3.78022e-05 188.78V169.223C3.78022e-05 168.608 0.483469 168.124 1.09875 168.124C1.71402 168.124 2.19745 168.608 2.19745 169.223V188.78C2.17548 204.492 11.4046 219.302 28.1709 230.443C44.9152 241.584 67.197 247.737 90.9071 247.781H91.1708C115.101 247.781 137.58 241.562 154.456 230.289C171.113 219.148 180.298 204.404 180.32 188.78V169.245C180.32 168.63 180.803 168.146 181.419 168.146C182.034 168.146 182.517 168.63 182.517 169.245V188.802C182.495 205.195 172.959 220.577 155.665 232.135C138.415 243.671 115.518 250 91.1488 250H91.1928Z" fill="#0B00DB"/>
<path d="M27.4457 126.813C9.91031 138.547 1.12065 153.885 1.09867 169.245C1.0767 184.671 9.88834 200.097 27.5556 211.831C45.069 223.477 67.966 229.3 90.9071 229.366C114.134 229.41 137.382 223.521 155.094 211.677C172.651 199.943 181.419 184.605 181.441 169.245C181.463 153.819 172.651 138.393 154.984 126.659C137.382 114.947 114.332 109.124 91.2806 109.124C68.1858 109.124 45.069 115.035 27.4677 126.813H27.4457Z" fill="white"/>
<path d="M91.1708 230.443H90.9071C66.7795 230.399 44.0582 224.114 26.9623 212.732C9.53682 201.173 -0.0219364 185.726 3.78022e-05 169.245C0.022012 152.852 9.5588 137.47 26.8525 125.912C44.0802 114.397 66.9553 108.047 91.2807 108.047H91.3686C115.606 108.047 138.415 114.331 155.599 125.758C173.003 137.338 182.583 152.786 182.561 169.267C182.539 185.66 173.003 201.042 155.709 212.6C138.459 224.136 115.562 230.465 91.1928 230.465L91.1708 230.443ZM27.4458 126.813L28.061 127.736C11.4046 138.877 2.21943 153.621 2.19745 169.245C2.17548 184.956 11.4046 199.767 28.1709 210.908C44.9152 222.049 67.197 228.202 90.9071 228.246H91.1708C115.101 228.246 137.58 222.027 154.478 210.754C171.135 199.613 180.32 184.869 180.342 169.245C180.364 153.533 171.135 138.723 154.368 127.582C137.536 116.397 115.167 110.244 91.3686 110.244H91.2807C67.3728 110.244 44.9372 116.485 28.083 127.736L27.4677 126.813H27.4458Z" fill="#0B00DB"/>
<path d="M91.3318 221.608C136.817 221.552 173.662 198.063 173.627 169.143C173.592 140.223 136.689 116.823 91.2038 116.879C45.7181 116.934 8.87337 140.424 8.9087 169.344C8.94403 198.264 45.8461 221.663 91.3318 221.608Z" fill="#BDBFF2"/>
<path d="M91.1707 222.664C69.9217 222.664 48.6947 217.544 32.4997 207.282C16.6124 197.196 7.84473 183.748 7.82275 169.355C7.82275 154.984 16.5245 141.492 32.4118 131.383C64.8237 110.728 117.606 110.662 150.061 131.23C165.949 141.316 174.716 154.764 174.738 169.157C174.738 183.528 166.037 197.02 150.149 207.15C133.91 217.5 112.53 222.686 91.1707 222.686V222.664ZM91.3685 118.001C70.4271 118.001 49.5077 123.077 33.5765 133.229C18.3703 142.92 9.9982 155.753 10.0202 169.355C10.0202 182.957 18.4363 195.768 33.6863 205.414C65.5049 225.587 117.21 225.521 148.963 205.261C164.169 195.57 172.541 182.737 172.519 169.135C172.519 155.533 164.103 142.722 148.853 133.076C132.988 123.011 112.178 118.001 91.3465 118.001H91.3685Z" fill="#0B00DB"/>
<path d="M90.9402 207.105C127.154 207.061 156.49 190.074 156.465 169.164C156.439 148.253 127.061 131.338 90.8477 131.382C54.6339 131.427 25.2976 148.414 25.3231 169.324C25.3487 190.234 54.7264 207.149 90.9402 207.105Z" fill="white"/>
<path d="M90.819 208.161C73.8769 208.161 56.9349 204.448 44.036 197.02C31.291 189.681 24.2593 179.836 24.2373 169.333C24.2373 158.807 31.2251 148.963 43.9481 141.579C69.8117 126.615 111.892 126.549 137.778 141.47C150.523 148.809 157.555 158.653 157.577 169.157C157.577 179.683 150.589 189.527 137.866 196.91C124.901 204.426 107.849 208.161 90.819 208.161ZM91.0168 132.482C74.3823 132.482 57.7259 136.152 45.0688 143.469C33.0489 150.435 26.4347 159.598 26.4347 169.311C26.4347 179.023 33.0929 188.187 45.1128 195.109C70.405 209.655 111.519 209.611 136.745 194.999C148.765 188.033 155.379 178.87 155.379 169.157C155.379 159.444 148.721 150.303 136.701 143.359C124.088 136.108 107.563 132.482 91.0168 132.482Z" fill="#0B00DB"/>
<path d="M90.933 201.018C122.171 200.98 147.477 186.723 147.456 169.174C147.434 151.626 122.093 137.431 90.8554 137.469C59.6174 137.507 34.3113 151.764 34.3328 169.313C34.3542 186.861 59.695 201.056 90.933 201.018Z" fill="#0B00DB"/>
<path d="M90.8194 202.074C76.1846 202.074 61.5498 198.954 50.4089 192.713C39.3559 186.517 33.2691 178.21 33.2471 169.311C33.2252 160.411 39.312 152.083 50.343 145.864C72.6688 133.295 109.036 133.229 131.406 145.755C142.459 151.951 148.546 160.257 148.568 169.157C148.568 178.057 142.503 186.385 131.472 192.603C120.265 198.91 105.542 202.074 90.8194 202.074ZM90.9952 138.569C76.6681 138.569 62.3409 141.645 51.4198 147.776C41.1139 153.577 35.4226 161.224 35.4445 169.311C35.4665 177.397 41.1578 185.022 51.4637 190.802C73.2401 202.997 108.618 202.953 130.373 190.692C140.679 184.891 146.37 177.244 146.348 169.157C146.326 161.071 140.635 153.445 130.329 147.666C119.474 141.579 105.234 138.547 90.9952 138.547V138.569Z" fill="white"/>
<path d="M90.5556 195.768H90.1161C89.5009 195.768 89.0174 195.262 89.0174 194.647C89.0174 194.054 89.5228 193.548 90.1161 193.548H90.5556C91.1709 193.548 91.6543 194.054 91.6543 194.669C91.6543 195.262 91.1489 195.768 90.5556 195.768ZM101.411 195.065C100.862 195.065 100.4 194.669 100.334 194.12C100.246 193.526 100.686 192.955 101.279 192.889L101.697 192.823C102.268 192.735 102.861 193.153 102.927 193.768C103.015 194.361 102.597 194.933 101.982 194.999L101.543 195.065C101.543 195.065 101.455 195.065 101.389 195.065H101.411ZM79.1071 194.911L78.6676 194.845C78.0743 194.757 77.6568 194.186 77.7447 193.592C77.8326 192.999 78.4039 192.582 78.9972 192.669L79.3268 192.713L79.1071 194.911ZM112.464 192.691C112.002 192.691 111.563 192.384 111.409 191.922C111.233 191.351 111.563 190.736 112.134 190.56L112.552 190.428C113.145 190.252 113.738 190.56 113.936 191.153C114.112 191.725 113.804 192.34 113.211 192.538L112.793 192.669C112.793 192.669 112.574 192.713 112.464 192.713V192.691ZM68.2518 192.384C68.142 192.384 68.0321 192.384 67.9003 192.34L67.4827 192.208C66.9114 192.01 66.6038 191.395 66.8016 190.824C66.9993 190.252 67.6146 189.945 68.1859 190.142L68.5815 190.274C69.1528 190.472 69.4824 191.087 69.2846 191.659C69.1308 192.12 68.7133 192.406 68.2518 192.406V192.384ZM123.495 188.143L122.352 186.253L122.726 186.033C123.253 185.726 123.912 185.923 124.22 186.451C124.528 186.978 124.33 187.659 123.803 187.945L123.473 188.121L123.495 188.143ZM57.946 187.791C57.7482 187.791 57.5504 187.747 57.3746 187.637L57.0011 187.396C56.4737 187.088 56.3199 186.407 56.6495 185.879C56.9571 185.352 57.6383 185.198 58.1657 185.528L58.5173 185.748C59.0447 186.055 59.2205 186.736 58.8909 187.264C58.6931 187.615 58.3195 187.791 57.946 187.791ZM131.735 181.331C131.472 181.331 131.23 181.243 131.01 181.067C130.549 180.672 130.505 179.968 130.9 179.507L131.054 179.309L132.021 179.88L132.856 180.584L132.57 180.913C132.35 181.177 132.043 181.309 131.735 181.309V181.331ZM49.376 180.496C49.0464 180.496 48.7168 180.342 48.4971 180.056L48.2334 179.705C47.8598 179.221 47.9697 178.518 48.4531 178.166C48.9366 177.815 49.6397 177.903 49.9913 178.386L50.233 178.716C50.6066 179.199 50.5187 179.88 50.0353 180.254C49.8375 180.408 49.5958 180.474 49.376 180.474V180.496ZM136.174 171.135C136.174 171.135 136.13 171.135 136.108 171.135C135.493 171.091 135.031 170.585 135.075 169.97V169.575C135.119 168.959 135.603 168.498 136.218 168.498C136.833 168.498 137.295 169.025 137.295 169.619V170.08C137.229 170.673 136.745 171.113 136.174 171.113V171.135ZM45.6624 170.036C45.0471 170.036 44.5637 169.531 44.5857 168.915V168.432C44.6296 167.839 45.179 167.377 45.7723 167.399C46.3876 167.443 46.849 167.948 46.8051 168.564V168.959C46.7831 169.553 46.2997 170.036 45.6844 170.036H45.6624ZM132.768 160.565C132.438 160.565 132.109 160.411 131.889 160.126L131.625 159.796C131.252 159.313 131.362 158.631 131.845 158.258C132.328 157.884 133.01 157.994 133.383 158.478L133.647 158.829C134.021 159.313 133.911 160.016 133.427 160.367C133.229 160.521 133.01 160.587 132.768 160.587V160.565ZM49.7936 159.73C49.5518 159.73 49.2881 159.642 49.0904 159.488C48.6289 159.093 48.563 158.412 48.9366 157.95L49.2222 157.599C49.6178 157.137 50.3209 157.071 50.7824 157.467C51.2439 157.862 51.3098 158.544 50.9142 159.005L50.6505 159.335C50.4308 159.598 50.1232 159.73 49.7936 159.73ZM124.33 153.138C124.132 153.138 123.934 153.094 123.759 152.984L123.385 152.764C122.858 152.457 122.704 151.776 123.011 151.248C123.319 150.721 124 150.567 124.528 150.875L124.901 151.094C125.429 151.402 125.582 152.083 125.253 152.611C125.055 152.94 124.681 153.138 124.308 153.138H124.33ZM58.5173 152.611C58.1437 152.611 57.7702 152.413 57.5724 152.061C57.2648 151.534 57.4625 150.853 57.9899 150.567L58.3635 150.347L59.0227 151.248L59.4402 152.281L59.0666 152.501C58.8909 152.589 58.7151 152.654 58.5173 152.654V152.611ZM114.068 148.457C113.958 148.457 113.826 148.457 113.716 148.391L113.321 148.26C112.75 148.062 112.42 147.447 112.618 146.875C112.793 146.304 113.431 145.974 114.002 146.172L114.42 146.304C114.991 146.502 115.299 147.117 115.101 147.688C114.947 148.15 114.529 148.435 114.068 148.435V148.457ZM69.0209 148.106C68.5595 148.106 68.12 147.798 67.9662 147.337C67.7904 146.765 68.098 146.15 68.6913 145.952L69.1308 145.821C69.7021 145.645 70.3174 145.974 70.4932 146.568C70.669 147.139 70.3394 147.754 69.7681 147.93L69.3725 148.062C69.3725 148.062 69.1528 148.106 69.0429 148.106H69.0209ZM103.059 145.821C103.059 145.821 102.949 145.821 102.883 145.821L102.554 145.777L102.773 143.579L103.213 143.645C103.806 143.733 104.224 144.304 104.136 144.898C104.048 145.447 103.586 145.821 103.059 145.821ZM80.052 145.667C79.5026 145.667 79.0412 145.271 78.9752 144.722C78.8873 144.129 79.3048 143.557 79.9201 143.491L80.3596 143.425C80.9309 143.337 81.5023 143.755 81.5902 144.37C81.6781 144.964 81.2386 145.535 80.6453 145.601L80.2278 145.667C80.2278 145.667 80.1179 145.667 80.0739 145.667H80.052ZM91.7862 144.92H91.3467C90.7314 144.92 90.248 144.414 90.248 143.799C90.248 143.206 90.7534 142.7 91.3467 142.7H91.7862C92.4015 142.7 92.8849 143.206 92.8849 143.821C92.8849 144.414 92.3795 144.92 91.7862 144.92Z" fill="white"/>
<path d="M25.336 170.344V169.311L24.2373 169.355L24.1934 168.212L26.4347 168.146V169.267L25.336 169.311V170.344Z" fill="#0B00DB"/>
<path d="M33.0928 206.337C30.2582 204.535 27.6872 202.624 25.3359 200.646V169.333C25.3359 179.023 31.7744 188.692 44.5853 196.075C70.2072 210.82 111.738 210.776 137.316 195.965C150.083 188.582 156.456 178.914 156.478 169.245V200.668C156.478 200.668 156.566 200.778 156.697 200.976C154.522 202.777 152.149 204.535 149.556 206.183C117.43 226.663 65.285 226.729 33.0928 206.337Z" fill="#5C5FE6"/>
<path d="M91.1706 222.664C69.9216 222.664 48.6945 217.544 32.4996 207.282C29.7089 205.502 27.05 203.569 24.6328 201.503L24.2373 201.173V169.355H26.4347C26.4347 179.045 33.0929 188.209 45.1128 195.13C70.405 209.677 111.497 209.633 136.745 195.021C148.721 188.077 155.335 178.935 155.357 169.267H157.555C157.555 169.399 157.555 169.531 157.555 169.662V200.382L158.148 201.217L157.379 201.855C155.071 203.766 152.632 205.546 150.127 207.15C133.888 217.5 112.508 222.686 91.1706 222.686V222.664ZM33.6642 205.414C65.4828 225.587 117.188 225.521 148.941 205.261C151.16 203.854 153.314 202.294 155.357 200.624V179.199C152.369 185.857 146.392 191.944 137.844 196.888C111.98 211.853 69.8996 211.919 44.014 196.998C35.4222 192.054 29.4232 185.967 26.4127 179.287V200.119C28.6541 201.986 31.0932 203.766 33.6642 205.392V205.414Z" fill="#0B00DB"/>
<path d="M25.3359 75.3713L60.8462 95.8732V54.8695C45.0687 45.7502 25.3359 57.1548 25.3359 75.3713Z" fill="white"/>
<path d="M60.8463 96.972C60.6485 96.972 60.4727 96.928 60.2969 96.8182L24.7867 76.3163C24.457 76.1185 24.2373 75.7669 24.2373 75.3714C24.2373 66.4059 28.8739 58.3854 36.6307 53.9246C44.3876 49.4639 53.6387 49.4419 61.3956 53.9246C61.7252 54.1224 61.945 54.474 61.945 54.8695V95.8733C61.945 96.2688 61.7252 96.6204 61.3956 96.8182C61.2198 96.9061 61.044 96.972 60.8463 96.972ZM26.4567 74.7561L59.7475 93.9835V55.5068C52.8037 51.7492 44.6074 51.8371 37.7294 55.8144C30.8515 59.7917 26.6545 66.8234 26.4567 74.7341V74.7561Z" fill="#0B00DC"/>
<path d="M60.8462 54.8696L78.6013 44.6296L78.5793 85.6114L60.8462 95.8734V95.8514V54.8696Z" fill="#BEC0F3"/>
<path d="M60.8463 96.972C60.5167 96.972 60.209 96.8182 59.9893 96.5545C59.8355 96.3568 59.7476 96.1151 59.7476 95.8733V54.8696C59.7476 54.474 59.9673 54.1224 60.2969 53.9247L78.052 43.6847C78.3816 43.4869 78.8211 43.4869 79.1507 43.6847C79.4804 43.8825 79.7001 44.2341 79.7001 44.6296V85.6114C79.7001 86.0069 79.4804 86.3585 79.1507 86.5563L61.4176 96.7962C61.2418 96.8841 61.066 96.9501 60.8682 96.9501L60.8463 96.972ZM61.945 55.5068V93.9616L77.4807 84.9741V46.5194L61.945 55.5068Z" fill="#0B00DC"/>
<path d="M78.6015 44.6296L60.8464 54.8696C52.672 50.1452 43.4429 50.9362 36.4551 55.3311C48.387 45.0252 67.175 39.224 78.6015 44.6296Z" fill="white"/>
<path d="M36.4329 56.4297C36.4329 56.4297 36.2131 56.4297 36.1033 56.3858C35.7956 56.2979 35.5539 56.0781 35.4221 55.7925C35.2243 55.353 35.3342 54.8256 35.7077 54.496C47.2442 44.5417 66.6034 37.7737 79.0408 43.6408C79.4143 43.8166 79.656 44.1901 79.678 44.5857C79.678 45.0032 79.4802 45.3767 79.1287 45.5745L61.3735 55.8144C61.0439 56.0122 60.6044 56.0122 60.2748 55.8144C52.9355 51.5734 44.2117 51.7273 37.0042 56.2539C36.8284 56.3638 36.6306 56.4297 36.4109 56.4297H36.4329ZM49.0021 50.5626C53.0453 50.5626 57.0886 51.5734 60.8242 53.617L76.0523 44.8274C67.5703 42.0806 54.9131 44.6735 44.2776 51.0241C45.8378 50.7164 47.4199 50.5626 49.0021 50.5626Z" fill="#0B00DC"/>
<path d="M60.8242 54.9355V95.9393C60.8242 121.298 74.3603 144.744 96.3345 157.423V116.441C96.3345 91.0611 82.7764 67.6366 60.8022 54.9575L60.8242 54.9355Z" fill="white"/>
<path d="M96.3565 158.522C96.1587 158.522 95.961 158.478 95.7852 158.368C73.5473 145.535 59.7256 121.605 59.7256 95.9393V54.9355C59.7256 54.54 59.9453 54.1884 60.2749 53.9906C60.6046 53.7928 61.044 53.7928 61.3736 53.9906C83.6115 66.8235 97.4332 90.7534 97.4552 116.441V157.445C97.4552 157.84 97.2355 158.214 96.8839 158.412C96.7081 158.5 96.5323 158.544 96.3345 158.544L96.3565 158.522ZM61.923 56.8692V95.9393C61.923 120.199 74.646 142.854 95.2578 155.489V116.419C95.2578 92.1597 82.5348 69.5263 61.923 56.8692Z" fill="#0B00DC"/>
<path d="M78.6013 44.6296L60.8242 54.9575C82.7984 67.6366 96.3345 91.083 96.3564 116.441V157.445L114.134 147.117V106.113C114.134 80.7332 100.575 57.3087 78.6013 44.6296Z" fill="#BEC0F3"/>
<path d="M96.3565 158.522C96.1587 158.522 95.9829 158.478 95.8071 158.368C95.4556 158.17 95.2578 157.818 95.2578 157.423V116.419C95.2578 91.5224 81.8536 68.3177 60.2749 55.8804C59.9453 55.6826 59.7256 55.331 59.7256 54.9355C59.7256 54.5399 59.9234 54.1883 60.2749 53.9906L78.052 43.6627C78.3816 43.465 78.8211 43.465 79.1507 43.6627C101.389 56.4956 115.21 80.4255 115.232 106.113V147.117C115.232 147.513 115.013 147.864 114.683 148.062L96.9059 158.39C96.7301 158.5 96.5543 158.544 96.3565 158.544V158.522ZM62.9997 54.9574C84.2927 68.0101 97.4332 91.3906 97.4552 116.441V155.533L113.013 146.48V106.113C113.013 81.4363 99.8284 58.4074 78.5794 45.8821L62.9778 54.9355L62.9997 54.9574Z" fill="#0B00DC"/>
<path d="M96.3564 157.423V116.419L131.867 136.921C131.867 155.138 112.134 166.52 96.3564 157.423Z" fill="white"/>
<path d="M108.201 161.73C103.938 161.73 99.6966 160.609 95.8072 158.368C95.4776 158.17 95.2578 157.818 95.2578 157.423V116.419C95.2578 116.024 95.4776 115.672 95.8072 115.474C96.1368 115.276 96.5763 115.276 96.9059 115.474L132.416 135.976C132.746 136.174 132.965 136.526 132.965 136.921C132.965 145.886 128.329 153.907 120.572 158.368C116.705 160.609 112.442 161.73 108.179 161.73H108.201ZM97.4552 156.786C104.399 160.543 112.595 160.455 119.473 156.478C126.351 152.501 130.548 145.469 130.746 137.558L97.4552 118.331V156.786Z" fill="#0B00DC"/>
<path d="M131.867 136.921L149.622 126.681L114.112 106.179L96.3564 116.419V116.441L131.867 136.921Z" fill="white"/>
<path d="M131.867 138.02C131.669 138.02 131.493 137.976 131.318 137.866L95.8293 117.386C95.5876 117.254 95.4118 117.034 95.3458 116.793C95.17 116.287 95.3898 115.738 95.8293 115.496L113.584 105.256C113.914 105.058 114.353 105.058 114.683 105.256L150.193 125.758C150.523 125.956 150.743 126.307 150.743 126.703C150.743 127.099 150.523 127.45 150.193 127.648L132.438 137.888C132.262 137.976 132.087 138.042 131.889 138.042L131.867 138.02ZM98.5541 116.419L131.867 135.646L147.425 126.681L114.112 107.454L98.5541 116.419Z" fill="#0B00DC"/>
<path d="M149.622 126.681L131.867 136.921C131.867 146.37 126.571 153.951 119.276 157.819C134.152 152.633 148.567 139.25 149.622 126.659V126.681Z" fill="#BEC0F3"/>
<path d="M119.276 158.939C118.924 158.939 118.573 158.763 118.353 158.456C118.177 158.192 118.133 157.862 118.199 157.577C118.287 157.269 118.463 157.005 118.748 156.874C126.264 152.874 130.768 145.425 130.768 136.943C130.768 136.548 130.988 136.196 131.318 135.998L149.073 125.758C149.424 125.56 149.864 125.56 150.215 125.78C150.567 126 150.765 126.395 150.721 126.791C149.6 140.503 134.042 153.885 119.649 158.895C119.539 158.939 119.408 158.961 119.276 158.961V158.939ZM132.944 137.558C132.79 143.491 130.658 148.941 126.923 153.182C137.756 147.139 146.326 137.492 148.194 128.769L132.966 137.558H132.944Z" fill="#0B00DC"/>
</g>
<defs>
<clipPath id="clip0_17900_204037">
<rect width="182.539" height="250" fill="white"/>
</clipPath>
</defs>
</svg>
