<svg width="13" height="12" viewBox="0 0 13 12" fill="none" xmlns="http://www.w3.org/2000/svg">
<path d="M6.9325 0.853107L8.021 4.07133C8.08368 4.25225 8.26032 4.37286 8.45408 4.37286H11.9703C12.4148 4.37286 12.5971 4.92112 12.2381 5.16783L9.3944 7.15798C9.23483 7.26763 9.16646 7.47048 9.22915 7.6514L10.3176 10.8696C10.4544 11.2753 9.96999 11.6152 9.61096 11.363L6.76724 9.3729C6.60768 9.26325 6.39112 9.26325 6.23155 9.3729L3.38784 11.363C3.02881 11.6152 2.54438 11.2753 2.68115 10.8696L3.76965 7.6514C3.83233 7.47048 3.76396 7.27311 3.60439 7.15798L0.760642 5.16783C0.401615 4.91564 0.583996 4.37286 1.02851 4.37286H4.54468C4.74414 4.37286 4.92081 4.25225 4.9778 4.07133L6.06626 0.853107C6.20304 0.447402 6.80143 0.447402 6.9382 0.853107H6.9325Z" fill="#0F20E8"/>
<path fill-rule="evenodd" clip-rule="evenodd" d="M7.49936 0.756056L8.53696 3.82379H11.9704C12.9639 3.82379 13.3824 5.05149 12.5719 5.61146L9.79595 7.55418L10.8596 10.6992C11.1654 11.6062 10.0843 12.3733 9.27511 11.8051C9.27508 11.805 9.27514 11.8051 9.27511 11.8051L6.49951 9.86259L3.72401 11.805C3.72398 11.805 3.72404 11.805 3.72401 11.805C2.91492 12.3732 1.83339 11.6067 2.13918 10.6997L3.20307 7.55418L0.424698 5.60979C-0.375278 5.04785 0.0273454 3.82379 1.02862 3.82379H4.46207L5.52429 0.683142C5.83179 -0.227548 7.17328 -0.22788 7.4804 0.683142C7.48851 0.707175 7.49481 0.731536 7.49936 0.756056ZM4.43252 3.91151C4.43283 3.91054 4.43314 3.90958 4.43346 3.90863L4.43252 3.91151ZM6.4995 1.3436L5.52127 4.23588C5.38546 4.65678 4.97927 4.92029 4.5448 4.92029H1.37697L3.93975 6.7138L3.94644 6.71855C4.29271 6.9684 4.45354 7.40758 4.31117 7.82171C4.31092 7.82246 4.31066 7.8232 4.3104 7.82395L3.32903 10.7255L5.90041 8.92593C6.25813 8.68012 6.74088 8.68013 7.0986 8.92594L7.10262 8.92871L9.66995 10.7255L8.68862 7.82395C8.68837 7.82323 8.68812 7.82251 8.68788 7.82179C8.54832 7.41587 8.69844 6.96332 9.06081 6.71273L11.622 4.92029H8.45419C8.01581 4.92029 7.62094 4.64928 7.48047 4.24388L7.47918 4.24015L6.4995 1.3436Z" fill="#0F20E8"/>
</svg>
