<svg width="25" height="24" viewBox="0 0 25 24" fill="none" xmlns="http://www.w3.org/2000/svg">
<path fill-rule="evenodd" clip-rule="evenodd" d="M12.5 2.17391C6.84706 2.17391 2.26449 6.57323 2.26449 12C2.26449 17.4268 6.84706 21.8261 12.5 21.8261C18.1529 21.8261 22.7355 17.4268 22.7355 12C22.7355 6.57324 18.1529 2.17391 12.5 2.17391ZM0 12C0 5.37263 5.5964 0 12.5 0C19.4035 0 25 5.37262 25 12C25 18.6275 19.4035 24 12.5 24C5.59641 24 0 18.6274 0 12Z" fill="#0F20E8"/>
<path d="M10.6232 15.4202C10.4654 15.4202 10.3327 15.3685 10.2251 15.2652C10.1246 15.1619 10.0744 15.038 10.0744 14.8933C10.0744 14.7418 10.1246 14.6179 10.2251 14.5215L13.281 11.0919C13.4962 10.8509 13.6612 10.6236 13.776 10.4101C13.898 10.1966 13.9589 9.99347 13.9589 9.80065C13.9589 9.49763 13.9051 9.23594 13.7975 9.01557C13.6899 8.79519 13.5357 8.62647 13.3348 8.5094C13.134 8.38544 12.8937 8.32346 12.6139 8.32346C12.3413 8.32346 12.0938 8.39232 11.8714 8.53006C11.6562 8.6609 11.484 8.83996 11.3549 9.06722C11.233 9.28759 11.172 9.53207 11.172 9.80065C11.172 9.93838 11.1182 10.0589 11.0106 10.1622C10.9102 10.2655 10.781 10.3171 10.6232 10.3171C10.4726 10.3171 10.3434 10.2655 10.2358 10.1622C10.1282 10.0589 10.0744 9.93838 10.0744 9.80065C10.0744 9.33235 10.1856 8.91571 10.408 8.55072C10.6304 8.17884 10.9317 7.88615 11.3119 7.67267C11.6992 7.45918 12.1333 7.35244 12.6139 7.35244C13.1017 7.35244 13.5249 7.45229 13.8836 7.65201C14.2423 7.85172 14.5185 8.13407 14.7122 8.49907C14.913 8.86406 15.0135 9.29792 15.0135 9.80065C15.0135 10.021 14.9632 10.2448 14.8628 10.4721C14.7696 10.6994 14.6476 10.9163 14.497 11.1229C14.3535 11.3295 14.2064 11.5154 14.0558 11.6807L11.5916 14.3665H14.6046C14.7624 14.3665 14.8951 14.4216 15.0027 14.5318C15.1103 14.6351 15.1641 14.7556 15.1641 14.8933C15.1641 15.038 15.1103 15.1619 15.0027 15.2652C14.8951 15.3685 14.7624 15.4202 14.6046 15.4202H10.6232Z" fill="#0F20E8"/>
<path fill-rule="evenodd" clip-rule="evenodd" d="M11.3944 8.25285C11.0947 8.42155 10.8586 8.65046 10.6811 8.94721L10.679 8.95073C10.5084 9.23077 10.4169 9.55806 10.4167 9.9468C10.4184 9.94891 10.4212 9.95208 10.4255 9.95621C10.4304 9.96085 10.4336 9.96321 10.435 9.96418M11.3944 8.25285C11.4586 8.21757 11.5246 8.18586 11.5926 8.15781C11.5312 8.18717 11.4711 8.22001 11.4123 8.25633C11.1188 8.4352 10.8877 8.67867 10.7191 8.97535L10.7164 8.9802C10.5517 9.27785 10.4728 9.60335 10.4726 9.94679C10.4708 9.94891 10.468 9.95208 10.4637 9.95621L10.4574 9.9623L10.4554 9.96433M13.319 8.16954C13.3574 8.1891 13.3951 8.21021 13.4322 8.23289C13.7249 8.405 13.9439 8.65065 14.0905 8.95091C14.2375 9.25191 14.3012 9.58935 14.3012 9.94821C14.3012 10.049 14.2903 10.1486 14.2699 10.2467C14.3003 10.1416 14.314 10.0424 14.314 9.94821C14.314 9.50935 14.2266 9.15915 14.0731 8.88019L14.0694 8.87362C13.9199 8.59183 13.713 8.382 13.4437 8.23209C13.4036 8.20975 13.362 8.18888 13.319 8.16954ZM10.4236 15.0141L10.4182 15.0193C10.4175 15.0232 10.4167 15.0302 10.4167 15.0409C10.4167 15.0492 10.4174 15.0544 10.4179 15.0572C10.4184 15.0598 10.4188 15.0609 10.4189 15.0611L10.42 15.063C10.4203 15.0634 10.4207 15.064 10.4213 15.0648C10.4218 15.0652 10.4221 15.0654 10.4223 15.0655C10.4227 15.0657 10.4229 15.0659 10.4223 15.0655C10.4219 15.0654 10.4229 15.0659 10.4258 15.0664C10.4288 15.0669 10.4348 15.0677 10.4446 15.0677H14.426C14.4358 15.0677 14.4418 15.0669 14.4448 15.0664C14.4477 15.0659 14.4486 15.0655 14.4482 15.0656C14.4476 15.066 14.4478 15.0658 14.4482 15.0656C14.4489 15.0652 14.4515 15.0633 14.4558 15.0592C14.4607 15.0546 14.4631 15.0515 14.4641 15.0501M10.4236 15.0141H14.426C14.4313 15.0141 14.4349 15.0144 14.4369 15.0146C14.4384 15.0158 14.4408 15.0179 14.4441 15.0213L14.4499 15.0272L14.4558 15.0329C14.4601 15.037 14.4629 15.0402 14.4647 15.0423M10.874 7.3866C11.3462 7.12633 11.8708 7 12.4353 7C12.9986 7 13.5152 7.11589 13.9663 7.36705C14.4133 7.61595 14.7581 7.96973 14.9959 8.41636C15.2429 8.86662 15.3557 9.383 15.3557 9.94821C15.3557 10.2412 15.2891 10.5292 15.1664 10.8089C15.0587 11.0699 14.919 11.3179 14.7485 11.5524C14.595 11.7731 14.4354 11.9751 14.2692 12.1575L14.268 12.1587L12.5658 14.0141H14.426C14.7244 14.0141 14.9926 14.1239 15.1983 14.3315C15.3934 14.5214 15.5063 14.7647 15.5063 15.0409C15.5063 15.3196 15.3966 15.5703 15.1924 15.7663C14.9831 15.9672 14.7162 16.0677 14.426 16.0677H10.4446C10.1544 16.0677 9.88745 15.9672 9.67819 15.7663L9.67185 15.7602L9.66572 15.7539C9.47296 15.5557 9.375 15.3089 9.375 15.0409C9.375 14.7801 9.46387 14.5302 9.66169 14.3317L12.7067 10.9144C12.9035 10.694 13.0431 10.4985 13.1346 10.3284L13.1406 10.3172C13.2313 10.1584 13.2595 10.0377 13.2595 9.94821C13.2595 9.70104 13.2156 9.5151 13.1473 9.37535C13.0797 9.2368 12.9921 9.14624 12.8859 9.08435L12.8745 9.07769C12.7712 9.01395 12.6327 8.97102 12.4353 8.97102C12.2597 8.97102 12.1108 9.01379 11.9752 9.09777L11.9715 9.10004C11.8362 9.18234 11.7241 9.29581 11.635 9.45176C11.5568 9.59387 11.5142 9.7561 11.5142 9.94821C11.5142 10.2243 11.4014 10.4674 11.2065 10.6573C11.0007 10.8655 10.7322 10.9647 10.4446 10.9647C10.1543 10.9647 9.89312 10.8593 9.68895 10.6633C9.49025 10.4726 9.375 10.2272 9.375 9.94821C9.375 9.40169 9.50555 8.89677 9.77876 8.4476C10.0456 8.00201 10.4111 7.64647 10.8703 7.38864L10.874 7.3866Z" fill="#0F20E8"/>
</svg>
