<svg width="24" height="24" viewBox="0 0 24 24" fill="none" xmlns="http://www.w3.org/2000/svg">
<path fill-rule="evenodd" clip-rule="evenodd" d="M12 2.17391C6.57318 2.17391 2.17391 6.57323 2.17391 12C2.17391 17.4268 6.57317 21.8261 12 21.8261C17.4268 21.8261 21.8261 17.4268 21.8261 12C21.8261 6.57324 17.4268 2.17391 12 2.17391ZM0 12C0 5.37263 5.37255 0 12 0C18.6274 0 24 5.37262 24 12C24 18.6275 18.6274 24 12 24C5.37255 24 0 18.6274 0 12Z" fill="#0F20E8"/>
<path d="M12.4986 16.7615C12.3489 16.7615 12.2179 16.7053 12.1056 16.593C11.9933 16.4807 11.9372 16.346 11.9372 16.1888V9.33958L11.1175 9.68765C10.9902 9.74005 10.8705 9.76625 10.7582 9.76625C10.5935 9.76625 10.455 9.71385 10.3427 9.60906C10.2379 9.50426 10.1855 9.36952 10.1855 9.20484C10.1855 9.08507 10.2155 8.97653 10.2754 8.87922C10.3353 8.78191 10.4288 8.7108 10.5561 8.66588L12.3077 8.0371C12.3451 8.02213 12.3825 8.0109 12.42 8.00342C12.4574 7.99593 12.4911 7.99219 12.521 7.99219C12.6932 7.99219 12.8279 8.04833 12.9252 8.16061C13.03 8.26541 13.0824 8.40389 13.0824 8.57606V16.1888C13.0824 16.346 13.0263 16.4807 12.914 16.593C12.8017 16.7053 12.6632 16.7615 12.4986 16.7615Z" fill="#0F20E8"/>
<path fill-rule="evenodd" clip-rule="evenodd" d="M12.5298 8.53534C12.529 8.53549 12.5281 8.53567 12.5271 8.53587C12.524 8.53649 12.5184 8.53791 12.51 8.54124L12.501 8.54486L12.4811 8.55198V16.1883M12.4817 16.1984C12.4828 16.1999 12.4853 16.2032 12.4904 16.2083C12.4949 16.2127 12.4983 16.2157 12.5006 16.2175C12.5099 16.2174 12.5157 16.2166 12.5187 16.2161C12.5204 16.2158 12.5214 16.2155 12.522 16.2153C12.5227 16.2148 12.5258 16.2127 12.5302 16.2083C12.5353 16.2032 12.5378 16.1999 12.5389 16.1984M11.9617 8.73844L10.7375 9.17792C10.7354 9.17865 10.7335 9.17934 10.7318 9.17999C10.7304 9.18595 10.7295 9.19369 10.7295 9.20437C10.7295 9.21073 10.7298 9.21589 10.7301 9.21995C10.7356 9.22107 10.7448 9.22231 10.7587 9.22231C10.7856 9.22231 10.834 9.21607 10.9087 9.18562L11.9617 8.73844ZM12.5325 8.53546L12.5365 8.5395L12.5325 8.53546ZM12.5298 8.53534C12.5307 8.53538 12.5316 8.53542 12.5325 8.53546L12.5298 8.53534ZM12.3139 7.47002C12.3774 7.45733 12.4476 7.44824 12.5215 7.44824C12.8177 7.44824 13.1074 7.54926 13.3235 7.78957C13.5371 8.01073 13.6264 8.29041 13.6264 8.57559V16.1883C13.6264 16.4913 13.5119 16.7638 13.2988 16.9769C13.0805 17.1952 12.8019 17.3045 12.4991 17.3045C12.1958 17.3045 11.9291 17.1842 11.7218 16.9769C11.5087 16.7638 11.3942 16.4913 11.3942 16.1883V10.1604L11.3249 10.1898C11.1464 10.2633 10.956 10.3093 10.7587 10.3093C10.4672 10.3093 10.193 10.2118 9.97243 10.0059L9.96558 9.99951L9.95895 9.99289C9.74046 9.77439 9.64258 9.49564 9.64258 9.20437C9.64258 8.9891 9.69783 8.78111 9.81302 8.59392C9.9491 8.3728 10.1524 8.23206 10.3742 8.15347L12.1167 7.52794C12.1801 7.50325 12.2459 7.48363 12.3139 7.47002Z" fill="#0F20E8"/>
</svg>
