<svg width="12" height="13" viewBox="0 0 12 13" fill="none" xmlns="http://www.w3.org/2000/svg">
<path fill-rule="evenodd" clip-rule="evenodd" d="M5.99998 1.43852C3.28928 1.43852 1.08696 3.64086 1.08696 6.35158C1.08696 9.06229 3.28927 11.2646 5.99998 11.2646C8.71105 11.2646 10.913 9.06737 10.913 6.35158C10.913 6.05142 11.1564 5.8081 11.4565 5.8081C11.7567 5.8081 12 6.05142 12 6.35158C12 9.66839 9.31065 12.3516 5.99998 12.3516C2.68896 12.3516 0 9.6626 0 6.35158C0 3.04056 2.68896 0.351562 5.99998 0.351562C6.62568 0.351562 7.23525 0.446895 7.80496 0.626801C8.09118 0.717187 8.24993 1.02249 8.15955 1.30871C8.06916 1.59493 7.76386 1.75369 7.47764 1.6633C7.01473 1.51712 6.51559 1.43852 5.99998 1.43852Z" fill="white"/>
<path fill-rule="evenodd" clip-rule="evenodd" d="M11.3891 2.10393C11.6017 2.31586 11.6022 2.65997 11.3903 2.87252L5.82507 8.45405C5.72052 8.55891 5.57772 8.61656 5.42968 8.61369C5.28164 8.61083 5.14117 8.54768 5.04077 8.43885L3.74484 7.03426L1.55792 9.28094C1.34856 9.49602 1.00448 9.50066 0.789395 9.2913C0.574313 9.08193 0.569675 8.73785 0.779037 8.52277L3.36596 5.86516C3.47003 5.75824 3.61348 5.69882 3.76267 5.70081C3.91186 5.70281 4.05367 5.76605 4.15484 5.87571L5.45542 7.28534L10.6206 2.10506C10.8325 1.8925 11.1766 1.892 11.3891 2.10393Z" fill="white"/>
<path fill-rule="evenodd" clip-rule="evenodd" d="M8.74414 2.48879C8.74414 2.18864 8.98746 1.94531 9.28762 1.94531H11.005C11.3051 1.94531 11.5485 2.18864 11.5485 2.48879C11.5485 2.78894 11.3051 3.03227 11.005 3.03227H9.28762C8.98746 3.03227 8.74414 2.78894 8.74414 2.48879Z" fill="white"/>
<path fill-rule="evenodd" clip-rule="evenodd" d="M11.0054 1.94531C11.3055 1.94531 11.5489 2.18864 11.5489 2.48879V4.21164C11.5489 4.51179 11.3055 4.75512 11.0054 4.75512C10.7052 4.75512 10.4619 4.51179 10.4619 4.21164V2.48879C10.4619 2.18864 10.7052 1.94531 11.0054 1.94531Z" fill="white"/>
</svg>
