<svg width="24" height="24" viewBox="0 0 24 24" fill="none" xmlns="http://www.w3.org/2000/svg">
<path fill-rule="evenodd" clip-rule="evenodd" d="M12 2.17391C6.57321 2.17391 2.17391 6.57324 2.17391 12C2.17391 17.4268 6.5732 21.8261 12 21.8261C17.4268 21.8261 21.8261 17.4268 21.8261 12C21.8261 6.57323 17.4268 2.17391 12 2.17391ZM0 12C0 5.37263 5.37258 0 12 0C18.6274 0 24 5.37263 24 12C24 18.6274 18.6274 24 12 24C5.37259 24 0 18.6274 0 12Z" fill="#AEAEAE"/>
<path fill-rule="evenodd" clip-rule="evenodd" d="M5.35938 12C5.35938 11.3997 5.84602 10.9131 6.44633 10.9131H17.555C18.1553 10.9131 18.642 11.3997 18.642 12C18.642 12.6004 18.1553 13.087 17.555 13.087H6.44633C5.84602 13.087 5.35938 12.6004 5.35938 12Z" fill="#AEAEAE"/>
</svg>
