<svg width="176" height="101" viewBox="0 0 176 101" fill="none" xmlns="http://www.w3.org/2000/svg">
<path fill-rule="evenodd" clip-rule="evenodd" d="M123.594 54.9646C123.594 54.6239 123.871 54.3477 124.213 54.3477H138.384C138.726 54.3477 139.004 54.6239 139.004 54.9646C139.004 55.3054 138.726 55.5816 138.384 55.5816H124.213C123.871 55.5816 123.594 55.3054 123.594 54.9646Z" fill="#0F20E8"/>
<path fill-rule="evenodd" clip-rule="evenodd" d="M32.623 34.0232C32.623 33.6825 32.9004 33.4062 33.2424 33.4062H45.4523C45.7944 33.4062 46.0717 33.6825 46.0717 34.0232C46.0717 34.364 45.7944 34.6402 45.4523 34.6402H33.2424C32.9004 34.6402 32.623 34.364 32.623 34.0232Z" fill="#0F20E8"/>
<path fill-rule="evenodd" clip-rule="evenodd" d="M27.0625 51.4685C27.0625 51.1278 27.3398 50.8516 27.6819 50.8516H37.6946C38.0367 50.8516 38.314 51.1278 38.314 51.4685C38.314 51.8093 38.0367 52.0855 37.6946 52.0855H27.6819C27.3398 52.0855 27.0625 51.8093 27.0625 51.4685Z" fill="#0F20E8"/>
<path fill-rule="evenodd" clip-rule="evenodd" d="M40.5117 65.9373C40.5117 65.5965 40.789 65.3203 41.1311 65.3203H55.14C55.4821 65.3203 55.7594 65.5965 55.7594 65.9373C55.7594 66.278 55.4821 66.5542 55.14 66.5542H41.1311C40.789 66.5542 40.5117 66.278 40.5117 65.9373Z" fill="#0F20E8"/>
<path fill-rule="evenodd" clip-rule="evenodd" d="M106.059 83.5545C106.059 83.2137 106.336 82.9375 106.678 82.9375H116.411C116.753 82.9375 117.03 83.2137 117.03 83.5545C117.03 83.8952 116.753 84.1714 116.411 84.1714H106.678C106.336 84.1714 106.059 83.8952 106.059 83.5545Z" fill="#0F20E8"/>
<path fill-rule="evenodd" clip-rule="evenodd" d="M129.52 88.7146C129.52 88.3739 129.797 88.0977 130.139 88.0977H137.586C137.928 88.0977 138.205 88.3739 138.205 88.7146C138.205 89.0554 137.928 89.3316 137.586 89.3316H130.139C129.797 89.3316 129.52 89.0554 129.52 88.7146Z" fill="#0F20E8"/>
<path fill-rule="evenodd" clip-rule="evenodd" d="M128.768 36.4568C128.768 36.1161 129.045 35.8398 129.387 35.8398H134.578C134.92 35.8398 135.197 36.1161 135.197 36.4568C135.197 36.7975 134.92 37.0738 134.578 37.0738H129.387C129.045 37.0738 128.768 36.7975 128.768 36.4568Z" fill="#0F20E8"/>
<path fill-rule="evenodd" clip-rule="evenodd" d="M118.018 5.40212C118.018 5.06138 118.295 4.78516 118.637 4.78516H123.09C123.432 4.78516 123.71 5.06138 123.71 5.40212C123.71 5.74286 123.432 6.01909 123.09 6.01909H118.637C118.295 6.01909 118.018 5.74286 118.018 5.40212Z" fill="#0F20E8"/>
<path fill-rule="evenodd" clip-rule="evenodd" d="M157.127 27.7302C157.127 27.3895 157.404 27.1133 157.746 27.1133H169.116C169.458 27.1133 169.735 27.3895 169.735 27.7302C169.735 28.071 169.458 28.3472 169.116 28.3472H157.746C157.404 28.3472 157.127 28.071 157.127 27.7302Z" fill="#0F20E8"/>
<path fill-rule="evenodd" clip-rule="evenodd" d="M58.7402 83.5545C58.7402 83.2137 59.0175 82.9375 59.3596 82.9375H67.4406C67.7827 82.9375 68.06 83.2137 68.06 83.5545C68.06 83.8952 67.7827 84.1714 67.4406 84.1714H59.3596C59.0175 84.1714 58.7402 83.8952 58.7402 83.5545Z" fill="#0F20E8"/>
<path fill-rule="evenodd" clip-rule="evenodd" d="M44.3457 93.7263C44.3457 93.3856 44.623 93.1094 44.9651 93.1094H59.7113C60.0534 93.1094 60.3307 93.3856 60.3307 93.7263C60.3307 94.0671 60.0534 94.3433 59.7113 94.3433H44.9651C44.623 94.3433 44.3457 94.0671 44.3457 93.7263Z" fill="#0F20E8"/>
<path fill-rule="evenodd" clip-rule="evenodd" d="M108.006 96.9334C108.006 96.5926 108.283 96.3164 108.625 96.3164H120.865C121.207 96.3164 121.484 96.5926 121.484 96.9334C121.484 97.2741 121.207 97.5503 120.865 97.5503H108.625C108.283 97.5503 108.006 97.2741 108.006 96.9334Z" fill="#0F20E8"/>
<path fill-rule="evenodd" clip-rule="evenodd" d="M7.79102 18.6209C7.79102 18.2801 8.06833 18.0039 8.41041 18.0039H35.1896C35.5317 18.0039 35.809 18.2801 35.809 18.6209C35.809 18.9616 35.5317 19.2378 35.1896 19.2378H8.41041C8.06833 19.2378 7.79102 18.9616 7.79102 18.6209Z" fill="#0F20E8"/>
<path fill-rule="evenodd" clip-rule="evenodd" d="M159.896 63.6795C159.896 63.3387 160.174 63.0625 160.516 63.0625H166.341C166.683 63.0625 166.96 63.3387 166.96 63.6795C166.96 64.0202 166.683 64.2964 166.341 64.2964H160.516C160.174 64.2964 159.896 64.0202 159.896 63.6795Z" fill="#0F20E8"/>
<path fill-rule="evenodd" clip-rule="evenodd" d="M0.962891 57.4412C0.962891 57.1004 1.2402 56.8242 1.58229 56.8242H11.8457C12.1877 56.8242 12.4651 57.1004 12.4651 57.4412C12.4651 57.7819 12.1877 58.0581 11.8457 58.0581H1.58229C1.2402 58.0581 0.962891 57.7819 0.962891 57.4412Z" fill="#0F20E8"/>
<path fill-rule="evenodd" clip-rule="evenodd" d="M27.5486 78.4648C27.5205 78.6663 27.506 78.8721 27.506 79.0813C27.506 79.2908 27.5206 79.4969 27.5488 79.6988H15.9163C15.5742 79.6988 15.2969 79.4225 15.2969 79.0818C15.2969 78.7411 15.5742 78.4648 15.9163 78.4648H27.5486Z" fill="#0F20E8"/>
<path fill-rule="evenodd" clip-rule="evenodd" d="M32.0332 75.2261C29.8704 75.2261 28.1255 76.9575 28.1255 79.0829C28.1255 81.2084 29.8704 82.9397 32.0332 82.9397C34.196 82.9397 35.9409 81.2084 35.9409 79.0829C35.9409 76.9575 34.196 75.2261 32.0332 75.2261ZM26.8867 79.0829C26.8867 76.2668 29.1955 73.9922 32.0332 73.9922C34.8709 73.9922 37.1797 76.2668 37.1797 79.0829C37.1797 81.8991 34.8709 84.1737 32.0332 84.1737C29.1955 84.1737 26.8867 81.8991 26.8867 79.0829Z" fill="#0F20E8"/>
<path fill-rule="evenodd" clip-rule="evenodd" d="M152.881 44.4761H175.014C175.356 44.4761 175.633 44.1999 175.633 43.8592C175.633 43.5184 175.356 43.2422 175.014 43.2422H152.881C152.909 43.4441 152.924 43.6503 152.924 43.8598C152.924 44.0689 152.909 44.2747 152.881 44.4761Z" fill="#0F20E8"/>
<path fill-rule="evenodd" clip-rule="evenodd" d="M148.396 40.0035C146.234 40.0035 144.489 41.7348 144.489 43.8603C144.489 45.9857 146.234 47.7171 148.396 47.7171C150.559 47.7171 152.304 45.9857 152.304 43.8603C152.304 41.7348 150.559 40.0035 148.396 40.0035ZM143.25 43.8603C143.25 41.0441 145.559 38.7695 148.396 38.7695C151.234 38.7695 153.543 41.0441 153.543 43.8603C153.543 46.6764 151.234 48.951 148.396 48.951C145.559 48.951 143.25 46.6764 143.25 43.8603Z" fill="#0F20E8"/>
<path fill-rule="evenodd" clip-rule="evenodd" d="M139.062 74.9331H152.953C153.295 74.9331 153.573 74.6569 153.573 74.3162C153.573 73.9754 153.295 73.6992 152.953 73.6992H139.063C139.091 73.9007 139.105 74.1065 139.105 74.3156C139.105 74.5251 139.091 74.7313 139.062 74.9331Z" fill="#0F20E8"/>
<path fill-rule="evenodd" clip-rule="evenodd" d="M134.578 70.4605C132.415 70.4605 130.67 72.1918 130.67 74.3173C130.67 76.4428 132.415 78.1741 134.578 78.1741C136.741 78.1741 138.486 76.4428 138.486 74.3173C138.486 72.1918 136.741 70.4605 134.578 70.4605ZM129.432 74.3173C129.432 71.5012 131.74 69.2266 134.578 69.2266C137.416 69.2266 139.725 71.5012 139.725 74.3173C139.725 77.1334 137.416 79.408 134.578 79.408C131.74 79.408 129.432 77.1334 129.432 74.3173Z" fill="#0F20E8"/>
<path fill-rule="evenodd" clip-rule="evenodd" d="M17.2865 38.1484C17.2774 38.2641 17.2728 38.3809 17.2728 38.4988C17.2728 38.8013 17.3031 39.0967 17.361 39.3824H11.846C11.5039 39.3824 11.2266 39.1061 11.2266 38.7654C11.2266 38.4247 11.5039 38.1484 11.846 38.1484H17.2865Z" fill="#0F20E8"/>
<path fill-rule="evenodd" clip-rule="evenodd" d="M21.7988 34.6402C19.636 34.6402 17.8911 36.3715 17.8911 38.497C17.8911 40.6224 19.636 42.3538 21.7988 42.3538C23.9616 42.3538 25.7065 40.6224 25.7065 38.497C25.7065 36.3715 23.9616 34.6402 21.7988 34.6402ZM16.6523 38.497C16.6523 35.6809 18.9611 33.4062 21.7988 33.4062C24.6365 33.4062 26.9453 35.6809 26.9453 38.497C26.9453 41.3131 24.6365 43.5877 21.7988 43.5877C18.9611 43.5877 16.6523 41.3131 16.6523 38.497Z" fill="#0F20E8"/>
<path fill-rule="evenodd" clip-rule="evenodd" d="M53.9768 6.01909H61.6133C61.9554 6.01909 62.2327 5.74286 62.2327 5.40212C62.2327 5.06138 61.9554 4.78516 61.6133 4.78516H53.9766C54.0048 4.98705 54.0194 5.19324 54.0194 5.4028C54.0194 5.61189 54.0048 5.81763 53.9768 6.01909Z" fill="#0F20E8"/>
<path fill-rule="evenodd" clip-rule="evenodd" d="M49.4922 1.54643C47.3294 1.54643 45.5845 3.27778 45.5845 5.40323C45.5845 7.52869 47.3294 9.26004 49.4922 9.26004C51.655 9.26004 53.3999 7.52869 53.3999 5.40323C53.3999 3.27778 51.655 1.54643 49.4922 1.54643ZM44.3457 5.40323C44.3457 2.5871 46.6545 0.3125 49.4922 0.3125C52.3299 0.3125 54.6387 2.58711 54.6387 5.40323C54.6387 8.21937 52.3299 10.494 49.4922 10.494C46.6545 10.494 44.3457 8.21937 44.3457 5.40323Z" fill="#0F20E8"/>
<path fill-rule="evenodd" clip-rule="evenodd" d="M143.911 15.4961C143.883 15.6976 143.868 15.9034 143.868 16.1125C143.868 16.322 143.883 16.5282 143.911 16.73H134.578C134.236 16.73 133.959 16.4538 133.959 16.1131C133.959 15.7723 134.236 15.4961 134.578 15.4961H143.911Z" fill="#0F20E8"/>
<path fill-rule="evenodd" clip-rule="evenodd" d="M148.396 12.2574C146.234 12.2574 144.489 13.9887 144.489 16.1142C144.489 18.2396 146.234 19.971 148.396 19.971C150.559 19.971 152.304 18.2396 152.304 16.1142C152.304 13.9887 150.559 12.2574 148.396 12.2574ZM143.25 16.1142C143.25 13.298 145.559 11.0234 148.396 11.0234C151.234 11.0234 153.543 13.298 153.543 16.1142C153.543 18.9303 151.234 21.2049 148.396 21.2049C145.559 21.2049 143.25 18.9303 143.25 16.1142Z" fill="#0F20E8"/>
<path fill-rule="evenodd" clip-rule="evenodd" d="M107.443 31.7644C107.684 32.0062 107.682 32.3968 107.44 32.6369L77.8292 61.9131C77.6517 62.0886 77.3856 62.1406 77.1547 62.0448C76.9239 61.949 76.7734 61.7243 76.7734 61.4752V45.5329C76.7734 45.1921 77.0508 44.9159 77.3928 44.9159C77.7349 44.9159 78.0122 45.1921 78.0122 45.5329V59.9935L106.567 31.7611C106.81 31.5211 107.202 31.5225 107.443 31.7644Z" fill="#0F20E8"/>
<path fill-rule="evenodd" clip-rule="evenodd" d="M88.6993 5.13516L89.7773 5.62229C90.3515 6.22881 90.7035 7.05002 90.7035 7.95238C90.7035 9.72311 89.348 11.1814 87.618 11.318C87.483 11.2727 87.3361 11.2751 87.2023 11.3252C85.4172 11.2463 84.0004 9.76264 84.0004 7.95238C84.0004 7.10074 84.314 6.32139 84.8319 5.72657L86.1413 5.13516L86.1419 5.13488C86.953 4.77078 87.8882 4.771 88.6993 5.13516ZM52.5994 26.948L85.604 12.0454C84.037 11.3624 82.9379 9.78896 82.9379 7.95238C82.9379 7.43204 83.0262 6.93283 83.1883 6.469L47.843 22.4338C46.7548 22.9171 46.0572 23.9927 46.0572 25.1783C46.0572 67.0467 74.1431 89.7297 83.1594 95.9297C83.0157 95.4902 82.9379 95.0202 82.9379 94.5316C82.9379 92.6003 84.1533 90.96 85.85 90.3401C77.1793 84.0363 53.2394 63.4359 52.236 27.5271L52.8551 27.5099L52.5994 26.948ZM87.0213 91.1716C87.0368 91.1823 87.0521 91.1929 87.0673 91.2034C87.2796 91.3501 87.561 91.3501 87.7733 91.2034C87.782 91.1974 87.7908 91.1913 87.7995 91.1852C89.4419 91.4058 90.7035 92.8233 90.7035 94.5316C90.7035 96.3921 89.207 97.9077 87.352 97.9077C85.497 97.9077 84.0004 96.3921 84.0004 94.5316C84.0004 92.7829 85.3224 91.339 87.0213 91.1716ZM88.9438 90.374C97.5748 84.1105 121.599 63.5006 122.605 27.5271C122.612 27.2788 122.468 27.0505 122.241 26.948L89.1687 12.0148C90.6989 11.3162 91.766 9.76199 91.766 7.95238C91.766 7.40461 91.6682 6.88024 91.4894 6.39592L126.978 22.4315L126.978 22.4318C128.074 22.9311 128.769 23.9968 128.769 25.1783C128.769 67.3187 100.328 90.0127 91.505 96.0454C91.6739 95.573 91.766 95.0633 91.766 94.5316C91.766 92.6346 90.5934 91.0183 88.9438 90.374ZM87.352 3.49609C88.3159 3.49609 89.2086 3.80839 89.9354 4.33874L127.491 21.3085L127.493 21.3092C129.021 22.005 130.007 23.5038 130.007 25.1783C130.007 74.7123 91.2789 97.7507 89.6078 98.7327L89.6059 98.7338C88.9291 99.1282 88.1709 99.3137 87.4203 99.3137C86.6607 99.3137 85.9083 99.1094 85.245 98.7397L85.2364 98.7348C83.5606 97.765 44.8184 74.7121 44.8184 25.1783C44.8184 23.5084 45.801 21.9906 47.3365 21.3077L47.3385 21.3069L84.5767 4.487C85.3354 3.86707 86.3014 3.49609 87.352 3.49609ZM53.4867 27.9021C54.6849 64.2316 79.748 84.5583 87.4203 89.9437C95.0925 84.5583 120.156 64.2316 121.354 27.9021L87.4203 12.5801L53.4867 27.9021Z" fill="#0F20E8"/>
</svg>
