<svg width="32" height="22" viewBox="0 0 32 22" fill="none" xmlns="http://www.w3.org/2000/svg">
<path d="M21.1818 21.6582C18.3104 21.6551 15.5575 20.5131 13.5271 18.4827C11.4967 16.4523 10.3547 13.6993 10.3516 10.8279V0.467527C10.3516 0.343531 10.4008 0.224614 10.4885 0.136935C10.5762 0.0492572 10.6951 0 10.8191 0C13.6917 0.000616965 16.4467 1.14124 18.479 3.1714C20.5114 5.20156 21.655 7.9553 21.6587 10.8279V21.1813C21.66 21.2443 21.6485 21.3069 21.625 21.3653C21.6015 21.4237 21.5664 21.4768 21.5219 21.5213C21.4773 21.5659 21.4242 21.601 21.3658 21.6245C21.3074 21.648 21.2448 21.6595 21.1818 21.6582ZM11.3077 0.967781V10.8279C11.3105 13.3629 12.2871 15.7999 14.0355 17.6354C15.784 19.4709 18.1708 20.5645 20.7026 20.6904V10.8279C20.6997 8.29318 19.7231 5.85644 17.9746 4.02134C16.226 2.18625 13.8393 1.09308 11.3077 0.967781Z" fill="#0F20E8"/>
<path d="M10.8279 11.3071H0.467527C0.344465 11.3042 0.227263 11.254 0.14022 11.1669C0.0531761 11.0799 0.00296664 10.9627 0 10.8396C-1.67011e-06 7.96679 1.14042 5.21146 3.17072 3.17898C5.20101 1.14649 7.95511 0.00309771 10.8279 0C10.951 0.00296664 11.0682 0.0531761 11.1552 0.14022C11.2423 0.227263 11.2925 0.344465 11.2955 0.467527V10.8279C11.2955 10.953 11.2466 11.0732 11.1592 11.1627C11.0719 11.2523 10.953 11.3041 10.8279 11.3071ZM0.967781 10.351H10.351V0.967781C7.90142 1.0884 5.5842 2.11571 3.84995 3.84995C2.11571 5.5842 1.0884 7.90142 0.967781 10.351Z" fill="#0F20E8"/>
<path d="M21.1824 21.6579C21.0593 21.6549 20.9421 21.6047 20.8551 21.5177C20.768 21.4306 20.7178 21.3134 20.7148 21.1904V10.8276C20.7178 10.7046 20.768 10.5874 20.8551 10.5003C20.9421 10.4133 21.0593 10.3631 21.1824 10.3601H31.5334C31.6574 10.3601 31.7763 10.4094 31.864 10.497C31.9517 10.5847 32.0009 10.7036 32.0009 10.8276C31.9979 13.697 30.8574 16.4482 28.8296 18.4782C26.8017 20.5083 24.0518 21.6517 21.1824 21.6579ZM21.6499 11.3068V20.6901C24.1012 20.5713 26.4207 19.5449 28.1572 17.8106C29.8937 16.0762 30.923 13.758 31.0449 11.3068H21.6499Z" fill="#0F20E8"/>
</svg>
