<svg width="64" height="64" viewBox="0 0 64 64" fill="none" xmlns="http://www.w3.org/2000/svg">
<rect width="64" height="64" rx="8" fill="#1D93D2"/>
<path d="M19.2266 33.8637L23.8483 46.6559C23.8483 46.6559 24.4261 47.8528 25.0448 47.8528C25.6636 47.8528 34.8664 38.2789 34.8664 38.2789L45.1002 18.5125L19.3915 30.5616L19.2266 33.8637Z" fill="#C8DAEA"/>
<path d="M25.3559 37.145L24.4687 46.5741C24.4687 46.5741 24.0973 49.4633 26.9858 46.5741C29.8743 43.6849 32.6392 41.457 32.6392 41.457" fill="#A9C6D8"/>
<path d="M19.3108 34.3207L9.80386 31.2232C9.80386 31.2232 8.66767 30.7622 9.03352 29.7169C9.10883 29.5013 9.26076 29.3179 9.71523 29.0027C11.8217 27.5344 48.7047 14.2777 48.7047 14.2777C48.7047 14.2777 49.7461 13.9268 50.3603 14.1602C50.5122 14.2072 50.649 14.2938 50.7565 14.411C50.864 14.5282 50.9385 14.6719 50.9722 14.8273C51.0386 15.1018 51.0663 15.3843 51.0547 15.6664C51.0518 15.9106 51.0222 16.1368 50.9998 16.4916C50.7752 20.1161 44.0528 47.1665 44.0528 47.1665C44.0528 47.1665 43.6506 48.7494 42.2096 48.8036C41.8555 48.815 41.5027 48.755 41.1722 48.6272C40.8418 48.4994 40.5404 48.3063 40.2862 48.0595C37.4584 45.6271 27.6846 39.0586 25.5248 37.6141C25.4761 37.5809 25.4351 37.5376 25.4045 37.4872C25.3739 37.4368 25.3545 37.3804 25.3476 37.3219C25.3174 37.1697 25.483 36.981 25.483 36.981C25.483 36.981 42.5018 21.8535 42.9546 20.2654C42.9897 20.1424 42.8572 20.0817 42.6793 20.1356C41.549 20.5514 21.9539 32.9258 19.7913 34.2915C19.6356 34.3386 19.4711 34.3486 19.3108 34.3207Z" fill="white"/>
</svg>
