<svg width="17" height="17" viewBox="0 0 17 17" fill="none" xmlns="http://www.w3.org/2000/svg">
<path fill-rule="evenodd" clip-rule="evenodd" d="M8.5 1.53985C4.65602 1.53985 1.53986 4.65603 1.53986 8.5C1.53986 12.344 4.65602 15.4602 8.5 15.4602C12.344 15.4602 15.4601 12.344 15.4601 8.5C15.4601 4.65603 12.344 1.53985 8.5 1.53985ZM0 8.5C0 3.8056 3.80558 0 8.5 0C13.1944 0 17 3.8056 17 8.5C17 13.1944 13.1944 17 8.5 17C3.80558 17 0 13.1944 0 8.5Z" fill="#AEAEAE"/>
<path fill-rule="evenodd" clip-rule="evenodd" d="M7.73047 8.50039C7.73047 8.07518 8.07518 7.73047 8.5004 7.73047H10.7948C11.22 7.73047 11.5647 8.07518 11.5647 8.50039C11.5647 8.92561 11.22 9.27032 10.7948 9.27032H8.5004C8.07518 9.27032 7.73047 8.92561 7.73047 8.50039Z" fill="#AEAEAE"/>
<path fill-rule="evenodd" clip-rule="evenodd" d="M8.5004 4.16504C8.92562 4.16504 9.27032 4.50975 9.27032 4.93496V8.49981C9.27032 8.92503 8.92562 9.26974 8.5004 9.26974C8.07518 9.26974 7.73047 8.92503 7.73047 8.49981V4.93496C7.73047 4.50975 8.07518 4.16504 8.5004 4.16504Z" fill="#AEAEAE"/>
</svg>
