<svg width="8" height="8" viewBox="0 0 8 8" fill="none" xmlns="http://www.w3.org/2000/svg">
<path fill-rule="evenodd" clip-rule="evenodd" d="M0.106136 0.106009C0.247602 -0.0353861 0.476905 -0.035329 0.6183 0.106136L7.89037 7.38183C8.03176 7.52329 8.0317 7.7526 7.89024 7.89399C7.74877 8.03539 7.51947 8.03533 7.37807 7.89386L0.106009 0.618173C-0.0353861 0.476707 -0.035329 0.247404 0.106136 0.106009Z" fill="#DE350B"/>
<path fill-rule="evenodd" clip-rule="evenodd" d="M7.89024 0.106009C8.0317 0.247404 8.03176 0.476707 7.89037 0.618173L0.6183 7.89386C0.476905 8.03533 0.247602 8.03539 0.106136 7.89399C-0.035329 7.7526 -0.0353861 7.52329 0.106009 7.38183L7.37807 0.106136C7.51947 -0.035329 7.74877 -0.0353861 7.89024 0.106009Z" fill="#DE350B"/>
</svg>
