<svg width="24" height="24" viewBox="0 0 24 24" fill="none" xmlns="http://www.w3.org/2000/svg">
<path fill-rule="evenodd" clip-rule="evenodd" d="M0 12.001C0 11.4007 0.486647 10.9141 1.08696 10.9141H22.913C23.5133 10.9141 24 11.4007 24 12.001C24 12.6013 23.5133 13.088 22.913 13.088H1.08696C0.486647 13.088 0 12.6013 0 12.001Z" fill="#0F20E8"/>
<path fill-rule="evenodd" clip-rule="evenodd" d="M11.9991 0C12.5994 0 13.086 0.486647 13.086 1.08696V22.913C13.086 23.5134 12.5994 24 11.9991 24C11.3988 24 10.9121 23.5134 10.9121 22.913V1.08696C10.9121 0.486647 11.3988 0 11.9991 0Z" fill="#0F20E8"/>
<path fill-rule="evenodd" clip-rule="evenodd" d="M12.0003 6.40243C8.90867 6.40243 6.40243 8.90868 6.40243 12.0003C6.40243 15.0919 8.90866 17.5981 12.0003 17.5981C15.0919 17.5981 17.5981 15.0919 17.5981 12.0003C17.5981 8.90868 15.0918 6.40243 12.0003 6.40243ZM4.22852 12.0003C4.22852 7.70807 7.70805 4.22852 12.0003 4.22852C16.2925 4.22852 19.772 7.70807 19.772 12.0003C19.772 16.2925 16.2925 19.772 12.0003 19.772C7.70806 19.772 4.22852 16.2925 4.22852 12.0003Z" fill="#0F20E8"/>
</svg>
