<svg width="24" height="25" viewBox="0 0 24 25" fill="none" xmlns="http://www.w3.org/2000/svg">
<path d="M3.70984 13.8802L3.21232 13.93C3.23196 14.1264 3.2798 14.3115 3.32717 14.4746C3.34736 14.5442 3.36619 14.6059 3.38423 14.665C3.41291 14.759 3.43958 14.8465 3.46649 14.9481L3.89255 14.8354L4.23394 15.2346C4.2615 15.2145 4.28467 15.1981 4.30548 15.1836C4.29909 15.1897 4.29354 15.195 4.28858 15.1998C4.27058 15.2171 4.26016 15.2271 4.24444 15.2406L3.81803 15.6061L4.23041 15.9874C4.82163 16.534 5.53716 16.9203 6.39984 16.9203H6.42146H6.44308H6.4647H6.48633H6.50795H6.52957H6.55119H6.57281H6.59443H6.61605H6.63767H6.65929H6.68092H6.70254H6.72416H6.74578H6.7674H6.78902H6.81064H6.83226H6.85388H6.87551H6.89713H6.91875H6.94037H6.96199H6.98361H7.00523H7.02685H7.04847H7.0701H7.09172H7.11334H7.13496H7.15658H7.1782H7.19982H7.22144H7.24306H7.26469H7.28631H7.30793H7.32955H7.35117H7.37279H7.39441H7.41603H7.43765H7.45928H7.4809H7.50252H7.52414H7.54576H7.56738H7.589H7.61062H7.63224H7.65387H7.67549H7.69711H7.71873H7.74035H7.76197H7.78359H7.80521H7.82683H7.84845H7.87008H7.8917H7.91332H7.93494H7.95656H7.97818H7.9998H8.02142H8.04305H8.06467H8.08629H8.10791H8.12953H8.15115H8.17277H8.19439H8.21601H8.23763H8.25926H8.28088H8.3025H8.32412H8.34574H8.36736H8.38898H8.4106H8.43223H8.45385H8.47547H8.49709H8.51871H8.54033H8.56195H8.58357H8.60519H8.62681H8.64844H8.67006H8.69168H8.7133H8.73492H8.75654H8.77816H8.79978H8.8214H8.84303H8.86465H8.88627H8.90789H8.92951H8.95113H8.97275H8.99437H9.016H9.03762H9.05924H9.08086H9.10248H9.1241H9.14572H9.16734H9.18896H9.21058H9.23221H9.25383H9.27545H9.29707H9.31869H9.34031H9.36193H9.38355H9.40518H9.4268H9.44842H9.47004H9.49166H9.51328H9.5349H9.55652H9.57814H9.59976H9.62139H9.64301H9.66463H9.68625H9.70787H9.72949H9.75111H9.77273H9.79435H9.81598H9.8376H9.85922H9.88084H9.90246H9.92408H9.9457H9.96732H9.98895H10.0106H10.0322H10.0538H10.0754H10.0971H10.1187H10.1403H10.1619H10.1835H10.2052H10.2268H10.2484H10.27H10.2916H10.3133H10.3349H10.3565H10.3781H10.3997H10.4214H10.443H10.4646H10.4862H10.5079H10.5295H10.5511H10.5727H10.5943H10.616H10.6376H10.6592H10.6808H10.7024H10.7241H10.7457H10.7673H10.7889H10.8105H10.8322H10.8538H10.8754H10.897H10.9187H10.9403H10.9619H10.9835H11.0051H11.0268H11.0484H11.07H11.0916H11.1132H11.1349H11.1565H11.1781H11.1997H11.2213H11.243H11.2646H11.2862H11.3078H11.3295H11.3511H11.3727H11.3943H11.4159H11.4376H11.4592H11.4808H11.5024H11.524H11.5457H11.5673H11.5889H11.6105H11.6321H11.6538H11.6754H11.697H11.7186H11.7403H11.7619H11.7835H11.8051H11.8267H11.8484H11.87H11.8916H11.9132H11.9348H11.9565H11.9781H11.9997H12.0213H12.043H12.0646H12.0862H12.1078H12.1294H12.1511H12.1727H12.1943H12.2159H12.2375H12.2592H12.2808H12.3024H12.324H12.3456H12.3673H12.3889H12.4105H12.4321H12.4538H12.4754H12.497H12.5186H12.5402H12.5619H12.5835H12.6051H12.6267H12.6483H12.67H12.6916H12.7132H12.7348H12.7564H12.7781H12.7997H12.8213H12.8429H12.8646H12.8862H12.9078H12.9294H12.951H12.9727H12.9943H13.0159H13.0375H13.0591H13.0808H13.1024H13.124H13.1456H13.1672H13.1889H13.2105H13.2321H13.2537H13.2754H13.297H13.3186H13.3402H13.3618H13.3835H13.4051H13.4267H13.4483H13.4699H13.4916H13.5132H13.5348H13.5564H13.578H13.5997H13.6213H13.6429H13.6645H13.6862H13.7078H13.7294H13.751H13.7726H13.7943H13.8159H13.8375H13.8591H13.8807H13.9024H13.924H13.9456H13.9672H13.9889H14.0105H14.0321H14.0537H14.0753H14.097H14.1186H14.1402H14.1618H14.1834H14.2051H14.2267H14.2483H14.2699H14.2915H14.3132H14.3348H14.3564H14.378H14.3997H14.4213H14.4429H14.4645H14.4861H14.5078H14.5294H14.551H14.5726H14.5942H14.6159H14.6375H14.6591H14.6807H14.7023H14.724H14.7456H14.7672H14.7888H14.8105H14.8321H14.8537H14.8753H14.8969H14.9186H14.9402H14.9618H14.9834H15.005H15.0267H15.0483H15.0699H15.0915H15.1131H15.1348H15.1564H15.178H15.1996H15.2213H15.2429H15.2645H15.2861H15.3077H15.3294H15.351H15.3726H15.3942H15.4158H15.4375H15.4591H15.4807H15.5023H15.5239H15.5456H15.5672H15.5888H15.6104H15.6321H15.6537H15.6753H15.6969H15.7185H15.7402H15.7618H15.7834H15.805H15.8266H15.8483H15.8699H15.8915H15.9131H15.9348H15.9564H15.978H15.9996H16.0212H16.0429H16.0645H16.0861H16.1077H16.1293H16.151H16.1726H16.1942H16.2158H16.2374H16.2591H16.2807H16.3023H16.3239H16.3456H16.3672H16.3888H16.4104H16.432H16.4537H16.4753H16.4969H16.5185H16.5401H16.5618H16.5834H16.605H16.6266H16.6482H16.6699H16.6915H16.7131H16.7347H16.7564H16.778H16.7996H16.8212H16.8428H16.8645H16.8861H16.9077H16.9293H16.9509H16.9726H16.9942H17.0158H17.0374H17.059H17.0807H17.1023H17.1239H17.1455H17.1672H17.1888H17.2104H17.232H17.2536H17.2753H17.2969H17.2994L17.2357 17.1114L18.1472 16.851C19.1789 16.5562 19.9826 15.6061 20.0585 14.5464C20.1407 13.4376 19.5945 12.3966 18.5908 11.9199C18.5344 11.4456 18.3649 11.0138 18.0883 10.6219L17.8405 10.2709L17.5214 10.4305L17.4239 10.4307L17.2782 10.5749C17.2641 10.5888 17.2501 10.6026 17.2361 10.6165C17.2618 10.5875 17.287 10.5577 17.3093 10.5313C17.3201 10.5185 17.3302 10.5065 17.3395 10.4957L17.717 10.0552L17.2256 9.7468C16.6889 9.4099 16.1348 9.23282 15.5643 9.21913C15.1715 9.20971 14.7857 9.2781 14.4075 9.40998C13.6609 7.71554 11.8119 6.53875 9.70085 6.87652L9.70073 6.87654C7.98472 7.15154 6.55162 8.5079 6.18761 10.2076C4.3387 10.4232 3.01987 12.0395 3.21241 13.9309L3.70984 13.8802ZM3.70984 13.8802C3.72422 14.024 3.75926 14.1678 3.80177 14.3159L6.39984 10.6902C4.73984 10.8002 3.53984 12.2102 3.70984 13.8802ZM8.72416 11.6999C8.82869 11.6265 8.94738 11.5846 9.0505 11.5645C9.14462 11.5462 9.29022 11.5334 9.44188 11.5838C9.62642 11.6369 9.79281 11.6416 9.97859 11.5951C10.1204 11.5597 10.256 11.5745 10.3527 11.5975C10.4097 11.611 10.476 11.6327 10.5428 11.6665C10.4416 11.5429 10.3911 11.4022 10.3791 11.2614C10.3727 11.1851 10.3783 11.1186 10.3826 11.0781C10.3861 11.0442 10.3877 11.0324 10.3888 11.0243C10.3898 11.0171 10.3904 11.0129 10.3916 10.9988L10.3921 10.9929L10.3921 10.9929C10.4394 10.4966 10.0138 10.1236 9.52274 10.2373L8.72416 11.6999ZM8.72416 11.6999C8.80387 11.6241 8.87869 11.5297 8.93068 11.4084C8.99951 11.2478 9.00621 11.0909 8.99908 10.9625L8.99865 10.9549L8.998 10.9473C8.97004 10.6229 9.19756 10.3129 9.52271 10.2373L8.72416 11.6999ZM12.8811 13.8765C12.8592 13.7514 12.8061 13.6381 12.7257 13.5413C12.8268 13.5939 12.9231 13.6115 12.9784 13.6192C13.0588 13.6304 13.1365 13.6303 13.1739 13.6303L13.1798 13.6302C13.2881 13.6302 13.3995 13.6221 13.4882 13.6156C13.508 13.6141 13.5266 13.6128 13.5439 13.6116C13.6448 13.6047 13.7192 13.6022 13.785 13.6074C13.8964 13.6218 14.0315 13.6234 14.1743 13.5732C14.2625 13.5423 14.3347 13.4981 14.3931 13.4529C14.2757 13.5926 14.255 13.7531 14.249 13.7994L14.249 13.8C14.2401 13.8688 14.2398 13.9367 14.2398 13.9706C14.2365 14.0632 14.2395 14.1715 14.2417 14.2527C14.2426 14.2845 14.2434 14.3122 14.2436 14.3332C14.2447 14.4361 14.2386 14.4893 14.2292 14.5225C14.137 14.8414 13.7883 15.0579 13.41 14.9725L13.4057 14.9715C13.0741 14.8997 12.8319 14.5746 12.8745 14.1948C12.8854 14.1341 12.9047 14.0116 12.8811 13.8765ZM6.38059 10.1902C6.38061 10.1903 6.37989 10.1904 6.37836 10.1905L6.38059 10.1902ZM0.589844 12.5303C0.589844 6.44641 5.546 1.49023 11.6299 1.49023C17.7137 1.49023 22.6699 6.44641 22.6699 12.5303C22.6699 18.6141 17.7137 23.5702 11.6299 23.5702C5.54599 23.5702 0.589844 18.6141 0.589844 12.5303Z" fill="#0F20E8" stroke="#0F20E8"/>
</svg>
