<svg width="31" height="29" viewBox="0 0 31 29" fill="none" xmlns="http://www.w3.org/2000/svg">
<rect x="0.470703" y="1.70703" width="27.2941" height="27.2941" rx="7" fill="#3A3A3A"/>
<path d="M6.15789 12.6459C6.1588 11.6957 6.92943 10.9259 7.87964 10.9261L9.60897 10.9263C11.5096 10.9266 13.0525 12.4633 13.0606 14.3639L13.0753 17.8433C13.0794 18.8105 12.2929 19.5948 11.3257 19.588C10.3711 19.5813 9.60062 18.8056 9.60044 17.851L9.60009 16.0925C9.59991 15.1416 8.82867 14.3705 7.87783 14.369C6.9275 14.3675 6.15699 13.5962 6.15789 12.6459Z" fill="white"/>
<path d="M15.648 14.2804C16.6078 14.2804 17.3859 13.5024 17.3859 12.5426C17.3859 11.5828 16.6078 10.8047 15.648 10.8047C14.6882 10.8047 13.9102 11.5828 13.9102 12.5426C13.9102 13.5024 14.6882 14.2804 15.648 14.2804Z" fill="white"/>
<path d="M19.1622 10.931C19.1658 10.9301 19.1695 10.9297 19.1732 10.9297L19.4715 10.93C21.2322 10.9319 22.4217 12.7278 21.7365 14.3497L20.0213 18.4095C19.7332 19.0916 19.064 19.5343 18.3235 19.5327C17.0142 19.5299 16.1272 18.1985 16.6289 16.9892L19.1311 10.9578C19.1367 10.9445 19.1482 10.9345 19.1622 10.931Z" fill="white"/>
<path d="M7.01043 12.6459C7.01134 11.6957 7.78197 10.9259 8.73218 10.9261L10.4615 10.9263C12.3622 10.9266 13.9051 12.4633 13.9131 14.3639L13.9278 17.8433C13.9319 18.8105 13.1454 19.5948 12.1782 19.588C11.2236 19.5813 10.4532 18.8056 10.453 17.851L10.4526 16.0925C10.4524 15.1416 9.68121 14.3705 8.73036 14.369C7.78004 14.3675 7.00952 13.5962 7.01043 12.6459Z" fill="white"/>
<path d="M16.5006 14.2804C17.4604 14.2804 18.2384 13.5024 18.2384 12.5426C18.2384 11.5828 17.4604 10.8047 16.5006 10.8047C15.5408 10.8047 14.7627 11.5828 14.7627 12.5426C14.7627 13.5024 15.5408 14.2804 16.5006 14.2804Z" fill="white"/>
<path d="M20.0147 10.931C20.0183 10.9301 20.0221 10.9297 20.0258 10.9297L20.324 10.93C22.0848 10.9319 23.2743 12.7278 22.5891 14.3497L20.8739 18.4095C20.5857 19.0916 19.9165 19.5343 19.176 19.5327C17.8667 19.5299 16.9798 18.1985 17.4815 16.9892L19.9837 10.9578C19.9892 10.9445 20.0007 10.9345 20.0147 10.931Z" fill="white"/>
<circle cx="24.3524" cy="5.97059" r="5.97059" fill="#36B37E"/>
<path d="M24.6512 6.26999C24.3587 6.54862 23.8989 6.54862 23.6064 6.26999L23.3324 6.00909C23.1933 5.87657 22.9746 5.87657 22.8355 6.00909C22.6864 6.15108 22.6864 6.38891 22.8355 6.53089L23.3834 7.0527C23.8008 7.45026 24.4568 7.45026 24.8742 7.0527L26.467 5.5358C26.6161 5.39381 26.6161 5.15598 26.467 5.01399C26.3278 4.88147 26.1092 4.88147 25.97 5.01399L24.6512 6.26999Z" fill="#F4F5FC"/>
</svg>
