<svg width="155" height="145" viewBox="0 0 155 145" fill="none" xmlns="http://www.w3.org/2000/svg">
<path d="M8.29883 134.821L23.6891 143.308C30.2602 139.663 30.1449 130.181 23.5017 126.679L22.9398 126.391L8.29883 134.821Z" fill="#0F11D1"/>
<path d="M23.6889 144.031C23.5736 144.031 23.4439 144.002 23.3431 143.945L7.95276 135.457C7.7222 135.327 7.57812 135.097 7.57812 134.837C7.57812 134.578 7.70782 134.333 7.93838 134.203L22.5793 125.773C22.7955 125.643 23.0548 125.643 23.271 125.773L23.833 126.061C27.1906 127.834 29.2225 131.148 29.2657 134.952C29.3089 138.757 27.3491 142.114 24.0347 143.959C23.9195 144.017 23.8042 144.045 23.6889 144.045V144.031ZM9.76849 134.808L23.6889 142.489C26.326 140.875 27.8823 138.08 27.8391 134.952C27.7959 131.696 26.0522 128.842 23.1701 127.315L22.9684 127.2L9.78291 134.794L9.76849 134.808Z" fill="#0F11D1"/>
<path d="M23.4585 126.071L8.29883 134.819V117.31C15.0429 113.419 23.4585 118.29 23.4585 126.057V126.071Z" fill="#0B00DE"/>
<path d="M8.29864 135.541C8.16895 135.541 8.05367 135.512 7.93838 135.44C7.72223 135.311 7.57812 135.08 7.57812 134.821V117.312C7.57812 117.053 7.70782 116.822 7.93838 116.693C11.3248 114.733 15.3741 114.733 18.7605 116.693C22.147 118.652 24.1789 122.154 24.1789 126.074C24.1789 126.333 24.0348 126.564 23.8186 126.693L8.6589 135.44C8.54362 135.498 8.42834 135.541 8.29864 135.541ZM9.01916 117.744V133.581L22.7378 125.67C22.6081 122.442 20.8789 119.575 18.0544 117.946C15.23 116.318 11.8868 116.26 9.03354 117.744H9.01916Z" fill="white"/>
<path d="M0.721456 112.935C4.03584 111.019 7.75372 111.221 10.679 112.849L18.3454 117.287C15.4056 115.616 11.6445 115.385 8.2869 117.316L0.707031 112.935H0.721456Z" fill="#0B00DE"/>
<path d="M8.30039 118.04C8.17069 118.04 8.05541 118.011 7.94013 117.939L0.360259 113.558C0.144104 113.428 0 113.198 0 112.938C0 112.679 0.144104 112.448 0.360259 112.319C3.68905 110.402 7.68073 110.373 11.0383 112.232L18.7191 116.671C19.0649 116.872 19.1802 117.305 18.9785 117.651C18.7767 117.996 18.3444 118.112 17.9985 117.924C15.0732 116.253 11.5715 116.267 8.66065 117.953C8.54536 118.011 8.43008 118.054 8.30039 118.054V118.04ZM2.24801 112.996L8.30039 116.498C9.88553 115.662 11.6148 115.23 13.344 115.23L10.3178 113.486C7.79602 112.088 4.85629 111.93 2.24801 112.996Z" fill="white"/>
<path d="M8.30057 117.314V134.823L0.720703 130.442V112.934L8.30057 117.314Z" fill="#0F60DF"/>
<path d="M8.30039 135.546C8.17069 135.546 8.05541 135.517 7.94013 135.445L0.360259 131.064C0.144104 130.934 0 130.704 0 130.444V112.936C0 112.676 0.129693 112.446 0.360259 112.316C0.576415 112.186 0.864622 112.186 1.08078 112.316L8.66065 116.697C8.8768 116.826 9.02091 117.057 9.02091 117.316V134.825C9.02091 135.084 8.89121 135.315 8.66065 135.445C8.54536 135.502 8.43008 135.546 8.30039 135.546ZM1.44104 130.026L7.57987 133.571V117.734L1.44104 114.189V130.026Z" fill="white"/>
<path d="M131.857 21.2556C131.857 21.2556 144.265 27.553 153.387 21.2556L142.017 15.3906L131.857 21.2556Z" fill="#0F11D1"/>
<path d="M143.731 24.8006C137.361 24.8006 131.885 22.0771 131.539 21.9042C131.309 21.7889 131.15 21.5439 131.15 21.2845C131.15 21.0251 131.28 20.7802 131.511 20.6361L141.67 14.771C141.886 14.6413 142.146 14.6413 142.362 14.7566L153.732 20.6216C153.962 20.7369 154.106 20.9675 154.121 21.2125C154.135 21.4574 154.02 21.7024 153.818 21.8465C150.619 24.0513 147.059 24.8006 143.745 24.8006H143.731ZM133.456 21.1692C136.626 22.4518 145.1 25.2041 151.945 21.3133L142.045 16.2121L133.456 21.1692Z" fill="#0F11D1"/>
<path d="M131.855 21.263C131.855 14.0002 135.732 7.29938 142.015 3.66797V15.398L131.855 21.263Z" fill="#0B00DE"/>
<path d="M131.855 21.9856C131.726 21.9856 131.61 21.9568 131.495 21.8848C131.279 21.7551 131.135 21.5245 131.135 21.2651C131.135 13.7717 135.17 6.79709 141.654 3.05039C141.871 2.9207 142.159 2.9207 142.375 3.05039C142.591 3.18009 142.735 3.41067 142.735 3.67005V15.4001C142.735 15.6595 142.605 15.89 142.375 16.0197L132.216 21.8848C132.1 21.9424 131.985 21.9856 131.855 21.9856ZM141.294 4.96698C136.236 8.339 133.023 13.9158 132.619 19.9826L141.294 14.9822V4.96698Z" fill="white"/>
<path d="M136.927 0.744871L141.999 3.67017C135.716 7.30159 131.84 14.0024 131.84 21.2508L126.768 18.3255C126.768 11.0627 130.644 4.36188 136.927 0.730469V0.744871Z" fill="#0F60DF"/>
<path d="M131.853 21.9722C131.724 21.9722 131.608 21.9434 131.493 21.8713L126.464 18.9604C126.219 18.8452 126.061 18.5858 126.061 18.312C126.061 10.8186 130.095 3.84397 136.58 0.09727C136.796 -0.0324233 137.084 -0.0324233 137.301 0.09727L142.373 3.02257C142.589 3.15227 142.733 3.38282 142.733 3.64221C142.733 3.9016 142.589 4.13217 142.373 4.26187C136.335 7.74918 132.574 14.2482 132.574 21.2229C132.574 21.4822 132.43 21.7128 132.214 21.8425C132.098 21.9002 131.983 21.9434 131.853 21.9434V21.9722ZM127.502 17.9085L131.176 20.0268C131.565 13.4125 135.081 7.33126 140.615 3.68544L136.955 1.56711C131.234 5.0256 127.66 11.2221 127.516 17.9085H127.502Z" fill="white"/>
<path d="M133.97 96.9936C133.581 95.6102 133.019 94.2701 132.27 92.9731C126.319 82.5832 109.358 75.0898 89.3848 75.0898C69.412 75.0898 52.9697 82.3527 46.7733 92.4976C45.1161 95.2067 44.2227 98.132 44.2227 101.173V109.127C44.2227 110.496 44.41 111.851 44.7558 113.162C45.1449 114.617 45.7501 116.03 46.5427 117.399C52.5374 127.745 69.4552 135.21 89.3848 135.21C109.314 135.21 126.174 127.789 132.198 117.471C133.725 114.848 134.561 112.052 134.561 109.127V101.173C134.561 99.746 134.36 98.3482 133.985 96.9936H133.97Z" fill="#0F11D1"/>
<path d="M89.3716 135.932C69.6582 135.932 52.1929 128.626 45.8955 117.761C45.0597 116.32 44.4401 114.835 44.0366 113.351C43.6619 111.968 43.4746 110.541 43.4746 109.129V101.174C43.4746 98.0618 44.368 95.0212 46.1405 92.1247C52.6252 81.5042 69.9897 74.3711 89.3716 74.3711C108.754 74.3711 126.637 81.706 132.891 92.6146C133.669 93.9692 134.26 95.3814 134.663 96.7936C135.067 98.2347 135.269 99.7045 135.269 101.174V109.129C135.269 112.112 134.447 115.037 132.804 117.833C126.478 128.655 109.027 135.932 89.3716 135.932ZM89.3716 75.8121C70.4796 75.8121 53.6051 82.6715 47.3798 92.874C45.7514 95.5399 44.93 98.3355 44.93 101.174V109.129C44.93 110.411 45.103 111.708 45.4344 112.976C45.8091 114.345 46.3855 115.714 47.1492 117.04C53.1872 127.473 70.1626 134.491 89.3716 134.491C108.581 134.491 125.484 127.502 131.565 117.112C133.064 114.547 133.828 111.867 133.828 109.129V101.174C133.828 99.8342 133.64 98.4941 133.28 97.1827C132.92 95.8858 132.372 94.5889 131.652 93.3207C125.643 82.8444 108.653 75.7977 89.386 75.7977L89.3716 75.8121Z" fill="#0F11D1"/>
<path d="M130.989 96.4922V104.447C130.989 107.358 130.153 110.168 128.626 112.79C122.602 123.108 105.713 130.529 85.8125 130.529C65.8685 130.529 48.9508 123.065 42.9705 112.718C42.1779 111.349 41.5871 109.937 41.1836 108.482C40.8233 107.17 40.6504 105.816 40.6504 104.447V96.4922" fill="#0F60DF"/>
<path d="M85.8267 131.252C66.1133 131.252 48.648 123.946 42.3506 113.08C41.5148 111.639 40.8952 110.155 40.4917 108.671C40.117 107.287 39.9297 105.861 39.9297 104.448V96.494C39.9297 96.0905 40.2467 95.7734 40.6502 95.7734C41.0537 95.7734 41.3707 96.0905 41.3707 96.494V104.448C41.3707 105.731 41.5437 107.028 41.8751 108.296C42.2498 109.665 42.8262 111.034 43.5899 112.36C49.6279 122.793 66.6033 129.811 85.8123 129.811C105.021 129.811 121.925 122.822 127.991 112.432C129.49 109.867 130.254 107.172 130.254 104.448V96.494C130.254 96.0905 130.571 95.7734 130.974 95.7734C131.378 95.7734 131.695 96.0905 131.695 96.494V104.448C131.695 107.431 130.874 110.357 129.231 113.152C122.905 123.975 105.454 131.252 85.7979 131.252H85.8267Z" fill="white"/>
<path d="M130.989 96.4922V104.447C130.989 107.358 130.153 110.168 128.626 112.79C122.602 123.108 105.713 130.529 85.8125 130.529C65.8685 130.529 48.9508 123.065 42.9705 112.718C42.1779 111.349 41.5871 109.937 41.1836 108.482C40.8233 107.17 40.6504 105.816 40.6504 104.447V96.4922" fill="#0F60DF"/>
<path d="M85.8267 131.252C66.1133 131.252 48.648 123.946 42.3506 113.08C41.5148 111.639 40.8952 110.155 40.4917 108.671C40.117 107.287 39.9297 105.861 39.9297 104.448V96.494C39.9297 96.0905 40.2467 95.7734 40.6502 95.7734C41.0537 95.7734 41.3707 96.0905 41.3707 96.494V104.448C41.3707 105.731 41.5437 107.028 41.8751 108.296C42.2498 109.665 42.8262 111.034 43.5899 112.36C49.6279 122.793 66.6033 129.811 85.8123 129.811C105.021 129.811 121.925 122.822 127.991 112.432C129.49 109.867 130.254 107.172 130.254 104.448V96.494C130.254 96.0905 130.571 95.7734 130.974 95.7734C131.378 95.7734 131.695 96.0905 131.695 96.494V104.448C131.695 107.431 130.874 110.357 129.231 113.152C122.905 123.975 105.454 131.252 85.7979 131.252H85.8267Z" fill="white"/>
<path d="M130.989 96.489C130.989 99.3999 130.153 102.21 128.626 104.833C122.602 115.15 105.713 122.572 85.8125 122.572C65.8685 122.572 48.9508 115.107 42.9705 104.761C42.1779 103.392 41.5871 101.979 41.1836 100.524C40.8233 99.2126 40.6504 97.858 40.6504 96.489C40.6504 93.4484 41.5583 90.5231 43.2011 87.814C49.3975 77.6691 66.1279 70.4062 85.8125 70.4062C105.8 70.4062 122.746 77.8996 128.698 88.2895C129.447 89.5865 130.009 90.9266 130.398 92.31C130.773 93.6646 130.975 95.0624 130.975 96.489H130.989Z" fill="#0F20DF"/>
<path d="M85.8267 123.294C66.1133 123.294 48.648 115.988 42.3506 105.123C41.5148 103.682 40.8952 102.197 40.4917 100.713C40.117 99.3296 39.9297 97.903 39.9297 96.4908C39.9297 93.3782 40.8231 90.3376 42.5956 87.4411C49.0803 76.8206 66.4448 69.6875 85.8267 69.6875C105.209 69.6875 123.092 77.0224 129.346 87.931C130.124 89.2856 130.715 90.6978 131.119 92.1245C131.522 93.5655 131.724 95.0353 131.724 96.4908C131.724 99.4737 130.902 102.399 129.26 105.195C122.933 116.017 105.482 123.294 85.8267 123.294ZM85.8267 71.1285C66.9347 71.1285 50.0602 77.9879 43.8349 88.1904C42.2066 90.8563 41.3851 93.652 41.3851 96.4908C41.3851 97.7733 41.5581 99.0702 41.8895 100.338C42.2642 101.707 42.8406 103.076 43.6044 104.402C49.6423 114.835 66.6177 121.853 85.8267 121.853C105.036 121.853 121.939 114.864 128.006 104.474C129.505 101.909 130.268 99.2144 130.268 96.4908C130.268 95.1506 130.081 93.8105 129.721 92.4991C129.36 91.2022 128.813 89.9053 128.092 88.6371C122.083 78.1608 105.093 71.1141 85.8267 71.1141V71.1285Z" fill="white"/>
<path d="M112.789 96.4918C112.789 98.0625 112.299 99.5756 111.377 100.988C107.774 106.55 97.7012 110.556 85.827 110.556C73.9529 110.556 63.8224 106.536 60.2486 100.945C59.7731 100.21 59.4128 99.4459 59.1823 98.6533C58.9661 97.9472 58.8652 97.2123 58.8652 96.4774C58.8652 94.8346 59.3984 93.2638 60.3927 91.794C64.0818 86.318 74.0826 82.3984 85.827 82.3984C97.7588 82.3984 107.875 86.4477 111.434 92.039C111.881 92.7451 112.227 93.4656 112.443 94.2149C112.659 94.9643 112.789 95.6992 112.789 96.4629V96.4918Z" fill="#0F11D1"/>
<path d="M84.0115 119.845H83.9971V119.124L83.8674 119.845C83.4639 119.845 83.1469 119.513 83.1613 119.11C83.1613 118.721 83.4927 118.404 83.8818 118.404C83.8818 118.404 84.0259 118.404 84.0403 118.404C84.4438 118.404 84.7464 118.749 84.7464 119.139C84.7464 119.528 84.415 119.845 84.0259 119.845H84.0115ZM91.2599 119.657C90.8852 119.657 90.5394 119.369 90.5106 118.994C90.4817 118.605 90.7411 118.259 91.1302 118.216C91.5337 118.173 91.9516 118.461 91.9804 118.865C92.0092 119.254 91.7931 119.6 91.404 119.643C91.404 119.643 91.2887 119.643 91.2743 119.643L91.2599 119.657ZM76.7054 119.254C76.7054 119.254 76.6478 119.254 76.619 119.254C76.619 119.254 76.4604 119.239 76.4604 119.225C76.0714 119.167 75.7976 118.793 75.8552 118.404C75.9128 118.014 76.2875 117.741 76.6766 117.798C77.0657 117.856 77.4115 118.231 77.3539 118.62C77.2962 118.98 77.0513 119.254 76.7054 119.254ZM98.4506 118.663C98.1192 118.663 97.8166 118.432 97.7445 118.087C97.6581 117.697 97.9175 117.308 98.3066 117.236L98.4506 117.208C98.8397 117.135 99.2144 117.38 99.3009 117.77C99.3874 118.159 99.1279 118.533 98.7389 118.62L98.5948 117.914V118.649C98.5948 118.649 98.5083 118.663 98.4506 118.663ZM69.5146 117.827C69.5146 117.827 69.3994 117.827 69.3417 117.798L69.1976 117.755C68.8085 117.654 68.5924 117.251 68.6933 116.876C68.7942 116.487 69.1976 116.271 69.5723 116.372C69.947 116.473 70.2496 116.89 70.1487 117.265C70.0622 117.597 69.8173 117.813 69.5146 117.813V117.827ZM105.541 116.804C105.238 116.804 104.964 116.617 104.863 116.314C104.734 115.939 104.935 115.522 105.324 115.406C105.699 115.277 106.175 115.449 106.304 115.824C106.434 116.199 106.304 116.588 105.915 116.718L105.771 116.761C105.699 116.79 105.613 116.804 105.541 116.804ZM62.5977 115.464C62.4968 115.464 62.4103 115.449 62.3095 115.406L62.5977 114.743L62.1942 115.349C61.8195 115.204 61.6466 114.772 61.8051 114.412C61.9492 114.037 62.3671 113.864 62.7418 114.008L62.8859 114.066C63.2461 114.225 63.4191 114.642 63.2605 115.017C63.1453 115.291 62.8715 115.449 62.5977 115.449V115.464ZM112.285 113.936C112.025 113.936 111.78 113.792 111.651 113.562C111.463 113.216 111.593 112.769 111.953 112.582C112.299 112.394 112.803 112.495 112.991 112.841C113.178 113.187 113.106 113.591 112.76 113.778L112.63 113.85C112.515 113.908 112.4 113.936 112.285 113.936ZM56.1418 112.02C55.9977 112.02 55.868 111.977 55.7383 111.89L56.1418 111.299L55.6231 111.818C55.2916 111.602 55.2051 111.155 55.4213 110.824C55.6375 110.492 56.0842 110.406 56.4156 110.622L56.5453 110.708C56.8767 110.925 56.9632 111.386 56.7326 111.703C56.5885 111.905 56.3724 112.02 56.1418 112.02ZM118.366 109.873C118.164 109.873 117.977 109.786 117.833 109.628C117.573 109.325 117.588 108.878 117.89 108.605C117.89 108.605 118.006 108.504 118.02 108.489C118.323 108.23 118.784 108.273 119.043 108.576C119.303 108.878 119.259 109.339 118.957 109.584L118.496 109.037L118.87 109.671C118.726 109.801 118.553 109.858 118.395 109.858L118.366 109.873ZM50.637 107.221C50.4353 107.221 50.2336 107.135 50.0895 106.962L50.637 106.501L50.003 106.861C49.7436 106.558 49.7724 106.112 50.0751 105.838C50.3777 105.578 50.8244 105.607 51.0982 105.91L51.1991 106.025C51.4585 106.328 51.4152 106.789 51.1126 107.034C50.9829 107.149 50.81 107.207 50.6515 107.207L50.637 107.221ZM123.107 104.325C122.992 104.325 122.876 104.296 122.761 104.238C122.415 104.051 122.271 103.619 122.458 103.258C122.458 103.258 122.53 103.114 122.545 103.114C122.747 102.768 123.179 102.653 123.525 102.855C123.871 103.057 123.986 103.489 123.784 103.835L123.164 103.474L123.726 103.936C123.597 104.181 123.352 104.31 123.092 104.31L123.107 104.325ZM47.121 100.866C46.8039 100.866 46.5157 100.65 46.4292 100.333L47.121 100.146L46.386 100.203C46.2851 99.8142 46.5013 99.4251 46.8904 99.3098C47.2795 99.209 47.6685 99.4251 47.7838 99.8142L47.8271 99.9583C47.9279 100.347 47.7118 100.736 47.3227 100.837C47.265 100.852 47.193 100.866 47.1353 100.866H47.121ZM125.081 97.35H125.067C124.663 97.35 124.361 97.0042 124.361 96.6151V96.399C124.361 95.9955 124.678 95.6784 125.081 95.6784C125.485 95.6784 125.802 95.9955 125.802 96.399V96.6583C125.802 97.0474 125.47 97.3645 125.081 97.3645V97.35ZM47.0921 93.5745C47.0921 93.5745 46.9768 93.5745 46.9336 93.5457C46.5445 93.4448 46.3139 93.099 46.4148 92.7243L46.458 92.5658C46.5733 92.1911 46.9768 91.975 47.3515 92.0903C47.7262 92.2055 47.9423 92.609 47.8271 92.9837C47.7406 93.3151 47.4235 93.5745 47.0921 93.5745ZM123.208 90.2601C122.963 90.2601 122.718 90.1304 122.588 89.8999C122.386 89.554 122.473 89.0497 122.819 88.8623C123.164 88.675 123.568 88.7182 123.77 89.0641L123.842 89.1938C124.043 89.5396 123.914 89.9863 123.568 90.1737C123.453 90.2313 123.337 90.2601 123.208 90.2601ZM50.5938 87.1763C50.4353 87.1763 50.2912 87.1331 50.1615 87.0322C49.8589 86.7728 49.7724 86.3693 50.0318 86.0667L50.1183 85.9514C50.3777 85.6488 50.8388 85.6056 51.1414 85.865C51.444 86.1243 51.4873 86.5711 51.2279 86.8737C51.0694 87.061 50.8244 87.1619 50.5938 87.1619V87.1763ZM118.524 84.6545C118.351 84.6545 118.193 84.5969 118.049 84.4816C117.746 84.2222 117.66 83.7322 117.919 83.4152C118.178 83.1126 118.582 83.0261 118.885 83.2855L119 83.3864C119.302 83.6458 119.331 84.1069 119.072 84.4095C118.928 84.568 118.726 84.6545 118.524 84.6545ZM56.1418 82.3633C55.9113 82.3633 55.6663 82.2624 55.5366 82.075C55.3205 81.7436 55.3493 81.3401 55.6663 81.124L55.796 81.0375C56.1274 80.8213 56.5741 80.9078 56.7903 81.2392C57.0065 81.5707 56.92 82.0174 56.5885 82.2336C56.4588 82.32 56.3004 82.3633 56.1274 82.3633H56.1418ZM112.472 80.5476C112.357 80.5476 112.241 80.5187 112.126 80.4611C111.78 80.2737 111.579 79.7982 111.766 79.4524C111.953 79.1065 112.328 78.9336 112.674 79.1209L112.803 79.193C113.149 79.3803 113.293 79.8126 113.106 80.1729C112.976 80.4178 112.731 80.5476 112.472 80.5476ZM62.6265 78.9192C62.3383 78.9192 62.0357 78.7751 61.9348 78.5013C61.7763 78.141 61.8772 77.7519 62.2518 77.5934L62.3959 77.5358C62.7562 77.3917 63.1885 77.5646 63.3326 77.9393C63.4767 78.3139 63.3038 78.7318 62.9435 78.8759C62.8426 78.9192 62.7418 78.9336 62.6409 78.9336L62.6265 78.9192ZM105.742 77.6655C105.742 77.6655 105.598 77.6655 105.526 77.6367C105.526 77.6367 105.382 77.5934 105.368 77.579C104.993 77.4493 104.791 77.0458 104.921 76.6567C105.051 76.2821 105.454 76.0803 105.829 76.21L105.598 76.8873L105.958 76.2532C106.333 76.3685 106.549 76.7864 106.434 77.1611C106.333 77.4637 106.059 77.6655 105.742 77.6655ZM69.457 76.5991C69.14 76.5991 68.8374 76.3829 68.7653 76.0515C68.6644 75.6624 68.895 75.2733 69.2841 75.1725L69.457 75.8642L69.3994 75.1292C69.7885 75.0284 70.1775 75.2589 70.2784 75.6336C70.3793 76.0227 70.1631 76.4118 69.7741 76.5126L69.6299 76.5559C69.5723 76.5703 69.5147 76.5847 69.457 76.5847V76.5991ZM98.6668 75.7777C98.6668 75.7777 98.566 75.7777 98.5228 75.7633C98.1337 75.6768 97.8167 75.2877 97.8887 74.8987C97.9608 74.5096 98.2922 74.2502 98.6668 74.3223L98.8109 74.3511C99.2 74.4376 99.4594 74.8122 99.3729 75.2013C99.3009 75.5471 98.9983 75.7777 98.6668 75.7777ZM76.6334 75.1725C76.2731 75.1725 75.9705 74.9131 75.9128 74.5528C75.8552 74.1638 76.1434 73.8035 76.5325 73.7459L76.6334 74.4664L76.6622 73.7314C77.0513 73.6738 77.4259 73.9476 77.4836 74.3367C77.5412 74.7257 77.2674 75.1004 76.8784 75.1581C76.8784 75.1581 76.7198 75.1725 76.7198 75.1869C76.691 75.1869 76.6622 75.1869 76.619 75.1869L76.6334 75.1725ZM91.404 74.769C91.404 74.769 91.3607 74.769 91.3463 74.769C90.9573 74.7402 90.5826 74.3799 90.6258 73.9908C90.6546 73.6018 90.9429 73.2847 91.332 73.3279C91.332 73.3279 91.476 73.3279 91.4905 73.3279C91.8939 73.3568 92.1822 73.717 92.1389 74.1061C92.1101 74.4808 91.7931 74.769 91.4184 74.769H91.404ZM84.0835 74.5672C83.6945 74.5672 83.3054 74.2646 83.2909 73.8755C83.2909 73.4721 83.5215 73.155 83.925 73.1406H84.0691C84.5014 73.1406 84.8041 73.4432 84.8041 73.8323C84.8041 74.2214 84.5014 74.5672 84.0979 74.5672H84.0835Z" fill="white"/>
<path d="M82.0667 62.0599L65.7109 53.8748L78.0606 19.0738L86.0151 13.7852H86.0439C93.1339 17.114 107.328 23.7571 107.328 23.7571L96.5635 46.1076L113.107 54.0333L83.623 87.9409C81.4038 90.4915 78.8532 92.7252 76.0431 94.5841L72.2821 97.0771L82.0523 62.0599H82.0667Z" fill="#0F11D1"/>
<path d="M72.2962 97.815C72.1521 97.815 71.9936 97.7718 71.8783 97.6709C71.6333 97.498 71.5325 97.181 71.6045 96.8927L81.2162 62.4375L65.3937 54.5262C65.0622 54.3677 64.9181 53.9786 65.0334 53.6472L77.3831 18.8462C77.4407 18.7021 77.5272 18.5724 77.6569 18.4859L85.6114 13.1973C85.7123 13.1253 85.8275 13.082 85.9572 13.082C86.0869 13.082 86.2454 13.082 86.3607 13.1397L107.645 23.1117C107.818 23.1981 107.947 23.3422 108.02 23.5295C108.077 23.7169 108.077 23.9042 107.991 24.0772L97.5431 45.7792L113.423 53.3878C113.625 53.4887 113.769 53.6761 113.813 53.8922C113.856 54.1084 113.813 54.3389 113.654 54.5118L84.1704 88.4194C81.9079 91.0133 79.3141 93.2901 76.4464 95.1923L72.6853 97.6853C72.57 97.7718 72.4259 97.8006 72.2818 97.8006L72.2962 97.815ZM66.6185 53.5319L82.3979 61.4288C82.7005 61.5873 82.859 61.9332 82.7726 62.2646L73.5211 95.4229L75.6683 93.9962C78.4351 92.1661 80.928 89.9758 83.104 87.4828L111.968 54.2957L96.2895 46.7735C96.1165 46.687 95.9869 46.5429 95.9149 46.3556C95.8428 46.1682 95.8572 45.9809 95.9436 45.808L106.391 24.106L86.1158 14.6095L78.68 19.5523L66.6185 53.5175V53.5319Z" fill="white"/>
<path d="M99.3447 29.0645C95.7997 36.4282 88.5658 51.487 88.5658 51.487L105.123 59.2398L72.2965 97.0814L82.0667 62.0643L65.7109 53.8792L78.0606 19.0781C78.0606 19.0781 92.2404 25.7213 99.3447 29.0501V29.0645Z" fill="#0F60DF"/>
<path d="M72.297 97.817C72.1817 97.817 72.0664 97.7882 71.9511 97.7305C71.6485 97.572 71.5044 97.2262 71.5909 96.9091L81.2026 62.4539L65.38 54.5426C65.0485 54.3841 64.9044 53.995 65.0197 53.6636L77.3694 18.8626C77.4415 18.6752 77.5856 18.5167 77.7729 18.4447C77.9602 18.3726 78.1764 18.3726 78.3493 18.4447L99.6334 28.4166C99.8063 28.5031 99.9361 28.6472 100.008 28.8201C100.066 29.0075 100.066 29.1948 99.9793 29.3677L89.5174 51.1274L105.412 58.5776C105.614 58.6784 105.772 58.8657 105.816 59.0819C105.859 59.2981 105.815 59.5286 105.657 59.7016L72.8302 97.5432C72.6861 97.7017 72.4843 97.7882 72.2826 97.7882L72.297 97.817ZM66.6193 53.5339L82.3986 61.4308C82.7012 61.5893 82.8598 61.9352 82.7733 62.2666L73.8677 94.2L103.971 59.4998L88.2781 52.1505C88.1052 52.0641 87.9755 51.92 87.9034 51.747C87.8458 51.5597 87.8457 51.3724 87.9322 51.1994L98.3941 29.4398L78.4934 20.1163L66.6193 53.5627V53.5339Z" fill="white"/>
<path d="M99.3449 29.7844C99.1143 29.7844 98.8838 29.6691 98.7397 29.453C98.5235 29.1215 98.61 28.6748 98.9414 28.4586L106.824 23.2709C107.155 23.0548 107.602 23.1412 107.818 23.4727C108.034 23.8041 107.948 24.2508 107.616 24.467L99.734 29.6547C99.6187 29.7412 99.4746 29.77 99.3449 29.77V29.7844Z" fill="white"/>
<path d="M105.124 59.9414C104.893 59.9414 104.663 59.8261 104.519 59.61C104.302 59.2785 104.403 58.8318 104.735 58.6157L112.718 53.4423C113.049 53.2262 113.496 53.3271 113.712 53.6585C113.928 53.99 113.828 54.4367 113.496 54.6528L105.513 59.8262C105.398 59.8982 105.253 59.9414 105.124 59.9414Z" fill="white"/>
<path d="M89.475 51.8011C89.2444 51.8011 89.0283 51.7002 88.8842 51.4985C88.6536 51.1671 88.7401 50.7203 89.0571 50.4898L96.1614 45.5326C96.4785 45.302 96.9396 45.3885 97.1702 45.7055C97.4007 46.037 97.3143 46.4837 96.9973 46.7142L89.8929 51.6714C89.7632 51.7579 89.6191 51.8011 89.475 51.8011Z" fill="white"/>
<path d="M60.1331 68.7779C59.9169 68.7779 59.7007 68.677 59.5566 68.4896C53.5619 60.6504 50.9825 52.6526 52.1065 45.361C53.0576 39.2222 56.6601 33.7895 62.5396 29.6537C62.8566 29.4231 63.3178 29.5096 63.5483 29.8266C63.7789 30.1581 63.6924 30.6048 63.3754 30.8354C57.8274 34.7406 54.4265 39.8418 53.5331 45.5772C52.4811 52.4653 54.9597 60.0884 60.7095 67.6106C60.9544 67.9276 60.8968 68.3744 60.5798 68.6193C60.4501 68.7202 60.2916 68.7634 60.1474 68.7634L60.1331 68.7779Z" fill="white"/>
<path d="M63.7496 34.8256C63.3605 34.8256 63.0435 34.523 63.0291 34.1195L62.9282 30.1999L59.902 29.8684C59.5129 29.8252 59.2247 29.4649 59.268 29.0759C59.3112 28.6868 59.657 28.3986 60.0605 28.4418L63.7208 28.8453C64.081 28.8885 64.3548 29.1767 64.3548 29.537L64.4701 34.0907C64.4701 34.4941 64.1675 34.8256 63.764 34.8256H63.7496Z" fill="white"/>
<path d="M116.393 70.2627C116.162 70.2627 115.946 70.1618 115.802 69.9601C115.572 69.6286 115.658 69.1819 115.975 68.9514C121.523 65.0461 124.924 59.9449 125.817 54.2095C126.869 47.3214 124.391 39.6983 118.641 32.1761C118.396 31.8591 118.454 31.4123 118.771 31.1674C119.088 30.9224 119.534 30.98 119.779 31.297C125.774 39.1363 128.354 47.1341 127.23 54.4113C126.278 60.5501 122.676 65.9828 116.796 70.1186C116.667 70.2051 116.523 70.2483 116.379 70.2483L116.393 70.2627Z" fill="white"/>
<path d="M119.377 71.3604C119.377 71.3604 119.319 71.3604 119.29 71.3604L115.63 70.9569C115.27 70.9136 114.996 70.6254 114.996 70.2652L114.881 65.7115C114.881 65.308 115.183 64.9766 115.587 64.9766H115.601C115.99 64.9766 116.307 65.2792 116.322 65.6827L116.423 69.6023L119.463 69.9337C119.852 69.977 120.141 70.3372 120.097 70.7263C120.054 71.101 119.737 71.3604 119.377 71.3604Z" fill="white"/>
</svg>
