<svg width="28" height="28" viewBox="0 0 28 28" fill="none" xmlns="http://www.w3.org/2000/svg">
<rect y="0.707031" width="27.2941" height="27.2941" rx="7" fill="#3A3A3A"/>
<path d="M19.2949 11.326C19.1594 11.4373 19.0807 11.605 19.0814 11.7803C19.0815 11.8103 19.0815 11.8403 19.0815 11.8704C19.0815 15.6644 16.2654 20.0399 11.1162 20.0405C11.1155 20.0405 11.115 20.04 11.115 20.0394C11.115 20.0388 11.1145 20.0382 11.1139 20.0382C9.81477 20.04 8.53874 19.7142 7.39626 19.0942C7.25111 19.0154 7.32451 18.792 7.48966 18.7925C8.02124 18.7929 8.54642 18.7161 9.05043 18.5672C9.75988 18.3575 9.53706 17.2385 9.0241 16.7054C8.80467 16.4774 8.62117 16.2106 8.48447 15.9132C8.41461 15.7612 8.55277 15.6041 8.71977 15.6139C8.95027 15.6275 8.97324 15.3099 8.77432 15.1927C7.92442 14.6917 7.36935 13.7534 7.36935 12.7028C7.36935 12.6866 7.38688 12.6764 7.40107 12.6843C7.52151 12.751 7.64625 12.8083 7.77425 12.856C8.01737 12.9464 8.15701 12.6248 7.99857 12.4194C7.56325 11.855 7.35284 11.1439 7.40087 10.4344C7.44309 9.81083 8.20298 9.72624 8.66518 10.147C9.26377 10.692 9.93699 11.1389 10.6605 11.4752C12.0216 12.1078 13.2732 10.4898 14.3539 9.44823C15.3998 8.43996 17.0012 8.41473 18.0738 9.33851C18.232 9.47477 18.4411 9.54984 18.6428 9.49598C18.9097 9.42471 19.171 9.33336 19.4246 9.22281C19.6646 9.11814 19.9172 9.33659 19.7773 9.55801C19.7165 9.65428 19.6502 9.74669 19.5787 9.83476C19.4371 10.0092 19.5826 10.3317 19.7975 10.2662C19.9978 10.2052 20.177 10.4285 20.0419 10.5886C19.8154 10.857 19.5654 11.1038 19.2949 11.326Z" fill="white"/>
</svg>
