<svg width="24" height="24" viewBox="0 0 24 24" fill="none" xmlns="http://www.w3.org/2000/svg">
<path d="M12.2402 0C5.8802 0 0.700195 5.18004 0.700195 11.54C0.700195 17.9 5.8802 23.08 12.2402 23.08C18.6002 23.08 23.7802 17.9 23.7802 11.54C23.7802 5.18004 18.6002 0 12.2402 0ZM18.6402 8.58997C18.4002 8.84997 18.1702 9.10998 17.9102 9.34998C17.7602 9.48998 17.6802 9.63998 17.6802 9.84998C17.6202 11.3 17.2502 12.66 16.4602 13.89C15.8802 14.8 15.1002 15.5001 14.1802 16.0601C12.3602 17.1501 10.4202 17.35 8.3902 16.79C7.9102 16.66 7.45019 16.45 6.98019 16.28C6.90019 16.25 6.83019 16.19 6.76019 16.15V16.08C6.99019 16.06 7.21019 16.04 7.43019 16.02C8.31019 15.94 9.1302 15.73 9.8602 15.21C9.9202 15.16 9.9902 15.1201 10.0502 15.0701C10.0802 15.0501 10.0902 15.02 10.1502 14.96C10.0102 14.91 9.8902 14.87 9.7702 14.83C9.3902 14.71 9.01019 14.6 8.68019 14.36C8.29019 14.09 8.0502 13.72 7.9202 13.25C8.2102 13.18 8.50019 13.26 8.84019 13.1C8.09019 12.79 7.4802 12.4101 7.2002 11.6901C7.0802 11.3701 7.0302 11.04 7.0302 10.67C7.3302 10.73 7.5702 10.94 7.9402 10.86C7.2602 10.18 6.90019 9.41999 7.04019 8.48999C7.09019 8.16999 7.1502 7.85005 7.3802 7.55005C8.6002 8.85005 9.98019 9.81997 11.7602 10.09C12.0102 10.13 12.2702 10.25 12.5402 10.09C12.4802 9.61997 12.5302 9.16997 12.7002 8.71997C13.0102 7.90997 13.5902 7.39004 14.4302 7.17004C15.3202 6.93004 16.1202 7.07997 16.8102 7.71997C16.9602 7.85997 17.1102 7.87006 17.2802 7.81006C17.6102 7.69006 17.9402 7.56995 18.2702 7.44995C18.3302 7.42995 18.3902 7.41 18.5202 7.37C18.4002 7.92 18.0002 8.21996 17.7002 8.57996L17.7302 8.67004C18.0502 8.59004 18.3802 8.51005 18.7402 8.43005C18.7102 8.52005 18.7002 8.60001 18.6602 8.64001L18.6402 8.58997Z" fill="#0F20E8"/>
<path fill-rule="evenodd" clip-rule="evenodd" d="M19.5765 7.21982L20.2474 7.07073L19.6892 8.74545C19.689 8.74598 19.6876 8.75051 19.6841 8.76327C19.6838 8.76441 19.6833 8.76604 19.6827 8.7681C19.6787 8.78259 19.6689 8.81823 19.659 8.85027C19.647 8.88901 19.6239 8.95934 19.5855 9.03865C19.5465 9.11922 19.4796 9.23483 19.3673 9.34712L18.672 10.0424C18.5868 11.5867 18.1737 13.072 17.3025 14.429C16.6253 15.491 15.7237 16.2912 14.7001 16.9143L14.694 16.918C12.6213 18.1594 10.3972 18.3805 8.1265 17.7546C7.75415 17.6536 7.34457 17.4932 7.00935 17.3619C6.87096 17.3077 6.74525 17.2585 6.64006 17.2204L6.62905 17.2164C6.48177 17.1612 6.369 17.0884 6.3184 17.0552C6.3042 17.0459 6.29117 17.0372 6.28182 17.0309L6.25984 17.0162C6.25845 17.0152 6.25729 17.0145 6.25634 17.0139L5.76019 16.7303V15.1631L6.67356 15.0837C6.90141 15.0639 7.11967 15.0441 7.33966 15.0241C7.51022 15.0086 7.67345 14.988 7.82998 14.9613C7.38764 14.567 7.10952 14.0702 6.95639 13.5166L6.79205 12.9224C6.58198 12.6806 6.40125 12.3947 6.26819 12.0525L6.2638 12.0412C6.09362 11.5874 6.0302 11.1346 6.0302 10.67V9.45024L6.05865 9.45593C5.99837 9.1075 5.99185 8.73628 6.05133 8.34113L6.05216 8.33561C6.10346 8.00731 6.18916 7.46001 6.5866 6.94162L7.3033 6.00679L8.10939 6.86573C9.15623 7.98122 10.251 8.75206 11.5767 9.0399C11.618 8.81405 11.6804 8.58969 11.7647 8.36657L11.7662 8.36253C12.1911 7.25238 13.0234 6.50583 14.1734 6.20358C15.2517 5.91373 16.3148 6.05593 17.2288 6.76465L17.9412 6.50554L17.954 6.50127C18.0191 6.47957 18.0867 6.4571 18.2261 6.41422L19.8621 5.91084L19.5765 7.21982ZM12.0563 10.1517C12.2139 10.181 12.3752 10.1878 12.5402 10.09C12.4802 9.61997 12.5302 9.16997 12.7002 8.71997C13.0102 7.90997 13.5902 7.39004 14.4302 7.17004C15.3202 6.93004 16.1202 7.07997 16.8102 7.71997C16.8797 7.78482 16.9492 7.82179 17.0206 7.83684C17.1035 7.85427 17.1889 7.84227 17.2802 7.81006L18.2702 7.44995C18.2974 7.44087 18.3247 7.4318 18.3585 7.42086C18.3991 7.4077 18.4492 7.39184 18.5202 7.37C18.5135 7.40061 18.506 7.43046 18.4976 7.45958C18.4675 7.56465 18.4269 7.66033 18.379 7.74913C18.3771 7.75258 18.3753 7.75602 18.3734 7.75945C18.3033 7.88693 18.2182 8.00026 18.1272 8.10702C18.1257 8.10877 18.1242 8.11053 18.1227 8.11228C18.0977 8.14156 18.0722 8.17035 18.0465 8.1988C18.0051 8.24453 17.9632 8.28941 17.9215 8.33408C17.8476 8.41317 17.7742 8.49163 17.706 8.57307C17.704 8.57536 17.7021 8.57766 17.7002 8.57996L17.7302 8.67004C17.7502 8.66504 17.7702 8.66005 17.7903 8.65505C17.8842 8.63167 17.9791 8.6083 18.0754 8.58492C18.2146 8.55113 18.3569 8.51734 18.5037 8.48355C18.5094 8.48225 18.515 8.48095 18.5207 8.47965C18.5927 8.46312 18.6658 8.44659 18.7402 8.43005C18.7313 8.45665 18.7242 8.48236 18.7176 8.50643C18.7116 8.52779 18.7061 8.54784 18.7 8.56606C18.6928 8.5875 18.6849 8.6064 18.6748 8.62188C18.6704 8.62859 18.6656 8.63466 18.6602 8.64001L18.6402 8.58997C18.6354 8.59518 18.6306 8.60038 18.6258 8.60559C18.6024 8.63099 18.5791 8.65638 18.5558 8.68174C18.543 8.69574 18.5301 8.70972 18.5173 8.7237C18.4239 8.82561 18.331 8.92698 18.2362 9.02662C18.131 9.1371 18.0235 9.24543 17.9102 9.34998C17.9075 9.35252 17.9048 9.35507 17.9021 9.35762C17.8942 9.3651 17.8866 9.37261 17.8791 9.38016C17.7824 9.47811 17.7194 9.58254 17.6936 9.70998C17.6847 9.75371 17.6802 9.80015 17.6802 9.84998C17.6202 11.3 17.2502 12.66 16.4602 13.89C15.8802 14.8 15.1002 15.5001 14.1802 16.0601C12.4225 17.1127 10.5529 17.3353 8.59835 16.8449C8.52907 16.8275 8.45968 16.8092 8.3902 16.79C8.07806 16.7055 7.77438 16.5871 7.47091 16.4679C7.46327 16.4649 7.45564 16.4619 7.448 16.4589C7.29244 16.3978 7.13687 16.3367 6.98019 16.28C6.9284 16.2606 6.8808 16.2286 6.83468 16.1976C6.81173 16.1822 6.78916 16.167 6.76661 16.1537C6.76447 16.1525 6.76233 16.1512 6.76019 16.15V16.08C6.77428 16.0787 6.78832 16.0775 6.80233 16.0763C6.89015 16.0686 6.97659 16.0609 7.06221 16.0533C7.06325 16.0532 7.06429 16.0531 7.06533 16.053C7.18806 16.042 7.30913 16.031 7.43019 16.02C7.83377 15.9833 8.22472 15.9193 8.60017 15.8105C8.75552 15.7655 8.90822 15.7129 9.05806 15.6514C9.23742 15.5777 9.41269 15.4913 9.5835 15.3901C9.58753 15.3877 9.59157 15.3853 9.5956 15.3829C9.68504 15.3294 9.77326 15.2719 9.8602 15.21C9.8902 15.185 9.9227 15.1625 9.9552 15.14C9.9877 15.1175 10.0202 15.0951 10.0502 15.0701C10.0656 15.0598 10.0757 15.0469 10.09 15.0287C10.1036 15.0114 10.1209 14.9892 10.1502 14.96C10.0696 14.9312 9.99572 14.9057 9.92461 14.8817C9.90995 14.8767 9.89541 14.8718 9.88095 14.867C9.84365 14.8544 9.80693 14.8422 9.7702 14.83C9.74573 14.8222 9.72125 14.8145 9.69679 14.8069C9.64342 14.7901 9.59011 14.7733 9.537 14.7562C9.5118 14.7481 9.48664 14.7399 9.46155 14.7316C9.31159 14.6818 9.16378 14.6276 9.0213 14.5601C8.90335 14.5042 8.78905 14.4392 8.68019 14.36C8.60933 14.3109 8.54343 14.2586 8.48223 14.2029C8.39013 14.1191 8.30869 14.0279 8.23712 13.9292C8.09451 13.7325 7.99103 13.5061 7.9202 13.25C8.03233 13.2229 8.14446 13.2183 8.25947 13.2135C8.44193 13.206 8.63166 13.1981 8.84019 13.1C8.78997 13.0792 8.74037 13.0581 8.69146 13.0367C8.32296 12.8749 7.99334 12.6908 7.72699 12.4496C7.67562 12.403 7.6266 12.3544 7.58011 12.3034C7.44662 12.1569 7.33398 11.9908 7.24633 11.7992C7.23009 11.7637 7.2147 11.7274 7.2002 11.6901C7.17125 11.6129 7.14637 11.5351 7.12529 11.4563C7.05898 11.2085 7.0302 10.9508 7.0302 10.67C7.13136 10.6903 7.2257 10.7276 7.3205 10.765C7.50684 10.8387 7.69497 10.913 7.9402 10.86C7.87759 10.7974 7.81769 10.7341 7.76064 10.67C7.51989 10.3998 7.32996 10.1162 7.20141 9.81396C7.18169 9.76759 7.16342 9.72079 7.14662 9.67353C7.03008 9.34554 6.98498 8.99553 7.02405 8.61713C7.02838 8.57511 7.03376 8.53273 7.04019 8.48999C7.09019 8.16999 7.1502 7.85005 7.3802 7.55005C7.61752 7.80292 7.86088 8.04331 8.11207 8.26848C9.09612 9.15062 10.2002 9.7993 11.5305 10.0509C11.6063 10.0652 11.6829 10.0782 11.7602 10.09C11.8142 10.0986 11.8686 10.111 11.9235 10.1234C11.9675 10.1334 12.0117 10.1435 12.0563 10.1517ZM12.2402 1C6.43249 1 1.7002 5.73232 1.7002 11.54C1.7002 17.3477 6.43248 22.08 12.2402 22.08C18.0479 22.08 22.7802 17.3477 22.7802 11.54C22.7802 5.73232 18.0479 1 12.2402 1ZM0.700195 11.54C0.700195 5.18004 5.8802 0 12.2402 0C18.6002 0 23.7802 5.18004 23.7802 11.54C23.7802 17.9 18.6002 23.08 12.2402 23.08C5.8802 23.08 0.700195 17.9 0.700195 11.54Z" fill="#0F20E8"/>
</svg>
