<svg width="25" height="18" viewBox="0 0 25 18" fill="none" xmlns="http://www.w3.org/2000/svg">
<path fill-rule="evenodd" clip-rule="evenodd" d="M0 9.00035C0 8.35656 0.506716 7.83496 1.13214 7.83496H23.8679C24.4933 7.83496 25 8.35656 25 9.00035C25 9.64414 24.4933 10.1657 23.8679 10.1657H1.13214C0.506716 10.1657 0 9.64414 0 9.00035Z" fill="#AEAEAE"/>
<path fill-rule="evenodd" clip-rule="evenodd" d="M12.5002 2.99777C9.27948 2.99777 6.66925 5.68536 6.66925 8.99998C6.66925 12.3146 9.28016 15.0022 12.5002 15.0022C15.7203 15.0022 18.3312 12.3146 18.3312 8.99998C18.3312 5.68536 15.7203 2.99777 12.5002 2.99777ZM4.4043 8.99998C4.4043 4.39777 8.02864 0.666992 12.5002 0.666992C16.9718 0.666992 20.5955 4.39777 20.5955 8.99998C20.5955 13.6022 16.9711 17.333 12.5002 17.333C8.02931 17.333 4.4043 13.6022 4.4043 8.99998Z" fill="#AEAEAE"/>
</svg>
