<svg width="36" height="36" viewBox="0 0 36 36" fill="none" xmlns="http://www.w3.org/2000/svg">
<path fill-rule="evenodd" clip-rule="evenodd" d="M0 18C0 8.06206 8.06206 0 18 0H35.1529C35.6208 0 36 0.379241 36 0.847059C36 10.785 27.9379 18.8471 18 18.8471H0.847059C0.379241 18.8471 0 18.4678 0 18ZM1.71576 17.1529H18C26.7182 17.1529 33.8432 10.3031 34.2842 1.69412H18C9.2818 1.69412 2.1568 8.54399 1.71576 17.1529Z" fill="#0F20E8"/>
<path fill-rule="evenodd" clip-rule="evenodd" d="M17.1523 17.9994C17.1523 17.5316 17.5316 17.1523 17.9994 17.1523H35.1523C35.6202 17.1523 35.9994 17.5316 35.9994 17.9994C35.9994 27.9373 27.9373 35.9994 17.9994 35.9994C17.5316 35.9994 17.1523 35.6202 17.1523 35.1523V17.9994ZM18.8465 18.8465V34.2836C27.1749 33.857 33.857 27.1749 34.2836 18.8465H18.8465Z" fill="#0F20E8"/>
<path fill-rule="evenodd" clip-rule="evenodd" d="M0 17.9994C0 17.5316 0.379241 17.1523 0.847059 17.1523H18C18.4678 17.1523 18.8471 17.5316 18.8471 17.9994V35.1523C18.8471 35.6202 18.4678 35.9994 18 35.9994C8.06206 35.9994 0 27.9373 0 17.9994ZM1.71576 18.8465C2.14242 27.1749 8.82453 33.857 17.1529 34.2836V18.8465H1.71576Z" fill="#0F20E8"/>
<path d="M21.6586 12.2314C22.8141 12.2314 23.7509 11.2946 23.7509 10.1391C23.7509 8.98358 22.8141 8.04688 21.6586 8.04688C20.5031 8.04688 19.5664 8.98358 19.5664 10.1391C19.5664 11.2946 20.5031 12.2314 21.6586 12.2314Z" fill="white"/>
<path fill-rule="evenodd" clip-rule="evenodd" d="M21.66 8.89334C20.9723 8.89334 20.4148 9.4508 20.4148 10.1385C20.4148 10.8262 20.9723 11.3837 21.66 11.3837C22.3476 11.3837 22.9052 10.8262 22.9052 10.1385C22.9052 9.45082 22.3477 8.89334 21.66 8.89334ZM18.7207 10.1385C18.7207 8.51516 20.0366 7.19922 21.66 7.19922C23.2833 7.19922 24.5993 8.51513 24.5993 10.1385C24.5993 11.7618 23.2833 13.0779 21.66 13.0779C20.0366 13.0779 18.7207 11.7618 18.7207 10.1385Z" fill="#0F20E8"/>
<path d="M13.391 12.2314C14.5465 12.2314 15.4833 11.2946 15.4833 10.1391C15.4833 8.98358 14.5465 8.04688 13.391 8.04688C12.2355 8.04688 11.2988 8.98358 11.2988 10.1391C11.2988 11.2946 12.2355 12.2314 13.391 12.2314Z" fill="white"/>
<path fill-rule="evenodd" clip-rule="evenodd" d="M13.3924 8.89334C12.7047 8.89334 12.1472 9.4508 12.1472 10.1385C12.1472 10.8262 12.7048 11.3837 13.3924 11.3837C14.0801 11.3837 14.6376 10.8262 14.6376 10.1385C14.6376 9.45082 14.0801 8.89334 13.3924 8.89334ZM10.4531 10.1385C10.4531 8.51516 11.7691 7.19922 13.3924 7.19922C15.0157 7.19922 16.3317 8.51513 16.3317 10.1385C16.3317 11.7618 15.0157 13.0779 13.3924 13.0779C11.769 13.0779 10.4531 11.7618 10.4531 10.1385Z" fill="#0F20E8"/>
<path d="M18.0006 28.147C20.5418 28.147 22.6086 26.0802 22.6086 23.5391H13.3926C13.3926 26.0802 15.4594 28.147 18.0006 28.147Z" fill="white"/>
<path fill-rule="evenodd" clip-rule="evenodd" d="M12.5449 23.5404C12.5449 23.0726 12.9242 22.6934 13.392 22.6934H22.608C23.0758 22.6934 23.455 23.0726 23.455 23.5404C23.455 26.5494 21.009 28.9954 18 28.9954C14.991 28.9954 12.5449 26.5494 12.5449 23.5404ZM18 27.3013C19.7822 27.3013 21.2793 26.0545 21.6647 24.3875H14.3353C14.7206 26.0545 16.2178 27.3013 18 27.3013Z" fill="#0F20E8"/>
</svg>
