<svg width="92" height="96" viewBox="0 0 92 96" fill="none" xmlns="http://www.w3.org/2000/svg">
<path d="M2.14648 93.8553H45.6073C69.6019 93.8553 89.0681 74.3892 89.0681 50.3945H45.6073C21.6126 50.3945 2.14648 69.8607 2.14648 93.8553Z" fill="white"/>
<path fill-rule="evenodd" clip-rule="evenodd" d="M0 93.8531C0 68.6731 20.427 48.2461 45.607 48.2461H89.0678C90.2531 48.2461 91.214 49.207 91.214 50.3923C91.214 75.5723 70.787 95.9993 45.607 95.9993H2.14621C0.960892 95.9993 0 95.0384 0 93.8531ZM4.34727 91.7069H45.607C67.6965 91.7069 85.7493 74.3512 86.8667 52.5385H45.607C23.5175 52.5385 5.46472 69.8942 4.34727 91.7069Z" fill="#FFAB00"/>
<path d="M45.6073 6.93359C21.6126 6.93359 2.14648 26.3997 2.14648 50.3944H45.6073V6.93359Z" fill="white"/>
<path fill-rule="evenodd" clip-rule="evenodd" d="M0 50.3921C0 25.2122 20.427 4.78516 45.607 4.78516C46.7923 4.78516 47.7532 5.74605 47.7532 6.93137V50.3921C47.7532 51.5775 46.7923 52.5384 45.607 52.5384H2.14621C0.960891 52.5384 0 51.5775 0 50.3921ZM4.34727 48.2459H43.4608V9.13242C22.3589 10.2135 5.42831 27.1441 4.34727 48.2459Z" fill="#FFAB00"/>
<path d="M45.6074 50.3944H89.0682C89.0682 26.3997 69.6021 6.93359 45.6074 6.93359V50.3944Z" fill="white"/>
<path fill-rule="evenodd" clip-rule="evenodd" d="M43.4609 6.93137C43.4609 5.74605 44.4218 4.78516 45.6071 4.78516C70.7871 4.78516 91.2141 25.2122 91.2141 50.3921C91.2141 51.5775 90.2532 52.5384 89.0679 52.5384H45.6071C44.4218 52.5384 43.4609 51.5775 43.4609 50.3921V6.93137ZM47.7534 9.13242V48.2459H86.8669C85.7858 27.1441 68.8552 10.2135 47.7534 9.13242Z" fill="#FFAB00"/>
<path d="M65.4593 39.2545C68.387 39.2545 70.7605 36.8812 70.7605 33.9534C70.7605 31.0257 68.387 28.6523 65.4593 28.6523C62.5315 28.6523 60.1582 31.0257 60.1582 33.9534C60.1582 36.8812 62.5315 39.2545 65.4593 39.2545Z" fill="white"/>
<path fill-rule="evenodd" clip-rule="evenodd" d="M65.459 30.7963C63.7166 30.7963 62.3041 32.2088 62.3041 33.9512C62.3041 35.6936 63.7166 37.1061 65.459 37.1061C67.2015 37.1061 68.614 35.6935 68.614 33.9512C68.614 32.2088 67.2015 30.7963 65.459 30.7963ZM58.0117 33.9512C58.0117 29.8381 61.3459 26.5039 65.459 26.5039C69.572 26.5039 72.9064 29.8381 72.9064 33.9512C72.9064 38.0643 69.572 41.3985 65.459 41.3985C61.3459 41.3985 58.0117 38.0643 58.0117 33.9512Z" fill="#FFAB00"/>
<path d="M25.7542 39.2545C28.6819 39.2545 31.0554 36.8812 31.0554 33.9534C31.0554 31.0257 28.6819 28.6523 25.7542 28.6523C22.8265 28.6523 20.4531 31.0257 20.4531 33.9534C20.4531 36.8812 22.8265 39.2545 25.7542 39.2545Z" fill="white"/>
<path fill-rule="evenodd" clip-rule="evenodd" d="M25.7549 30.7963C24.0125 30.7963 22.6 32.2088 22.6 33.9512C22.6 35.6936 24.0125 37.1061 25.7549 37.1061C27.4974 37.1061 28.9099 35.6935 28.9099 33.9512C28.9099 32.2088 27.4974 30.7963 25.7549 30.7963ZM18.3076 33.9512C18.3076 29.8381 21.6418 26.5039 25.7549 26.5039C29.8679 26.5039 33.2023 29.8381 33.2023 33.9512C33.2023 38.0643 29.8679 41.3985 25.7549 41.3985C21.6418 41.3985 18.3076 38.0643 18.3076 33.9512Z" fill="#FFAB00"/>
<path d="M45.607 77.9721C52.0457 77.9721 57.2824 72.7355 57.2824 66.2969H33.9316C33.9316 72.7355 39.1684 77.9721 45.607 77.9721Z" fill="white"/>
<path fill-rule="evenodd" clip-rule="evenodd" d="M31.7852 66.2946C31.7852 65.1093 32.746 64.1484 33.9314 64.1484H57.2822C58.4675 64.1484 59.4284 65.1093 59.4284 66.2946C59.4284 73.9186 53.2307 80.1161 45.6068 80.1161C37.9828 80.1161 31.7852 73.9186 31.7852 66.2946ZM45.6068 75.8237C50.1224 75.8237 53.9157 72.6645 54.8921 68.4409H36.3214C37.2978 72.6645 41.0912 75.8237 45.6068 75.8237Z" fill="#FFAB00"/>
<path d="M70.7603 15.0645L57.8401 2.14453L51.7234 8.26118L45.6067 2.14453L39.49 8.26118L33.3732 2.14453L20.4531 15.0645C25.604 20.2154 65.5879 20.2154 70.7388 15.0645H70.7603Z" fill="white"/>
<path fill-rule="evenodd" clip-rule="evenodd" d="M31.8563 0.628603C32.6945 -0.209531 34.0534 -0.209535 34.8915 0.628595L39.4907 5.22768L44.0898 0.628611C44.9279 -0.209531 46.2868 -0.209538 47.125 0.628595L51.7241 5.22768L56.3232 0.628611C57.1613 -0.209531 58.5202 -0.209538 59.3584 0.628595L72.2786 13.5486C72.8924 14.1624 73.0761 15.0855 72.7439 15.8875C72.5905 16.2578 72.3411 16.5686 72.0315 16.7959C70.9888 17.7197 69.4703 18.3454 67.9327 18.8106C66.1927 19.337 64.0704 19.7583 61.7342 20.0886C57.0541 20.7504 51.3072 21.0756 45.5967 21.0756C39.8862 21.0756 34.1393 20.7504 29.4592 20.0886C27.1229 19.7583 25.0007 19.337 23.2607 18.8106C21.6081 18.3107 19.9778 17.6253 18.9362 16.5838C18.5337 16.1813 18.3076 15.6354 18.3076 15.0662C18.3076 14.497 18.5337 13.9511 18.9362 13.5486L31.8563 0.628603ZM67.1991 14.5395L57.8408 5.1814L53.2417 9.78046C52.4036 10.6186 51.0447 10.6186 50.2066 9.78048L45.6074 5.1814L41.0083 9.78046C40.1702 10.6186 38.8113 10.6186 37.9731 9.78048L33.3739 5.18139L24.0103 14.5449C24.1648 14.5968 24.3291 14.6493 24.5036 14.702C25.9563 15.1415 27.8431 15.525 30.0602 15.8385C34.4867 16.4644 40.0235 16.7832 45.5967 16.7832C51.1699 16.7832 56.7067 16.4644 61.1332 15.8385C63.3503 15.525 65.2371 15.1415 66.6898 14.702C66.8703 14.6474 67.0399 14.5932 67.1991 14.5395Z" fill="#FFAB00"/>
</svg>
