<svg width="96" height="96" viewBox="0 0 96 96" fill="none" xmlns="http://www.w3.org/2000/svg">
<path fill-rule="evenodd" clip-rule="evenodd" d="M0 93.7422C0 67.241 21.4988 45.7422 48 45.7422H93.7412C94.9887 45.7422 96 46.7535 96 48.001C96 74.5022 74.5012 96.001 48 96.001H2.25882C1.01131 96.001 0 94.9897 0 93.7422ZM4.57537 91.4834H48C71.2485 91.4834 90.2485 73.217 91.4246 50.2598H48C24.7515 50.2598 5.75146 68.5262 4.57537 91.4834Z" fill="#CFD2FA"/>
<path fill-rule="evenodd" clip-rule="evenodd" d="M0 48C0 21.4988 21.4988 0 48 0C49.2475 0 50.2588 1.01131 50.2588 2.25882V48C50.2588 49.2475 49.2475 50.2588 48 50.2588H2.25882C1.01131 50.2588 0 49.2475 0 48ZM4.57537 45.7412H45.7412V4.57537C23.5321 5.71313 5.71313 23.5321 4.57537 45.7412Z" fill="#CFD2FA"/>
<path fill-rule="evenodd" clip-rule="evenodd" d="M45.7402 2.25882C45.7402 1.01131 46.7515 0 47.9991 0C74.5002 0 95.9991 21.4988 95.9991 48C95.9991 49.2475 94.9878 50.2588 93.7402 50.2588H47.9991C46.7515 50.2588 45.7402 49.2475 45.7402 48V2.25882ZM50.2579 4.57537V45.7412H91.4237C90.2859 23.5321 72.467 5.71313 50.2579 4.57537Z" fill="#CFD2FA"/>
<path d="M68.8937 36.2756C71.975 36.2756 74.473 33.7778 74.473 30.6964C74.473 27.6151 71.975 25.1172 68.8937 25.1172C65.8123 25.1172 63.3145 27.6151 63.3145 30.6964C63.3145 33.7778 65.8123 36.2756 68.8937 36.2756Z" fill="white"/>
<path fill-rule="evenodd" clip-rule="evenodd" d="M68.8947 27.377C67.0608 27.377 65.5743 28.8636 65.5743 30.6974C65.5743 32.5313 67.0608 34.0178 68.8947 34.0178C70.7286 34.0178 72.2152 32.5312 72.2152 30.6974C72.2152 28.8637 70.7286 27.377 68.8947 27.377ZM61.0566 30.6974C61.0566 26.3686 64.5658 22.8594 68.8947 22.8594C73.2235 22.8594 76.7329 26.3685 76.7329 30.6974C76.7329 35.0264 73.2235 38.5355 68.8947 38.5355C64.5658 38.5355 61.0566 35.0263 61.0566 30.6974Z" fill="#CFD2FA"/>
<path d="M27.1066 36.2756C30.1879 36.2756 32.6859 33.7778 32.6859 30.6964C32.6859 27.6151 30.1879 25.1172 27.1066 25.1172C24.0252 25.1172 21.5273 27.6151 21.5273 30.6964C21.5273 33.7778 24.0252 36.2756 27.1066 36.2756Z" fill="white"/>
<path fill-rule="evenodd" clip-rule="evenodd" d="M27.1056 27.377C25.2718 27.377 23.7852 28.8636 23.7852 30.6974C23.7852 32.5313 25.2718 34.0178 27.1056 34.0178C28.9395 34.0178 30.4262 32.5312 30.4262 30.6974C30.4262 28.8637 28.9395 27.377 27.1056 27.377ZM19.2676 30.6974C19.2676 26.3686 22.7768 22.8594 27.1056 22.8594C31.4344 22.8594 34.9438 26.3685 34.9438 30.6974C34.9438 35.0264 31.4344 38.5355 27.1056 38.5355C22.7768 38.5355 19.2676 35.0263 19.2676 30.6974Z" fill="#CFD2FA"/>
<path d="M48.0009 77.0261C54.7774 77.0261 60.2889 71.5148 60.2889 64.7383H35.7129C35.7129 71.5148 41.2244 77.0261 48.0009 77.0261Z" fill="white"/>
<path fill-rule="evenodd" clip-rule="evenodd" d="M62.5469 77.0263C62.5469 78.2738 61.5356 79.2852 60.2881 79.2852L35.712 79.2852C34.4645 79.2852 33.4532 78.2738 33.4532 77.0263C33.4532 69.0023 39.9761 62.4796 48 62.4796C56.024 62.4796 62.5469 69.0023 62.5469 77.0263ZM48 66.9973C43.2475 66.9973 39.2551 70.3222 38.2275 74.7675L57.7726 74.7675C56.745 70.3222 52.7526 66.9973 48 66.9973Z" fill="#CFD2FA"/>
</svg>
