<svg width="96" height="96" viewBox="0 0 96 96" fill="none" xmlns="http://www.w3.org/2000/svg">
<path fill-rule="evenodd" clip-rule="evenodd" d="M0 2.25829C0 1.01107 1.01107 0 2.25829 0C28.7532 0 50.247 21.4938 50.247 47.9887V93.7191C50.247 94.9663 49.2359 95.9774 47.9887 95.9774C21.4938 95.9774 0 74.4836 0 47.9887V2.25829ZM4.51658 4.57429V47.9887C4.51658 71.2318 22.7786 90.2273 45.7304 91.4031V47.9887C45.7304 24.7456 27.4684 5.7501 4.51658 4.57429Z" fill="#0F20E8"/>
<path fill-rule="evenodd" clip-rule="evenodd" d="M50.3048 45.7538H91.4609V4.59773C69.257 5.73522 51.4423 23.55 50.3048 45.7538ZM45.7305 48.0121C45.7305 21.5172 67.2242 0.0234375 93.7192 0.0234375C94.9664 0.0234375 95.9775 1.03451 95.9775 2.28173V48.0121C95.9775 49.2593 94.9664 50.2704 93.7192 50.2704H47.9888C46.7415 50.2704 45.7305 49.2593 45.7305 48.0121Z" fill="#0F20E8"/>
<path fill-rule="evenodd" clip-rule="evenodd" d="M45.7305 48.0122C45.7305 46.765 46.7415 45.7539 47.9888 45.7539H93.7192C94.9664 45.7539 95.9775 46.765 95.9775 48.0122C95.9775 74.5071 74.4837 96.0009 47.9888 96.0009C46.7415 96.0009 45.7305 94.9898 45.7305 93.7426V48.0122ZM50.2471 50.2705V91.4266C72.4509 90.2891 90.2657 72.4744 91.4032 50.2705H50.2471Z" fill="#0F20E8"/>
<path d="M21.5214 34.0543C24.602 34.0543 27.0993 31.557 27.0993 28.4764C27.0993 25.3957 24.602 22.8984 21.5214 22.8984C18.4408 22.8984 15.9434 25.3957 15.9434 28.4764C15.9434 31.557 18.4408 34.0543 21.5214 34.0543Z" fill="white"/>
<path fill-rule="evenodd" clip-rule="evenodd" d="M21.5219 25.1572C19.6884 25.1572 18.2021 26.6435 18.2021 28.4768C18.2021 30.3102 19.6884 31.7965 21.5219 31.7965C23.3553 31.7965 24.8415 30.3102 24.8415 28.4768C24.8415 26.6434 23.3553 25.1572 21.5219 25.1572ZM13.6855 28.4768C13.6855 24.1489 17.1941 20.6406 21.5219 20.6406C25.8497 20.6406 29.3581 24.149 29.3581 28.4768C29.3581 32.8047 25.8497 36.313 21.5219 36.313C17.1941 36.313 13.6855 32.8048 13.6855 28.4768Z" fill="#0F20E8"/>
<path d="M74.4334 34.0543C77.514 34.0543 80.0114 31.557 80.0114 28.4764C80.0114 25.3957 77.514 22.8984 74.4334 22.8984C71.3527 22.8984 68.8555 25.3957 68.8555 28.4764C68.8555 31.557 71.3527 34.0543 74.4334 34.0543Z" fill="white"/>
<path fill-rule="evenodd" clip-rule="evenodd" d="M74.4329 25.1572C72.5995 25.1572 71.1133 26.6434 71.1133 28.4768C71.1133 30.3102 72.5995 31.7965 74.4329 31.7965C76.2664 31.7965 77.7526 30.3102 77.7526 28.4768C77.7526 26.6435 76.2664 25.1572 74.4329 25.1572ZM66.5967 28.4768C66.5967 24.149 70.105 20.6406 74.4329 20.6406C78.7607 20.6406 82.2692 24.1489 82.2692 28.4768C82.2692 32.8048 78.7607 36.313 74.4329 36.313C70.105 36.313 66.5967 32.8047 66.5967 28.4768Z" fill="#0F20E8"/>
<path d="M47.9882 77.0076C54.7631 77.0076 60.2733 71.4975 60.2733 64.7227H35.7031C35.7031 71.4975 41.2134 77.0076 47.9882 77.0076Z" fill="white"/>
<path fill-rule="evenodd" clip-rule="evenodd" d="M33.4453 64.7231C33.4453 63.4759 34.4564 62.4648 35.7036 62.4648H60.2738C61.521 62.4648 62.5321 63.4759 62.5321 64.7231C62.5321 72.7453 56.0108 79.2664 47.9887 79.2664C39.9667 79.2664 33.4453 72.7453 33.4453 64.7231ZM47.9887 74.7498C52.7401 74.7498 56.7316 71.4257 57.759 66.9814H38.2185C39.2458 71.4257 43.2373 74.7498 47.9887 74.7498Z" fill="#0F20E8"/>
</svg>
