<svg width="317" height="52" viewBox="0 0 317 52" fill="none" xmlns="http://www.w3.org/2000/svg">
<path d="M51.0007 52C36.6234 52 24.9272 40.3368 24.9272 26V1.14309C24.9272 0.503748 25.4518 0 26.0735 0C40.4508 0 52.147 11.6632 52.147 26V50.8569C52.147 51.4963 51.6224 52 51.0007 52ZM27.2198 2.30552V25.9806C27.2198 38.6706 37.2645 49.0551 49.8544 49.6557V25.9806C49.8544 13.2906 39.8097 2.90611 27.2198 2.30552Z" fill="#0F20E8"/>
<path d="M26.0734 27.1431H1.14629C0.505141 27.1431 0 26.62 0 26C0 11.6632 11.6961 0 26.0734 0C26.7146 0 27.2197 0.523122 27.2197 1.14309V26C27.2197 26.6394 26.6951 27.1431 26.0734 27.1431ZM2.33145 24.8569H24.9271V2.32491C12.7259 2.90613 2.91431 12.69 2.33145 24.8569Z" fill="#0F20E8"/>
<path d="M51.0006 51.9995C50.3594 51.9995 49.8542 51.4764 49.8542 50.8564V25.9995C49.8542 25.3602 50.3788 24.8564 51.0006 24.8564H75.9277C76.5688 24.8564 77.074 25.3796 77.074 25.9995C77.074 40.3363 65.3779 51.9995 51.0006 51.9995ZM52.1468 27.1426V49.6746C64.3481 49.0934 74.1597 39.3095 74.7425 27.1426H52.1468Z" fill="#0F20E8"/>
<path d="M111.541 35.7061H110.608C109.52 35.7061 108.626 35.338 107.946 34.5824C107.247 33.8268 106.917 32.8775 106.917 31.6957V22.4736H110.822C111.191 22.4736 111.482 22.3574 111.696 22.1443C111.91 21.9312 112.026 21.6599 112.026 21.3306C112.026 20.9818 111.91 20.7106 111.696 20.4781C111.482 20.265 111.191 20.1488 110.822 20.1488H106.917V14.8015C106.917 14.414 106.781 14.0847 106.528 13.8328C106.275 13.5809 105.945 13.4453 105.557 13.4453C105.168 13.4453 104.838 13.5809 104.605 13.8328C104.371 14.0847 104.235 14.414 104.235 14.8015V20.1488H101.982C101.613 20.1488 101.321 20.265 101.107 20.4781C100.894 20.6912 100.777 20.9818 100.777 21.3306C100.777 21.6599 100.894 21.9312 101.107 22.1443C101.321 22.3574 101.613 22.4736 101.982 22.4736H104.235V31.6957C104.235 32.955 104.507 34.0981 105.051 35.1055C105.595 36.113 106.353 36.9073 107.325 37.4885C108.296 38.0697 109.384 38.3604 110.608 38.3604H111.327C111.735 38.3604 112.085 38.2247 112.357 37.9729C112.629 37.721 112.765 37.411 112.765 37.0429C112.765 36.6555 112.648 36.3261 112.415 36.0742C112.182 35.8224 111.89 35.6868 111.521 35.6868L111.541 35.7061Z" fill="#0F20E8"/>
<path d="M147.387 20.5552C145.91 19.7221 144.278 19.2959 142.491 19.2959C140.703 19.2959 139.052 19.7221 137.595 20.5552C136.138 21.3883 134.972 22.5507 134.136 24.0232C133.301 25.4956 132.874 27.123 132.874 28.9248C132.874 30.7266 133.282 32.354 134.098 33.8071C134.914 35.2795 136.04 36.4226 137.459 37.2557C138.877 38.0887 140.47 38.515 142.219 38.515C143.715 38.515 145.094 38.205 146.338 37.5656C147.581 36.9263 148.611 36.0545 149.427 34.9501V37.0231C149.427 37.4106 149.563 37.74 149.815 37.9725C150.068 38.205 150.398 38.3406 150.787 38.3406C151.175 38.3406 151.506 38.205 151.758 37.9531C152.011 37.7013 152.147 37.3913 152.147 37.0231V28.9054C152.147 27.1037 151.719 25.4762 150.884 24.0038C150.049 22.5314 148.883 21.3689 147.426 20.5358L147.387 20.5552ZM148.572 32.6059C147.95 33.6908 147.115 34.5627 146.066 35.1826C144.997 35.8026 143.812 36.1126 142.491 36.1126C141.17 36.1126 139.984 35.8026 138.896 35.1826C137.828 34.5627 136.973 33.7102 136.371 32.6059C135.768 31.5209 135.458 30.281 135.458 28.9248C135.458 27.5686 135.768 26.348 136.371 25.2437C136.973 24.1588 137.828 23.2869 138.896 22.6476C139.965 22.0083 141.17 21.6983 142.491 21.6983C143.812 21.6983 144.997 22.0083 146.066 22.6476C147.134 23.2869 147.97 24.1394 148.572 25.2437C149.174 26.3287 149.485 27.5686 149.485 28.9248C149.485 30.281 149.174 31.5015 148.572 32.6059Z" fill="#0F20E8"/>
<path d="M175.539 14.8015C175.539 14.414 175.422 14.0847 175.17 13.8328C174.937 13.5809 174.606 13.4453 174.218 13.4453C173.829 13.4453 173.499 13.5809 173.246 13.8328C172.994 14.0847 172.858 14.414 172.858 14.8015V22.8417C172.042 21.7374 171.031 20.8656 169.769 20.2262C168.525 19.5869 167.146 19.2769 165.65 19.2769C163.901 19.2769 162.308 19.7031 160.89 20.5362C159.471 21.3693 158.344 22.5318 157.528 23.9848C156.712 25.4379 156.304 27.0847 156.304 28.8671C156.304 30.6495 156.732 32.2963 157.567 33.7687C158.403 35.2411 159.568 36.4036 161.026 37.2367C162.483 38.0697 164.134 38.496 165.922 38.496C167.709 38.496 169.361 38.0697 170.818 37.2367C172.275 36.4036 173.441 35.2411 174.276 33.7687C175.112 32.2963 175.539 30.6689 175.539 28.8671V20.7493C175.539 20.6137 175.539 20.5168 175.5 20.4393V14.7821L175.539 14.8015ZM172.022 32.5675C171.401 33.6525 170.565 34.5243 169.516 35.1636C168.447 35.803 167.262 36.113 165.941 36.113C164.62 36.113 163.435 35.803 162.347 35.1636C161.278 34.5243 160.423 33.6719 159.821 32.5675C159.219 31.4632 158.908 30.2426 158.908 28.8864C158.908 27.5303 159.219 26.3097 159.821 25.2054C160.423 24.1204 161.278 23.2486 162.347 22.6286C163.415 22.0087 164.62 21.6987 165.941 21.6987C167.767 21.6987 169.322 22.2799 170.604 23.423C171.886 24.566 172.644 26.0385 172.877 27.8403C172.877 27.9178 172.877 27.9759 172.916 28.0146C172.935 28.2084 172.955 28.4796 172.955 28.8864C172.955 30.2426 172.644 31.4632 172.042 32.5675H172.022Z" fill="#0F20E8"/>
<path d="M194.404 20.4785C193.083 19.6842 191.568 19.2773 189.858 19.2773C188.148 19.2773 186.536 19.6842 185.156 20.4979C183.777 21.3116 182.708 22.4547 181.931 23.9077C181.154 25.3802 180.765 27.027 180.765 28.9063C180.765 30.7855 181.173 32.3936 181.989 33.866C182.805 35.3191 183.952 36.4621 185.409 37.2758C186.866 38.0895 188.517 38.4964 190.363 38.4964C191.451 38.4964 192.578 38.2833 193.763 37.8571C194.948 37.4308 195.92 36.8884 196.678 36.249C196.93 36.0165 197.066 35.7453 197.066 35.4547C197.066 35.1059 196.911 34.796 196.619 34.5247C196.367 34.331 196.114 34.2535 195.862 34.2535C195.531 34.2535 195.22 34.3697 194.929 34.6022C194.424 35.0478 193.744 35.3966 192.908 35.6872C192.073 35.9778 191.237 36.1134 190.402 36.1134C188.459 36.1134 186.847 35.5322 185.545 34.3504C184.243 33.1685 183.505 31.638 183.33 29.7587H197.319C197.688 29.7587 197.979 29.6424 198.212 29.4293C198.446 29.2162 198.562 28.9256 198.562 28.5575C198.562 26.7557 198.193 25.1671 197.474 23.7527C196.755 22.3578 195.726 21.2535 194.404 20.4592V20.4785ZM183.388 27.5694C183.641 25.787 184.34 24.3727 185.506 23.2878C186.652 22.2028 188.109 21.6603 189.877 21.6603C191.646 21.6603 193.025 22.2028 194.132 23.2878C195.24 24.3727 195.881 25.8064 196.075 27.5694H183.388Z" fill="#0F20E8"/>
<path d="M227.375 35.7255H226.501C225.879 35.7255 225.354 35.4155 224.966 34.7955C224.558 34.1756 224.364 33.3619 224.364 32.3738V14.7628C224.364 14.3753 224.247 14.0459 223.994 13.8134C223.761 13.5809 223.431 13.4453 223.042 13.4453C222.673 13.4453 222.362 13.5616 222.11 13.8134C221.857 14.0459 221.721 14.3753 221.721 14.7628V32.3738C221.721 34.1174 222.168 35.5511 223.062 36.6748C223.956 37.7985 225.102 38.341 226.501 38.341H226.948C227.414 38.341 227.783 38.2247 228.074 37.9729C228.366 37.7404 228.502 37.411 228.502 37.0235C228.502 36.6361 228.405 36.3067 228.191 36.0742C227.977 35.8417 227.705 35.7061 227.356 35.7061L227.375 35.7255Z" fill="#0F20E8"/>
<path d="M245.094 20.5552C243.637 19.7221 241.985 19.2959 240.198 19.2959C238.411 19.2959 236.759 19.7221 235.302 20.5552C233.845 21.3883 232.679 22.5507 231.844 24.0232C231.008 25.4956 230.581 27.123 230.581 28.9248C230.581 30.7266 230.989 32.354 231.805 33.8071C232.621 35.2795 233.748 36.4226 235.166 37.2557C236.584 38.0887 238.177 38.515 239.926 38.515C241.422 38.515 242.801 38.205 244.045 37.5656C245.288 36.9263 246.318 36.0545 247.134 34.9501V37.0231C247.134 37.4106 247.251 37.74 247.523 37.9725C247.775 38.205 248.106 38.3406 248.494 38.3406C248.883 38.3406 249.213 38.205 249.466 37.9531C249.718 37.7013 249.854 37.3913 249.854 37.0231V28.9054C249.854 27.1037 249.427 25.4762 248.591 24.0038C247.756 22.5314 246.59 21.3689 245.133 20.5358L245.094 20.5552ZM246.279 32.6059C245.677 33.6908 244.822 34.5627 243.773 35.1826C242.704 35.8026 241.519 36.1126 240.198 36.1126C238.877 36.1126 237.692 35.8026 236.604 35.1826C235.535 34.5627 234.68 33.7102 234.078 32.6059C233.456 31.5209 233.165 30.281 233.165 28.9248C233.165 27.5686 233.476 26.348 234.078 25.2437C234.68 24.1588 235.535 23.2869 236.604 22.6476C237.672 22.0083 238.877 21.6983 240.198 21.6983C241.519 21.6983 242.704 22.0083 243.773 22.6476C244.842 23.2869 245.677 24.1394 246.279 25.2437C246.882 26.3287 247.192 27.5686 247.192 28.9248C247.192 30.281 246.882 31.5015 246.279 32.6059Z" fill="#0F20E8"/>
<path d="M296.677 14.8015C296.677 14.414 296.561 14.0847 296.308 13.8328C296.075 13.5809 295.745 13.4453 295.356 13.4453C294.968 13.4453 294.637 13.5809 294.385 13.8328C294.132 14.0847 293.996 14.414 293.996 14.8015V22.8417C293.18 21.7374 292.17 20.8656 290.907 20.2262C289.644 19.5869 288.284 19.2769 286.788 19.2769C285.04 19.2769 283.446 19.7031 282.028 20.5362C280.61 21.3693 279.483 22.5318 278.667 23.9848C277.851 25.4379 277.443 27.0847 277.443 28.8671C277.443 30.6495 277.87 32.2963 278.706 33.7687C279.541 35.2411 280.707 36.4036 282.164 37.2367C283.621 38.0697 285.273 38.496 287.06 38.496C288.848 38.496 290.499 38.0697 291.956 37.2367C293.413 36.4036 294.579 35.2411 295.414 33.7687C296.25 32.2963 296.677 30.6689 296.677 28.8671V20.7493C296.677 20.6137 296.677 20.5168 296.639 20.4393V14.7821L296.677 14.8015ZM293.161 32.5675C292.558 33.6525 291.704 34.5243 290.654 35.1636C289.586 35.803 288.401 36.113 287.08 36.113C285.758 36.113 284.573 35.803 283.485 35.1636C282.417 34.5243 281.562 33.6719 280.959 32.5675C280.338 31.4826 280.046 30.2426 280.046 28.8864C280.046 27.5303 280.357 26.3097 280.959 25.2054C281.562 24.1204 282.417 23.2486 283.485 22.6286C284.554 22.0087 285.758 21.6987 287.08 21.6987C288.906 21.6987 290.46 22.2799 291.742 23.423C293.025 24.566 293.782 26.0385 294.016 27.8403C294.016 27.9178 294.016 27.9759 294.054 28.0146C294.074 28.2084 294.093 28.4796 294.093 28.8864C294.093 30.2426 293.782 31.4632 293.18 32.5675H293.161Z" fill="#0F20E8"/>
<path d="M315.426 29.6029C314.358 28.6729 312.59 27.9948 310.122 27.588C308.296 27.2974 307.033 26.8905 306.314 26.3868C305.595 25.8831 305.246 25.2244 305.246 24.3913C305.246 23.6163 305.634 22.9576 306.392 22.4345C307.15 21.9114 308.179 21.6595 309.442 21.6595C311.405 21.6595 312.959 22.2989 314.086 23.5969C314.416 23.9457 314.805 24.12 315.29 24.12C315.562 24.12 315.795 24.0619 315.951 23.9457C316.32 23.7132 316.514 23.4032 316.514 23.0157C316.514 22.7832 316.417 22.512 316.242 22.2214C315.543 21.2914 314.63 20.5746 313.503 20.0708C312.376 19.5671 311.035 19.2959 309.52 19.2959C307.558 19.2959 305.926 19.7609 304.624 20.6715C303.322 21.6014 302.662 22.8995 302.662 24.5656C302.662 25.8637 303.225 26.9486 304.332 27.8592C305.459 28.7698 307.15 29.4092 309.403 29.7773C311.152 30.0485 312.434 30.4747 313.25 31.0172C314.066 31.5791 314.455 32.2571 314.455 33.0902C314.435 33.9814 314.008 34.7177 313.211 35.2601C312.395 35.822 311.191 36.0932 309.578 36.0932C308.471 36.0932 307.46 35.9188 306.547 35.5701C305.634 35.2214 304.896 34.737 304.352 34.0783C304.08 33.749 303.75 33.594 303.342 33.594C303.05 33.594 302.759 33.6908 302.467 33.9039C302.098 34.1945 301.904 34.5433 301.904 34.9307C301.904 35.1826 302.02 35.4539 302.254 35.7251C303.07 36.5969 304.119 37.275 305.44 37.7594C306.761 38.2437 308.121 38.4762 309.559 38.4762C310.996 38.4762 312.279 38.2437 313.406 37.7787C314.533 37.3138 315.426 36.6744 316.048 35.8413C316.689 35.0082 317 34.0589 317 33.0127C317 31.6372 316.475 30.4747 315.407 29.5448L315.426 29.6029Z" fill="#0F20E8"/>
<path d="M271.226 38.3606C270.488 38.3606 269.905 37.7794 269.905 37.0432V27.9761C269.905 24.6244 267.165 21.8927 263.804 21.8927C260.443 21.8927 257.703 24.6244 257.703 27.9761V37.0432C257.703 37.7794 257.121 38.3606 256.382 38.3606C255.644 38.3606 255.061 37.7794 255.061 37.0432V27.9761C255.061 23.1714 258.986 19.2578 263.804 19.2578C268.622 19.2578 272.547 23.1714 272.547 27.9761V37.0432C272.547 37.7794 271.964 38.3606 271.226 38.3606Z" fill="#0F20E8"/>
<path d="M216.281 20.4396C216.281 20.4396 216.184 20.3621 216.126 20.3428C216.106 20.3428 216.087 20.3234 216.048 20.304C214.824 19.6453 213.425 19.2578 211.929 19.2578C207.111 19.2578 203.186 23.1714 203.186 27.9761V37.0432C203.186 37.7794 203.769 38.3606 204.507 38.3606C205.246 38.3606 205.829 37.7794 205.829 37.0432V27.9761C205.829 24.6244 208.568 21.8927 211.929 21.8927C213.037 21.8927 214.066 22.2027 214.96 22.7258C215.135 22.8033 215.349 22.8808 215.562 22.8808C216.301 22.8808 216.903 22.2802 216.903 21.544C216.903 21.079 216.65 20.6915 216.281 20.4396Z" fill="#0F20E8"/>
<path d="M130.212 20.4396C130.212 20.4396 130.115 20.3621 130.056 20.3428C130.037 20.3428 130.017 20.3234 129.979 20.304C128.755 19.6453 127.356 19.2578 125.86 19.2578C121.041 19.2578 117.117 23.1714 117.117 27.9761V37.0432C117.117 37.7794 117.7 38.3606 118.438 38.3606C119.176 38.3606 119.759 37.7794 119.759 37.0432V27.9761C119.759 24.6244 122.498 21.8927 125.86 21.8927C126.967 21.8927 127.997 22.2027 128.891 22.7258C129.065 22.8033 129.279 22.8808 129.493 22.8808C130.231 22.8808 130.833 22.2802 130.833 21.544C130.833 21.079 130.581 20.6915 130.212 20.4396Z" fill="#0F20E8"/>
</svg>
