<svg width="96" height="96" viewBox="0 0 96 96" fill="none" xmlns="http://www.w3.org/2000/svg">
<path fill-rule="evenodd" clip-rule="evenodd" d="M0 93.7422C0 67.241 21.4988 45.7422 48 45.7422H93.7412C94.9887 45.7422 96 46.7535 96 48.001C96 74.5022 74.5012 96.001 48 96.001H2.25882C1.01131 96.001 0 94.9897 0 93.7422ZM4.57537 91.4834H48C71.2485 91.4834 90.2485 73.217 91.4246 50.2598H48C24.7515 50.2598 5.75146 68.5262 4.57537 91.4834Z" fill="#DE350B"/>
<path fill-rule="evenodd" clip-rule="evenodd" d="M0 48C0 21.4988 21.4988 0 48 0C49.2475 0 50.2588 1.01131 50.2588 2.25882V48C50.2588 49.2475 49.2475 50.2588 48 50.2588H2.25882C1.01131 50.2588 0 49.2475 0 48ZM4.57537 45.7412H45.7412V4.57537C23.5321 5.71313 5.71313 23.5321 4.57537 45.7412Z" fill="#DE350B"/>
<path fill-rule="evenodd" clip-rule="evenodd" d="M45.7412 2.25882C45.7412 1.01131 46.7525 0 48 0C74.5012 0 96 21.4988 96 48C96 49.2475 94.9887 50.2588 93.7412 50.2588H48C46.7525 50.2588 45.7412 49.2475 45.7412 48V2.25882ZM50.2589 4.57537V45.7412H91.4247C90.2869 23.5321 72.468 5.71313 50.2589 4.57537Z" fill="#DE350B"/>
<path d="M68.8937 36.2756C71.975 36.2756 74.473 33.7778 74.473 30.6964C74.473 27.6151 71.975 25.1172 68.8937 25.1172C65.8123 25.1172 63.3145 27.6151 63.3145 30.6964C63.3145 33.7778 65.8123 36.2756 68.8937 36.2756Z" fill="white"/>
<path fill-rule="evenodd" clip-rule="evenodd" d="M68.8937 27.377C67.0599 27.377 65.5733 28.8636 65.5733 30.6974C65.5733 32.5313 67.0599 34.0178 68.8937 34.0178C70.7276 34.0178 72.2143 32.5312 72.2143 30.6974C72.2143 28.8637 70.7276 27.377 68.8937 27.377ZM61.0557 30.6974C61.0557 26.3686 64.5648 22.8594 68.8937 22.8594C73.2225 22.8594 76.7319 26.3685 76.7319 30.6974C76.7319 35.0264 73.2225 38.5355 68.8937 38.5355C64.5648 38.5355 61.0557 35.0263 61.0557 30.6974Z" fill="#DE350B"/>
<path d="M27.1056 36.2756C30.187 36.2756 32.685 33.7778 32.685 30.6964C32.685 27.6151 30.187 25.1172 27.1056 25.1172C24.0242 25.1172 21.5264 27.6151 21.5264 30.6964C21.5264 33.7778 24.0242 36.2756 27.1056 36.2756Z" fill="white"/>
<path fill-rule="evenodd" clip-rule="evenodd" d="M27.1056 27.377C25.2718 27.377 23.7852 28.8636 23.7852 30.6974C23.7852 32.5313 25.2718 34.0178 27.1056 34.0178C28.9395 34.0178 30.4262 32.5312 30.4262 30.6974C30.4262 28.8637 28.9395 27.377 27.1056 27.377ZM19.2676 30.6974C19.2676 26.3686 22.7768 22.8594 27.1056 22.8594C31.4344 22.8594 34.9438 26.3685 34.9438 30.6974C34.9438 35.0264 31.4344 38.5355 27.1056 38.5355C22.7768 38.5355 19.2676 35.0263 19.2676 30.6974Z" fill="#DE350B"/>
<path d="M47.9999 77.0261C54.7764 77.0261 60.2879 71.5148 60.2879 64.7383H35.7119C35.7119 71.5148 41.2234 77.0261 47.9999 77.0261Z" fill="white"/>
<path fill-rule="evenodd" clip-rule="evenodd" d="M62.5469 77.0263C62.5469 78.2738 61.5356 79.2852 60.2881 79.2852L35.712 79.2852C34.4645 79.2852 33.4532 78.2738 33.4532 77.0263C33.4532 69.0023 39.9761 62.4796 48 62.4796C56.024 62.4796 62.5469 69.0023 62.5469 77.0263ZM48 66.9973C43.2475 66.9973 39.2551 70.3222 38.2275 74.7675L57.7726 74.7675C56.745 70.3222 52.7526 66.9973 48 66.9973Z" fill="#DE350B"/>
</svg>
