<svg width="43" height="52" viewBox="0 0 43 52" fill="none" xmlns="http://www.w3.org/2000/svg">
<path fill-rule="evenodd" clip-rule="evenodd" d="M0.169922 50.4492C0.169922 38.7169 9.68764 29.1992 21.4199 29.1992H41.6699C42.2222 29.1992 42.6699 29.6469 42.6699 30.1992C42.6699 41.9315 33.1522 51.4492 21.4199 51.4492H1.16992C0.617637 51.4492 0.169922 51.0015 0.169922 50.4492ZM2.19548 49.4492H21.4199C31.7122 49.4492 40.1237 41.3626 40.6444 31.1992H21.4199C11.1276 31.1992 2.71614 39.2859 2.19548 49.4492Z" fill="#AEAEAE"/>
<path fill-rule="evenodd" clip-rule="evenodd" d="M0.169922 30.1992C0.169922 18.4669 9.68764 8.94922 21.4199 8.94922C21.9722 8.94922 22.4199 9.39693 22.4199 9.94922V30.1992C22.4199 30.7515 21.9722 31.1992 21.4199 31.1992H1.16992C0.617637 31.1992 0.169922 30.7515 0.169922 30.1992ZM2.19548 29.1992H20.4199V10.9748C10.5878 11.4785 2.69917 19.3671 2.19548 29.1992Z" fill="#AEAEAE"/>
<path fill-rule="evenodd" clip-rule="evenodd" d="M20.4199 9.94922C20.4199 9.39693 20.8676 8.94922 21.4199 8.94922C33.1522 8.94922 42.6699 18.4669 42.6699 30.1992C42.6699 30.7515 42.2222 31.1992 41.6699 31.1992H21.4199C20.8676 31.1992 20.4199 30.7515 20.4199 30.1992V9.94922ZM22.4199 10.9748V29.1992H40.6444C40.1407 19.3671 32.2521 11.4785 22.4199 10.9748Z" fill="#AEAEAE"/>
<path d="M30.6693 25.0103C32.0334 25.0103 33.1392 23.9044 33.1392 22.5403C33.1392 21.1761 32.0334 20.0703 30.6693 20.0703C29.3051 20.0703 28.1992 21.1761 28.1992 22.5403C28.1992 23.9044 29.3051 25.0103 30.6693 25.0103Z" fill="white"/>
<path fill-rule="evenodd" clip-rule="evenodd" d="M30.6693 21.0703C29.8574 21.0703 29.1992 21.7285 29.1992 22.5403C29.1992 23.3521 29.8574 24.0103 30.6693 24.0103C31.4811 24.0103 32.1392 23.3521 32.1392 22.5403C32.1392 21.7284 31.4811 21.0703 30.6693 21.0703ZM27.1992 22.5403C27.1992 20.6238 28.7529 19.0703 30.6693 19.0703C32.5857 19.0703 34.1392 20.6239 34.1392 22.5403C34.1392 24.4567 32.5857 26.0103 30.6693 26.0103C28.7529 26.0103 27.1992 24.4567 27.1992 22.5403Z" fill="#AEAEAE"/>
<path d="M12.1693 25.0103C13.5334 25.0103 14.6392 23.9044 14.6392 22.5403C14.6392 21.1761 13.5334 20.0703 12.1693 20.0703C10.8051 20.0703 9.69922 21.1761 9.69922 22.5403C9.69922 23.9044 10.8051 25.0103 12.1693 25.0103Z" fill="white"/>
<path fill-rule="evenodd" clip-rule="evenodd" d="M12.1693 21.0703C11.3574 21.0703 10.6992 21.7285 10.6992 22.5403C10.6992 23.3521 11.3574 24.0103 12.1693 24.0103C12.9811 24.0103 13.6392 23.3521 13.6392 22.5403C13.6392 21.7284 12.9811 21.0703 12.1693 21.0703ZM8.69922 22.5403C8.69922 20.6238 10.2529 19.0703 12.1693 19.0703C14.0857 19.0703 15.6392 20.6239 15.6392 22.5403C15.6392 24.4567 14.0857 26.0103 12.1693 26.0103C10.2529 26.0103 8.69922 24.4567 8.69922 22.5403Z" fill="#AEAEAE"/>
<path d="M21.4205 43.0493C24.4205 43.0493 26.8605 40.6094 26.8605 37.6094H15.9805C15.9805 40.6094 18.4205 43.0493 21.4205 43.0493Z" fill="white"/>
<path fill-rule="evenodd" clip-rule="evenodd" d="M14.9805 37.6094C14.9805 37.0571 15.4282 36.6094 15.9805 36.6094H26.8605C27.4128 36.6094 27.8605 37.0571 27.8605 37.6094C27.8605 41.1617 24.9727 44.0493 21.4205 44.0493C17.8682 44.0493 14.9805 41.1617 14.9805 37.6094ZM21.4205 42.0493C23.5245 42.0493 25.2919 40.5773 25.7469 38.6094H17.0941C17.549 40.5773 19.3165 42.0493 21.4205 42.0493Z" fill="#AEAEAE"/>
<path d="M33.1295 13.7386V6.26868L24.2595 9.13867L21.4095 3.46875L18.5594 9.13867L9.68945 6.26868V13.7386C12.0895 16.1386 30.7194 16.1386 33.1194 13.7386H33.1295Z" fill="white"/>
<path fill-rule="evenodd" clip-rule="evenodd" d="M21.4095 2.46875C21.7875 2.46875 22.1332 2.6819 22.303 3.01964L24.7677 7.92318L32.8216 5.31724C33.126 5.21876 33.4591 5.27184 33.7177 5.46002C33.9764 5.64821 34.1295 5.94879 34.1295 6.26868V13.7386C34.1295 14.0696 33.9686 14.3631 33.7209 14.5451C33.2351 14.9753 32.5278 15.2667 31.8116 15.4833C31.0009 15.7286 30.0121 15.9249 28.9235 16.0788C26.7429 16.3872 24.0652 16.5386 21.4044 16.5386C18.7437 16.5386 16.066 16.3872 13.8854 16.0788C12.7968 15.9249 11.808 15.7286 10.9973 15.4833C10.2273 15.2504 9.46764 14.931 8.98235 14.4458C8.79481 14.2582 8.68945 14.0039 8.68945 13.7386V6.26868C8.68945 5.94879 8.84249 5.64821 9.10117 5.46002C9.35985 5.27184 9.69295 5.21876 9.9973 5.31724L18.0512 7.92318L20.516 3.01964C20.6858 2.6819 21.0315 2.46875 21.4095 2.46875ZM21.4095 5.69538L19.4529 9.58778C19.2313 10.0287 18.7211 10.242 18.2516 10.0901L10.6895 7.64328V13.2262C10.8834 13.3272 11.1708 13.4463 11.5764 13.569C12.2532 13.7737 13.1324 13.9524 14.1654 14.0985C16.2279 14.3901 18.8077 14.5386 21.4044 14.5386C24.0012 14.5386 26.581 14.3901 28.6435 14.0985C29.6765 13.9524 30.5557 13.7737 31.2325 13.569C31.6452 13.4442 31.9355 13.3231 32.1295 13.2209V7.64328L24.5673 10.0901C24.0978 10.242 23.5876 10.0287 23.366 9.58778L21.4095 5.69538Z" fill="#AEAEAE"/>
<path d="M21.4193 5.94006C22.7834 5.94006 23.8892 4.83424 23.8892 3.47009C23.8892 2.10595 22.7834 1 21.4193 1C20.0551 1 18.9492 2.10595 18.9492 3.47009C18.9492 4.83424 20.0551 5.94006 21.4193 5.94006Z" fill="white"/>
<path fill-rule="evenodd" clip-rule="evenodd" d="M21.4193 2C20.6074 2 19.9492 2.6582 19.9492 3.47009C19.9492 4.28192 20.6074 4.94006 21.4193 4.94006C22.2311 4.94006 22.8892 4.28195 22.8892 3.47009C22.8892 2.65817 22.231 2 21.4193 2ZM17.9492 3.47009C17.9492 1.5537 19.5028 0 21.4193 0C23.3357 0 24.8892 1.55373 24.8892 3.47009C24.8892 5.38652 23.3357 6.94006 21.4193 6.94006C19.5029 6.94006 17.9492 5.38655 17.9492 3.47009Z" fill="#AEAEAE"/>
</svg>
