<svg width="25" height="24" viewBox="0 0 25 24" fill="none" xmlns="http://www.w3.org/2000/svg">
<path fill-rule="evenodd" clip-rule="evenodd" d="M0.0429688 1.08696C0.0429688 0.486648 0.529617 0 1.12993 0C4.95306 0 8.54934 0.947555 11.7101 2.60213C12.242 2.88053 12.4474 3.53737 12.169 4.06922C11.8906 4.60107 11.2338 4.80653 10.7019 4.52812C8.14259 3.18839 5.27064 2.36165 2.21689 2.20222V21.8261H21.8408C21.6813 18.7747 20.8547 15.91 19.5141 13.3396C19.2364 12.8073 19.4429 12.1508 19.9751 11.8732C20.5074 11.5956 21.1639 11.802 21.4415 12.3342C23.095 15.5043 24.043 19.0891 24.043 22.913C24.043 23.5134 23.5564 24 22.9561 24H1.12993C0.529617 24 0.0429688 23.5134 0.0429688 22.913V1.08696Z" fill="#6A1FC2"/>
<path fill-rule="evenodd" clip-rule="evenodd" d="M21.7243 2.18862C22.1493 2.61264 22.15 3.30086 21.726 3.72581L1.85639 23.6388C1.43237 24.0638 0.744149 24.0645 0.319202 23.6405C-0.105745 23.2165 -0.106496 22.5283 0.317524 22.1033L20.1871 2.1903C20.6111 1.76535 21.2994 1.7646 21.7243 2.18862Z" fill="#6A1FC2"/>
<path fill-rule="evenodd" clip-rule="evenodd" d="M20.9507 1.87111C21.551 1.86813 22.0401 2.35237 22.043 2.95267L22.0648 7.34403C22.0678 7.94433 21.5835 8.43338 20.9832 8.43635C20.3829 8.43933 19.8939 7.95509 19.8909 7.35479L19.8692 2.96343C19.8662 2.36313 20.3504 1.87408 20.9507 1.87111Z" fill="#6A1FC2"/>
<path fill-rule="evenodd" clip-rule="evenodd" d="M21.9031 2.94095C21.9061 3.54125 21.4218 4.0303 20.8215 4.03328L16.4302 4.05504C15.8299 4.05801 15.3409 3.57378 15.3379 2.97348C15.3349 2.37318 15.8192 1.88412 16.4195 1.88115L20.8108 1.85939C21.4111 1.85641 21.9001 2.34064 21.9031 2.94095Z" fill="#6A1FC2"/>
</svg>
