<svg width="17" height="16" viewBox="0 0 17 16" fill="none" xmlns="http://www.w3.org/2000/svg">
<path fill-rule="evenodd" clip-rule="evenodd" d="M0.0390625 0.724635C0.0390625 0.32443 0.379878 0 0.800295 0C3.47778 0 5.99638 0.631797 8.20997 1.73483C8.58245 1.92043 8.72633 2.35832 8.53136 2.71289C8.33638 3.06745 7.87637 3.20442 7.5039 3.01882C5.71149 2.12566 3.70016 1.57444 1.56153 1.46814V14.5507H15.3048C15.1931 12.5165 14.6142 10.6067 13.6753 8.8931C13.4809 8.53826 13.6255 8.10057 13.9982 7.91549C14.371 7.73041 14.8308 7.86803 15.0252 8.22287C16.1832 10.3362 16.8471 12.7261 16.8471 15.2754C16.8471 15.6756 16.5063 16 16.0859 16H0.800295C0.379878 16 0.0390625 15.6756 0.0390625 15.2754V0.724635Z" fill="#0F20E8"/>
<path fill-rule="evenodd" clip-rule="evenodd" d="M15.222 1.45694C15.5196 1.73969 15.52 2.19851 15.2229 2.48173L1.29995 15.7571C1.00291 16.0403 0.520925 16.0407 0.223402 15.7579C-0.074122 15.4752 -0.0745174 15.0164 0.222519 14.7331L14.1455 1.45778C14.4425 1.17456 14.9245 1.17418 15.222 1.45694Z" fill="#0F20E8"/>
<path fill-rule="evenodd" clip-rule="evenodd" d="M14.6813 1.23829C15.1017 1.23632 15.4442 1.55915 15.4463 1.95935L15.4615 4.89406C15.4635 5.29426 15.1244 5.62029 14.704 5.62226C14.2836 5.62423 13.9411 5.30141 13.939 4.90121L13.9238 1.96649C13.9218 1.56629 14.2609 1.24026 14.6813 1.23829Z" fill="#0F20E8"/>
<path fill-rule="evenodd" clip-rule="evenodd" d="M15.3459 1.95251C15.348 2.35271 15.0089 2.67874 14.5884 2.68071L11.513 2.69513C11.0926 2.6971 10.7501 2.37427 10.7481 1.97407C10.746 1.57387 11.0851 1.24784 11.5055 1.24587L14.5809 1.23145C15.0014 1.22948 15.3438 1.55231 15.3459 1.95251Z" fill="#0F20E8"/>
</svg>
