<svg width="24" height="24" viewBox="0 0 24 24" fill="none" xmlns="http://www.w3.org/2000/svg">
<path fill-rule="evenodd" clip-rule="evenodd" d="M0 1.08696C0 0.486651 0.486651 0 1.08696 0H22.9132C23.5135 0 24.0002 0.486651 24.0002 1.08696V22.913C24.0002 23.5133 23.5135 24 22.9132 24C10.2585 24 0 13.7417 0 1.08696ZM2.20192 2.17393C2.74865 12.7628 11.2374 21.2514 21.8263 21.7981V2.17393H2.20192Z" fill="#0F20E8"/>
<path fill-rule="evenodd" clip-rule="evenodd" d="M1.08696 0C1.68728 0 2.17393 0.486651 2.17393 1.08696V21.8261H22.9132C23.5135 21.8261 24.0002 22.3127 24.0002 22.913C24.0002 23.5133 23.5135 24 22.9132 24H1.08696C0.486651 24 0 23.5133 0 22.913V1.08696C0 0.486651 0.486651 0 1.08696 0Z" fill="#0F20E8"/>
</svg>
