<svg width="85" height="101" viewBox="0 0 85 101" fill="none" xmlns="http://www.w3.org/2000/svg">
<path d="M42.4595 78.9308H42.308C42.0252 78.9308 41.803 78.7086 41.803 78.4258C41.803 78.143 42.0252 77.9208 42.308 77.9208H42.4595H42.6514C42.9241 77.9208 43.1564 78.143 43.1564 78.4258C43.1564 78.7086 42.9342 78.9308 42.6514 78.9308H42.4393H42.4595ZM37.2277 78.5773C37.2277 78.5773 37.1873 78.5773 37.157 78.5773L36.9449 78.547C36.6722 78.5066 36.4803 78.2541 36.5106 77.9814C36.551 77.7087 36.8136 77.5168 37.0762 77.5471L37.2782 77.5774C37.5509 77.6178 37.7529 77.8703 37.7125 78.143C37.6822 78.3955 37.46 78.5874 37.2075 78.5874L37.2277 78.5773ZM47.7418 78.5773C47.4893 78.5773 47.2772 78.3955 47.2469 78.143C47.2065 77.8703 47.3984 77.6077 47.6812 77.5774L47.8832 77.5471C48.1458 77.5067 48.4185 77.6986 48.4488 77.9814C48.4892 78.2541 48.2973 78.5167 48.0145 78.547L47.8125 78.5773C47.8125 78.5773 47.762 78.5773 47.7418 78.5773ZM32.0464 77.5168C32.0464 77.5168 31.9555 77.5168 31.9151 77.4966L31.7131 77.436C31.4505 77.3552 31.2889 77.0825 31.3697 76.8098C31.4505 76.5371 31.7232 76.3856 31.9959 76.4664L32.1878 76.5169C32.4605 76.5876 32.612 76.8704 32.5413 77.1431C32.4807 77.3653 32.2787 77.5168 32.0565 77.5168H32.0464ZM52.9231 77.5067C52.7009 77.5067 52.4989 77.3653 52.4383 77.133C52.3676 76.8603 52.5191 76.5876 52.7918 76.5068L52.9837 76.4563C53.2564 76.3755 53.5291 76.5371 53.6099 76.7997C53.6907 77.0724 53.5291 77.3451 53.2665 77.4259L53.0645 77.4865C53.0645 77.4865 52.9736 77.5067 52.9332 77.5067H52.9231ZM27.0469 75.7594C26.9762 75.7594 26.9156 75.7493 26.8449 75.719L26.6631 75.6382C26.4106 75.5271 26.2894 75.2342 26.4005 74.9716C26.5116 74.7191 26.8146 74.5979 27.0671 74.709L27.2489 74.7898C27.5014 74.9009 27.6226 75.1938 27.5115 75.4564C27.4307 75.6483 27.2388 75.7594 27.0469 75.7594ZM57.9125 75.7392C57.7206 75.7392 57.5287 75.6281 57.4479 75.4362C57.3368 75.1837 57.4479 74.8807 57.7105 74.7696L57.9024 74.6888C58.1549 74.5777 58.4579 74.6888 58.569 74.9514C58.6801 75.2039 58.569 75.5069 58.3064 75.618L58.1145 75.6988C58.0438 75.7291 57.9832 75.7392 57.9125 75.7392ZM22.3504 73.3354C22.2595 73.3354 22.1686 73.3152 22.0878 73.2647L21.9161 73.1637C21.6737 73.0223 21.603 72.7092 21.7444 72.4668C21.8858 72.2244 22.1989 72.1537 22.4413 72.2951L22.613 72.4062C22.8554 72.5476 22.9261 72.8607 22.7847 73.1031C22.6938 73.2546 22.5221 73.3455 22.3504 73.3455V73.3354ZM62.609 73.3051C62.4373 73.3051 62.2757 73.2243 62.1747 73.0627C62.0333 72.8203 62.104 72.5173 62.3464 72.3658L62.5181 72.2547C62.7605 72.1133 63.0635 72.184 63.215 72.4264C63.3564 72.6688 63.2857 72.9718 63.0433 73.1233L62.8716 73.2344C62.7908 73.2849 62.6999 73.3051 62.609 73.3051ZM18.0175 70.2953C17.9064 70.2953 17.7953 70.2549 17.7044 70.1842L17.5428 70.0529C17.3307 69.8711 17.3004 69.558 17.4721 69.3459C17.6539 69.1338 17.967 69.1035 18.1791 69.2752L18.3306 69.3964C18.5427 69.5681 18.5831 69.8913 18.4114 70.1034C18.3104 70.2246 18.169 70.2953 18.0175 70.2953ZM66.9318 70.2549C66.7904 70.2549 66.6389 70.1943 66.5379 70.0731C66.3662 69.861 66.3965 69.5378 66.6086 69.3661L66.7702 69.2348C66.9823 69.0631 67.3055 69.0934 67.4772 69.3055C67.6489 69.5176 67.6186 69.8408 67.4065 70.0125L67.255 70.1438C67.1641 70.2246 67.0429 70.2549 66.9318 70.2549ZM14.1391 66.6896C14.0078 66.6896 13.8664 66.6391 13.7755 66.528L13.6341 66.3765C13.4422 66.1745 13.4523 65.8513 13.6644 65.6594C13.8664 65.4675 14.1896 65.4776 14.3815 65.6897L14.5229 65.8412C14.7148 66.0432 14.7047 66.3664 14.5027 66.5583C14.4017 66.6492 14.2805 66.6997 14.1593 66.6997L14.1391 66.6896ZM70.8001 66.6391C70.6789 66.6391 70.5577 66.5987 70.4567 66.5078C70.2547 66.3159 70.2446 66.0028 70.4264 65.7907L70.5678 65.6392C70.7597 65.4372 71.0829 65.4271 71.2849 65.6089C71.4869 65.8008 71.497 66.1139 71.3152 66.326L71.1738 66.4775C71.0728 66.5886 70.9415 66.6391 70.8001 66.6391ZM10.7859 62.589C10.6243 62.589 10.4728 62.5183 10.3718 62.3769L10.2607 62.2153C10.0991 61.983 10.1496 61.6699 10.3819 61.5083C10.6041 61.3467 10.9273 61.3972 11.0889 61.6295L11.2101 61.8012C11.3717 62.0335 11.3111 62.3466 11.0889 62.5082C10.998 62.5688 10.897 62.5991 10.796 62.5991L10.7859 62.589ZM74.1432 62.5385C74.0422 62.5385 73.9412 62.5082 73.8503 62.4476C73.6281 62.286 73.5675 61.9729 73.7291 61.7406L73.8402 61.579C74.0018 61.3467 74.3149 61.2861 74.5472 61.4477C74.7795 61.6093 74.8401 61.9224 74.6785 62.1446L74.5573 62.3163C74.4563 62.4577 74.3048 62.5284 74.1432 62.5284V62.5385ZM8.03874 58.0541C7.85695 58.0541 7.67514 57.9531 7.58424 57.7814L7.49335 57.5996C7.36205 57.3471 7.46305 57.0441 7.70545 56.923C7.94784 56.7916 8.26094 56.8926 8.38214 57.135L8.47304 57.3168C8.60434 57.5693 8.50334 57.8723 8.25084 57.9935C8.18014 58.0339 8.09934 58.0541 8.01854 58.0541H8.03874ZM76.9207 58.0036C76.8399 58.0036 76.7591 57.9834 76.6884 57.943C76.446 57.8117 76.345 57.5087 76.4763 57.2562L76.5672 57.0845C76.6884 56.8321 77.0015 56.7411 77.2439 56.8623C77.4964 56.9835 77.5873 57.2966 77.4661 57.539L77.3651 57.7208C77.2742 57.8925 77.1025 57.9935 76.9207 57.9935V58.0036ZM5.91775 53.2062C5.71575 53.2062 5.51375 53.0749 5.44305 52.8729L5.37235 52.6708C5.28145 52.4082 5.42285 52.1154 5.68545 52.0245C5.94805 51.9336 6.24095 52.075 6.33185 52.3376L6.40255 52.5294C6.49345 52.792 6.36215 53.0849 6.09955 53.1758C6.03895 53.196 5.98845 53.2062 5.92785 53.2062H5.91775ZM79.0316 53.1557C78.971 53.1557 78.9205 53.1557 78.8599 53.1254C78.5973 53.0345 78.4559 52.7416 78.5569 52.479L78.6276 52.2871C78.7185 52.0245 79.0114 51.883 79.274 51.9841C79.5366 52.075 79.678 52.3679 79.577 52.6305L79.5063 52.8224C79.4356 53.0345 79.2336 53.1557 79.0316 53.1557ZM4.47345 48.1057C4.24115 48.1057 4.02905 47.9441 3.97855 47.7017L3.93815 47.4997C3.87755 47.227 4.05935 46.9543 4.33205 46.9038C4.60475 46.8533 4.87745 47.025 4.92795 47.2977L4.96835 47.4997C5.02895 47.7724 4.84715 48.0451 4.57445 48.0956C4.54415 48.0956 4.50375 48.1057 4.47345 48.1057ZM80.4557 48.0552C80.4557 48.0552 80.385 48.0552 80.3547 48.0451C80.082 47.9845 79.9103 47.7219 79.9608 47.4492L80.0012 47.2573C80.0517 46.9846 80.3143 46.8028 80.5971 46.8533C80.8698 46.9038 81.0516 47.1664 81.0011 47.4492L80.9607 47.6512C80.9102 47.8936 80.6981 48.0552 80.4658 48.0552H80.4557ZM81.1728 42.8133C81.1728 42.8133 81.1425 42.8133 81.1324 42.8133C80.8496 42.7931 80.6476 42.5507 80.6678 42.2679V42.076C80.688 41.7932 80.9102 41.571 81.2031 41.5912C81.4859 41.6013 81.698 41.8437 81.6879 42.1164V42.3386C81.6576 42.6012 81.4354 42.8032 81.1728 42.8032V42.8133ZM3.23115 42.3992V42.1871C3.20085 41.9043 3.41295 41.672 3.69575 41.6518C3.96845 41.6316 4.21085 41.8437 4.23105 42.1265V42.3184L3.24125 42.3992H3.23115ZM3.72605 37.5714C3.72605 37.5714 3.71595 37.5714 3.70585 37.5714C3.42305 37.5613 3.21095 37.3189 3.22105 37.0462V36.824C3.25135 36.5412 3.52405 36.3392 3.77655 36.3594C4.05935 36.3796 4.26135 36.622 4.24115 36.9048V37.0967C4.22095 37.3694 3.98865 37.5815 3.72605 37.5815V37.5714ZM81.1728 37.5209C80.9102 37.5209 80.688 37.3189 80.6678 37.0563V36.8543C80.6375 36.5715 80.8395 36.3392 81.1223 36.319C81.4051 36.2988 81.6374 36.5109 81.6677 36.7836V36.9856C81.698 37.2684 81.496 37.5007 81.2132 37.5209C81.2031 37.5209 81.193 37.5209 81.1728 37.5209ZM4.44315 32.3194C4.44315 32.3194 4.38255 32.3194 4.34215 32.3194C4.06945 32.2689 3.88765 32.0063 3.93815 31.7235L3.97855 31.5215C4.03915 31.2488 4.30175 31.0771 4.57445 31.1276C4.84715 31.1882 5.01885 31.4508 4.96835 31.7235L4.92795 31.9154C4.87745 32.1578 4.66535 32.3194 4.43305 32.3194H4.44315ZM80.4759 32.2689C80.2436 32.2689 80.0315 32.1073 79.981 31.8649L79.9406 31.673C79.88 31.4003 80.0517 31.1276 80.3244 31.067C80.5971 31.0064 80.8698 31.1781 80.9304 31.4508L80.9708 31.6528C81.0314 31.9255 80.8496 32.1982 80.5769 32.2487C80.5466 32.2487 80.5062 32.2588 80.4759 32.2588V32.2689ZM5.84705 27.2189C5.78645 27.2189 5.72585 27.2189 5.67535 27.1886C5.41275 27.0876 5.28145 26.8048 5.38245 26.5422L5.45315 26.3604C5.54405 26.0978 5.83695 25.9665 6.09955 26.0574C6.36215 26.1483 6.50355 26.4412 6.40255 26.7038L6.33185 26.9058C6.25105 27.1078 6.05915 27.2391 5.85715 27.2391L5.84705 27.2189ZM79.0518 27.1684C78.8397 27.1684 78.6478 27.0371 78.5771 26.8351L78.5064 26.6432C78.4155 26.3806 78.5468 26.0877 78.8094 25.9968C79.072 25.8958 79.3649 26.0372 79.4558 26.2998L79.5265 26.5018C79.6174 26.7644 79.4861 27.0573 79.2235 27.1482C79.1629 27.1684 79.1124 27.1785 79.0518 27.1785V27.1684ZM7.94784 22.3507C7.86704 22.3507 7.79634 22.3305 7.71554 22.3002C7.46305 22.179 7.37215 21.8659 7.49335 21.6235L7.59435 21.4417C7.72565 21.1892 8.02865 21.0983 8.27104 21.2296C8.51344 21.3609 8.61444 21.6639 8.48314 21.9164L8.39224 22.0881C8.30134 22.2598 8.12964 22.3608 7.93775 22.3608L7.94784 22.3507ZM76.4965 22.0275L76.9409 21.7952L76.4763 21.9871L76.3955 21.8356C76.2642 21.5831 76.3652 21.2801 76.6177 21.1589C76.8702 21.0377 77.1732 21.1286 77.2944 21.3811L77.3651 21.5225L76.4864 22.0275H76.4965ZM10.695 17.8259C10.594 17.8259 10.493 17.7956 10.4122 17.735C10.1799 17.5734 10.1294 17.2603 10.2809 17.028L10.4021 16.8563C10.5637 16.624 10.8768 16.5735 11.1091 16.7351C11.3313 16.8967 11.3919 17.2098 11.2303 17.4421L11.1192 17.6037C11.0182 17.7451 10.8667 17.8259 10.7051 17.8259H10.695ZM73.7897 17.5633L74.2038 17.2704L73.7594 17.5229L73.6685 17.4017C73.5069 17.1694 73.5675 16.8563 73.7897 16.6947C74.022 16.5331 74.3351 16.5937 74.4967 16.8159L74.5775 16.9371L74.1937 17.2704L73.7796 17.5633H73.7897ZM14.028 13.7152C13.9068 13.7152 13.7856 13.6748 13.6846 13.5839C13.4826 13.392 13.4725 13.0789 13.6543 12.8668L13.7957 12.7153C13.9876 12.5133 14.3108 12.5032 14.5128 12.6951C14.7148 12.887 14.7249 13.2102 14.533 13.4122L14.3916 13.5637C14.2906 13.6748 14.1593 13.7253 14.0179 13.7253L14.028 13.7152ZM70.8607 13.6647C70.7294 13.6647 70.588 13.6142 70.487 13.5031L70.3557 13.3617C70.1638 13.1597 70.1739 12.8365 70.3759 12.6446C70.5779 12.4527 70.9011 12.4628 71.093 12.6648L71.2344 12.8163C71.4263 13.0183 71.4162 13.3415 71.2041 13.5334C71.1031 13.6243 70.9819 13.6647 70.8607 13.6647ZM17.8862 10.0893C17.7347 10.0893 17.5933 10.0287 17.4923 9.89739C17.3206 9.68529 17.3509 9.36209 17.5731 9.19039L17.7347 9.05909C17.9468 8.88739 18.27 8.91769 18.4417 9.13989C18.6134 9.35199 18.5831 9.67519 18.3609 9.84689L18.1993 9.97819C18.1084 10.0489 17.9973 10.0893 17.8862 10.0893ZM67.0025 10.0489C66.8914 10.0489 66.7803 10.0085 66.6793 9.93779L66.5278 9.81659C66.3056 9.64489 66.2753 9.32169 66.447 9.10959C66.6187 8.88739 66.9419 8.85709 67.154 9.02879L67.3156 9.16009C67.5277 9.34189 67.558 9.65499 67.3863 9.86709C67.2853 9.98829 67.1439 10.0489 66.9924 10.0489H67.0025ZM22.1989 7.01889C22.0272 7.01889 21.8656 6.93809 21.7646 6.77649C21.6232 6.53409 21.6939 6.23109 21.9363 6.07959L22.108 5.96849C22.3504 5.81699 22.6534 5.89779 22.8049 6.14019C22.9463 6.38259 22.8756 6.68559 22.6332 6.83709L22.4615 6.94819C22.3807 6.99869 22.2898 7.01889 22.1989 7.01889ZM62.4171 6.90779L62.6797 6.47349L62.3363 6.85729L62.2353 6.79669C61.9929 6.65529 61.9222 6.34219 62.0636 6.09979C62.205 5.85739 62.5181 5.78669 62.7605 5.92809L62.8514 5.98869L62.6696 6.47349L62.407 6.90779H62.4171ZM26.8853 4.5646C26.6934 4.5646 26.5015 4.4535 26.4207 4.2616C26.3096 4.0091 26.4207 3.7061 26.6833 3.595L26.8752 3.5142C27.1277 3.4031 27.4307 3.5142 27.5418 3.7768C27.6529 4.0394 27.5418 4.3323 27.2792 4.4434L27.0873 4.5242C27.0166 4.5545 26.956 4.5646 26.8853 4.5646ZM57.9832 4.5444C57.9125 4.5444 57.8519 4.5343 57.7812 4.504L57.5994 4.4232C57.3469 4.3121 57.2257 4.0192 57.3368 3.7566C57.4479 3.494 57.7509 3.3829 58.0034 3.494L58.1852 3.5748C58.4377 3.6859 58.5589 3.9788 58.4478 4.2414C58.367 4.4333 58.1751 4.5444 57.9832 4.5444ZM31.8747 2.7769C31.6525 2.7769 31.4505 2.6254 31.3899 2.4032C31.3192 2.1305 31.4707 1.8578 31.7434 1.777L31.9353 1.7265C32.208 1.6457 32.4807 1.8073 32.5615 2.08C32.6322 2.3527 32.4807 2.6254 32.208 2.7062L32.006 2.7567C32.006 2.7567 31.9151 2.7769 31.8747 2.7769ZM53.0039 2.7668C53.0039 2.7668 52.913 2.7668 52.8726 2.7466L52.6807 2.6961C52.408 2.6254 52.2565 2.3426 52.3272 2.0699C52.3979 1.7972 52.6807 1.6457 52.9534 1.7164L53.1554 1.7669C53.4281 1.8376 53.5796 2.1204 53.5089 2.3931C53.4483 2.6153 53.2463 2.7668 53.0241 2.7668H53.0039ZM47.8226 1.6861C47.8226 1.6861 47.7721 1.6861 47.7519 1.6861L47.5499 1.6558C47.2772 1.6154 47.0752 1.3629 47.1156 1.0902C47.156 0.817499 47.4085 0.6155 47.6812 0.6559L47.8933 0.6862C48.166 0.7266 48.3579 0.979099 48.3276 1.2518C48.2872 1.5043 48.0751 1.6861 47.8327 1.6861H47.8226ZM37.1671 1.6861L36.9853 0.6963L37.1873 0.666C37.46 0.6256 37.7125 0.8276 37.7529 1.1003C37.7933 1.373 37.5913 1.6255 37.3186 1.6659L37.1671 1.6861ZM42.5403 1.3225H42.3383C42.0555 1.3225 41.8333 1.1003 41.8333 0.8175C41.8333 0.5347 42.0555 0.3125 42.3383 0.3125H42.4696C42.7524 0.3125 43.015 0.5347 43.015 0.8175C43.015 1.1003 42.8231 1.3225 42.5504 1.3225H42.5403Z" fill="#0B00DB"/>
<path d="M83.9414 63.1937V72.1827C83.9313 79.2325 79.8913 86.2924 71.8315 91.6858C63.6909 97.1297 53.0051 99.8365 42.3295 99.8163C31.7851 99.7961 21.2609 97.1095 13.2112 91.7565C5.0908 86.353 1.0407 79.2628 1.0508 72.1726V63.1836" fill="#BDBFF2"/>
<path d="M42.4599 100.312H42.3387C31.2489 100.292 20.8055 97.4035 12.9477 92.1717C4.92833 86.849 0.534839 79.7487 0.544939 72.1737V63.1847C0.544939 62.9019 0.767139 62.6797 1.04994 62.6797C1.33274 62.6797 1.55494 62.9019 1.55494 63.1847V72.1737C1.54484 79.3952 5.78683 86.2026 13.4931 91.3233C21.1893 96.444 31.4307 99.272 42.3286 99.2922H42.4498C53.4487 99.2922 63.781 96.4339 71.5479 91.2526C79.2037 86.1319 83.4255 79.3548 83.4356 72.1737V63.1847C83.4356 62.9019 83.6578 62.6797 83.9406 62.6797C84.2234 62.6797 84.4456 62.9019 84.4456 63.1847V72.1737C84.4355 79.7083 80.0521 86.7783 72.1034 92.0909C64.1749 97.3934 53.6507 100.302 42.4498 100.302L42.4599 100.312Z" fill="#0B00DB"/>
<path d="M13.1607 43.693C5.1009 49.0864 1.0609 56.1362 1.0508 63.1961C1.0407 70.2863 5.0908 77.3765 13.2112 82.7699C21.2609 88.1229 31.7851 90.7993 42.3295 90.8296C53.0051 90.8498 63.6909 88.1431 71.8315 82.6992C79.9014 77.3058 83.9313 70.256 83.9414 63.1961C83.9515 56.1059 79.9014 49.0157 71.781 43.6223C63.6909 38.239 53.0961 35.5625 42.5012 35.5625C31.8861 35.5625 21.2609 38.2794 13.1708 43.693H13.1607Z" fill="white"/>
<path d="M42.4599 91.3234H42.3286C31.2388 91.3032 20.7954 88.4146 12.9376 83.1828C4.92834 77.8702 0.534839 70.7699 0.544939 63.1949C0.555039 55.6603 4.93844 48.5903 12.8871 43.2777C20.7954 37.9853 31.3196 35.0664 42.5003 35.0664H42.5407C53.681 35.0664 64.1648 37.955 72.063 43.207C80.0622 48.5297 84.4658 55.63 84.4557 63.205C84.4456 70.7396 80.0622 77.8096 72.1135 83.1222C64.185 88.4247 53.6608 91.3335 42.4599 91.3335V91.3234ZM13.4426 44.116C5.78683 49.2266 1.56504 56.0037 1.55494 63.1949C1.54484 70.4164 5.78683 77.2238 13.4931 82.3445C21.1893 87.4652 31.4307 90.2932 42.3286 90.3134H42.4498C53.4487 90.3134 63.781 87.4551 71.5378 82.2738C79.1936 77.1531 83.4154 70.376 83.4255 63.1949C83.4356 55.9734 79.1936 49.166 71.4873 44.0453C63.7507 38.9044 53.4689 36.0764 42.5306 36.0764H42.4902C31.5014 36.0764 21.1893 38.9448 13.4426 44.116Z" fill="#0B00DB"/>
<path d="M42.5249 87.2621C63.4315 87.2366 80.3664 76.4402 80.3502 63.1476C80.334 49.8551 63.3727 39.1001 42.4661 39.1256C21.5595 39.1512 4.62449 49.9476 4.64073 63.2401C4.65697 76.5327 21.6183 87.2877 42.5249 87.2621Z" fill="#BDBFF2"/>
<path d="M42.4499 87.7484C32.6832 87.7484 22.9266 85.3951 15.4829 80.6785C8.18062 76.0426 4.15072 69.8513 4.14062 63.2459C4.14062 56.6405 8.14022 50.4391 15.4425 45.7931L15.7152 46.2173L15.4425 45.7931C30.34 36.2991 54.5901 36.2688 69.5179 45.7224C76.8202 50.3583 80.8501 56.5395 80.8602 63.155C80.8602 69.7604 76.8606 75.9618 69.5583 80.6178C62.0944 85.3749 52.2671 87.7585 42.46 87.7585L42.4499 87.7484ZM15.9778 46.6314C8.98862 51.0855 5.14052 56.9839 5.15062 63.2358C5.16072 69.4877 9.01892 75.376 16.0283 79.8099C30.6531 89.0816 54.4184 89.0513 69.0129 79.7392C76.0021 75.2851 79.8502 69.3867 79.8401 63.1348C79.83 56.8829 75.9718 50.9946 68.9624 46.5607C54.3376 37.2889 30.5723 37.3192 15.9778 46.6314Z" fill="#0B00DB"/>
<path d="M42.3469 80.5997C58.9918 80.5794 72.4757 72.7717 72.464 63.1607C72.4522 53.5497 58.9493 45.7749 42.3044 45.7952C25.6594 45.8155 12.1755 53.6233 12.1873 63.2343C12.199 72.8453 25.7019 80.6201 42.3469 80.5997Z" fill="white"/>
<path d="M42.2885 81.084C34.5014 81.084 26.7143 79.3771 20.7856 75.9633C14.9276 72.5899 11.6956 68.0651 11.6855 63.2373C11.6855 58.3994 14.8973 53.8746 20.7452 50.481C32.6228 43.6029 51.9744 43.5726 63.8722 50.4305C69.7302 53.8039 72.9622 58.3287 72.9723 63.1565C72.9723 67.9944 69.7605 72.5192 63.9126 75.9128C57.9536 79.367 50.116 81.094 42.2885 81.094V81.084ZM42.3794 46.2996C34.7337 46.2996 27.0779 47.9863 21.2603 51.3496C15.7356 54.5513 12.6955 58.763 12.6955 63.2272C12.6955 67.6914 15.7558 71.893 21.2906 75.0846C32.9157 81.7707 51.8027 81.7505 63.4076 75.0341C68.9323 71.8324 71.9724 67.6207 71.9724 63.1565C71.9724 58.6923 68.9121 54.4907 63.3773 51.2991C57.5799 47.9661 49.9847 46.2996 42.3794 46.2996Z" fill="#0B00DB"/>
<path d="M42.3416 77.7985C56.6996 77.7809 68.331 71.228 68.3211 63.1621C68.3113 55.0963 56.6639 48.5718 42.3059 48.5893C27.948 48.6069 16.3166 55.1598 16.3264 63.2257C16.3363 71.2916 27.9837 77.816 42.3416 77.7985Z" fill="#0B00DB"/>
<path d="M42.2881 78.2839C35.5616 78.2839 28.835 76.8497 23.7143 73.9813C18.634 71.1331 15.8363 67.3153 15.8262 63.2248C15.8262 59.1343 18.6138 55.3064 23.684 52.4481C33.9456 46.6609 50.661 46.6407 60.9428 52.3976C66.0231 55.2458 68.8208 59.0636 68.8309 63.1541C68.8309 67.2446 66.0433 71.0725 60.9731 73.9308C55.8221 76.8295 49.0551 78.2839 42.2881 78.2839ZM23.9365 52.8925L24.189 53.3369C19.4521 56.0033 16.8463 59.5181 16.8463 63.2349C16.8463 66.9517 19.4723 70.4564 24.2092 73.1127C34.2183 78.7182 50.4792 78.698 60.4782 73.0622C65.2151 70.3958 67.8209 66.881 67.8209 63.1642C67.8209 59.4474 65.1949 55.9427 60.458 53.2864C50.4489 47.681 34.188 47.7012 24.189 53.3369L23.9365 52.8925Z" fill="white"/>
<path d="M44.2777 68.2028C55.7852 68.2028 65.114 65.9599 65.114 63.1932C65.114 60.4265 55.7852 58.1836 44.2777 58.1836C32.7701 58.1836 23.4414 60.4265 23.4414 63.1932C23.4414 65.9599 32.7701 68.2028 44.2777 68.2028Z" fill="#0B00AB"/>
<path d="M42.167 75.3876H41.965C41.6822 75.3876 41.46 75.1553 41.46 74.8725C41.46 74.5998 41.6923 74.3675 41.965 74.3675H42.167C42.4498 74.3675 42.672 74.5998 42.672 74.8826C42.672 75.1553 42.4397 75.3876 42.167 75.3876ZM47.1564 75.0644C46.9039 75.0644 46.6917 74.8826 46.6614 74.6301C46.621 74.3574 46.823 74.0948 47.0957 74.0645L47.2876 74.0342C47.5502 73.9938 47.8229 74.1857 47.8532 74.4685C47.8936 74.7412 47.7017 75.0038 47.4189 75.0341L47.2169 75.0644C47.2169 75.0644 47.1765 75.0644 47.1462 75.0644H47.1564ZM36.9049 74.9937L36.7029 74.9634C36.4302 74.923 36.2383 74.6604 36.2787 74.3877C36.3191 74.115 36.5918 73.9231 36.8544 73.9635L37.0059 73.9837L36.9049 74.9937ZM52.2366 73.9736C52.0245 73.9736 51.8225 73.8322 51.7518 73.6201C51.671 73.3575 51.8225 73.0747 52.0851 72.9939L52.277 72.9333C52.5497 72.8525 52.8224 72.9939 52.9133 73.2666C53.0042 73.5393 52.8527 73.812 52.58 73.9029L52.3881 73.9635C52.3881 73.9635 52.2871 73.9837 52.2366 73.9837V73.9736ZM31.9155 73.8322C31.865 73.8322 31.8145 73.8322 31.7539 73.812L31.562 73.7514C31.2994 73.6605 31.158 73.3777 31.2489 73.1151C31.3398 72.8525 31.6226 72.7111 31.8852 72.802L32.067 72.8626C32.3296 72.9535 32.4811 73.2363 32.3902 73.4989C32.3195 73.711 32.1276 73.8423 31.9155 73.8423V73.8322ZM57.2967 71.8829L57.024 71.4587L56.8018 71.0042L56.9432 70.9234C57.1856 70.782 57.4886 70.8628 57.63 71.1052C57.7714 71.3476 57.6906 71.6506 57.4482 71.792L57.2967 71.8829ZM27.1685 71.7213C27.0776 71.7213 26.9867 71.7011 26.9059 71.6506L26.7342 71.5395C26.4918 71.3981 26.4211 71.085 26.5726 70.8426C26.714 70.6002 27.0271 70.5295 27.2695 70.681L27.4311 70.782C27.6735 70.9234 27.7543 71.2365 27.6028 71.4789C27.5119 71.6405 27.3402 71.7213 27.1685 71.7213ZM61.0842 68.7519C60.963 68.7519 60.8519 68.7115 60.7509 68.6307C60.5388 68.4489 60.5186 68.1257 60.7004 67.9136L60.7711 67.8227L61.2155 68.0853L61.5993 68.4085L61.468 68.56C61.367 68.6812 61.2256 68.7418 61.0842 68.7418V68.7519ZM23.2295 68.3681C23.078 68.3681 22.9265 68.2974 22.8255 68.1661L22.7043 68.0045C22.5326 67.7823 22.5831 67.4591 22.8053 67.2975C23.0275 67.1359 23.3507 67.1763 23.5123 67.3985L23.6234 67.55C23.7951 67.7722 23.7547 68.0853 23.5325 68.257C23.4416 68.3277 23.3305 68.358 23.2295 68.358V68.3681ZM63.1244 64.0655C63.1244 64.0655 63.1042 64.0655 63.0941 64.0655C62.8113 64.0453 62.5992 63.813 62.6194 63.5302V63.3484C62.6396 63.0656 62.8517 62.8535 63.1446 62.8535C63.4274 62.8535 63.6395 63.0959 63.6395 63.3686V63.5807C63.6092 63.8534 63.387 64.0554 63.1244 64.0554V64.0655ZM21.5226 63.5605C21.2398 63.5605 21.0176 63.3282 21.0277 63.0454V62.8232C21.058 62.5505 21.3004 62.3384 21.5731 62.3485C21.8559 62.3687 22.068 62.601 22.0478 62.8838V63.0656C22.0377 63.3383 21.8155 63.5605 21.5327 63.5605H21.5226ZM61.5589 59.2074C61.4074 59.2074 61.2559 59.1367 61.1549 59.0054L61.0337 58.8539C60.862 58.6317 60.9125 58.3186 61.1347 58.1469C61.3569 57.9752 61.67 58.0257 61.8417 58.2479L61.9629 58.4095C62.1346 58.6317 62.0841 58.9549 61.8619 59.1165C61.771 59.1872 61.67 59.2175 61.5589 59.2175V59.2074ZM23.4214 58.8236C23.3103 58.8236 23.1891 58.7832 23.0982 58.7125C22.8861 58.5307 22.8558 58.2176 23.0275 58.0055L23.1588 57.8439C23.3406 57.6318 23.6638 57.6015 23.8759 57.7833C24.088 57.9651 24.1183 58.2782 23.9365 58.4903L23.8153 58.6418C23.7143 58.763 23.5729 58.8236 23.4214 58.8236ZM57.6805 55.7936C57.5896 55.7936 57.4987 55.7734 57.4179 55.7229L57.2462 55.6219C57.0038 55.4805 56.9331 55.1674 57.0745 54.925C57.2159 54.6826 57.529 54.6119 57.7714 54.7533L57.9431 54.8543C58.1855 54.9957 58.2562 55.3088 58.1047 55.5512C58.0138 55.7027 57.8421 55.7936 57.6704 55.7936H57.6805ZM27.4311 55.5512C27.2594 55.5512 27.0877 55.4603 26.9968 55.2987C26.8554 55.0563 26.9463 54.7432 27.1887 54.6119L27.3604 54.5109L27.6634 54.925L27.8654 55.3896L27.6836 55.4906C27.6028 55.531 27.522 55.5613 27.4311 55.5613V55.5512ZM52.9638 53.6423C52.9133 53.6423 52.8527 53.6423 52.8022 53.612L52.6204 53.5514C52.3578 53.4605 52.2063 53.1777 52.2972 52.9151C52.378 52.6525 52.6709 52.501 52.9335 52.5919L53.1254 52.6525C53.388 52.7434 53.5294 53.0262 53.4385 53.2888C53.3678 53.5009 53.1759 53.6322 52.9638 53.6322V53.6423ZM32.2589 53.4807C32.0468 53.4807 31.8448 53.3393 31.7741 53.1272C31.6933 52.8646 31.8347 52.5818 32.1074 52.4909L32.3094 52.4303C32.572 52.3495 32.8548 52.501 32.9356 52.7737C33.0164 53.0363 32.8649 53.3191 32.6023 53.3999L32.4205 53.4605C32.4205 53.4605 32.3195 53.4807 32.269 53.4807H32.2589ZM47.9037 52.4404C47.9037 52.4404 47.8533 52.4404 47.823 52.4404L47.6714 52.4202L47.7724 51.4102L47.9744 51.4405C48.2471 51.4809 48.439 51.7435 48.3986 52.0162C48.3582 52.2687 48.1461 52.4404 47.9037 52.4404ZM37.3291 52.3596C37.0766 52.3596 36.8645 52.1778 36.8342 51.9253C36.7938 51.6526 36.9857 51.39 37.2685 51.3597L37.4705 51.3294C37.7432 51.289 38.0058 51.4809 38.0361 51.7637C38.0765 52.0364 37.8745 52.299 37.6018 52.3293L37.4099 52.3596C37.4099 52.3596 37.3594 52.3596 37.3392 52.3596H37.3291ZM42.7225 52.0162H42.5205C42.2377 52.0162 42.0155 51.7839 42.0155 51.5011C42.0155 51.2284 42.2478 50.9961 42.5205 50.9961H42.7225C43.0053 50.9961 43.2275 51.2284 43.2275 51.5112C43.2275 51.7839 42.9952 52.0162 42.7225 52.0162Z" fill="white"/>
<path d="M12.1905 63.7014V63.2267H11.6855V62.7217L12.6955 62.6914V63.2267H12.1905V63.7014Z" fill="#0B00DB"/>
<path d="M15.7567 80.2441C14.4538 79.4159 13.2721 78.5372 12.1914 77.6282V63.2357C12.1914 67.6898 15.1507 72.1338 21.039 75.5274C32.8156 82.3045 51.9046 82.2843 63.661 75.4769C69.5291 72.0833 72.458 67.6393 72.4681 63.1953V77.6383C72.4681 77.6383 72.5085 77.6888 72.5691 77.7797C71.5692 78.6079 70.4785 79.4159 69.2867 80.1734C54.5205 89.5866 30.5532 89.6169 15.7567 80.2441Z" fill="#5C5FE6"/>
<path d="M42.4501 87.7483C32.6834 87.7483 22.9268 85.395 15.4831 80.6783C14.2004 79.8602 12.9783 78.9714 11.8673 78.022L11.6855 77.8705V63.2457H12.6955C12.7056 67.7099 15.7558 71.9115 21.2805 75.093C32.9056 81.7792 51.7926 81.759 63.3975 75.0425C68.902 71.8509 71.9421 67.6493 71.9522 63.2053V62.6094L72.9622 62.7811V63.2053L72.9723 77.5069L73.2349 77.8907L72.8814 78.1836C71.8209 79.0623 70.6998 79.8804 69.5484 80.6177C62.0845 85.3748 52.2572 87.7583 42.44 87.7583L42.4501 87.7483ZM16.0184 79.8198C30.6432 89.0916 54.4085 89.0613 69.003 79.7491C70.0231 79.1027 71.0129 78.3856 71.9522 77.618V67.7705C70.5786 70.8308 67.8314 73.6285 63.9025 75.9111C52.0249 82.7892 32.6733 82.8195 20.7755 75.9616C16.8264 73.6891 14.0691 70.8914 12.6854 67.821V77.3958C13.7156 78.2543 14.8367 79.0724 16.0184 79.8198Z" fill="#0B00DB"/>
<path d="M42.7435 61.7525C55.2439 61.7525 65.3775 51.6189 65.3775 39.1185C65.3775 26.618 55.2439 16.4844 42.7435 16.4844C30.243 16.4844 20.1094 26.618 20.1094 39.1185C20.1094 51.6189 30.243 61.7525 42.7435 61.7525Z" fill="#BDBFF2"/>
<path d="M42.7426 62.2485C29.9863 62.2485 19.6035 51.8657 19.6035 39.1094C19.6035 26.3532 29.9863 15.9805 42.7426 15.9805C55.4989 15.9805 65.8817 26.3633 65.8817 39.1195C65.8817 51.8758 55.4989 62.2586 42.7426 62.2586V62.2485ZM42.7426 16.9905C30.5418 16.9905 20.6135 26.9188 20.6135 39.1195C20.6135 51.3203 30.5418 61.2486 42.7426 61.2486C54.9434 61.2486 64.8717 51.3203 64.8717 39.1195C64.8717 26.9188 54.9434 16.9905 42.7426 16.9905Z" fill="#0B00DB"/>
<path d="M42.7428 63.7512C55.0369 63.7512 65.0032 53.7849 65.0032 41.4908C65.0032 29.1968 55.0369 19.2305 42.7428 19.2305C30.4487 19.2305 20.4824 29.1968 20.4824 41.4908C20.4824 53.7849 30.4487 63.7512 42.7428 63.7512Z" fill="white"/>
<path d="M42.7419 64.2573C30.1877 64.2573 19.9766 54.0462 19.9766 41.4919C19.9766 28.9377 30.1877 18.7266 42.7419 18.7266C55.2962 18.7266 65.5073 28.9377 65.5073 41.4919C65.5073 54.0462 55.2962 64.2573 42.7419 64.2573ZM42.7419 19.7366C30.7432 19.7366 20.9866 29.4932 20.9866 41.4919C20.9866 53.4907 30.7432 63.2473 42.7419 63.2473C54.7407 63.2473 64.4973 53.4907 64.4973 41.4919C64.4973 29.4932 54.7407 19.7366 42.7419 19.7366Z" fill="#0B00DB"/>
<path d="M42.7443 61.0238C53.5323 61.0238 62.2777 52.2784 62.2777 41.4904C62.2777 30.7024 53.5323 21.957 42.7443 21.957C31.9563 21.957 23.2109 30.7024 23.2109 41.4904C23.2109 52.2784 31.9563 61.0238 42.7443 61.0238Z" fill="white"/>
<path d="M42.7435 61.5299C31.6941 61.5299 22.7051 52.5409 22.7051 41.4915C22.7051 30.4421 31.6941 21.4531 42.7435 21.4531C53.7928 21.4531 62.7818 30.4421 62.7818 41.4915C62.7818 52.5409 53.7928 61.5299 42.7435 61.5299ZM42.7435 22.453C32.2496 22.453 23.7151 30.9875 23.7151 41.4814C23.7151 51.9753 32.2496 60.5098 42.7435 60.5098C53.2373 60.5098 61.7718 51.9753 61.7718 41.4814C61.7718 30.9875 53.2373 22.453 42.7435 22.453Z" fill="#0B00DB"/>
<path d="M42.7422 27.4414C50.499 27.4414 56.7913 33.7337 56.7913 41.4905H42.7422V27.4414Z" fill="#BDBFF2"/>
<path d="M27.4004 50.8526C27.2287 50.8526 27.057 50.7617 26.9661 50.6001C26.8247 50.3577 26.9055 50.0547 27.1479 49.9133L28.37 49.2063C28.6023 49.0649 28.9154 49.1457 29.0568 49.3881C29.1982 49.6305 29.1174 49.9335 28.875 50.0749L27.6529 50.7819C27.5721 50.8324 27.4812 50.8526 27.4004 50.8526Z" fill="#0B00DB"/>
<path d="M56.8515 33.8448C56.6798 33.8448 56.5081 33.7539 56.4172 33.5923C56.2758 33.3499 56.3566 33.0469 56.599 32.9055L57.8211 32.1985C58.0635 32.0571 58.3665 32.1379 58.5079 32.3803C58.6493 32.6227 58.5685 32.9257 58.3261 33.0671L57.104 33.7741C57.0232 33.8246 56.9323 33.8448 56.8515 33.8448Z" fill="#0B00DB"/>
<path d="M38.1564 59.0955C38.1564 59.0955 38.0655 59.0955 38.0251 59.0753C37.7524 59.0046 37.6009 58.7218 37.6716 58.4592L38.0352 57.0856C38.1059 56.8129 38.3786 56.6614 38.6513 56.7321C38.924 56.8028 39.0755 57.0856 39.0048 57.3482L38.6412 58.7218C38.5806 58.944 38.3786 59.0955 38.1564 59.0955Z" fill="#0B00DB"/>
<path d="M46.9529 26.2593C46.9529 26.2593 46.862 26.2593 46.8216 26.2391C46.5489 26.1684 46.3873 25.8856 46.4681 25.623L46.8317 24.2494C46.9024 23.9767 47.1852 23.8151 47.4478 23.8959C47.7205 23.9666 47.8821 24.2494 47.8013 24.512L47.4377 25.8856C47.3771 26.1078 47.1751 26.2593 46.9529 26.2593Z" fill="#0B00DB"/>
<path d="M47.3162 59.0949C47.094 59.0949 46.892 58.9434 46.8314 58.7212L46.4678 57.3476C46.3971 57.0749 46.5587 56.8022 46.8213 56.7315C47.094 56.6608 47.3667 56.8224 47.4374 57.085L47.801 58.4586C47.8717 58.7313 47.7101 59.004 47.4475 59.0747C47.4071 59.0848 47.3566 59.0949 47.3162 59.0949Z" fill="#0B00DB"/>
<path d="M38.5193 26.2589C38.2971 26.2589 38.0951 26.1074 38.0345 25.8852L37.6709 24.5116C37.6002 24.2389 37.7618 23.9662 38.0244 23.8955C38.2971 23.8248 38.5698 23.9864 38.6405 24.249L39.0041 25.6226C39.0748 25.8953 38.9132 26.168 38.6506 26.2387C38.6102 26.2488 38.5597 26.2589 38.5193 26.2589Z" fill="#0B00DB"/>
<path d="M55.2549 54.52C55.1236 54.52 54.9923 54.4695 54.9014 54.3685L53.9015 53.3686C53.6995 53.1666 53.6995 52.8535 53.9015 52.6515C54.1035 52.4495 54.4166 52.4495 54.6186 52.6515L55.6185 53.6514C55.8205 53.8534 55.8205 54.1665 55.6185 54.3685C55.5175 54.4695 55.3862 54.52 55.265 54.52H55.2549Z" fill="#0B00DB"/>
<path d="M31.2178 30.4731C31.0865 30.4731 30.9552 30.4226 30.8643 30.3216L29.8644 29.3217C29.6624 29.1197 29.6624 28.8066 29.8644 28.6046C30.0664 28.4026 30.3795 28.4026 30.5815 28.6046L31.5814 29.6045C31.7834 29.8065 31.7834 30.1196 31.5814 30.3216C31.4804 30.4226 31.3491 30.4731 31.2279 30.4731H31.2178Z" fill="#0B00DB"/>
<path d="M58.0736 50.8526C57.9928 50.8526 57.9019 50.8324 57.8211 50.7819L56.599 50.0749C56.3566 49.9335 56.2758 49.6305 56.4172 49.3881C56.5586 49.1457 56.8717 49.0649 57.104 49.2063L58.3261 49.9133C58.5685 50.0547 58.6493 50.3577 58.5079 50.6001C58.417 50.7617 58.2453 50.8526 58.0736 50.8526Z" fill="#0B00DB"/>
<path d="M28.6322 33.8448C28.5514 33.8448 28.4605 33.8246 28.3797 33.7741L27.1576 33.0671C26.9152 32.9257 26.8344 32.6227 26.9758 32.3803C27.1172 32.1379 27.4202 32.0571 27.6626 32.1985L28.8847 32.9055C29.1271 33.0469 29.2079 33.3499 29.0665 33.5923C28.9756 33.7539 28.8039 33.8448 28.6322 33.8448Z" fill="#0B00DB"/>
<path d="M26.4502 41.9983H25.0362C24.7534 41.9983 24.5312 41.7761 24.5312 41.4933C24.5312 41.2105 24.7534 40.9883 25.0362 40.9883H26.4502C26.733 40.9883 26.9552 41.2105 26.9552 41.4933C26.9552 41.7761 26.733 41.9983 26.4502 41.9983Z" fill="#0B00DB"/>
<path d="M60.4463 41.9983H59.0323C58.7495 41.9983 58.5273 41.7761 58.5273 41.4933C58.5273 41.2105 58.7495 40.9883 59.0323 40.9883H60.4463C60.7291 40.9883 60.9513 41.2105 60.9513 41.4933C60.9513 41.7761 60.7291 41.9983 60.4463 41.9983Z" fill="#0B00DB"/>
<path d="M25.6323 46.5849C25.4101 46.5849 25.2081 46.4334 25.1475 46.2112C25.0768 45.9385 25.2384 45.6658 25.501 45.5951L26.8746 45.2315C27.1473 45.1608 27.42 45.3224 27.4907 45.585C27.5614 45.8577 27.3998 46.1304 27.1372 46.2011L25.7636 46.5647C25.7636 46.5647 25.6727 46.5849 25.6323 46.5849Z" fill="#0B00DB"/>
<path d="M58.478 37.7763C58.2558 37.7763 58.0538 37.6248 57.9932 37.4026C57.9225 37.1299 58.0841 36.8572 58.3467 36.7865L59.7203 36.4229C59.993 36.3522 60.2657 36.5138 60.3364 36.7764C60.4071 37.0491 60.2455 37.3218 59.9829 37.3925L58.6093 37.7561C58.6093 37.7561 58.5184 37.7763 58.478 37.7763Z" fill="#0B00DB"/>
<path d="M30.2179 54.52C30.0866 54.52 29.9553 54.4695 29.8644 54.3685C29.6624 54.1665 29.6624 53.8534 29.8644 53.6514L30.8643 52.6515C31.0663 52.4495 31.3794 52.4495 31.5814 52.6515C31.7834 52.8535 31.7834 53.1666 31.5814 53.3686L30.5815 54.3685C30.4805 54.4695 30.3492 54.52 30.228 54.52H30.2179Z" fill="#0B00DB"/>
<path d="M54.255 30.4731C54.1237 30.4731 53.9924 30.4226 53.9015 30.3216C53.6995 30.1196 53.6995 29.8065 53.9015 29.6045L54.9014 28.6046C55.1034 28.4026 55.4165 28.4026 55.6185 28.6046C55.8205 28.8066 55.8205 29.1197 55.6185 29.3217L54.6186 30.3216C54.5176 30.4226 54.3863 30.4731 54.2651 30.4731H54.255Z" fill="#0B00DB"/>
<path d="M33.8847 57.327C33.8039 57.327 33.713 57.3068 33.6322 57.2563C33.3898 57.1149 33.309 56.8119 33.4504 56.5695L34.1574 55.3373C34.2988 55.0949 34.6018 55.0141 34.8442 55.1555C35.0866 55.2969 35.1674 55.5999 35.026 55.8423L34.319 57.0745C34.2281 57.2361 34.0564 57.327 33.8847 57.327Z" fill="#0B00DB"/>
<path d="M50.8828 27.8856C50.802 27.8856 50.7111 27.8654 50.6303 27.8149C50.3879 27.6735 50.3071 27.3705 50.4485 27.1281L51.1555 25.8959C51.2969 25.6535 51.61 25.5727 51.8423 25.7141C52.0847 25.8555 52.1655 26.1585 52.0241 26.4009L51.3171 27.6331C51.2262 27.7947 51.0545 27.8856 50.8828 27.8856Z" fill="#0B00DB"/>
<path d="M42.7413 59.7013C42.4585 59.7013 42.2363 59.4791 42.2363 59.1963V57.7823C42.2363 57.4995 42.4585 57.2773 42.7413 57.2773C43.0241 57.2773 43.2463 57.4995 43.2463 57.7823V59.1963C43.2463 59.4791 43.0241 59.7013 42.7413 59.7013Z" fill="#0B00DB"/>
<path d="M42.7413 25.7052C42.4585 25.7052 42.2363 25.483 42.2363 25.2002V23.7862C42.2363 23.5034 42.4585 23.2812 42.7413 23.2812C43.0241 23.2812 43.2463 23.5034 43.2463 23.7862V25.2002C43.2463 25.483 43.0241 25.7052 42.7413 25.7052Z" fill="#0B00DB"/>
<path d="M51.5898 57.327C51.4181 57.327 51.2464 57.2361 51.1555 57.0745L50.4485 55.8423C50.3071 55.5999 50.3879 55.2969 50.6303 55.1555C50.8727 55.0141 51.1757 55.0949 51.3171 55.3373L52.0241 56.5695C52.1655 56.8119 52.0847 57.1149 51.8423 57.2563C51.7615 57.3068 51.6706 57.327 51.5898 57.327Z" fill="#0B00DB"/>
<path d="M34.5917 27.8856C34.42 27.8856 34.2483 27.7947 34.1574 27.6331L33.4504 26.4009C33.309 26.1585 33.3898 25.8555 33.6322 25.7141C33.8746 25.5727 34.1776 25.6535 34.319 25.8959L35.026 27.1281C35.1674 27.3705 35.0866 27.6735 34.8442 27.8149C34.7634 27.8654 34.6725 27.8856 34.5917 27.8856Z" fill="#0B00DB"/>
<path d="M28.6322 33.8448C28.5514 33.8448 28.4605 33.8246 28.3797 33.7741L27.1576 33.0671C26.9152 32.9257 26.8344 32.6227 26.9758 32.3803C27.1172 32.1379 27.4202 32.0571 27.6626 32.1985L28.8847 32.9055C29.1271 33.0469 29.2079 33.3499 29.0665 33.5923C28.9756 33.7539 28.8039 33.8448 28.6322 33.8448Z" fill="#0B00DB"/>
<path d="M59.8405 46.5855C59.8405 46.5855 59.7496 46.5855 59.7092 46.5653L58.3356 46.2017C58.0629 46.131 57.9114 45.8482 57.9821 45.5856C58.0528 45.3129 58.3356 45.1614 58.5982 45.2321L59.9718 45.5957C60.2445 45.6664 60.396 45.9492 60.3253 46.2118C60.2647 46.434 60.0627 46.5855 59.8405 46.5855Z" fill="#0B00DB"/>
<path d="M27.0046 37.7766C27.0046 37.7766 26.9137 37.7766 26.8733 37.7564L25.4997 37.3928C25.227 37.3221 25.0755 37.0393 25.1462 36.7767C25.2169 36.504 25.4997 36.3424 25.7623 36.4232L27.1359 36.7868C27.4086 36.8575 27.5601 37.1403 27.4894 37.4029C27.4288 37.6251 27.2268 37.7766 27.0046 37.7766Z" fill="#0B00DB"/>
<path d="M40.7442 10.6875H44.7438C46.2386 10.6875 47.4607 11.8995 47.4607 13.4044C47.4607 14.1013 46.8951 14.6669 46.1982 14.6669H39.2898C38.5929 14.6669 38.0273 14.1013 38.0273 13.4044C38.0273 11.9096 39.2393 10.6875 40.7442 10.6875Z" fill="#0B00DB"/>
<path d="M46.1876 15.1613H39.2792C38.3096 15.1613 37.5117 14.3735 37.5117 13.3938C37.5117 11.6162 38.956 10.1719 40.7336 10.1719H44.7332C46.5108 10.1719 47.9551 11.6162 47.9551 13.3938C47.9551 14.3634 47.1673 15.1613 46.1876 15.1613ZM40.7336 11.192C39.5115 11.192 38.5217 12.1818 38.5217 13.4039C38.5217 13.818 38.855 14.1614 39.2792 14.1614H46.1876C46.6017 14.1614 46.9451 13.8281 46.9451 13.4039C46.9451 12.1818 45.9553 11.192 44.7332 11.192H40.7336Z" fill="#0B00DB"/>
<path d="M42.7419 17.4236C43.3782 17.4236 43.9943 17.4539 44.6104 17.5044V14.6562H40.8633V17.5044C41.4794 17.4539 42.1056 17.4236 42.7318 17.4236H42.7419Z" fill="#BDBFF2"/>
<path d="M44.6111 18.0184C44.6111 18.0184 44.5808 18.0184 44.5707 18.0184C43.2476 17.9073 42.2275 17.9073 40.9145 18.0184C40.763 18.0386 40.6317 17.978 40.5307 17.8871C40.4297 17.7962 40.3691 17.6548 40.3691 17.5134V14.6652C40.3691 14.3824 40.5913 14.1602 40.8741 14.1602H44.6212C44.904 14.1602 45.1262 14.3824 45.1262 14.6652V17.5134C45.1262 17.6548 45.0656 17.7861 44.9646 17.8871C44.8737 17.9679 44.7525 18.0184 44.6212 18.0184H44.6111ZM42.7426 16.9276C43.1769 16.9276 43.6314 16.9377 44.1061 16.9781V15.1702H41.369V16.9781C41.8538 16.9478 42.2982 16.9377 42.7325 16.9377L42.7426 16.9276Z" fill="#0B00DB"/>
<path d="M27.279 23.2617C28.3193 22.3932 29.4303 21.6155 30.6019 20.9388L29.4606 19.3026C28.8142 18.3835 27.5517 18.1613 26.6326 18.8077C25.7135 19.4541 25.4913 20.7166 26.1377 21.6357L27.279 23.2718V23.2617Z" fill="#BDBFF2"/>
<path d="M27.2788 23.7672C27.2788 23.7672 27.2384 23.7672 27.2081 23.7672C27.0667 23.747 26.9455 23.6763 26.8647 23.5551L25.7234 21.9189C25.3396 21.3634 25.1881 20.6968 25.2992 20.0302C25.4204 19.3636 25.784 18.7879 26.3395 18.394C27.4808 17.5961 29.0665 17.8688 29.8644 19.0202L31.0057 20.6564C31.0865 20.7675 31.1168 20.919 31.0865 21.0503C31.0562 21.1917 30.9653 21.3028 30.8441 21.3735C29.6927 22.0401 28.6019 22.8077 27.5919 23.646C27.501 23.7268 27.3899 23.7672 27.2687 23.7672H27.2788ZM27.7939 18.9394C27.4909 18.9394 27.1879 19.0303 26.9253 19.2121C26.592 19.4444 26.3698 19.7979 26.2991 20.1918C26.2284 20.5958 26.3193 20.9998 26.5516 21.3331L27.3899 22.5249C28.1777 21.8987 29.016 21.3129 29.8846 20.7776L29.0463 19.5858C28.7534 19.1616 28.2787 18.9394 27.7939 18.9394Z" fill="#0B00DB"/>
<path d="M57.9831 23.2617C56.9428 22.3932 55.8318 21.6155 54.6602 20.9388L55.8015 19.3026C56.4479 18.3835 57.7103 18.1613 58.6294 18.8077C59.5485 19.4541 59.7707 20.7166 59.1244 21.6357L57.9831 23.2718V23.2617Z" fill="#BDBFF2"/>
<path d="M57.9836 23.7683C57.8624 23.7683 57.7513 23.7279 57.6604 23.6471C56.6605 22.8088 55.5596 22.0412 54.4082 21.3746C54.287 21.3039 54.1961 21.1827 54.1658 21.0514C54.1355 20.91 54.1658 20.7686 54.2466 20.6575L55.3879 19.0213C56.1858 17.88 57.7715 17.5972 58.9128 18.3951C59.4683 18.7789 59.8319 19.3647 59.9531 20.0313C60.0743 20.6979 59.9228 21.3645 59.5289 21.92L58.3876 23.5562C58.3068 23.6673 58.1856 23.7481 58.0442 23.7683C58.024 23.7683 58.0038 23.7683 57.9735 23.7683H57.9836ZM55.3879 20.7787C56.2565 21.314 57.0948 21.8998 57.8826 22.526L58.7209 21.3342C58.9532 21.0009 59.0441 20.5969 58.9734 20.1929C58.9027 19.7889 58.6805 19.4455 58.3472 19.2132C57.6604 18.7284 56.711 18.9001 56.2262 19.5869L55.3879 20.7787Z" fill="#0B00DB"/>
<path d="M56.7809 40.635H44.3882C44.0751 40.0391 43.459 39.625 42.7318 39.625C41.7016 39.625 40.8633 40.4633 40.8633 41.4935C40.8633 42.5237 41.7016 43.362 42.7318 43.362C43.459 43.362 44.0751 42.9479 44.3882 42.352H56.7809C57.2556 42.352 57.6394 41.9682 57.6394 41.4935C57.6394 41.0188 57.2556 40.635 56.7809 40.635Z" fill="#0B00DB"/>
<path d="M78.2642 38.6753V38.5945C78.2137 37.9279 77.941 37.2815 77.436 36.7664C76.3048 35.6352 74.4666 35.6352 73.3354 36.7664L52.2466 57.8551V50.6741C52.2466 49.0682 50.9437 47.7754 49.3479 47.7754C47.7521 47.7754 46.4492 49.0783 46.4492 50.6741V64.8544C46.4492 66.026 47.1562 67.0865 48.2369 67.5309C48.6005 67.6824 48.9742 67.7531 49.3479 67.7531C50.1054 67.7531 50.8427 67.4602 51.3982 66.9047L74.8504 43.4526L74.5171 45.21L78.2642 43.0183V38.9682C78.2642 38.8672 78.2642 38.7662 78.2642 38.6652V38.6753Z" fill="#BDBFF2"/>
<path d="M49.3373 68.2666C48.8828 68.2666 48.4485 68.1757 48.0344 68.004C46.7618 67.4788 45.9336 66.2365 45.9336 64.8629V50.6825C45.9336 48.8039 47.4587 47.2788 49.3373 47.2788C51.2159 47.2788 52.741 48.8039 52.741 50.6825V56.6415L72.9713 36.4112C74.254 35.1285 76.4962 35.1285 77.789 36.4112C78.3344 36.9566 78.6778 37.6838 78.7586 38.4716C78.7687 38.512 78.7788 38.5524 78.7788 38.5928L78.2738 38.6736L78.7788 38.6534C78.7788 38.7746 78.7788 38.8857 78.7788 38.9968V43.0166C78.7788 43.1984 78.6879 43.36 78.5263 43.4509L74.7792 45.6426C74.6075 45.7436 74.3954 45.7335 74.2338 45.6224C74.0722 45.5113 73.9914 45.3093 74.0318 45.1174L74.0621 44.9659L51.7613 67.2667C51.1149 67.9131 50.2665 68.2666 49.3575 68.2666H49.3373ZM49.3373 48.2888C48.0142 48.2888 46.9436 49.3594 46.9436 50.6825V64.8629C46.9436 65.8325 47.5193 66.7011 48.4182 67.0748C49.2969 67.4384 50.3473 67.2364 51.024 66.5597L74.4762 43.1075C74.6277 42.9459 74.8701 42.9156 75.0721 43.0166C75.264 43.1176 75.3751 43.3398 75.3347 43.5519L75.2135 44.2185L77.7587 42.7338V38.9766C77.7587 38.8655 77.7587 38.7847 77.7587 38.7039C77.7587 38.7039 77.7587 38.6938 77.7587 38.6837C77.7587 38.6736 77.7587 38.6534 77.7587 38.6433C77.7082 38.0575 77.4759 37.5424 77.0719 37.1384C76.1629 36.2294 74.5873 36.2294 73.6884 37.1384L52.5996 58.2272C52.4582 58.3686 52.236 58.4191 52.0542 58.3383C51.8623 58.2575 51.7411 58.0757 51.7411 57.8737V50.6926C51.7411 49.3695 50.6705 48.2989 49.3474 48.2989L49.3373 48.2888Z" fill="#0B00DB"/>
<path d="M49.3382 71.7414C48.9645 71.7414 48.5908 71.6707 48.2272 71.5192C47.1465 71.0748 46.4395 70.0143 46.4395 68.8427V54.6623C46.4395 53.0564 47.7424 51.7636 49.3382 51.7636C50.934 51.7636 52.2368 53.0665 52.2368 54.6623V61.8434L73.3256 40.7546C74.4568 39.6235 76.295 39.6235 77.4262 40.7546C78.5574 41.8858 78.5574 43.724 77.4262 44.8552L51.3885 70.893C50.833 71.4485 50.0957 71.7414 49.3382 71.7414Z" fill="white"/>
<path d="M49.3373 72.2471C48.8828 72.2471 48.4485 72.1562 48.0344 71.9845C46.7618 71.4593 45.9336 70.217 45.9336 68.8434V54.663C45.9336 52.7844 47.4587 51.2593 49.3373 51.2593C51.2159 51.2593 52.741 52.7844 52.741 54.663V60.622L72.9713 40.3917C74.254 39.109 76.4962 39.109 77.789 40.3917C78.4354 41.0381 78.7889 41.8865 78.7889 42.7955C78.7889 43.7045 78.4354 44.563 77.789 45.1993L51.7512 71.2371C51.1048 71.8835 50.2564 72.237 49.3474 72.237L49.3373 72.2471ZM49.3373 52.2693C48.0142 52.2693 46.9436 53.3399 46.9436 54.663V68.8434C46.9436 69.813 47.5193 70.6816 48.4182 71.0553C49.2969 71.4189 50.3574 71.2169 51.024 70.5402L77.0618 44.5024C77.5163 44.0479 77.7688 43.452 77.7688 42.8056C77.7688 42.1592 77.5163 41.5633 77.0618 41.1088C76.1528 40.1998 74.5772 40.1998 73.6783 41.1088L52.5895 62.1976C52.4481 62.339 52.2259 62.3895 52.0441 62.3087C51.8522 62.2279 51.731 62.0461 51.731 61.8441V54.663C51.731 53.3399 50.6604 52.2693 49.3373 52.2693Z" fill="#0B00DB"/>
<path d="M73.7589 40.8934C73.4761 40.8934 73.2539 40.6712 73.2539 40.3884V36.4191C73.2539 36.1363 73.4761 35.9141 73.7589 35.9141C74.0417 35.9141 74.2639 36.1363 74.2639 36.4191V40.3884C74.2639 40.6712 74.0417 40.8934 73.7589 40.8934Z" fill="#0B00DB"/>
</svg>
