<svg width="33" height="24" viewBox="0 0 33 24" fill="none" xmlns="http://www.w3.org/2000/svg">
<path d="M3.0699 2.28245C2.63501 2.28245 2.28245 2.63501 2.28245 3.0699V20.9301C2.28245 21.365 2.63501 21.7175 3.0699 21.7175H26.99C27.4249 21.7175 27.7775 21.365 27.7775 20.9301V14.7742H30.0599V20.9301C30.0599 22.6256 28.6855 24 26.99 24H3.0699C1.37445 24 0 22.6256 0 20.9301V3.0699C0 1.37444 1.37445 0 3.0699 0H26.99C28.6855 0 30.0599 1.37444 30.0599 3.0699V8.61829H27.7775V3.0699C27.7775 2.63501 27.4249 2.28245 26.99 2.28245H3.0699Z" fill="#0F20E8"/>
<path fill-rule="evenodd" clip-rule="evenodd" d="M20.6228 10.2987C19.7403 10.3632 19.0481 11.1005 19.0481 11.9946C19.0481 12.9362 19.8123 13.695 20.7485 13.695H29.4561C29.8643 13.695 30.1979 13.3615 30.1979 12.9532V11.0474C30.1979 10.6392 29.8643 10.3056 29.4561 10.3056H20.7485C20.706 10.3056 20.6641 10.3033 20.6228 10.2987ZM20.9105 8.02313C20.8576 8.01561 20.8035 8.01172 20.7485 8.01172C18.5404 8.01172 16.7656 9.80382 16.7656 11.9946C16.7656 14.2028 18.5577 15.9775 20.7485 15.9775H29.4561C31.1249 15.9775 32.4803 14.622 32.4803 12.9532V11.0474C32.4803 9.37857 31.1249 8.02313 29.4561 8.02313H20.9105Z" fill="#0F20E8"/>
<path fill-rule="evenodd" clip-rule="evenodd" d="M22.4576 8.02246C23.0879 8.02246 23.5989 8.53341 23.5989 9.16369V14.8356C23.5989 15.4659 23.0879 15.9768 22.4576 15.9768C21.8274 15.9768 21.3164 15.4659 21.3164 14.8356V9.16369C21.3164 8.53341 21.8274 8.02246 22.4576 8.02246Z" fill="#0F20E8"/>
</svg>
