<svg width="22" height="16" viewBox="0 0 22 16" fill="none" xmlns="http://www.w3.org/2000/svg">
<path d="M2.0466 1.52164C1.75667 1.52164 1.52164 1.75667 1.52164 2.0466V13.9534C1.52164 14.2433 1.75667 14.4784 2.0466 14.4784H17.9933C18.2833 14.4784 18.5183 14.2433 18.5183 13.9534V9.84947H20.0399V13.9534C20.0399 15.0837 19.1236 16 17.9933 16H2.0466C0.916298 16 0 15.0837 0 13.9534V2.0466C0 0.916293 0.916297 0 2.0466 0H17.9933C19.1236 0 20.0399 0.916293 20.0399 2.0466V5.74553H18.5183V2.0466C18.5183 1.75667 18.2833 1.52164 17.9933 1.52164H2.0466Z" fill="white"/>
<path fill-rule="evenodd" clip-rule="evenodd" d="M13.7472 6.8655C13.1589 6.90844 12.6974 7.39998 12.6974 7.99607C12.6974 8.62382 13.2069 9.12969 13.831 9.12969H19.6361C19.9082 9.12969 20.1306 8.90731 20.1306 8.63516V7.3646C20.1306 7.09245 19.9082 6.87006 19.6361 6.87006H13.831C13.8027 6.87006 13.7748 6.86852 13.7472 6.8655ZM13.9391 5.34843C13.9038 5.34341 13.8677 5.34082 13.831 5.34082C12.3589 5.34082 11.1758 6.53555 11.1758 7.99607C11.1758 9.46818 12.3705 10.6513 13.831 10.6513H19.6361C20.7486 10.6513 21.6522 9.7477 21.6522 8.63516V7.3646C21.6522 6.25206 20.7486 5.34843 19.6361 5.34843H13.9391Z" fill="white"/>
<path fill-rule="evenodd" clip-rule="evenodd" d="M14.9718 5.34863C15.3919 5.34863 15.7326 5.68926 15.7326 6.10945V9.89072C15.7326 10.3109 15.3919 10.6515 14.9718 10.6515C14.5516 10.6515 14.2109 10.3109 14.2109 9.89072V6.10945C14.2109 5.68926 14.5516 5.34863 14.9718 5.34863Z" fill="white"/>
</svg>
