<svg width="40" height="32" viewBox="0 0 40 32" fill="none" xmlns="http://www.w3.org/2000/svg">
<path d="M8.4127 7.00214C7.96139 6.74206 7.96139 6.32135 8.4127 6.06127C8.86401 5.80119 9.5907 5.80119 10.042 6.06127L25.2603 14.9039C26.0062 15.3361 26.4613 16.1316 26.4613 16.9922V29.8316C26.4613 30.6118 25.616 31.1013 24.9391 30.7112L9.67866 21.903L8.4127 7.00214Z" fill="#BCBEF1"/>
<path d="M25.4457 31.04C25.2392 31.04 25.0327 30.9864 24.8414 30.8755L9.58869 22.0673C9.53515 22.0367 9.50073 21.9794 9.49308 21.9182L8.23476 7.1129C8.00911 6.95609 7.88672 6.75338 7.88672 6.53155C7.88672 6.28295 8.0397 6.05729 8.31891 5.89666C8.82759 5.60216 9.63076 5.60216 10.1394 5.89666L25.3578 14.7393C26.1571 15.2021 26.6543 16.0664 26.6543 16.992V29.8314C26.6543 30.2674 26.4287 30.6575 26.05 30.8755C25.8626 30.9864 25.6523 31.04 25.4457 31.04ZM9.86407 21.7881L25.0365 30.5466C25.2928 30.6958 25.6026 30.6958 25.8626 30.5466C26.1189 30.3974 26.2757 30.1297 26.2757 29.8314V16.992C26.2757 16.2041 25.8512 15.466 25.1704 15.0682L9.94821 6.22558C9.5581 5.99992 8.90025 5.99992 8.51014 6.22558C8.35715 6.31354 8.26919 6.42446 8.26919 6.53155C8.26919 6.63864 8.35715 6.74573 8.51014 6.83752C8.56368 6.86812 8.59811 6.92549 8.60576 6.98668L9.86407 21.7881Z" fill="#0B00DA"/>
<path d="M8.95959 8.26864C8.75305 8.15008 8.75305 7.51901 8.95959 7.40044C9.37647 7.15949 10.0496 7.15949 10.4627 7.40044L24.6025 15.6158C25.2335 15.983 25.6236 16.66 25.6236 17.3943V29.4573C25.6236 30.0042 25.0308 30.3484 24.5566 30.073L10.1299 21.7468L8.95959 8.26864Z" fill="#0B00DA"/>
<path d="M24.9101 30.3636C24.7533 30.3636 24.6003 30.3216 24.4588 30.2413L10.0321 21.915C9.9786 21.8844 9.94418 21.827 9.93653 21.7658L8.77384 8.36801C8.62467 8.20737 8.60938 7.92817 8.60938 7.84021C8.60938 7.73312 8.6285 7.3736 8.8618 7.23973C9.33606 6.96436 10.0819 6.96436 10.5561 7.23973L24.6959 15.4589C25.3843 15.8605 25.8127 16.6025 25.8127 17.4019V29.4649C25.8127 29.7899 25.6444 30.0844 25.3614 30.2489C25.2199 30.3292 25.0631 30.3713 24.9101 30.3713V30.3636ZM10.3075 21.6319L24.6462 29.9123C24.8106 30.008 25.0057 30.008 25.1663 29.9123C25.3308 29.8167 25.4264 29.6484 25.4264 29.461V17.398C25.4264 16.7364 25.0707 16.1206 24.5008 15.7879L10.3649 7.56866C10.0092 7.36212 9.40873 7.36212 9.05304 7.56866C9.03391 7.58395 8.99184 7.6834 8.99184 7.83638C8.99184 7.98937 9.03391 8.08881 9.05686 8.10793C9.11041 8.13853 9.14483 8.19208 9.14865 8.25327L10.3113 21.6319H10.3075Z" fill="#0B00DA"/>
<path d="M17.875 0.19043L33.3649 9.13249V18.0746L17.875 9.13249V0.19043Z" fill="white"/>
<path d="M33.3647 18.2656C33.3303 18.2656 33.2997 18.258 33.2691 18.2389L17.7792 9.30062C17.7218 9.2662 17.6836 9.20501 17.6836 9.13616V0.190277C17.6836 0.121433 17.7218 0.0602385 17.7792 0.0258165C17.8366 -0.00860549 17.9131 -0.00860549 17.9704 0.0258165L33.4565 8.96788C33.5139 9.0023 33.5521 9.0635 33.5521 9.13234V18.0744C33.5521 18.1432 33.5139 18.2044 33.4565 18.2389C33.4259 18.2542 33.3953 18.2656 33.3609 18.2656H33.3647ZM18.0661 9.02143L33.1697 17.7417V9.24326L18.0661 0.523023V9.02143Z" fill="#0B00DB"/>
<path d="M18.5742 1.44141L32.5801 9.5191V16.7477L18.5742 8.67002V1.44141Z" fill="#BDBFF2"/>
<path d="M32.58 16.9388C32.5455 16.9388 32.5149 16.9311 32.4843 16.912L18.4784 8.83433C18.4211 8.79991 18.3828 8.73871 18.3828 8.66987V1.44125C18.3828 1.37241 18.4211 1.31122 18.4784 1.27679C18.5358 1.24237 18.6123 1.24237 18.6697 1.27679L32.6794 9.35448C32.7368 9.3889 32.775 9.4501 32.775 9.51894V16.7476C32.775 16.8164 32.7368 16.8776 32.6794 16.912C32.6488 16.9273 32.6182 16.9388 32.5838 16.9388H32.58ZM18.7653 8.55895L32.3926 16.4186V9.62986L18.7653 1.774V8.55895Z" fill="#0B00DB"/>
<path d="M25.4616 11.7396C25.8709 11.9767 26.2419 12.08 26.5784 12.0532C26.9112 12.0265 27.1713 11.8735 27.3587 11.5981C27.5461 11.3227 27.6417 10.9441 27.6417 10.466C27.6417 9.98791 27.5499 9.506 27.3625 9.01644C27.1751 8.52689 26.915 8.0794 26.5861 7.67016C26.2533 7.26092 25.8823 6.93965 25.4731 6.70252C25.06 6.46539 24.6852 6.3583 24.3563 6.3889C24.0236 6.41567 23.7673 6.56866 23.5799 6.84021C23.3925 7.11559 23.2969 7.4904 23.2969 7.96849C23.2969 8.44657 23.3887 8.9323 23.5761 9.42186C23.7635 9.91141 24.0197 10.3627 24.3525 10.7681C24.6814 11.1774 25.0562 11.4987 25.4693 11.7358L25.4616 11.7396Z" fill="#0B00DB"/>
<path d="M26.4749 12.2488C26.1345 12.2488 25.7635 12.1341 25.3658 11.9046C24.9336 11.656 24.5396 11.3156 24.1954 10.8911C23.855 10.4703 23.5835 9.99991 23.3922 9.49123C23.1972 8.98255 23.1016 8.47005 23.1016 7.96901C23.1016 7.45651 23.2087 7.03962 23.419 6.73365C23.6408 6.41238 23.9506 6.23262 24.3369 6.19819C24.7041 6.1676 25.1172 6.28234 25.5646 6.53859C25.993 6.78337 26.3869 7.12376 26.7312 7.55213C27.0754 7.97666 27.3469 8.4471 27.5382 8.95195C27.7332 9.46063 27.8288 9.97314 27.8288 10.4703C27.8288 10.9828 27.7218 11.3997 27.5114 11.7095C27.2896 12.0346 26.9798 12.2144 26.5897 12.245C26.5514 12.245 26.5132 12.2488 26.4711 12.2488H26.4749ZM24.4593 6.57684C24.4287 6.57684 24.3981 6.57684 24.3714 6.57684C24.0998 6.59979 23.8894 6.72217 23.7365 6.94783C23.572 7.18878 23.4879 7.533 23.4879 7.96519C23.4879 8.4165 23.5758 8.88311 23.7556 9.34972C23.9353 9.82015 24.1839 10.2562 24.5014 10.6463C24.815 11.0326 25.1745 11.3462 25.5646 11.568C25.9395 11.7822 26.2799 11.8816 26.5705 11.8587C26.8459 11.8357 27.0524 11.7134 27.2092 11.4877C27.3737 11.2468 27.4579 10.9025 27.4579 10.4627C27.4579 10.0114 27.3699 9.54478 27.194 9.08199C27.0142 8.61538 26.7656 8.17937 26.4481 7.78926C26.1307 7.39914 25.775 7.08934 25.3887 6.86751C25.0483 6.67245 24.7385 6.57301 24.4708 6.57301L24.4593 6.57684Z" fill="#0B00DB"/>
<path d="M26.1481 9.77495C26.0525 9.77495 25.953 9.74817 25.8574 9.6908L24.3964 8.84555C24.339 8.81113 24.3008 8.74994 24.3008 8.68109V7.38071C24.3008 7.31186 24.339 7.25067 24.3964 7.21625C24.4538 7.18182 24.5303 7.18182 24.5876 7.21625L26.0487 8.0615C26.3737 8.2489 26.63 8.73081 26.63 9.15918C26.63 9.41925 26.5344 9.62196 26.3661 9.71758C26.3011 9.75582 26.2246 9.77495 26.1443 9.77495H26.1481ZM26.0487 9.36188C26.1022 9.39248 26.1481 9.40395 26.1749 9.38865C26.2093 9.36571 26.2475 9.28921 26.2475 9.15918C26.2475 8.87233 26.064 8.51281 25.8574 8.39424L24.6832 7.71728V8.574L26.0487 9.36188Z" fill="white"/>
<path d="M26.1481 11.0708C26.0525 11.0708 25.953 11.0441 25.8574 10.9867L24.3964 10.1415C24.339 10.107 24.3008 10.0458 24.3008 9.97699V8.67661C24.3008 8.60776 24.339 8.54657 24.3964 8.51214C24.4538 8.47772 24.5303 8.47772 24.5876 8.51214L26.0487 9.35739C26.3737 9.5448 26.63 10.0267 26.63 10.4551C26.63 10.7152 26.5344 10.9179 26.3661 11.0135C26.3011 11.0517 26.2246 11.0708 26.1443 11.0708H26.1481ZM26.0487 10.6578C26.1022 10.6884 26.1481 10.6999 26.1749 10.6846C26.2093 10.6654 26.2475 10.5851 26.2475 10.4551C26.2475 10.1682 26.064 9.80871 25.8574 9.69014L24.6832 9.01318V9.8699L26.0487 10.6578Z" fill="white"/>
<path d="M24.8123 7.75501C24.7052 7.75501 24.6211 7.67086 24.6211 7.56377V7.21955C24.6211 7.11246 24.7052 7.02832 24.8123 7.02832C24.9194 7.02832 25.0036 7.11246 25.0036 7.21955V7.56377C25.0036 7.67086 24.9194 7.75501 24.8123 7.75501Z" fill="white"/>
<path d="M25.574 8.19544C25.467 8.19544 25.3828 8.11129 25.3828 8.0042V7.65998C25.3828 7.55289 25.467 7.46875 25.574 7.46875C25.6811 7.46875 25.7653 7.55289 25.7653 7.65998V8.0042C25.7653 8.11129 25.6811 8.19544 25.574 8.19544Z" fill="white"/>
<path d="M24.8123 10.7003C24.7052 10.7003 24.6211 10.6162 24.6211 10.5091V10.1649C24.6211 10.0578 24.7052 9.97363 24.8123 9.97363C24.9194 9.97363 25.0036 10.0578 25.0036 10.1649V10.5091C25.0036 10.6162 24.9194 10.7003 24.8123 10.7003Z" fill="white"/>
<path d="M25.574 11.1398C25.467 11.1398 25.3828 11.0556 25.3828 10.9485V10.6043C25.3828 10.4972 25.467 10.4131 25.574 10.4131C25.6811 10.4131 25.7653 10.4972 25.7653 10.6043V10.9485C25.7653 11.0556 25.6811 11.1398 25.574 11.1398Z" fill="white"/>
<path d="M14.8789 5.41504L30.3688 14.3571V23.303L14.8789 14.3571V5.41504Z" fill="white"/>
<path d="M30.3687 23.4941C30.3343 23.4941 30.3037 23.4864 30.2731 23.4673L14.787 14.5252C14.7297 14.4908 14.6914 14.4296 14.6914 14.3608V5.41489C14.6914 5.34604 14.7297 5.28485 14.787 5.25043C14.8444 5.216 14.9209 5.216 14.9783 5.25043L30.4643 14.1925C30.5217 14.2269 30.5599 14.2881 30.5599 14.3569V23.299C30.5599 23.3679 30.5217 23.4291 30.4643 23.4635C30.4337 23.4788 30.4031 23.4902 30.3687 23.4902V23.4941ZM15.0739 14.2499L30.1775 22.9701V14.4679L15.07 5.74763V14.2499H15.0739Z" fill="#0B00DB"/>
<path d="M15.5781 6.66602L29.584 14.7475V21.9723L15.5781 13.8946V6.66602Z" fill="#BDBFF2"/>
<path d="M29.5838 22.1634C29.5494 22.1634 29.5188 22.1558 29.4882 22.1366L15.4784 14.0589C15.4211 14.0245 15.3828 13.9633 15.3828 13.8945V6.66586C15.3828 6.59702 15.4211 6.53582 15.4784 6.5014C15.5358 6.46698 15.6123 6.46698 15.6697 6.5014L29.6794 14.5791C29.7368 14.6135 29.775 14.6747 29.775 14.7436V21.9722C29.775 22.041 29.7368 22.1022 29.6794 22.1366C29.6488 22.1519 29.6182 22.1634 29.5838 22.1634ZM15.7653 13.7836L29.3926 21.6432V14.8583L15.7691 6.99861V13.7836H15.7653Z" fill="#0B00DB"/>
<path d="M22.4655 16.9642C22.8748 17.2013 23.2458 17.3046 23.5823 17.2778C23.9151 17.2511 24.1752 17.0981 24.3626 16.8227C24.55 16.5473 24.6456 16.1687 24.6456 15.6906C24.6456 15.2125 24.5538 14.7306 24.3664 14.2411C24.179 13.7515 23.9189 13.304 23.59 12.8948C23.2572 12.4855 22.8863 12.1643 22.477 11.9271C22.064 11.69 21.6891 11.5829 21.3602 11.6135C21.0275 11.6403 20.7712 11.7933 20.5838 12.0648C20.3964 12.3402 20.3008 12.715 20.3008 13.1931C20.3008 13.6712 20.3926 14.1569 20.58 14.6465C20.7674 15.136 21.0236 15.5873 21.3564 15.9927C21.6853 16.402 22.0601 16.7233 22.4732 16.9604L22.4655 16.9642Z" fill="#0B00DB"/>
<path d="M23.4787 17.4734C23.1383 17.4734 22.7674 17.3587 22.3696 17.1292C21.9374 16.8806 21.5435 16.5402 21.1992 16.1157C20.8588 15.695 20.5873 15.2245 20.3922 14.7158C20.1972 14.2033 20.1016 13.6947 20.1016 13.1936C20.1016 12.6811 20.2087 12.2642 20.419 11.9583C20.6408 11.637 20.9506 11.4572 21.3408 11.4228C21.7079 11.3922 22.121 11.5069 22.5685 11.7632C22.9968 12.0118 23.3908 12.3522 23.735 12.7767C24.0792 13.2013 24.3508 13.6717 24.542 14.1766C24.7371 14.6852 24.8327 15.1977 24.8327 15.695C24.8327 16.2113 24.7256 16.6282 24.5152 16.9341C24.2934 17.2592 23.9836 17.439 23.5935 17.4696C23.5552 17.4696 23.517 17.4734 23.4749 17.4734H23.4787ZM22.5608 16.8003C22.9356 17.0145 23.2722 17.1101 23.5667 17.091C23.8421 17.068 24.0486 16.9456 24.2054 16.72C24.3699 16.479 24.454 16.1348 24.454 15.695C24.454 15.2436 24.3661 14.777 24.1901 14.3142C24.0104 13.8476 23.7618 13.4116 23.4443 13.0215C23.1307 12.6314 22.7712 12.3216 22.3849 12.0998C22.0062 11.8818 21.6658 11.7861 21.379 11.8091C21.1074 11.832 20.8971 11.9544 20.7403 12.1801C20.5758 12.421 20.4917 12.7614 20.4917 13.1974C20.4917 13.6488 20.5796 14.1154 20.7556 14.582C20.9353 15.0524 21.1839 15.4884 21.5014 15.8785C21.815 16.2648 22.1707 16.5784 22.5646 16.8003H22.5608Z" fill="#0B00DB"/>
<path d="M23.152 14.9996C23.0564 14.9996 22.9569 14.9728 22.8613 14.9154L21.4003 14.0702C21.3429 14.0357 21.3047 13.9745 21.3047 13.9057V12.6053C21.3047 12.5365 21.3429 12.4753 21.4003 12.4409C21.4577 12.4064 21.5342 12.4064 21.5915 12.4409L23.0526 13.2861C23.3777 13.4735 23.6339 13.9554 23.6339 14.3838C23.6339 14.6439 23.5383 14.8466 23.37 14.9422C23.3012 14.9804 23.2285 14.9996 23.1482 14.9996H23.152ZM21.6872 13.7948L23.0526 14.5827C23.1061 14.6133 23.152 14.6247 23.1788 14.6094C23.2132 14.5903 23.2514 14.51 23.2514 14.38C23.2514 14.0931 23.0679 13.7336 22.8613 13.615L21.6872 12.9381V13.7948Z" fill="white"/>
<path d="M23.152 16.2994C23.0564 16.2994 22.9569 16.2726 22.8613 16.2152L21.4003 15.37C21.3429 15.3355 21.3047 15.2743 21.3047 15.2055V13.9051C21.3047 13.8363 21.3429 13.7751 21.4003 13.7407C21.4577 13.7062 21.5342 13.7062 21.5915 13.7407L23.0526 14.5859C23.3777 14.7733 23.6339 15.2552 23.6339 15.6836C23.6339 15.9437 23.5383 16.1464 23.37 16.242C23.3012 16.2802 23.2285 16.2994 23.1482 16.2994H23.152ZM21.6872 15.0946L23.0526 15.8825C23.1061 15.9131 23.152 15.9245 23.1788 15.9092C23.2132 15.8901 23.2514 15.8098 23.2514 15.6798C23.2514 15.3929 23.0679 15.0334 22.8613 14.9148L21.6872 14.2379V15.0946Z" fill="white"/>
<path d="M21.8162 12.9796C21.7091 12.9796 21.625 12.8955 21.625 12.7884V12.4442C21.625 12.3371 21.7091 12.2529 21.8162 12.2529C21.9233 12.2529 22.0075 12.3371 22.0075 12.4442V12.7884C22.0075 12.8955 21.9233 12.9796 21.8162 12.9796Z" fill="white"/>
<path d="M22.578 13.42C22.4709 13.42 22.3867 13.3359 22.3867 13.2288V12.8846C22.3867 12.7775 22.4709 12.6934 22.578 12.6934C22.685 12.6934 22.7692 12.7775 22.7692 12.8846V13.2288C22.7692 13.3359 22.685 13.42 22.578 13.42Z" fill="white"/>
<path d="M21.8162 15.9249C21.7091 15.9249 21.625 15.8408 21.625 15.7337V15.3895C21.625 15.2824 21.7091 15.1982 21.8162 15.1982C21.9233 15.1982 22.0075 15.2824 22.0075 15.3895V15.7337C22.0075 15.8408 21.9233 15.9249 21.8162 15.9249Z" fill="white"/>
<path d="M22.578 16.3644C22.4709 16.3644 22.3867 16.2802 22.3867 16.1731V15.8289C22.3867 15.7218 22.4709 15.6377 22.578 15.6377C22.685 15.6377 22.7692 15.7218 22.7692 15.8289V16.1731C22.7692 16.2802 22.685 16.3644 22.578 16.3644Z" fill="white"/>
<path d="M8.07812 6.53223V22.0183C8.07812 22.5384 8.35733 23.0204 8.80864 23.2843L23.3347 31.6717C24.0117 32.0619 24.8569 31.5723 24.8569 30.7921V17.9527C24.8569 17.0921 24.398 16.2966 23.656 15.8644L8.4147 7.00266" fill="white"/>
<path d="M23.8432 31.9967C23.6367 31.9967 23.4302 31.9431 23.2389 31.8322L8.71285 23.4485C8.20417 23.154 7.88672 22.6071 7.88672 22.0181V6.53205C7.88672 6.42496 7.97086 6.34082 8.07795 6.34082C8.18504 6.34082 8.26919 6.42496 8.26919 6.53205V6.8801C8.32656 6.81125 8.42982 6.79213 8.51014 6.83803L23.7514 15.6998C24.5508 16.1664 25.048 17.0269 25.048 17.9525V30.7919C25.048 31.2279 24.8223 31.618 24.4437 31.836C24.2563 31.9469 24.0459 32.0005 23.8394 32.0005L23.8432 31.9967ZM8.26919 7.12488V22.0181C8.26919 22.4694 8.51396 22.8901 8.90408 23.1158L23.4302 31.5033C23.6902 31.6524 23.9962 31.6524 24.2563 31.5033C24.5125 31.3541 24.6693 31.0864 24.6693 30.7881V17.9525C24.6693 17.1646 24.2448 16.4265 23.564 16.0287L8.31891 7.16695C8.29978 7.15547 8.28066 7.14017 8.26919 7.12488Z" fill="#0B00DA"/>
<path d="M8.4127 7.00214C7.96139 6.74206 7.96139 6.32135 8.4127 6.06127C8.86401 5.80119 9.5907 5.80119 10.042 6.06127" fill="#BCBEF1"/>
<path d="M8.41452 7.19322C8.38392 7.19322 8.3495 7.18557 8.31891 7.16644C8.0397 7.00581 7.88672 6.78015 7.88672 6.53155C7.88672 6.28295 8.0397 6.05729 8.31891 5.89666C8.82759 5.60216 9.63076 5.60216 10.1394 5.89666C10.2312 5.9502 10.2618 6.06494 10.2083 6.15673C10.1547 6.24852 10.04 6.27912 9.94821 6.22558C9.5581 5.99992 8.90025 5.99992 8.51014 6.22558C8.35715 6.31354 8.26919 6.42446 8.26919 6.53155C8.26919 6.63864 8.35715 6.74573 8.51014 6.83752C8.60193 6.89107 8.63253 7.00581 8.57898 7.0976C8.54456 7.15879 8.47954 7.19322 8.41452 7.19322Z" fill="#0B00DA"/>
<path d="M18.3675 25.8733C17.6944 25.8733 16.9524 25.6514 16.1875 25.2078C14.9139 24.4696 13.7168 23.2075 12.8218 21.6546C11.923 20.098 11.4296 18.4343 11.4258 16.9618C11.4258 15.451 11.9421 14.3228 12.883 13.7758C13.8238 13.2327 15.063 13.3475 16.3711 14.1048C17.6447 14.8429 18.8418 16.1051 19.7368 17.6579C20.6356 19.2145 21.129 20.8782 21.1328 22.3507C21.1328 23.8615 20.6164 24.9898 19.6756 25.5367C19.2855 25.7623 18.8456 25.8733 18.3675 25.8733ZM14.191 13.8179C13.7818 13.8179 13.407 13.9135 13.0742 14.1048C12.2557 14.5752 11.8082 15.5887 11.8082 16.958C11.8082 18.3654 12.2863 19.9641 13.1507 21.4596C14.0151 22.955 15.1625 24.1713 16.3787 24.875C17.5605 25.5596 18.6659 25.6782 19.4805 25.2039C20.299 24.7335 20.7465 23.72 20.7465 22.3507C20.7465 20.9433 20.2684 19.3446 19.404 17.8491C18.5397 16.3537 17.3923 15.1374 16.176 14.4337C15.4723 14.0244 14.7915 13.8179 14.1872 13.8179H14.191Z" fill="#0B00DA"/>
<path d="M17.9449 24.2514C17.4362 24.2514 16.8702 24.064 16.2544 23.693C15.6042 23.3029 15.0114 22.7713 14.4836 22.1173C13.9596 21.4632 13.5389 20.7404 13.2329 19.964C12.9269 19.1837 12.7625 18.4035 12.7472 17.6462C12.7319 16.8775 12.8772 16.2617 13.1755 15.8104C13.4853 15.34 13.929 15.0875 14.4912 15.0569C15.0305 15.0263 15.6386 15.2137 16.3003 15.6153C16.9505 16.0055 17.5433 16.5371 18.0673 17.1873C18.5874 17.8375 19.0082 18.5642 19.3141 19.3444C19.6201 20.1284 19.7846 20.9087 19.796 21.6583C19.8113 22.4347 19.666 23.0543 19.3677 23.498C19.0579 23.9646 18.6142 24.217 18.0558 24.2476C18.0176 24.2476 17.9793 24.2476 17.9411 24.2476L17.9449 24.2514ZM13.1335 17.6348C13.1488 18.3461 13.3018 19.0843 13.5924 19.8225C13.8831 20.5644 14.2847 21.2529 14.7819 21.8763C15.2791 22.4959 15.8413 22.9969 16.4533 23.3641C17.0499 23.7236 17.5854 23.8919 18.0405 23.8651C18.4804 23.8384 18.8131 23.6471 19.0579 23.2838C19.3103 22.9051 19.4327 22.3582 19.4212 21.6621C19.4059 20.9546 19.2529 20.2241 18.9623 19.4782C18.6716 18.7324 18.2738 18.044 17.7766 17.4206C17.2832 16.801 16.721 16.3038 16.1129 15.9366C15.5162 15.5771 14.9808 15.4088 14.5218 15.4317C14.082 15.4547 13.7492 15.6459 13.5045 16.0169C13.252 16.3994 13.1297 16.9463 13.1411 17.6348H13.1335Z" fill="#0B00DA"/>
<path d="M15.7005 18.7403C15.1307 18.7403 14.5034 18.9391 13.8609 19.3369C13.7691 19.3905 13.7423 19.509 13.7997 19.6008C13.857 19.6926 13.9756 19.7194 14.0636 19.662C14.9968 19.0883 15.8688 18.9659 16.519 19.3178C17.1386 19.6544 17.4943 20.3925 17.5249 21.3984C17.5249 21.5055 17.6205 21.5896 17.72 21.5858C17.827 21.5858 17.9074 21.494 17.9074 21.3908C17.8729 20.2434 17.4446 19.3866 16.7026 18.985C16.4004 18.8206 16.0639 18.7403 15.7044 18.7403H15.7005Z" fill="#0B00DA"/>
<path d="M18.3307 20.0062C18.2618 20.0062 18.193 20.0444 18.1586 20.1133L17.539 21.3601C17.4931 21.4557 17.5313 21.5705 17.6231 21.6164C17.7187 21.6623 17.8335 21.624 17.8794 21.5284L18.499 20.2816C18.5449 20.186 18.5066 20.0712 18.4148 20.0253C18.3881 20.01 18.3575 20.0062 18.3307 20.0062Z" fill="#0B00DA"/>
<path d="M16.9602 20.9852C16.8798 20.9852 16.8072 21.0349 16.7804 21.1114C16.746 21.2108 16.7957 21.3217 16.8951 21.3562L17.6486 21.6239C17.748 21.6583 17.859 21.6086 17.8934 21.5091C17.9278 21.4097 17.8781 21.2988 17.7786 21.2644L17.0252 20.9966C17.0022 20.989 16.9831 20.9852 16.9602 20.9852Z" fill="#0B00DA"/>
<path d="M0.191406 18.7551L3.56858 20.7057V16.8045C2.06932 15.9363 0.191406 17.0225 0.191406 18.7551Z" fill="white"/>
<path d="M3.56841 20.8934C3.53399 20.8934 3.50339 20.8857 3.47279 20.8666L0.0956166 18.9199C0.0382466 18.8854 0 18.8242 0 18.7554C0 17.8719 0.455135 17.0802 1.22007 16.6404C1.985 16.1967 2.89909 16.1967 3.66403 16.6404C3.7214 16.6748 3.75964 16.736 3.75964 16.8048V20.706C3.75964 20.7748 3.7214 20.836 3.66403 20.8704C3.63343 20.8857 3.60283 20.8972 3.56841 20.8972V20.8934ZM0.386291 18.6445L3.37718 20.3732V16.9196C2.75376 16.6021 2.02707 16.6174 1.4113 16.9731C0.799355 17.3288 0.420713 17.9484 0.382466 18.6483L0.386291 18.6445Z" fill="#0B00DB"/>
<path d="M3.57031 16.8044L5.25699 15.8291V19.7303L3.57031 20.7017V16.8044Z" fill="#BDBFF2"/>
<path d="M3.57014 20.8928C3.53572 20.8928 3.50512 20.8852 3.47452 20.866C3.41715 20.8316 3.37891 20.7704 3.37891 20.7016V16.8042C3.37891 16.7354 3.41715 16.6742 3.47452 16.6398L5.1612 15.6645C5.21857 15.6301 5.29506 15.6301 5.35243 15.6645C5.4098 15.6989 5.44805 15.7601 5.44805 15.8289V19.7263C5.44805 19.7951 5.4098 19.8563 5.35243 19.8907L3.66576 20.866C3.63516 20.8813 3.60456 20.8928 3.57014 20.8928ZM3.76137 16.9113V20.3688L5.06558 19.6154V16.1579L3.76137 16.9113Z" fill="#0B00DB"/>
<path d="M5.25434 15.8291L3.56766 16.8044C2.79126 16.3569 1.91159 16.4296 1.24609 16.8464C2.38202 15.8673 4.16814 15.3166 5.25434 15.8291Z" fill="white"/>
<path d="M1.24478 17.0377C1.22565 17.0377 1.20653 17.0377 1.18358 17.0301C1.13004 17.011 1.08796 16.9727 1.06502 16.9192C1.03442 16.8427 1.05354 16.7547 1.11856 16.7012C2.23536 15.7373 4.12092 15.0833 5.33334 15.657C5.39836 15.6876 5.44043 15.7526 5.44426 15.8215C5.44426 15.8942 5.40983 15.9592 5.34864 15.9936L3.66196 16.9689C3.60459 17.0033 3.5281 17.0033 3.47073 16.9689C2.80141 16.5826 2.00588 16.5979 1.34804 17.0071C1.31744 17.0263 1.28302 17.0377 1.24478 17.0377ZM2.4419 16.3034C2.82436 16.3034 3.20683 16.3952 3.56635 16.5826L4.79406 15.875C4.12092 15.7335 3.2336 15.9018 2.41895 16.3034C2.4266 16.3034 2.43807 16.3034 2.44572 16.3034H2.4419Z" fill="#0B00DB"/>
<path d="M3.57031 16.8115V20.7089C3.57031 23.1222 4.85922 25.352 6.94749 26.5568V22.6594C6.94749 20.2461 5.65858 18.0163 3.57031 16.8115Z" fill="white"/>
<path d="M6.94732 26.7478C6.90907 26.7478 6.87465 26.7363 6.84405 26.7172C4.70606 25.478 3.37891 23.1794 3.37891 20.7086V16.8075C3.37891 16.7386 3.41715 16.6774 3.47452 16.643C3.53189 16.6086 3.60839 16.6086 3.66576 16.643C5.80757 17.8784 7.13855 20.1846 7.13855 22.6592V26.5604C7.13855 26.6368 7.09265 26.7057 7.01999 26.7363C6.99704 26.7478 6.97027 26.7516 6.94732 26.7516V26.7478ZM3.76137 17.1479V20.7048C3.76137 22.9308 4.90112 25.0114 6.75608 26.2123V22.6554C6.75608 20.4294 5.61633 18.3488 3.76137 17.1479Z" fill="#0B00DB"/>
<path d="M5.25691 15.8291L3.56641 16.812C5.65467 18.0168 6.94358 20.2466 6.94358 22.66V26.5611L8.63409 25.5782V21.6808C8.63409 19.2675 7.34517 17.0377 5.25691 15.8329V15.8291Z" fill="#BDBFF2"/>
<path d="M6.94732 26.7484C6.9129 26.7484 6.8823 26.7407 6.8517 26.7216C6.79051 26.6872 6.75608 26.626 6.75608 26.5571V22.6598C6.75608 20.3229 5.49777 18.1467 3.47452 16.9763C3.41715 16.9419 3.37891 16.8807 3.37891 16.8119C3.37891 16.743 3.41333 16.6818 3.47452 16.6474L5.16502 15.6645C5.22239 15.6301 5.29889 15.6301 5.35626 15.6645C7.49807 16.8999 8.82905 19.2061 8.82905 21.6769V25.578C8.82905 25.6469 8.7908 25.7081 8.73344 25.7425L7.04293 26.7254C7.01234 26.7407 6.98174 26.7522 6.94732 26.7522V26.7484ZM3.94113 16.8119C5.91848 18.0817 7.13473 20.2923 7.13855 22.656V26.2244L8.44659 25.4633V21.673C8.44659 19.3744 7.22652 17.225 5.25682 16.047L3.94113 16.8119Z" fill="#0B00DB"/>
<path d="M6.94531 26.5575V22.6602L10.3225 24.6107C10.3225 26.3433 8.44458 27.4257 6.94531 26.5613V26.5575Z" fill="white"/>
<path d="M8.06959 27.0545C7.64888 27.0545 7.23199 26.9436 6.84952 26.7218C6.79215 26.6874 6.75391 26.6262 6.75391 26.5573V22.66C6.75391 22.5912 6.79215 22.53 6.84952 22.4955C6.90689 22.4611 6.98339 22.4611 7.04076 22.4955L10.4179 24.4461C10.4753 24.4805 10.5136 24.5417 10.5136 24.6106C10.5136 25.4941 10.0584 26.2858 9.29348 26.7256C8.91102 26.9475 8.4903 27.0584 8.07342 27.0584L8.06959 27.0545ZM7.13637 26.4426C7.75979 26.7639 8.48648 26.7447 9.10225 26.3891C9.7142 26.0334 10.0928 25.4138 10.1311 24.7138L7.1402 22.9851V26.4388L7.13637 26.4426Z" fill="#0B00DB"/>
<path d="M10.3225 24.6076L12.013 23.6361L8.63581 21.6855L6.94531 22.6608L10.3225 24.6076Z" fill="white"/>
<path d="M10.3223 24.7986C10.2879 24.7986 10.2573 24.7909 10.2267 24.7718L6.84952 22.8212C6.79215 22.7868 6.75391 22.7256 6.75391 22.6568C6.75391 22.5879 6.79215 22.5267 6.84952 22.4923L8.5362 21.517C8.59357 21.4826 8.67006 21.4826 8.72743 21.517L12.1046 23.4676C12.162 23.502 12.2002 23.5632 12.2002 23.6321C12.2002 23.7009 12.162 23.7621 12.1046 23.7965L10.4179 24.7718C10.3873 24.7871 10.3567 24.7986 10.3223 24.7986ZM7.32761 22.6568L10.3223 24.3855L11.6265 23.6321L8.63182 21.9033L7.32761 22.6568Z" fill="#0B00DB"/>
<path d="M12.0127 23.6357L10.326 24.611C10.326 25.5098 9.82117 26.2327 9.12891 26.5999C10.544 26.1065 11.9171 24.8329 12.0127 23.6357Z" fill="#5C5FE6"/>
<path d="M9.12432 26.7915C9.04783 26.7915 8.97516 26.7456 8.94838 26.6729C8.91014 26.5811 8.94838 26.4778 9.03635 26.4319C9.72097 26.0686 10.134 25.3878 10.134 24.6114C10.134 24.5426 10.1723 24.4814 10.2296 24.4469L11.9163 23.4716C11.9775 23.4372 12.054 23.4372 12.1152 23.4755C12.1764 23.5137 12.2108 23.5826 12.2032 23.6514C12.0923 24.99 10.5853 26.2942 9.18934 26.78C9.17022 26.7876 9.14727 26.7915 9.12432 26.7915ZM10.5088 24.7223C10.4897 25.1354 10.375 25.5217 10.1761 25.8582C10.9334 25.3496 11.5224 24.6649 11.7366 24.0147L10.5088 24.7223Z" fill="#0B00DB"/>
<path d="M34.0738 4.20775C33.0335 4.20775 31.8785 4.57874 30.689 5.30925C30.5972 5.3628 30.5704 5.48136 30.6278 5.57315C30.6813 5.66494 30.7999 5.69172 30.8917 5.63435C32.7046 4.51755 34.4142 4.28807 35.6993 4.98033C36.9232 5.642 37.6269 7.08772 37.6843 9.04977C37.6843 9.15686 37.7723 9.241 37.8794 9.23718C37.9864 9.23718 38.0668 9.14539 38.0668 9.04212C38.0056 6.93856 37.2292 5.37809 35.8791 4.64758C35.336 4.35308 34.7278 4.20775 34.0776 4.20775H34.0738Z" fill="white"/>
<path d="M39.0417 6.60196C38.9728 6.60196 38.904 6.64021 38.8696 6.70905L37.703 9.0574C37.6571 9.15301 37.6954 9.26775 37.7872 9.31365C37.8828 9.35955 37.9975 9.3213 38.0434 9.22568L39.21 6.87734C39.2559 6.78172 39.2176 6.66698 39.122 6.62109C39.0952 6.60579 39.0646 6.60196 39.0378 6.60196H39.0417Z" fill="white"/>
<path d="M36.4524 8.44539C36.372 8.44539 36.2994 8.49511 36.2726 8.5716C36.2382 8.67104 36.2879 8.78196 36.3873 8.81638L37.8063 9.32506C37.9057 9.35948 38.0166 9.30976 38.0511 9.21032C38.0855 9.11088 38.0358 8.99996 37.9363 8.96554L36.5174 8.45686C36.4944 8.44921 36.4753 8.44539 36.4524 8.44539Z" fill="white"/>
<path d="M5.26545 8.3441H5.26163C5.15454 8.3441 5.07422 8.25231 5.07422 8.14904C5.13541 6.04548 5.91182 4.48501 7.26193 3.7545C8.67323 2.99339 10.5167 3.2267 12.4482 4.41617C12.54 4.46971 12.5667 4.58828 12.5094 4.68007C12.452 4.77186 12.3334 4.79864 12.2455 4.74127C10.4326 3.62446 8.72295 3.39498 7.43786 4.08725C6.21397 4.74891 5.51023 6.19464 5.45286 8.15669C5.45286 8.25996 5.36489 8.3441 5.26163 8.3441H5.26545Z" fill="white"/>
<path d="M5.26433 8.4126C5.19549 8.4126 5.12664 8.37436 5.09222 8.30551L3.9257 5.95334C3.8798 5.85773 3.91805 5.74299 4.00984 5.69709C4.10546 5.6512 4.2202 5.68944 4.26609 5.78506L5.43262 8.13723C5.47851 8.23284 5.44026 8.34758 5.34847 8.39348C5.3217 8.40878 5.2911 8.4126 5.26433 8.4126Z" fill="white"/>
<path d="M5.26485 8.41301C5.18454 8.41301 5.11187 8.36329 5.08509 8.2868C5.05067 8.18735 5.10039 8.07644 5.19983 8.04202L6.61878 7.53334C6.71823 7.49892 6.82914 7.54864 6.86356 7.64808C6.89799 7.74752 6.84826 7.85843 6.74882 7.89285L5.32987 8.40154C5.30693 8.40918 5.2878 8.41301 5.26485 8.41301Z" fill="white"/>
</svg>
