<svg width="24" height="24" viewBox="0 0 24 24" fill="none" xmlns="http://www.w3.org/2000/svg">
<path d="M11.54 0C5.17999 0 0 5.18004 0 11.54C0 17.9 5.17999 23.08 11.54 23.08C17.9 23.08 23.08 17.9 23.08 11.54C23.08 5.18004 17.9 0 11.54 0ZM18.02 12.73C17.98 13.35 17.91 13.9601 17.82 14.5701C17.7 15.4401 17.04 15.99 16.16 15.99C14.63 15.99 13.11 15.99 11.58 15.99C10.05 15.99 8.5 15.99 6.97 15.99C6.32 15.99 5.82001 15.7401 5.49001 15.1901C5.38001 15.0101 5.29 14.7801 5.27 14.5701C5.18 13.7301 5.09 12.9001 5.05 12.0601C4.99 10.9701 5.09 9.88004 5.22 8.79004C5.28 8.33004 5.38999 7.89006 5.75999 7.56006C6.07999 7.27006 6.44 7.10999 6.86 7.10999C7.36 7.10999 7.86 7.09998 8.36 7.09998C10.91 7.09998 13.46 7.09998 16.01 7.09998C16.6 7.09998 17.12 7.24999 17.51 7.73999C17.71 7.97999 17.8 8.27007 17.85 8.57007C18.07 9.95007 18.13 11.34 18.03 12.74L18.02 12.73Z" fill="#0F20E8"/>
<path fill-rule="evenodd" clip-rule="evenodd" d="M18.0307 12.7307C18.031 12.7266 18.0312 12.7225 18.0315 12.7185C18.0631 12.2685 18.0782 11.8195 18.0768 11.3715C18.0737 10.4332 17.9982 9.49938 17.85 8.57007C17.8 8.27007 17.71 7.97999 17.51 7.73999C17.12 7.24999 16.6 7.09998 16.01 7.09998H8.36C8.11 7.09998 7.86 7.10248 7.61 7.10498C7.36 7.10748 7.11 7.10999 6.86 7.10999C6.44 7.10999 6.07999 7.27006 5.75999 7.56006C5.38999 7.89006 5.28 8.33004 5.22 8.79004C5.09 9.88004 4.99 10.9701 5.05 12.0601C5.08918 12.8828 5.17633 13.6959 5.26446 14.5183L5.27 14.5701C5.29 14.7801 5.38001 15.0101 5.49001 15.1901C5.82001 15.7401 6.32 15.99 6.97 15.99H16.16C17.04 15.99 17.7 15.4401 17.82 14.5701C17.847 14.387 17.8722 14.2038 17.8954 14.0204C17.9484 13.5999 17.9906 13.178 18.0186 12.7514C18.0189 12.7473 18.0191 12.7433 18.0194 12.7392C18.0196 12.7361 18.0198 12.7331 18.02 12.73L18.03 12.74C18.0302 12.7369 18.0304 12.7338 18.0307 12.7307ZM18.7768 14.9032C18.5127 16.178 17.4513 16.99 16.16 16.99H6.97C6.01336 16.99 5.16667 16.5922 4.63456 15.708C4.46833 15.4349 4.31395 15.0645 4.27518 14.6718L4.26891 14.6133C4.18178 13.8004 4.092 12.9628 4.05131 12.1113C3.98673 10.9316 4.09589 9.77128 4.22704 8.67161L4.22834 8.66069C4.29494 8.15011 4.44178 7.39774 5.09136 6.81646C5.56441 6.3888 6.15502 6.10999 6.86 6.10999C7.10416 6.10999 7.34916 6.10754 7.59999 6.10503L7.60254 6.105C7.8509 6.10252 8.10503 6.09998 8.36 6.09998H16.01C16.7799 6.09998 17.6419 6.30599 18.2857 7.10888C18.6432 7.5424 18.7737 8.02957 18.8364 8.40567L18.8376 8.41263C19.0697 9.86856 19.1329 11.3352 19.0275 12.8112L18.8713 14.9978L18.7768 14.9032ZM11.54 1C5.73228 1 1 5.73232 1 11.54C1 17.3477 5.73227 22.08 11.54 22.08C17.3477 22.08 22.08 17.3477 22.08 11.54C22.08 5.73232 17.3477 1 11.54 1ZM0 11.54C0 5.18004 5.17999 0 11.54 0C17.9 0 23.08 5.18004 23.08 11.54C23.08 17.9 17.9 23.08 11.54 23.08C5.17999 23.08 0 17.9 0 11.54Z" fill="#0F20E8"/>
<path d="M14.45 11.6302L9.51001 14.1703V9.03027L14.45 11.6302Z" fill="#0F20E8"/>
<path fill-rule="evenodd" clip-rule="evenodd" d="M14.45 11.6302L9.51001 9.03027V14.1703L14.45 11.6302ZM12.2832 11.6199L10.51 10.6866V12.5317L12.2832 11.6199Z" fill="#0F20E8"/>
</svg>
