<?xml version="1.0" encoding="UTF-8"?>
<svg width="51px" height="33px" viewBox="0 0 51 33" version="1.1" xmlns="http://www.w3.org/2000/svg"
     xmlns:xlink="http://www.w3.org/1999/xlink">
    <title>ID/Driver-License</title>
    <g id="ID/Driver-License" stroke="none" stroke-width="1" fill="none" fill-rule="evenodd">
        <g id="Group" stroke="orange">
            <rect stroke="#000" id="Rectangle" fill="#FFFFFF" x="0.5" y="0.5" width="50" height="32" rx="3"></rect>
            <line  x1="27" y1="12.5" x2="45" y2="12.5" id="Path"></line>
            <line x1="27" y1="16.5" x2="45" y2="16.5" id="Path-Copy"></line>
            <line x1="27" y1="8.5" x2="45" y2="8.5" id="Path-Copy"></line>
            <g id="Login/User" transform="translate(5.000000, 8.000000)">
                <path d="M8.5,0.5 C9.48468243,0.5 10.1738167,0.689290057 10.6611921,0.973992718 C11.3784082,1.39295792 11.6331589,2.00915453 11.8037454,2.39818148 C12.1059032,3.02026767 12.0550987,3.78525639 11.843658,4.92564176 L11.843658,4.92564176 L12.1829819,5.60349248 L12.1829819,7.09165955 C11.8228814,7.38005566 11.6821657,7.64731452 11.5312419,8.0019364 C11.2441354,8.67654357 10.8632966,9.26127231 10.3866385,9.75477589 L10.3866385,9.75477589 L10.3866385,12.3965564 C12.9504276,13.4414143 14.6143145,14.2378168 15.3687732,14.8004262 C15.8879201,15.1875605 16.2254584,15.7588658 16.403248,16.5 L16.403248,16.5 L0.568502804,16.5 C0.707323835,15.7561693 1.01005951,15.1814147 1.50318022,14.7920034 C2.21401236,14.230668 3.98864674,13.4448183 6.81020478,12.409506 L6.81020478,12.409506 L6.81020478,9.812738 C6.36758379,9.08112124 6.04462101,8.47830735 5.84378529,8.00309437 C5.63626061,7.51205416 5.3136618,7.17382681 4.88016974,6.98324499 L4.88016974,6.98324499 L4.88016974,5.60995942 L5.24585806,4.92195634 C5.01234446,3.92119499 4.97078047,3.14692826 5.18609191,2.59865773 L5.18609191,2.59865773 L5.30053857,2.29068209 C5.49414858,1.78192833 5.72207138,1.30330745 6.28407973,0.966387919 C6.76065061,0.680687468 7.45936727,0.5 8.5,0.5 Z"
                      id="User"></path>
            </g>
            <path d="M37.5,21.4833001 L39,23.685264 L42.1559635,23.685264 C41.582924,25.4493018 41.2573329,26.3875472 41.1791904,26.5 C41.1010478,26.6124528 40.7746599,26.6124528 40.2000266,26.5 L40,26.5 C40,27.3284271 39.3284271,28 38.5,28 C37.6715729,28 37,27.3284271 37,26.5 L37,26.5 L34,26.5 C34,27.3284271 33.3284271,28 32.5,28 C31.6715729,28 31,27.3284271 31,26.5 L31,26.5 L29.4592377,26.5 L29.4592377,23.685264 L31.7327797,23.685264 L32.5,21.4833001 L37.5,21.4833001 Z"
                  id="ID" stroke-linejoin="round"></path>
        </g>
    </g>
</svg>