<?xml version="1.0" encoding="UTF-8"?>
<svg width="33px" height="44px" viewBox="0 0 33 44" version="1.1" xmlns="http://www.w3.org/2000/svg" xmlns:xlink="http://www.w3.org/1999/xlink">
    <title>ID/National-ID-V</title>
    <g id="ID/National-ID-V" stroke="none" stroke-width="1" fill="none" fill-rule="evenodd">
        <g id="Group" stroke="orange">
            <rect stroke="#000" id="Rectangle" fill="#FFFFFF" transform="translate(16.500000, 22.000000) rotate(90.000000) translate(-16.500000, -22.000000) " x="-5" y="6" width="43" height="32" rx="1"></rect>
            <g id="Login/User" transform="translate(8.000000, 4.000000)">
                <path d="M8.5,0.5 C9.47450829,0.5 10.1574434,0.70963845 10.6400513,1.02472293 C11.3673496,1.49956063 11.6232781,2.19777911 11.7961986,2.6385228 C12.1009495,3.33959806 12.0600116,4.20249365 11.8479084,5.48941902 L11.8479084,5.48941902 L12.1829819,6.23752699 L12.1829819,7.97117188 C11.8163496,8.29315587 11.6746439,8.58874394 11.5240407,8.98424442 C11.2377286,9.73613096 10.8595048,10.3892438 10.3866385,10.9419881 L10.3866385,10.9419881 L10.3866385,13.8009531 C12.9380798,14.9637361 14.5954111,15.8508941 15.3475551,16.4777636 C15.8947486,16.9338184 16.2425494,17.6135627 16.4182314,18.5 L16.4182314,18.5 L0.557325087,18.5 C0.692487012,17.6106958 1.00426524,16.9274099 1.52416757,16.4685482 C2.23293516,15.8429955 4.00148102,14.9670558 6.81020478,13.8146077 L6.81020478,13.8146077 L6.81020478,10.9963998 C6.37143078,10.1844637 6.05097145,9.51440967 5.85090724,8.98532962 C5.64327281,8.43622969 5.31529808,8.06590773 4.88016974,7.85830717 L4.88016974,7.85830717 L4.88016974,6.24350559 L5.24023235,5.48639033 C5.0076516,4.35788565 4.97462999,3.48568263 5.191868,2.86747933 C5.42585375,2.16373787 5.62027515,1.47515169 6.30530586,1.01616706 C6.77731171,0.699913465 7.47017211,0.5 8.5,0.5 Z" id="User"></path>
            </g>
            <line x1="8" y1="31.5" x2="26" y2="31.5" id="Path"></line>
            <line x1="8" y1="35.5" x2="26" y2="35.5" id="Path-Copy"></line>
            <line x1="8" y1="39.5" x2="26" y2="39.5" id="Path-Copy-2"></line>
            <line x1="8" y1="27.5" x2="26" y2="27.5" id="Path-Copy"></line>
        </g>
    </g>
</svg>