<?xml version="1.0" encoding="UTF-8"?>
<svg width="33px" height="44px" viewBox="0 0 33 44" version="1.1" xmlns="http://www.w3.org/2000/svg" xmlns:xlink="http://www.w3.org/1999/xlink">
    <title>ID/Passport</title>
    <g id="ID/Passport" stroke="none" stroke-width="1" fill="none" fill-rule="evenodd">
        <g id="Group" stroke="orange">
            <rect stroke="#000" id="Rectangle" fill="#FFFFFF" x="0.5" y="0.5" width="32" height="43" rx="2"></rect>
            <rect id="Rectangle" fill="#FFFFFF" x="7.5" y="32.5" width="18" height="5" rx="2.5"></rect>
            <circle id="Oval" fill="#FFFFFF" cx="16.5" cy="17.5" r="9"></circle>
            <line x1="9.68736422" y1="12.1750211" x2="23.6873642" y2="12.1750211" id="Path-2"></line>
            <line x1="8" y1="17.5" x2="26" y2="17.5" id="Path-3"></line>
            <line x1="9.67824664" y1="22.0351914" x2="23.671253" y2="22.4776542" id="Path-4" stroke-linecap="round" transform="translate(16.674750, 22.256423) rotate(-2.000000) translate(-16.674750, -22.256423) "></line>
            <path d="M15.1773513,9 C12.3924504,10.9117272 11,13.881501 11,17.9093212 C11,21.9371414 12.5591171,24.6340344 15.6773513,26" id="Path-5" stroke-linecap="round"></path>
            <path d="M21.1773513,9 C18.9393707,11.2702673 17.6414995,13.2621756 17.2837376,14.9757249 C17.0945792,15.8817248 17,16.8595902 17,17.9093212 C17,21.9371414 18.5591171,24.6340344 21.6773513,26" id="Path-5-Copy" stroke-linecap="round" transform="translate(19.338676, 17.500000) scale(-1, 1) translate(-19.338676, -17.500000) "></path>
            <line x1="16.4513592" y1="9" x2="16.5486408" y2="25.9997217" id="Path-7"></line>
        </g>
    </g>
</svg>