<?xml version="1.0" encoding="UTF-8"?>
<svg width="160px" height="35px" viewBox="0 0 160 35" version="1.1" xmlns="http://www.w3.org/2000/svg" xmlns:xlink="http://www.w3.org/1999/xlink">
    <title>PROVE ID</title>
    <g id="Page-1" stroke="none" stroke-width="1" fill="none" fill-rule="evenodd">
        <g id="Desktop-HD" transform="translate(-252.000000, -291.000000)" fill-rule="nonzero">
            <g id="PROVE-ID" transform="translate(252.498915, 291.060000)">
                <path d="M0.301085334,26.1 C0.241085334,27.18 1.20108533,27.27 2.07108533,27.24 C2.91108533,27.24 3.27108533,26.79 3.27108533,25.98 L3.27108533,25.98 L3.257752,23.7 L3.257752,23.7 L3.27108533,22.56 C3.27108533,21.21 3.84108533,20.64 5.22108533,20.61 C6.51108533,20.58 7.80108533,20.61 9.39108533,20.61 C11.0410853,20.58 12.9910853,20.64 14.9410853,20.4 C16.2010853,20.22 17.2210853,19.74 17.9710853,18.69 C18.7135853,17.6325 18.6798353,16.5075 18.5785853,15.3909375 L18.5361653,14.9449425 C18.5148353,14.72235 18.4945853,14.5005 18.4810853,14.28 C18.3910853,12.63 16.6810853,11.25 15.0010853,11.07 C13.1710853,10.86 11.3410853,11.01 9.51108533,10.86 C6.69108533,10.62 3.90108533,10.86 1.11108533,10.92 C0.661085334,10.92 0.271085334,11.07 0.241085334,11.55 C0.224721698,11.79 0.201415912,12.0309917 0.175675867,12.2722539 L0.0956608411,12.9961307 C0.00430847445,13.8399174 -0.0616419388,14.6781818 0.091085334,15.48 C0.331085334,16.86 0.151085334,18.21 0.061085334,19.5 C-0.058914666,21.72 0.361085334,23.91 0.301085334,26.1 Z M13.6810853,17.43 C11.4310853,18.24 6.42108533,17.52 4.77108533,17.4 C3.87108533,17.31 3.27108533,17.04 3.27108533,16.05 C3.30108533,14.73 3.75108533,14.22 4.95108533,14.19 C7.77108533,14.16 10.5910853,14.16 13.4110853,14.19 C14.0110853,14.19 14.5510853,14.4 14.8510853,15 C15.1810853,15.69 15.0310853,16.26 14.5810853,16.83 C14.3710853,17.1 14.0710853,17.28 13.6810853,17.43 Z M40.5010853,29.46 C45.5710853,33.15 51.1210853,34.41 57.2410853,33.24 C58.1410853,33.09 58.5310853,32.28 58.2910853,31.2 C58.0810853,30.21 57.4210853,29.7 56.5510853,29.97 C55.2010853,30.39 53.7610853,30.39 52.4110853,30.36 C49.3210853,30.3 46.2310853,29.58 43.8010853,27.66 C41.4910853,25.83 39.2110853,23.82 37.6210853,21.24 C37.2310853,20.61 37.3510853,20.28 37.9510853,19.92 C39.0010853,19.23 39.6910853,18.33 40.0210853,17.07 C40.5010853,15.27 39.4210853,12.69 37.8010853,11.76 C36.4210853,10.98 34.9510853,11.16 33.5110853,10.95 C32.9910853,10.87 32.4710853,10.9025926 31.9510853,10.9608642 L31.1710853,11.0566667 C30.7810853,11.1033333 30.3910853,11.14 30.0010853,11.13 C27.6610853,11.07 25.3510853,10.95 23.0110853,11.1 C21.8110853,11.19 21.5110853,11.73 21.4510853,12.9 C21.3610853,14.94 21.8710853,16.98 21.6010853,19.02 C21.4810853,19.8 21.3010853,20.64 21.4510853,21.42 C21.7510853,22.8 21.2710853,24.18 21.4810853,25.56 C21.6310853,26.73 21.6610853,27.18 22.6210853,27.27 C24.2410853,27.39 24.8110853,27 24.8410853,25.74 C24.8710853,24.69 24.8110853,23.67 24.8710853,22.62 C24.9010853,21.3 25.3510853,20.85 26.6710853,20.85 L26.6710853,20.85 L28.8010853,20.85 C29.5510853,20.85 30.3310853,20.82 31.1110853,20.85 C31.8610853,20.88 32.5810853,21.09 33.1210853,21.63 C33.8710853,22.38 34.6510853,23.13 35.3110853,23.97 C36.9010853,25.92 38.3710853,27.93 40.5010853,29.46 Z M35.9410853,16.89 C34.8910853,17.82 33.6610853,17.58 32.4610853,17.55 C30.9610853,17.55 29.4910853,17.46 27.9910853,17.52 C27.1810853,17.58 26.4010853,17.43 25.5910853,17.31 C24.9610853,17.25 24.7510853,16.71 24.8710853,16.17 C24.8860853,16.095 24.8986853,16.0188 24.9103853,15.94221 L24.9620228,15.5976563 C25.0548353,15.028125 25.2235853,14.505 26.1010853,14.37 C27.7810853,14.16 29.4910853,14.28 31.1710853,14.19 C32.0410853,14.19 32.9410853,14.28 33.8110853,14.16 C34.8010853,14.04 35.4910853,14.58 36.2410853,15.03 C36.8110853,15.36 36.6010853,16.29 35.9410853,16.89 Z M56.6710853,27.36 C58.7410853,27.51 60.7210853,27.12 62.6110853,26.4 C64.9210853,25.56 66.3910853,23.91 66.8410853,21.36 C67.1110853,19.92 66.7510853,18.57 66.8110853,17.19 C66.8710853,15.87 66.2410853,14.82 65.4910853,13.89 C63.1810853,11.1 59.9410853,10.65 56.6110853,10.8 C55.1710853,10.86 53.7010853,11.04 52.2610853,11.19 C48.7810853,11.52 46.1710853,13.92 45.7810853,17.37 C45.6310853,18.66 45.5410853,20.01 45.8110853,21.27 C46.2910853,23.37 47.2210853,25.17 49.4710853,26.16 C51.8110853,27.21 54.2410853,27.21 56.6710853,27.36 Z M61.4110853,22.98 C59.9110853,24.12 58.2010853,24.15 56.5210853,24.06 C56.3987776,24.0530769 56.2766475,24.0470414 56.1546675,24.0415248 L55.4243716,24.0117023 C54.2094877,23.9625444 53.0041623,23.8915385 51.7810853,23.43 C49.6210853,22.56 49.3510853,20.82 49.0810853,19.44 C48.9910853,16.77 50.6110853,14.76 53.1610853,14.49 C55.5610853,14.25 57.9610853,14.01 60.3010853,14.73 C61.5610853,15.12 62.7610853,15.87 63.3010853,17.04 C64.2610853,19.17 63.3310853,21.54 61.4110853,22.98 Z" id="PRO" fill="#FFFFFF"></path>
                <path d="M80.1910853,26.01 C81.3610853,27.39 82.3210853,27.33 83.6410853,26.13 C84.6610853,25.2 85.2010853,23.97 85.9510853,22.92 C87.7810853,20.37 89.6710853,17.88 91.4110853,15.3 L91.4110853,15.3 L91.9456098,14.5096444 C94.444952,10.8310667 97.0470853,7.318 101.191085,5.19 C102.871085,4.29 104.641085,3.87 106.471085,3.45 C107.881085,3.15 109.261085,3.27 110.311085,3.45 C112.321085,3.48 112.591085,3.18 112.621085,1.47 C112.621085,0.78 111.751085,8.52651283e-14 110.941085,8.52651283e-14 C108.751085,0.06 106.561085,0.06 104.371085,0.54 C100.861085,1.35 97.8010853,2.79 95.0710853,5.07 C91.8010853,7.83 89.7010853,11.58 87.3010853,15.03 C85.7410853,17.25 84.0010853,19.35 82.6210853,21.69 C82.4410853,21.99 82.0510853,22.26 81.6910853,21.9 C81.3010853,21.51 80.9410853,21.12 80.6110853,20.67 C78.6610853,18.09 76.8310853,15.42 74.9410853,12.81 C74.0410853,11.55 73.2310853,10.71 71.6410853,10.74 C71.0710853,10.74 70.5310853,10.53 70.1410853,11.07 C69.7210853,11.61 70.0210853,12.12 70.3210853,12.6 C70.5010853,12.9 70.7710853,13.17 71.0110853,13.44 C72.2710853,14.91 73.0510853,16.77 74.6710853,17.91 C74.7610853,17.97 74.7610853,18.12 74.8210853,18.21 C76.3810853,20.97 78.1810853,23.55 80.1910853,26.01 Z" id="V" fill="#8DFF14"></path>
                <path d="M106.132514,27.3614869 L107.251085,27.36 C109.801085,27.36 112.381085,27.36 114.931085,27.24 C115.711085,27.21 116.191085,26.73 116.191085,25.86 C116.191085,25.05 116.101085,24.48 115.111085,24.27 C113.791085,23.97 112.531085,23.64 111.241085,24.27 C111.061085,24.33 110.791085,24.27 110.581085,24.24 C108.181085,23.97 105.751085,23.85 103.351085,24.24 C101.941085,24.48 101.071085,23.76 101.131085,22.47 C101.161085,21.3 101.641085,20.91 103.051085,20.91 C106.171085,20.88 109.291085,20.91 112.411085,20.88 C113.581085,20.88 113.731085,20.55 113.761085,18.99 C113.791085,18 113.461085,17.58 112.441085,17.61 C109.111085,17.7 105.811085,17.58 102.511085,17.43 C101.371085,17.4 101.101085,16.86 101.101085,15.9 C101.131085,14.79 101.521085,14.25 102.571085,14.25 C106.531085,14.25 110.491085,14.25 114.421085,14.31 C115.621085,14.34 116.041085,14.01 116.191085,12.87 C116.311085,11.85 115.831085,11.25 114.991085,10.83 L114.991085,10.83 L105.901085,10.83 C104.605085,11.19 103.287485,11.2152 101.967725,11.1972 L101.087779,11.182 C100.501219,11.1718667 99.9150853,11.166 99.3310853,11.19 C98.1310853,11.25 97.5010853,11.73 97.7110853,12.87 C97.8790853,13.878 97.8118853,14.8713 97.7152853,15.86019 L97.6300853,16.70697 L97.6300853,16.70697 L97.5910853,17.13 C97.5583581,17.6536364 97.6089366,18.1733058 97.6764647,18.6918933 L97.7821747,19.4693238 C97.8670357,20.1171074 97.9265399,20.7654545 97.8310853,21.42 C97.5910853,22.95 97.5010853,24.42 97.8310853,25.98 C98.0410853,26.94 98.4010853,27.39 99.4210853,27.33 C102.031085,27.21 104.641085,27.39 107.251085,27.36 L106.132514,27.3614869 Z M131.667011,27.3989455 L131.821085,27.39 C132.811085,27.3 133.171085,26.58 133.171085,25.77 C133.261085,23.01 132.931085,20.28 133.321085,17.28 C132.931085,15.72 133.111085,13.92 133.021085,12.12 C133.021085,11.46 132.601085,10.86 131.971085,10.95 C131.251085,11.07 129.961085,10.77 129.991085,12 C130.021085,13.38 129.721085,14.7 129.751085,16.08 C129.841085,18.9 130.051085,21.75 129.751085,24.57 C129.691085,25.05 129.751085,25.53 129.841085,26.01 C130.051085,26.91 130.891085,27.48 131.821085,27.39 L131.667011,27.3989455 Z M146.191085,27.42 C148.501085,27.45 150.841085,27.36 153.151085,26.88 C155.461085,26.37 156.991085,24.9 157.801085,23.01 C158.611085,21.09 158.731085,18.96 158.251085,16.77 C157.651085,14.16 156.181085,12.57 153.811085,11.61 C152.611085,11.1 151.261085,11.4 150.121085,10.8 L150.121085,10.8 L139.921085,10.8 C138.211085,11.19 138.091085,11.25 138.061085,13.08 C138.031085,15.84 137.791085,18.6 138.001085,21.36 C138.091085,22.59 138.121085,23.85 137.881085,25.08 C137.641085,26.4 138.151085,27.21 139.231085,27.27 C141.541085,27.36 143.881085,27.36 146.191085,27.42 Z M144.455459,24.0487351 L143.581085,24.03 C141.631085,23.94 141.331085,23.7 141.331085,21.75 L141.331085,21.75 L141.331085,15.78 C141.331085,14.7 141.931085,14.19 143.011085,14.31 C143.281085,14.34 143.521085,14.28 143.761085,14.31 C146.431085,14.49 149.101085,13.89 151.741085,14.67 C154.891085,15.63 155.401085,17.97 154.741085,20.79 C154.291085,22.65 152.011085,24.12 149.731085,23.97 C147.661085,23.85 145.621085,24.12 143.581085,24.03 L144.455459,24.0487351 Z" id="EID" fill="#FFFFFF"></path>
            </g>
        </g>
    </g>
</svg>