<svg width="28" height="31" viewBox="0 0 28 31" fill="none" xmlns="http://www.w3.org/2000/svg">
<path d="M24.1899 0C25.9751 0 27.4149 1.44363 27.5 3.14246V30.4723L24.1011 27.5863L22.2346 25.8875L20.1981 24.1125L21.0488 26.9121H3.22499C1.4449 26.9121 0 25.5599 0 23.7684V3.14881C0 1.44997 1.44744 0.00380904 3.23134 0.00380904H24.1811L24.1899 0ZM16.422 7.21559H16.384L16.1275 7.46953C18.7595 8.23134 20.033 9.42103 20.033 9.42103C18.3367 8.57288 16.808 8.14881 15.2793 7.9774C14.1747 7.80599 13.0701 7.89614 12.1369 7.9774H11.8829C11.2862 7.9774 10.0165 8.23134 8.31513 8.91061C7.72219 9.16836 7.38192 9.33723 7.38192 9.33723C7.38192 9.33723 8.65414 8.06501 11.4576 7.38573L11.2862 7.21432C11.2862 7.21432 9.16328 7.13306 6.87151 8.82682C6.87151 8.82682 4.57974 12.8187 4.57974 17.74C4.57974 17.74 5.84942 19.9492 9.33215 20.033C9.33215 20.033 9.84002 19.3563 10.3542 18.7608C8.39893 18.1666 7.63713 16.9782 7.63713 16.9782C7.63713 16.9782 7.80726 17.062 8.06247 17.2321H8.13865C8.17674 17.2321 8.19451 17.2511 8.21483 17.2702V17.2778C8.23514 17.2981 8.25292 17.3159 8.29101 17.3159C8.71 17.4886 9.129 17.6587 9.47181 17.8238C10.0635 18.0802 10.824 18.3354 11.7572 18.5043C12.938 18.6757 14.2915 18.7583 15.8329 18.5043C16.5947 18.3329 17.3565 18.1653 18.1183 17.825C18.6135 17.5711 19.223 17.3172 19.8921 16.8893C19.8921 16.8893 19.1303 18.0777 17.0924 18.6719C17.5114 19.2636 18.1018 19.9416 18.1018 19.9416C21.5858 19.8654 22.9393 17.6562 23.0155 17.7501C23.0155 12.8365 20.711 8.83697 20.711 8.83697C18.6351 7.29558 16.6925 7.23718 16.3497 7.23718L16.4208 7.21178L16.422 7.21559ZM16.6353 12.8187C17.5279 12.8187 18.2478 13.5805 18.2478 14.5137C18.2478 15.4533 17.5241 16.2151 16.6353 16.2151C15.7466 16.2151 15.0229 15.4533 15.0229 14.5213C15.0254 13.5818 15.7504 12.8225 16.6353 12.8225V12.8187ZM10.8672 12.8187C11.756 12.8187 12.4746 13.5805 12.4746 14.5137C12.4746 15.4533 11.7509 16.2151 10.8621 16.2151C9.97334 16.2151 9.24962 15.4533 9.24962 14.5213C9.24962 13.5818 9.97334 12.8225 10.8621 12.8225L10.8672 12.8187Z" fill="#3A3A3A"/>
</svg>
