<svg width="35" height="40" viewBox="0 0 35 40" fill="none" xmlns="http://www.w3.org/2000/svg">
<path fill-rule="evenodd" clip-rule="evenodd" d="M7.13477 10.5986C7.13477 4.74954 11.7952 0 17.5346 0C23.2739 0 27.9344 4.74953 27.9344 10.5986V17.6056C27.9344 18.5779 27.1609 19.3662 26.2068 19.3662C25.2527 19.3662 24.4793 18.5779 24.4793 17.6056V10.5986C24.4793 6.69418 21.3657 3.52112 17.5346 3.52112C13.7034 3.52112 10.5899 6.69417 10.5899 10.5986V17.6056C10.5899 18.5779 9.8164 19.3662 8.86231 19.3662C7.90821 19.3662 7.13477 18.5779 7.13477 17.6056V10.5986Z" fill="#0F20E8"/>
<path fill-rule="evenodd" clip-rule="evenodd" d="M8.58589 19.3663C5.75224 19.3663 3.45508 21.7074 3.45508 24.5953V31.2501C3.45508 34.138 5.75224 36.479 8.58589 36.479H26.4141C29.2478 36.479 31.5449 34.138 31.5449 31.2501V24.5953C31.5449 21.7074 29.2478 19.3663 26.4141 19.3663H8.58589ZM0 24.5953C0 19.7628 3.84402 15.8452 8.58589 15.8452H26.4141C31.156 15.8452 35 19.7628 35 24.5953V31.2501C35 36.0826 31.156 40.0002 26.4141 40.0002H8.58589C3.84402 40.0002 0 36.0826 0 31.2501V24.5953Z" fill="#0F20E8"/>
</svg>
