<svg width="265" height="44" viewBox="0 0 265 44" fill="none" xmlns="http://www.w3.org/2000/svg">
<path d="M42.6276 43.5934C36.8496 43.587 31.31 41.2888 27.2243 37.2031C23.1386 33.1174 20.8404 27.5778 20.834 21.7997V0.96604C20.834 0.710879 20.9349 0.466082 21.1148 0.285087C21.2946 0.104093 21.5388 0.00160479 21.794 0C27.5726 0.00804017 33.1121 2.30757 37.1977 6.39424C41.2832 10.4809 43.5812 16.0211 43.5876 21.7997V42.6334C43.5876 42.888 43.4865 43.1322 43.3065 43.3122C43.1264 43.4923 42.8822 43.5934 42.6276 43.5934ZM22.7539 1.95031V21.7997C22.7616 26.902 24.7284 31.8065 28.2482 35.5003C31.7679 39.1942 36.5717 41.3953 41.6677 41.6492V21.7997C41.6615 16.697 39.6952 11.7917 36.1751 8.09758C32.6551 4.4034 27.8504 2.20271 22.7539 1.95031Z" fill="#0F20E8"/>
<path d="M21.824 22.7597H0.959967C0.705368 22.7597 0.461195 22.6586 0.281166 22.4785C0.101137 22.2985 0 22.0543 0 21.7997C0.00644086 16.0159 2.30859 10.4711 6.4007 6.38351C10.4928 2.29596 16.0402 -3.58603e-06 21.824 1.9261e-10C21.9506 -2.53503e-06 22.076 0.0250252 22.1928 0.0736475C22.3097 0.12227 22.4158 0.193522 22.505 0.283307C22.5942 0.373093 22.6648 0.479639 22.7127 0.59681C22.7606 0.713981 22.7848 0.839465 22.784 0.96604V21.7997C22.784 21.9258 22.7592 22.0506 22.7109 22.1671C22.6627 22.2836 22.592 22.3894 22.5028 22.4785C22.4137 22.5677 22.3079 22.6384 22.1914 22.6866C22.0749 22.7349 21.9501 22.7597 21.824 22.7597ZM1.94423 20.8641H20.8337V1.95031C15.8993 2.19634 11.2328 4.26871 7.74153 7.76444C4.2503 11.2602 2.18392 15.9294 1.94423 20.8641Z" fill="#0F20E8"/>
<path d="M42.6279 43.5932C42.3733 43.5932 42.1292 43.4921 41.9491 43.312C41.7691 43.132 41.668 42.8878 41.668 42.6332V21.7995C41.668 21.5444 41.7689 21.2996 41.9488 21.1186C42.1286 20.9376 42.3728 20.8351 42.6279 20.8335H63.4616C63.7168 20.8351 63.9609 20.9376 64.1408 21.1186C64.3206 21.2996 64.4216 21.5444 64.4216 21.7995C64.4152 27.5776 62.117 33.1172 58.0313 37.2029C53.9456 41.2886 48.406 43.5868 42.6279 43.5932ZM43.5879 22.7595V41.649C48.5183 41.4034 53.1816 39.3345 56.6722 35.8438C60.1629 32.3532 62.2318 27.6899 62.4774 22.7595H43.5879Z" fill="#0F20E8"/>
<path d="M93.2253 29.9352H92.4476C92.03 29.9483 91.6146 29.8708 91.2297 29.7083C90.8448 29.5458 90.4997 29.3019 90.2178 28.9935C89.6214 28.3283 89.3095 27.4558 89.349 26.5632V18.847H92.6177C92.7538 18.8536 92.8898 18.8322 93.0173 18.7841C93.1448 18.736 93.2611 18.6623 93.359 18.5675C93.4486 18.4788 93.5191 18.3726 93.5661 18.2556C93.6132 18.1386 93.6357 18.0131 93.6324 17.8871C93.6369 17.7572 93.615 17.6278 93.568 17.5066C93.521 17.3855 93.4499 17.2751 93.359 17.1823C93.2603 17.0886 93.1439 17.0157 93.0166 16.9677C92.8893 16.9197 92.7537 16.8976 92.6177 16.9028H89.349V12.4189C89.3541 12.2691 89.3283 12.1199 89.2733 11.9805C89.2184 11.8411 89.1353 11.7145 89.0293 11.6085C88.9233 11.5025 88.7967 11.4195 88.6573 11.3645C88.5179 11.3095 88.3687 11.2837 88.2189 11.2888C88.0716 11.2834 87.9248 11.3087 87.7877 11.3631C87.6507 11.4175 87.5265 11.4998 87.423 11.6047C87.2196 11.8262 87.1106 12.1183 87.1192 12.4189V16.9028H85.2357C85.1006 16.8971 84.9658 16.9189 84.8394 16.9669C84.713 17.015 84.5977 17.0882 84.5006 17.1823C84.4086 17.2746 84.3364 17.3847 84.2883 17.5059C84.2403 17.6271 84.2174 17.7568 84.2211 17.8871C84.2186 18.0136 84.2421 18.1393 84.2901 18.2563C84.3382 18.3734 84.4098 18.4793 84.5006 18.5675C84.5969 18.6628 84.712 18.7368 84.8386 18.7849C84.9652 18.8331 85.1005 18.8542 85.2357 18.847H87.1192V26.5754C87.102 27.5674 87.3361 28.5476 87.7997 29.4249C88.2463 30.2655 88.917 30.9659 89.7374 31.4485C90.5578 31.9312 91.4959 32.177 92.4476 32.159H93.0552C93.3751 32.1722 93.6874 32.0587 93.924 31.843C94.0348 31.745 94.1231 31.6243 94.1829 31.489C94.2426 31.3537 94.2725 31.2071 94.2703 31.0592C94.2813 30.7623 94.1768 30.4727 93.9787 30.2512C93.8838 30.1467 93.7672 30.0642 93.6371 30.0096C93.5069 29.9551 93.3664 29.9297 93.2253 29.9352Z" fill="#0F20E8"/>
<path d="M123.185 17.2187C121.932 16.525 120.523 16.1611 119.09 16.1611C117.657 16.1611 116.248 16.525 114.995 17.2187C113.783 17.9086 112.782 18.9145 112.097 20.1289C111.387 21.3825 111.022 22.8018 111.04 24.2422C111.023 25.6737 111.379 27.085 112.073 28.3372C112.729 29.5377 113.699 30.5374 114.88 31.2293C116.084 31.9397 117.461 32.3054 118.859 32.2865C120.055 32.3015 121.236 32.0285 122.304 31.4906C123.326 30.9783 124.209 30.2282 124.88 29.3033V31.041C124.874 31.1884 124.898 31.3356 124.953 31.4728C125.007 31.61 125.09 31.734 125.196 31.8369C125.305 31.9393 125.433 32.0189 125.572 32.0711C125.712 32.1233 125.861 32.1469 126.01 32.1407C126.159 32.1463 126.308 32.1211 126.447 32.0668C126.586 32.0124 126.713 31.93 126.818 31.8247C126.922 31.7226 127.003 31.6004 127.058 31.4656C127.112 31.3308 127.138 31.1863 127.134 31.041V24.2604C127.151 22.8209 126.788 21.4024 126.083 20.1472C125.401 18.926 124.399 17.9136 123.185 17.2187ZM124.169 27.3226C123.679 28.2183 122.955 28.9638 122.073 29.4795C121.168 30.0065 120.137 30.2775 119.09 30.2633C118.039 30.2766 117.004 30.0058 116.095 29.4795C115.205 28.9682 114.474 28.222 113.98 27.3226C113.478 26.3726 113.215 25.314 113.215 24.2392C113.215 23.1643 113.478 22.1058 113.98 21.1557C114.475 20.2541 115.206 19.5043 116.095 18.9867C117.002 18.4539 118.038 18.1787 119.09 18.1908C120.126 18.1771 121.146 18.4459 122.041 18.9683C122.936 19.4906 123.672 20.2469 124.169 21.1557C124.672 22.1058 124.935 23.1643 124.935 24.2392C124.935 25.314 124.672 26.3726 124.169 27.3226Z" fill="#0F20E8"/>
<path d="M146.704 12.4189C146.709 12.2699 146.685 12.1212 146.633 11.9814C146.581 11.8417 146.502 11.7137 146.4 11.6047C146.296 11.4998 146.172 11.4175 146.035 11.3631C145.898 11.3087 145.751 11.2834 145.604 11.2888C145.454 11.2837 145.305 11.3095 145.166 11.3645C145.026 11.4195 144.9 11.5025 144.794 11.6085C144.688 11.7145 144.605 11.8411 144.55 11.9805C144.495 12.1199 144.469 12.2691 144.474 12.4189V19.163C143.801 18.2398 142.918 17.4901 141.898 16.9757C140.83 16.4391 139.648 16.1662 138.453 16.1798C137.069 16.1605 135.706 16.5186 134.511 17.2154C133.315 17.9122 132.332 18.9216 131.666 20.1351C130.973 21.3873 130.619 22.799 130.64 24.2301C130.622 25.6687 130.987 27.086 131.697 28.3373C132.379 29.5514 133.379 30.5572 134.589 31.2476C135.843 31.9412 137.253 32.3051 138.687 32.3051C140.12 32.3051 141.53 31.9412 142.785 31.2476C143.995 30.5572 144.994 29.5514 145.677 28.3373C146.387 27.086 146.752 25.6687 146.734 24.2301V17.4253C146.746 17.3386 146.746 17.2507 146.734 17.164L146.704 12.4189ZM143.769 27.3105C143.272 28.208 142.547 28.9583 141.667 29.4856C140.764 30.0192 139.732 30.2945 138.684 30.2816C137.643 30.2955 136.618 30.0265 135.718 29.5032C134.818 28.9799 134.077 28.222 133.574 27.3105C133.071 26.3605 132.808 25.3019 132.808 24.2271C132.808 23.1522 133.071 22.0937 133.574 21.1436C134.073 20.2481 134.803 19.5032 135.688 18.9868C136.6 18.4659 137.634 18.1974 138.684 18.2091C140.119 18.1741 141.513 18.6917 142.578 19.6551C143.649 20.6117 144.325 21.9331 144.474 23.3613C144.474 23.4115 144.484 23.4611 144.504 23.5071C144.528 23.7474 144.538 23.9887 144.535 24.2301C144.55 25.3058 144.286 26.3671 143.769 27.3105Z" fill="#0F20E8"/>
<path d="M162.483 17.182C161.337 16.5011 160.024 16.1539 158.691 16.1795C157.314 16.1574 155.957 16.5125 154.766 17.2063C153.618 17.8909 152.685 18.8846 152.075 20.0741C151.412 21.3686 151.079 22.8063 151.103 24.2603C151.08 25.7098 151.436 27.1402 152.136 28.41C152.796 29.6154 153.784 30.6096 154.985 31.2778C156.044 31.8561 157.215 32.1995 158.419 32.2844C159.623 32.3693 160.83 32.1938 161.96 31.7699C162.844 31.4675 163.666 31.0108 164.39 30.4211C164.489 30.341 164.569 30.2402 164.625 30.1257C164.681 30.0113 164.711 29.8861 164.712 29.7588C164.709 29.6089 164.674 29.4613 164.609 29.3261C164.544 29.191 164.451 29.0712 164.336 28.975C164.153 28.8328 163.929 28.752 163.698 28.7442C163.411 28.7501 163.135 28.8529 162.914 29.0358C162.413 29.4429 161.84 29.7521 161.225 29.9472C160.549 30.1834 159.839 30.3046 159.123 30.3056C157.639 30.3642 156.19 29.8404 155.087 28.846C153.984 27.8517 153.313 26.4655 153.217 24.9833H164.913C165.051 24.9894 165.189 24.9678 165.318 24.9198C165.447 24.8718 165.566 24.7984 165.666 24.7038C165.765 24.6092 165.842 24.4947 165.892 24.3679C165.942 24.241 165.965 24.1049 165.958 23.9686C165.984 22.5739 165.671 21.1937 165.047 19.9465C164.47 18.8013 163.581 17.8429 162.483 17.182ZM153.278 23.1302C153.428 21.7642 154.051 20.4937 155.04 19.5394C156.029 18.6244 157.339 18.1355 158.685 18.1785C159.34 18.1537 159.993 18.2615 160.604 18.4954C161.216 18.7293 161.775 19.0844 162.246 19.5394C163.197 20.5048 163.772 21.7782 163.868 23.1302H153.278Z" fill="#0F20E8"/>
<path d="M190.036 29.9774H189.307C189.043 29.9714 188.786 29.8965 188.56 29.7601C188.334 29.6236 188.147 29.4305 188.019 29.1997C187.66 28.5857 187.485 27.8813 187.515 27.1704V12.4064C187.523 12.2599 187.5 12.1134 187.447 11.9764C187.395 11.8394 187.314 11.715 187.21 11.6113C187.107 11.5075 186.982 11.4268 186.845 11.3743C186.708 11.3219 186.562 11.2988 186.415 11.3067C186.124 11.3002 185.842 11.4094 185.631 11.6105C185.526 11.7133 185.443 11.8374 185.388 11.9746C185.334 12.1118 185.309 12.2589 185.316 12.4064V27.1704C185.261 28.4635 185.654 29.7358 186.427 30.7733C186.762 31.2182 187.198 31.5773 187.699 31.8213C188.199 32.0652 188.75 32.1871 189.307 32.1768H189.684C190.025 32.1944 190.36 32.0863 190.626 31.8731C190.744 31.7775 190.838 31.6559 190.901 31.5179C190.965 31.3798 190.995 31.2289 190.99 31.0771C191 30.7892 190.908 30.5072 190.729 30.2812C190.643 30.1823 190.537 30.1038 190.417 30.0512C190.297 29.9987 190.167 29.9735 190.036 29.9774Z" fill="#0F20E8"/>
<path d="M204.843 17.2186C203.589 16.525 202.179 16.1611 200.745 16.1611C199.312 16.1611 197.902 16.525 196.647 17.2186C195.437 17.909 194.438 18.9148 193.755 20.1289C193.045 21.3824 192.681 22.8017 192.698 24.2421C192.679 25.6731 193.033 27.0844 193.725 28.3372C194.391 29.5491 195.375 30.5569 196.571 31.2525C197.766 31.9482 199.128 32.3056 200.511 32.2864C201.707 32.3029 202.889 32.0298 203.956 31.4905C204.979 30.9801 205.863 30.2296 206.532 29.3032V31.0409C206.527 31.1888 206.552 31.3362 206.608 31.4735C206.663 31.6107 206.747 31.7345 206.854 31.8368C206.962 31.9391 207.089 32.0186 207.228 32.0708C207.366 32.123 207.514 32.1467 207.663 32.1406C207.812 32.1466 207.961 32.1216 208.1 32.0672C208.239 32.0128 208.365 31.9303 208.471 31.8247C208.576 31.7238 208.659 31.6019 208.715 31.4669C208.77 31.3319 208.797 31.1868 208.793 31.0409V24.2604C208.81 22.8199 208.445 21.4006 207.735 20.1471C207.054 18.9277 206.054 17.9156 204.843 17.2186ZM205.828 27.3226C205.333 28.2172 204.607 28.9622 203.725 29.4794C202.821 30.0065 201.789 30.2774 200.742 30.2632C199.692 30.276 198.657 30.0052 197.747 29.4794C196.861 28.966 196.132 28.2202 195.639 27.3226C195.132 26.3737 194.867 25.3147 194.867 24.2391C194.867 23.1636 195.132 22.1046 195.639 21.1557C196.133 20.2558 196.861 19.5063 197.747 18.9866C198.655 18.4544 199.69 18.1792 200.742 18.1907C201.779 18.178 202.8 18.4471 203.695 18.9693C204.591 19.4915 205.328 20.2472 205.828 21.1557C206.33 22.1057 206.593 23.1643 206.593 24.2391C206.593 25.314 206.33 26.3725 205.828 27.3226Z" fill="#0F20E8"/>
<path d="M247.956 12.4191C247.961 12.27 247.937 12.1213 247.885 11.9816C247.833 11.8419 247.754 11.7139 247.652 11.6049C247.548 11.5 247.424 11.4177 247.287 11.3633C247.15 11.3089 247.003 11.2836 246.856 11.289C246.706 11.2829 246.557 11.3081 246.417 11.3628C246.278 11.4175 246.151 11.5007 246.046 11.6069C245.94 11.7132 245.857 11.8402 245.803 11.98C245.749 12.1198 245.725 12.2694 245.732 12.4191V19.1631C245.055 18.2416 244.17 17.4923 243.15 16.9759C242.082 16.4393 240.9 16.1664 239.705 16.1799C238.321 16.1607 236.958 16.5187 235.763 17.2156C234.567 17.9124 233.584 18.9218 232.918 20.1352C232.225 21.3875 231.871 22.7991 231.891 24.2303C231.874 25.6688 232.239 27.0862 232.949 28.3375C233.631 29.5515 234.631 30.5574 235.841 31.2478C237.095 31.9414 238.505 32.3052 239.939 32.3052C241.372 32.3052 242.782 31.9414 244.037 31.2478C245.247 30.5574 246.246 29.5515 246.929 28.3375C247.639 27.0862 248.004 25.6688 247.986 24.2303V17.4255C247.998 17.3388 247.998 17.2509 247.986 17.1642L247.956 12.4191ZM245.021 27.3107C244.524 28.2081 243.799 28.9585 242.919 29.4858C242.018 30.0195 240.988 30.2948 239.942 30.2817C238.901 30.2976 237.875 30.0295 236.974 29.506C236.074 28.9825 235.333 28.2235 234.832 27.3107C234.326 26.3618 234.061 25.3028 234.061 24.2273C234.061 23.1517 234.326 22.0927 234.832 21.1438C235.327 20.2475 236.056 19.5021 236.94 18.9869C237.854 18.4653 238.89 18.1968 239.942 18.2092C241.375 18.1758 242.767 18.6934 243.83 19.6553C244.901 20.6127 245.579 21.9332 245.732 23.3615C245.722 23.4096 245.722 23.4592 245.732 23.5073C245.745 23.7481 245.745 23.9895 245.732 24.2303C245.764 25.3011 245.519 26.3621 245.021 27.3107Z" fill="#0F20E8"/>
<path d="M263.639 24.8256C262.752 24.0439 261.276 23.4788 259.21 23.1305C258.091 23.0181 257.008 22.6768 256.026 22.128C255.745 21.9518 255.515 21.7058 255.357 21.4141C255.2 21.1223 255.12 20.7947 255.127 20.4632C255.134 20.1321 255.225 19.8082 255.392 19.5222C255.559 19.2361 255.796 18.9975 256.081 18.8289C256.847 18.3616 257.736 18.1352 258.633 18.1788C259.359 18.1419 260.084 18.2686 260.755 18.5493C261.426 18.8301 262.026 19.2578 262.509 19.801C262.638 19.9406 262.795 20.0512 262.97 20.1256C263.145 20.2 263.334 20.2364 263.524 20.2324C263.719 20.2418 263.912 20.1909 264.077 20.0865C264.217 20.0108 264.334 19.8984 264.415 19.7615C264.496 19.6245 264.539 19.4681 264.538 19.3088C264.522 19.0696 264.442 18.8389 264.308 18.6405C263.709 17.8505 262.921 17.2237 262.017 16.8178C260.967 16.3643 259.831 16.1426 258.687 16.1677C257.234 16.1147 255.802 16.5207 254.592 17.3282C254.065 17.6891 253.637 18.1787 253.352 18.7507C253.066 19.3226 252.93 19.958 252.958 20.5969C252.96 21.1352 253.088 21.6656 253.332 22.1456C253.576 22.6256 253.928 23.042 254.362 23.3614C255.618 24.2538 257.082 24.8083 258.615 24.9714C259.747 25.0887 260.842 25.4427 261.829 26.0104C262.132 26.1891 262.385 26.4427 262.563 26.7469C262.74 27.0511 262.837 27.3958 262.843 27.748C262.834 28.1148 262.734 28.4736 262.552 28.7918C262.369 29.1101 262.11 29.3778 261.798 29.5708C260.877 30.0995 259.82 30.3427 258.76 30.2695C257.896 30.2809 257.037 30.1326 256.227 29.832C255.526 29.5879 254.899 29.1698 254.404 28.6169C254.304 28.4913 254.176 28.39 254.031 28.3205C253.886 28.2511 253.727 28.2153 253.566 28.2159C253.303 28.2207 253.05 28.3102 252.843 28.471C252.703 28.5701 252.589 28.7001 252.509 28.8509C252.429 29.0018 252.385 29.1692 252.381 29.3399C252.396 29.5889 252.497 29.825 252.666 30.0082C253.407 30.7811 254.322 31.3664 255.334 31.7155C256.437 32.1221 257.603 32.3279 258.779 32.3231C259.877 32.34 260.969 32.144 261.993 31.7459C262.862 31.4125 263.625 30.8523 264.204 30.1236C264.729 29.4437 265.009 28.6068 265 27.748C265.008 27.1899 264.889 26.6374 264.653 26.1314C264.418 25.6254 264.071 25.1791 263.639 24.8256Z" fill="#0F20E8"/>
<path d="M226.679 32.165C226.533 32.1658 226.389 32.1377 226.255 32.0824C226.12 32.0271 225.998 31.9457 225.895 31.8429C225.792 31.74 225.711 31.6178 225.655 31.4833C225.6 31.3488 225.572 31.2046 225.573 31.0592V23.4645C225.527 22.1422 224.97 20.8893 224.018 19.97C223.067 19.0508 221.795 18.5369 220.472 18.5369C219.149 18.5369 217.878 19.0508 216.926 19.97C215.975 20.8893 215.417 22.1422 215.372 23.4645V31.0592C215.372 31.3524 215.255 31.6337 215.048 31.8411C214.84 32.0484 214.559 32.165 214.266 32.165C213.973 32.165 213.691 32.0484 213.484 31.8411C213.277 31.6337 213.16 31.3524 213.16 31.0592V23.4645C213.16 21.5252 213.931 19.6653 215.302 18.294C216.673 16.9227 218.533 16.1523 220.472 16.1523C222.412 16.1523 224.271 16.9227 225.643 18.294C227.014 19.6653 227.784 21.5252 227.784 23.4645V31.0592C227.785 31.2046 227.757 31.3488 227.702 31.4833C227.647 31.6178 227.565 31.74 227.462 31.8429C227.36 31.9457 227.237 32.0271 227.103 32.0824C226.968 32.1377 226.824 32.1658 226.679 32.165Z" fill="#0F20E8"/>
<path d="M180.771 17.1456L180.643 17.0605L180.588 17.0302C179.476 16.4285 178.226 16.1264 176.962 16.1535C175.698 16.1807 174.463 16.5363 173.377 17.1853C172.292 17.8342 171.394 18.7543 170.772 19.8552C170.15 20.9561 169.824 22.1998 169.828 23.4644V31.059C169.828 31.3523 169.945 31.6336 170.152 31.8409C170.359 32.0483 170.641 32.1648 170.934 32.1648C171.227 32.1648 171.508 32.0483 171.716 31.8409C171.923 31.6336 172.04 31.3523 172.04 31.059V23.4644C172.04 22.1119 172.577 20.8147 173.532 19.8577C174.488 18.9008 175.785 18.3624 177.137 18.3608C178.027 18.3664 178.899 18.6075 179.665 19.0595C179.82 19.1441 179.993 19.1899 180.169 19.1931C180.316 19.1931 180.461 19.1642 180.596 19.1079C180.731 19.0517 180.854 18.9692 180.957 18.8653C181.061 18.7614 181.143 18.6381 181.198 18.5025C181.254 18.367 181.282 18.2217 181.281 18.0752C181.281 17.8898 181.234 17.7073 181.145 17.5448C181.056 17.3823 180.927 17.245 180.771 17.1456Z" fill="#0F20E8"/>
<path d="M108.829 17.1456L108.708 17.0605L108.647 17.0302C107.535 16.4285 106.285 16.1264 105.021 16.1535C103.757 16.1807 102.521 16.5363 101.436 17.1853C100.351 17.8342 99.4527 18.7543 98.8304 19.8552C98.2082 20.9561 97.883 22.1998 97.8868 23.4644V31.059C97.8868 31.3523 98.0032 31.6336 98.2106 31.8409C98.418 32.0483 98.6993 32.1648 98.9925 32.1648C99.2858 32.1648 99.5671 32.0483 99.7744 31.8409C99.9818 31.6336 100.098 31.3523 100.098 31.059V23.4644C100.1 22.1113 100.638 20.8141 101.595 19.8574C102.552 18.9006 103.849 18.3624 105.202 18.3608C106.091 18.3673 106.963 18.6083 107.729 19.0595C107.882 19.144 108.053 19.1899 108.228 19.1931C108.524 19.1931 108.808 19.0754 109.018 18.8657C109.228 18.6561 109.346 18.3717 109.346 18.0752C109.346 17.8891 109.298 17.7061 109.208 17.5434C109.118 17.3807 108.987 17.2438 108.829 17.1456Z" fill="#0F20E8"/>
</svg>
