<svg width="28" height="28" viewBox="0 0 28 28" fill="none" xmlns="http://www.w3.org/2000/svg">
<path fill-rule="evenodd" clip-rule="evenodd" d="M24.1402 0C25.9945 0 27.5 1.50552 27.5 3.35983V24.1402C27.5 25.9945 25.9945 27.5 24.1402 27.5H3.35983C1.50552 27.5 0 25.9945 0 24.1402V3.35983C0 1.50552 1.50546 0 3.35983 0L24.1402 0ZM23.0927 7.37564H17.7487L13.9392 16.8785L9.60625 7.37564H4.00044V7.70054L5.80588 9.87545C5.98318 10.0352 6.07363 10.2699 6.04957 10.5072V19.0534C6.1021 19.3616 6.00499 19.6766 5.78789 19.9017L3.75676 22.3653V22.6901H9.51602V22.3653L7.48489 19.9017C7.26612 19.6771 7.16294 19.3641 7.20505 19.0534V11.6624L12.2603 22.6901H12.847L17.189 11.6624V20.4522C17.189 20.6868 17.189 20.7319 17.0355 20.8853L15.4739 22.4015V22.7263H23.0565V22.4015L21.549 20.9214C21.4159 20.82 21.3499 20.6533 21.3775 20.4883V9.61377C21.3499 9.44872 21.4159 9.28195 21.549 9.18054L23.0927 7.70054V7.37564Z" fill="#3A3A3A"/>
</svg>
